<svg xmlns="http://www.w3.org/2000/svg" xmlns:xlink="http://www.w3.org/1999/xlink" width="871" height="410" viewBox="0 0 871 410">
  <defs>
    <clipPath id="clip-iamge_homeBackground1">
      <rect width="871" height="410"/>
    </clipPath>
  </defs>
  <g id="iamge_homeBackground1" clip-path="url(#clip-iamge_homeBackground1)">
    <g id="Group_16759" data-name="Group 16759" transform="translate(0 -33.526)">
      <g id="Layer_4" data-name="Layer 4" transform="translate(0 271.208)">
        <path id="Path_11598" data-name="Path 11598" d="M0,1083.107c45.515,5.3,93.605,8.827,141.15,11.291,113.951,5.906,235.94,7.483,331.659,28.348,78.855,17.189,127.872,44.98,185.061,69.562,57.227,24.6,130.252,46.958,212.13,63.117H0Z" transform="translate(0 -1083.107)" fill="#f0f8ff"/>
      </g>
      <g id="Layer_3" data-name="Layer 3" transform="translate(28.249 33.526)">
        <g id="Group_16758" data-name="Group 16758">
          <path id="Path_11796" data-name="Path 11796" d="M279.292,441.53l-183.28-7.01V248.581l183.28,47.67Z" transform="translate(-96.012 -248.581)" fill="#fff"/>
          <path id="Path_11797" data-name="Path 11797" d="M279.292,296.25l-183.28-47.67v25.114l183.28,42.178Z" transform="translate(-96.012 -248.581)" fill="#44b8fa"/>
          <path id="Path_11798" data-name="Path 11798" d="M686.556,431.2c0,1.984-1.1,3.33-2.464,3.005S681.61,432,681.61,430s1.114-3.342,2.483-3S686.556,429.22,686.556,431.2Z" transform="translate(-509.311 -374.465)" fill="#fff"/>
          <path id="Path_11799" data-name="Path 11799" d="M659.769,424.6c0,2.008-1.127,3.366-2.523,3.034s-2.542-2.247-2.542-4.269,1.14-3.379,2.542-3.029S659.769,422.588,659.769,424.6Z" transform="translate(-490.321 -369.759)" fill="#fff"/>
          <path id="Path_11800" data-name="Path 11800" d="M416.828,473.376l-33.481-5.531V426.759l33.481,7.356Z" transform="translate(-298.805 -374.334)" fill="#e6effa"/>
          <path id="Path_11801" data-name="Path 11801" d="M629.386,644.116l-28.133-3.078v-38.4l28.133,4.644Z" transform="translate(-452.597 -498.465)" fill="#e6effa"/>
          <path id="Path_11802" data-name="Path 11802" d="M416.828,751.469,383.347,749.6V709.314l33.481,3.663Z" transform="translate(-298.805 -573.753)" fill="#e6effa"/>
          <g id="Group_16745" data-name="Group 16745" transform="translate(38.441 41.554)">
            <g id="Group_16738" data-name="Group 16738">
              <path id="Path_11803" data-name="Path 11803" d="M365.887,529.834l-139.224-7.677V389.811l139.224,30.717Zm-138-9.092,137.159,7.818V421.571L227.889,391.564Z" transform="translate(-226.663 -389.811)" fill="#c9def5"/>
            </g>
            <g id="Group_16739" data-name="Group 16739" transform="translate(0.613 43.707)">
              <path id="Path_11804" data-name="Path 11804" d="M366.939,562.542l-138.191-22.7v-1.484l138.191,22.954Z" transform="translate(-228.748 -538.361)" fill="#c9def5"/>
            </g>
            <g id="Group_16740" data-name="Group 16740" transform="translate(0.613 88.06)">
              <path id="Path_11805" data-name="Path 11805" d="M366.939,705.614,228.748,690.586V689.1l138.191,15.284Z" transform="translate(-228.748 -689.102)" fill="#c9def5"/>
            </g>
            <g id="Group_16741" data-name="Group 16741" transform="translate(109.758 24.857)">
              <path id="Path_11806" data-name="Path 11806" d="M600.613,587.245l-.913-.051v-112.9l.913.2Z" transform="translate(-599.7 -474.293)" fill="#c9def5"/>
            </g>
            <g id="Group_16742" data-name="Group 16742" transform="translate(79.084 18.019)">
              <path id="Path_11807" data-name="Path 11807" d="M496.442,569.031l-1-.056V451.054l1,.219Z" transform="translate(-495.447 -451.054)" fill="#c9def5"/>
            </g>
            <g id="Group_16743" data-name="Group 16743" transform="translate(45.555 10.8)">
              <path id="Path_11808" data-name="Path 11808" d="M382.582,549.986l-1.09-.061V426.517l1.09.239Z" transform="translate(-381.492 -426.517)" fill="#c9def5"/>
            </g>
            <g id="Group_16744" data-name="Group 16744" transform="translate(8.754 2.666)">
              <path id="Path_11809" data-name="Path 11809" d="M257.615,528.368l-1.2-.067V398.871l1.2.263Z" transform="translate(-256.416 -398.871)" fill="#c9def5"/>
            </g>
          </g>
          <path id="Path_11810" data-name="Path 11810" d="M298.7,435.689l-31.36-6.162V415.409l31.36,6.724Z" transform="translate(-216.93 -366.323)" fill="#25385e"/>
          <g id="Group_16746" data-name="Group 16746" transform="translate(54.036 54.207)">
            <path id="Path_11811" data-name="Path 11811" d="M305.871,435.251l-5.8-1.212v-1.224l5.8,1.221Z" transform="translate(-294.065 -432.815)" fill="#fff"/>
            <path id="Path_11812" data-name="Path 11812" d="M296.9,443.992l-17.232-3.531v-1.234l17.232,3.558Z" transform="translate(-279.665 -437.341)" fill="#fff"/>
            <path id="Path_11813" data-name="Path 11813" d="M287.928,452.828l-8.262-1.66v-1.234l8.262,1.673Z" transform="translate(-279.665 -444.897)" fill="#fff"/>
            <path id="Path_11814" data-name="Path 11814" d="M313.271,457.954l-1.48-.3v-1.219l1.48.3Z" transform="translate(-302.338 -449.488)" fill="#fff"/>
            <path id="Path_11815" data-name="Path 11815" d="M347.308,454.39l-5.731-1.174v-1.2l5.731,1.183Z" transform="translate(-323.361 -446.363)" fill="#fff"/>
            <path id="Path_11816" data-name="Path 11816" d="M325.766,439.433l-3.156-.659V437.56l3.156.664Z" transform="translate(-309.975 -436.164)" fill="#fff"/>
          </g>
          <path id="Path_11817" data-name="Path 11817" d="M420.622,596.831l-28.559-4.078v-13.46l28.559,4.589Z" transform="translate(-304.957 -481.989)" fill="#44b8fa"/>
          <g id="Group_16747" data-name="Group 16747" transform="translate(90.404 101.628)">
            <path id="Path_11818" data-name="Path 11818" d="M427.114,595.975l-5.282-.82v-1.168l5.282.828Z" transform="translate(-416.37 -593.987)" fill="#fff"/>
            <path id="Path_11819" data-name="Path 11819" d="M410.131,603.5l-6.86-1.037v-1.176l6.86,1.048Z" transform="translate(-403.271 -599.14)" fill="#fff"/>
            <path id="Path_11820" data-name="Path 11820" d="M415.379,614.457l-12.108-1.782V611.5l12.108,1.8Z" transform="translate(-403.271 -606.346)" fill="#fff"/>
            <path id="Path_11821" data-name="Path 11821" d="M456.208,620.514l-8.629-1.27v-1.156l8.629,1.284Z" transform="translate(-434.542 -610.997)" fill="#fff"/>
            <path id="Path_11822" data-name="Path 11822" d="M444.082,608.664l-13.886-2.1V605.4l13.886,2.121Z" transform="translate(-422.274 -602.043)" fill="#fff"/>
            <path id="Path_11823" data-name="Path 11823" d="M451.017,599.707l-8.664-1.345V597.2l8.664,1.358Z" transform="translate(-430.854 -596.258)" fill="#fff"/>
          </g>
          <path id="Path_11824" data-name="Path 11824" d="M634.294,757.788l-23.962-2.1V743.382l23.962,2.526Z" transform="translate(-459.006 -597.798)" fill="#25385e"/>
          <g id="Group_16748" data-name="Group 16748" transform="translate(154.086 149.026)">
            <path id="Path_11825" data-name="Path 11825" d="M648.969,757.52l-13.716-1.371v-1.069l13.716,1.392Z" transform="translate(-630.68 -755.081)" fill="#fff"/>
            <path id="Path_11826" data-name="Path 11826" d="M630.835,764.987l-11.126-1.067v-1.076l11.126,1.085Z" transform="translate(-619.709 -760.56)" fill="#fff"/>
            <path id="Path_11827" data-name="Path 11827" d="M624.783,773.727l-5.074-.466v-1.076l5.074.474Z" transform="translate(-619.709 -767.153)" fill="#fff"/>
            <path id="Path_11828" data-name="Path 11828" d="M652,776.251l-12.412-1.141v-1.067L652,775.2Z" transform="translate(-633.741 -768.464)" fill="#fff"/>
            <path id="Path_11829" data-name="Path 11829" d="M666.63,768.466l-6.364-.611V766.8l6.364.62Z" transform="translate(-648.333 -763.35)" fill="#fff"/>
          </g>
          <path id="Path_11830" data-name="Path 11830" d="M531.7,482.649l-26.12-5.142V464.248l26.12,5.625Z" transform="translate(-385.071 -400.793)" fill="#44b8fa"/>
          <g id="Group_16749" data-name="Group 16749" transform="translate(123.101 67.933)">
            <path id="Path_11831" data-name="Path 11831" d="M535.969,482.664l-9.934-2.079v-1.12l9.934,2.095Z" transform="translate(-522.611 -479.465)" fill="#fff"/>
            <path id="Path_11832" data-name="Path 11832" d="M525.241,490.126,514.4,487.9v-1.125l10.84,2.242Z" transform="translate(-514.401 -484.625)" fill="#fff"/>
            <path id="Path_11833" data-name="Path 11833" d="M527.234,500.248,514.4,497.665V496.54l12.833,2.6Z" transform="translate(-514.401 -491.516)" fill="#fff"/>
            <path id="Path_11834" data-name="Path 11834" d="M567.259,508.359l-3.031-.61v-1.1l3.031.615Z" transform="translate(-549.567 -498.649)" fill="#fff"/>
            <path id="Path_11835" data-name="Path 11835" d="M558.69,497.039l-3.053-.627v-1.106l3.053.632Z" transform="translate(-543.504 -490.645)" fill="#fff"/>
            <path id="Path_11836" data-name="Path 11836" d="M568.943,489.607l-5.237-1.1v-1.1l5.237,1.1Z" transform="translate(-549.199 -485.072)" fill="#fff"/>
          </g>
          <path id="Path_11837" data-name="Path 11837" d="M271.738,337.086l-31.22-7.652c-2.9-.71-5.261,1.342-5.261,4.588v6.066l41.273,9.5v-5.751C276.53,340.756,274.392,337.737,271.738,337.086Z" transform="translate(-194.287 -305.546)" fill="#c9def5"/>
          <path id="Path_11838" data-name="Path 11838" d="M123.668,388.28c0,1.448-1,2.413-2.248,2.155a3.19,3.19,0,0,1-2.26-3.107c0-1.456,1.013-2.419,2.26-2.152A3.2,3.2,0,0,1,123.668,388.28Z" transform="translate(-112.349 -344.954)" fill="#c9def5"/>
          <path id="Path_11839" data-name="Path 11839" d="M163.313,399.3l-13.468-2.8a3.121,3.121,0,0,1-2.316-2.978v-.228a1.886,1.886,0,0,1,2.316-2l13.468,2.888a3.052,3.052,0,0,1,2.228,2.919v.223A1.843,1.843,0,0,1,163.313,399.3Z" transform="translate(-132.371 -349.265)" fill="#c9def5"/>
          <path id="Path_11840" data-name="Path 11840" d="M123.668,420.891c0,1.448-1,2.425-2.248,2.181a3.144,3.144,0,0,1-2.26-3.081c0-1.456,1.013-2.431,2.26-2.178A3.149,3.149,0,0,1,123.668,420.891Z" transform="translate(-112.349 -367.992)" fill="#c9def5"/>
          <path id="Path_11841" data-name="Path 11841" d="M163.313,431.448,149.845,428.8a3.075,3.075,0,0,1-2.316-2.951v-.228a1.91,1.91,0,0,1,2.316-2.026l13.468,2.732a3.007,3.007,0,0,1,2.228,2.893v.223A1.867,1.867,0,0,1,163.313,431.448Z" transform="translate(-132.371 -372.07)" fill="#c9def5"/>
          <g id="Group_16750" data-name="Group 16750" transform="translate(88.048 138.842)">
            <path id="Path_11842" data-name="Path 11842" d="M410.655,723.5,395.262,721.9v-1.435l15.393,1.625Z" transform="translate(-395.262 -720.467)" fill="#25385e"/>
          </g>
          <g id="Group_16751" data-name="Group 16751" transform="translate(88.048 142.636)">
            <path id="Path_11843" data-name="Path 11843" d="M410.655,736.312l-15.393-1.517v-1.434l15.393,1.546Z" transform="translate(-395.262 -733.361)" fill="#25385e"/>
          </g>
          <g id="Group_16754" data-name="Group 16754" transform="translate(9.071 87.694)">
            <g id="Group_16752" data-name="Group 16752">
              <path id="Path_11844" data-name="Path 11844" d="M144.278,550.876l-17.437-2.708v-1.54l17.437,2.741Z" transform="translate(-126.841 -546.629)" fill="#c9def5"/>
            </g>
            <g id="Group_16753" data-name="Group 16753" transform="translate(0 4.507)">
              <path id="Path_11845" data-name="Path 11845" d="M137.331,565.06l-10.49-1.572v-1.54l10.49,1.592Z" transform="translate(-126.841 -561.948)" fill="#c9def5"/>
            </g>
          </g>
          <g id="Group_16757" data-name="Group 16757" transform="translate(9.071 137.17)">
            <g id="Group_16755" data-name="Group 16755">
              <path id="Path_11846" data-name="Path 11846" d="M144.278,717.99l-17.437-1.668v-1.54l17.437,1.7Z" transform="translate(-126.841 -714.783)" fill="#c9def5"/>
            </g>
            <g id="Group_16756" data-name="Group 16756" transform="translate(0 4.507)">
              <path id="Path_11847" data-name="Path 11847" d="M137.331,732.588l-10.49-.946V730.1l10.49.965Z" transform="translate(-126.841 -730.102)" fill="#c9def5"/>
            </g>
          </g>
        </g>
      </g>
    </g>
    <g id="Group_16765" data-name="Group 16765" transform="translate(-1644.572 -1099.71)">
      <g id="Group" transform="translate(1865.31 1255.709) rotate(45)">
        <ellipse id="Oval" cx="56.846" cy="47.641" rx="56.846" ry="47.641" transform="matrix(-0.96, -0.281, 0.281, -0.96, 109.1, 151.513)" fill="#8c684e"/>
        <ellipse id="Oval-2" data-name="Oval" cx="43.423" cy="36.392" rx="43.423" ry="36.392" transform="matrix(-0.96, -0.281, 0.281, -0.96, 102.381, 94.278)" fill="#8c684e"/>
        <ellipse id="Oval-3" data-name="Oval" cx="56.846" cy="47.641" rx="56.846" ry="47.641" transform="matrix(-0.96, -0.281, 0.281, -0.96, 109.1, 151.513)" fill="#8c684e"/>
        <ellipse id="Oval-4" data-name="Oval" cx="43.423" cy="36.392" rx="43.423" ry="36.392" transform="matrix(-0.96, -0.281, 0.281, -0.96, 102.381, 94.278)" fill="#8c684e"/>
      </g>
      <path id="Path" d="M20.23,113.728C7.894,101.221,2.284,84.351,6.954,68.426A41.443,41.443,0,0,1,19.91,48.575c.878-.761,1.783-1.485,2.725-2.176a32.248,32.248,0,0,1-1.067-7.591,30.8,30.8,0,0,1,1.259-9.272C28.476,10.251,51.7.1,74.711,6.851a50.338,50.338,0,0,1,16.573,8.393A49.222,49.222,0,0,0,69.4,2.091c-23-6.755-46.24,3.406-51.888,22.684a31.538,31.538,0,0,0-.193,16.858A42.114,42.114,0,0,0,1.635,63.661c-5.292,18.038,2.628,37.32,18.6,50.067Z" transform="translate(1866.46 1271.219) rotate(45)" fill="#59442a"/>
      <ellipse id="Oval-5" data-name="Oval" cx="33.739" cy="28.297" rx="33.739" ry="28.297" transform="matrix(-0.96, -0.281, 0.281, -0.96, 1929.439, 1352.872)" fill="#8c684e"/>
      <ellipse id="Oval-6" data-name="Oval" cx="19.537" cy="31.058" rx="19.537" ry="31.058" transform="translate(1881.513 1321.165) rotate(-96.28)" fill="#8c684e"/>
      <path id="Path-2" data-name="Path" d="M0,9.738A43.378,43.378,0,0,1,19.089,3.183c17.029-1.874,31.829,5.3,32.994,16.026.532,4.792-1.745,9.472-5.939,13.359,6.5-4.313,10.3-10.2,9.632-16.25C54.6,5.6,39.811-1.577,22.782.3,13.357,1.336,5.2,4.924,0,9.738Z" transform="translate(1885.343 1278.624)" fill="#aa7c62"/>
      <g id="Group_16763" data-name="Group 16763" transform="translate(1891.978 1291.16)">
        <g id="Group_16692" data-name="Group 16692" transform="translate(0 11.096)">
          <path id="Path_11767" data-name="Path 11767" d="M858.919,802.764l19.279,14.62,12.9-45.7-21.475-4.716Z" transform="translate(-858.919 -766.964)" fill="#f9e0e5"/>
        </g>
        <g id="Group_16694" data-name="Group 16694" transform="translate(10.374 0.003)">
          <path id="Path_11769" data-name="Path 11769" d="M912.194,728.665a14.118,14.118,0,1,0,10.761,16.818A14.118,14.118,0,0,0,912.194,728.665Z" transform="translate(-895.044 -728.333)" fill="#feb2bf"/>
        </g>
        <g id="Group_16695" data-name="Group 16695" transform="translate(18.539 12.889)">
          <path id="Path_11770" data-name="Path 11770" d="M923.481,773.208l1.032,22.5,10.86,2.385a6.929,6.929,0,0,0,8.234-6.675l-.051-17.2Z" transform="translate(-923.481 -773.208)" fill="#f9e0e5"/>
        </g>
        <g id="Group_16696" data-name="Group 16696" transform="translate(2.874)">
          <path id="Path_11771" data-name="Path 11771" d="M902.245,728.654a14.121,14.121,0,0,0-16.816,10.77l-7.83,25.422c10.905-6.356,9.955-13.9,14.5-15.883,5.52-2.409,5.812-9.346,10.242-9.283h10.725A13.765,13.765,0,0,0,902.245,728.654Z" transform="translate(-877.599 -728.323)" fill="#8c684e"/>
        </g>
        <g id="Group_16697" data-name="Group 16697" transform="translate(13.323 14.633)">
          <path id="Path_11772" data-name="Path 11772" d="M910.939,779.391a4.629,4.629,0,1,0,3.528,5.514A4.629,4.629,0,0,0,910.939,779.391Z" transform="translate(-905.317 -779.283)" fill="#f9e0e5"/>
        </g>
        <g id="Group_16704" data-name="Group 16704" transform="translate(31.993 22.449)">
          <g id="Group_16701" data-name="Group 16701" transform="translate(4.03)">
            <g id="Group_16700" data-name="Group 16700">
              <path id="Path_11774" data-name="Path 11774" d="M985.722,809.081h-1.357v.749h2.106V806.5h-.75Z" transform="translate(-984.365 -806.5)" fill="#25385e"/>
            </g>
          </g>
          <g id="Group_16703" data-name="Group 16703" transform="translate(0 6.05)">
            <g id="Group_16702" data-name="Group 16702">
              <path id="Path_11775" data-name="Path 11775" d="M970.937,827.57l-.605.44a5.569,5.569,0,0,0,4.03,2.248v-.749A4.9,4.9,0,0,1,970.937,827.57Z" transform="translate(-970.331 -827.57)" fill="#feb2bf"/>
            </g>
          </g>
        </g>
      </g>
      <g id="Group_16674" data-name="Group 16674" transform="translate(1796.676 1393.874)">
        <path id="Path_11751" data-name="Path 11751" d="M529.237,1085.656V1201.49H735.3l-31.4-115.834Z" transform="translate(-529.237 -1085.656)" fill="#f09f67"/>
      </g>
      <g id="Group_16675" data-name="Group 16675" transform="translate(1808.376 1394.472)">
        <path id="Path_11752" data-name="Path 11752" d="M569.983,1088.171l27.642,114.8h1.909l-27.746-115.237Z" transform="translate(-569.983 -1087.737)" fill="#25385e"/>
      </g>
      <g id="Group_16676" data-name="Group 16676" transform="translate(1940.189 1465.437)">
        <path id="Path_11753" data-name="Path 11753" d="M1071.085,1334.912c-.582-.031-1.165-.042-1.757-.042a39.926,39.926,0,0,0-39.71,44.271h78.267C1110.549,1357.105,1094.355,1335.921,1071.085,1334.912Z" transform="translate(-1029.372 -1334.869)" fill="#2d9cb3"/>
      </g>
      <g id="Group_16677" data-name="Group 16677" transform="translate(1941.615 1465.667)">
        <path id="Path_11754" data-name="Path 11754" d="M1114.773,1335.667h-80.394l31.636,44.042h88.861l-9.727-23.681A32.837,32.837,0,0,0,1114.773,1335.667Z" transform="translate(-1034.379 -1335.667)" fill="#2d9cb3"/>
      </g>
      <g id="Group_16678" data-name="Group 16678" transform="translate(1847.85 1465.44)">
        <path id="Path_11755" data-name="Path 11755" d="M709.1,1334.877l-1.333,15.8c-.626,11.313,1.2,21.085,5.388,28.464H838.915v-44.269Z" transform="translate(-707.652 -1334.877)" fill="#2d9cb3"/>
      </g>
      <g id="Group_16679" data-name="Group 16679" transform="translate(1945.946 1465.437)">
        <path id="Path_11756" data-name="Path 11756" d="M1085.38,1334.912c-.582-.031-1.165-.042-1.757-.042a39.625,39.625,0,0,0-27.2,10.68l-4.922,12.013s-4.036,11.116-.848,21.578h71.529C1124.843,1357.105,1108.649,1335.921,1085.38,1334.912Z" transform="translate(-1049.424 -1334.869)" fill="#3fcce8"/>
      </g>
      <g id="Group_16680" data-name="Group 16680" transform="translate(1778.683 1339.764)">
        <path id="Path_11757" data-name="Path 11757" d="M560.415,897.235c-.317,0-.635.01-.953.021a22.326,22.326,0,0,0-12.309,4.318l-8.775,6.383-36.062,26.207L475.791,953.45a22.5,22.5,0,0,0,26.578,36.316L530.9,969.031l6.445-4.689,25.509-18.534,10.881-7.917a22.5,22.5,0,0,0-13.316-40.655Z" transform="translate(-466.578 -897.235)" fill="#f9d17a"/>
      </g>
      <g id="Group_16688" data-name="Group 16688" transform="translate(1910.421 1346.188)">
        <g id="Group_16681" data-name="Group 16681">
          <path id="Path_11758" data-name="Path 11758" d="M1029.526,983.337l-24.675-21.608-41.7-36.509a22.5,22.5,0,0,0-29.757,33.766l39.85,34.883,26.53,23.225a22.5,22.5,0,1,0,29.755-33.758Z" transform="translate(-925.775 -919.602)" fill="#f9d17a"/>
        </g>
        <g id="Group_16686" data-name="Group 16686" transform="translate(71.092 52.887)">
          <g id="Group_16682" data-name="Group 16682" transform="translate(86.208)">
            <path id="Path_11759" data-name="Path 11759" d="M1517.213,1106.294h0a3,3,0,0,0-2.689,1.779,12.607,12.607,0,0,1-11.336,7.4l-6.167.071a2.074,2.074,0,0,1-1.653-3.359,3.51,3.51,0,0,1,2.718-1.338l3.693-.042a3.615,3.615,0,0,0,3.61-3.21,3.514,3.514,0,0,0-3.541-3.818l-5.2.06a7.692,7.692,0,0,0-5.95,2.929l-7.041,8.932-10.093.117.339,29.364,24.032-.277a10.276,10.276,0,0,0,9.251-6.055l12.776-28.358A2.973,2.973,0,0,0,1517.213,1106.294Z" transform="translate(-1473.56 -1103.777)" fill="#f9e0e5"/>
          </g>
          <g id="Group_16683" data-name="Group 16683" transform="translate(101.062 6.323)">
            <path id="Path_11760" data-name="Path 11760" d="M1528.293,1151.868c8.477-.871,21.94-26.07,21.94-26.07l-18.264,4.185S1519.817,1152.739,1528.293,1151.868Z" transform="translate(-1525.289 -1125.798)" fill="#eacdd3"/>
          </g>
          <g id="Group_16684" data-name="Group 16684" transform="translate(0 6.2)">
            <path id="Path_11761" data-name="Path 11761" d="M1206,1126.288a.413.413,0,0,0-.106-.01l-.963-.085c-.043-.011-.074,0-.084-.011-.032.011-.043,0-.043,0l-9.229-.815a22.489,22.489,0,0,0-22.228,22.757c.127,12.426,8.172,22.4,22.746,22.238,14.7-.17,48.827-6.774,60.1-9.039,2.339-.466,3.694-.752,3.694-.752v-.032l1.64-29.351-51.621-4.551Z" transform="translate(-1173.348 -1125.367)" fill="#eacdd3"/>
          </g>
          <g id="Group_16685" data-name="Group 16685" transform="translate(36.561 7.47)">
            <path id="Path_11762" data-name="Path 11762" d="M1325.637,1143.022c20.322,4,21.519,17.02,21.317,21.455,2.339-.466,3.694-.751,3.694-.751v-.032l1.641-29.351-51.622-4.551C1303.516,1133.908,1310.206,1139.984,1325.637,1143.022Z" transform="translate(-1300.668 -1129.791)" fill="#f9e0e5"/>
          </g>
        </g>
        <g id="Group_16687" data-name="Group 16687" transform="translate(47.467 42.127)">
          <path id="Path_11763" data-name="Path 11763" d="M1147.36,1087.915l-24.675-21.608-31.61,32.141,26.53,23.225a22.5,22.5,0,1,0,29.755-33.758Z" transform="translate(-1091.075 -1066.307)" fill="#eacdd3"/>
        </g>
      </g>
      <g id="Group_16689" data-name="Group 16689" transform="translate(1849.39 1337.924)">
        <path id="Path_11764" data-name="Path 11764" d="M804.593,896.537a32.937,32.937,0,0,0-18.6-5.715H746.1a33.076,33.076,0,0,0-33.1,33.108v94.4H819.1v-94.4A33.078,33.078,0,0,0,804.593,896.537Z" transform="translate(-713.005 -890.822)" fill="#f9d17a"/>
      </g>
      <g id="Group_16690" data-name="Group 16690" transform="translate(1850.429 1337.922)">
        <path id="Path_11765" data-name="Path 11765" d="M788.573,890.822H748.68a33.013,33.013,0,0,0-10.977,1.863A22.324,22.324,0,0,0,725.394,897l-8.775,6.383q1.254,2.3,2.805,5.038a279.976,279.976,0,0,0,21.666,32.812c11.558,14.818,25.392,28.23,39.27,31.479,26.239,6.15,27.615-49.6,26.809-76.178A32.936,32.936,0,0,0,788.573,890.822Z" transform="translate(-716.619 -890.822)" fill="#f9dd92"/>
      </g>
      <g id="Group_16707" data-name="Group 16707" transform="translate(1778.684 1376.695)">
        <path id="Path_11776" data-name="Path 11776" d="M475.794,1045.129a22.5,22.5,0,1,0,26.582,36.309l28.521-20.731-28.576-34.867Z" transform="translate(-466.58 -1025.84)" fill="#f9e0e5"/>
      </g>
      <g id="Group_16708" data-name="Group 16708" transform="translate(1842.412 1391.231)">
        <rect id="Rectangle_6480" data-name="Rectangle 6480" width="33.307" height="1.85" transform="matrix(0.809, -0.588, 0.588, 0.809, 0, 19.582)" fill="#25385e"/>
      </g>
      <g id="Group_16713" data-name="Group 16713" transform="translate(1780.923 1398.232)">
        <g id="Group_16711" data-name="Group 16711">
          <g id="Group_16709" data-name="Group 16709" transform="translate(71.802 30.573)">
            <path id="Path_11777" data-name="Path 11777" d="M758.788,1218.134l-4.918-2.258c-1.39-.627-10.663-4.882-10.663-4.882l-1.774-.814-1.538-.7-4.739-2.171-10.733,23.418.488.225,1.446.661,13.713,6.286a1.351,1.351,0,0,1,.253,2.305,4.414,4.414,0,0,0-.831.825,4.166,4.166,0,0,0-.347,4.725,4.122,4.122,0,0,0,6.011,1.148l23-17.373C769.873,1228.236,769.941,1223.081,758.788,1218.134Z" transform="translate(-724.423 -1207.308)" fill="#f9e0e5"/>
          </g>
          <g id="Group_16710" data-name="Group 16710">
            <path id="Path_11778" data-name="Path 11778" d="M502.552,1102.591a19.7,19.7,0,0,0-26.072,9.768c-4.547,9.913-1.9,20.841,9.723,26.169,10.65,4.883,40.143,12.063,54.078,15.311,4.583,1.071,7.48,1.714,7.48,1.714l10.726-23.423-55.837-29.494Z" transform="translate(-474.378 -1100.839)" fill="#f9e0e5"/>
          </g>
        </g>
        <g id="Group_16712" data-name="Group 16712" transform="translate(28.174 1.753)">
          <path id="Path_11779" data-name="Path 11779" d="M572.492,1106.942c.762,7.98,4.354,19.19,16.285,30.436,8.9,8.4,16.059,15.42,21.443,20.813,4.583,1.071,7.48,1.714,7.48,1.714l10.726-23.423-55.838-29.494C572.56,1106.974,572.523,1106.955,572.492,1106.942Z" transform="translate(-572.492 -1106.942)" fill="#faeaed"/>
        </g>
      </g>
      <g id="Group_16723" data-name="Group 16723" transform="translate(1961.332 1314.955)">
        <g id="Group_16716" data-name="Group 16716">
          <g id="Group_16715" data-name="Group 16715">
            <rect id="Rectangle_6481" data-name="Rectangle 6481" width="121.454" height="88.856" fill="#25385e"/>
          </g>
        </g>
        <g id="Group_16722" data-name="Group 16722" transform="translate(36.631 57.055)">
          <g id="Group_16721" data-name="Group 16721">
            <g id="Group_16720" data-name="Group 16720">
              <g id="Group_16717" data-name="Group 16717" transform="translate(32.446)">
                <rect id="Rectangle_6482" data-name="Rectangle 6482" width="20.437" height="73.082" fill="#7d5571"/>
              </g>
              <g id="Group_16718" data-name="Group 16718" transform="translate(24.096 67.428)">
                <rect id="Rectangle_6483" data-name="Rectangle 6483" width="37.137" height="4.604" fill="#25385e"/>
              </g>
              <g id="Group_16719" data-name="Group 16719" transform="translate(0 72.031)">
                <rect id="Rectangle_6484" data-name="Rectangle 6484" width="85.33" height="6.742" fill="#ded1da"/>
              </g>
            </g>
          </g>
        </g>
      </g>
      <g id="Group_16736" data-name="Group 16736" transform="translate(1756.572 1340.054)">
        <g id="Group_16727" data-name="Group 16727" transform="translate(106.96 79.934)">
          <g id="Group_16724" data-name="Group 16724" transform="translate(9.025)">
            <path id="Path_11780" data-name="Path 11780" d="M793.713,1178.772v2.084a2.181,2.181,0,0,0,2.18,2.181h50.62v-6.445h-50.62A2.18,2.18,0,0,0,793.713,1178.772Z" transform="translate(-793.713 -1176.592)" fill="#25385e"/>
            <path id="Path_11781" data-name="Path 11781" d="M919,1178.772v2.084a2.181,2.181,0,0,0,2.18,2.181h46.691v-6.445H921.175A2.18,2.18,0,0,0,919,1178.772Z" transform="translate(-883.02 -1176.592)" fill="#f3ecf1"/>
          </g>
          <g id="Group_16725" data-name="Group 16725" transform="translate(8.495 6.444)">
            <path id="Path_11782" data-name="Path 11782" d="M791.867,1201.722v5.918a2.689,2.689,0,0,0,2.689,2.689h47.976v-11.3H794.556A2.689,2.689,0,0,0,791.867,1201.722Z" transform="translate(-791.867 -1199.033)" fill="#996973"/>
            <path id="Path_11783" data-name="Path 11783" d="M923.081,1201.722v5.918a2.689,2.689,0,0,0,2.688,2.689h48.4v-11.3h-48.4A2.689,2.689,0,0,0,923.081,1201.722Z" transform="translate(-885.402 -1199.033)" fill="#e3d8df"/>
          </g>
          <g id="Group_16726" data-name="Group 16726" transform="translate(0 17.697)">
            <rect id="Rectangle_6485" data-name="Rectangle 6485" width="44.781" height="13.103" transform="translate(60.393)" fill="#d9e7f7"/>
            <rect id="Rectangle_6486" data-name="Rectangle 6486" width="60.393" height="13.103" fill="#d4c7d0"/>
            <rect id="Rectangle_6487" data-name="Rectangle 6487" width="105.174" height="0.472" transform="translate(0 0.875)" fill="#ded1da" style="mix-blend-mode: multiply;isolation: isolate"/>
            <rect id="Rectangle_6488" data-name="Rectangle 6488" width="105.174" height="0.472" transform="translate(0 2.44)" fill="#ded1da" style="mix-blend-mode: multiply;isolation: isolate"/>
            <rect id="Rectangle_6489" data-name="Rectangle 6489" width="105.174" height="0.471" transform="translate(0 4.005)" fill="#ded1da" style="mix-blend-mode: multiply;isolation: isolate"/>
            <rect id="Rectangle_6490" data-name="Rectangle 6490" width="105.174" height="0.471" transform="translate(0 5.57)" fill="#ded1da" style="mix-blend-mode: multiply;isolation: isolate"/>
            <rect id="Rectangle_6491" data-name="Rectangle 6491" width="105.174" height="0.471" transform="translate(0 7.135)" fill="#ded1da" style="mix-blend-mode: multiply;isolation: isolate"/>
            <rect id="Rectangle_6492" data-name="Rectangle 6492" width="105.174" height="0.472" transform="translate(0 8.699)" fill="#ded1da" style="mix-blend-mode: multiply;isolation: isolate"/>
            <rect id="Rectangle_6493" data-name="Rectangle 6493" width="105.174" height="0.471" transform="translate(0 10.265)" fill="#ded1da" style="mix-blend-mode: multiply;isolation: isolate"/>
            <rect id="Rectangle_6494" data-name="Rectangle 6494" width="105.174" height="0.471" transform="translate(0 11.83)" fill="#ded1da" style="mix-blend-mode: multiply;isolation: isolate"/>
          </g>
        </g>
        <g id="Group_16729" data-name="Group 16729" transform="translate(0 110.734)">
          <g id="Group_16728" data-name="Group 16728" transform="translate(195.528 3.25)">
            <path id="Path_11784" data-name="Path 11784" d="M1070.923,1350.841h7.5l61.725-49.6,50.292,49.6h6.791l-56.7-55.672Z" transform="translate(-1070.923 -1295.169)" fill="#25385e"/>
          </g>
          <rect id="Rectangle_6495" data-name="Rectangle 6495" width="498" height="12.795" fill="#e0a884"/>
          <rect id="Rectangle_6496" data-name="Rectangle 6496" width="226.556" height="12.795" fill="#ffcaa6"/>
          <path id="Path_11785" data-name="Path 11785" d="M1046.74,1328.411l-6.646,46.126h15.952l6.646-46.126Z" transform="translate(-853.387 -1315.616)" fill="#25385e"/>
          <path id="Path_11786" data-name="Path 11786" d="M516.744,1328.411l-6.646,46.126h15.952l6.646-46.126Z" transform="translate(-475.489 -1315.616)" fill="#25385e"/>
          <path id="Path_11787" data-name="Path 11787" d="M1405.04,1328.411l6.647,46.126h15.951l-6.646-46.126Z" transform="translate(-1113.589 -1315.616)" fill="#25385e"/>
          <path id="Path_11788" data-name="Path 11788" d="M1935.036,1328.411l6.646,46.126h15.952l-6.646-46.126Z" transform="translate(-1491.485 -1315.616)" fill="#25385e"/>
        </g>
        <g id="Group_16735" data-name="Group 16735" transform="translate(220.211)">
          <g id="Group_16733" data-name="Group 16733" transform="translate(3.212)">
            <g id="Group_16730" data-name="Group 16730" transform="translate(1.188 6.339)">
              <path id="Path_11789" data-name="Path 11789" d="M1173.344,958.239c-1.052,22.4-1.181,37.768-1.182,37.921l.709.006c0-.152.131-15.5,1.182-37.893,1.045-22.247,16.372-37.31,16.527-37.459l-.493-.51C1189.931,920.454,1174.4,935.7,1173.344,958.239Z" transform="translate(-1172.162 -920.303)" fill="#00a0c7"/>
            </g>
            <g id="Group_16731" data-name="Group 16731" transform="translate(3.038 25.009)">
              <path id="Path_11790" data-name="Path 11790" d="M1185.722,997.3c-4.481,6.886-7.01,45.613-7.115,47.258l.708.046c.026-.4,2.621-40.186,7-46.917,4.369-6.715,16.269-11.661,16.389-11.71l-.269-.656C1201.939,985.525,1190.213,990.4,1185.722,997.3Z" transform="translate(-1178.607 -985.321)" fill="#00a0c7"/>
            </g>
            <g id="Group_16732" data-name="Group 16732" transform="translate(0 48.133)">
              <path id="Path_11791" data-name="Path 11791" d="M1168.513,1080.5c-.7,8.87-.442,21.367-.439,21.493l.709-.016c0-.124-.258-12.586.438-21.422.68-8.65,11.056-14.023,11.16-14.075l-.321-.632C1179.619,1066.072,1169.226,1071.451,1168.513,1080.5Z" transform="translate(-1168.026 -1065.848)" fill="#00a0c7"/>
            </g>
            <path id="Path_11792" data-name="Path 11792" d="M1200.06,904.424c-7.34,9.084-9.937,20.563-9.937,20.563l29.785-26.061S1207.4,895.339,1200.06,904.424Z" transform="translate(-1183.778 -898.227)" fill="#00a0c7"/>
            <path id="Path_11793" data-name="Path 11793" d="M1173.362,1066.542l24.984-12.73S1181.134,1041.282,1173.362,1066.542Z" transform="translate(-1171.83 -1006.92)" fill="#00a0c7"/>
            <path id="Path_11794" data-name="Path 11794" d="M1204.42,998.308l17.534-11.8C1206.1,985.575,1204.42,998.308,1204.42,998.308Z" transform="translate(-1193.969 -961.126)" fill="#00a0c7"/>
          </g>
          <g id="Group_16734" data-name="Group 16734" transform="translate(0 71.403)">
            <path id="Path_11795" data-name="Path 11795" d="M1165.338,1163.615h-5.361a3.135,3.135,0,0,0-3.136,3.136v31.456h11.633v-31.456A3.136,3.136,0,0,0,1165.338,1163.615Z" transform="translate(-1156.841 -1158.811)" fill="#f3ecf1"/>
            <rect id="Rectangle_6497" data-name="Rectangle 6497" width="6.675" height="4.349" transform="translate(2.479 1.568)" fill="#f3ecf1"/>
            <rect id="Rectangle_6498" data-name="Rectangle 6498" width="8.749" height="1.568" transform="translate(1.442)" fill="#f3ecf1"/>
          </g>
        </g>
      </g>
      <ellipse id="Oval-7" data-name="Oval" cx="13.181" cy="8.292" rx="13.181" ry="8.292" transform="matrix(-1, -0.01, 0.01, -1, 1931.385, 1301.366)" fill="#aa7c62"/>
    </g>
  </g>
</svg>
