<svg xmlns="http://www.w3.org/2000/svg" xmlns:xlink="http://www.w3.org/1999/xlink" width="76" height="90" viewBox="0 0 76 90">
  <defs>
    <clipPath id="clip-path">
      <rect id="Rectangle_3735" data-name="Rectangle 3735" width="76" height="90" rx="10" fill="none" stroke="#707070" stroke-width="1"/>
    </clipPath>
    <clipPath id="clip-image_boy_small">
      <rect width="76" height="90"/>
    </clipPath>
  </defs>
  <g id="image_boy_small" clip-path="url(#clip-image_boy_small)">
    <g id="Group_17028" data-name="Group 17028" transform="translate(-231 -420)">
      <g id="Group_2554" data-name="Group 2554" transform="translate(231 420)">
        <g id="Mask_Group_9" data-name="Mask Group 9" transform="translate(0 0)" clip-path="url(#clip-path)">
          <g id="Group_2552" data-name="Group 2552" transform="translate(-143.545 -13.492)">
            <path id="Path_1415" data-name="Path 1415" d="M1787.446,591.412h-320.04v131.52h320.04V591.412" transform="translate(-1467.406 -591.412)" fill="#ffefef"/>
            <path id="Path_1416" data-name="Path 1416" d="M1524.024,628.347s-2.968-9.514,1.36-15.544,8.109-1.524,8.979,0a6.779,6.779,0,0,1,3.528,1.06c1.781,1.126,11.091,3.71,11.761,11s-2.192,10.807,0,15.253,7.718,7.586,6.66,14.694,6.307,14.134,2.567,22.658a10.289,10.289,0,0,1-3.486.663c-1.522-.088-3.635-1.751-7.607.007s-7.129,1.937-10.411.656-5.112-2.076-8.465-1.326-7.218-.043-7.906-2.164,1.964-11.307,2.583-15.635-3.806-10.513.808-18.109-.372-13.21-.372-13.21Z" transform="translate(-1440.819 -581.587)" fill="#43211a"/>
            <path id="Path_1417" data-name="Path 1417" d="M1545.363,674.352l-11.191,1.772-3.278-20.117,11.191-1.771,3.277,20.116Z" transform="translate(-1444.584 -597.079)" fill="#e8b78e"/>
            <path id="Path_1418" data-name="Path 1418" d="M1530.895,656.166l1.52,9.333c1.808-1.549,4.555-2.8,7.8-10.807l-9.316,1.475Z" transform="translate(-1444.584 -597.237)" fill="#c56450"/>
            <path id="Path_1419" data-name="Path 1419" d="M1534.794,618.495s-7.8-1.734-10.6,8.3c-.8,2.849-.475,5.952-1.571,7.236-2.338,2.733-5.1,3.71-1.321,5.464a13.656,13.656,0,0,1,0,2.845c-.275,2.558-.654,5.968,1.744,6.619,2.8.759,7.067-1.279,12.354-3.537a14.3,14.3,0,0,0,5.037-3.817c3.906-4.515,10.462-15.634.162-21.375-1.51-.842-3.5-1.107-5.809-1.733Z" transform="translate(-1440.273 -584.592)" fill="#e8b78e"/>
            <path id="Path_1420" data-name="Path 1420" d="M1534.185,639.43a.3.3,0,0,0,.246-.05.381.381,0,0,0,.152-.529A3.871,3.871,0,0,0,1530.5,637a.405.405,0,0,0-.3.5c.047.226.259.284.478.318a5.724,5.724,0,0,1,3.2,1.421.672.672,0,0,0,.313.193Z" transform="translate(-1444.317 -591.062)" fill="#23262e"/>
            <path id="Path_1421" data-name="Path 1421" d="M1525.676,655.535a.364.364,0,0,0,.237-.446.341.341,0,0,0-.426-.248,5.168,5.168,0,0,1-3.079.026c-.005.054-.01.109-.016.164l-.06.566.087.026a5.843,5.843,0,0,0,3.257-.087Z" transform="translate(-1441.361 -597.284)" fill="#b64c4f"/>
            <path id="Path_1422" data-name="Path 1422" d="M1531.392,643.053c-.148.6-.559,1-.919.907s-.528-.662-.38-1.259.56-1,.918-.906.529.661.38,1.258Z" transform="translate(-1444.262 -592.741)" fill="#1a1b20"/>
            <path id="Path_1423" data-name="Path 1423" d="M1535.055,616.942s-2.754,11.793,1.75,14.709,4.305,3.833,4.658,4.9,1.441,6.875,2.608,9.2c0,0,7.844-7.256,8.647-13.528s-1.31-15.017-17.664-15.282Z" transform="translate(-1445.836 -584.091)" fill="#43211a"/>
            <path id="Path_1424" data-name="Path 1424" d="M1545.36,646.164a2.357,2.357,0,0,1,2.933-.717c1.942.721-.057,5.876-2.026,6.28s-1.887-2.4-1.887-2.4l.98-3.159Z" transform="translate(-1449.659 -593.944)" fill="#e8b78e"/>
            <path id="Path_1425" data-name="Path 1425" d="M1534.927,617.766a.1.1,0,0,1-.024,0,.132.132,0,0,1-.1-.155s.161-.905.472-2.7a1.208,1.208,0,0,1,.554-.849c1.06-.673,3.214.01,3.3.039a.133.133,0,0,1,.084.165.126.126,0,0,1-.159.087c-.021-.006-2.137-.676-3.1-.065a.937.937,0,0,0-.437.669c-.311,1.8-.473,2.705-.473,2.705a.128.128,0,0,1-.124.108Z" transform="translate(-1446.054 -582.983)" fill="#582420"/>
            <path id="Path_1426" data-name="Path 1426" d="M1542.561,633.692a.121.121,0,0,1-.078-.028c-4.71-3.843-2.359-14.915-2.257-15.384a.125.125,0,0,1,.153-.1.13.13,0,0,1,.094.158c-.024.113-2.417,11.378,2.166,15.116a.137.137,0,0,1,.022.186.126.126,0,0,1-.1.051Z" transform="translate(-1447.842 -584.521)" fill="#582420"/>
            <path id="Path_1427" data-name="Path 1427" d="M1558.577,658.677a.117.117,0,0,1-.07-.022c-4.345-2.983-4.97-8.382-5.576-13.6-.451-3.882-.875-7.548-2.7-10.321-4.356-6.63-1.763-16.362-1.736-16.459a.127.127,0,0,1,.157-.091.134.134,0,0,1,.087.165c-.026.1-2.586,9.71,1.7,16.236,1.858,2.827,2.306,6.7,2.74,10.438.6,5.161,1.218,10.5,5.464,13.414a.138.138,0,0,1,.037.184.127.127,0,0,1-.106.059Z" transform="translate(-1450.912 -584.521)" fill="#582420"/>
            <path id="Path_1428" data-name="Path 1428" d="M1563.208,665.021h-.019a.132.132,0,0,1-.107-.151c.563-3.819-2.417-12.444-6.254-18.1s-4.392-18.952-4.4-19.086a.13.13,0,0,1,.122-.137.128.128,0,0,1,.132.127c.005.133.549,13.343,4.351,18.943,3.868,5.7,6.868,14.417,6.3,18.291a.129.129,0,0,1-.126.112Z" transform="translate(-1452.691 -587.784)" fill="#582420"/>
            <path id="Path_1429" data-name="Path 1429" d="M1562.2,653.551a.126.126,0,0,1-.105-.059c-3.159-4.912-3.062-14.347-3.061-14.443,0-.072.057-.092.127-.092h0c.07,0,.126.023.126.1,0,.1-.1,9.467,3.017,14.31a.126.126,0,0,1-.035.175.115.115,0,0,1-.071.012Z" transform="translate(-1455.177 -591.758)" fill="#582420"/>
            <path id="Path_1430" data-name="Path 1430" d="M1521.073,677.614s7.5-3.325,7.858-4.779l11.344-.833a46.876,46.876,0,0,0,9.291,5.271s-8.3,6.27-18.541,5.176a15.734,15.734,0,0,1-9.951-4.835Z" transform="translate(-1440.887 -603.266)" fill="#e8b78e"/>
            <path id="Path_1431" data-name="Path 1431" d="M1489.2,739.26h10.821c1.437-4.433,2.585-8.313,3.543-11.661,1.591-5.561,5.75-23.585,5.5-31.094a16.419,16.419,0,0,0-5.49-11.664s-3.638,1.859-5.583,9.544c-.161.639-1.433,1.015-1.605,1.856-.17.822.226,4.669.135,5.653-.728,7.859-1.931,13.126-2.715,18.083-.188,1.19-2.037,2.464-2.154,3.383a7.762,7.762,0,0,0,.423,3.622s-.443,1.621-2.873,12.279Z" transform="translate(-1428.891 -607.737)" fill="#38688d"/>
            <path id="Path_1432" data-name="Path 1432" d="M1501.059,750.474a.248.248,0,0,1-.114-.028c-2.035-1.082-6.149-.9-6.19-.9a.265.265,0,0,1-.023-.529c.174-.009,4.29-.188,6.443.956a.271.271,0,0,1,.111.356.253.253,0,0,1-.227.145Z" transform="translate(-1430.88 -630.081)" fill="#325a75"/>
            <path id="Path_1433" data-name="Path 1433" d="M1502.369,745.195a.252.252,0,0,1-.2-.108c-1.625-2.295-5.148-3.873-5.184-3.89a.269.269,0,0,1-.135-.347.25.25,0,0,1,.333-.14c.15.066,3.688,1.652,5.393,4.062a.271.271,0,0,1-.053.37.242.242,0,0,1-.15.052Z" transform="translate(-1431.76 -627.186)" fill="#325a75"/>
            <path id="Path_1434" data-name="Path 1434" d="M1505.475,710.372h-.021a.263.263,0,0,1-.233-.286c.214-2.748-2.053-9.229-2.077-9.295a.269.269,0,0,1,.151-.34.25.25,0,0,1,.325.157c.1.271,2.33,6.657,2.107,9.522a.258.258,0,0,1-.253.243Z" transform="translate(-1434.133 -613.167)" fill="#efe4db"/>
            <path id="Path_1435" data-name="Path 1435" d="M1504.129,714.852a.258.258,0,0,1-.25-.217,29.875,29.875,0,0,0-2.338-4.547.272.272,0,0,1,.081-.364.246.246,0,0,1,.349.085,29.956,29.956,0,0,1,2.407,4.73.265.265,0,0,1-.2.309.213.213,0,0,1-.046,0Z" transform="translate(-1433.52 -616.389)" fill="#325a75"/>
            <path id="Path_1436" data-name="Path 1436" d="M1507.251,737.246h34.184c.3-4.966,2.012-12.338,2.859-17.491,1.395-8.481,7.668-35.182,7.668-35.182-1.183-1.058-1.355-2-8.582-5.517,0,0-9.506,4.436-18.238,3.858a17.692,17.692,0,0,1-9.246-3.434,37,37,0,0,0-6.106,3.346s.752,8.241.753,9.715c0,3.728-4.449,11.767-4.693,14.583-.385,4.448.073,6.3,1.045,10.865.718,3.369.51,12.16.355,19.257Z" transform="translate(-1435.106 -605.722)" fill="#38688d"/>
            <path id="Path_1437" data-name="Path 1437" d="M1531.538,706.545a.251.251,0,0,1-.19-.089.273.273,0,0,1,.021-.374c3.53-3.3,11.767-7.81,11.85-7.855a.248.248,0,0,1,.343.111.272.272,0,0,1-.107.358c-.082.045-8.264,4.528-11.747,7.781a.243.243,0,0,1-.168.068Z" transform="translate(-1444.731 -612.388)" fill="#efe4db"/>
            <path id="Path_1438" data-name="Path 1438" d="M1509.793,691.955c.175,2.125.344,4.316.344,5,0,2.052-1.421,5.541-2.678,8.621a27.4,27.4,0,0,0-2.014,5.937c-.372,4.292.034,6.191.924,10.352l.127.594c.583,2.737.547,9.2.431,15.282a4.75,4.75,0,0,1,.511-.2c.113-6.049.142-12.437-.447-15.2l-.126-.594c-.878-4.1-1.278-5.979-.914-10.188a27.923,27.923,0,0,1,1.976-5.778c1.275-3.126,2.72-6.669,2.718-8.829,0-.727-.178-3.037-.36-5.226a4.65,4.65,0,0,1-.491.227Z" transform="translate(-1434.952 -610.135)" fill="#2d526b"/>
            <path id="Path_1439" data-name="Path 1439" d="M1539.362,736.8a.237.237,0,0,1-.073-.012c-6.191-1.954-9.107-8.348-9.137-8.413a.27.27,0,0,1,.122-.352.25.25,0,0,1,.338.128c.028.063,2.854,6.244,8.823,8.13a.267.267,0,0,1,.17.33.254.254,0,0,1-.242.188Z" transform="translate(-1444.295 -622.766)" fill="#efe4db"/>
            <path id="Path_1440" data-name="Path 1440" d="M1566.939,727.347c-.364,1.36-1.1,2.264.294,4.019.575.725.136.7-.2,2.542-.232,1.267-.764,4.253-1,6.286h13.275a71.111,71.111,0,0,0,.649-12.1c.047-2.985-.122-10.04.274-20.827.043-1.166.89-5.189.834-6.306-.032-.638-1.163-1.126-1.2-1.74-.395-6.757-5.2-11.7-5.2-11.7s-8.7,1.01-8.562,21.036c.02,3.023.559,9.067.758,13.564.077,1.771.423,3.931.077,5.225Z" transform="translate(-1457.81 -608.67)" fill="#38688d"/>
            <path id="Path_1441" data-name="Path 1441" d="M1566.632,720.471c-.191-2.866-.372-5.574-.383-7.3a34.955,34.955,0,0,1,1.81-12.39c-.12.041-.238.083-.358.123-.085.029-.168.049-.253.076a36.2,36.2,0,0,0-1.706,12.2c.011,1.741.193,4.457.384,7.331.03.453.494,6.417.524,6.873a4.288,4.288,0,0,1,.5-.118c-.029-.43-.489-6.366-.518-6.792Z" transform="translate(-1457.7 -613.289)" fill="#efe4db"/>
            <path id="Path_1442" data-name="Path 1442" d="M1573.615,757.225a.252.252,0,0,1-.161-.084,13.918,13.918,0,0,0-4.536-2.859.268.268,0,0,1-.152-.34.252.252,0,0,1,.326-.158,14.162,14.162,0,0,1,4.733,3,.272.272,0,0,1-.014.375.242.242,0,0,1-.2.07Z" transform="translate(-1458.834 -631.741)" fill="#325a75"/>
            <path id="Path_1443" data-name="Path 1443" d="M1574.227,753.388a.248.248,0,0,1-.184-.111c-.916-1.373-5.141-4.49-5.185-4.522a.273.273,0,0,1-.061-.369.246.246,0,0,1,.353-.064c.177.13,4.343,3.2,5.309,4.652a.272.272,0,0,1-.063.368.241.241,0,0,1-.169.046Z" transform="translate(-1458.834 -629.827)" fill="#325a75"/>
            <path id="Path_1444" data-name="Path 1444" d="M1515.986,759.307a.231.231,0,0,1-.072-.011c-1.831-.566-4.732-1.27-4.761-1.277a.268.268,0,0,1-.19-.319.255.255,0,0,1,.305-.2c.029.006,2.945.715,4.79,1.285a.266.266,0,0,1,.172.328.256.256,0,0,1-.243.19Z" transform="translate(-1437.079 -633.039)" fill="#38688d"/>
            <path id="Path_1445" data-name="Path 1445" d="M1511.211,754.447a.253.253,0,0,1-.233-.162.27.27,0,0,1,.134-.347c.2-.087,4.835-2.138,7.044-2.405a.259.259,0,0,1,.281.233.262.262,0,0,1-.223.293c-2.137.257-6.856,2.345-6.9,2.366a.245.245,0,0,1-.1.022Z" transform="translate(-1437.079 -630.962)" fill="#38688d"/>
            <path id="Path_1446" data-name="Path 1446" d="M1641.744,718.785a.239.239,0,0,1-.092-.028.272.272,0,0,1-.109-.358c1.38-2.8,3.832-12.242,3.857-12.338a.253.253,0,0,1,.311-.187.268.268,0,0,1,.179.325c-.1.39-2.493,9.6-3.9,12.442a.251.251,0,0,1-.249.143Z" transform="translate(-1486.223 -615.058)" fill="#ad312a"/>
            <path id="Path_1447" data-name="Path 1447" d="M1640.564,724.921a.247.247,0,0,1-.152-.073.274.274,0,0,1-.006-.375,39.35,39.35,0,0,0,4.517-7.2c.243-.467.344-.659.4-.731a.246.246,0,0,1,.353-.055.276.276,0,0,1,.055.37c-.036.052-.193.352-.36.671a39.707,39.707,0,0,1-4.6,7.315.249.249,0,0,1-.207.079Z" transform="translate(-1485.779 -618.74)" fill="#ad312a"/>
            <path id="Path_1448" data-name="Path 1448" d="M1730.859,698.424l-5.937,5.02c-.007-1.394-.3-4.471-.15-5.194.175-.84,1.446-1.216,1.608-1.855a22.81,22.81,0,0,1,2.193-5.687l2.285,7.717Z" transform="translate(-1517.547 -609.78)" fill="#cc966b"/>
            <path id="Path_1449" data-name="Path 1449" d="M1729.551,710.319h-.022a.261.261,0,0,1-.231-.285c.214-2.749-2.054-9.229-2.077-9.3a.268.268,0,0,1,.15-.339.25.25,0,0,1,.326.156c.1.271,2.33,6.657,2.107,9.521a.258.258,0,0,1-.252.244Z" transform="translate(-1518.478 -613.148)" fill="#c6ad9a"/>
            <path id="Path_1450" data-name="Path 1450" d="M1728.2,714.8a.256.256,0,0,1-.249-.217,29.818,29.818,0,0,0-2.339-4.546.272.272,0,0,1,.081-.364.247.247,0,0,1,.349.084,30.024,30.024,0,0,1,2.408,4.73.265.265,0,0,1-.2.309.211.211,0,0,1-.046,0Z" transform="translate(-1517.866 -616.37)" fill="#c6ad9a"/>
            <path id="Path_1451" data-name="Path 1451" d="M1674.831,669.4s5.5-2.241,16.069-1.027l.676,4.925-18.214,1.723,1.469-5.621Z" transform="translate(-1498.211 -601.875)" fill="#2d526b"/>
            <path id="Path_1452" data-name="Path 1452" d="M1690.45,671.859l-12.712,2.567-3.278-20.118,12.712-2.566,3.278,20.116Z" transform="translate(-1498.624 -596.21)" fill="#e8b78e"/>
            <path id="Path_1453" data-name="Path 1453" d="M1674.461,654.786l1.52,9.332c1.807-1.549,4.635-3,7.876-11l-9.4,1.672Z" transform="translate(-1498.625 -596.688)" fill="#c56450"/>
            <path id="Path_1454" data-name="Path 1454" d="M1675.387,613.275s-8.4-.278-9.818,10.354c-.347,2.593-.04,4.783-.8,6.439-2.343,5.13-6.232,6.237-.829,7.369a14.512,14.512,0,0,1,.382,3.006c.051,2.745.108,6.4,2.729,6.738,3.056.394,7.3-2.383,12.581-5.544a15.514,15.514,0,0,0,4.812-4.769c3.523-5.342,8.963-18.052-2.691-22.612-1.708-.668-3.85-.658-6.37-.983Z" transform="translate(-1493.638 -582.813)" fill="#e8b78e"/>
            <path id="Path_1455" data-name="Path 1455" d="M1674.235,639.548c-.079.673-.46,1.177-.853,1.126s-.646-.635-.567-1.307.461-1.178.852-1.128.646.637.567,1.309Z" transform="translate(-1498 -591.506)" fill="#1a1b20"/>
            <path id="Path_1456" data-name="Path 1456" d="M1676.583,635.23a.457.457,0,0,0,.312-.083.4.4,0,0,0,.055-.578,3.91,3.91,0,0,0-4.562-1.361.462.462,0,0,0-.256.572c.081.232.312.26.547.267a6.856,6.856,0,0,1,3.572,1.034.61.61,0,0,0,.332.148Z" transform="translate(-1497.738 -589.652)" fill="#84281a"/>
            <path id="Path_1457" data-name="Path 1457" d="M1669.738,654.648a.391.391,0,0,0,.191-.506.362.362,0,0,0-.484-.2,5.51,5.51,0,0,1-3.249.478c0,.058,0,.115.006.175,0,.2.008.4.012.607l.095.015a6.246,6.246,0,0,0,3.43-.569Z" transform="translate(-1495.513 -596.965)" fill="#b64c4f"/>
            <path id="Path_1458" data-name="Path 1458" d="M1688.8,637.651l-1.676-8.182s10.772-.839,14.6,3.346a37.506,37.506,0,0,1-9.3,14.364s-1.354-6.513-3.623-9.528Z" transform="translate(-1503.391 -588.43)" fill="#43211a"/>
            <path id="Path_1459" data-name="Path 1459" d="M1670.043,614.827s1.208,8.188,10.615,9.422c7.623,1,9.592,6.761,9.592,6.761s14.084-16.671-16.813-23.312c0,0-1.488-2.906-5.452-.7-4.12,2.292-8.446,10.524-7.17,12.753,1.112,1.946,4.333,3.7,4.333,3.7s.342-2.891.622-4.19c0,0,1.25-4.923,4.273-4.429Z" transform="translate(-1493.402 -580.34)" fill="#43211a"/>
            <path id="Path_1460" data-name="Path 1460" d="M1696.426,630.425a.128.128,0,0,1-.1-.074c-2.513-5.546-5.979-6.752-11.388-8.078-5.364-1.315-6.411-10.851-6.454-11.256a.132.132,0,0,1,.113-.146.128.128,0,0,1,.14.117c.011.1,1.069,9.755,6.259,11.027,5.484,1.344,9,2.568,11.56,8.222a.135.135,0,0,1-.06.176.111.111,0,0,1-.07.012Z" transform="translate(-1500.139 -581.976)" fill="#701d18"/>
            <path id="Path_1461" data-name="Path 1461" d="M1700.252,631.209a.13.13,0,0,1-.111-.134c.048-1.9-.7-4.324-6.63-7.908-5.4-3.264-7.841-10.216-7.865-10.284a.135.135,0,0,1,.076-.17.126.126,0,0,1,.163.08c.024.069,2.435,6.93,7.752,10.145,4.807,2.907,6.828,5.342,6.757,8.144a.129.129,0,0,1-.13.129Z" transform="translate(-1502.832 -582.615)" fill="#701d18"/>
            <path id="Path_1462" data-name="Path 1462" d="M1690.23,639.469a2.537,2.537,0,0,1,3-1.186c2.149.478.727,6.217-1.3,6.933s-2.317-2.266-2.317-2.266l.614-3.482Z" transform="translate(-1504.329 -591.491)" fill="#e8b78e"/>
            <path id="Path_1463" data-name="Path 1463" d="M1634.041,752.921c.973-1.994,4.415-9.117,5.255-11.726.981-3.048,5.024-15.8,5.024-15.8l-12.164-1.225-5.018,15.569a121.74,121.74,0,0,0-5.715,13.184Z" transform="translate(-1478.66 -621.432)" fill="#e8b78e"/>
            <path id="Path_1464" data-name="Path 1464" d="M1644.612,685.64s-4.287,2.451-8.659,14.244-7.527,20.8-7.527,20.8,10.838,3.755,17.035,3.226c0,0,5.77-29.926-.848-38.273Z" transform="translate(-1481.296 -608.015)" fill="#efe4db"/>
            <path id="Path_1465" data-name="Path 1465" d="M1673.214,673.965a5.031,5.031,0,0,0,3-2.385l11.3-.884a12.991,12.991,0,0,0,3.8,2.319s-7.842,16.727-16.227,15.7c-6.509-.8-1.881-14.753-1.881-14.753Z" transform="translate(-1497.555 -602.811)" fill="#e8b78e"/>
            <path id="Path_1466" data-name="Path 1466" d="M1693.172,733.556l7.69-52.676c-4.172-3.281-10.98-6.444-15.5-8.355l-.256-.566c-1.727-2-3.042-3.4-3.042-3.4s-12.891,19.368-14.326,19.368c-2.209,0-1.744-18.341-1.744-18.341a41.947,41.947,0,0,0-3.434,3.8l-.126.585a94.153,94.153,0,0,0-9.744,5.72c-.121,2.991-2.515,48.439-2.8,53.864Z" transform="translate(-1489.376 -602.067)" fill="#efe4db"/>
            <path id="Path_1467" data-name="Path 1467" d="M1652.231,699.44c-.37,7.339-.912,17.945-1.38,27.088a4.805,4.805,0,0,1,.585.153c.481-9.18,1.039-19.859,1.42-27.24Z" transform="translate(-1489.738 -612.821)" fill="#38688d"/>
            <path id="Path_1468" data-name="Path 1468" d="M1679.174,690.932a.254.254,0,0,1-.238-.173.268.268,0,0,1,.15-.34l7.176-2.771-1.664-3.624,5.61,2.033,5.6-11.018a.248.248,0,0,1,.343-.109.27.27,0,0,1,.1.358l-5.807,11.42-4.869-1.766,1.378,3-7.7,2.972a.234.234,0,0,1-.088.017Z" transform="translate(-1500.303 -604.274)" fill="#38688d"/>
            <path id="Path_1469" data-name="Path 1469" d="M1673.9,691.829a.251.251,0,0,1-.191-.093l-3.669-4.425,1.3-1.937-3.4.25L1669,677.7a.256.256,0,0,1,.287-.227.265.265,0,0,1,.216.3l-.971,7.273,3.834-.281-1.683,2.509,3.409,4.114a.273.273,0,0,1-.026.373.246.246,0,0,1-.166.065Z" transform="translate(-1496.172 -605.171)" fill="#38688d"/>
            <path id="Path_1470" data-name="Path 1470" d="M1689.013,722.342l5.994,2.091,6.163-1.356.491-14.106-12.273-.594-.375,13.965Zm5.979,2.63a.225.225,0,0,1-.08-.013l-6.238-2.176a.265.265,0,0,1-.174-.259l.388-14.432a.277.277,0,0,1,.081-.187.244.244,0,0,1,.184-.07l12.782.618a.262.262,0,0,1,.241.275l-.507,14.575a.263.263,0,0,1-.2.25l-6.423,1.413a.213.213,0,0,1-.054.005Z" transform="translate(-1503.91 -615.744)" fill="#38688d"/>
            <path id="Path_1471" data-name="Path 1471" d="M1673.21,744.5a.2.2,0,0,1-.036,0,.263.263,0,0,1-.217-.3c.016-.123,1.631-12.339,1.688-18.253.063-6.49,1.131-25.134,1.142-25.322a.254.254,0,1,1,.506.033c-.01.187-1.077,18.818-1.141,25.294-.057,5.948-1.676,18.2-1.692,18.32a.258.258,0,0,1-.25.229Z" transform="translate(-1498.058 -613.148)" fill="#38688d"/>
            <path id="Path_1472" data-name="Path 1472" d="M1721.115,754.52h11.99c.242-1.871.829-6.607.939-9.363.092-2.3-.8-16.4-.8-16.4l-12.84.894,1.036,16.74-.328,8.127Z" transform="translate(-1515.919 -623.031)" fill="#e8b78e"/>
            <path id="Path_1473" data-name="Path 1473" d="M1726.367,687.36s4.925,3.628,5.718,9.1,2.649,26.5,2.649,26.5S1726,725.881,1718.086,725c0,0-.55-19.875-.429-22.878s1.385-13.351,8.71-14.758Z" transform="translate(-1514.878 -608.614)" fill="#efe4db"/>
            <path id="Path_1474" data-name="Path 1474" d="M1719.725,731.118c-.528-.024-1.045-.061-1.544-.112-.06-2.193-.536-19.85-.424-22.638a26.511,26.511,0,0,1,.333-3.063c-.17.005-.341.011-.512.012a26.7,26.7,0,0,0-.328,3.05c-.12,2.978.424,22.7.43,22.9l.006.221.211.023c.586.066,1.2.11,1.822.138-.006-.132-.009-.265,0-.4,0-.043.009-.085.011-.128Z" transform="translate(-1514.725 -614.864)" fill="#38688d"/>
          </g>
        </g>
      </g>
      <g id="Group_16146" data-name="Group 16146" transform="translate(286.642 481.905)">
        <rect id="Rectangle_3734" data-name="Rectangle 3734" width="14" height="22" rx="7" transform="translate(0.357 0.095)" fill="#e06262"/>
        <g id="Group_2550" data-name="Group 2550" transform="translate(3.961 3.868)">
          <circle id="Ellipse_39" data-name="Ellipse 39" cx="1.5" cy="1.5" r="1.5" transform="translate(1.994 -0.101)" fill="none" stroke="#fff" stroke-linecap="round" stroke-linejoin="round" stroke-width="1"/>
          <path id="Path_1414" data-name="Path 1414" d="M14.7,20.339v-3.4H13l1.7-5.094A.849.849,0,0,1,15.547,11h1.7a.849.849,0,0,1,.849.849l1.7,5.094h-1.7v3.4" transform="translate(-13 -5.785)" fill="none" stroke="#fff" stroke-linecap="round" stroke-linejoin="round" stroke-width="1"/>
        </g>
      </g>
    </g>
    <g id="Group_17029" data-name="Group 17029" transform="translate(-79 -312.648)">
      <rect id="Rectangle_3734-2" data-name="Rectangle 3734" width="14" height="22" rx="7" transform="translate(135 374.648)" fill="#38688d"/>
      <g id="Group_2549" data-name="Group 2549" transform="translate(139.938 379.097)">
        <circle id="Ellipse_38" data-name="Ellipse 38" cx="1.5" cy="1.5" r="1.5" transform="translate(0.615)" fill="none" stroke="#fff" stroke-linecap="round" stroke-linejoin="round" stroke-width="1"/>
        <path id="Path_1413" data-name="Path 1413" d="M4.705,18.759V15.232L4,14.527V11.705A.705.705,0,0,1,4.705,11H7.527a.705.705,0,0,1,.705.705v2.822l-.705.705v3.527" transform="translate(-4 -5.656)" fill="none" stroke="#fff" stroke-linecap="round" stroke-linejoin="round" stroke-width="1"/>
      </g>
    </g>
  </g>
</svg>
