<svg xmlns="http://www.w3.org/2000/svg" xmlns:xlink="http://www.w3.org/1999/xlink" width="24" height="24" viewBox="0 0 24 24">
  <defs>
    <clipPath id="clip-button_delete">
      <rect width="24" height="24"/>
    </clipPath>
  </defs>
  <g id="button_delete" clip-path="url(#clip-button_delete)">
    <g id="Group_2385" data-name="Group 2385">
      <path id="Path_1077" data-name="Path 1077" d="M0,0H24V24H0Z" fill="none"/>
      <path id="Line_75" data-name="Line 75" d="M16,.75H0A.75.75,0,0,1-.75,0,.75.75,0,0,1,0-.75H16a.75.75,0,0,1,.75.75A.75.75,0,0,1,16,.75Z" transform="translate(4 7)" fill="#f77878"/>
      <path id="Line_76" data-name="Line 76" d="M0,6.75A.75.75,0,0,1-.75,6V0A.75.75,0,0,1,0-.75.75.75,0,0,1,.75,0V6A.75.75,0,0,1,0,6.75Z" transform="translate(10 11)" fill="#f77878"/>
      <path id="Line_77" data-name="Line 77" d="M0,6.75A.75.75,0,0,1-.75,6V0A.75.75,0,0,1,0-.75.75.75,0,0,1,.75,0V6A.75.75,0,0,1,0,6.75Z" transform="translate(14 11)" fill="#f77878"/>
      <path id="Path_1078" data-name="Path 1078" d="M16,21.75H8a2.753,2.753,0,0,1-2.75-2.716l-1-11.971a.75.75,0,1,1,1.495-.125l1,12q0,.031,0,.062A1.251,1.251,0,0,0,8,20.25h8A1.251,1.251,0,0,0,17.25,19q0-.031,0-.062l1-12a.75.75,0,1,1,1.495.125l-1,11.971A2.753,2.753,0,0,1,16,21.75Z" fill="#f77878"/>
      <path id="Path_1079" data-name="Path 1079" d="M15,7.75A.75.75,0,0,1,14.25,7V4A.25.25,0,0,0,14,3.75H10A.25.25,0,0,0,9.75,4V7a.75.75,0,0,1-1.5,0V4A1.752,1.752,0,0,1,10,2.25h4A1.752,1.752,0,0,1,15.75,4V7A.75.75,0,0,1,15,7.75Z" fill="#f77878"/>
    </g>
  </g>
</svg>
