<svg xmlns="http://www.w3.org/2000/svg" xmlns:xlink="http://www.w3.org/1999/xlink" width="65" height="65" viewBox="0 0 65 65">
  <defs>
    <linearGradient id="linear-gradient" x1="0.5" x2="0.5" y2="1" gradientUnits="objectBoundingBox">
      <stop offset="0" stop-color="#4caaf5"/>
      <stop offset="1" stop-color="#28b4be"/>
    </linearGradient>
    <clipPath id="clip-Icon_send">
      <rect width="65" height="65"/>
    </clipPath>
  </defs>
  <g id="Icon_send" clip-path="url(#clip-Icon_send)">
    <g id="_6590513_air_airplane_email_message_paper_icon" data-name="6590513_air_airplane_email_message_paper_icon" transform="translate(0.711 0.24)">
      <path id="Path_14934" data-name="Path 14934" d="M57.869-.239A4.839,4.839,0,0,1,61.548,1.4a5.332,5.332,0,0,1,1.275,4.211L58.894,53.7a5.491,5.491,0,0,1-5.253,4.719,8.057,8.057,0,0,1-2.169-.513L3.485,37.837A5,5,0,0,1,.3,33.511a5.311,5.311,0,0,1,2.63-5.027L55.337.426A5.174,5.174,0,0,1,57.869-.239ZM53.884,52.641,56.99,6.107,6.835,32.962Z" transform="translate(0 0)" fill="url(#linear-gradient)"/>
      <path id="Path_14935" data-name="Path 14935" d="M15.389,63.129a5.387,5.387,0,0,1-1.87-.339A5.261,5.261,0,0,1,10,57.85v-16.9a2.9,2.9,0,0,1,.648-1.826l30.1-37.05A2.895,2.895,0,0,1,45.245,5.72L15.79,41.973V56.485L24.572,46.03a2.895,2.895,0,1,1,4.433,3.724L19.28,61.333A5.093,5.093,0,0,1,15.389,63.129Z" transform="translate(12.779 1.631)" fill="url(#linear-gradient)"/>
    </g>
  </g>
</svg>
