<svg xmlns="http://www.w3.org/2000/svg" xmlns:xlink="http://www.w3.org/1999/xlink" width="65" height="65" viewBox="0 0 65 65">
  <defs>
    <linearGradient id="linear-gradient" x1="0.5" x2="0.5" y2="1" gradientUnits="objectBoundingBox">
      <stop offset="0" stop-color="#4caaf5"/>
      <stop offset="1" stop-color="#28b4be"/>
    </linearGradient>
    <clipPath id="clip-Icon_download">
      <rect width="65" height="65"/>
    </clipPath>
  </defs>
  <g id="Icon_download" clip-path="url(#clip-Icon_download)">
    <g id="Group_182" data-name="Group 182" transform="translate(3.398 3.15)" opacity="0.999">
      <g id="upload" transform="translate(-3.15 -3.151)">
        <path id="Shape" d="M4.4,63.555A4.41,4.41,0,0,1,0,59.15V43.338a2.45,2.45,0,1,1,4.9,0V57.205a1.466,1.466,0,0,0,1.462,1.462H57.187a1.461,1.461,0,0,0,1.455-1.462V43.344a2.456,2.456,0,0,1,4.912-.006V59.15a4.41,4.41,0,0,1-4.4,4.4ZM30.109,51.1,19.058,40.039a2.463,2.463,0,0,1,0-3.47,2.447,2.447,0,0,1,3.463,0l6.87,6.87V2.453a2.456,2.456,0,0,1,4.912,0V43.44l6.87-6.87a2.454,2.454,0,0,1,3.47,3.47L33.585,51.1a2.478,2.478,0,0,1-3.476,0Z" transform="translate(0.723 0.723)" fill="url(#linear-gradient)"/>
        <path id="Shape_-_Outline" data-name="Shape - Outline" d="M59.831,64.85H4.869A5.025,5.025,0,0,1-.15,59.83V43.956a3.058,3.058,0,1,1,6.115,0V57.878a.87.87,0,0,0,.869.869H57.859a.867.867,0,0,0,.863-.869V43.962a3.064,3.064,0,0,1,6.128-.006V59.83A5.025,5.025,0,0,1,59.831,64.85ZM2.9,42.085a1.867,1.867,0,0,0-1.858,1.871V59.83a3.828,3.828,0,0,0,3.823,3.823H59.831a3.828,3.828,0,0,0,3.823-3.823V43.956a1.868,1.868,0,0,0-3.735.006V57.878a2.065,2.065,0,0,1-2.059,2.066H6.834a2.068,2.068,0,0,1-2.065-2.066V43.956A1.87,1.87,0,0,0,2.9,42.085ZM32.423,53.059a3.09,3.09,0,0,1-2.165-.884l-11.1-11.108a3.072,3.072,0,0,1,0-4.329,3.055,3.055,0,0,1,4.323,0l5.875,5.876V2.911a3.064,3.064,0,0,1,6.128,0v39.7l5.875-5.876a3.044,3.044,0,0,1,2.166-.9,3.011,3.011,0,0,1,2.16.9,3.064,3.064,0,0,1,0,4.325l-11.1,11.1A3.062,3.062,0,0,1,32.423,53.059Zm-11.1-16.021A1.853,1.853,0,0,0,20,37.584a1.873,1.873,0,0,0,0,2.639L31.1,51.323a1.9,1.9,0,0,0,1.325.539,1.87,1.87,0,0,0,1.322-.542l11.1-11.1a1.867,1.867,0,0,0,0-2.636,1.827,1.827,0,0,0-1.312-.549,1.855,1.855,0,0,0-1.32.547L34.288,45.5V2.911a1.868,1.868,0,0,0-3.735,0V45.5l-7.918-7.918A1.845,1.845,0,0,0,21.323,37.038Z" transform="translate(0.15 0.15)" fill="url(#linear-gradient)"/>
      </g>
    </g>
  </g>
</svg>
