<svg xmlns="http://www.w3.org/2000/svg" xmlns:xlink="http://www.w3.org/1999/xlink" width="65" height="65" viewBox="0 0 65 65">
  <defs>
    <linearGradient id="linear-gradient" x1="0.5" x2="0.5" y2="1" gradientUnits="objectBoundingBox">
      <stop offset="0" stop-color="#4caaf5"/>
      <stop offset="1" stop-color="#28b4be"/>
    </linearGradient>
    <clipPath id="clip-path">
      <rect id="Rectangle_20571" data-name="Rectangle 20571" width="65" height="65" fill="url(#linear-gradient)"/>
    </clipPath>
  </defs>
  <g id="Icon_insurance" clip-path="url(#clip-path)">
    <g id="Group_60290" data-name="Group 60290">
      <g id="Group_55926" data-name="Group 55926" clip-path="url(#clip-path)">
        <path id="Path_34848" data-name="Path 34848" d="M62.954,22.877C58.518,12.4,50.256,5.887,38.4,3.505c-.867-.174-1.757-.274-2.617-.37l-.6-.068c0-.149,0-.3-.008-.453A2.711,2.711,0,0,0,32.523,0h-.037A2.7,2.7,0,0,0,29.8,2.619c-.007.161-.008.322-.007.481a33.267,33.267,0,0,0-18.109,6.98A29.5,29.5,0,0,0,.57,27.758c-.178.866-.293,1.747-.4,2.6-.051.391-.1.782-.158,1.171a.705.705,0,0,0-.007.1v2.36a.706.706,0,0,0,.208.5A2.655,2.655,0,0,0,4,35.859a15.3,15.3,0,0,1,7.5-1.414,12.115,12.115,0,0,1,7.187,2.965,2.669,2.669,0,0,0,3.713.043,14.239,14.239,0,0,1,7.4-3.067q0,3.309.009,6.617c.01,5.219.021,10.616-.028,15.921A7.746,7.746,0,0,0,36.2,64.89l.03.018a.7.7,0,0,0,.349.093h1.738a.709.709,0,0,0,.207-.031c.05-.016.1-.032.15-.05a1.409,1.409,0,0,1,.173-.053A7.7,7.7,0,0,0,45.1,57.493a2.7,2.7,0,1,0-5.387-.2,3.17,3.17,0,0,1-.232,1.024A2.225,2.225,0,0,1,37,59.564,2.265,2.265,0,0,1,35.18,57.25q-.008-11.11,0-22.22v-.646a14.229,14.229,0,0,1,7.354,3.032,2.653,2.653,0,0,0,3.756-.011,12.175,12.175,0,0,1,7.137-2.958A13.973,13.973,0,0,1,60.778,35.8,2.844,2.844,0,0,0,65,32.976a28.848,28.848,0,0,0-2.041-10.1M59.292,29.6a19.946,19.946,0,0,0-6.255-.525,17.768,17.768,0,0,0-6.069,1.571c-.037-.549-.073-1.079-.11-1.608a52.764,52.764,0,0,0-2.21-12.336,30.207,30.207,0,0,0-3.073-6.825,26.547,26.547,0,0,1,12.607,8.58c2.495,3.064,4.839,8.278,5.112,11.142M23.509,9.788l-.043.076c-.659,1.165-1.34,2.369-1.909,3.618a39.008,39.008,0,0,0-3.044,11.674c-.179,1.46-.307,2.9-.441,4.415q-.047.527-.095,1.059a18.071,18.071,0,0,0-7.466-1.607,21.063,21.063,0,0,0-4.79.575,23.424,23.424,0,0,1,5.172-11.26A26.878,26.878,0,0,1,23.509,9.788M41.55,30.577a23.91,23.91,0,0,0-18.17.023q.039-.422.077-.838c.132-1.436.256-2.793.432-4.153A35.711,35.711,0,0,1,26.7,15.143a14.133,14.133,0,0,1,4.124-5.6L31.02,9.4a4.785,4.785,0,0,1,1.467-.922h0a4.354,4.354,0,0,1,1.38.863l.217.161a14.824,14.824,0,0,1,4.448,6.245,37.963,37.963,0,0,1,2.675,10.833c.124,1.063.2,2.156.282,3.213q.029.395.059.789" fill="url(#linear-gradient)"/>
      </g>
    </g>
  </g>
</svg>
