<?xml version="1.0" encoding="UTF-8"?><svg id="_圖層_1" xmlns="http://www.w3.org/2000/svg" xmlns:xlink="http://www.w3.org/1999/xlink" viewBox="0 0 102.4 78.46"><defs><style>.cls-1,.cls-2{fill:none;}.cls-3{clip-path:url(#clippath);}.cls-4{fill:#f4acc8;}.cls-5{fill:#fe9190;}.cls-6{fill:#fff;}.cls-7{fill:#e4e5fd;}.cls-8{fill:#febc8b;}.cls-9{fill:#9fabf5;}.cls-10{fill:#a4c2ed;}.cls-11{fill:#c5cbf2;}.cls-12{fill:#37384f;}.cls-13{fill:#30237b;}.cls-14{fill:#2f247f;}.cls-15{fill:#83a2cf;}.cls-16{fill:#4e66ec;}.cls-2{stroke:#aaa;stroke-linecap:round;stroke-linejoin:round;stroke-width:.5px;}</style><clipPath id="clippath"><rect class="cls-1" x="14.75" y="1.93" width="74.46" height="74.54"/></clipPath></defs><g class="cls-3"><g id="Group_17922"><path id="Path_41889" class="cls-9" d="M34.28,64.03c.24-1.66,.5-3.32,.78-4.97s.61-3.29,1.01-4.92c.2-.81,.42-1.62,.67-2.41,.25-.8,.54-1.58,.87-2.35,.33-.77,.74-1.5,1.22-2.18,.12-.17,.26-.33,.39-.49,.14-.16,.29-.3,.44-.44,.16-.14,.32-.27,.5-.38,.18-.12,.36-.22,.55-.3-.2,.08-.38,.17-.57,.28-.18,.11-.35,.23-.51,.37-.16,.14-.32,.28-.46,.43-.14,.16-.29,.31-.42,.48-.52,.67-.96,1.39-1.32,2.15-.37,.76-.69,1.54-.98,2.33-.28,.79-.53,1.6-.77,2.4-.47,1.62-.85,3.26-1.2,4.91s-.67,3.29-.97,4.95l.74,.14Z"/><path id="Path_41890" class="cls-15" d="M44.07,44.56c-1.99-.29-4.02-.23-6,.16-2.28,.45-3.84,2.56-3.6,4.87,0,.02,0,.04,0,.06,.12,.94,.53,1.82,1.19,2.51,3.14,3.29,7.96,6.49,13.26,9.65,.89-4.59,1.19-8.84,.37-12.41-.58-2.54-2.66-4.46-5.24-4.84"/><path id="Path_41891" class="cls-15" d="M31.18,50.32c1.02,2.63,1.44,5.46,1.23,8.27-3.65,1.02-7.56-.12-10.07-2.96l8.85-5.32Z"/><path id="Path_41892" class="cls-9" d="M33.85,63.9c-.29-1.44-.59-2.88-.93-4.32-.09-.36-.17-.72-.28-1.08l-.16-.53c-.05-.18-.11-.36-.17-.53-.24-.7-.49-1.4-.78-2.08-.29-.68-.62-1.34-1-1.98-.1-.16-.19-.32-.3-.47-.05-.08-.1-.16-.16-.23l-.16-.22c-.22-.3-.47-.58-.73-.84-.52-.54-1.16-.95-1.86-1.2-.35-.12-.72-.19-1.09-.2-.37-.01-.73,.02-1.09,.1,.36-.07,.73-.08,1.09-.05,.36,.03,.72,.11,1.06,.24,.67,.28,1.27,.7,1.75,1.24,.24,.27,.47,.55,.68,.85l.15,.22c.05,.08,.1,.16,.14,.24,.1,.16,.18,.31,.27,.47,.35,.64,.65,1.3,.9,1.98,.26,.68,.48,1.38,.68,2.07,.05,.18,.1,.35,.15,.53l.14,.53c.09,.35,.16,.7,.23,1.06,.27,1.44,.51,2.88,.74,4.33l.73-.13Z"/><path id="Path_41893" class="cls-15" d="M31.18,50.32c-.6,2.87-1.51,5.33-3.27,6.67-3.4,2.41-7.23,4.15-11.28,5.11-.55-2.58-.66-5.23-.33-7.85,.39-2.55,2.41-4.54,4.97-4.89,3.33-.49,6.73-.16,9.91,.96"/><path id="Path_41894" class="cls-11" d="M25.41,49.77c-.95,.77-1.83,1.62-2.63,2.55-.81,.92-1.56,1.88-2.26,2.88-.7,1-1.35,2.03-1.96,3.08-.61,1.05-1.17,2.14-1.66,3.26,.75-.96,1.45-1.95,2.15-2.94l2.08-2.97c.69-.99,1.39-1.97,2.1-2.94,.71-.97,1.44-1.94,2.17-2.92"/><path id="Path_41895" class="cls-15" d="M32.79,48.75c-3.79,0-6.85-.77-8.6-4.17-2.67-5.18-.78-11.39-1.8-17.25,7.57,3.3,17.53,10.92,10.4,21.41"/><path id="Path_41896" class="cls-9" d="M22.39,27.33c.54,.62,1.05,1.26,1.54,1.92s.97,1.33,1.41,2.01,.89,1.38,1.3,2.09,.82,1.42,1.2,2.15,.75,1.46,1.11,2.19,.69,1.49,1.01,2.24c.64,1.5,1.2,3.04,1.67,4.61,.49,1.56,.81,3.16,.98,4.78,.08,.81,.14,1.63,.18,2.45s.09,1.64,.12,2.46c.15,3.28,.25,6.57,.6,9.86l.74-.09c-.4-3.24-.58-6.52-.79-9.8-.05-.82-.11-1.64-.17-2.46s-.14-1.64-.23-2.46c-.03-.2-.05-.41-.08-.62s-.06-.41-.1-.62l-.11-.61-.13-.6c-.19-.81-.41-1.6-.66-2.39-.51-1.57-1.1-3.11-1.77-4.61-.33-.75-.69-1.49-1.06-2.23s-.75-1.46-1.14-2.18c-.4-.72-.82-1.43-1.25-2.13s-.88-1.39-1.35-2.07c-.47-.68-.95-1.34-1.45-1.99-.5-.65-1.02-1.28-1.58-1.89"/><path id="Path_41897" class="cls-15" d="M34.42,76.47h-2.57c-2.39,.05-4.52-1.5-5.2-3.8l-2.17-9.35h17.31l-2.16,9.36c-.68,2.3-2.81,3.85-5.2,3.8"/><path id="Path_41898" class="cls-8" d="M37.2,17.63h-14.96l-7.48,12.96,7.48,12.96h14.96l7.48-12.96-7.48-12.96Z"/><path id="Path_41899" class="cls-6" d="M29.71,23.55c-3.89,0-7.04,3.15-7.04,7.04,0,3.89,3.15,7.04,7.04,7.04,3.88,0,7.03-3.15,7.04-7.03,0-3.89-3.15-7.04-7.04-7.04,0,0,0,0,0,0Zm2.73,9.39c-.19,.21-.5,.24-.73,.08l-2.55-1.32c-.09-.05-.18-.11-.26-.17-.51-.46-.55-1.24-.09-1.75,.46-.51,1.24-.55,1.75-.09,.06,.06,.12,.12,.17,.19l1.69,2.32c.19,.21,.2,.53,.02,.74m1.31-2.35c-.04-2.23-1.87-4.01-4.1-3.97-2.18,.03-3.94,1.79-3.97,3.97h-1.64c0-3.13,2.54-5.67,5.68-5.67,3.13,0,5.67,2.54,5.67,5.67h-1.64Z"/><path id="Path_41900" class="cls-7" d="M42.4,39.42c.79,.45,1.5,1.01,2.13,1.67,.61,.65,1.16,1.37,1.64,2.13,.94,1.54,1.73,3.16,2.37,4.85,.67,1.68,1.24,3.41,1.8,5.15s1.09,3.49,1.68,5.23c-.24-1.82-.58-3.63-1.02-5.42-.43-1.8-.98-3.56-1.65-5.28-.66-1.74-1.54-3.39-2.62-4.91-.55-.76-1.2-1.45-1.91-2.05-.09-.08-.18-.15-.28-.22s-.18-.14-.28-.21l-.29-.19-.15-.09-.15-.08c-.4-.23-.83-.42-1.27-.57"/><rect id="Rectangle_6712" class="cls-9" x="47.49" y="61.77" width="13.88" height="13.88"/><path id="Path_41901" class="cls-15" d="M59.08,63.11h-9.31l4.65,4.65,4.66-4.65Zm-10.25,.95v9.31l4.65-4.65-4.65-4.66Zm6.54,4.65l4.65,4.65v-9.3l-4.65,4.65Zm-5.6,5.6h9.3l-4.65-4.65-4.65,4.65Z"/><path id="Path_41902" class="cls-13" d="M74.44,49.9c.57,1.79-.42,3.69-2.21,4.26,0,0,0,0,0,0h0l-14.11,4.43c-4.21,1.33-6.05-1.65-7.08-4.88l19.16-6.02c1.79-.56,3.69,.43,4.25,2.21"/><path id="Path_41903" class="cls-12" d="M60.42,62.56l.6,.84,.05,1.93,.6,1.22-.5,.41-2.33-3.26,1.58-1.13Z"/><path id="Path_41904" class="cls-13" d="M73.7,53.22l-12.15,10.59-1.75-1.36c2.51-4.64,5.9-8.74,9.98-12.09l3.92,2.87Z"/><path id="Path_41905" class="cls-13" d="M54.37,50.91s-1.17-8.02-.72-12.1l1.55-.74c1.28,.45,2.15,1.65,2.16,3.01-.02,2.86-.2,5.72-.53,8.56l-2.45,1.27Z"/><path id="Path_41906" class="cls-13" d="M56.82,49.64l6.47,3.48-.39,.81c-2.21-.14-6.54-.88-8.55-3.02l2.46-1.27Z"/><path id="Path_41907" class="cls-13" d="M63,53.03l1.64-.22,1.15,.72,.25,.79-.83-.41h-2.3l.08-.89Z"/><path id="Path_41908" class="cls-10" d="M69.97,46.95h-8.88c-.18,.01-.34,.14-.38,.31l-1.78,7.21h-2.8v.2c0,.17,.14,.31,.31,.31,0,0,0,0,0,0h11.67c.17,0,.31-.14,.31-.31,0,0,0,0,0,0h0l1.78-7.41c.04-.13-.03-.26-.16-.3-.03,0-.05-.01-.08-.01"/><path id="Path_41909" class="cls-13" d="M64.35,61.77h-13.07c-4.42,0-5.28-3.39-5.28-6.79h15.91c1.27-.03,2.34,.94,2.44,2.21v4.58Z"/><path id="Path_41910" class="cls-12" d="M70.62,73.76l1-.24,1.81,.67,1.35-.11,.19,.61-3.89,.94-.46-1.88Z"/><path id="Path_41911" class="cls-13" d="M63.79,55.82l8.45,17.33-1.92,1.12c-3.53-3.88-6.49-8.24-8.8-12.95l2.27-5.5Z"/><path id="Path_41912" class="cls-16" d="M56.8,41.06c.31-1.36-.52-2.73-1.87-3.08-3.4-.88-7.96-.91-10.74,.76-4.38,2.62,1.27,14.99,2.35,19.97l8.92-3.72-.63-5.19c0-1.98,1.33-5.93,1.97-8.73"/><path id="Path_41913" class="cls-4" d="M52.25,35.46l.39,3.24-3.57-1.28c.7-.81,1.16-1.81,1.32-2.87l1.86,.92Z"/><path id="Path_41914" class="cls-4" d="M53.29,35.72c-.11,.5-.69,.84-1.55,.27l-1.28-1.3-.23-2.3,1.24-1.62,2.74,.79-.91,4.16Z"/><path id="Path_41915" class="cls-12" d="M54.32,30.95l-2.68-.6c-1.19-.28-1.88,.5-1.81,1.9l.14,1.71c.04,.46,.01,.7,.41,.95,0,0,.57-.36,.33-1.39-.07-.3,.04-.58,.22-.61s.3,.21,.41,.51c0,0,0,.01,0,.02,0,.24-.04,.48-.09,.72,.36,0,.65-.28,.66-.64l.02-1.02-.99-.84,2.59,.75c.49,.06,.98-.14,1.28-.53,.17-.29,.08-.67-.22-.84-.09-.05-.19-.08-.3-.09"/><path id="Path_41916" class="cls-14" d="M49.44,31.31c.17-1.42,1.46-2.44,2.88-2.27,1.58,.1,2.78,1.47,2.68,3.05,0,0,0,0,0,0h0s0,.1-.01,.15l-5.54-.93Z"/><path id="Path_41917" class="cls-14" d="M49.58,31.33c.33-1.16,1.11-2.03,1.74-1.92,.88,.15,1.19,1.19,.87,2.35l-2.6-.43Z"/><path id="Path_41918" class="cls-14" d="M55.09,32.75l-5.71-.96c-.14-.02-.23-.16-.21-.3,0,0,0,0,0,0v-.02c.03-.14,.16-.23,.3-.21,0,0,0,0,0,0l5.71,.96c.14,.03,.23,.16,.21,.3v.02c-.02,.14-.16,.23-.29,.21"/><path id="Path_41919" class="cls-13" d="M44.34,39.31c1.05-.67,2.45-.36,3.12,.69,.13,.2,.22,.42,.28,.64,.23,2.97,.18,5.96-.17,8.92l7.71,2.92-.3,.84c-2.22,.09-7.51-.5-9.73-2.42,0,0-3.72-9.44-.92-11.6"/><path id="Path_41920" class="cls-13" d="M54.98,53.32l1.82-.14,.99,.35v-.31c.03-.37-.17-.71-.5-.88l-.52-.26,.51-.13,.42,.19,.23-.12-.65-.35-1.03,.14-1.32,.61,.06,.9Z"/><path id="Path_41921" class="cls-8" d="M81.73,17.63h-14.96l-7.49,12.96,7.48,12.96h14.97l7.48-12.96-7.48-12.96Z"/><path id="Path_41922" class="cls-6" d="M66.14,34.02c-.95,.03-1.75-.71-1.79-1.66-.03-.95,.71-1.75,1.66-1.79h.15c.23,0,.47,.05,.68,.15,0-.05,0-.1,0-.15,0-1.9,1.55-3.44,3.45-3.43,.84,0,1.65,.31,2.28,.87,.82-2.47,3.49-3.8,5.95-2.98,2.32,.77,3.66,3.19,3.09,5.57,.06,0,.12,0,.17,0,.95-.02,1.74,.73,1.77,1.68,.02,.95-.73,1.74-1.68,1.77-.03,0-.06,0-.08,0h-15.64Z"/><path id="Path_41923" class="cls-5" d="M59.63,27.84h-14.96l-7.48-12.96L44.67,1.93h14.96l7.49,12.96-7.49,12.96Z"/><path id="Path_41924" class="cls-6" d="M53.46,14c-.54-.46-1.17-.79-1.86-.96,1.54-.77,2.18-2.64,1.41-4.18-.77-1.54-2.64-2.18-4.18-1.41s-2.18,2.64-1.41,4.18c.3,.61,.8,1.11,1.41,1.41-1.92,.49-3.42,2.11-3.85,5.22-.13,.93,.52,1.78,1.45,1.91,.08,.01,.15,.02,.23,.02h3.65"/><path id="Path_41925" class="cls-6" d="M53.14,13.79s2.54,1.1,2.87,6.64l-5.92-.25,3.05-6.39Z"/><path id="Path_41926" class="cls-6" d="M58.62,18.76c0-.22-.03-.44-.07-.65l.78-.7-.69-1.19-1,.33c-.32-.3-.71-.52-1.13-.65l-.22-1.02h-1.37l-.22,1.02c-.42,.13-.8,.36-1.12,.65l-1-.33-.69,1.19,.78,.7c-.1,.43-.1,.87,0,1.3l-.78,.7,.69,1.19,1-.33c.32,.3,.71,.52,1.12,.65l.22,1.02h1.38l.21-1.02c.42-.13,.8-.35,1.12-.65l1,.33,.69-1.19-.78-.7c.05-.21,.07-.43,.07-.65"/><path id="Path_41927" class="cls-2" d="M58.62,18.76c0-.22-.03-.44-.07-.65l.78-.7-.69-1.19-1,.33c-.32-.3-.71-.52-1.13-.65l-.22-1.02h-1.37l-.22,1.02c-.42,.13-.8,.36-1.12,.65l-1-.33-.69,1.19,.78,.7c-.1,.43-.1,.87,0,1.3l-.78,.7,.69,1.19,1-.33c.32,.3,.71,.52,1.12,.65l.22,1.02h1.38l.21-1.02c.42-.13,.8-.35,1.12-.65l1,.33,.69-1.19-.78-.7c.05-.21,.07-.43,.07-.65Z"/><path id="Path_41928" class="cls-2" d="M56.8,18.76c0,.66-.54,1.2-1.2,1.2s-1.2-.54-1.2-1.2,.54-1.2,1.2-1.2"/></g></g></svg>