<svg id="圖層_1" data-name="圖層 1" xmlns="http://www.w3.org/2000/svg" viewBox="0 0 102.4 78.46"><defs><style>.cls-1{fill:#e3e5e8;}.cls-2{fill:#e8eaed;}.cls-3{fill:#f2f4f7;}.cls-4{fill:#626f82;stroke:#616d7f;stroke-miterlimit:10;}.cls-5{fill:#ffed00;}.cls-6{fill:#f9b233;}.cls-7{fill:#95c11f;}.cls-10,.cls-8{fill:#1d1d1b;}.cls-9{fill:#94def7;}.cls-13,.cls-9{opacity:0.5;}.cls-10,.cls-12,.cls-9{isolation:isolate;}.cls-10{opacity:0.1;}.cls-11{fill:#575756;}.cls-12,.cls-14{fill:#fff;}.cls-12{opacity:0.3;}</style></defs><g id="Group_4460" data-name="Group 4460"><g id="Group_4456" data-name="Group 4456"><rect id="Rectangle_2692" data-name="Rectangle 2692" class="cls-1" x="12.09" y="13.81" width="67.93" height="50.11" transform="translate(3.11 81.15) rotate(-84.72)"/><rect id="Rectangle_2693" data-name="Rectangle 2693" class="cls-2" x="12" y="14.48" width="67.91" height="50.1" transform="translate(0.06 79.12) rotate(-81.49)"/><rect id="Rectangle_2694" data-name="Rectangle 2694" class="cls-3" x="18.46" y="4.07" width="51.06" height="69.21"/><rect id="Rectangle_2695" data-name="Rectangle 2695" class="cls-4" x="25.74" y="19.26" width="28.34" height="0.67"/><rect id="Rectangle_2696" data-name="Rectangle 2696" class="cls-4" x="25.74" y="23.73" width="28.34" height="0.67"/><rect id="Rectangle_2697" data-name="Rectangle 2697" class="cls-4" x="25.74" y="28.21" width="28.34" height="0.67"/><g id="Group_4455" data-name="Group 4455"><rect id="Rectangle_2698" data-name="Rectangle 2698" class="cls-5" x="26.42" y="52.19" width="10.33" height="16.68"/><rect id="Rectangle_2699" data-name="Rectangle 2699" class="cls-6" x="39.13" y="43.7" width="10.33" height="25.17"/><rect id="Rectangle_2700" data-name="Rectangle 2700" class="cls-7" x="51.85" y="33.06" width="10.33" height="36.12"/></g></g><g id="Group_4459" data-name="Group 4459"><path id="Path_40941" data-name="Path 40941" class="cls-7" d="M62.14,39.54V69.06H51.78l.11-33.36C52,35.14,58.11,35.65,62.14,39.54Z"/><rect id="Rectangle_2701" data-name="Rectangle 2701" class="cls-8" x="68.03" y="53.23" width="3.11" height="14.74" transform="translate(-18.13 89.22) rotate(-59.12)"/><path id="Path_40942" data-name="Path 40942" class="cls-9" d="M59,36.7a12.5,12.5,0,0,1,4.77,16.5,13.53,13.53,0,0,1-.71,1.29C59.16,60.78,51,63,44.82,59.47s-8-11.51-4.06-17.8a14.2,14.2,0,0,1,8-6.08A13,13,0,0,1,59,36.7Z"/><path id="Path_40943" data-name="Path 40943" class="cls-10" d="M58.64,37.3a11.84,11.84,0,0,1,4.52,15.63C63.34,40.61,53,37.15,48.89,36.26A12.35,12.35,0,0,1,58.64,37.3Z"/><g id="Group_4457" data-name="Group 4457"><path id="Path_40944" data-name="Path 40944" class="cls-11" d="M84.81,67.36,68.34,57.17a.56.56,0,0,0-.77.18l0,0-.2.34-.12.22-1,1.78-.33.56a.62.62,0,0,0,.2.82L82.55,71.28a2,2,0,0,0,2.27-.16,2.21,2.21,0,0,0,.46-.55l.22-.39A2.1,2.1,0,0,0,84.81,67.36Zm-2,2.9a1.29,1.29,0,0,1-.49-1.77v0l0-.06a1.24,1.24,0,0,1,.44-.41A1.21,1.21,0,0,1,84,68a1.32,1.32,0,0,1,.52,1.55,1.75,1.75,0,0,1-.11.24,1.5,1.5,0,0,1-.34.37,1.2,1.2,0,0,1-1.29.07Z"/><path id="Path_40945" data-name="Path 40945" class="cls-12" d="M68.34,57.17,84.81,67.36a2.1,2.1,0,0,1,.69,2.82l-.23.39a2,2,0,0,1-.46.55c-.22-.3-.47-.62-.74-.93a1.23,1.23,0,0,0,.45-.61A1.3,1.3,0,0,0,84,68a1.21,1.21,0,0,0-1.22,0,1.24,1.24,0,0,0-.44.41c-4.67-4.39-12.42-9.16-15-10.69l.2-.34a.57.57,0,0,1,.77-.22Z"/></g><path id="Path_40946" data-name="Path 40946" class="cls-8" d="M60.23,35.17a14.61,14.61,0,0,0-12.1-1,15.76,15.76,0,0,0-8.24,6.57,16.08,16.08,0,0,0-1,1.88c-.09.22-.19.44-.27.66h0c-.14.34-.26.69-.37,1s-.14.48-.2.72h0s0,.05,0,.07v0c-.07.3-.14.6-.19.9a14.17,14.17,0,0,0-.08,4.73h0v0h0a12.62,12.62,0,0,0,.35,1.62h0A14.71,14.71,0,0,0,38.65,54h0s.05.1.07.16h0l.05.12a13.35,13.35,0,0,0,3.84,5,12.13,12.13,0,0,0,1.73,1.2l.08,0a15,15,0,0,0,16-.95,15.37,15.37,0,0,0,1.72-1.39,15.21,15.21,0,0,0,1.59-1.72h0A15.38,15.38,0,0,0,64.76,55c.19-.3.36-.6.53-.91h0A14,14,0,0,0,60.23,35.17ZM57.78,58.45a12.53,12.53,0,0,1-10.85.61,11.42,11.42,0,0,1-1.21-.61A11.24,11.24,0,0,1,43,56.33a11.73,11.73,0,0,1-1.15-1.48,9.6,9.6,0,0,1-.54-.92c-.08-.14-.14-.28-.21-.42a10.8,10.8,0,0,1-.46-1.11,12,12,0,0,1,.41-8.9c.06-.14.12-.27.19-.41.15-.31.31-.61.49-.91l.17-.29.27-.41h0c.15-.23.31-.44.47-.66l0,0,.06-.08a13.15,13.15,0,0,1,5.35-4c.33-.14.66-.26,1-.37a13.2,13.2,0,0,1,3.42-.6h0a11.82,11.82,0,0,1,6.37,1.56,11.63,11.63,0,0,1,4.43,15.38l-.15.3c-.15.29-.32.58-.5.87a13.15,13.15,0,0,1-4.93,4.64Z"/><g id="Group_4458" data-name="Group 4458" class="cls-13"><path id="Path_40947" data-name="Path 40947" class="cls-14" d="M45.44,53.65a3.62,3.62,0,0,1,.65-1.08l.26-.31c-.3-.31-.59-.63-.88-.94a9.29,9.29,0,0,1-1-1.25c-.74.74-1.47,1.56-1.38,1.74a10.11,10.11,0,0,0,2.22,2.57A1.83,1.83,0,0,1,45.44,53.65Z"/><path id="Path_40948" data-name="Path 40948" class="cls-14" d="M48.61,54.45c-.4-.32-.79-.67-1.15-1s-.62-.61-.92-.92c-.12.13-.23.27-.34.41A3.64,3.64,0,0,0,45.59,54a1.87,1.87,0,0,0-.1.62,17.73,17.73,0,0,0,3.62,2.51c.2,0,1-.61,1.65-1.31-.31-.16-.62-.34-.92-.53A10.35,10.35,0,0,1,48.61,54.45Z"/><path id="Path_40949" data-name="Path 40949" class="cls-14" d="M47.23,51.41a3.52,3.52,0,0,1,.69-.44l0,0a13,13,0,0,1-1.87-2.32,7,7,0,0,0-1.43,1.23l.1.15a11.28,11.28,0,0,0,1.05,1.24c.26.26.5.53.75.79A5.68,5.68,0,0,1,47.23,51.41Z"/><path id="Path_40950" data-name="Path 40950" class="cls-14" d="M48.14,51.09l-.22.12a3.43,3.43,0,0,0-.66.47,6.14,6.14,0,0,0-.51.51c.39.4.78.8,1.19,1.19s.78.69,1.19,1a14,14,0,0,0,1.21.79l.63.34c.67-.69,1.26-1.43,1.15-1.66S50.12,53,48.14,51.09Z"/></g></g></g></svg>