<svg id="编组_2" data-name="编组 2" xmlns="http://www.w3.org/2000/svg" xmlns:xlink="http://www.w3.org/1999/xlink" width="106" height="98.693" viewBox="0 0 106 98.693">
  <defs>
    <clipPath id="clip-path">
      <path id="Clip_2" data-name="Clip 2" d="M50.886,2V3.183a4,4,0,0,1-4,4H25l-.2-.005A4,4,0,0,1,21,3.183h0V2a2,2,0,0,0-2-2H0V22a4,4,0,0,0,4,4H68.1a4,4,0,0,0,4-4h0V0H52.887a2,2,0,0,0-2,2Z" transform="translate(0 0.999)" fill="none"/>
    </clipPath>
    <clipPath id="clip-path-2">
      <path id="Clip_2-2" data-name="Clip 2" d="M0,12a10.277,10.277,0,0,0,2.305,6.4h0a1.006,1.006,0,0,1,.177.943h0L1.143,23.326l4.346-1.609a.993.993,0,0,1,.837.074h0A17.6,17.6,0,0,0,15,24h0c8.284,0,15-5.372,15-12h0C30,5.372,23.284,0,15,0h0C6.716,0,0,5.372,0,12Z" fill="none"/>
    </clipPath>
  </defs>
  <ellipse id="椭圆形" cx="44.5" cy="9" rx="44.5" ry="9" transform="translate(0 80.693)" fill="#f6f6f8"/>
  <path id="矩形" d="M14.217,0H57.883L72.1,17.1H0Z" transform="translate(8.5 48.893)" fill="#aeb8c3"/>
  <rect id="矩形-2" data-name="矩形" width="50" height="54" rx="2" transform="translate(19.55 20.193)" fill="#f5f5f7"/>
  <rect id="矩形-3" data-name="矩形" width="36" height="20" rx="2" transform="translate(26.5 26.193)" fill="#dedee7"/>
  <rect id="矩形备份" width="36" height="3" rx="1.5" transform="translate(26.5 52.131)" fill="#dedee7"/>
  <rect id="矩形备份_2" data-name="矩形备份 2" width="36" height="3" rx="1.5" transform="translate(26.5 60.407)" fill="#dedee7"/>
  <g id="编组" transform="translate(8.5 65.011)">
    <path id="Clip_2-3" data-name="Clip 2" d="M50.886,2V3.183a4,4,0,0,1-4,4H25l-.2-.005A4,4,0,0,1,21,3.183h0V2a2,2,0,0,0-2-2H0V22a4,4,0,0,0,4,4H68.1a4,4,0,0,0,4-4h0V0H52.887a2,2,0,0,0-2,2Z" transform="translate(0 0.999)" fill="none"/>
    <g id="编组-2" data-name="编组" clip-path="url(#clip-path)">
      <path id="Fill_1" data-name="Fill 1" d="M0,36H82.1V0H0Z" transform="translate(-5 -4)" fill="#dce0e8"/>
    </g>
  </g>
  <g id="编组-3" data-name="编组" transform="translate(76)">
    <path id="Clip_2-4" data-name="Clip 2" d="M0,12a10.277,10.277,0,0,0,2.305,6.4h0a1.006,1.006,0,0,1,.177.943h0L1.143,23.326l4.346-1.609a.993.993,0,0,1,.837.074h0A17.6,17.6,0,0,0,15,24h0c8.284,0,15-5.372,15-12h0C30,5.372,23.284,0,15,0h0C6.716,0,0,5.372,0,12Z" fill="none"/>
    <g id="编组-4" data-name="编组" clip-path="url(#clip-path-2)">
      <path id="Fill_1-2" data-name="Fill 1" d="M0,34H40V0H0Z" transform="translate(-5 -5)" fill="#dce0e8"/>
      <rect id="矩形-4" data-name="矩形" width="4" height="4" transform="translate(-21 8)" fill="#fff"/>
    </g>
  </g>
  <rect id="矩形-5" data-name="矩形" width="4" height="4" transform="translate(89.197 9.139)" fill="#fff"/>
  <circle id="椭圆形-2" data-name="椭圆形" cx="2" cy="2" r="2" transform="translate(94.821 9.139)" fill="#fff"/>
  <path id="三角形" d="M2,0,4,4H0Z" transform="translate(83.179 9.139)" fill="#fff"/>
</svg>
