<svg id="圖層_1" data-name="圖層 1" xmlns="http://www.w3.org/2000/svg" viewBox="0 0 24.52 24.01"><defs><style>.cls-1,.cls-3{fill:none;}.cls-2{fill:#0c7d94;}.cls-3{stroke:#0c7d94;stroke-linecap:round;stroke-width:2px;}</style></defs><g id="Component_50_5" data-name="Component 50 5"><g id="_Color" data-name=" Color"><path class="cls-1" d="M12.21,19.25a11.8,11.8,0,0,1-11-7.5,11.82,11.82,0,0,1,22,0,11.89,11.89,0,0,1-4.28,5.4A11.7,11.7,0,0,1,12.21,19.25Zm0-12.5a5,5,0,1,0,5,5A5,5,0,0,0,12.21,6.75Zm0,8a3,3,0,1,1,3-3A3,3,0,0,1,12.21,14.75Z"/><path class="cls-2" d="M8.43,17a6.49,6.49,0,0,1,0-10.57,10.36,10.36,0,0,0-5.59,5.29,10.29,10.29,0,0,0,3.5,4.16A9.58,9.58,0,0,0,8.43,17M16,17a9.81,9.81,0,0,0,2.09-1.12,10.45,10.45,0,0,0,3.5-4.16,10.48,10.48,0,0,0-3.5-4.17A10.8,10.8,0,0,0,16,6.46,6.49,6.49,0,0,1,16,17m-3.78-3.78a1.5,1.5,0,1,0-1.5-1.5,1.5,1.5,0,0,0,1.5,1.5m0,6a11.8,11.8,0,0,1-11-7.5,11.82,11.82,0,0,1,22,0,11.83,11.83,0,0,1-11,7.5Zm0-12.5a5,5,0,1,0,5,5A5,5,0,0,0,12.21,6.75Zm0,8a3,3,0,1,1,3-3A3,3,0,0,1,12.21,14.75Z"/></g><line id="Line_1746" data-name="Line 1746" class="cls-3" x1="6.71" y1="2.25" x2="18.71" y2="22.25"/></g></svg>