<svg xmlns="http://www.w3.org/2000/svg" viewBox="0 0 26.67 19.38"><defs><style>.cls-1,.cls-2{fill:#fff;}.cls-1,.cls-3{stroke:#fff;}.cls-1{stroke-width:0.5px;}.cls-3{fill:none;}</style></defs><g id="圖層_3" data-name="圖層 3"><g id="Group_5483" data-name="Group 5483"><g id="Group_4491" data-name="Group 4491"><g id="Group_4489" data-name="Group 4489"><path id="Path_40994" data-name="Path 40994" class="cls-1" d="M19.8,15.51H4.68a2.72,2.72,0,0,1-2.55-2.85V3.76A2.72,2.72,0,0,1,4.68.91H19.8a2.71,2.71,0,0,1,2.55,2.85v8.9A2.71,2.71,0,0,1,19.8,15.51ZM4.68,2.16a1.53,1.53,0,0,0-1.43,1.6v8.9a1.53,1.53,0,0,0,1.43,1.6H19.8a1.53,1.53,0,0,0,1.44-1.6V3.76a1.53,1.53,0,0,0-1.44-1.6Z"/></g><g id="Group_4490" data-name="Group 4490"><path id="Path_40995" data-name="Path 40995" class="cls-1" d="M26.12,18.44a8.36,8.36,0,0,1-2.64.21H3.4a8.44,8.44,0,0,1-2.65-.21V17.6a8.75,8.75,0,0,1,2.65-.21H23.48a8.75,8.75,0,0,1,2.65.21Z"/></g></g><g id="Group_4492" data-name="Group 4492"><rect id="Rectangle_2712" data-name="Rectangle 2712" class="cls-2" x="3.99" y="5.36" width="4.95" height="4.95"/><rect id="Rectangle_2713" data-name="Rectangle 2713" class="cls-2" x="11.41" y="9.69" width="4.95" height="4.95"/><line id="Line_1668" data-name="Line 1668" class="cls-3" x1="6.46" y1="7.46" x2="6.46" y2="13.24"/><path id="Path_40996" data-name="Path 40996" class="cls-3" d="M12.87,13h-7"/></g></g></g></svg>