<svg xmlns="http://www.w3.org/2000/svg" viewBox="0 0 24.65 22.19"><defs><style>.cls-1{fill:#c7c7c7;}</style></defs><g id="圖層_3" data-name="圖層 3"><path id="edit" class="cls-1" d="M17.24,4.23l3.6,3.6a.38.38,0,0,1,0,.55L12.12,17.1l-3.7.41a.78.78,0,0,1-.86-.69.49.49,0,0,1,0-.17L8,13l8.72-8.72a.38.38,0,0,1,.55,0Zm6.47-.92L21.77,1.36a1.57,1.57,0,0,0-2.2,0L18.15,2.78a.38.38,0,0,0,0,.55l3.6,3.6a.39.39,0,0,0,.55,0l1.41-1.42a1.57,1.57,0,0,0,0-2.2ZM16.5,14.73v4.06H3.72V6H12.9a.48.48,0,0,0,.34-.14l1.6-1.6a.46.46,0,0,0,0-.67.48.48,0,0,0-.34-.14H3.08A1.91,1.91,0,0,0,1.17,5.37h0V19.43a1.92,1.92,0,0,0,1.91,1.92H17.14a1.92,1.92,0,0,0,1.92-1.92v-6.3a.49.49,0,0,0-.48-.48.48.48,0,0,0-.34.14l-1.6,1.6A.48.48,0,0,0,16.5,14.73Z"/></g></svg>