<svg xmlns="http://www.w3.org/2000/svg" viewBox="0 0 20.13 21.12"><defs><style>.cls-1,.cls-2{fill:none;}.cls-2{stroke:#FFFFFF;stroke-linecap:round;stroke-linejoin:round;stroke-width:2px;}.cls-3{fill:#FFFFFF;}</style></defs><g id="系統設定"><g id="Group_6260" data-name="Group 6260"><g id="ic_invoice" data-name="ic invoice"><path id="Path_378" data-name="Path 378" class="cls-1" d="M-3.14-1.53h24v24h-24Z"/><path id="Path_379" data-name="Path 379" class="cls-2" d="M10.86,1.47v4a1,1,0,0,0,1,1h4"/><path id="Path_380" data-name="Path 380" class="cls-2" d="M13.86,19.47h-10a2,2,0,0,1-2-2v-14a2,2,0,0,1,2-2h7l5,5v11A2,2,0,0,1,13.86,19.47Z"/></g><path id="check" class="cls-3" d="M8.54,15.56,3.1,10.12a.83.83,0,0,1,0-1.18h0L4.29,7.76a.83.83,0,0,1,1.18,0h0l3.66,3.66L17,3.57a.84.84,0,0,1,1.19,0h0l1.18,1.19a.83.83,0,0,1,0,1.18h0L9.73,15.56a.84.84,0,0,1-1.19,0Z"/></g></g></svg>