<svg xmlns="http://www.w3.org/2000/svg" viewBox="0 0 28.17 21.88"><defs><style>.cls-1{fill:#0c7d94;}</style></defs><g id="圖層_3" data-name="圖層 3"><path id="comments" class="cls-1" d="M25.59,17.07a6.44,6.44,0,0,0,2.06-4.6c0-3.75-3.58-6.84-8.26-7.4-1.47-2.7-4.94-4.6-9-4.6C5,.47.66,3.83.66,8a6.44,6.44,0,0,0,2.06,4.6A12.3,12.3,0,0,1,1,15.15,1.08,1.08,0,0,0,1.74,17a10.77,10.77,0,0,0,5.87-1.81c.44.09.88.17,1.33.23,1.47,2.68,4.92,4.58,9,4.58a11.9,11.9,0,0,0,2.8-.31,10.77,10.77,0,0,0,5.87,1.81,1.08,1.08,0,0,0,1.09-1.08,1.11,1.11,0,0,0-.3-.75A11.74,11.74,0,0,1,25.59,17.07ZM7.18,12.75l-.8.52a9.5,9.5,0,0,1-2,1c.13-.22.25-.46.38-.69l.72-1.46L4.3,11A4.24,4.24,0,0,1,2.91,8c0-2.84,3.43-5.24,7.5-5.24s7.5,2.4,7.5,5.24-3.44,5.25-7.5,5.25A9.83,9.83,0,0,1,8.11,13l-.93-.21ZM24,15.47l-1.16,1.15.73,1.46c.12.24.25.47.37.69a9.74,9.74,0,0,1-2-1l-.8-.52-.93.22a10.4,10.4,0,0,1-2.3.26,8.7,8.7,0,0,1-6.15-2.33c4.75-.51,8.4-3.63,8.4-7.42a3.73,3.73,0,0,0,0-.47c3,.68,5.29,2.66,5.29,5A4.32,4.32,0,0,1,24,15.47Z"/></g></svg>