<svg xmlns="http://www.w3.org/2000/svg" viewBox="0 0 38.06 49.04"><defs><style>.cls-1{fill:none;stroke:#666;}.cls-1,.cls-2{stroke-width:0.5px;}.cls-2{fill:#098f7e;stroke:#098f7e;}</style></defs><g id="圖層_11" data-name="圖層 11"><g id="Group_5648" data-name="Group 5648"><path id="Path_41486" data-name="Path 41486" class="cls-1" d="M10.36,16.07l.5.23v-.12c0-1,.08-1.93.18-2.65.4-2.8,4.1-4,7.66-4h.19c3.55,0,7.27,1.31,7.59,4.06.07.57.13,1.53.19,2.55l0,.23h0l.49-.24c.22-.11.44-.23.67-.32,0-3.77-.59-6.14-1.77-7.67S23.2,5.9,20.79,4.92c-1.26-.51-2.66-1.08-4.19-1.86a3.41,3.41,0,0,0,.06.9.76.76,0,0,1-.83.94,2.75,2.75,0,0,1-.93-.26l.39,1.22a.78.78,0,0,1-.5,1h0a.77.77,0,0,1-1-.5h0l-.16-.53c-3.77,1.4-4,4.22-4,10A6.56,6.56,0,0,1,10.36,16.07Z"/><path id="Path_41487" data-name="Path 41487" class="cls-1" d="M28.82,35.5c-.9-.4-1.81-.81-2.68-1.26L19.42,44.66a.76.76,0,0,1-.88.32.86.86,0,0,1-.42-.33l-6.7-10.41c-.86.45-1.78.85-2.67,1.26-3.18,1.42-5.91,2.64-5.91,5.09v3.35a2.57,2.57,0,0,0,2.57,2.57H32.15a2.57,2.57,0,0,0,2.58-2.57h0V40.59C34.73,38.14,32,36.91,28.82,35.5Z"/><path id="Path_41488" data-name="Path 41488" class="cls-1" d="M22.61,36.89H15l3.82,5.94Z"/><path id="Path_41489" data-name="Path 41489" class="cls-1" d="M14.39,28.53a6.3,6.3,0,0,0,8.78,0l.1-.12a12.21,12.21,0,0,0,2.72-5,.77.77,0,0,1,.73-.54h.57c1.07,0,1.77-1.28,2-2.55.25-1.47-.12-2.8-.87-3.1l-.5.25c-.64.33-1.36.71-2,.34a1.57,1.57,0,0,1-.71-1.37l0-.23c-.06-1-.12-1.94-.18-2.47-.18-1.5-2.79-2.67-6.09-2.71-2.94,0-6.05.89-6.31,2.72-.09.65-.13,1.59-.17,2.5v.16a1.47,1.47,0,0,1-.61,1.33c-.66.41-1.42,0-2.09-.28l-.53-.24,0,0C8.36,17.57,8,19,8.33,20.51c.23,1.09.87,2.35,1.94,2.35h.57a.76.76,0,0,1,.73.54,12.19,12.19,0,0,0,2.72,5A.52.52,0,0,1,14.39,28.53Z"/><path id="Path_41490" data-name="Path 41490" class="cls-1" d="M23.59,35.36l1.21-1.88a10.83,10.83,0,0,1-1.5-1.12.77.77,0,0,1-.26-.57V30.56a7.73,7.73,0,0,1-8.52,0v1.23a.73.73,0,0,1-.26.57,10.27,10.27,0,0,1-1.5,1.12L14,35.36Z"/><path id="Path_41491" data-name="Path 41491" class="cls-2" d="M34.72,36.79c-1-.62-4.1-2.17-5.28-2.69a22.5,22.5,0,0,1-4.86-2.66V29.3l.11-.12a.66.66,0,0,0,.14-.2,13.84,13.84,0,0,0,2.45-4.59h0c1.73,0,3.1-1.5,3.5-3.81.29-1.69-.05-3.71-1.39-4.57,0-4.26-.66-7-2.09-8.83S23.9,4.54,21.37,3.51a50.81,50.81,0,0,1-5-2.28.74.74,0,0,0-.87.1.71.71,0,0,0-.23.34,5.69,5.69,0,0,0-.22,1.22,3.49,3.49,0,0,1-.26-.27.76.76,0,0,0-1.26.16,2.77,2.77,0,0,0-.27,1.53C8.16,6.13,8.1,10.31,8.16,16c-1.42.9-1.7,3.07-1.33,4.82.46,2.16,1.81,3.56,3.44,3.56h0A14,14,0,0,0,12.73,29a1.43,1.43,0,0,0,.14.2l.12.12v2.14a22.53,22.53,0,0,1-4.87,2.65c-3.35,1.5-6.82,3-6.82,6.5v3.34A4.12,4.12,0,0,0,5.42,48h26.1c6.32,0,5.54-4.57,5.09-9.17C36.51,38,35.7,37.44,34.72,36.79Zm-21.07-31,.17.53a.76.76,0,0,0,1,.5h0a.76.76,0,0,0,.5-1h0L14.9,4.64a2.69,2.69,0,0,0,.93.26.76.76,0,0,0,.76-.39A.8.8,0,0,0,16.66,4a3.91,3.91,0,0,1-.07-.9c1.54.78,2.94,1.35,4.19,1.86,2.41,1,4.16,1.69,5.31,3.19s1.74,3.9,1.77,7.67c-.22.09-.44.21-.66.32l-.49.24h0V16.1c-.06-1-.12-2-.19-2.55-.32-2.75-4.05-4-7.6-4.06H18.7c-3.56,0-7.26,1.24-7.66,4-.1.72-.14,1.66-.18,2.65v.12l-.5-.23-.66-.3C9.64,10,9.89,7.19,13.65,5.79ZM11.57,23.4a.77.77,0,0,0-.73-.54h-.57c-1.07,0-1.72-1.27-1.95-2.35-.31-1.51,0-3,.79-3.28l.05,0c.17.06.38.17.53.24.67.32,1.43.69,2.08.28a1.47,1.47,0,0,0,.61-1.34v-.15c0-.91.08-1.85.17-2.5.26-1.83,3.37-2.76,6.31-2.72,3.3,0,5.91,1.2,6.09,2.7.06.53.12,1.52.18,2.48v.23a1.55,1.55,0,0,0,.72,1.36c.67.38,1.4,0,2-.33.14-.08.33-.18.49-.25.75.3,1.13,1.62.87,3.1-.22,1.27-.91,2.54-2,2.54h-.57a.75.75,0,0,0-.73.55,12.12,12.12,0,0,1-2.73,5l-.1.12a6.29,6.29,0,0,1-8.77,0l-.1-.12a12.21,12.21,0,0,1-2.72-5Zm2.69,9a.76.76,0,0,0,.25-.57V30.56a7.75,7.75,0,0,0,8.53,0v1.23a.73.73,0,0,0,.26.57,10.27,10.27,0,0,0,1.5,1.12l-1.21,1.88H14l-1.21-1.88a10.93,10.93,0,0,0,1.51-1.12Zm8.34,4.53-3.82,5.94L15,36.89Zm12.13,7a2.58,2.58,0,0,1-2.58,2.58H5.41a2.57,2.57,0,0,1-2.58-2.58h0V40.59c0-2.45,2.74-3.67,5.91-5.09.9-.4,1.81-.81,2.68-1.26l6.7,10.41a.79.79,0,0,0,.41.33.77.77,0,0,0,.89-.32l6.71-10.42c.87.45,1.78.85,2.68,1.26,3.17,1.42,5.91,2.64,5.91,5.09Z"/></g></g></svg>