<svg xmlns="http://www.w3.org/2000/svg" viewBox="0 0 38.06 49.04"><defs><style>.cls-1{fill:none;stroke:#0c7d94;}.cls-1,.cls-2{stroke-width:0.5px;}.cls-2{fill:#666;stroke:#666;}</style></defs><g id="圖層_9" data-name="圖層 9"><g id="Group_5647" data-name="Group 5647"><path id="Path_41481" data-name="Path 41481" class="cls-1" d="M14.61,11a.76.76,0,0,1,.8-.31.78.78,0,0,1,.35.18l5.13,4.44L20,11.84a.78.78,0,0,1,.3-.85.77.77,0,0,1,.44-.14.76.76,0,0,1,.46.16l6.85,5.24h0a4.19,4.19,0,0,1,1.2-.48V11.89a9.37,9.37,0,0,0-9.6-9.09,9.37,9.37,0,0,0-9.59,9.09v3.88a3.83,3.83,0,0,1,1,.35Z"/><path id="Path_41482" data-name="Path 41482" class="cls-1" d="M29.71,35.64a26.84,26.84,0,0,1-4.77-2.52l-4.6,8.76a.76.76,0,0,1-1.35,0l-4.6-8.76a27.1,27.1,0,0,1-4.76,2.52c-.93.41-1.82.81-2.62,1.24-1.9.84-4.42,2.72-4.42,4.38l0,3.17s-.1,2.16,1.92,2.22c6.74.2,28.55,0,28.55,0a2.58,2.58,0,0,0,2.58-2.58V40.74C35.62,38.28,32.88,37.06,29.71,35.64Z"/><path id="Path_41483" data-name="Path 41483" class="cls-1" d="M15.28,28.68a6.33,6.33,0,0,0,8.78,0,.64.64,0,0,1,.1-.13,12.15,12.15,0,0,0,2.72-5,.77.77,0,0,1,.73-.54h.57c1.07,0,1.77-1.28,2-2.54.25-1.48-.12-2.8-.87-3.1l-.5.24-.49.25-.09,0a.73.73,0,0,1-.33,0,1.06,1.06,0,0,1-.3-.1l-.09-.07L22,13.57,23,17.22a.8.8,0,0,1-.25.81.77.77,0,0,1-1,0l-6.33-5.48-3.41,5a.64.64,0,0,1-.13.15.73.73,0,0,1-.31.17.81.81,0,0,1-.31,0A.65.65,0,0,1,11,17.8l-.44-.2a5.25,5.25,0,0,0-.53-.24l0,0c-.76.33-1.11,1.77-.79,3.28.22,1.08.87,2.35,1.94,2.35h.57a.76.76,0,0,1,.73.54,12.21,12.21,0,0,0,2.72,5Z"/><path id="Path_41484" data-name="Path 41484" class="cls-1" d="M15.41,30.71v1l4.26,8.13,4.26-8.13v-1a7.78,7.78,0,0,1-8.52,0Z"/><path id="Path_41485" data-name="Path 41485" class="cls-2" d="M30.33,34.24a22.08,22.08,0,0,1-4.86-2.66V29.45l.11-.13a.48.48,0,0,0,.14-.2,13.8,13.8,0,0,0,2.45-4.58h0c1.73,0,3.1-1.5,3.5-3.82a5.06,5.06,0,0,0-.88-4.14V11.89a10.27,10.27,0,0,0-3.29-7.5,11.3,11.3,0,0,0-7.84-3.11A10.89,10.89,0,0,0,8.55,11.9v4.67A5.15,5.15,0,0,0,7.72,21c.46,2.17,1.81,3.57,3.44,3.57h0a14.17,14.17,0,0,0,2.45,4.58.6.6,0,0,0,.14.2l.12.13v2.13A22.15,22.15,0,0,1,9,34.24,37.06,37.06,0,0,0,5.6,35.91C0,38.34,1,40.23.85,44.29A9.28,9.28,0,0,0,.9,45.87a2.68,2.68,0,0,0,2.67,2.32H33a4.11,4.11,0,0,0,4.11-4.11V40.73C37.15,37.29,33.69,35.74,30.33,34.24ZM10.08,11.89a9.36,9.36,0,0,1,9.59-9.08,9.36,9.36,0,0,1,9.59,9.08v3.88a4.31,4.31,0,0,0-1.2.48h0L21.22,11a.81.81,0,0,0-.47-.16.79.79,0,0,0-.44.14.82.82,0,0,0-.3.85l.87,3.43-5.13-4.44a.82.82,0,0,0-.36-.18.77.77,0,0,0-.8.32l-3.53,5.16a3.52,3.52,0,0,0-1-.36Zm2.38,11.65a.76.76,0,0,0-.73-.54h-.57c-1.07,0-1.72-1.27-1.94-2.35-.32-1.51,0-2.95.79-3.28l0,0c.17.06.38.17.53.24l.44.2a.65.65,0,0,0,.21.06.65.65,0,0,0,.31,0,.79.79,0,0,0,.31-.17.64.64,0,0,0,.13-.15l3.41-5L21.72,18a.76.76,0,0,0,1,0,.78.78,0,0,0,.25-.8L22,13.56l5.46,4.19.09.06a.82.82,0,0,0,.3.1.93.93,0,0,0,.33,0l.09,0,.49-.25.5-.24c.75.3,1.12,1.62.87,3.1-.22,1.27-.92,2.54-2,2.54h-.57a.76.76,0,0,0-.73.55,12.21,12.21,0,0,1-2.72,5l-.1.12a6.3,6.3,0,0,1-8.78,0l-.1-.12a12.21,12.21,0,0,1-2.72-5Zm11.47,7.17v1l-4.26,8.13-4.26-8.13v-1a7.78,7.78,0,0,0,8.52,0ZM35.62,44.08A2.59,2.59,0,0,1,33,46.66s-21.81.19-28.55,0c-2-.06-1.92-2.23-1.92-2.23l0-3.16c0-1.66,2.51-3.54,4.41-4.38.8-.43,1.7-.83,2.62-1.24a26.41,26.41,0,0,0,4.76-2.52L19,41.88a.77.77,0,0,0,.68.41.75.75,0,0,0,.68-.41L25,33.12a26.75,26.75,0,0,0,4.76,2.52c3.17,1.42,5.91,2.64,5.91,5.1Z"/></g></g></svg>