<svg xmlns="http://www.w3.org/2000/svg" viewBox="0 0 413.85 391.34"><defs><style>.cls-1{fill:#a9daf6;}.cls-12,.cls-2{fill:#fff;}.cls-3,.cls-5{fill:none;}.cls-3{stroke:#fff;stroke-width:4.23px;}.cls-12,.cls-3,.cls-5{stroke-miterlimit:10;}.cls-4{fill:#2b5790;}.cls-5{stroke:#356eb6;stroke-width:8.73px;stroke-dasharray:13.1 13.1;}.cls-6{fill:#5d8cc9;}.cls-7{fill:#81aada;}.cls-8{fill:#245baa;}.cls-9{fill:#144ea1;}.cls-10{fill:#2d64b0;}.cls-11{fill:#356eb6;}.cls-12{stroke:#5d8cc9;stroke-width:6.34px;}.cls-13{fill:#4076bb;}.cls-14{fill:#0e0d0d;}.cls-15{fill:#e0780f;}.cls-16{fill:#922c22;}.cls-17{fill:#eaac64;}.cls-18{fill:#06747b;}.cls-19{fill:#005257;}.cls-20{fill:#ab5427;}.cls-21{fill:#f0a191;}.cls-22{fill:#99bae2;}.cls-23{fill:#e9816a;}</style></defs><g id="small"><g id="Group_5780" data-name="Group 5780"><g id="window"><rect id="Rectangle_3232" data-name="Rectangle 3232" class="cls-1" x="70.94" y="80.59" width="260.32" height="259.32"/></g><circle id="Ellipse_2053" data-name="Ellipse 2053" class="cls-1" cx="231.53" cy="33.06" r="4.31"/><circle id="Ellipse_2055" data-name="Ellipse 2055" class="cls-2" cx="258.77" cy="114.56" r="2.26"/><circle id="Ellipse_2057" data-name="Ellipse 2057" class="cls-1" cx="57.98" cy="200.99" r="4.31"/><g id="Group_5747" data-name="Group 5747"><path id="Path_41560" data-name="Path 41560" class="cls-2" d="M212.21,117.05h0a.75.75,0,0,1-.75-.75v-8a.75.75,0,0,1,.75-.75h0a.75.75,0,0,1,.74.75v8A.75.75,0,0,1,212.21,117.05Z"/><path id="Path_41561" data-name="Path 41561" class="cls-2" d="M207.46,112.3h0a.75.75,0,0,1,.75-.75h8a.75.75,0,0,1,.74.75h0a.75.75,0,0,1-.74.75h-8A.75.75,0,0,1,207.46,112.3Z"/></g><g id="Group_5748" data-name="Group 5748"><path id="Path_41562" data-name="Path 41562" class="cls-2" d="M204.07,222.39h0a.74.74,0,0,1-.74-.74v-8a.74.74,0,0,1,.74-.75h0a.75.75,0,0,1,.75.75v8A.75.75,0,0,1,204.07,222.39Z"/><path id="Path_41563" data-name="Path 41563" class="cls-2" d="M199.33,217.65h0a.74.74,0,0,1,.74-.75h8a.74.74,0,0,1,.75.75h0a.74.74,0,0,1-.75.74h-8A.74.74,0,0,1,199.33,217.65Z"/></g><circle id="Ellipse_2058" data-name="Ellipse 2058" class="cls-3" cx="137.5" cy="162.69" r="2.39"/><g id="Group_5779" data-name="Group 5779"><path id="shadow" class="cls-4" d="M6.59,386.21H407.27a2.21,2.21,0,0,0,2.21-2.21h0a2.21,2.21,0,0,0-2.21-2.22H6.59A2.21,2.21,0,0,0,4.37,384h0A2.21,2.21,0,0,0,6.59,386.21Z"/><g id="Group_5745" data-name="Group 5745"><circle id="Ellipse_2049" data-name="Ellipse 2049" class="cls-5" cx="142.64" cy="124.26" r="95.76"/><path id="Path_41516" data-name="Path 41516" class="cls-2" d="M166.89,118a16.87,16.87,0,0,0-32.26-8.84,11.77,11.77,0,0,0-19.62,8.8h-2.2a11.42,11.42,0,0,0-11.39,11.39h0a11.41,11.41,0,0,0,11.39,11.38h53.24a11.41,11.41,0,0,0,11.38-11.38h0A11.42,11.42,0,0,0,166.89,118Z"/><g id="Group_5722" data-name="Group 5722"><rect id="Rectangle_3238" data-name="Rectangle 3238" class="cls-6" x="79.73" y="170.35" width="79.97" height="68.49" rx="24.03"/><g id="Group_5721" data-name="Group 5721"><g id="Group_5720" data-name="Group 5720"><path id="Path_41517" data-name="Path 41517" class="cls-2" d="M143.93,211.7H95.72a2.88,2.88,0,0,1-2.87-2.87h0A2.87,2.87,0,0,1,95.72,206h48.21a2.87,2.87,0,0,1,2.87,2.86h0A2.88,2.88,0,0,1,143.93,211.7Z"/><path id="Path_41518" data-name="Path 41518" class="cls-2" d="M143.93,220.94H95.72a2.88,2.88,0,0,1-2.87-2.87h0a2.87,2.87,0,0,1,2.87-2.86h48.21a2.87,2.87,0,0,1,2.87,2.86h0A2.88,2.88,0,0,1,143.93,220.94Z"/><g id="Group_5713" data-name="Group 5713"><path id="Path_41519" data-name="Path 41519" class="cls-7" d="M104.73,218.33a1,1,0,1,1-1-1,1,1,0,0,1,1,1Z"/><path id="Path_41520" data-name="Path 41520" class="cls-7" d="M108.18,218.33a1,1,0,1,1-1-1,1,1,0,0,1,1,1Z"/><path id="Path_41521" data-name="Path 41521" class="cls-7" d="M111.65,218.33a1,1,0,1,1-1-1,1,1,0,0,1,1,1Z"/><path id="Path_41522" data-name="Path 41522" class="cls-7" d="M115.11,218.33a1,1,0,1,1-1-1,1,1,0,0,1,1,1Z"/><path id="Path_41523" data-name="Path 41523" class="cls-7" d="M118.57,218.33a1,1,0,1,1-1-1,1,1,0,0,1,1,1Z"/><path id="Path_41524" data-name="Path 41524" class="cls-7" d="M122,218.33a1,1,0,1,1-1-1,1,1,0,0,1,1,1Z"/><path id="Path_41525" data-name="Path 41525" class="cls-7" d="M125.5,218.33a1,1,0,1,1-1-1,1,1,0,0,1,1,1Z"/><path id="Path_41526" data-name="Path 41526" class="cls-7" d="M129,218.33a1,1,0,1,1-1-1,1,1,0,0,1,1,1Z"/><path id="Path_41527" data-name="Path 41527" class="cls-7" d="M132.42,218.33a1,1,0,1,1-1-1,1,1,0,0,1,1,1Z"/></g><g id="Group_5716" data-name="Group 5716"><circle id="Ellipse_2050" data-name="Ellipse 2050" class="cls-2" cx="119.84" cy="186.86" r="11.08"/><g id="Group_5715" data-name="Group 5715"><g id="Group_5714" data-name="Group 5714"><path id="Path_41528" data-name="Path 41528" class="cls-8" d="M119.86,186.41a3.52,3.52,0,0,0,2.72-1.33,3.42,3.42,0,0,0,.74-2.17,3.48,3.48,0,1,0-7,0h0a3.43,3.43,0,0,0,.75,2.17A3.53,3.53,0,0,0,119.86,186.41Z"/></g><path id="Path_41529" data-name="Path 41529" class="cls-8" d="M126,192.64c0,2.21-12.32,2.21-12.32,0v-2.57c.49-3.51,11.31-3.66,12.32,0Z"/></g></g><path id="Path_41530" data-name="Path 41530" class="cls-6" d="M98.11,217.54v-.15a1.13,1.13,0,0,0-2.26-.07v.22h-.17v2c0,.35,2.61.35,2.61,0v-2Zm-1.85-.15a.73.73,0,0,1,1.46,0v.15H96.26Zm.91,1.18v.59a.18.18,0,0,1-.19.18h0a.18.18,0,0,1-.18-.17h0v-.59a.35.35,0,0,1-.18-.3.37.37,0,0,1,.73,0v0a.35.35,0,0,1-.17.3Z"/><g id="Group_5719" data-name="Group 5719"><g id="Group_5718" data-name="Group 5718"><g id="Group_5717" data-name="Group 5717"><path id="Path_41531" data-name="Path 41531" class="cls-6" d="M97,208.63a.79.79,0,0,0,.58-.28.78.78,0,0,0,.16-.46.74.74,0,0,0-.71-.76.72.72,0,0,0-.76.7v.06a.72.72,0,0,0,.16.46A.75.75,0,0,0,97,208.63Z"/></g><path id="Path_41532" data-name="Path 41532" class="cls-6" d="M98.28,209.94c0,.47-2.61.47-2.61,0v-.54c.1-.74,2.39-.77,2.6,0Z"/></g><path id="Path_41533" data-name="Path 41533" class="cls-7" d="M113.87,209.68H103.31a.84.84,0,0,1-.84-.85h0a.84.84,0,0,1,.84-.84h10.56a.84.84,0,0,1,.84.84h0A.84.84,0,0,1,113.87,209.68Z"/><path id="Path_41534" data-name="Path 41534" class="cls-7" d="M127.81,209.68H117.24a.85.85,0,0,1-.84-.85h0a.85.85,0,0,1,.84-.84h10.57a.85.85,0,0,1,.84.84h0A.85.85,0,0,1,127.81,209.68Z"/></g></g><path id="Rectangle_3239" data-name="Rectangle 3239" class="cls-9" d="M113.78,225h9.58a2.46,2.46,0,0,1,2.46,2.45h0a2.46,2.46,0,0,1-2.46,2.46h-9.58a2.46,2.46,0,0,1-2.45-2.46h0A2.45,2.45,0,0,1,113.78,225Z"/></g></g><g id="Group_5730" data-name="Group 5730"><g id="Group_5728" data-name="Group 5728"><g id="Group_5724" data-name="Group 5724"><g id="Group_5723" data-name="Group 5723"><path id="Path_41539" data-name="Path 41539" class="cls-2" d="M44,98.09c-5.49,5.88-14.25,10.7-23.63,12.76,0,.62,0,4.1-.09,20.09-.1,21.33,20.21,31.76,23.36,33.36,3.05-1.41,23.61-11.82,23.71-33.15.07-16,.09-19.47.09-20.09C58.09,108.92,49.45,104,44,98.09Z"/></g></g><g id="Group_5727" data-name="Group 5727"><g id="Group_5725" data-name="Group 5725"><path id="Path_41540" data-name="Path 41540" class="cls-10" d="M44,102a49.85,49.85,0,0,1-21,10.92L22.85,131c0,8.27,3.25,15.75,9.77,22.24a46.88,46.88,0,0,0,11.07,8.09l.31-.16V102Z"/></g><g id="Group_5726" data-name="Group 5726"><path id="Path_41541" data-name="Path 41541" class="cls-11" d="M44,102v59.13a46.75,46.75,0,0,0,10.83-7.83c6.58-6.43,9.93-13.89,10-22.16l.08-18.07A49.9,49.9,0,0,1,44,102Z"/></g></g></g><g id="Group_5729" data-name="Group 5729"><path id="Path_41542" data-name="Path 41542" class="cls-2" d="M34.48,128v14c0,1.56,19,1.56,19,0V128ZM45,135.48v4a1,1,0,0,1-1.92,0h0v-4a2.34,2.34,0,1,1,1.92,0Z"/><path id="Path_41543" data-name="Path 41543" class="cls-2" d="M51.85,127H49.93v-.94a5.93,5.93,0,0,0-11.85,0V127H36.15v-.94a7.85,7.85,0,1,1,15.7-.35V127Z"/></g></g><g id="Group_5735" data-name="Group 5735"><g id="Group_5731" data-name="Group 5731"><rect id="Rectangle_3240" data-name="Rectangle 3240" class="cls-10" x="181.7" y="35.85" width="34.39" height="42.93"/></g><g id="Group_5732" data-name="Group 5732"><rect id="Rectangle_3241" data-name="Rectangle 3241" class="cls-12" x="186.16" y="40.28" width="34.39" height="42.93"/></g><g id="Group_5733" data-name="Group 5733"><rect id="Rectangle_3242" data-name="Rectangle 3242" class="cls-12" x="191.83" y="44.64" width="34.39" height="42.93"/></g><g id="Group_5734" data-name="Group 5734"><rect id="Rectangle_3243" data-name="Rectangle 3243" class="cls-6" x="195.95" y="49.07" width="34.39" height="42.93"/><rect id="Rectangle_3244" data-name="Rectangle 3244" class="cls-8" x="207.2" y="56.12" width="17.79" height="2.79"/><rect id="Rectangle_3245" data-name="Rectangle 3245" class="cls-8" x="201.94" y="62.68" width="23.05" height="2.79"/><rect id="Rectangle_3246" data-name="Rectangle 3246" class="cls-8" x="201.94" y="69.24" width="23.05" height="2.79"/><rect id="Rectangle_3247" data-name="Rectangle 3247" class="cls-8" x="201.94" y="75.8" width="23.05" height="2.79"/><rect id="Rectangle_3248" data-name="Rectangle 3248" class="cls-8" x="201.94" y="82.36" width="23.05" height="2.79"/></g></g><g id="Group_5738" data-name="Group 5738"><circle id="Ellipse_2051" data-name="Ellipse 2051" class="cls-2" cx="108.67" cy="29.71" r="12.15"/><g id="Group_5736" data-name="Group 5736"><path id="Path_41544" data-name="Path 41544" class="cls-8" d="M127.84,41.26a22.3,22.3,0,0,0,3-8.29l.9.14,1.79.26h0a25,25,0,0,0-.47-9.7l-2.65.66a22.43,22.43,0,0,0-3.76-8l2.2-1.64a24.82,24.82,0,0,0-7.2-6.53l-1.42,2.35a22.27,22.27,0,0,0-8.28-3l.4-2.71a25,25,0,0,0-9.7.47L103.3,8a22.43,22.43,0,0,0-8,3.76L93.7,9.54a24.82,24.82,0,0,0-6.53,7.2l2.35,1.42a22.27,22.27,0,0,0-3,8.28l-1.92-.28-.78-.11h0a25,25,0,0,0,.47,9.7L87,35.08a22.31,22.31,0,0,0,3.76,8l-2.2,1.63a25.08,25.08,0,0,0,7.19,6.54l1.42-2.36a22.34,22.34,0,0,0,8.29,3l-.31,2.1-.09.6a25,25,0,0,0,9.7-.47l-.66-2.66a22.78,22.78,0,0,0,8-3.76l1.63,2.2a25.05,25.05,0,0,0,6.53-7.19ZM102.4,40.11A12.15,12.15,0,1,1,119.07,36a12.15,12.15,0,0,1-16.67,4.14Z"/></g><g id="Group_5737" data-name="Group 5737"><path id="Path_41545" data-name="Path 41545" class="cls-9" d="M81.94,37.66a13.54,13.54,0,0,0-3.78-3.8l.31-.47.61-.91h0a15.18,15.18,0,0,0-5.46-2.28l-.33,1.63a13.62,13.62,0,0,0-5.36,0l-.32-1.64a15.14,15.14,0,0,0-5.48,2.25l.92,1.4a13.67,13.67,0,0,0-3.8,3.78l-1.38-.93a15.11,15.11,0,0,0-2.28,5.46l1.63.33a13.62,13.62,0,0,0,0,5.36l-1.64.32a15,15,0,0,0,2.25,5.47l1.4-.92A13.41,13.41,0,0,0,63,56.49l-.66,1-.27.4h0a15.29,15.29,0,0,0,5.46,2.28l.33-1.63a13.62,13.62,0,0,0,5.36,0l.33,1.64A15.15,15.15,0,0,0,79,57.92l-.93-1.4a13.58,13.58,0,0,0,3.81-3.78l1.08.72.31.21a15.45,15.45,0,0,0,2.27-5.46l-1.64-.33a13.67,13.67,0,0,0,0-5.37l1.64-.32a15.35,15.35,0,0,0-2.25-5.47ZM74.66,51.34a7.39,7.39,0,1,1,2.08-10.25,7.39,7.39,0,0,1-2.08,10.25Z"/></g></g><g id="Group_5744" data-name="Group 5744"><g id="Group_5740" data-name="Group 5740"><path id="Path_41552" data-name="Path 41552" class="cls-9" d="M225.86,142.1v-2.17a1.79,1.79,0,0,0-1.79-1.78h-19a1.78,1.78,0,0,0-1.78,1.78h0v38.38h49.15V142.1Z"/><path id="Path_41553" data-name="Path 41553" class="cls-2" d="M254.48,143.42h-48.2l-3,34.89H252.2Z"/><path id="Path_41554" data-name="Path 41554" class="cls-13" d="M252.44,178.31H203.29l5.21-34.45a2.07,2.07,0,0,1,2-1.76h45a2.07,2.07,0,0,1,2.07,2.07,1.53,1.53,0,0,1,0,.3Z"/></g><g id="Group_5743" data-name="Group 5743"><g id="Group_5741" data-name="Group 5741"><circle id="Ellipse_2052" data-name="Ellipse 2052" class="cls-8" cx="257.59" cy="143.42" r="11.26"/><path id="Path_41555" data-name="Path 41555" class="cls-2" d="M257.59,155.1a11.68,11.68,0,1,1,11.67-11.68A11.68,11.68,0,0,1,257.59,155.1Zm0-22.53a10.86,10.86,0,1,0,10.85,10.86h0a10.87,10.87,0,0,0-10.85-10.85Z"/></g><g id="Group_5742" data-name="Group 5742"><path id="Path_41556" data-name="Path 41556" class="cls-2" d="M252.17,141.39v8c0,.89,10.84.89,10.84,0v-8Zm6,4.23v2.26a.55.55,0,0,1-.55.55.55.55,0,0,1-.55-.55h0v-2.26a1.33,1.33,0,1,1,1.1,0Z"/><path id="Path_41557" data-name="Path 41557" class="cls-2" d="M262.06,140.82H261v-.54a3.38,3.38,0,0,0-6.75,0v.54h-1.1v-.54a4.47,4.47,0,1,1,8.94-.13v.67Z"/></g></g></g></g><g id="male"><g id="Group_5764" data-name="Group 5764"><g id="Group_5752" data-name="Group 5752"><path id="Path_41564" data-name="Path 41564" class="cls-14" d="M196.28,381.76h-9.36l-1-20.35h11.3Z"/><path id="Path_41565" data-name="Path 41565" class="cls-14" d="M358.93,381.76h-9.36l-1-20.35h11.29Z"/><path id="Path_41566" data-name="Path 41566" class="cls-15" d="M350.77,326.09c-1,3.2-2.16,6.49-3.39,9.86H192s-20.05-81.61,0-96.54a12.82,12.82,0,0,1,1.85-1.12c27-13.88,135.27-17.13,157.25.72l.47.4C359.69,246.85,366.73,276.52,350.77,326.09Z"/><path id="Path_41567" data-name="Path 41567" class="cls-16" d="M250.6,335.94H192.05l5.71-57.2C208,283.18,235.15,306.57,250.6,335.94Z"/><path id="Path_41568" data-name="Path 41568" class="cls-16" d="M350.77,326.09c-1,3.2-2.16,6.49-3.39,9.86H291c9.7-18,33.24-45.26,56.09-57.8Z"/><path id="Path_41569" data-name="Path 41569" class="cls-15" d="M370.23,278H348.69a7.21,7.21,0,0,0-7.15,6.27l-6.87,51.94H208.79l-6.87-51.94a7.22,7.22,0,0,0-7.16-6.27H173.22a7.22,7.22,0,0,0-7.22,7.22,6.64,6.64,0,0,0,.12,1.26l11.95,86.5H365.38l12-86.5a7.22,7.22,0,0,0-5.84-8.37A7.69,7.69,0,0,0,370.23,278Z"/><g id="Group_5751" data-name="Group 5751"><g id="Group_5750" data-name="Group 5750"><path id="Path_41570" data-name="Path 41570" class="cls-17" d="M333.41,307.8c10.14,3.39,8.16,24.85,0,28.15h-123c-9.18-2.37-10-30.76,3.29-28.62C294.79,322.56,298.72,298.25,333.41,307.8Z"/></g></g></g><g id="Group_5763" data-name="Group 5763"><path id="Path_41571" data-name="Path 41571" class="cls-18" d="M239.69,286a113.68,113.68,0,0,0,.86,15.32h57.66l3.41-56.3c-3.43-20.56-12.8-25.54-27.64-25.54-13.28,0-22.13,10.83-27.5,25.33C241.83,257.39,239.78,272.65,239.69,286Z"/><path id="Path_41572" data-name="Path 41572" class="cls-19" d="M239.69,287.13l20.87-1.26c-11.59-3.79-12.51-21.57-.73-32.63l-13.35-8.38C241.83,257.39,239.78,273.74,239.69,287.13Z"/><path id="Path_41573" data-name="Path 41573" class="cls-14" d="M235.72,313h79.21V286H243.58Z"/><g id="Group_5755" data-name="Group 5755"><g id="Group_5753" data-name="Group 5753"><path id="Path_41574" data-name="Path 41574" class="cls-14" d="M325.06,304.44l-21.28,77.32H287.19c5.25-32.9,4.08-54.29,9-81.61C300.54,277.72,330.22,283.66,325.06,304.44Z"/></g><g id="Group_5754" data-name="Group 5754"><path id="Path_41575" data-name="Path 41575" class="cls-20" d="M297.82,381.76v-.15a10.38,10.38,0,0,1,20.76-.21v.36Z"/><path id="Path_41576" data-name="Path 41576" class="cls-20" d="M310.2,371.42l-3.78-1.15c-2.49-4.9-13.1-4.29-11.63,1.67-4.16.62-6.35-1.46-6.35-1.46l-1.25,11.28h22.5Z"/></g></g><g id="Group_5758" data-name="Group 5758"><g id="Group_5756" data-name="Group 5756"><path id="Path_41577" data-name="Path 41577" class="cls-14" d="M231.63,304.44l21.28,77.32H269.5c-5.26-32.9-4.08-54.29-9-81.61C256.15,277.72,226.47,283.66,231.63,304.44Z"/></g><g id="Group_5757" data-name="Group 5757"><path id="Path_41578" data-name="Path 41578" class="cls-20" d="M258.86,381.76v-.15a10.38,10.38,0,1,0-20.75-.21v.36Z"/><path id="Path_41579" data-name="Path 41579" class="cls-20" d="M246.49,371.42l3.77-1.15c2.49-4.9,13.11-4.29,11.63,1.67,4.17.62,6.36-1.46,6.36-1.46l1.25,11.28H247Z"/></g></g><path id="Path_41580" data-name="Path 41580" class="cls-18" d="M265.1,221.33c7.78,4.72,8.89,18.74,4.9,24.33L247.8,262.2l22.6,11.64-3.67,12s-23.6-1.92-35.15-13.77C220.49,260.73,247.53,227.31,265.1,221.33Z"/><path id="Path_41581" data-name="Path 41581" class="cls-18" d="M280.88,242.6c-6.66-8.36-2.06-21.27,6.43-20.89,27.63,9.72,36.16,36.73,27.4,48.86C307.21,281,274.22,285,274.22,285V273.58l22.93-4.95S285.33,250.32,280.88,242.6Z"/><g id="Group_5760" data-name="Group 5760"><path id="Path_41582" data-name="Path 41582" class="cls-21" d="M256.67,282.07a8.75,8.75,0,0,1,7.53-9.61c10-1.82,13.63,3.67,14.58,7.6a1.66,1.66,0,0,1-1.27,2l-.27,0a1.69,1.69,0,0,1-1.61-1.36,3.91,3.91,0,0,0-1.75-2.7c1,2,.6,4.06-2.22,4.06Z"/><g id="Group_5759" data-name="Group 5759"><path id="Path_41583" data-name="Path 41583" class="cls-22" d="M279.27,282.06l7.88-39.5h1.67L280.29,286H256.68l-2.58-4Z"/><path id="Path_41584" data-name="Path 41584" class="cls-2" d="M288.82,242.56h58.62L338.77,286H280.3Z"/></g></g><g id="Group_5762" data-name="Group 5762"><g id="Group_5761" data-name="Group 5761"><path id="Path_41585" data-name="Path 41585" class="cls-21" d="M271.73,224.16c0,4.49,13.47,7.48,17.88,2.75a5.09,5.09,0,0,0,1.3-2.67l2.53-11.38-16.09-6.07-.48,1.49Z"/><path id="Path_41586" data-name="Path 41586" class="cls-23" d="M290.91,224.25l2.54-11.39-15.23-4.1C274.28,220.49,288.34,229.86,290.91,224.25Z"/></g><path id="Path_41587" data-name="Path 41587" class="cls-21" d="M276.16,202.42c-.84,11.19,8,21,15.42,21.54s17.63-7.79,18.48-19-6.05-20.84-15.41-21.55S277,191.23,276.16,202.42Z"/><path id="Path_41588" data-name="Path 41588" class="cls-14" d="M288.57,184.29c10.26-6.5,15.91-.39,21,6.09,3.58,4.55,6.12,7.82,10.58,8.5-8.58,10.83-25.75,3.69-31.16-7.16-.53,6.17-7.81,11.29-12.85,10.7C274.53,195.55,279.29,181.65,288.57,184.29Z"/><circle id="Ellipse_2059" data-name="Ellipse 2059" class="cls-21" cx="278.12" cy="202.57" r="4.47"/></g></g></g></g></g></g></g></svg>