<svg id="圖層_1" data-name="圖層 1" xmlns="http://www.w3.org/2000/svg" xmlns:xlink="http://www.w3.org/1999/xlink" viewBox="0 0 76.7 51.08"><defs><style>.cls-1{fill:none;}.cls-2{clip-path:url(#clip-path);}.cls-3{fill:#f6c352;}.cls-4{fill:#e4f1f4;}.cls-5{fill:#0c7d94;stroke:#0c7d94;stroke-width:1.5px;}</style><clipPath id="clip-path"><rect class="cls-1" x="-2.64" y="-2.5" width="80" height="53"/></clipPath></defs><g class="cls-2"><g id="Mask_Group_1" data-name="Mask Group 1"><g id="Group_5637" data-name="Group 5637"><g id="Group_4724" data-name="Group 4724"><path id="Path_41098" data-name="Path 41098" class="cls-3" d="M56.65,19.37H17.79c-2.56,0-5.33,2.38-6.16,5.29L5.31,46.87c-.82,2.9.59,5.29,3.16,5.29H47.32c2.57,0,5.33-2.39,6.16-5.29L59.8,24.66C60.62,21.75,59.21,19.37,56.65,19.37Z"/></g><g id="Group_4725" data-name="Group 4725"><path id="Path_41099" data-name="Path 41099" class="cls-3" d="M5.49,13.29a1.71,1.71,0,0,1,1.82-1.42H35.94A2.36,2.36,0,0,0,38.3,9.51V7a1.72,1.72,0,0,1,1.82-1.43H51.85A1.72,1.72,0,0,1,53.67,7V9.47a2.36,2.36,0,0,0,4.72.1v-.1h0V7A6.37,6.37,0,0,0,51.85.84H40.12A6.37,6.37,0,0,0,33.58,7v.15H7.31A6.38,6.38,0,0,0,.76,13.29V37.82a2.37,2.37,0,1,0,4.73,0Z"/></g><circle id="Ellipse_71" data-name="Ellipse 71" class="cls-4" cx="59.46" cy="31.54" r="15.84"/></g><g id="Group_4654" data-name="Group 4654"><g id="Group_4652" data-name="Group 4652"><path id="Path_41076" data-name="Path 41076" class="cls-5" d="M51.33,36.1a.89.89,0,0,1-.49-1.17.92.92,0,0,1,.48-.49L67.2,27.7a.91.91,0,0,1,1.2.44A.9.9,0,0,1,68,29.33l-.06,0L52,36.1A.92.92,0,0,1,51.33,36.1Z"/></g><g id="Group_4653" data-name="Group 4653"><path id="Path_41077" data-name="Path 41077" class="cls-5" d="M62.65,40.67a.87.87,0,0,1-.5-.48L55.41,24.31a.9.9,0,0,1,1.66-.7l6.74,15.88a.9.9,0,0,1-.48,1.18A.89.89,0,0,1,62.65,40.67Z"/></g></g></g></g></svg>