<svg xmlns="http://www.w3.org/2000/svg" width="209.243" height="150.585" viewBox="0 0 209.243 150.585">
  <g id="image_blueberrybg" transform="translate(-58.28 -105.64)" style="mix-blend-mode: normal;isolation: isolate">
    <g id="圖層_1" data-name="圖層 1" transform="translate(58.28 105.64)">
      <path id="Path_17397" data-name="Path 17397" d="M429.137,278.469H400.78V156.71l28.357.6Z" transform="translate(-243.777 -127.883)" fill="#81d8ef"/>
      <path id="Path_17398" data-name="Path 17398" d="M387.765,278.469H376.75V157.9l11.015-1.192Z" transform="translate(-230.762 -127.883)" fill="#d7f9ff"/>
      <path id="Path_17399" data-name="Path 17399" d="M350.137,314.463H321.78V213.17l28.357.458Z" transform="translate(-200.991 -163.878)" fill="#81d8ef"/>
      <path id="Path_17400" data-name="Path 17400" d="M308.765,314.463H297.75V216.145l11.015-2.975Z" transform="translate(-187.976 -163.878)" fill="#d7f9ff"/>
      <path id="Path_17401" data-name="Path 17401" d="M273.9,365.18H245.54V306.83l28.357.261Z" transform="translate(-159.699 -214.604)" fill="#81d8ef"/>
      <path id="Path_17402" data-name="Path 17402" d="M232.531,365.18H221.52V308.54l11.011-1.71Z" transform="translate(-146.69 -214.604)" fill="#d7f9ff"/>
      <path id="Path_17403" data-name="Path 17403" d="M194.937,398.6H166.58V368.54l28.357.138Z" transform="translate(-116.935 -248.026)" fill="#81d8ef"/>
      <path id="Path_17404" data-name="Path 17404" d="M153.565,398.6H142.55V370.016l11.015-1.476Z" transform="translate(-103.92 -248.026)" fill="#d7f9ff"/>
      <path id="Path_17405" data-name="Path 17405" d="M117.677,414.731H89.32V398.32l28.357.073Z" transform="translate(-75.091 -264.155)" fill="#81d8ef"/>
      <path id="Path_17406" data-name="Path 17406" d="M76.311,414.731H65.3V399.723l11.011-1.4Z" transform="translate(-62.082 -264.155)" fill="#d7f9ff"/>
      <g id="Group_29751" data-name="Group 29751" transform="translate(96.352 88.165)">
        <g id="Group_29747" data-name="Group 29747" transform="translate(0 57.493)">
          <path id="Path_17407" data-name="Path 17407" d="M286.917,423.39h67.046v4.662H286.917a.919.919,0,0,1-.917-.917v-2.828A.919.919,0,0,1,286.917,423.39Z" transform="translate(-285.973 -423.39)" fill="#f8fbfc" opacity="0.44"/>
          <path id="Path_17408" data-name="Path 17408" d="M286.857,423.39H353.9v4.919H286.857a.919.919,0,0,1-.917-.917v-3.085A.919.919,0,0,1,286.857,423.39Z" transform="translate(-285.94 -423.39)" fill="#f8fbfc"/>
          <path id="Path_17409" data-name="Path 17409" d="M.917,0h33.5V4.919H.917A.919.919,0,0,1,0,4V.917A.919.919,0,0,1,.917,0Z" transform="translate(102.403 4.919) rotate(180)" fill="#ccc"/>
          <path id="Path_17410" data-name="Path 17410" d="M.917,0h33.5V1.05H0V.917A.919.919,0,0,1,.917,0Z" transform="translate(102.403 4.919) rotate(180)" fill="#b0b3b2"/>
          <path id="Path_17411" data-name="Path 17411" d="M.917,0h33.5V1.05H0V.917A.92.92,0,0,1,.917,0Z" transform="translate(102.357 4.919) rotate(180)" fill="#b0b3b2"/>
          <path id="Path_17412" data-name="Path 17412" d="M285.94,431.82H353.9v1.05H286.857a.92.92,0,0,1-.917-.917v-.133Z" transform="translate(-285.94 -427.956)" fill="#cbcbcb"/>
          <path id="Path_17413" data-name="Path 17413" d="M348.19,423.39h11.13v.5a1.833,1.833,0,0,1-1.834,1.834h-7.463a1.833,1.833,0,0,1-1.834-1.834v-.5Z" transform="translate(-319.654 -423.39)" fill="#c2c2c2"/>
        </g>
        <rect id="Rectangle_21457" data-name="Rectangle 21457" width="74.628" height="57.493" rx="7.33" transform="translate(30.653 0.064)" fill="#d4d7d8"/>
        <rect id="Rectangle_21458" data-name="Rectangle 21458" width="74.628" height="57.493" rx="7.33" transform="translate(28.536)" fill="#303030"/>
        <rect id="Rectangle_21459" data-name="Rectangle 21459" width="66.446" height="48.141" transform="translate(32.547 4.74)" fill="#fff"/>
        <g id="Group_29750" data-name="Group 29750" transform="translate(35.182 13.729)">
          <g id="Group_29748" data-name="Group 29748">
            <rect id="Rectangle_21462" data-name="Rectangle 21462" width="13.009" height="1.517" transform="translate(48.233)" fill="#0089d1"/>
            <rect id="Rectangle_21464" data-name="Rectangle 21464" width="24.181" height="1.517" transform="translate(37.231 12.386)" fill="#0089d1"/>
            <rect id="Rectangle_21465" data-name="Rectangle 21465" width="24.181" height="1.517" transform="translate(0 15.398)" fill="#b2b2b2"/>
            <rect id="Rectangle_21468" data-name="Rectangle 21468" width="6.949" height="1.517" transform="translate(0 9.37)" fill="#b2b2b2"/>
            <rect id="Rectangle_21469" data-name="Rectangle 21469" width="11.625" height="1.517" transform="translate(49.608 3.016)" fill="#0089d1"/>
            <rect id="Rectangle_21470" data-name="Rectangle 21470" width="42.292" height="1.517" transform="translate(18.895 6.033)" fill="#0089d1"/>
            <rect id="Rectangle_21473" data-name="Rectangle 21473" width="21.71" height="1.517" transform="translate(39.524 18.304)" fill="#0089d1"/>
          </g>
          <g id="Group_29749" data-name="Group 29749" transform="translate(0 21.77)">
            <rect id="Rectangle_21475" data-name="Rectangle 21475" width="24.181" height="1.517" transform="translate(36.773 6.033)" fill="#0089d1"/>
            <rect id="Rectangle_21477" data-name="Rectangle 21477" width="6.949" height="1.517" fill="#b2b2b2"/>
            <rect id="Rectangle_21478" data-name="Rectangle 21478" width="12.927" height="1.517" transform="translate(0 3.016)" fill="#b2b2b2"/>
            <rect id="Rectangle_21480" data-name="Rectangle 21480" width="21.71" height="1.517" transform="translate(39.065 8.934)" fill="#0089d1"/>
          </g>
        </g>
        <path id="Path_17414" data-name="Path 17414" d="M470.78,360.86H444.44l26.34-44.41Z" transform="translate(-371.783 -307.979)" fill="#d0d0d0" opacity="0.45"/>
      </g>
      <g id="Group_29777" data-name="Group 29777" transform="translate(8.558 16.429)">
        <g id="Group_29752" data-name="Group 29752" transform="translate(48.633 57.988)">
          <path id="Path_17415" data-name="Path 17415" d="M183.655,269.2c.738-1.045,1.907-.124,3.323.284s7.385,2.054,12.1-1.508c.743.811,1.256,1.4,2.072,2.214-4.5,4.162-11.442,5.492-16.915,2.269-1.664-.981-1.316-2.214-.573-3.259Z" transform="translate(-183.042 -267.98)" fill="#f5e5d4"/>
          <path id="Path_17416" data-name="Path 17416" d="M183.655,270.081c.738-1.045,1.907-.124,3.323.284s1.792,3.378,5.093,4.726a13.244,13.244,0,0,1-7.839-1.751c-1.664-.981-1.316-2.214-.573-3.259Z" transform="translate(-183.042 -268.857)" fill="#989898" opacity="0.2" style="mix-blend-mode: multiply;isolation: isolate"/>
        </g>
        <g id="Group_29753" data-name="Group 29753" transform="translate(47.757 55.965)">
          <path id="Path_17417" data-name="Path 17417" d="M183.88,265.427a.225.225,0,0,0-.142-.073l-.1-.014h-.018a2.148,2.148,0,0,0-1.132.674,5.744,5.744,0,0,0-.642,1.458c-.142.5-.348,1.141-.573,1.774-.05.133-.1.266-.147.394a7.768,7.768,0,0,1,1.779,1.618c.018-.105,0-.183.014-.289.023-.124.041-.243.069-.367h0c.014-.069.027-.138.037-.206a.333.333,0,0,0,.037-.041.11.11,0,0,0,0-.133c-.055-.069-.023-.293.037-.536.078-.316.2-.674.22-.793.087-.445.179-.885.27-1.325.078-.38.619-1.792.289-2.136Z" transform="translate(-181.13 -264.527)" fill="#d98b5b"/>
          <path id="Path_17418" data-name="Path 17418" d="M186.371,267.093a1.638,1.638,0,0,0,.371-.683,1.151,1.151,0,0,0-.073-.541c-.023-.083-.05-.165-.069-.248a.818.818,0,0,1,0-.408,1.432,1.432,0,0,1,.083-.225c.037-.078.078-.156.11-.234a1.05,1.05,0,0,0,.105-.408,1.5,1.5,0,0,0-.183-.711.143.143,0,0,0-.179-.06c-.463.2-.921.417-1.366.655-.092.05-.183.1-.28.151-.009,0-.014,0-.018.014-.055.027-.11.06-.17.092-.083.046-.06.124,0,.17-.949,1.1-1.013,2.572-1.164,3.915,0,.032-.009.064-.009.1a2.824,2.824,0,0,1-.046.284,1.133,1.133,0,0,0,0,.619,1.207,1.207,0,0,0,.261.284h0a.377.377,0,0,1,.06.032c.028.014.06.027.1.046.073.027.156.055.257.083a.5.5,0,0,0,.078.023c.458.11,1.073.16,1.3-.073.147-.16.023-.234.023-.394a.541.541,0,0,1,.156-.44,2.434,2.434,0,0,0,.325-.312.556.556,0,0,0,.124-.376c0-.179-.156-.293-.2-.481a.436.436,0,0,1-.014-.115.538.538,0,0,1,.018-.124,2.081,2.081,0,0,1,.39-.614Z" transform="translate(-182.378 -263.567)" fill="#d98b5b"/>
          <path id="Path_17419" data-name="Path 17419" d="M183.633,266.444c-.3,1.526.518.967,1.1,2.04a1.157,1.157,0,0,0-.018.124.315.315,0,0,0,.014.115c.234.293.435.747-.248,1.169a.541.541,0,0,0-.156.44c0,.16.124.238-.023.394-.229.234-.843.188-1.3.073-.009.142.014.261.009.39A11.967,11.967,0,0,0,181.2,269.5h0a.792.792,0,0,0-.073-.046c.046-.128.1-.261.147-.394.165-.472.637-1.989.949-2.755.124.027.481-.248,1.064.536.156-.7.206-.967.335-1.673v-.014h.018l.28-.151c-.014.078-.028.16-.041.243-.018.105-.041.206-.064.312a14.414,14.414,0,0,1,1.724-.027l-.11.234a13.372,13.372,0,0,0-1.659.037c-.028.138-.06.275-.087.413.559.037,1.118.1,1.669.183.018.087.046.165.069.248-.587-.092-1.183-.16-1.779-.2h-.014Z" transform="translate(-181.13 -264.343)" fill="#b0602f"/>
        </g>
        <g id="Group_29758" data-name="Group 29758" transform="translate(15.543 56.09)">
          <path id="Path_17420" data-name="Path 17420" d="M132.006,307.343c.064,1.4,2.778,9.626,1.123,10.057-1.041.545-1.76.481-5.4.853-1.325.133-.293,2.017.963,2.471a17.855,17.855,0,0,0,6.959,1.206c3.126.023,5.528-8.283,5.23-11.74-.3-3.479-3.131-6.7-5.73-6.184-1.183.234-3.227,1.412-3.14,3.337Z" transform="translate(-119.66 -285.564)" fill="#f5e5d4"/>
          <g id="Group_29754" data-name="Group 29754" transform="translate(5.627 32.56)">
            <path id="Path_17421" data-name="Path 17421" d="M125.851,335a2.15,2.15,0,0,0,1.114,2.462s-.041,2.86-1.912,3.039c-.234.023-.431.041-.6.055l-.527-5.482a2.528,2.528,0,0,1,1.082-.206c.788,0,.839.128.839.128Z" transform="translate(-123.563 -334.87)" fill="#9e968d"/>
            <path id="Path_17422" data-name="Path 17422" d="M124.019,340.813l-.362.037-.527-5.492.367-.028.527,5.483Z" transform="translate(-123.13 -335.119)" fill="#717071"/>
            <path id="Path_17423" data-name="Path 17423" d="M129.132,341.95s-.431-.252-.747-.426c-.266-.142-.119-.38.156-.275a3.02,3.02,0,0,1,.821.509c.119.156-.037.312-.229.2Z" transform="translate(-125.9 -338.311)" fill="#fff"/>
            <path id="Path_17424" data-name="Path 17424" d="M128.7,343.47s-.431-.252-.747-.426c-.266-.142-.119-.38.156-.275a3.02,3.02,0,0,1,.821.509c.119.156-.037.312-.229.2Z" transform="translate(-125.667 -339.134)" fill="#fff"/>
          </g>
          <g id="Group_29755" data-name="Group 29755" transform="translate(11.233)">
            <path id="Path_17425" data-name="Path 17425" d="M160.119,304.485l-.445,1.989c-.793,3.543-3.589,4.992-6.665,5.244a30.783,30.783,0,0,1-7.114-.811,27.811,27.811,0,0,1-6.569-2.255c-2.553-1.705-4.584-4.043-3.791-7.591l.417-1.87c1.71,1.449,5.033,3.282,11.492,4.726,6.7,1.5,10.552,1.174,12.679.559Z" transform="translate(-135.36 -282.985)" fill="#b2f9e4"/>
            <path id="Path_17426" data-name="Path 17426" d="M145.588,264.431c2.929-1.229,12.638-.756,14.22,3.461s1,17.451,1,17.451c-2.127.61-5.982.94-12.679-.559-6.454-1.449-9.778-3.282-11.492-4.726,0,0,6.014-14.394,8.943-15.622Z" transform="translate(-136.053 -263.84)" fill="#d98b5b"/>
          </g>
          <path id="Path_17427" data-name="Path 17427" d="M176.851,323.23c-.683,4.387-1.49,11.368-1.591,14.866-.027.963-2.058,2.132-2.223,1.54a111.9,111.9,0,0,1-3.507-19.487c1.843.225,9.342,2.938,7.316,3.08Z" transform="translate(-142.634 -294.337)" fill="#f5e5d4"/>
          <g id="Group_29756" data-name="Group 29756" transform="translate(30.277 43.087)">
            <path id="Path_17428" data-name="Path 17428" d="M176.957,359.99a2.245,2.245,0,0,0,2.324-1.609s2.952-.5,3.488,1.4c.069.234.124.436.17.605l-5.547,1.572a2.678,2.678,0,0,1-.417-1.073c-.147-.811-.023-.889-.023-.889Z" transform="translate(-176.904 -358.098)" fill="#9e968d"/>
            <path id="Path_17429" data-name="Path 17429" d="M183.532,362.8l.105.367-5.551,1.572-.1-.371,5.547-1.572Z" transform="translate(-177.492 -360.523)" fill="#717071"/>
            <path id="Path_17430" data-name="Path 17430" d="M183.776,358.093s-.179.491-.3.853c-.1.3-.371.2-.316-.11a3.282,3.282,0,0,1,.367-.94c.133-.147.325-.018.243.2Z" transform="translate(-180.289 -357.833)" fill="#fff"/>
            <path id="Path_17431" data-name="Path 17431" d="M185.416,358.243s-.179.49-.3.853c-.1.3-.371.2-.316-.11a3.283,3.283,0,0,1,.367-.94c.133-.147.325-.018.243.2Z" transform="translate(-181.177 -357.914)" fill="#fff"/>
          </g>
          <g id="Group_29757" data-name="Group 29757" transform="translate(0 13.619)">
            <path id="Path_17432" data-name="Path 17432" d="M110.963,307.48a9.649,9.649,0,0,0,3.2,1.944c.229.073.435.16.633.243a4.619,4.619,0,0,0,1.866.532,10.723,10.723,0,0,1,2.9.715,6.361,6.361,0,0,0,1.031.513,23.526,23.526,0,0,0,2.494.752c2.342.623,4.749,1.091,7.105,1.691.843.215,1.71.321,2.567.458a5.905,5.905,0,0,0,2.012.229.134.134,0,0,0,.046-.014l.266.041c.128.023.257.041.385.064,3.241.509,5.262.816,8.517,1.109q.206.021.413.027c.133.009.257.009.385.014a9.458,9.458,0,0,0,2.246-.335c.073-.014.147-.023.22-.037a10.838,10.838,0,0,0,2.5.39,5.031,5.031,0,0,0,1.054-.1c1.641-.3,2.154-1.572,2.957-2.136.477-.335.078-1.229-.39-2.269q-.536-1.19-1.1-2.37c-.738-1.545-.656-1.87-1.481-3.406-.807-1.5-1.174-3.314-2.132-4.79-.481-.738-.413-1.682-1.435-2.32l-.174-.105c-.023-.032-.046-.069-.073-.1,0-.009-.009-.018-.014-.027a2.2,2.2,0,0,0-.619-.582c-.5-.284-1.251-.463-1.792-.738-.431-.215-.834-.449-1.274-.651a8.56,8.56,0,0,0-4.717-.651,8.508,8.508,0,0,1-5.666-1,8.566,8.566,0,0,0-4.657-1c-.486.041-.949.119-1.421.174-.6.069-1.371-.018-1.939.078a2.153,2.153,0,0,0-.908.426.068.068,0,0,0-.032,0c-.069.014-.138.023-.206.041-.156.032-.312.073-.458.119-.963.3-1.394,1.229-1.994,1.682-1.407,1.059-2.077,1.843-3.346,2.975-1.3,1.16-2.764,3.1-3.988,4.3-.623.614-1.242,1.229-1.847,1.852-.8.816-1.549,1.87-1.119,2.26Z" transform="translate(-110.856 -293.549)" fill="#d98b5b"/>
            <path id="Path_17433" data-name="Path 17433" d="M138.385,295.17c.124.037.243.069.367.1.839.229,1.682.44,2.526.651a66.459,66.459,0,0,0,7.293,1.467c2.365.316,4.8.248,7.146.8a33.188,33.188,0,0,0,3.232.779,14.644,14.644,0,0,0,2.677.1h.05a.2.2,0,0,1-.032.028,1.091,1.091,0,0,1,.073.1l.174.105c-.316.014-.633.023-.949.018h0c-.44,0-.876-.023-1.316-.06a4.706,4.706,0,0,1,1.1,2.246,19.486,19.486,0,0,1,.651,3.163c.018.156-.367.156-.385,0a18.819,18.819,0,0,0-.523-2.709,4.832,4.832,0,0,0-1.284-2.714.07.07,0,0,1-.023-.032,14.593,14.593,0,0,1-2.26-.449,22.6,22.6,0,0,0-4.419-.779c-.564-.046-1.128-.083-1.687-.128a.152.152,0,0,1,.078.083,7.084,7.084,0,0,1,.009,2.265c-.05.857-.1,1.719-.151,2.576-.009.156-.4.087-.39-.069.046-.779.092-1.563.138-2.342a7.606,7.606,0,0,0,0-2.434c-.014-.05.018-.083.069-.1q-.578-.048-1.155-.11a31.5,31.5,0,0,1-.426,3.149c-.05.147-.44.078-.39-.069a28.527,28.527,0,0,0,.422-3.122.627.627,0,0,1-.087-.009,57.807,57.807,0,0,1-6.184-1.155.066.066,0,0,1-.018.046c-.234.289-.472.578-.706.871-.105.128-.472,0-.362-.128.234-.289.472-.578.706-.871a.014.014,0,0,0,.009,0c-.435-.105-.871-.211-1.3-.321-.394-.1-.793-.2-1.187-.3-.646-.165-1.3-.335-1.934-.523.147-.046.3-.087.458-.119Z" transform="translate(-125.524 -294.427)" fill="#b0602f"/>
            <path id="Path_17434" data-name="Path 17434" d="M189.28,319.759v.032a9.6,9.6,0,0,0,.289,2.2c.188.729.119,1.453.275,2.182.16.756-.073,1.471.083,2.223.147.7-.312,1.265-.128,1.962.115.431-.284.839-.3,1.247.073-.014.147-.023.22-.037a10.839,10.839,0,0,0,2.5.39,5.029,5.029,0,0,0,1.054-.1c-.165-.174-.344-.348-.527-.523a7.18,7.18,0,0,1-1.467-1.627,4.165,4.165,0,0,1-.307-1.641,27.189,27.189,0,0,0-1.306-6.276c-.046-.133-.39-.183-.385-.037Z" transform="translate(-153.33 -307.694)" fill="#b0602f"/>
            <path id="Path_17435" data-name="Path 17435" d="M119.44,315.528a4.62,4.62,0,0,0,1.866.532,10.722,10.722,0,0,1,2.9.715,6.366,6.366,0,0,0,1.031.513c.06-.229.115-.458.174-.683a7.5,7.5,0,0,1,1.027-2.576,4.623,4.623,0,0,0,.976-2.2,5.932,5.932,0,0,1,1.086-2.407,22.822,22.822,0,0,0,2.329-4.9c.05-.142-.28-.2-.376-.1a14.317,14.317,0,0,0-1.6,1.9c-.38.578-.646,1.192-1.059,1.756-.834,1.141-2.278,1.953-2.97,3.158a10.733,10.733,0,0,1-1.068,1.737A6.41,6.41,0,0,1,121.7,314.4c-.756.376-1.554.724-2.265,1.128Z" transform="translate(-115.505 -299.41)" fill="#b0602f"/>
            <path id="Path_17436" data-name="Path 17436" d="M163.411,323.24c.128,1.5-.44,2.915-.321,4.419.073.976.28,1.976.275,2.943.128.023.257.041.385.064a22.185,22.185,0,0,0-.229-2.553c-.183-1.669.422-3.218.284-4.873-.018-.156-.4-.16-.39,0Z" transform="translate(-139.137 -309.565)" fill="#b0602f"/>
            <path id="Path_17437" data-name="Path 17437" d="M184.585,327.521c.078,2.2-.871,4.405-.623,6.619.133.009.257.009.385.014-.248-2.191.7-4.378.623-6.56-.009-.156-.4-.225-.39-.069Z" transform="translate(-150.427 -311.903)" fill="#b0602f"/>
          </g>
          <path id="Path_17438" data-name="Path 17438" d="M143.44,283.935a6.384,6.384,0,0,1,1.444.179,71.646,71.646,0,0,0,7.431,1.737,33.267,33.267,0,0,0,3.571.28c.775.018,1.559-.018,2.338.078a14.612,14.612,0,0,1,2.136.5,26.764,26.764,0,0,0,4.2.912c0-.1,0-.188-.009-.39a40.932,40.932,0,0,1-4.992-1.064,12.783,12.783,0,0,0-3.172-.335,34.776,34.776,0,0,1-4.016-.284,64.718,64.718,0,0,1-7.247-1.7,6.426,6.426,0,0,0-1.522-.243c-.037.083-.133.261-.16.321Z" transform="translate(-128.503 -274.547)" fill="#b0602f"/>
          <path id="Path_17439" data-name="Path 17439" d="M146.85,277.278c.523.1.738.133,1.329.289a71.5,71.5,0,0,0,7.2,1.669c2.356.353,4.726.055,7.059.582,1.348.3,2.489.715,3.837.967,0-.1-.023-.266-.032-.417-1.458-.275-2.627-.669-4.094-.967-2.223-.454-4.474-.165-6.716-.5-2.379-.358-4.685-1.059-7.009-1.627-.431-.105-.7-.2-1.38-.339-.092.16-.156.275-.193.348Z" transform="translate(-130.35 -270.929)" fill="#b0602f"/>
          <path id="Path_17440" data-name="Path 17440" d="M150.1,271.665a1.088,1.088,0,0,1-.078.133c-.055.087-.119.147-.124.193a21.956,21.956,0,0,1,5.134.665A71.911,71.911,0,0,0,162.6,274.1c1.224.142,2.452.261,3.667.49.775.151.578.17,1.348.33,0-.147-.032-.206-.046-.348-.77-.16-.468-.156-1.242-.307-1.155-.22-2.32-.335-3.484-.472a66.244,66.244,0,0,1-7.014-1.3,25.023,25.023,0,0,0-4.772-.77c-.316-.032-.633-.05-.958-.064Z" transform="translate(-132.002 -268.075)" fill="#b0602f"/>
          <path id="Path_17441" data-name="Path 17441" d="M144.394,291.648c2.251.385,4.428.871,6.647,1.371a20.705,20.705,0,0,0,3.131.5,34.952,34.952,0,0,1,3.663.115c1.109.188,2.182.458,3.3.6.628.083,1.05.27,1.678.316v-.28c-.83-.069-1.559-.289-2.388-.422-1.082-.17-2.164-.5-3.25-.582-1.018-.082-2.012.032-3.035-.037a21.541,21.541,0,0,1-3.411-.573c-3.369-.784-7.023-1.559-10.433-2.136a2.442,2.442,0,0,0-.156.339c0,.014,4.254.784,4.254.784Z" transform="translate(-126.716 -278.29)" fill="#b0602f"/>
        </g>
        <ellipse id="Ellipse_319" data-name="Ellipse 319" cx="2.223" cy="5.79" rx="2.223" ry="5.79" transform="matrix(0.139, -0.99, 0.99, 0.139, 37.205, 59.378)" fill="#f5e5d4"/>
        <g id="Group_29761" data-name="Group 29761" transform="translate(22.288 58.855)">
          <g id="Group_29759" data-name="Group 29759" transform="translate(0 0.718)">
            <rect id="Rectangle_21481" data-name="Rectangle 21481" width="21.293" height="14.013" rx="4.69" transform="matrix(-0.963, -0.268, 0.268, -0.963, 20.514, 19.209)" fill="#d3d3d3"/>
            <path id="Path_17442" data-name="Path 17442" d="M148.833,291.39a1.49,1.49,0,0,0,1.829-1.031l2.961-10.64a1.49,1.49,0,0,0-1.031-1.829l-17.653-4.914a1.49,1.49,0,0,0-1.829,1.031s.4-.83,1.779-.445,17.415,4.845,17.415,4.845a1.211,1.211,0,0,1,.706,1.412c-.229.747-2.76,9.81-2.9,10.415-.252.711-1.279,1.155-1.279,1.155Z" transform="translate(-129.654 -272.242)" fill="#989898" opacity="0.29" style="mix-blend-mode: multiply;isolation: isolate"/>
            <circle id="Ellipse_320" data-name="Ellipse 320" cx="1.444" cy="1.444" r="1.444" transform="translate(10.309 8.316)" fill="#fff"/>
          </g>
          <g id="Group_29760" data-name="Group 29760" transform="translate(6.506)">
            <path id="Path_17443" data-name="Path 17443" d="M147.107,301.418c-.8.784-.656,1.174.105,2.494.376.651,1.513,1.137,3.2.793,1.215-.248.729-2.851-.05-3.649s-2.457-.422-3.255.358Z" transform="translate(-143.451 -286.521)" fill="#f5e5d4"/>
            <path id="Path_17444" data-name="Path 17444" d="M139.9,277.008a15.692,15.692,0,0,1,3.667-6.959c.853-.949,3.039,2.15,2.42,3.333a7.247,7.247,0,0,0-1.967,5.285,36.444,36.444,0,0,0,2.654,5.744c.458.248-3.117,2.755-3.562,2.086a21.293,21.293,0,0,1-2.3-4.227s-1.513-3.071-.912-5.258Z" transform="translate(-139.763 -269.872)" fill="#f5e5d4"/>
          </g>
        </g>
        <g id="Group_29764" data-name="Group 29764">
          <path id="Path_17445" data-name="Path 17445" d="M209.245,202.675a8.572,8.572,0,1,0,7.889-9.2,8.573,8.573,0,0,0-7.889,9.2Z" transform="translate(-148.589 -169.624)" fill="#6aa8c5"/>
          <path id="Path_17446" data-name="Path 17446" d="M209.245,202.674a8.572,8.572,0,0,0,15.3,4.625c-2.517-1.041.344-7.518-2.269-12.592a8.57,8.57,0,0,0-13.023,7.967Z" transform="translate(-148.589 -169.623)" fill="#5896af"/>
          <path id="Path_17447" data-name="Path 17447" d="M92.11,181.439c.037,15.191,13.372,25.854,38.978,23.516,19.028-1.737,28.765-10.626,27.376-28.632-1.187-15.389-17-26.716-35.325-25.3S92.073,166.009,92.11,181.439Z" transform="translate(-85.16 -146.583)" fill="#f5e5d4"/>
          <path id="Path_17448" data-name="Path 17448" d="M92.11,181.446c.009,4.24,3.117,11.478,3.117,11.478l21.022-1.545.972-2.961.481,2.833,1.018-.073.435-4.052,1.008,3.947L157.4,188.3s2.365-7.82,1.063-11.973c-4.625-14.724-17-26.716-35.325-25.3s-31.066,14.99-31.029,30.42Z" transform="translate(-85.16 -146.589)" fill="#e5d2c2"/>
          <path id="Path_17449" data-name="Path 17449" d="M94.572,151.515c7.995-8,19.079-9.141,20.972-9.306s16.525-3.745,29.329,6.629c15.283,12.386,9.966,33.184,9.966,33.184l-37.947,2.925-1.054-7.518-.05,7.6-1.137.087-.775-3.3-.5,3.392-14.252,1.1c.028,3.585,2.512,9.677,6.583,11.593-4.346-.486-12.615-4.447-15.48-10.905C89.071,184.932,78.895,167.646,94.572,151.515Z" transform="translate(-81.806 -141.481)" fill="#6aa8c5"/>
          <path id="Path_17450" data-name="Path 17450" d="M99.214,198.356s2.512,9.833,6.583,11.749c-4.346-.486-12.615-4.447-15.48-10.905-1.151-2.072-11.158-20.353,4.35-35.49-14.064,29.484,4.552,34.646,4.552,34.646Z" transform="translate(-81.895 -153.52)" fill="#5896af"/>
          <path id="Path_17451" data-name="Path 17451" d="M214.911,242.21a.878.878,0,1,0,.8-.963.886.886,0,0,0-.8.963Z" transform="translate(-151.665 -195.512)" fill="#3c3a39"/>
          <g id="Group_29762" data-name="Group 29762" transform="translate(23.274 24.203)">
            <path id="Path_17452" data-name="Path 17452" d="M141.771,199.088c-2.851-.83-5.57-1.247-8.343-2.333-1.5-.587-3.08-1.779-4.561-2.4-1.128-.477-.261,1.494.367,1.76.743.312,1.494.623,2.242.926-1.022.339-2.035.738-3.035,1.137-1.293.509-.688,2.21.6,1.7s2.567-1.008,3.878-1.4c-.092.027.353-.087.49-.11l.05-.009a1.305,1.305,0,0,0,.656-.266c2.769,1.073,5.57,2.058,8.407,2.883.885.257-.105-1.7-.747-1.889Z" transform="translate(-127.722 -194.278)" fill="#f4d1d5"/>
            <path id="Path_17453" data-name="Path 17453" d="M134.624,202.438a1.305,1.305,0,0,1-.656.266s-.018,0-.05.009c-.138.023-.582.138-.49.11-1.311.39-2.6.894-3.878,1.4a1.024,1.024,0,0,1-.889-.014s4.593-1.879,5.945-1.907c.092,0,.073.087.018.138" transform="translate(-128.23 -198.623)" fill="#e8b3bb"/>
            <path id="Path_17454" data-name="Path 17454" d="M129.14,195.62a2.179,2.179,0,0,0,.862,1.219c.743.312,1.669.683,2.242.926A16.533,16.533,0,0,1,129.14,195.62Z" transform="translate(-128.49 -195.005)" fill="#e8b3bb"/>
            <path id="Path_17455" data-name="Path 17455" d="M149.223,203.428c-.523-.151-.527-.16-1.045-.293a18.453,18.453,0,0,1-6.583-.839c-.105-.027-.179.115-.032.133,2.769,1.073,5.57,2.058,8.407,2.883.885.257-.105-1.7-.747-1.889Z" transform="translate(-135.174 -198.619)" fill="#e8b3bb"/>
          </g>
          <path id="Path_17456" data-name="Path 17456" d="M187.739,248.776c-.22-.825,1.692-.449,3.117-.555,1.637-.119,3.741-.811,3.548.22C193.9,251.164,188.532,251.755,187.739,248.776Z" transform="translate(-136.944 -199.108)" fill="#e38eaa"/>
          <g id="Group_29763" data-name="Group 29763" transform="translate(16.684 46.332)">
            <path id="Path_17457" data-name="Path 17457" d="M118.909,249.277c-1.581.889-5.414-.358-5.56-4.447-.083-3.158,3.062-2.375,4-1.513a9.064,9.064,0,0,1,1.215,1.426" transform="translate(-113.347 -242.553)" fill="#f5e5d4"/>
            <path id="Path_17458" data-name="Path 17458" d="M118.265,245.552s-1.279-.6-1.394,1a3.187,3.187,0,0,0,2.333,3.232,16.767,16.767,0,0,0-.5-1.692l-.853-.257.656-.656Z" transform="translate(-115.252 -244.118)" fill="#e5d2c2"/>
          </g>
          <path id="Path_17459" data-name="Path 17459" d="M76.977,209.649a9.165,9.165,0,1,0,8.435-9.842A9.165,9.165,0,0,0,76.977,209.649Z" transform="translate(-76.95 -173.055)" fill="#6aa8c5"/>
          <path id="Path_17460" data-name="Path 17460" d="M165.884,246.338a.255.255,0,0,1-.16-.133.25.25,0,0,1,.115-.339l1.16-.578-1.343-.674a.253.253,0,0,1,.225-.454l1.792.9a.244.244,0,0,1,.138.225.248.248,0,0,1-.142.225l-1.614.8a.273.273,0,0,1-.179.018Z" transform="translate(-124.917 -197.078)" fill="#3c3a39"/>
        </g>
        <g id="Group_29765" data-name="Group 29765" transform="translate(31.771 56.308)">
          <path id="Path_17461" data-name="Path 17461" d="M150.306,268.348c.092.44.183.885.27,1.325.023.119.147.477.22.793.06.243.092.468.037.536a.1.1,0,0,0,0,.133c.014.014.023.027.037.041.014.069.027.138.037.2h0c.023.128.046.248.069.371.018.1,0,.183.014.289a7.768,7.768,0,0,1,1.779-1.618c-.046-.128-.1-.261-.147-.394-.229-.628-.431-1.279-.573-1.774a5.911,5.911,0,0,0-.642-1.458,2.148,2.148,0,0,0-1.132-.674h-.018a.713.713,0,0,1-.1.018.226.226,0,0,0-.142.073c-.325.344.211,1.756.289,2.136Z" transform="translate(-148.238 -265.293)" fill="#d98b5b"/>
          <path id="Path_17462" data-name="Path 17462" d="M147.185,268.476a1.15,1.15,0,0,1,.018.124.315.315,0,0,1-.014.115c-.046.188-.193.3-.2.481a.533.533,0,0,0,.124.376,2.171,2.171,0,0,0,.325.312.541.541,0,0,1,.156.44c0,.16-.124.238.023.394.229.234.843.188,1.3.073a.505.505,0,0,0,.078-.023,1.54,1.54,0,0,0,.257-.083,1.075,1.075,0,0,0,.1-.046.38.38,0,0,0,.06-.032h0a1.207,1.207,0,0,0,.261-.284,1.133,1.133,0,0,0,0-.619c-.018-.092-.032-.188-.046-.284,0-.032-.009-.06-.009-.1-.147-1.343-.211-2.819-1.164-3.915.06-.046.083-.124,0-.17-.055-.032-.115-.064-.17-.092,0,0-.014-.009-.018-.014-.092-.055-.188-.105-.28-.151-.445-.238-.9-.454-1.366-.656a.145.145,0,0,0-.179.06,1.453,1.453,0,0,0-.183.711.976.976,0,0,0,.105.408l.11.234a1.622,1.622,0,0,1,.083.225.875.875,0,0,1,0,.408c-.018.087-.046.165-.069.248a1.212,1.212,0,0,0-.073.541,1.638,1.638,0,0,0,.371.683,1.97,1.97,0,0,1,.39.614Z" transform="translate(-146.258 -264.317)" fill="#d98b5b"/>
          <path id="Path_17463" data-name="Path 17463" d="M148.422,267.229c.133.637.275,1.27.422,1.907l-1.526.138a1.157,1.157,0,0,1,.018.124.316.316,0,0,1-.014.115c.527-.046,1.054-.1,1.581-.142.069.293.138.587.215.88a1.639,1.639,0,0,0-.16.037c-.225.06-.431.156-.651.229a4.128,4.128,0,0,1-.733.165.541.541,0,0,1,.156.44c0,.16-.124.238.023.394.229.234.843.188,1.3.073.009.142-.014.261-.009.39a11.969,11.969,0,0,1,1.806-1.692h0a.8.8,0,0,1,.073-.046c-.046-.128-.1-.261-.147-.394a5.758,5.758,0,0,1-1.018.284q-.186.041-.385.069c-.078-.307-.156-.614-.229-.921a.114.114,0,0,0-.032-.124q-.385-1.588-.688-3.2v-.014h-.018l-.28-.151c.014.078.028.16.041.243.018.105.041.206.064.312a14.421,14.421,0,0,0-1.724-.027l.11.234a13.372,13.372,0,0,1,1.659.037c.028.138.06.275.087.413-.559.037-1.118.1-1.669.183-.018.087-.046.165-.069.248.587-.092,1.183-.16,1.779-.2h.014Z" transform="translate(-146.395 -265.115)" fill="#b0602f"/>
        </g>
        <g id="Group_29776" data-name="Group 29776" transform="translate(57.081 34.596)">
          <path id="Path_17464" data-name="Path 17464" d="M221.971,266.253c-.321,1.219-2.26,1.866-3.484,1.545-.243-.064-1.875,1.118-2.086,1-.481-.27-.921-2.255-1.118-2.732-.156-.371.967-.871,1.146-1.279.646-1.494,1.6-3,4.066-2.342.394.105.573.678.848,1.045a3.587,3.587,0,0,1,.55,1.128,3.176,3.176,0,0,1,.078,1.632Z" transform="translate(-208.943 -241.504)" fill="#f7e7d6"/>
          <g id="Group_29773" data-name="Group 29773">
            <g id="Group_29772" data-name="Group 29772">
              <path id="Path_17465" data-name="Path 17465" d="M208.2,217.473a9.9,9.9,0,1,0,12.542,6.211A9.9,9.9,0,0,0,208.2,217.473Zm5.89,17.447a8.518,8.518,0,1,1,5.345-10.8A8.522,8.522,0,0,1,214.1,234.92Z" transform="translate(-201.471 -216.951)" fill="#333"/>
              <g id="Group_29771" data-name="Group 29771" transform="translate(1.384 1.382)">
                <g id="Group_29766" data-name="Group 29766" transform="translate(0 2.766)" opacity="0.3">
                  <path id="Path_17466" data-name="Path 17466" d="M219.288,226l-14.747,4.818a8.6,8.6,0,0,0,.729,4.488l16.085-5.253A8.469,8.469,0,0,0,219.292,226Z" transform="translate(-204.491 -226)" fill="#ededed"/>
                </g>
                <g id="Group_29767" data-name="Group 29767" transform="translate(0.045)" opacity="0.6">
                  <path id="Path_17467" data-name="Path 17467" d="M212.163,220.014a8.519,8.519,0,0,0-7.573,7.536l14.747-4.818a8.514,8.514,0,0,0-7.174-2.718Z" transform="translate(-204.59 -219.967)" fill="#fff"/>
                </g>
                <g id="Group_29768" data-name="Group 29768" transform="translate(0.774 6.813)" opacity="0.6">
                  <path id="Path_17468" data-name="Path 17468" d="M222.389,235.637c-.027-.275-.073-.541-.124-.807l-16.085,5.253a8.5,8.5,0,0,0,2.2,2.915l13.825-4.515A8.407,8.407,0,0,0,222.389,235.637Z" transform="translate(-206.18 -234.83)" fill="#fff"/>
                </g>
                <g id="Group_29769" data-name="Group 29769" transform="translate(5.069 12.768)" opacity="0.6">
                  <path id="Path_17469" data-name="Path 17469" d="M215.55,251.354a8.515,8.515,0,0,0,10.827-3.534l-10.823,3.534Z" transform="translate(-215.55 -247.82)" fill="#fff"/>
                </g>
                <g id="Group_29770" data-name="Group 29770" transform="translate(2.979 10.471)" opacity="0.3">
                  <path id="Path_17470" data-name="Path 17470" d="M224.815,242.81l-13.825,4.515a8.524,8.524,0,0,0,2.086,1.316l10.823-3.534a8.556,8.556,0,0,0,.912-2.3Z" transform="translate(-210.99 -242.81)" fill="#ededed"/>
                </g>
              </g>
            </g>
            <path id="Path_17471" data-name="Path 17471" d="M0,0H3V8.613A1.342,1.342,0,0,1,1.655,9.957H1.343A1.342,1.342,0,0,1,0,8.613V0H0Z" transform="translate(8.323 18.558) rotate(-5.13)" fill="#333"/>
          </g>
          <g id="Group_29774" data-name="Group 29774" transform="translate(10.621 21.618)">
            <path id="Path_17472" data-name="Path 17472" d="M225.348,264.637s.7-.541,1.073-.527a1.654,1.654,0,0,1,1.265,1.944c-.353,1.155-.921,2.15-1.577,2.132s-1.889-.857-.766-3.548Z" transform="translate(-224.775 -264.109)" fill="#f7e7d6"/>
            <path id="Path_17473" data-name="Path 17473" d="M225.493,264.948c-.009-.082-.481-.078-.711.656a3.289,3.289,0,0,0,.22,2.512c.417.468.976.582.976.5s-.509-.17-.853-.61c-.477-.61-.188-1.93.023-2.452.293-.733.362-.472.344-.61Z" transform="translate(-224.641 -264.544)" fill="#e5d2c2"/>
          </g>
          <g id="Group_29775" data-name="Group 29775" transform="translate(8.065 20.781)">
            <path id="Path_17474" data-name="Path 17474" d="M219.076,264.437s.623-1.98,1.522-2.054,2.287-.275,2.6.257-1.614.825-1.614.825.394,2.044-1.187,2.773-1.32-1.806-1.32-1.806Z" transform="translate(-219.065 -262.284)" fill="#f7e7d6"/>
            <path id="Path_17475" data-name="Path 17475" d="M223.454,263.22a.525.525,0,0,0-.046-.06c-.211.738-1.646.674-1.646.674s.394,2.044-1.187,2.773a.856.856,0,0,1-1.155-.339c.147.5.458.843,1.233.55,1.256-.481,1.641-2.659,1.641-2.659s1.476-.408,1.164-.94Z" transform="translate(-219.257 -262.758)" fill="#e5d2c2"/>
          </g>
        </g>
      </g>
      <g id="Group_29780" data-name="Group 29780" transform="translate(72.267)">
        <path id="Path_17476" data-name="Path 17476" d="M237.04,149.99v9.961l10.232-9.961Z" transform="translate(-227.363 -129.66)" fill="#e6f9ff"/>
        <path id="Path_17477" data-name="Path 17477" d="M249.909,126.563V128.3H221.263v-1.742H219.59v-15.6h1.673V109.29h28.646v1.673h1.673v15.6Z" transform="translate(-217.912 -107.617)" fill="#e6f9ff"/>
        <g id="Group_29778" data-name="Group 29778">
          <rect id="Rectangle_21482" data-name="Rectangle 21482" width="21.531" height="1.673" transform="translate(6.908)" fill="#7ac5e2"/>
          <rect id="Rectangle_21483" data-name="Rectangle 21483" width="3.557" height="1.673" transform="translate(31.992 3.351) rotate(180)" fill="#7ac5e2"/>
          <rect id="Rectangle_21484" data-name="Rectangle 21484" width="3.557" height="1.673" transform="translate(31.992 20.624) rotate(180)" fill="#7ac5e2"/>
          <rect id="Rectangle_21485" data-name="Rectangle 21485" width="10.516" height="1.673" transform="translate(28.439 22.292) rotate(180)" fill="#7ac5e2"/>
          <rect id="Rectangle_21486" data-name="Rectangle 21486" width="2.769" height="1.673" transform="translate(9.677 22.292) rotate(180)" fill="#7ac5e2"/>
          <rect id="Rectangle_21487" data-name="Rectangle 21487" width="3.557" height="1.673" transform="translate(6.908 20.624) rotate(180)" fill="#7ac5e2"/>
          <rect id="Rectangle_21488" data-name="Rectangle 21488" width="3.557" height="1.673" transform="translate(31.997 6.908) rotate(-90)" fill="#7ac5e2"/>
          <rect id="Rectangle_21489" data-name="Rectangle 21489" width="3.557" height="1.673" transform="translate(31.997 18.95) rotate(-90)" fill="#7ac5e2"/>
          <rect id="Rectangle_21490" data-name="Rectangle 21490" width="3.557" height="1.673" transform="translate(1.678 18.95) rotate(-90)" fill="#7ac5e2"/>
          <rect id="Rectangle_21491" data-name="Rectangle 21491" width="8.485" height="1.673" transform="translate(33.665 15.389) rotate(-90)" fill="#7ac5e2"/>
          <rect id="Rectangle_21492" data-name="Rectangle 21492" width="8.485" height="1.673" transform="translate(0 15.389) rotate(-90)" fill="#7ac5e2"/>
          <rect id="Rectangle_21493" data-name="Rectangle 21493" width="3.557" height="1.673" transform="translate(1.678 6.908) rotate(-90)" fill="#7ac5e2"/>
          <rect id="Rectangle_21494" data-name="Rectangle 21494" width="3.557" height="1.673" transform="translate(6.908 3.351) rotate(180)" fill="#7ac5e2"/>
          <rect id="Rectangle_21495" data-name="Rectangle 21495" width="1.65" height="1.65" transform="translate(17.924 23.919) rotate(180)" fill="#7ac5e2"/>
          <rect id="Rectangle_21496" data-name="Rectangle 21496" width="1.65" height="1.65" transform="translate(16.273 25.57) rotate(180)" fill="#7ac5e2"/>
          <rect id="Rectangle_21497" data-name="Rectangle 21497" width="1.65" height="1.65" transform="translate(14.623 27.215) rotate(180)" fill="#7ac5e2"/>
          <rect id="Rectangle_21498" data-name="Rectangle 21498" width="1.65" height="1.65" transform="translate(12.977 28.866) rotate(180)" fill="#7ac5e2"/>
          <rect id="Rectangle_21499" data-name="Rectangle 21499" width="1.65" height="9.668" transform="translate(11.327 30.287) rotate(180)" fill="#7ac5e2"/>
        </g>
      </g>
      <path id="Path_8392" data-name="Path 8392" d="M489.682,255.191c-3.722.7-5.721,5.721-5.721,5.721a7.37,7.37,0,0,0-5.721-5.721,6.712,6.712,0,0,0,5.721-5.721S484.818,254.421,489.682,255.191Z" transform="translate(-285.729 -183.538)" fill="#6ebaff"/>
      <path id="Path_8393" data-name="Path 8393" d="M505.75,278.235c-2.471.463-3.8,3.8-3.8,3.8a4.894,4.894,0,0,0-3.8-3.8,4.468,4.468,0,0,0,3.8-3.8A4.8,4.8,0,0,0,505.75,278.235Z" transform="translate(-296.507 -197.056)" fill="#5e9ed8"/>
      <path id="Path_8395" data-name="Path 8395" d="M78.316,290.8c-2.81.527-4.318,4.318-4.318,4.318A5.563,5.563,0,0,0,69.68,290.8,5.065,5.065,0,0,0,74,286.48,5.441,5.441,0,0,0,78.316,290.8Z" transform="translate(-64.454 -203.582)" fill="#f7ba41"/>
      <path id="Path_8396" data-name="Path 8396" d="M67.879,268.869c-3.117.587-4.8,4.795-4.8,4.795a6.17,6.17,0,0,0-4.8-4.795,5.638,5.638,0,0,0,4.8-4.8S63.8,268.219,67.879,268.869Z" transform="translate(-58.28 -191.445)" fill="#ffdf9f"/>
      <path id="Path_17478" data-name="Path 17478" d="M3.42-6.552A2.809,2.809,0,0,0,1.071-5.535,3.619,3.619,0,0,0,.36-3.2,3.621,3.621,0,0,0,1.044-.882,2.863,2.863,0,0,0,3.438.126,2.764,2.764,0,0,0,5.22-.468,2.836,2.836,0,0,0,6.228-2.232H5.2a1.989,1.989,0,0,1-.648,1.1A1.835,1.835,0,0,1,3.429-.8a1.851,1.851,0,0,1-1.557-.657A2.861,2.861,0,0,1,1.413-3.2a2.8,2.8,0,0,1,.468-1.728A1.754,1.754,0,0,1,3.4-5.625a1.911,1.911,0,0,1,1.107.288,1.5,1.5,0,0,1,.6.927H6.138a2.372,2.372,0,0,0-.846-1.548A2.879,2.879,0,0,0,3.42-6.552Zm3.8.126V0H8.271V-2.844h3.258V0h1.053V-6.426H11.529v2.682H8.271V-6.426Zm8.451,0L13.212,0h1.125l.585-1.611h2.691L18.2,0h1.125L16.866-6.426Zm-.432,3.951,1.017-2.817h.036L17.3-2.475Zm4.221-3.951v.9h2.106V0h1.053V-5.526h2.106v-.9Z" transform="translate(77.642 14.02)" fill="#6aa8c5"/>
    </g>
  </g>
</svg>
