<svg xmlns="http://www.w3.org/2000/svg" xmlns:xlink="http://www.w3.org/1999/xlink" width="188.339" height="150.281" viewBox="0 0 188.339 150.281">
  <defs>
    <clipPath id="clip-path">
      <path id="Rectangle_21455" data-name="Rectangle 21455" d="M4,0H139a0,0,0,0,1,0,0V84a0,0,0,0,1,0,0H0a0,0,0,0,1,0,0V4A4,4,0,0,1,4,0Z" fill="none"/>
    </clipPath>
    <clipPath id="clip-path-2">
      <rect id="Rectangle_21348" data-name="Rectangle 21348" width="29.164" height="14.597" fill="none"/>
    </clipPath>
    <clipPath id="clip-path-3">
      <rect id="Rectangle_21349" data-name="Rectangle 21349" width="41.277" height="19.915" fill="none"/>
    </clipPath>
    <clipPath id="clip-path-4">
      <rect id="Rectangle_21351" data-name="Rectangle 21351" width="83.272" height="71.535" fill="none"/>
    </clipPath>
    <clipPath id="clip-path-5">
      <path id="Path_17209" data-name="Path 17209" d="M1.911.005a.311.311,0,0,0-.045,0L1.54.6,0,3.451s25.422,8.307,43.184,20.812C61.733,37.315,82.941,71.008,83.272,71.535a.546.546,0,0,0-.035-.1A85.713,85.713,0,0,0,77.5,59.391c-1.41-2.513-3.1-5.312-5.116-8.317a1.774,1.774,0,0,0-.11-.155c-3.556-5.152-6.827-9.22-8.086-10.75-.166-.2-.291-.351-.386-.456-.04-.045-.075-.1-.115-.14l-.04-.055c-.206-.241-.406-.477-.612-.712l-.983-1.134q-.685-.783-1.4-1.565a127.95,127.95,0,0,0-11.266-10.99c-.291-.256-.582-.5-.878-.747q-.474-.406-.948-.8C24.679,4.595,2.98.216,1.911.01Z" transform="translate(0 0)" fill="none"/>
    </clipPath>
    <linearGradient id="linear-gradient" x1="-0.847" y1="-0.076" x2="-0.842" y2="-0.076" gradientUnits="objectBoundingBox">
      <stop offset="0" stop-color="#fff"/>
      <stop offset="1" stop-color="#fff"/>
    </linearGradient>
    <clipPath id="clip-path-6">
      <rect id="Rectangle_21353" data-name="Rectangle 21353" width="100.397" height="44.034" fill="none"/>
    </clipPath>
    <clipPath id="clip-path-7">
      <path id="Path_17214" data-name="Path 17214" d="M100.392,43.515S44.438,36,2.854,0L0,4.023S24.674,30.879,62.867,40.139c0,0,22.186,5.593,37.53,3.376Z" transform="translate(0 0)" fill="none"/>
    </clipPath>
    <linearGradient id="linear-gradient-2" x1="-0.752" y1="-0.32" x2="-0.748" y2="-0.32" xlink:href="#linear-gradient"/>
    <clipPath id="clip-path-8">
      <rect id="Rectangle_21354" data-name="Rectangle 21354" width="13.704" height="23.811" fill="none"/>
    </clipPath>
    <clipPath id="clip-path-9">
      <rect id="Rectangle_21363" data-name="Rectangle 21363" width="5.925" height="5.984" fill="none"/>
    </clipPath>
    <clipPath id="clip-path-10">
      <rect id="Rectangle_21364" data-name="Rectangle 21364" width="18.404" height="2.664" fill="none"/>
    </clipPath>
    <clipPath id="clip-path-11">
      <rect id="Rectangle_21365" data-name="Rectangle 21365" width="4.71" height="17.571" fill="none"/>
    </clipPath>
    <clipPath id="clip-path-12">
      <rect id="Rectangle_21366" data-name="Rectangle 21366" width="3.642" height="13.897" fill="none"/>
    </clipPath>
    <clipPath id="clip-path-13">
      <rect id="Rectangle_21367" data-name="Rectangle 21367" width="2.338" height="2.132" fill="none"/>
    </clipPath>
  </defs>
  <g id="image_applebg" transform="translate(252.247 150.281) rotate(180)" opacity="0.996">
    <g id="Group_29713" data-name="Group 29713" transform="translate(63.908 0)">
      <g id="Mask_Group_18382" data-name="Mask Group 18382" clip-path="url(#clip-path)">
        <path id="Path_17192" data-name="Path 17192" d="M92.582,5.919A13.4,13.4,0,0,1,87.8,5.041l17.055,18.223L85.439,54.575,36.251,42.727a13.421,13.421,0,0,1-18.444,6.957A17.149,17.149,0,0,1,12.5,59.2a13.379,13.379,0,0,1,2.393,7.66A13.47,13.47,0,0,1,0,80.242V0H103.713A13.411,13.411,0,0,1,92.582,5.924Z" transform="translate(0 0.005)" fill="#00677f"/>
      </g>
      <path id="Path_17193" data-name="Path 17193" d="M44.468,42.582h0A53.04,53.04,0,0,1,3.612,9.355L0,0,52.1,31.21,44.473,42.577Z" transform="translate(43.911 7.198)" fill="#f99653"/>
      <path id="Path_17194" data-name="Path 17194" d="M57.911,22.05h0A53.059,53.059,0,0,0,9.982.225L0,1.148,51.119,33.933Z" transform="translate(43.806 6.221)" fill="#fc7b1d"/>
      <path id="Path_17195" data-name="Path 17195" d="M33.287,31.872h0A39.7,39.7,0,0,1,2.7,7L0,0,39,23.365l-5.708,8.507Z" transform="translate(56.466 15.018)" fill="#f4cc4d"/>
      <path id="Path_17196" data-name="Path 17196" d="M43.349,16.506h0A39.71,39.71,0,0,0,7.474.169L0,.861,38.268,25.4l5.086-8.9Z" transform="translate(56.391 14.283)" fill="#f5c300"/>
      <path id="Path_17197" data-name="Path 17197" d="M20.33,19.462h0A24.261,24.261,0,0,1,1.65,4.274L0,0,23.816,14.266Z" transform="translate(69.644 23.225)" fill="#f9eecf"/>
      <path id="Path_17198" data-name="Path 17198" d="M26.475,10.081h0A24.244,24.244,0,0,0,4.565.1L0,.525,23.37,15.513Z" transform="translate(69.598 22.775)" fill="#f4dc90"/>
      <path id="Path_17199" data-name="Path 17199" d="M19.412,0,0,31.311l3.13,1.425L22.081,2.172Z" transform="translate(85.048 22.893)" fill="#ba530d"/>
      <path id="Path_17200" data-name="Path 17200" d="M41.277,20.34s-12.134,4.474-16.172,3.546C17.316,22.1,0,4.1,0,4.1L18.409,0,41.272,20.345Z" transform="translate(69.012 55.097)" fill="#fc7b1d"/>
      <path id="Path_17201" data-name="Path 17201" d="M32.9,29.75s-1.389-12.861-4.013-16.062C23.821,7.509,0,0,0,0L4.514,18.314,32.9,29.745Z" transform="translate(101.902 6.15)" fill="#d76510"/>
      <g id="Group_29659" data-name="Group 29659" transform="translate(105.639 21.309)" opacity="0.24" style="mix-blend-mode: normal;isolation: isolate">
        <g id="Group_29658" data-name="Group 29658" transform="translate(0 0)">
          <g id="Group_29657" data-name="Group 29657" clip-path="url(#clip-path-2)">
            <path id="Path_17202" data-name="Path 17202" d="M28.291,11.091S18.429,3.3,0,0L.667,3.265,29.164,14.6l-.878-3.5Z" transform="translate(0 0)" fill="#a45302"/>
          </g>
        </g>
      </g>
      <g id="Group_29662" data-name="Group 29662" transform="translate(69.047 59.145)" opacity="0.38" style="mix-blend-mode: normal;isolation: isolate">
        <g id="Group_29661" data-name="Group 29661" transform="translate(0 0)">
          <g id="Group_29660" data-name="Group 29660" transform="translate(0 0)" clip-path="url(#clip-path-3)">
            <path id="Path_17203" data-name="Path 17203" d="M41.272,16.242s-12.264.632-18.148-1.55C6.992,8.708,0,0,0,0S17.316,18,25.106,19.788c4.033.928,16.172-3.546,16.172-3.546Z" transform="translate(0 0)" fill="#f9b548"/>
          </g>
        </g>
      </g>
      <path id="Path_17204" data-name="Path 17204" d="M100.282,56.3,9.48,0,0,15.294C5.528,22.357,13.649,30,25.587,37.33A131,131,0,0,0,74.278,55.237a123.1,123.1,0,0,0,12.7,1.3,83.923,83.923,0,0,0,13.3-.236Z" transform="translate(87.431 39.803)" fill="#e0e0e0"/>
      <path id="Path_17205" data-name="Path 17205" d="M40.6,13.127C28.717,5.693,18.264,1.821,9.485,0L0,15.3,90.8,71.6a.462.462,0,0,0-.035-.1,85.694,85.694,0,0,0-5.738-12.049c-1.409-2.513-3.1-5.312-5.116-8.317a1.736,1.736,0,0,0-.11-.156q-.76-1.136-1.58-2.292c-1.831-2.593-3.892-5.3-6.195-8.076-.11-.14-.221-.266-.311-.381-.166-.2-.291-.351-.386-.456-.04-.045-.075-.1-.115-.14-.216-.256-.431-.512-.652-.767l-.983-1.134A131.112,131.112,0,0,0,56.913,25.176c-.291-.256-.582-.5-.878-.747q-.474-.406-.948-.8a130.428,130.428,0,0,0-14.5-10.5Z" transform="translate(96.906 24.509)" fill="#d6d6d6"/>
      <path id="Path_17206" data-name="Path 17206" d="M13.428.005A32.186,32.186,0,0,1,8.723,12.2,39.014,39.014,0,0,1,0,21.85a123.1,123.1,0,0,0,12.7,1.3,16.632,16.632,0,0,0,5.111-5.312,18.016,18.016,0,0,0,2.413-7.078A123.862,123.862,0,0,0,13.423,0Z" transform="translate(161.704 73.19)" fill="#f15a24"/>
      <path id="Path_17207" data-name="Path 17207" d="M37.089,23s-7.559-.637-9.817-1.69C19.257,17.576,0,0,0,0L37.089,22.994Z" transform="translate(85.314 32.905)" fill="#fc7b1d"/>
      <path id="Path_17208" data-name="Path 17208" d="M37.089,22.994s-3.933-6.486-5.879-8.041C24.308,9.43,0,0,0,0Z" transform="translate(85.269 32.981)" fill="#d2650a"/>
      <g id="Group_29667" data-name="Group 29667" transform="translate(104.44 24.574)" opacity="0.41" style="mix-blend-mode: normal;isolation: isolate">
        <g id="Group_29666" data-name="Group 29666" transform="translate(0 0)">
          <g id="Group_29665" data-name="Group 29665" transform="translate(0 0)" clip-path="url(#clip-path-4)">
            <g id="Group_29664" data-name="Group 29664" transform="translate(0 0)">
              <g id="Group_29663" data-name="Group 29663" clip-path="url(#clip-path-5)">
                <rect id="Rectangle_21350" data-name="Rectangle 21350" width="108.468" height="104.677" transform="translate(23.123 -37.294) rotate(31.8)" fill="url(#linear-gradient)"/>
              </g>
            </g>
          </g>
        </g>
      </g>
      <path id="Path_17210" data-name="Path 17210" d="M4.522,17.678A9.556,9.556,0,1,0,1.436,4.522,9.556,9.556,0,0,0,4.522,17.678" transform="translate(146.094 66.165)" fill="#4f0b11"/>
      <path id="Path_17211" data-name="Path 17211" d="M1.533,14.746A9.556,9.556,0,1,0,4.368,1.533,9.556,9.556,0,0,0,1.533,14.746" transform="translate(146.242 66.738)" fill="#680f15"/>
      <path id="Path_17212" data-name="Path 17212" d="M11.473,1.129A7.512,7.512,0,0,0,1.129,3.556,7.34,7.34,0,0,0,.387,5.141,7.515,7.515,0,1,0,11.473,1.129" transform="translate(148.275 68.791)" fill="#039385"/>
      <path id="Path_17213" data-name="Path 17213" d="M11.163,1.129A7.512,7.512,0,0,0,.82,3.556,7.337,7.337,0,0,0,.078,5.141,7.515,7.515,0,0,0,13.9,10.178a7.337,7.337,0,0,0,.742-1.585,7.51,7.51,0,0,0-3.481-7.464" transform="translate(148.585 68.791)" fill="#06c6af"/>
      <g id="Group_29672" data-name="Group 29672" transform="translate(86.829 52.413)" opacity="0.48" style="mix-blend-mode: normal;isolation: isolate">
        <g id="Group_29671" data-name="Group 29671" transform="translate(0 0)">
          <g id="Group_29670" data-name="Group 29670" clip-path="url(#clip-path-6)">
            <g id="Group_29669" data-name="Group 29669" transform="translate(0 0)">
              <g id="Group_29668" data-name="Group 29668" transform="translate(0 0)" clip-path="url(#clip-path-7)">
                <rect id="Rectangle_21352" data-name="Rectangle 21352" width="109.426" height="91.772" transform="translate(27.878 -44.963) rotate(31.8)" fill="url(#linear-gradient-2)"/>
              </g>
            </g>
          </g>
        </g>
      </g>
      <path id="Path_17215" data-name="Path 17215" d="M0,0" transform="translate(109.2 17.838)" fill="red"/>
      <path id="Path_17216" data-name="Path 17216" d="M0,0Z" transform="translate(85.028 65.861)" fill="red"/>
      <path id="Path_17217" data-name="Path 17217" d="M1.946,3.892A1.946,1.946,0,1,0,0,1.946,1.946,1.946,0,0,0,1.946,3.892" transform="translate(58.844 34.396)" fill="#fff"/>
      <path id="Path_17218" data-name="Path 17218" d="M1.224,2.448A1.224,1.224,0,1,0,0,1.224,1.224,1.224,0,0,0,1.224,2.448" transform="translate(45.471 30.252)" fill="#fff"/>
      <path id="Path_17219" data-name="Path 17219" d="M2.172,4.344A2.172,2.172,0,1,0,0,2.172,2.172,2.172,0,0,0,2.172,4.344" transform="translate(40.971 13.909)" fill="#fff"/>
      <path id="Path_17220" data-name="Path 17220" d="M1.365.1a.941.941,0,1,0,.416,1.264A.942.942,0,0,0,1.365.1" transform="translate(83.873 11.115)" fill="#fff"/>
      <path id="Path_17221" data-name="Path 17221" d="M1.5,3.922A1.991,1.991,0,1,0,.062,1.5,1.992,1.992,0,0,0,1.5,3.922" transform="translate(48.34 45.756)" fill="red"/>
      <path id="Path_17222" data-name="Path 17222" d="M1.024.076A.707.707,0,1,0,.392,1.34.707.707,0,1,0,1.024.076" transform="translate(24.844 34.435)" fill="red"/>
      <path id="Path_17223" data-name="Path 17223" d="M.314,1.3A.707.707,0,1,0,.119.314.707.707,0,0,0,.314,1.3" transform="translate(43.859 27.521)" fill="red"/>
      <path id="Path_17224" data-name="Path 17224" d="M1.066.077A.741.741,0,0,0,.078.4.741.741,0,0,0,.4,1.392a.741.741,0,0,0,.988-.326A.741.741,0,0,0,1.066.077" transform="translate(30.082 30.871)" fill="red"/>
      <path id="Path_17225" data-name="Path 17225" d="M1.068,2.137A1.068,1.068,0,1,0,0,1.068,1.069,1.069,0,0,0,1.068,2.137" transform="translate(8.827 23.176)" fill="red"/>
      <path id="Path_17226" data-name="Path 17226" d="M1.55.115A1.068,1.068,0,1,0,2.021,1.55,1.068,1.068,0,0,0,1.55.115" transform="translate(66.654 5.177)" fill="red"/>
      <path id="Path_17227" data-name="Path 17227" d="M1.946,3.893A1.946,1.946,0,1,0,0,1.946,1.946,1.946,0,0,0,1.946,3.893" transform="translate(62.912 44.834)" fill="#fff"/>
      <path id="Path_17228" data-name="Path 17228" d="M.068,2.454A1.946,1.946,0,1,0,1.44.068,1.946,1.946,0,0,0,.068,2.454" transform="translate(89.568 13.726)" fill="#fff"/>
      <path id="Path_17229" data-name="Path 17229" d="M1.991,3.983A1.991,1.991,0,1,0,0,1.991,1.991,1.991,0,0,0,1.991,3.983" transform="translate(88.915 7.007)" fill="red"/>
      <path id="Path_17231" data-name="Path 17231" d="M.181,0h0Z" transform="translate(143.546 28.672)" fill="#ffd629"/>
      <path id="Path_17232" data-name="Path 17232" d="M0,0H0Z" transform="translate(134.958 28.672)" fill="#ffd629"/>
      <path id="Path_17234" data-name="Path 17234" d="M.181,0h0Z" transform="translate(66.814 82.82)" fill="#ffd629"/>
      <path id="Path_17235" data-name="Path 17235" d="M0,0H0Z" transform="translate(58.232 82.82)" fill="#ffd629"/>
      <path id="Path_17237" data-name="Path 17237" d="M.181,0h0Z" transform="translate(41.433 56.491)" fill="#ff7e27"/>
      <path id="Path_17238" data-name="Path 17238" d="M0,0H0Z" transform="translate(32.85 56.491)" fill="#ff7e27"/>
      <path id="Path_17242" data-name="Path 17242" d="M0,20.861s6.757-1.921,10.985,1.786,3.351,6.511,6.591,8.432,7.745-2.307,12.525,1.1S32.9,44.1,39.166,47.03c6.942,3.25,11.286-1.219,11.286-1.219L63.8,23.244s-8.763,1.921-13.7-1.249-2.719-8.738-7.745-11.161c-5.894-2.844-9.285,2.378-14.557.13s-2.944-6.576-7.033-9.22A11.029,11.029,0,0,0,11.1.646Z" transform="translate(2.899 77.821)" fill="#22c6af"/>
      <g id="Group_29675" data-name="Group 29675" transform="translate(52.995 99.821)" opacity="0.13" style="mix-blend-mode: normal;isolation: isolate">
        <g id="Group_29674" data-name="Group 29674" transform="translate(0 0)">
          <g id="Group_29673" data-name="Group 29673" clip-path="url(#clip-path-8)">
            <path id="Path_17243" data-name="Path 17243" d="M.351,23.811l1.876-3.17L13.7,1.249S4.941,3.17,0,0C2.909,6.676.356,23.811.356,23.811Z" transform="translate(0 0)"/>
          </g>
        </g>
      </g>
      <rect id="Rectangle_21355" data-name="Rectangle 21355" width="1.124" height="59.135" transform="matrix(0.859, 0.513, -0.513, 0.859, 82.75, 72.22)" fill="#333"/>
      <path id="Path_17359" data-name="Path 17359" d="M0,0A19.965,19.965,0,0,0,16.067,8.161,19.288,19.288,0,0,0,31.817,0H0Z" transform="translate(103.317 0)" fill="#00677f"/>
      <g id="Group_29744" data-name="Group 29744" transform="translate(9.551 -38.688) rotate(14)">
        <path id="Path_17319" data-name="Path 17319" d="M3.095,0A.255.255,0,0,1,3.15.331l-.808,1.4s.236,1.314.256,1.716a.345.345,0,0,1-.251.376l-1.389.3A.353.353,0,0,1,.576,3.8L.27,1.8c-.105-.3-.356-.05-.241-.6L3.1,0Z" transform="translate(160.014 78.356)" fill="#b2b2b2"/>
        <path id="Path_17320" data-name="Path 17320" d="M3.835,1.294l-.672.923L3.117,2.5c-.627.361-.858.045-.858.045l-.11-.3a5.658,5.658,0,0,0-.782.346C.8,2.98.95,3.055.9,3.075c-.03.01-.271.02-.632-.517A1.788,1.788,0,0,1,0,1.54L4.181,0S4.2.025,4.2.035c.11.236.582.818-.366,1.254Z" transform="translate(159.459 77.744)" fill="#663b26"/>
        <path id="Path_17321" data-name="Path 17321" d="M0,1.731c0-.115,0-.191,0-.191L4.181,0S4.2.025,4.2.035c.015.035.04.075.065.12L0,1.726Z" transform="translate(159.464 77.75)" fill="#4b291b"/>
        <path id="Path_17322" data-name="Path 17322" d="M10.966,12.429c.351-1.169.015-1.5-1.028-4.755C9,4.754,8.207,3.6,7.013.355c-.3-.808-3.055-.1-3.045.747C4,3.766,4.229,5.943,5.1,7.533,5.518,8.291-.055,6.1,0,6.721c.08.943,2.955,3.02,3.165,3.852S3.055,13.287,4.41,14C5.348,14.491,10.309,14.611,10.966,12.429Z" transform="translate(155.814 80.961)" fill="#005781"/>
        <path id="Path_17323" data-name="Path 17323" d="M12.4,7.365C12.28,6.091,10.454,5.132,9.18,5.258,8.929,5.283,2.829-.084,2.6,0A13.451,13.451,0,0,0,.005,2.715c-.216.346,6.516,4.78,6.626,5.217.4,1.6,1.114,3.255,3.677,3,.411-.04.682-.582,1.018-.908a3.592,3.592,0,0,0,.732-1.038,3.176,3.176,0,0,0,.341-1.62Z" transform="translate(165.963 111.417)" fill="#f7e7d6"/>
        <path id="Path_17324" data-name="Path 17324" d="M0,3.642S3.411,6.36,8.211,10.494a2.941,2.941,0,0,0,.336-.04l-.05.286s-.06.316.156.406a4.013,4.013,0,0,0,1.68.662c.948-.406,1.866-2.317,2.739-3.025,1.018-.828,0-1.445,0-1.445a7.612,7.612,0,0,0-.848-1.023.727.727,0,0,0-.617-.145c-.025.005-.2.115-.226.1-.07-.04-.08-.09-.035-.251A55.074,55.074,0,0,0,3.105,0C.9-.015.005,3.642.005,3.642Z" transform="translate(155.564 103.498)" fill="#aecce8"/>
        <path id="Path_17325" data-name="Path 17325" d="M3.4.155c-.517.868-1.364,2.96-2.147,3.7-.316.3-.662.567-.973.873,0-.125.01-.236.05-.231C.261,4.489.065,4.489,0,4.474c.206-.2.557-.386.767-.572A4,4,0,0,0,2.032,2.042c.11-.326.933-1.761,1.1-2.042L3.2.186,3.4.15Z" transform="translate(163.771 109.511)" fill="#7496b8"/>
        <path id="Path_17326" data-name="Path 17326" d="M0,.336.191,0A14.185,14.185,0,0,1,3.23,1.771,57.194,57.194,0,0,1,8.7,6.049s.11.06.156.311c.441-.1.577-.015.577-.015s.165-.06.632.542c.406.522.6.717.6.717s.772.492-.025,1.234C9.822,7.855,9.315,7.83,8.517,7.073a9.5,9.5,0,0,0-1.39-1.279A13.681,13.681,0,0,1,5.342,3.928,18.664,18.664,0,0,0,2.252,1.5,9.1,9.1,0,0,0,.928.722,3.358,3.358,0,0,1,.005.331Z" transform="translate(158.107 103.342)" fill="#7496b8"/>
        <path id="Path_17327" data-name="Path 17327" d="M2.077,13.995A21,21,0,0,0,5.738,1.56L0,0,.567,13.268A5.633,5.633,0,0,1,2.077,14Z" transform="translate(154.681 92.096)" fill="#aecce8"/>
        <path id="Path_17328" data-name="Path 17328" d="M18.043,6.714l-.065-1.54a5.047,5.047,0,0,0-4.1-4.8,21.666,21.666,0,0,0-5.2-.356A19.619,19.619,0,0,0,3.687.81C1.646,1.733-.11,3.2.005,5.936l.06,1.445C1.475,6.538,4.089,5.62,8.889,5.42c4.986-.211,7.7.552,9.144,1.294Z" transform="translate(141.348 87.87)" fill="#005781"/>
        <path id="Path_17329" data-name="Path 17329" d="M14.236,14.336C18.876,6.155,17.968,1.33,17.968,1.33,16.523.587,13.809-.175,8.823.036S1.4,1.154,0,2a27.49,27.49,0,0,0,6.12,12.49c2.1-.015,3.762-.05,8.121-.155Z" transform="translate(141.424 93.254)" fill="#ededed"/>
        <g id="Group_29699" data-name="Group 29699" transform="translate(153.538 93.3)" opacity="0.2" style="mix-blend-mode: normal;isolation: isolate">
          <g id="Group_29698" data-name="Group 29698" transform="translate(0 0)">
            <g id="Group_29697" data-name="Group 29697" clip-path="url(#clip-path-9)">
              <path id="Path_17330" data-name="Path 17330" d="M5.488,5.979c.2-1.831.065-3.682-1.109-4.56A9.064,9.064,0,0,0,0,0,14.439,14.439,0,0,1,5.854,1.289a12.873,12.873,0,0,1-.371,4.7Z" transform="translate(0 0)" fill="#989898"/>
            </g>
          </g>
        </g>
        <g id="Group_29702" data-name="Group 29702" transform="translate(141.349 106.13)" opacity="0.2" style="mix-blend-mode: normal;isolation: isolate">
          <g id="Group_29701" data-name="Group 29701" transform="translate(0 0)">
            <g id="Group_29700" data-name="Group 29700" transform="translate(0 0)" clip-path="url(#clip-path-10)">
              <path id="Path_17331" data-name="Path 17331" d="M0,1.55A47.863,47.863,0,0,1,12,0C15.826.07,17.456,1.3,18.4,2.663-.226,2.408,1.189,2.071,1.189,2.071L.005,1.55Z" transform="translate(0 0)" fill="#989898"/>
            </g>
          </g>
        </g>
        <path id="Path_17332" data-name="Path 17332" d="M1.605.016a3.906,3.906,0,0,1-.15,1.354c-.171.371-.361.737-.507,1.119A3.2,3.2,0,0,0,.783,3.813c0,.04-.03.08-.07.07s-.055-.015-.085-.02a2.835,2.835,0,0,0,.587.477.064.064,0,0,1,0,.1,3.33,3.33,0,0,0-.878.818l-.125-.04a3.087,3.087,0,0,1,.863-.828,3.192,3.192,0,0,1-.652-.567v-.01c-.14-.035-.421-.1-.421-.1L.06,3.6s.406.1.607.145A3.241,3.241,0,0,1,.757,2.69,9.633,9.633,0,0,1,1.3,1.431,8.209,8.209,0,0,0,1.54.232c.03-.085.105-.291.08-.216Z" transform="translate(156.522 102.297)" fill="#7496b8"/>
        <path id="Path_17333" data-name="Path 17333" d="M.006.472c-.04.1.125.155.16.065A2.342,2.342,0,0,0,.3.086c.02-.1-.151-.12-.171-.02A2.438,2.438,0,0,1,.006.477Z" transform="translate(158.703 100.687)" fill="#7496b8"/>
        <path id="Path_17334" data-name="Path 17334" d="M.005.492c-.03.1.135.15.165.05A2.379,2.379,0,0,0,.276.08C.291-.02.115-.03.1.07A2.009,2.009,0,0,1,0,.487Z" transform="translate(159.341 98.31)" fill="#7496b8"/>
        <path id="Path_17335" data-name="Path 17335" d="M0,.515c-.015.1.161.12.176.02A2.473,2.473,0,0,0,.192.064c0-.1-.181-.075-.17.025A2.483,2.483,0,0,1,.006.52Z" transform="translate(159.631 95.337)" fill="#7496b8"/>
        <path id="Path_17336" data-name="Path 17336" d="M13.6,1.44A4.417,4.417,0,0,0,12.345.969,38.174,38.174,0,0,0,8.111.186,27.882,27.882,0,0,0,0,.452C0,.5.005.558.01.613a27.961,27.961,0,0,1,7.865-.3,30.4,30.4,0,0,1,4.394.8,5.279,5.279,0,0,1,1.349.512,1.007,1.007,0,0,0-.01-.181Z" transform="translate(145.733 91.924)" fill="#063b63"/>
        <path id="Path_17337" data-name="Path 17337" d="M.1,1.283C.091.9.051.45,0,.069c-.015-.1.15-.09.161,0a11.988,11.988,0,0,1,.1,1.2H.1Z" transform="translate(150.377 91.997)" fill="#063b63"/>
        <path id="Path_17338" data-name="Path 17338" d="M.1,1.285C.086.9.051.457,0,.076c-.015-.1.14-.105.156,0,.055.391.115,1.2.115,1.2L.1,1.285Z" transform="translate(149.579 92.035)" fill="#063b63"/>
        <path id="Path_17339" data-name="Path 17339" d="M0,1.029C.04.708.08.387.125.066c.01-.1.165-.085.15.015C.236.412.15,1.074.15,1.074S.06,1.049,0,1.029" transform="translate(157.656 92.888)" fill="#063b63"/>
        <path id="Path_17340" data-name="Path 17340" d="M0,1.059C.045.728.09.4.13.066.14-.029.3-.019.281.081.236.427.15,1.115.15,1.115L0,1.064Z" transform="translate(158.243 93.043)" fill="#063b63"/>
        <path id="Path_17341" data-name="Path 17341" d="M.747.08C.6.757.522,1.149.436,1.781.246,3.205,0,4.77,0,4.785H.155S.562,2.222.592,2.047C.7,1.394.772.828.913.186c.732.09.517.823.421,1.711-.06.582-.11,1.053-.161,1.58-.1.953-.075.426-.155,1.379.075.01.15.015.15.015s.125-1.129.261-2.438L1.55,1.3A3.1,3.1,0,0,0,1.565.532.643.643,0,0,0,.973,0C.752,0,.742.07.742.07Z" transform="translate(153.688 88.524)" fill="#063b63"/>
        <path id="Path_17342" data-name="Path 17342" d="M.357.558A.207.207,0,0,1,.212.548.231.231,0,0,1,.026.413a.305.305,0,0,1,.1-.361.283.283,0,0,1,.4.085A.276.276,0,0,1,.352.548Z" transform="translate(154.019 92.506)" fill="#fff"/>
        <path id="Path_17343" data-name="Path 17343" d="M0,.047a1.487,1.487,0,0,1,.742,0A1.612,1.612,0,0,1,1.65.725,5.087,5.087,0,0,1,2.127,2.28c.04.166.105.537.105.537H2.1s-.241-1.159-.426-1.685A1.455,1.455,0,0,0,.612.173,1.123,1.123,0,0,0,.1.173C.07.138.02.083,0,.052Z" transform="translate(144.85 89.48)" fill="#063b63"/>
        <path id="Path_17344" data-name="Path 17344" d="M.208,1.283,1.561,2.717A.76.76,0,1,0,2.667,1.674L1.314.24A.76.76,0,1,0,.208,1.283" transform="translate(175.342 120.879)" fill="#f7e7d6"/>
        <path id="Path_17345" data-name="Path 17345" d="M0,1.859s.507,1.976,1.379,2.1,2.232.4,2.568-.11-1.54-.9-1.54-.9S2.912.961,1.4.159,0,1.859,0,1.859" transform="translate(172.652 118.472)" fill="#f7e7d6"/>
        <path id="Path_17346" data-name="Path 17346" d="M3.792,3.828s-.03.035-.045.055c-.165-.737-1.58-.752-1.58-.752s.5-1.986-1.013-2.789A.846.846,0,0,0,0,.608c.17-.487.5-.8,1.239-.472C2.448.678,2.7,2.835,2.7,2.835s1.43.482,1.088.988Z" transform="translate(172.875 118.395)" fill="#e5d2c2"/>
        <path id="Path_17347" data-name="Path 17347" d="M.75,3.6c-.015.08-.477.05-.662-.682A3.221,3.221,0,0,1,.444.464c.436-.436.993-.517.983-.436S.915.163.554.579c-.5.572-.291,1.881-.11,2.408.246.737.331.482.306.617Z" transform="translate(175.095 117.771)" fill="#e5d2c2"/>
        <path id="Path_17348" data-name="Path 17348" d="M3.892,0a.254.254,0,0,1-.155.3L2.578,1.43s-.8,1.379-1.023,1.71a.342.342,0,0,1-.426.146L.16,2.769a.359.359,0,0,1-.115-.482L.787.873C.887.567.21.532.637.16L3.887,0Z" transform="translate(159.407 76.36)" fill="#b2b2b2"/>
        <path id="Path_17349" data-name="Path 17349" d="M3.614,1.279l-.928.477-.281.376c-.707.15-.833-.221-.833-.221l.2-.316a1.607,1.607,0,0,0-.712-.15c-.787.15-.768.4-.828.4-.03,0,0,0-.176-.622A1.747,1.747,0,0,1,.123.171L4.572,0a.27.27,0,0,1,.005.04,1,1,0,0,1-.968,1.239Z" transform="translate(159.68 75.743)" fill="#663b26"/>
        <path id="Path_17350" data-name="Path 17350" d="M0,.351A1.513,1.513,0,0,1,.06.171L4.509,0a.275.275,0,0,1,0,.04.8.8,0,0,0,.025.135Z" transform="translate(159.748 75.748)" fill="#4b291b"/>
        <path id="Path_17351" data-name="Path 17351" d="M7.445,13.941c1.2-.191,6.466-1.675,7.69-4.991a40.035,40.035,0,0,0,2.3-7.735c.16-.848-2.563-1.66-2.995-.933-2.2,3.707-1.911,4.3-3.817,6.526-1.379,1.615-11,0-10.609,4.414.1,1.053,5.6,3,7.429,2.719Z" transform="translate(144.322 77.784)" fill="#005781"/>
        <g id="Group_29705" data-name="Group 29705" transform="translate(145.848 89.453)" opacity="0.2" style="mix-blend-mode: normal;isolation: isolate">
          <g id="Group_29704" data-name="Group 29704" transform="translate(0 0)">
            <g id="Group_29703" data-name="Group 29703" clip-path="url(#clip-path-11)">
              <path id="Path_17352" data-name="Path 17352" d="M3.526,17.566s.156-7.494-1.1-11.708A9.278,9.278,0,0,0,0,1.249C.141.752,1.455.321,1.856,0c.843,1.174,1.7,3.311,2.358,7.258a34.048,34.048,0,0,1,.216,10.258l-.9.055Z" transform="translate(0 0)" fill="#989898"/>
            </g>
          </g>
        </g>
        <path id="Path_17353" data-name="Path 17353" d="M10.123,19.865s-2.077-7.108-4.765-9.019A25.821,25.821,0,0,1,0,5.875S-.135,4.415,2.91,3.6C5.057,3.031,7.936.4,8.679.217c.311-.075.752-.356.913-.13.843,1.174,4.675,5.387,5.312,9.34a71.658,71.658,0,0,1,.833,9.435Z" transform="translate(134.32 87.967)" fill="#aecce8"/>
        <path id="Path_17354" data-name="Path 17354" d="M.272.629C.392.6.447.373.417.247a.4.4,0,0,0-.1-.2A.194.194,0,0,0,0,.187a.529.529,0,0,0,.03.2.385.385,0,0,0,.09.181.173.173,0,0,0,.156.06Z" transform="translate(148.651 97.768)" fill="#fff"/>
        <path id="Path_17355" data-name="Path 17355" d="M.455.549C.55.469.5.238.415.143A.4.4,0,0,0,.234.007.194.194,0,0,0,.014.273.611.611,0,0,0,.129.439.391.391,0,0,0,.289.564.165.165,0,0,0,.455.549Z" transform="translate(147.038 93.904)" fill="#fff"/>
        <path id="Path_17356" data-name="Path 17356" d="M.455.549C.55.469.5.238.415.143A.4.4,0,0,0,.234.007.194.194,0,0,0,.014.273.617.617,0,0,0,.129.439a.39.39,0,0,0,.16.125A.165.165,0,0,0,.455.549Z" transform="translate(144.746 90.719)" fill="#fff"/>
        <path id="Path_17357" data-name="Path 17357" d="M.034.432C.169.171.781.1,1.037.066s.5-.05.742-.065A2,2,0,0,1,2.2.041c.055.01.115.015.171.02a.107.107,0,0,1,.11.06.834.834,0,0,1,.06.226c.025.15.03.306.045.456a4.691,4.691,0,0,0,.241.938,11.862,11.862,0,0,1,.291,1.57.057.057,0,0,1-.03.055.059.059,0,0,1-.045.045c-.5.125-.993.231-1.495.316-.251.045-.5.09-.757.115-.07.005-.161.025-.221-.025S.515,3.632.5,3.547C.465,3.331.42,3.111.395,2.9c-.04-.306-.07-.612-.115-.918s-.12-.6-.186-.9C.059.9-.052.588.029.427ZM.32,1.511c.155.712.17,1.45.326,2.162a6.237,6.237,0,0,0,1.279-.3,3.819,3.819,0,0,1,1.064-.11c-.05-.331-.1-.662-.161-.988-.06-.351-.191-.677-.281-1.018a2.611,2.611,0,0,1-.08-.482A2.386,2.386,0,0,0,2.4.221a2.954,2.954,0,0,0-.978-.07A3.693,3.693,0,0,0,.174.482c-.151.13.065.692.14,1.033Z" transform="translate(146.226 98.942)" fill="#7496b8"/>
        <path id="Path_17358" data-name="Path 17358" d="M.032,5.172a7.784,7.784,0,0,1,0-1.234.1.1,0,0,1,.1-.075c.4.035.793.065,1.189.1L.919,3.647A.107.107,0,0,1,.9,3.521a6.007,6.007,0,0,0,.913-1.761A14.952,14.952,0,0,1,2.183,0c.01.065.03.341.035.381-.04.291-.11.813-.16.988A5.361,5.361,0,0,1,1.4,3.17c-.1.145-.246.256-.191.441.03.105.356.281.436.346.221.181.431.366.642.557.005,0,.01.01.02.015.06.055.145.11.206.166a2.316,2.316,0,0,0,0,.271c-.035-.03-.241-.2-.276-.226-.005-.005-.015-.01-.02-.02-.211-.2-.431-.381-.652-.567a.085.085,0,0,1-.065.02c-.231-.02-.456-.04-.687-.055-.1-.01-.411-.1-.492-.04a3.291,3.291,0,0,0-.04.762c0,.115.015.316.015.316s-.186,0-.266.005Z" transform="translate(147.542 101.521)" fill="#7496b8"/>
        <path id="Path_17362" data-name="Path 17362" d="M2.192,13.717l1.4.171.567-1.159-.622-.968S3.8,9.7,3.907,7.2A28.246,28.246,0,0,0,3.466,2.29a.247.247,0,0,0-.08-.14L.968.2C.772.058.471-.258.446.409L0,3.233a.293.293,0,0,0,.055.231A11.256,11.256,0,0,1,1.931,7.482a14.113,14.113,0,0,1,.4,4.324l-.507.782.371,1.139Z" transform="translate(151.466 93.553)" fill="#63ad9b"/>
        <g id="Group_29708" data-name="Group 29708" transform="translate(151.451 93.558)" opacity="0.2" style="mix-blend-mode: normal;isolation: isolate">
          <g id="Group_29707" data-name="Group 29707" transform="translate(0 0)">
            <g id="Group_29706" data-name="Group 29706" clip-path="url(#clip-path-12)">
              <path id="Path_17363" data-name="Path 17363" d="M.356,3.162a.293.293,0,0,0,.055.231A11.256,11.256,0,0,1,2.282,7.411a14.106,14.106,0,0,1,.4,4.324l-.507.783.371,1.139,1.1.135-.05.105-1.4-.171-.371-1.139.507-.783a14.11,14.11,0,0,0-.4-4.324A11.3,11.3,0,0,0,.06,3.463.293.293,0,0,1,0,3.232L.446.408C.471-.114.657-.033.833.1A.981.981,0,0,0,.8.338L.361,3.162Z" transform="translate(0 0)" fill="#989898"/>
            </g>
          </g>
        </g>
        <g id="Group_29711" data-name="Group 29711" transform="translate(153.287 105.308)" opacity="0.2" style="mix-blend-mode: normal;isolation: isolate">
          <g id="Group_29710" data-name="Group 29710" transform="translate(0 0)">
            <g id="Group_29709" data-name="Group 29709" transform="translate(0 0)" clip-path="url(#clip-path-13)">
              <path id="Path_17364" data-name="Path 17364" d="M2.338.973,1.771,2.132l-1.4-.171L0,.823.507.04A5.566,5.566,0,0,0,1.716,0l.622.968Z" transform="translate(0 0)" fill="#989898"/>
            </g>
          </g>
        </g>
        <path id="Path_17365" data-name="Path 17365" d="M.036,16.839C.542,8.171,3.437,2.613,10.153.953,13.8.05,22.362-.327,25.783.336,41.348,3.35,43.239,13.628,42.733,22.868c-.642,11.627-11.181,14.667-23.3,14.251S-.641,28.466.041,16.839Z" transform="translate(128.662 106.663)" fill="#f7e7d6"/>
        <path id="Path_17366" data-name="Path 17366" d="M16.071,2.327c5.091,1.525,13.167,5.648,17.075,8.894a16.117,16.117,0,0,0-2.217-2.674,3.7,3.7,0,0,1,2.568,2.6A21.381,21.381,0,0,0,33.066,7.4s.993.853.983,3.842a9.965,9.965,0,0,0,1.083-3.627,4.433,4.433,0,0,1-.818,4.178c2.232-2.237,10.529-6.35,12.224-6.31a15.831,15.831,0,0,1,.175,4.489c-.692,11.622-12.982,17.2-27.147,16.724S-.678,19.091.06,7.469C.145,6.094,1.384.281,2.156.045c1.179-.356,11.336,1.5,13.915,2.282" transform="translate(124.676 116.976)" fill="#e5d2c2"/>
        <path id="Path_17367" data-name="Path 17367" d="M0,.542A.542.542,0,0,1,.552,0,.558.558,0,0,1,1.1.557.539.539,0,0,1,.552,1.1.558.558,0,0,1,0,.542" transform="translate(164.975 119.729)" fill="#3d3a39"/>
        <path id="Path_17368" data-name="Path 17368" d="M0,.542A.545.545,0,0,1,.552,0,.561.561,0,0,1,1.1.557.539.539,0,0,1,.552,1.1.558.558,0,0,1,0,.542" transform="translate(145.141 116.57)" fill="#3d3a39"/>
        <path id="Path_17369" data-name="Path 17369" d="M.171,0C1.329,2.092,0,6.074,0,6.074" transform="translate(158.268 124.023)" fill="#63ad9b"/>
        <path id="Path_17370" data-name="Path 17370" d="M2.719,4.424S2.232,1.284,0,0" transform="translate(155.84 125.086)" fill="#63ad9b"/>
        <path id="Path_17371" data-name="Path 17371" d="M0,5.2S3.02,1.585,2.428,0" transform="translate(158.087 124.905)" fill="#63ad9b"/>
        <path id="Path_17372" data-name="Path 17372" d="M.014,19.317c-.316,6.531,4.851,16.1,11.933,16.628,12.55,14.662,31.531,4.013,36-2.468A21.451,21.451,0,0,0,51.158,15.5c-.065-.276-7.9,3.461-12.726,6.817-9.079-7.574-21.263-10.589-26.089-10.7.567-2.438,1.3-5.5,2.824-7.494C16.622,2.217,21.538.687,24.262,0,15.92.682.711,4.981.019,19.322Z" transform="translate(120.057 106.963)" fill="#63ad9b"/>
        <path id="Path_17373" data-name="Path 17373" d="M2.411,18.337c-1.976,5.242,1.841,12.009,3.647,13.9s4.4,2.949,5.5,2.694.933.115.978.913a2.973,2.973,0,0,0,.787,1.726c-.466-.461-.923-.953-1.374-1.48C4.869,35.557-.3,26,.013,19.46.706,5.119,12.328-.138,24.8,0c.13-.025-5.743,1.078-9.34,4.685-1.776,1.781-2.553,4.625-3.125,7.063-3.135.562-7.82.978-9.932,6.586Z" transform="translate(120.057 106.82)" fill="#5aa08c"/>
        <path id="Path_17374" data-name="Path 17374" d="M3.58.272C2.707-.375.38.051.024,2.449-.232,4.3,1.664,4.094,2.271,3.658a5.562,5.562,0,0,0,.808-.742" transform="translate(130.505 114.187)" fill="#f7e7d6"/>
        <path id="Path_17375" data-name="Path 17375" d="M.79,2.6s-.878.246-.783-.783A2.056,2.056,0,0,1,1.833,0a10.654,10.654,0,0,1-.492,1.028L.77,1.1l.346.487L.79,2.6Z" transform="translate(131.389 114.794)" fill="#e5d2c2"/>
        <path id="Path_17376" data-name="Path 17376" d="M5.045,3.5A29.191,29.191,0,0,0,.009,2.176S-.217.11,1.634,0C4.177-.141,5.045,3.5,5.045,3.5Z" transform="translate(154.271 112.141)" fill="#fc86b7"/>
        <path id="Path_17377" data-name="Path 17377" d="M1.59.816A2.189,2.189,0,0,1,0,1.047,1.547,1.547,0,0,1,1.475,0a2.469,2.469,0,0,1,.8.085A2.271,2.271,0,0,1,1.59.816" transform="translate(154.426 112.141)" fill="#ffbbda"/>
        <path id="Path_17378" data-name="Path 17378" d="M8.437,0S4.028,4.54,0,3.627C2.282,6.666,6.757,7.168,8.437,0" transform="translate(123.612 142.091)" fill="#63ad9b"/>
        <path id="Path_17379" data-name="Path 17379" d="M4.043,4.349C2.769,4.83,1.048,4.173.05,3.692A.737.737,0,0,1,0,3.627C4.028,4.54,8.437,0,8.437,0,7.283,2.142,6,3.612,4.043,4.349" transform="translate(123.612 142.091)" fill="#509180"/>
        <path id="Path_17380" data-name="Path 17380" d="M4.73,7.313c-.075-2.252-.14-5.332-1.685-5.819A5.378,5.378,0,0,0,0,1.805,19.612,19.612,0,0,1,4.078.015a24.577,24.577,0,0,1,.652,7.3" transform="translate(167.136 122.444)" fill="#5aa08c"/>
        <path id="Path_17381" data-name="Path 17381" d="M.152,6.689c.446-1.2,2.463-1.65,3.662-1.2A34.494,34.494,0,0,1,19.023.027c1.705-.161,2.669.361,3.25,2.292,0,0-14.16,4.705-15.409,5.232A2.964,2.964,0,0,0,5.584,8.72c-.446,1.2-2.929,2.117-4.128,1.67a1.972,1.972,0,0,1-.948-.858A3.665,3.665,0,0,1,.067,8.339a3.224,3.224,0,0,1,.085-1.65" transform="translate(121.789 104.593)" fill="#f7e7d6"/>
        <path id="Path_17382" data-name="Path 17382" d="M4.242,1.972s-.662,2-1.57,2.062S.344,4.28.033,3.733s1.65-.813,1.65-.813S1.313.839,2.928.126,4.242,1.977,4.242,1.977Z" transform="translate(123.077 111.481)" fill="#f7e7d6"/>
        <path id="Path_17383" data-name="Path 17383" d="M.037,3.707l.045.06c.226-.747,1.68-.657,1.68-.657S1.392,1.028,3.007.316A.869.869,0,0,1,4.176.677C4.035.166,3.719-.186,2.937.105c-1.279.472-1.7,2.674-1.7,2.674s-1.5.391-1.194.938Z" transform="translate(123.013 111.402)" fill="#e5d2c2"/>
        <path id="Path_17384" data-name="Path 17384" d="M.441,3.75c.01.085.487.09.732-.657A3.294,3.294,0,0,0,.983.545C.567.063,0-.057,0,.023S.517.2.858.65c.472.622.16,1.956-.06,2.488-.311.737-.376.471-.356.612" transform="translate(123.516 110.542)" fill="#e5d2c2"/>
        <path id="Path_17385" data-name="Path 17385" d="M14.25,4.444s-4.1,1.49-9.962,3.882a2.607,2.607,0,0,1-.306-.145l-.04.286s-.04.321-.276.336a4.114,4.114,0,0,1-1.806.1C1.093,8.211.832,6.11.225,5.157c-.7-1.109.462-1.369.462-1.369a7.7,7.7,0,0,1,1.129-.7.723.723,0,0,1,.632.06c.025.015.155.171.181.166.08-.015.105-.06.115-.226A55.13,55.13,0,0,1,12.475,0a5.368,5.368,0,0,1,1.781,4.439Z" transform="translate(133.118 101.707)" fill="#aecce8"/>
        <path id="Path_17386" data-name="Path 17386" d="M0,.06c.211.988.351,3.24.858,4.193.206.381.447.747.642,1.139.045-.115.065-.226.025-.231.06.01.251.07.316.08C1.711,4.991,1.44,4.7,1.3,4.454A3.976,3.976,0,0,1,.692,2.287C.692,1.946.366.321.3,0L.181.156,0,.06Z" transform="translate(135.56 104.796)" fill="#7496b8"/>
        <path id="Path_17387" data-name="Path 17387" d="M.441,1.7c.451-.552.923-1.053,1.41-1.57.07-.075-.055-.176-.125-.1A24.979,24.979,0,0,0,0,1.873c.1-.035.406-.166.441-.176" transform="translate(140.757 106.831)" fill="#7496b8"/>
        <path id="Path_17388" data-name="Path 17388" d="M12.809.143s-.727-.487-3.366.336A58.23,58.23,0,0,0,2.892,2.8s-.125.025-.246.246c-.386-.236-.547-.2-.547-.2s-.135-.11-.772.311c-.552.366-.793.492-.793.492S-.358,3.87.164,4.828a15.5,15.5,0,0,1,2.573-1,9.559,9.559,0,0,1,1.721-.767,13.514,13.514,0,0,0,2.287-1.2,18.46,18.46,0,0,1,3.7-1.314,9.065,9.065,0,0,1,1.5-.316c.7.02.848-.08.848-.08Z" transform="translate(133.094 101.915)" fill="#7496b8"/>
      </g>
      <rect id="Rectangle_21368" data-name="Rectangle 21368" width="188.34" height="150.281" transform="translate(0)" fill="none"/>
    </g>
  </g>
</svg>
