<svg id="圖層_1" data-name="圖層 1" xmlns="http://www.w3.org/2000/svg" xmlns:xlink="http://www.w3.org/1999/xlink" viewBox="0 0 76.7 51.08"><defs><style>.cls-1{fill:none;}.cls-2{clip-path:url(#clip-path);}.cls-3{fill:#f6c352;}.cls-4{fill:#e07e6d;}.cls-5{fill:#fff;}</style><clipPath id="clip-path"><rect class="cls-1" x="-1.64" y="-2.47" width="80" height="53"/></clipPath></defs><g class="cls-2"><g id="Mask_Group_2" data-name="Mask Group 2"><g id="Group_5640" data-name="Group 5640"><g id="Group_4726" data-name="Group 4726"><g id="Group_4724" data-name="Group 4724"><path id="Path_41098" data-name="Path 41098" class="cls-3" d="M56.65,19.4H17.79c-2.56,0-5.32,2.37-6.16,5.29L5.32,46.9c-.83,2.9.59,5.28,3.15,5.28H47.32c2.57,0,5.33-2.38,6.16-5.29L59.8,24.68C60.62,21.77,59.21,19.4,56.65,19.4Z"/></g><g id="Group_4725" data-name="Group 4725"><path id="Path_41099" data-name="Path 41099" class="cls-3" d="M5.49,13.31A1.71,1.71,0,0,1,7.31,11.9H35.94A2.37,2.37,0,0,0,38.3,9.53V7a1.72,1.72,0,0,1,1.82-1.42H51.85A1.72,1.72,0,0,1,53.67,7V9.5a2.36,2.36,0,0,0,4.72.09V9.5h0V7A6.36,6.36,0,0,0,51.85.87H40.12A6.38,6.38,0,0,0,33.58,7v.16H7.32A6.38,6.38,0,0,0,.76,13.31V37.85a2.37,2.37,0,0,0,4.73,0Z"/></g></g><circle id="Ellipse_71" data-name="Ellipse 71" class="cls-4" cx="59.46" cy="31.57" r="15.84"/><path id="check" class="cls-5" d="M54,37.66l-3.79-8.92a1.07,1.07,0,0,1,.56-1.39l1.94-.82a1.06,1.06,0,0,1,1.39.56l2.55,6,12.87-5.47a1.07,1.07,0,0,1,1.39.56l.82,1.94a1.06,1.06,0,0,1-.56,1.39l-15.78,6.7A1.07,1.07,0,0,1,54,37.66Z"/></g></g></g></svg>