<svg xmlns="http://www.w3.org/2000/svg" width="22.143" height="22.617" viewBox="0 0 22.143 22.617">
  <g id="Group_6303" data-name="Group 6303" transform="translate(8.143 -7.298)">
    <g id="Group_6264" data-name="Group 6264" transform="translate(6555.668 6793.298)">
      <path id="tasks" d="M8.977,37.746H27.593a.926.926,0,0,0,.923-.923V34.515a.926.926,0,0,0-.923-.923H8.977a.926.926,0,0,0-.923.923v2.308A.926.926,0,0,0,8.977,37.746Zm0,7.231H20.593a.926.926,0,0,0,.923-.923V41.746a.926.926,0,0,0-.923-.923H8.977a.926.926,0,0,0-.923.923v2.308A.926.926,0,0,0,8.977,44.977Zm0,8.231h7.616a.926.926,0,0,0,.923-.923V49.977a.926.926,0,0,0-.923-.923H8.977a.926.926,0,0,0-.923.923v2.308A.926.926,0,0,0,8.977,53.208Z" transform="translate(-6571.865 -6819.592)" fill="#00829b"/>
      <path id="upload" d="M5.51,16.84H3.428a.623.623,0,0,1-.625-.625V5H.521a.52.52,0,0,1-.367-.888L4.112.146a.5.5,0,0,1,.711,0L8.784,4.108A.52.52,0,0,1,8.417,5H6.135v11.22A.623.623,0,0,1,5.51,16.84Z" transform="translate(-6541.668 -6763.383) rotate(180)" fill="#00829b"/>
    </g>
  </g>
</svg>
