<svg xmlns="http://www.w3.org/2000/svg" viewBox="0 0 20 20.01"><defs><style>.cls-1{fill:#fff;}</style></defs><g id="圖層_3" data-name="圖層 3"><path id="envelope-open" class="cls-1" d="M19.21,17.16a1.7,1.7,0,0,1-1.7,1.7H2.78a1.7,1.7,0,0,1-1.7-1.7h0V7.84a1.73,1.73,0,0,1,.66-1.33c.88-.69,1.61-1.25,5.81-4.3C8.14,1.77,9.32.73,10.15.74s2,1,2.6,1.47c4.2,3.05,4.93,3.61,5.81,4.3a1.69,1.69,0,0,1,.65,1.33Zm-2.33-6.95a.28.28,0,0,0-.39-.08h0c-.8.6-2,1.44-3.73,2.73-.6.43-1.78,1.48-2.6,1.46s-2-1-2.6-1.46L3.81,10.14a.28.28,0,0,0-.39.06h0l-.33.46a.29.29,0,0,0,.07.39c.81.6,2,1.44,3.73,2.72.71.52,2,1.69,3.26,1.69s2.55-1.16,3.27-1.69l3.73-2.72a.28.28,0,0,0,.06-.39Z"/></g></svg>