<svg xmlns="http://www.w3.org/2000/svg" xmlns:xlink="http://www.w3.org/1999/xlink" width="22" height="21" viewBox="0 0 22 21">
  <defs>
    <clipPath id="clip-button_eye_off">
      <rect width="22" height="21"/>
    </clipPath>
  </defs>
  <g id="button_eye_off" clip-path="url(#clip-button_eye_off)">
    <g id="Icon_feather-eye-off" data-name="Icon feather-eye-off" transform="translate(-0.5 -0.5)">
      <path id="Path_11460" data-name="Path 11460" d="M16.13,18.039A8.7,8.7,0,0,1,11,19.818c-6.045,0-9.5-6.909-9.5-6.909a15.934,15.934,0,0,1,4.37-5.13M9.186,6.207A7.876,7.876,0,0,1,11,6c6.045,0,9.5,6.909,9.5,6.909a15.977,15.977,0,0,1-1.865,2.755m-5.8-.924a2.591,2.591,0,1,1-3.662-3.662" transform="translate(0 -1.909)" fill="none" stroke="#000" stroke-linecap="round" stroke-linejoin="round" stroke-width="1.5"/>
      <path id="Path_11461" data-name="Path 11461" d="M1.5,1.5l19,19" transform="translate(0 0)" fill="none" stroke="#000" stroke-linecap="round" stroke-linejoin="round" stroke-width="1.5"/>
    </g>
  </g>
</svg>
