<svg id="圖層_1" data-name="圖層 1" xmlns="http://www.w3.org/2000/svg" viewBox="0 0 26.92 22.85"><defs><style>.cls-1{fill:#fff;}</style></defs><path id="sitemap" class="cls-1" d="M5.71,15H1.87A1.28,1.28,0,0,0,.59,16.24v3.84a1.29,1.29,0,0,0,1.28,1.28H5.71A1.28,1.28,0,0,0,7,20.08V16.24A1.27,1.27,0,0,0,5.71,15Zm-1-3.2h7.67v1.92h1.91V11.77H22v1.92h1.92v-2.3a1.55,1.55,0,0,0-1.53-1.54h-8V7.3h1.6A1.28,1.28,0,0,0,17.21,6h0V2.19A1.28,1.28,0,0,0,15.93.91H10.82A1.28,1.28,0,0,0,9.54,2.19V6A1.28,1.28,0,0,0,10.82,7.3h1.6V9.85H4.36a1.55,1.55,0,0,0-1.53,1.54v2.3H4.75ZM15.29,15H11.46a1.27,1.27,0,0,0-1.28,1.27v3.84a1.28,1.28,0,0,0,1.28,1.28h3.83a1.28,1.28,0,0,0,1.28-1.28V16.24A1.27,1.27,0,0,0,15.29,15Zm9.59,0H21a1.28,1.28,0,0,0-1.28,1.27v3.84A1.29,1.29,0,0,0,21,21.36h3.83a1.28,1.28,0,0,0,1.28-1.28V16.24A1.27,1.27,0,0,0,24.87,15Z"/></svg>