<svg xmlns="http://www.w3.org/2000/svg" width="33" height="33" viewBox="0 0 33 33">
  <g id="Group_6324" data-name="Group 6324" transform="translate(4553 4982)">
    <g id="Rectangle_3515" data-name="Rectangle 3515" transform="translate(-4553 -4982)" fill="#fff" stroke="#00829b" stroke-width="1.5">
      <rect width="33" height="33" rx="16.5" stroke="none"/>
      <rect x="0.75" y="0.75" width="31.5" height="31.5" rx="15.75" fill="none"/>
    </g>
    <g id="Group_6317" data-name="Group 6317" transform="translate(38.973 -0.027)">
      <path id="Path_41779" data-name="Path 41779" d="M16.24,14.093a6.111,6.111,0,0,0-3.282-2.114,4.209,4.209,0,1,0-3.743,0c-2.593.67-4.613,2.853-5.192,7.039A2.293,2.293,0,0,0,6.29,21.632h4.927" transform="translate(-4588.973 -4979.973)" fill="none" stroke="#00829b" stroke-linecap="round" stroke-linejoin="round" stroke-width="2"/>
      <path id="Path_41780" data-name="Path 41780" d="M51.21,56.5a4.527,4.527,0,1,1-4.527-4.527A4.527,4.527,0,0,1,51.21,56.5Z" transform="translate(-4617.656 -5015.63)" fill="#00829b" stroke="#00829b" stroke-linecap="round" stroke-linejoin="round" stroke-width="2"/>
      <line id="Line_2264" data-name="Line 2264" x1="5" transform="translate(-4573.5 -4959.126)" fill="none" stroke="#fff" stroke-linecap="round" stroke-linejoin="round" stroke-width="2"/>
    </g>
  </g>
</svg>
