<svg id="圖層_1" data-name="圖層 1" xmlns="http://www.w3.org/2000/svg" viewBox="0 0 29.75 21.58"><defs><style>.cls-1,.cls-2,.cls-5{fill:#e07e6d;}.cls-2,.cls-3,.cls-4,.cls-5{stroke:#e07e6d;stroke-linecap:round;}.cls-2,.cls-3{stroke-linejoin:round;stroke-width:1.5px;}.cls-3,.cls-4{fill:none;}</style></defs><g id="Group_5633" data-name="Group 5633"><g id="Group_765" data-name="Group 765"><path id="Path_224" data-name="Path 224" class="cls-1" d="M17.22.79h.2A1.21,1.21,0,0,1,18.62,2V17.71a1.22,1.22,0,0,1-1.2,1.21h-.2c-.67,0-4.84-6.16-9.3-6.16H2.37A1.65,1.65,0,0,1,.73,11.12V8.58A1.64,1.64,0,0,1,2.37,7H7.92C12.38,7,16.55.79,17.22.79Z"/><path id="Path_225" data-name="Path 225" class="cls-2" d="M18.61,6.91a3.06,3.06,0,0,1,0,5.88"/><line id="Line_1151" data-name="Line 1151" class="cls-3" x1="8.03" y1="6.95" x2="8.03" y2="12.76"/><path id="Path_226" data-name="Path 226" class="cls-2" d="M6.7,12.76c.22,1.28-.1,2.62.68,3.85L8.7,18.69a1,1,0,0,1-.56,1.36.73.73,0,0,1-.24.07h-2A1.49,1.49,0,0,1,4.53,19L3.05,12.76Z"/></g><g id="Group_824" data-name="Group 824"><line id="Line_1171" data-name="Line 1171" class="cls-4" x1="23.78" y1="7.62" x2="28.06" y2="4.94"/><path id="Path_6655" data-name="Path 6655" class="cls-5" d="M23.78,12.44l4.28,1.63"/><line id="Line_1174" data-name="Line 1174" class="cls-4" x1="23.78" y1="10.03" x2="28.38" y2="10.03"/></g></g></svg>