<svg xmlns="http://www.w3.org/2000/svg" viewBox="0 0 21.12 23.76"><defs><style>.cls-1{fill:#fff;}</style></defs><g id="查核行前規劃"><path id="copy" class="cls-1" d="M19.75,3.49,17.48,1.22A2.09,2.09,0,0,0,16,.61H8.48a2.1,2.1,0,0,0-2.1,2.1h0v2.1H2.89A2.09,2.09,0,0,0,.79,6.9v14A2.1,2.1,0,0,0,2.89,23h9.79a2.1,2.1,0,0,0,2.1-2.1h0v-2.1h3.5a2.1,2.1,0,0,0,2.1-2.1h0V5a2.07,2.07,0,0,0-.62-1.48ZM12.41,20.88H3.15a.25.25,0,0,1-.26-.26V7.16a.26.26,0,0,1,.26-.26H6.38v9.79a2.1,2.1,0,0,0,2.1,2.1h4.2v1.83a.26.26,0,0,1-.27.26ZM18,16.69H8.74a.26.26,0,0,1-.26-.26h0V3a.26.26,0,0,1,.26-.26h4.63V6.55a1,1,0,0,0,1.05,1h3.85v8.83a.26.26,0,0,1-.26.26ZM18.27,5.5h-2.8V2.71h.42a.29.29,0,0,1,.18.07L18.19,4.9a.23.23,0,0,1,.08.18Z"/></g></svg>