<svg xmlns="http://www.w3.org/2000/svg" viewBox="0 0 24.65 22.19"><defs><style>.cls-1{fill:#0c7d94;}</style></defs><g id="圖層_3" data-name="圖層 3"><path id="save" class="cls-1" d="M21.89,5.64,18.08,1.83a2.17,2.17,0,0,0-1.54-.64H4.37A2.19,2.19,0,0,0,2.19,3.37h0v16a2.18,2.18,0,0,0,2.18,2.18h16a2.18,2.18,0,0,0,2.18-2.18h0V7.18a2.15,2.15,0,0,0-.64-1.54Zm-9.53,13a2.9,2.9,0,1,1,2.9-2.9,2.9,2.9,0,0,1-2.9,2.9ZM16.72,4.8V9.36a.55.55,0,0,1-.55.55H5.64a.55.55,0,0,1-.54-.55V4.64a.54.54,0,0,1,.54-.54H16a.51.51,0,0,1,.39.16l.16.15A.57.57,0,0,1,16.72,4.8Z"/></g></svg>