<svg xmlns="http://www.w3.org/2000/svg" viewBox="0 0 24.65 22.19"><defs><style>.cls-1{fill:#fff;}</style></defs><g id="圖層_3" data-name="圖層 3"><path id="save" class="cls-1" d="M21.89,5.68,18.08,1.87a2.2,2.2,0,0,0-1.54-.63H4.37A2.18,2.18,0,0,0,2.19,3.41h0v16a2.19,2.19,0,0,0,2.18,2.18h16a2.19,2.19,0,0,0,2.18-2.18h0V7.22a2.17,2.17,0,0,0-.64-1.54Zm-9.53,13a2.9,2.9,0,1,1,2.9-2.9,2.9,2.9,0,0,1-2.9,2.9ZM16.72,4.84V9.41a.55.55,0,0,1-.55.54H5.64a.54.54,0,0,1-.54-.54V4.69a.54.54,0,0,1,.54-.55H16a.55.55,0,0,1,.39.16l.16.16A.55.55,0,0,1,16.72,4.84Z"/></g></svg>