<svg xmlns="http://www.w3.org/2000/svg" viewBox="0 0 17.3 19.59"><defs><style>.cls-1{fill:#0c7d94;}</style></defs><g id="系統設定"><path id="paperclip" class="cls-1" d="M2.13,17.32a5.65,5.65,0,0,1,.05-7.85L9.74,1.74a4,4,0,0,1,5.71-.09l.08.09a4.18,4.18,0,0,1,0,5.85L8.94,14.32a2.69,2.69,0,0,1-3.8.06l-.09-.09a2.8,2.8,0,0,1,0-3.86l5.18-5.29a.58.58,0,0,1,.82,0h0l.82.81a.56.56,0,0,1,0,.81h0l-5.18,5.3a.48.48,0,0,0,0,.66.38.38,0,0,0,.54,0l0,0L13.89,6a1.9,1.9,0,0,0,0-2.62,1.74,1.74,0,0,0-2.45-.05l0,.05L3.83,11.09a3.33,3.33,0,0,0,0,4.62,3.07,3.07,0,0,0,4.34.1l.09-.09,6.2-6.34a.57.57,0,0,1,.82,0h0l.82.8a.57.57,0,0,1,0,.82h0l-6.2,6.34a5.38,5.38,0,0,1-7.61.12l-.13-.13Z"/></g></svg>