<svg xmlns="http://www.w3.org/2000/svg" viewBox="0 0 24.03 24.17"><defs><style>.cls-1{fill:#c7c7c7;}</style></defs><g id="查核行前規劃"><path id="Fill_1" data-name="Fill 1" class="cls-1" d="M20.07,6H4.74V21.89H20.07v1.77H4.74c-1,0-1.77-.58-1.77-1.18V6H1.5a.88.88,0,0,1-.92-.85.9.9,0,0,1,.86-.92H7.1V2.43c0-1,.6-1.77,1.25-1.77h8.12c.65,0,1.24.8,1.24,1.77V4.2h5a.89.89,0,0,1,0,1.77h-.89V22.48c0,.6-.8,1.18-1.77,1.18ZM16,4.2V2.43H8.87V4.2Zm0,13.86V9.21a.88.88,0,0,1,.85-.91.89.89,0,0,1,.92.85v8.91a.9.9,0,0,1-.92.86.89.89,0,0,1-.85-.86Zm-4.72,0V9.21a.88.88,0,0,1,.85-.91.89.89,0,0,1,.92.85v8.91a.9.9,0,0,1-.92.86.89.89,0,0,1-.85-.86Zm-4.13,0V9.21a.89.89,0,0,1,1.77,0h0v8.85a.89.89,0,1,1-1.77,0Z"/></g></svg>