<svg xmlns="http://www.w3.org/2000/svg" viewBox="0 0 20 20.01"><defs><style>.cls-1,.cls-2{fill:#0c7d94;}.cls-1{fill-opacity:0;}.cls-3{fill:#fff;}</style></defs><g id="查核行前規劃"><g id="Group_6118" data-name="Group 6118"><rect id="矩形" class="cls-1" x="-0.89" y="-0.96" width="22" height="22"/><path id="路径" class="cls-2" d="M19,12.48l-1.41-1.2a7.37,7.37,0,0,0,0-2.48L19,7.6a.69.69,0,0,0,.2-.76l0-.06a9.24,9.24,0,0,0-1.71-3l0,0a.67.67,0,0,0-.75-.2l-1.75.62A7.77,7.77,0,0,0,12.77,3l-.34-1.83a.68.68,0,0,0-.55-.55h-.06A9.82,9.82,0,0,0,8.4.56H8.34a.68.68,0,0,0-.55.55L7.45,3A7.68,7.68,0,0,0,5.32,4.19L3.56,3.57a.67.67,0,0,0-.75.2l0,0a9.67,9.67,0,0,0-1.71,3l0,0a.69.69,0,0,0,.2.76L2.66,8.81a7.74,7.74,0,0,0,0,2.45L1.24,12.48a.67.67,0,0,0-.2.75l0,.06a9.74,9.74,0,0,0,1.71,3l0,.05a.71.71,0,0,0,.75.2l1.76-.63a7.47,7.47,0,0,0,2.13,1.24l.34,1.83a.69.69,0,0,0,.55.56H8.4a9.82,9.82,0,0,0,3.42,0h0a.69.69,0,0,0,.56-.55l.33-1.83a7.44,7.44,0,0,0,2.15-1.24l1.74.62a.69.69,0,0,0,.76-.2l0,0a9.74,9.74,0,0,0,1.71-3l0-.06a.7.7,0,0,0-.2-.75Z"/><path id="路径-2" class="cls-3" d="M10.11,6a3.78,3.78,0,1,0,3.78,3.78A3.78,3.78,0,0,0,10.11,6Z"/><path id="路径-3" class="cls-2" d="M11.81,11.52a2.41,2.41,0,1,1,0-3.27,2.42,2.42,0,0,1,0,3.27Z"/></g></g></svg>