<svg id="圖層_1" data-name="圖層 1" xmlns="http://www.w3.org/2000/svg" viewBox="0 0 28.5 28.94"><defs><style>.cls-1{fill:#fff;}</style></defs><path id="volume-down" class="cls-1" d="M16.1,2.21,10,8.32H3A1.64,1.64,0,0,0,1.33,10h0v9.89A1.64,1.64,0,0,0,3,21.51h7l6.11,6.12a1.64,1.64,0,0,0,2.33,0,1.63,1.63,0,0,0,.48-1.16V3.38a1.65,1.65,0,0,0-1.65-1.65A1.63,1.63,0,0,0,16.1,2.21Zm8.46,7.43A1.65,1.65,0,1,0,23,12.53h0a2.71,2.71,0,0,1,1.12,3.66A2.63,2.63,0,0,1,23,17.31a1.65,1.65,0,0,0,1.59,2.89A6,6,0,0,0,27,12.06a5.88,5.88,0,0,0-2.42-2.42Z"/></svg>