<svg xmlns="http://www.w3.org/2000/svg" viewBox="0 0 28.2 28.62"><defs><style>.cls-1{fill:#ffffff;}.cls-2{fill:none;stroke:#0c7d94;stroke-width:1.5px;}.cls-3{fill:#0c7d94;}</style></defs><g id="small"><g id="Group_5639" data-name="Group 5639"><g id="Rectangle_2859" data-name="Rectangle 2859"><path class="cls-1" d="M14,.81h0a13.49,13.49,0,0,1,13.5,13.5h0A13.5,13.5,0,0,1,14,27.81h0A13.51,13.51,0,0,1,.53,14.31h0A13.5,13.5,0,0,1,14,.81Z"/><path class="cls-2" d="M14,1.56h0A12.75,12.75,0,0,1,26.78,14.31h0A12.75,12.75,0,0,1,14,27.06h0A12.75,12.75,0,0,1,1.28,14.31h0A12.75,12.75,0,0,1,14,1.56Z"/></g><g id="Group_5329" data-name="Group 5329"><path id="upload" class="cls-3" d="M3.53,15.69v-2.6a.78.78,0,0,1,.78-.78H7.77V9.46a.65.65,0,0,1,.64-.65A.68.68,0,0,1,8.88,9l4.94,4.94a.64.64,0,0,1,0,.89L8.88,19.77a.65.65,0,0,1-.92,0,.7.7,0,0,1-.19-.47V16.47H4.31a.78.78,0,0,1-.78-.78Z"/><path id="upload-2" class="cls-3" d="M25.05,13.09v2.6a.77.77,0,0,1-.77.78H20.82v2.84a.65.65,0,0,1-.65.65.66.66,0,0,1-.46-.19l-4.94-4.94a.62.62,0,0,1,0-.89L19.71,9a.65.65,0,0,1,.92,0,.66.66,0,0,1,.19.46v2.85h3.45a.77.77,0,0,1,.78.77Z"/></g></g></g></svg>