<svg xmlns="http://www.w3.org/2000/svg" viewBox="0 0 25.74 25.63"><defs><style>.cls-1{fill:none;}.cls-2{opacity:1;}.cls-3{fill:#c7c7c7;}</style></defs><g id="查核行前規劃"><path id="Path_378" data-name="Path 378" class="cls-1" d="M23.65-1.39H53V28H23.65Z"/><g id="Group_9_Copy_2" data-name="Group 9 Copy 2" class="cls-2"><rect id="Rectangle_7" data-name="Rectangle 7" class="cls-1" x="-0.64" y="0.68" width="25.76" height="25.76"/><path id="Shape" class="cls-3" d="M21,13.36a.91.91,0,0,0-.91.91h0a.34.34,0,0,0,0,.1h0V23H2.78V5.71h9.46a.91.91,0,1,0,0-1.81H2.78A1.81,1.81,0,0,0,1,5.71H1V23a1.82,1.82,0,0,0,1.81,1.82H20.09A1.81,1.81,0,0,0,21.9,23h0V14.37h0v-.1a.9.9,0,0,0-.9-.91Z"/><path id="Shape-2" class="cls-3" d="M7.52,18.27a.81.81,0,0,1-.17-.89l2.51-5.92A.9.9,0,0,1,10,11.2l10-10a1.82,1.82,0,0,1,2.56,0l2,2a1.82,1.82,0,0,1,0,2.57l-10,10a.72.72,0,0,1-.25.18l-5.92,2.5a.71.71,0,0,1-.32.07A.8.8,0,0,1,7.52,18.27Z"/></g></g></svg>