<svg xmlns="http://www.w3.org/2000/svg" viewBox="0 0 55.71 55.57"><defs><style>.cls-1{fill:#e08f81;opacity:0.7;}.cls-1,.cls-2,.cls-3{isolation:isolate;}.cls-3{font-size:14px;font-family:PingFangTC-Medium-B5pc-H, PingFang TC;}.cls-3,.cls-4{fill:#fff;}</style></defs><g id="圖層_8" data-name="圖層 8"><circle id="Oval_3" data-name="Oval 3" class="cls-1" cx="28.04" cy="28" r="27"/><g id="暫存" class="cls-2"><text class="cls-3" transform="translate(14.04 44.47)">暫存</text></g><path id="save" class="cls-4" d="M37.73,12.58,33.92,8.77a2.17,2.17,0,0,0-1.54-.64H20.21A2.18,2.18,0,0,0,18,10.31h0v16a2.18,2.18,0,0,0,2.17,2.18h16a2.19,2.19,0,0,0,2.18-2.18h0V14.12a2.17,2.17,0,0,0-.64-1.54Zm-9.53,13a2.9,2.9,0,1,1,2.9-2.9,2.9,2.9,0,0,1-2.9,2.9Zm4.36-13.82V16.3a.55.55,0,0,1-.55.55H21.48a.55.55,0,0,1-.54-.55V11.58a.54.54,0,0,1,.54-.54H31.86a.55.55,0,0,1,.38.16l.16.16A.55.55,0,0,1,32.56,11.74Z"/></g></svg>