<svg xmlns="http://www.w3.org/2000/svg" xmlns:xlink="http://www.w3.org/1999/xlink" viewBox="0 0 73.37 72.52"><defs><style>.cls-1{fill:none;}.cls-2{clip-path:url(#clip-path);}.cls-3{fill:#e72933;}.cls-4{fill:#fff;fill-opacity:0;}</style><clipPath id="clip-path"><rect class="cls-1" x="1.41" y="1.26" width="69.65" height="69.66"/></clipPath></defs><g id="圖層_10" data-name="圖層 10"><g id="close-circle"><path id="Clip_2-2" data-name="Clip 2-2" class="cls-1" d="M1.41,1.26V70.92H71.06V1.26Z"/><g class="cls-2"><g id="close-circle-2"><path id="Fill_1" data-name="Fill 1" class="cls-3" d="M36.23,70.92a34.76,34.76,0,1,1,13.56-2.74A34.84,34.84,0,0,1,36.23,70.92Zm0-31.36h0L46.72,50.08a2.45,2.45,0,0,0,4.18-1.72,2.42,2.42,0,0,0-.71-1.74L39.68,36.09,50.19,25.54a2.45,2.45,0,1,0-3.47-3.45L36.23,32.62,25.73,22.09a2.45,2.45,0,0,0-3.47,3.46h0L32.78,36.09,22.26,46.62A2.45,2.45,0,0,0,24,50.8a2.43,2.43,0,0,0,1.73-.72l10.5-10.52Z"/></g></g></g></g><g id="圖層_9" data-name="圖層 9"><rect id="Rectangle_20" data-name="Rectangle 20" class="cls-4" x="1.41" y="1.26" width="72" height="72"/></g></svg>