<svg xmlns="http://www.w3.org/2000/svg" viewBox="0 0 20 20.63"><defs><style>.cls-1,.cls-2{fill:#fff;}.cls-2{stroke:#fff;stroke-linecap:round;stroke-width:2px;}</style></defs><g id="系統設定"><g id="Group_6402" data-name="Group 6402"><g id="Group_6401" data-name="Group 6401"><g id="Group_6341" data-name="Group 6341"><path id="sticky-note" class="cls-1" d="M19.1,14.16v-11a2,2,0,0,0-2-2H2.69a2,2,0,0,0-2,2h0V17.6a2,2,0,0,0,2,2h11A2,2,0,0,0,15.08,19l3.44-3.44a2,2,0,0,0,.58-1.4Zm-5.25,3.28V14.32H17ZM17.13,3.16v9.19H12.86a1,1,0,0,0-1,1h0V17.6H2.69V3.16Z"/></g></g><path id="Path_41738" data-name="Path 41738" class="cls-2" d="M5.22,7.07h10"/><path id="Path_41739" data-name="Path 41739" class="cls-2" d="M5.22,13.07h5"/></g></g></svg>