<svg xmlns="http://www.w3.org/2000/svg" viewBox="0 0 21.57 21.78"><defs><style>.cls-1{fill:#abaaaa;}</style></defs><g id="查核行前規劃"><g id="Group_5496" data-name="Group 5496"><path id="Path_40992" data-name="Path 40992" class="cls-1" d="M10.57,17.27a.47.47,0,0,0,.67.07.23.23,0,0,0,.07-.07l7.2-8.4c.21-.24.15-.44-.14-.44h-3a.57.57,0,0,1-.51-.63V1.44a.57.57,0,0,0-.52-.63H7.53A.57.57,0,0,0,7,1.44V7.8a.57.57,0,0,1-.51.63h-3c-.29,0-.35.2-.15.44Z"/><path id="Path_40993" data-name="Path 40993" class="cls-1" d="M19,13.26v5.51H2.9V13.26h-2v7.81h20V13.26Z"/></g></g></svg>