<svg xmlns="http://www.w3.org/2000/svg" viewBox="0 0 24.65 24.28"><defs><style>.cls-1{fill:#fff;}.cls-2{fill:none;stroke:#fff;}.cls-3{fill:#0c7d94;}</style></defs><g id="圖層_3" data-name="圖層 3"><g id="Group_5642" data-name="Group 5642"><g id="Ellipse_80" data-name="Ellipse 80"><circle class="cls-1" cx="12.36" cy="11.98" r="11.5"/><circle class="cls-2" cx="12.36" cy="11.98" r="11"/></g><path id="download" class="cls-3" d="M19.39,10.47v3a.91.91,0,0,1-.91.91H12.12v3.31a.75.75,0,0,1-.75.76.77.77,0,0,1-.54-.22L5.07,12.5a.74.74,0,0,1,0-1l5.76-5.76a.76.76,0,0,1,1.07,0,.77.77,0,0,1,.22.54V9.56h6.36a.91.91,0,0,1,.91.91Z"/></g></g></svg>