<svg xmlns="http://www.w3.org/2000/svg" xmlns:xlink="http://www.w3.org/1999/xlink" width="20" height="20" viewBox="0 0 20 20">
  <defs>
    <clipPath id="clip-button__pieChart_gray">
      <rect width="20" height="20"/>
    </clipPath>
  </defs>
  <g id="button__pieChart_gray" data-name="button_ pieChart_gray" clip-path="url(#clip-button__pieChart_gray)">
    <g id="Group_18586" data-name="Group 18586" transform="translate(-2 -1.982)">
      <path id="Path_12621" data-name="Path 12621" d="M0,0H24V24H0Z" fill="none"/>
      <path id="Path_12622" data-name="Path 12622" d="M10,3.2A9,9,0,1,0,20.8,14a1,1,0,0,0-1-1H13a2,2,0,0,1-2-2V4a.9.9,0,0,0-1-.8" transform="translate(0 0)" fill="none" stroke="#b7b7b7" stroke-linecap="round" stroke-linejoin="round" stroke-width="1.5"/>
      <path id="Path_12623" data-name="Path 12623" d="M15,3.5A9,9,0,0,1,20.5,9H16a1,1,0,0,1-1-1V3.5" transform="translate(-0.185 0.185)" fill="none" stroke="#b7b7b7" stroke-linecap="round" stroke-linejoin="round" stroke-width="1.5"/>
    </g>
  </g>
</svg>
