<svg xmlns="http://www.w3.org/2000/svg" xmlns:xlink="http://www.w3.org/1999/xlink" width="40" height="40" viewBox="0 0 40 40">
  <defs>
    <clipPath id="clip-image_byData">
      <rect width="40" height="40"/>
    </clipPath>
  </defs>
  <g id="image_byData" clip-path="url(#clip-image_byData)">
    <g id="Group_18959" data-name="Group 18959" transform="translate(-983 -1188)">
      <rect id="Rectangle_6856" data-name="Rectangle 6856" width="40" height="40" rx="20" transform="translate(983 1188)" fill="#7dc9cf"/>
      <g id="Group_18856" data-name="Group 18856" transform="translate(987 1192)">
        <path id="Path_12666" data-name="Path 12666" d="M0,0H32V32H0Z" fill="none"/>
        <path id="Path_12667" data-name="Path 12667" d="M10.333,5H7.667A2.667,2.667,0,0,0,5,7.667v16a2.667,2.667,0,0,0,2.667,2.667H21a2.667,2.667,0,0,0,2.667-2.667v-16A2.667,2.667,0,0,0,21,5H18.333" transform="translate(1.667 1.667)" fill="none" stroke="#fff" stroke-linecap="round" stroke-linejoin="round" stroke-width="2"/>
        <rect id="Rectangle_6854" data-name="Rectangle 6854" width="8" height="5" rx="2" transform="translate(12 4)" fill="none" stroke="#fff" stroke-linecap="round" stroke-linejoin="round" stroke-width="1.5"/>
        <path id="Path_12668" data-name="Path 12668" d="M9,14h.013" transform="translate(3 4.667)" fill="none" stroke="#fff" stroke-linecap="round" stroke-linejoin="round" stroke-width="1.5"/>
        <path id="Path_12669" data-name="Path 12669" d="M9,17h.013" transform="translate(3 5.667)" fill="none" stroke="#fff" stroke-linecap="round" stroke-linejoin="round" stroke-width="1.5"/>
        <path id="Path_12670" data-name="Path 12670" d="M12,16.667,13.333,18l4-4" transform="translate(4 4.667)" fill="none" stroke="#fff" stroke-linecap="round" stroke-linejoin="round" stroke-width="1.5"/>
      </g>
    </g>
  </g>
</svg>
