<svg xmlns="http://www.w3.org/2000/svg" xmlns:xlink="http://www.w3.org/1999/xlink" width="75" height="70" viewBox="0 0 75 70">
  <defs>
    <clipPath id="clip-path">
      <rect id="Rectangle_6800" data-name="Rectangle 6800" width="75" height="80" rx="4" transform="translate(875 466)" fill="none" stroke="#d9d9d9" stroke-width="1"/>
    </clipPath>
    <clipPath id="clip-image_face">
      <rect width="75" height="70"/>
    </clipPath>
  </defs>
  <g id="image_face" clip-path="url(#clip-image_face)">
    <g id="Mask_Group_46" data-name="Mask Group 46" transform="translate(-875 -466)" clip-path="url(#clip-path)">
      <path id="Icon_material-face" data-name="Icon material-face" d="M33.763,45.848a5.493,5.493,0,1,0,5.493,5.493A5.5,5.5,0,0,0,33.763,45.848Zm26.368,0a5.493,5.493,0,1,0,5.493,5.493A5.5,5.5,0,0,0,60.131,45.848ZM46.947,3A43.947,43.947,0,1,0,90.894,46.947,43.963,43.963,0,0,0,46.947,3Zm0,79.1A35.2,35.2,0,0,1,11.789,46.947a35.631,35.631,0,0,1,.22-3.779,44.218,44.218,0,0,0,22.9-23.6A43.833,43.833,0,0,0,70.766,38.157a42.894,42.894,0,0,0,9.888-1.143A35.1,35.1,0,0,1,46.947,82.1Z" transform="translate(872 445.106)" opacity="0.06"/>
    </g>
  </g>
</svg>
