<svg xmlns="http://www.w3.org/2000/svg" xmlns:xlink="http://www.w3.org/1999/xlink" width="260" height="195" viewBox="0 0 260 195">
  <defs>
    <clipPath id="clip-path">
      <rect id="Rectangle_6780" data-name="Rectangle 6780" width="291.874" height="233.5" fill="none"/>
    </clipPath>
    <clipPath id="clip-image_smille">
      <rect width="260" height="195"/>
    </clipPath>
  </defs>
  <g id="image_smille" clip-path="url(#clip-image_smille)">
    <g id="Group_18613" data-name="Group 18613" transform="translate(-8.874 -33.25)">
      <g id="Group_17890" data-name="Group 17890" clip-path="url(#clip-path)">
        <path id="Path_12505" data-name="Path 12505" d="M106.054,186.306h44.069m-137.414.519H82.9m20.318.208c.7-7.277,1.371-9.721,1.975-17.006a2.494,2.494,0,0,0-.031-.874,1.2,1.2,0,0,0-1.293-.8H88.416l-1.688.035c-.539.111-.55.848-.525,1.4a180.924,180.924,0,0,0,1.568,18.487s10.055,1.658,15.031-.415Zm-7.172-26.7q-.385-3.047-.769-6.095a5.235,5.235,0,0,0-.886-2.737,6.156,6.156,0,0,0-1.75-1.263,16.752,16.752,0,0,1-5.616-5.381,1.535,1.535,0,0,1-.325-.884c.041-.679.873-1,1.553-1a5.774,5.774,0,0,1,4.6,2.688,11.59,11.59,0,0,1,1.692,5.231,9.378,9.378,0,0,1,3.134-4.674,3.712,3.712,0,0,1,1.6-.826,1.718,1.718,0,0,1,1.651.526,1.762,1.762,0,0,1,.02,1.934,4.322,4.322,0,0,1-1.494,1.379,17.266,17.266,0,0,1-4.5,2.026m1.141,16.15c-.217-1.726-.919-4.777-.354-6.422a9.082,9.082,0,0,1,2.6-3.587,21.512,21.512,0,0,1,7.119-4.342,5.655,5.655,0,0,1,2.421-.454,2.327,2.327,0,0,1,1.976,1.292,1.233,1.233,0,0,1-.148,1.281,1.767,1.767,0,0,1-.983.439,21.525,21.525,0,0,1-7.54.211M94.8,162.256a12.682,12.682,0,0,0-8.327-3.122,10.352,10.352,0,0,0-7.919,3.82,2.9,2.9,0,0,0-.676,1.388,1.25,1.25,0,0,0,.647,1.306,1.906,1.906,0,0,0,1.228-.053l3.042-.824a15,15,0,0,0,3.7-1.363,5.049,5.049,0,0,0,2.452-2.974m64.072,40.045a1.136,1.136,0,0,0-1.442.474,3.281,3.281,0,0,0-.382,1.614c-.588,9.954-.995,20.167-.995,30.809m-4.375-28.415a4.143,4.143,0,0,1,2.846-.694m-2.79,27.722V207.157m-13.88,22.825h9.871m-5.167,4.791a3.021,3.021,0,0,1,.189-1.966,1.4,1.4,0,0,1,1.693-.7c.79.361.834,1.449,1.292,2.188m-15.479.923q0-2.539-.007-5.078a.78.78,0,0,1,.855-.9q1.141-.23,2.289-.426a1.386,1.386,0,0,1,.646-.007c.518.161.66.818.712,1.358q.21,2.147.419,4.294M116.355,218.94a1.1,1.1,0,0,1,1.517.1,2.918,2.918,0,0,1,.663,1.536,22.053,22.053,0,0,1,.327,2.222,2.737,2.737,0,0,0,.689,1.95,3.086,3.086,0,0,1,.617.49,1.377,1.377,0,0,1,.187.717q.343,4.779.232,9.579m-5.914,0q-.186-4.586-.372-9.171a1.1,1.1,0,0,1,.066-.537c.1-.206.314-.328.483-.484a2.45,2.45,0,0,0,.538-2.007,4.746,4.746,0,0,1,.094-2.129m-21.412,9.4h2.16m8.492-20.834c-2.233.76-3.065,3.425-3.584,5.728q-2.03,8.986-4.056,17.972m-6.4-9.8c.331.345.993-.041,1.366.258a.882.882,0,0,1,.228.707c.021,3.258-1.347,6.343-2.688,9.313l.011-.413m.69-12.493c.189-.147.489.013.565.241a1.082,1.082,0,0,1-.08.7A30.332,30.332,0,0,1,89.2,225.41q-1.992,3.931-3.986,7.861M68.775,222.877l10.281-.854c2.9-.24,5.8-.481,8.681-.889M61.086,231.852l5.891-7.348m.1-23.979v18.662m93.974-3.206v19.862m-4.52-27.393v27.393m-41.8-37.561h36.149m-39.915.753v36.9m-4.518-37.28v37.494m-45.188-37.87h41.8m-45.564.753v36.9m-4.519-36.9v36.808M10.421,197.905H51.088m-41.044-5.271H150.2" transform="translate(-0.671 -9.545)" fill="none" stroke="#c1af9d" stroke-linecap="round" stroke-linejoin="round" stroke-width="1.078"/>
        <path id="Path_12506" data-name="Path 12506" d="M216.106,199.823c-.428-.228-.917-.384-1.322-.654a5.029,5.029,0,0,1-1.614-2.408,12.2,12.2,0,0,1-1.138-3.9l.03-.014c-.05-.107-.1-.214-.154-.322a6.982,6.982,0,0,0,1.864-5.55,3.977,3.977,0,0,0,.475-.165l0-.019a108.822,108.822,0,0,0,19.779-6.088c3.073-1.271,6.076-2.652,9.337-4.168,5.177-2.4,9.972-3.442,14.536-6.335-.042-.13-.081-.263-.116-.4l-.171.046a56.381,56.381,0,0,1-2.164-19.89l-.061,0c-.035-.59-.066-1.18-.1-1.77a9.509,9.509,0,0,1,1.526-.764c5.495-2.294,11.336-4.037,17.292-3.977a10.685,10.685,0,0,1,5.028,1.027l.056-.1a4.159,4.159,0,0,1,.944.733l-.061.056c1.415,5.274,1.458,10.806,1.461,16.267a53.242,53.242,0,0,1-.2,5.618,53.975,53.975,0,0,1-.985,5.582q-1.1,5.191-2.209,10.378a8.759,8.759,0,0,1-1.049,3.027c-1.051,1.6-2.994,2.317-4.8,2.935l-2.141.73q-3.819,1.3-7.634,2.607c-8.951,3.054-16.533,5.128-25.811,6.128-.3.033-.6.063-.9.092-6.01.594-12.988.987-19,1.582l-.324-.052a2.93,2.93,0,0,0-.362-.228l0,0" transform="translate(-14.148 -9.577)" fill="#feeee1"/>
        <path id="Path_12507" data-name="Path 12507" d="M264.284,195.613q3.816-1.3,7.635-2.607a9.383,9.383,0,0,1,.274,3.179l-.069.007a236.088,236.088,0,0,1,1.232,43.267v.017H238.682q.83-18.687-.191-37.394l-.018-.342c9.279-1,16.861-3.075,25.811-6.128" transform="translate(-15.921 -12.886)" fill="#fdfcfb"/>
        <path id="Path_12508" data-name="Path 12508" d="M231.607,114.195c-.1.111-.2.222-.3.33l-.286-.078a7.771,7.771,0,0,0-.091-4.438,2.166,2.166,0,0,0-.575-1,1.456,1.456,0,0,0-.394-.235l.353-.019a23.422,23.422,0,0,1,2.241-2.812A3.426,3.426,0,0,1,234,104.887a1.882,1.882,0,0,1,2.423,1.87,3.6,3.6,0,0,1-.543,1.537,33.931,33.931,0,0,1-4.271,5.9" transform="translate(-15.353 -6.997)" fill="#feeee1"/>
        <path id="Path_12509" data-name="Path 12509" d="M227.591,120.871a6.741,6.741,0,0,0,.642-1.184l.231.007a2.694,2.694,0,0,0,1.81-1.772,5.934,5.934,0,0,0,.2-2.61c-.03-.3-.068-.59-.117-.884l.126-.02c.055-.155.1-.311.146-.469l.286.079c.1-.109.2-.22.3-.331a33.932,33.932,0,0,0,4.271-5.9,3.6,3.6,0,0,0,.543-1.537,1.882,1.882,0,0,0-2.423-1.87l-.166-.435a18.557,18.557,0,0,0,2.058-6.378l-.058-.282.173-.036.036.006.007-.052c6.666.821,13.84,1.379,20.506,2.2,3.158.39,6.744.249,9.743,1.31a12.507,12.507,0,0,1,3.792,2.01,12.9,12.9,0,0,1,1.745,1.787c3.732,4.52,5.7,10.231,7.063,15.931s1.3,12.336,3.163,17.894c.462,1.377.973,2.943.279,4.219l-.482.12a4.319,4.319,0,0,0-.522-.658,4.2,4.2,0,0,0-.944-.733l-.057.1a10.671,10.671,0,0,0-5.027-1.026c-5.957-.061-11.8,1.683-17.293,3.977a9.442,9.442,0,0,0-1.526.765c.035.591.066,1.18.1,1.769l.06,0a56.4,56.4,0,0,0,2.164,19.89l.171-.046c.035.133.075.266.117.4-4.565,2.892-9.36,3.929-14.537,6.335-3.26,1.516-6.263,2.9-9.337,4.168l-.165-.405c-1.151-12.755-4.16-25.26-7.161-37.711q-1.541-6.395-3.082-12.787l-.44-.363c.194-.164.384-.331.57-.5a9.68,9.68,0,0,0,2.889-4.3,6.168,6.168,0,0,0,.152-.67" transform="translate(-14.954 -6.49)" fill="#fdfcfb"/>
        <path id="Path_12510" data-name="Path 12510" d="M230.07,88.7l-.244.094q-.164-.419-.324-.839l.357-.139a1.565,1.565,0,0,1,1.193.541,4.8,4.8,0,0,1,.722,1.138,64.06,64.06,0,0,0,3.488,5.935l.258,1.224.059.282a18.557,18.557,0,0,1-2.058,6.378l.165.435a3.429,3.429,0,0,0-1.438,1.055,23.423,23.423,0,0,0-2.241,2.812l-.352.019a2.674,2.674,0,0,0-.268-.092c-.159-.047-.324-.078-.487-.109-.916-.171-1.836-.312-2.76-.435l.035-.247v-.4h-.3c-.316-3.076-.412-5.83-.575-8.889l.259-.014a23.194,23.194,0,0,0,3.924-5.879,6.281,6.281,0,0,0,.716-2.563c-.046-.1-.088-.2-.128-.3" transform="translate(-15.042 -5.863)" fill="#fdfcfb"/>
        <path id="Path_12511" data-name="Path 12511" d="M227.109,122.57c.01.136.021.273.032.411a9.685,9.685,0,0,1-2.889,4.3c-.186.174-.376.341-.57.5-1.1.94-2.283,1.776-3.4,2.7l-.767.385c.119-.5.2-1.007.273-1.514q.715-4.729,1.432-9.459l-.048-.217a12.673,12.673,0,0,0,2.657-.91l.148.315c.2.364.4.727.594,1.092a.621.621,0,0,1,.11.36.678.678,0,0,1-.2.355,5.1,5.1,0,0,0-1.167,2.385,2.019,2.019,0,0,0,.059,1.2.944.944,0,0,0,.957.6,1.4,1.4,0,0,0,.594-.315,11.234,11.234,0,0,0,2.185-2.188" transform="translate(-14.656 -7.929)" fill="#fee7d3"/>
        <path id="Path_12512" data-name="Path 12512" d="M225.96,106.579v.405l-.035.247c-.949-.129-1.9-.24-2.858-.35l-.471-.054a5.867,5.867,0,0,0-.049-.651l.228,0q-.214-2.516-.364-5.036-.23-3.815-.316-7.635a3.624,3.624,0,0,1,.151-1.39,1.252,1.252,0,0,1,1.02-.851,1.279,1.279,0,0,1,1.167.905,16.24,16.24,0,0,1,.552,3.782c.036.594.068,1.173.1,1.74.161,3.061.258,5.814.574,8.889Z" transform="translate(-14.828 -6.093)" fill="#569499"/>
        <path id="Path_12513" data-name="Path 12513" d="M222.333,106.883a5.812,5.812,0,0,1,.049.65q-1.739-.2-3.476-.4a.3.3,0,0,0-.042,0l.022-.2a3.1,3.1,0,0,1,.04-.79l.03.007c.445-1.418,2.305-2.514,3.143-4.3l.1-.007q.15,2.521.364,5.037Z" transform="translate(-14.612 -6.799)" fill="#fdfcfb"/>
        <path id="Path_12514" data-name="Path 12514" d="M219.5,131.129c1.113-.919,2.3-1.755,3.4-2.7l.441.363q1.543,6.39,3.082,12.787c3,12.451,6.01,24.956,7.161,37.711l.165.4a108.89,108.89,0,0,1-19.779,6.089l0,.018a4.066,4.066,0,0,1-.474.166.146.146,0,0,0,0-.029,1.487,1.487,0,0,0-.172-.585,1.382,1.382,0,0,0-.672-.5,4.435,4.435,0,0,0-4.475.688l-.369-.133.022-.062a88.262,88.262,0,0,0,3.4-10.064c1.134-4.894,1.082-9.959,1.381-14.948q.664-11.049,1.926-22.051h0a4.445,4.445,0,0,1,.583-2.714l.3.172a7.733,7.733,0,0,0,3.084-3.421,7.316,7.316,0,0,0,.244-.817c.256-.13.511-.256.766-.385" transform="translate(-13.874 -8.575)" fill="#fdfcfb"/>
        <path id="Path_12515" data-name="Path 12515" d="M215.642,204.285a1.835,1.835,0,0,0-.311-.3l.325.052c6.01-.594,12.988-.988,19-1.582.3-.03.6-.06.9-.092l.018.342q1.022,18.677.191,37.394H195.189l-.371-.171q.47-7.8,1.38-15.567c-.049-.406-.1-.813-.147-1.22,1.951-2.874,3.936-5.789,6.175-8.96l1.662-3.324a19.4,19.4,0,0,1-2.055-3.263,6.783,6.783,0,0,1-.532-.837,12.621,12.621,0,0,0,3.461-.676,6.266,6.266,0,0,0,3.269-3.058c.069-.014.132-.026.189-.04a8.185,8.185,0,0,0,1.253,1.432,3.871,3.871,0,0,0,1.027.708,4.858,4.858,0,0,0,2.532.135,4.1,4.1,0,0,0,2.609-.975" transform="translate(-13.007 -13.511)" fill="#fdfcfb"/>
        <path id="Path_12516" data-name="Path 12516" d="M216.182,203.564a1.869,1.869,0,0,1,.311.3,4.1,4.1,0,0,1-2.609.975,4.857,4.857,0,0,1-2.532-.135,3.857,3.857,0,0,1-1.027-.708,8.231,8.231,0,0,1-1.254-1.432,6.445,6.445,0,0,1-1.208-4.261,2.605,2.605,0,0,1-.3-.449,4.112,4.112,0,0,0,2.5-.593,6.533,6.533,0,0,0,1.556-1.224c.052.108.1.215.154.322l-.03.014a12.179,12.179,0,0,0,1.138,3.9,5.029,5.029,0,0,0,1.614,2.408c.405.27.894.426,1.322.654l0,0a2.924,2.924,0,0,1,.362.228" transform="translate(-13.858 -13.088)" fill="#bab5b3"/>
        <path id="Path_12517" data-name="Path 12517" d="M227.121,86.347l.244-.1c.041.1.083.2.128.3a6.252,6.252,0,0,1-.716,2.562A23.134,23.134,0,0,1,222.853,95l-.258.015c-.031-.568-.063-1.148-.1-1.741a16.223,16.223,0,0,0-.552-3.782,1.28,1.28,0,0,0-1.167-.905,1.252,1.252,0,0,0-1.02.851,3.62,3.62,0,0,0-.151,1.389q.084,3.82.316,7.635l-.1.006c-.837,1.782-2.7,2.878-3.142,4.3l-.03-.006a3.1,3.1,0,0,0-.04.789l-.022.2a12.688,12.688,0,0,0-2-.119l-.011-.205c-.126-.127-.251-.253-.378-.379l-.14.14c-3.038-1.468-7.57-3.138-9.881-5.837l.394-.226a22.259,22.259,0,0,0-.7-2.439,22.756,22.756,0,0,0-1.489-3.363l.036-.02a.517.517,0,0,1-.129-.226,12.548,12.548,0,0,1-3.962-1.754,12.9,12.9,0,0,1-1.963-1.776,46.516,46.516,0,0,1-3.493-3.965l-.174.137a5.459,5.459,0,0,1-1.46-.119,4.932,4.932,0,0,1-2.152-1.477c-1.316-1.351-2.891-3.388-2.525-5.425a1.214,1.214,0,0,1,1.079-1.093l.191.1a.341.341,0,0,0,.238.048.246.246,0,0,0,.148-.161.786.786,0,0,0,.035-.121c.331-1.614-.5-3.194-1.4-4.6a4.236,4.236,0,0,0-.068-.99,32.912,32.912,0,0,1-1.574-5.165l-.272.041a9.161,9.161,0,0,1-.137-1.355,8.947,8.947,0,0,1,1.9-4.9l-.2-.153a23.638,23.638,0,0,1,2.013-3.158c.038-.052.076-.1.115-.153A7.957,7.957,0,0,1,189.7,53.83a6.542,6.542,0,0,1,1.693-1.028c.475-.21.966-.389,1.451-.564q1.373-.5,2.746-.986l.026.071a2.716,2.716,0,0,1,1.667-.132,26.275,26.275,0,0,1,3.4,1.832,8.042,8.042,0,0,0,4.78.609,4.727,4.727,0,0,0,3.587,1.1l0,.019a9.006,9.006,0,0,0,3.766.805l.006.074a14.829,14.829,0,0,0,2.987,2.657,1.341,1.341,0,0,0,1.419.035l.539.058a1.4,1.4,0,0,1,.324-.324,1.8,1.8,0,0,1,2.025.139,4.656,4.656,0,0,1,1.3,1.707,11.376,11.376,0,0,1,1.288,3.583,5.475,5.475,0,0,1-.592,3.558l.093.057a4.418,4.418,0,0,0-.371,2.536l-.5.157q2.486,7.939,5.465,15.712.161.42.324.84m-18.4-20.128c.341.131.323-.2.247-.421-.066-.2-.405-.764-.672-.644a.249.249,0,0,0-.157.23,1.225,1.225,0,0,0,.581.835m-13.031,7.268c.339.131.322-.2.248-.419-.068-.2-.409-.764-.673-.644a.245.245,0,0,0-.157.228,1.212,1.212,0,0,0,.581.835" transform="translate(-12.338 -3.412)" fill="#feeee1"/>
        <path id="Path_12518" data-name="Path 12518" d="M213.344,106.293l.14-.139c.128.125.252.252.379.378l.01.205a4.765,4.765,0,0,0-1.3.224,5.359,5.359,0,0,0-3.043,3.154,20.031,20.031,0,0,0-1.012,4.4c-.314,1.881-.735,3.744-1.155,5.606a29.088,29.088,0,0,1-2.333,7.27l-.051-.028a12.9,12.9,0,0,0-1.941,2.854l-.129-.006c-2.143,2.514-2.522,5.813-3.45,8.582-1.416,4.216-3.011,8.367-4.712,12.474l-.338-.139a5.22,5.22,0,0,0-.874-.674,13.375,13.375,0,0,0-2.868.766c-3.358,1.178-6.805,2.522-9.256,5.1a5.716,5.716,0,0,0-1.243,1.825v0a3.588,3.588,0,0,0,.205.644q.094.6.183,1.177l-.38.059A3.214,3.214,0,0,1,178.587,158a4.686,4.686,0,0,1-.171-.762c-.157-1.136-1.562-2.64-1.5-3.783.192-3.779-.934-7.478-1.693-11.184a58.606,58.606,0,0,1-1.177-10.253c-.069-2.681.083-5.5,1.475-7.794a15.569,15.569,0,0,1,4.36-4.2q.781-.393,1.562-.791l-.065-.126c3.76-2.467,9.537-5.618,12.729-8.788,2.229-2.216,4.377-4.643,7.221-5.982l.206-.006c-.026-.807-.093-1.615-.067-2.42a5.154,5.154,0,0,1,1.277-3.539l-.024-.028a2.336,2.336,0,0,0,.437-.545,22.349,22.349,0,0,1,.7,2.439l-.394.225c2.311,2.7,6.843,4.37,9.881,5.837" transform="translate(-11.619 -6.529)" fill="#fdfcfb"/>
        <path id="Path_12519" data-name="Path 12519" d="M200.774,206.1l-.736.056a25.31,25.31,0,0,1-6.177-.1,10.052,10.052,0,0,1-.405,1.015,9.63,9.63,0,0,1,.1,2.143,2.679,2.679,0,0,1-.44,1.48,1.121,1.121,0,0,1-1.382.378,1.853,1.853,0,0,1-.66-1.092,8.912,8.912,0,0,0-1.685-2.909c-.734-.844-1.672-1.629-1.858-2.732-.152-.918.262-1.88.015-2.775a5.487,5.487,0,0,0-.381-.884,1.977,1.977,0,0,1-.254-.976c.05-.743.777-1.294.864-2.033a4.538,4.538,0,0,0-.212-1.3,2.88,2.88,0,0,1,1.176-2.782,2.343,2.343,0,0,1,.481-1.056,14.163,14.163,0,0,0,7.53,5.095,6.679,6.679,0,0,0,5.07-.518,7.3,7.3,0,0,0,1.991-1.889,5.271,5.271,0,0,0,.386.525,2.212,2.212,0,0,0,1.721,1.821c.089.021.179.036.27.049a2.553,2.553,0,0,0,.3.449,6.444,6.444,0,0,0,1.207,4.261c-.056.014-.119.026-.188.04a6.262,6.262,0,0,1-3.27,3.057,12.573,12.573,0,0,1-3.46.677" transform="translate(-12.479 -12.854)" fill="#feeee1"/>
        <path id="Path_12520" data-name="Path 12520" d="M193.93,220.468c-3.264,4.8-6.438,9.478-10.583,15.028l-1.353,1.6c-.856-1.5-17.614-41.375-18.95-43.865-.219-.411,13.946-28.554,14.605-29.865l-.441-.2a5.239,5.239,0,0,1,.646-.864,3.214,3.214,0,0,0,1.592,2.025l.381-.059c.8,5.147,1.4,9.1,2.637,14.182a35.866,35.866,0,0,0,3.631,9.834c-.3.22-.6.439-.9.655l-.384.313a2.822,2.822,0,0,0-.648.651,2.881,2.881,0,0,0-.312,1.463q-.074,2.283-.149,4.569a2.7,2.7,0,0,0,.131,1.167.953.953,0,0,0,.861.62c.205.363.412.725.622,1.09l.256-.147a5.4,5.4,0,0,1,.38.884c.247.895-.167,1.857-.014,2.775.186,1.1,1.124,1.888,1.858,2.732a8.945,8.945,0,0,1,1.685,2.909,1.856,1.856,0,0,0,.659,1.092,1.122,1.122,0,0,0,1.383-.378,2.678,2.678,0,0,0,.439-1.48,9.627,9.627,0,0,0-.1-2.143,10.265,10.265,0,0,0,.4-1.015,25.357,25.357,0,0,0,6.177.1l.736-.057a6.784,6.784,0,0,0,.532.837,19.4,19.4,0,0,0,2.056,3.263l-1.663,3.323c-2.239,3.172-4.224,6.087-6.175,8.961" transform="translate(-10.885 -10.836)" fill="#96cbcf"/>
        <path id="Path_12521" data-name="Path 12521" d="M186.795,199.55a1.982,1.982,0,0,0,.253.977l-.256.147c-.209-.365-.416-.727-.622-1.09a.954.954,0,0,1-.862-.62,2.711,2.711,0,0,1-.131-1.167q.078-2.285.15-4.568a2.888,2.888,0,0,1,.312-1.463,2.846,2.846,0,0,1,.648-.652c.129-.1.256-.209.385-.312.3-.217.6-.435.9-.656.122.207.247.414.38.618a18.474,18.474,0,0,0,1.153,1.615,2.338,2.338,0,0,0-.481,1.056,2.876,2.876,0,0,0-1.177,2.781,4.569,4.569,0,0,1,.213,1.3c-.088.738-.815,1.291-.864,2.033" transform="translate(-12.363 -12.695)" fill="#feeee1"/>
        <path id="Path_12522" data-name="Path 12522" d="M215.145,52.336q.76,1.918,1.526,3.833a1.251,1.251,0,0,1,.094,1.027.659.659,0,0,1-.125.164,1.338,1.338,0,0,1-1.419-.034,14.852,14.852,0,0,1-2.986-2.657l-.006-.075a9.01,9.01,0,0,1-3.767-.805l0-.018a4.732,4.732,0,0,1-3.587-1.1,8.043,8.043,0,0,1-4.78-.61,26.08,26.08,0,0,0-3.4-1.831,2.722,2.722,0,0,0-1.667.131L195,50.287l-2.746.986c-.486.175-.977.355-1.452.564a6.558,6.558,0,0,0-1.693,1.028,8.058,8.058,0,0,0-1.066,1.188c-.039.05-.078.1-.115.153a23.492,23.492,0,0,0-2.013,3.158l.2.153a8.959,8.959,0,0,0-1.9,4.9,9.167,9.167,0,0,0,.137,1.354l.272-.04A33.007,33.007,0,0,0,186.2,68.9a4.148,4.148,0,0,1,.068.99c.9,1.407,1.735,2.987,1.4,4.6a.883.883,0,0,1-.034.12,2.419,2.419,0,0,0-.579.016,7.978,7.978,0,0,1-2.767-2.4l-.244.127c-1.017-1.313-2.789-2.526-3.806-3.774a11.73,11.73,0,0,1-2.281-4.536l.044-.03a11.066,11.066,0,0,1-1.8-4.985c.313-1.641-.161-3.445-.191-5.165a9.832,9.832,0,0,1,2.945-7.115,12.836,12.836,0,0,1,2.7-3.4c.122-.08.241-.167.356-.256,3.115-2.367,5.633-5.09,9.413-6.111,3.624-.978,7.872.546,11.668.527l0,.339a7.5,7.5,0,0,1,3.1,1.653l.419-.264a32.641,32.641,0,0,0,3.826,2.856,11.456,11.456,0,0,1,3.148,4.094c.9,1.882,1.182,4.066,1.942,5.987Z" transform="translate(-11.751 -2.447)" fill="#f5d89a"/>
        <path id="Path_12523" data-name="Path 12523" d="M225.337,120.365a6.774,6.774,0,0,1-.642,1.184c-.059.089-.12.174-.184.259A11.214,11.214,0,0,1,222.326,124a1.386,1.386,0,0,1-.594.315.943.943,0,0,1-.957-.6,2.012,2.012,0,0,1-.059-1.2,5.091,5.091,0,0,1,1.167-2.385.684.684,0,0,0,.2-.355.622.622,0,0,0-.11-.36c-.2-.364-.4-.728-.594-1.092l-.148-.315a12.622,12.622,0,0,1-2.657.91l.048.217q-.715,4.732-1.432,9.459c-.078.507-.155,1.015-.273,1.514a7.248,7.248,0,0,1-.243.816,7.735,7.735,0,0,1-3.084,3.422l-.3-.173a4.45,4.45,0,0,0-.584,2.715h0q-1.247,11-1.927,22.051c-.3,4.988-.246,10.054-1.38,14.948a88.637,88.637,0,0,1-3.4,10.064c-.008.019-.015.041-.022.062-.018.049-.036.1-.055.146a21.233,21.233,0,0,1-2.55,5.38,7.29,7.29,0,0,1-1.991,1.889,6.675,6.675,0,0,1-5.07.518,14.163,14.163,0,0,1-7.53-5.095,18.323,18.323,0,0,1-1.153-1.614c-.132-.2-.256-.411-.379-.618a35.894,35.894,0,0,1-3.63-9.833C182.4,169.7,181.8,165.75,181,160.6q-.09-.575-.183-1.177a3.75,3.75,0,0,1-.205-.644v0a5.73,5.73,0,0,1,1.243-1.825c2.451-2.578,5.9-3.921,9.256-5.1a13.369,13.369,0,0,1,2.869-.766,5.252,5.252,0,0,1,.874.674l.339.139c1.7-4.106,3.3-8.257,4.711-12.474.929-2.769,1.308-6.068,3.45-8.582l.129.006A12.9,12.9,0,0,1,205.421,128l.051.028a29.087,29.087,0,0,0,2.333-7.27c.42-1.862.842-3.725,1.155-5.606a19.978,19.978,0,0,1,1.013-4.4,5.353,5.353,0,0,1,3.043-3.154,4.752,4.752,0,0,1,1.3-.224,12.574,12.574,0,0,1,2,.119.3.3,0,0,1,.042,0q1.74.2,3.476.4l.471.055c.955.111,1.908.221,2.859.35.924.122,1.843.264,2.759.435a4.794,4.794,0,0,1,.488.109,2.37,2.37,0,0,1,.267.092,1.427,1.427,0,0,1,.393.235,2.16,2.16,0,0,1,.576,1,7.771,7.771,0,0,1,.091,4.438q-.063.238-.146.468l-.126.021c.049.294.086.588.117.884a5.935,5.935,0,0,1-.2,2.61,2.691,2.691,0,0,1-1.81,1.771Z" transform="translate(-12.058 -7.168)" fill="#feeee1"/>
        <path id="Path_12524" data-name="Path 12524" d="M179.438,154.058v0m33.405,38.633,0,0,.281.282m20.327-1.335q1.019,18.677.19,37.394c0,.066-.006.131-.007.2M220.351,122.67q1.543,6.39,3.083,12.787c3,12.451,6.008,24.956,7.161,37.711m36.092,9.7c.139.96.274,1.922.4,2.886a236,236,0,0,1,1.234,43.266m-74.145-16.591c-.034.29-.068.58-.1.87q-.91,7.762-1.381,15.566m7.015-32.333a19.434,19.434,0,0,0,2.056,3.263l-1.662,3.323c-2.24,3.172-4.223,6.087-6.176,8.961-3.263,4.8-6.438,9.478-10.583,15.028l-1.352,1.6c-.857-1.5-17.615-41.376-18.95-43.865-.219-.411,13.946-28.554,14.6-29.865l.024-.046m33.192,24.752c.038-.007.077-.015.116-.024a108.934,108.934,0,0,0,19.78-6.088c3.073-1.271,6.075-2.652,9.336-4.168,5.177-2.4,9.972-3.442,14.536-6.335.672-.424,1.336-.889,2-1.4m-51.739,25.98a.039.039,0,0,1,0,.015,6.44,6.44,0,0,0,1.209,4.261,8.184,8.184,0,0,0,1.253,1.432,3.847,3.847,0,0,0,1.028.708,4.85,4.85,0,0,0,2.53.134,4.1,4.1,0,0,0,2.61-.974,1.834,1.834,0,0,0-.311-.3,2.856,2.856,0,0,0-.362-.228m0,0c-.428-.228-.917-.384-1.321-.654a5.028,5.028,0,0,1-1.615-2.408,12.175,12.175,0,0,1-1.137-3.9m-6.176-.589a1.612,1.612,0,0,0,.007.2,2.217,2.217,0,0,0,1.722,1.821c.089.021.179.036.27.049a4.1,4.1,0,0,0,2.5-.593,6.482,6.482,0,0,0,1.557-1.224,6.985,6.985,0,0,0,1.865-5.55.137.137,0,0,0,0-.028,1.481,1.481,0,0,0-.173-.586,1.381,1.381,0,0,0-.672-.495,4.436,4.436,0,0,0-4.475.688m-15.435,15.495a10.9,10.9,0,0,0,2.514.736,25.3,25.3,0,0,0,6.176.1l.736-.056a12.588,12.588,0,0,0,3.461-.677,6.269,6.269,0,0,0,3.27-3.057c.015-.033.026-.063.038-.094m-18.192-9a2.581,2.581,0,0,0-.613.322,2.879,2.879,0,0,0-1.177,2.782,4.57,4.57,0,0,1,.213,1.3c-.088.738-.815,1.29-.864,2.033a1.978,1.978,0,0,0,.253.976,5.453,5.453,0,0,1,.381.884c.247.895-.167,1.857-.015,2.775.186,1.1,1.125,1.888,1.859,2.732a8.928,8.928,0,0,1,1.685,2.909,1.844,1.844,0,0,0,.66,1.092,1.12,1.12,0,0,0,1.381-.378,2.67,2.67,0,0,0,.439-1.48,9.574,9.574,0,0,0-.1-2.143c-.027-.174-.061-.345-.1-.513m-5.9-16.152-.674.548c-.129.1-.256.207-.384.313a2.8,2.8,0,0,0-.648.651,2.881,2.881,0,0,0-.313,1.463q-.074,2.283-.15,4.569a2.714,2.714,0,0,0,.131,1.168.955.955,0,0,0,.863.62c.016,0,.035,0,.054,0M252.3,141.338q-.069.734-.119,1.491a56.4,56.4,0,0,0,2.164,19.89m-.9-44.253q-.048,1.995-.1,4a42.434,42.434,0,0,1-.421,5.874c-.7,4.226-2.679,8.292-2.421,12.567m26.3-2.872c1.415,5.273,1.459,10.806,1.462,16.267a53.2,53.2,0,0,1-.2,5.617,53.831,53.831,0,0,1-.985,5.582q-1.1,5.192-2.209,10.379a8.759,8.759,0,0,1-1.049,3.027c-1.051,1.6-2.994,2.316-4.8,2.934q-1.069.365-2.141.731-3.819,1.3-7.633,2.607c-8.952,3.053-16.534,5.128-25.812,6.128-.3.032-.6.063-.9.092-6.011.594-12.989.987-19,1.582m37.187-51.658a.757.757,0,0,0,.178.909,3.252,3.252,0,0,1,1.123-1.171,9.385,9.385,0,0,1,1.525-.764c5.495-2.294,11.336-4.038,17.293-3.977a10.687,10.687,0,0,1,5.028,1.027M231.581,93.16c6.667.821,13.84,1.378,20.506,2.2,3.158.391,6.743.25,9.743,1.31a12.508,12.508,0,0,1,3.792,2.011,12.938,12.938,0,0,1,1.744,1.787c3.733,4.519,5.7,10.231,7.063,15.931s1.3,12.336,3.163,17.894c.462,1.376.975,2.942.28,4.218m-90.036-7.905c3,4.508,4.708,9.734,6.38,14.888m-13.574-30.478c3.761-2.467,9.536-5.617,12.729-8.788,2.229-2.215,4.377-4.643,7.22-5.981m-21.146,55.694a3.209,3.209,0,0,1-1.591-2.025,4.708,4.708,0,0,1-.171-.762c-.156-1.136-1.561-2.641-1.5-3.783.192-3.78-.935-7.478-1.694-11.184a58.707,58.707,0,0,1-1.177-10.253c-.07-2.681.083-5.5,1.474-7.794a15.585,15.585,0,0,1,4.36-4.205c.063-.043.125-.088.186-.133m-.1,39.108a3.114,3.114,0,0,1,.2-.847m0,0a5.731,5.731,0,0,1,1.241-1.824c2.452-2.578,5.9-3.922,9.258-5.1a13.284,13.284,0,0,1,2.868-.767,5.959,5.959,0,0,1,.817-.039m-7.735,19.109c2.788-6.049,5.577-12.105,8.129-18.256,1.7-4.107,3.3-8.257,4.712-12.474.929-2.769,1.307-6.068,3.451-8.582m-22.564,28.4c.009.062.018.122.028.183.063.4.122.792.183,1.177.8,5.147,1.4,9.1,2.636,14.182a35.9,35.9,0,0,0,3.631,9.833c.122.207.247.414.378.618a18.739,18.739,0,0,0,1.154,1.614,14.163,14.163,0,0,0,7.53,5.095,6.674,6.674,0,0,0,5.068-.518,7.263,7.263,0,0,0,1.991-1.889,21.133,21.133,0,0,0,2.551-5.381c.019-.049.038-.1.054-.145.008-.021.016-.043.022-.063a88.446,88.446,0,0,0,3.4-10.063c1.132-4.894,1.08-9.96,1.379-14.949q.665-11.049,1.927-22.05c.033-.286.066-.569.1-.856m4.117-5.661c.249-.222.5-.439.755-.649,1.113-.919,2.3-1.755,3.4-2.7.192-.164.384-.332.569-.5a9.685,9.685,0,0,0,2.889-4.3,6.284,6.284,0,0,0,.153-.67c.008-.051.014-.1.022-.151m2.305-12.474a23.354,23.354,0,0,1,2.241-2.812,3.429,3.429,0,0,1,1.438-1.055,1.882,1.882,0,0,1,2.424,1.87,3.6,3.6,0,0,1-.543,1.537,34.06,34.06,0,0,1-4.271,5.9c-.1.11-.2.221-.3.33m-23.451,14.808a13.01,13.01,0,0,0,.907-1.477,29.065,29.065,0,0,0,2.333-7.27c.42-1.863.841-3.725,1.156-5.606a19.975,19.975,0,0,1,1.012-4.4,5.354,5.354,0,0,1,3.043-3.154,4.759,4.759,0,0,1,1.3-.224,12.674,12.674,0,0,1,2,.119.213.213,0,0,1,.042,0c1.161.134,2.317.27,3.476.4l.47.055c.956.11,1.91.221,2.859.35.924.122,1.843.263,2.76.435a4.776,4.776,0,0,1,.487.109,2.461,2.461,0,0,1,.268.092,1.423,1.423,0,0,1,.392.235,2.146,2.146,0,0,1,.575,1,7.755,7.755,0,0,1,.091,4.438c-.042.159-.091.314-.145.468m-10.532-5.237q3.633.486,7.227,1.239a3.512,3.512,0,0,1,2.42,1.265,3.113,3.113,0,0,1,.31.765,14.971,14.971,0,0,1,.448,1.989c.049.294.087.588.117.884a5.922,5.922,0,0,1-.2,2.61,2.693,2.693,0,0,1-1.809,1.771m-4.185-2.048q.3.545.594,1.092a.639.639,0,0,1,.109.36.682.682,0,0,1-.2.355,5.1,5.1,0,0,0-1.168,2.385,2.019,2.019,0,0,0,.059,1.2.944.944,0,0,0,.957.6,1.391,1.391,0,0,0,.6-.315,11.256,11.256,0,0,0,2.185-2.187c.063-.085.125-.172.185-.259a6.9,6.9,0,0,0,.642-1.184,5.476,5.476,0,0,0,.385-1.507,10.048,10.048,0,0,0-.472-3.493,2.519,2.519,0,0,0-.589-1.249,2.416,2.416,0,0,0-1.016-.486,30.986,30.986,0,0,0-6.73-1.161m1.114,6.558c.183-.032.366-.069.547-.108a12.711,12.711,0,0,0,2.657-.91c.078-.036.157-.075.235-.113m-7.876,16.45A7.728,7.728,0,0,0,215.5,126.2a7.312,7.312,0,0,0,.245-.816c.118-.5.193-1.007.273-1.515q.715-4.727,1.431-9.458M225.7,84.4a1.561,1.561,0,0,1,1.193.541,4.773,4.773,0,0,1,.722,1.137,64.074,64.074,0,0,0,3.488,5.936l.258,1.223.059.282a18.555,18.555,0,0,1-2.058,6.379M221.4,94.032a23.192,23.192,0,0,0,3.924-5.879,6.289,6.289,0,0,0,.716-2.563c0-.049,0-.094,0-.141m-7.2,17.079q-.217-2.516-.364-5.037-.231-3.813-.317-7.634a3.606,3.606,0,0,1,.151-1.39,1.255,1.255,0,0,1,1.021-.851,1.279,1.279,0,0,1,1.167.905,16.275,16.275,0,0,1,.552,3.782c.036.594.068,1.174.1,1.741.162,3.059.259,5.813.575,8.888m-6.489-1.14c.445-1.418,2.305-2.515,3.142-4.3m-15.64-1.124c2.311,2.7,6.842,4.37,9.881,5.837M202.3,94.025a3.571,3.571,0,0,0-.3.258,5.152,5.152,0,0,0-1.275,3.539c-.028.805.04,1.613.066,2.42,0,.147.007.3.007.444a10.044,10.044,0,0,1-.072,1.38,5.863,5.863,0,0,0-.125,1.748,3.937,3.937,0,0,0,.468,1.177,60.029,60.029,0,0,0,4.6,7.3m14.152-43.63.054.172q2.486,7.937,5.465,15.712.16.419.324.839l.077.2M200.93,90.346a22.767,22.767,0,0,1,1.488,3.363,22.136,22.136,0,0,1,.706,2.439M189.416,79.863q.953,1.407,2,2.742a46.491,46.491,0,0,0,3.492,3.964,12.944,12.944,0,0,0,1.963,1.776,12.513,12.513,0,0,0,3.963,1.754,31.957,31.957,0,0,0,4.3.769c4.654.578,9.832-.451,11.923-5.279a23.07,23.07,0,0,0,2.494-11.217M205.422,38.86c.106.133.219.259.336.381a32.835,32.835,0,0,0,3.827,2.856,11.456,11.456,0,0,1,3.148,4.094c.9,1.882,1.182,4.066,1.943,5.986a8.588,8.588,0,0,0,.778,1.538m-35.606-9.981a2.075,2.075,0,0,0,.945-.381c.124-.08.243-.167.357-.256,3.115-2.367,5.632-5.09,9.411-6.111,3.625-.978,7.873.546,11.669.527.179,0,.357-.006.532-.014M174.975,60.152a4.409,4.409,0,0,0,.362-1.12c.314-1.64-.161-3.444-.191-5.165a9.835,9.835,0,0,1,2.944-7.115c.205-.2.421-.39.644-.572m-1.643,17.868a11.719,11.719,0,0,0,2.281,4.535c1.017,1.249,2.789,2.462,3.806,3.774.068.087.133.175.194.264m3.659,2.02c-.089-.014-.177-.024-.264-.03a2.421,2.421,0,0,0-.579.016,1.213,1.213,0,0,0-1.078,1.093c-.367,2.037,1.209,4.075,2.525,5.425a4.926,4.926,0,0,0,2.152,1.477,5.416,5.416,0,0,0,1.459.119m-5.921-13.87a.147.147,0,0,1,0,.028,4.239,4.239,0,0,1,.068.99,4.3,4.3,0,0,1-.334,1.505m.28-14.019c-.033.047-.064.1-.1.141a8.964,8.964,0,0,0-1.9,4.9,9.042,9.042,0,0,0,.138,1.355c.061.4.125.793.159,1.192a3.3,3.3,0,0,1-.6,2.425m4.063-13.176c-.012,0-.029-.006-.043-.01a4.3,4.3,0,0,0-4.623,2.18m35.451,6.2a1.618,1.618,0,0,1,.287-1.3m-2.235-2.371a2.387,2.387,0,0,1,.372-1.493,1.368,1.368,0,0,1,.324-.324,1.8,1.8,0,0,1,2.025.138,4.665,4.665,0,0,1,1.3,1.707,11.4,11.4,0,0,1,1.287,3.583,5.47,5.47,0,0,1-.592,3.559c-.024.042-.05.084-.077.124M207.6,53.789a9.006,9.006,0,0,0,3.766.805,4.373,4.373,0,0,0,.949-.181m-19.648-3.058a3.049,3.049,0,0,1,1.5-1,2.716,2.716,0,0,1,1.667-.131,26.1,26.1,0,0,1,3.4,1.831,8.044,8.044,0,0,0,4.781.61,5.9,5.9,0,0,0,2.984-1.134m-16.963.647c-.035-.115-.066-.23-.092-.344A6.215,6.215,0,0,1,191.1,46.6m10.533,34.96c3.3.852,8.649-1.749,9.182-5.678m-9.232-15.623c1.135-2.355,3.579-3.122,6.09-2.923M188.517,68.424a1.705,1.705,0,0,1,.386-.91,5.96,5.96,0,0,1,1.863-1.787,4.324,4.324,0,0,1,2.359-.557m6,2.564a4.133,4.133,0,0,1,1.523,2.893,5.967,5.967,0,0,0,.068.785,2.955,2.955,0,0,0,2.013,1.862m-9.065-1.587a.248.248,0,0,1,.157-.228c.264-.12.606.447.674.645.073.217.091.549-.249.418A1.212,1.212,0,0,1,193.66,71.687Zm13.032-7.268a.248.248,0,0,1,.157-.23c.265-.12.6.449.671.644.075.217.093.552-.247.421A1.221,1.221,0,0,1,206.691,64.419Z" transform="translate(-10.885 -2.447)" fill="none" stroke="#3d1513" stroke-linecap="round" stroke-linejoin="round" stroke-width="1.402"/>
      </g>
    </g>
  </g>
</svg>
