<svg xmlns="http://www.w3.org/2000/svg" xmlns:xlink="http://www.w3.org/1999/xlink" width="422" height="86" viewBox="0 0 422 86">
  <defs>
    <clipPath id="clip-image_sixPeople">
      <rect width="422" height="86"/>
    </clipPath>
  </defs>
  <g id="image_sixPeople" clip-path="url(#clip-image_sixPeople)">
    <g id="Group_19356" data-name="Group 19356" transform="translate(13718.658 13424.913)">
      <g id="Group_19222" data-name="Group 19222" transform="translate(-13650.932 -13415.424)">
        <path id="Path_12693" data-name="Path 12693" d="M48.368,38.336l-.09.037a.544.544,0,0,0-.34-.294,1.425,1.425,0,0,0-.764.062c-1.354.36-2.722.728-4.034,1.2l.6-.495-.015-.018a3.88,3.88,0,0,0,1.363-2.177l-.029,0A5.32,5.32,0,0,0,45,34.408l-.2-.078a4.91,4.91,0,0,0,.338-1.6,4.755,4.755,0,0,1,.288-2.214q.626.135,1.252.268l.007-.034a5.605,5.605,0,0,1,1.421.233,4.817,4.817,0,0,0,1.427.2,2.063,2.063,0,0,0,.7-.168l-.125.213a2.833,2.833,0,0,0,1.735.421,2.766,2.766,0,0,0,.258-.1l.077.168a1.362,1.362,0,0,0,1.187.054,1.216,1.216,0,0,0,.715-1.04,2.654,2.654,0,0,0-.056-.506,9.654,9.654,0,0,1-.139-1.671A1.477,1.477,0,0,1,54,27.306l.044-.057a1.347,1.347,0,0,1,1.177-.412,2.494,2.494,0,0,1,1.231.565,4.246,4.246,0,0,1,1.377,4.7,2.819,2.819,0,0,0,.716.807c.237.193.49.374.718.577l-.1.106a20.576,20.576,0,0,0,6.714,5.434,2.275,2.275,0,0,1,.149.278,1.476,1.476,0,0,0-.453.208,2.242,2.242,0,0,0-.606.747c-1.454,2.5-2.411,5.4-4.74,7.213a3.692,3.692,0,0,1-3.43.828l0,0a3.523,3.523,0,0,1-.719.159,11.473,11.473,0,0,1-3.61-.24q-.047-.007-.095-.018a13.318,13.318,0,0,1-4.294-1.695,13.108,13.108,0,0,1-1.174-.856l.139-.174a11.006,11.006,0,0,1-.959-.718c.372-.449.73-.906,1.08-1.372a1.9,1.9,0,0,0,.544-1.53l.175-.008a5.125,5.125,0,0,0,.055-.669c.388-.287.776-.572,1.165-.861a2.3,2.3,0,0,0,.753-.766.74.74,0,0,0-.2-.95,1.2,1.2,0,0,0-.986.019c-.054.016-.108.035-.163.054-.039-.113-.082-.228-.131-.34m3.572.7c.04.4,1.1.455.322-.022-.071-.043-.215-.1-.288-.025-.018.016-.034.032-.034.047" transform="translate(-32.407 -20.052)" fill="#fff3ea"/>
        <path id="Path_12694" data-name="Path 12694" d="M46.9,31.488a4.74,4.74,0,0,0-.288,2.214,4.9,4.9,0,0,1-.339,1.6l.2.08a5.3,5.3,0,0,1,.06,2.243l.03.006A3.9,3.9,0,0,1,45.2,39.8l.015.016c-.2.167-.4.331-.6.5a16.608,16.608,0,0,0-3.175,1.5,6.765,6.765,0,0,0-1.077.808,2.081,2.081,0,0,1-.3-.359l.023-.125a7.6,7.6,0,0,1-4.246-4.509l-.174.053a16.393,16.393,0,0,1-.626-1.632l-.021.008A7.985,7.985,0,0,1,34.7,31c.33-1.55.89-3.048,1.257-4.591a8.074,8.074,0,0,1,1.184-1.28,6.86,6.86,0,0,1,2.58-2.868,20.1,20.1,0,0,1,2.1-.718l.009.022a6.232,6.232,0,0,1,2.652-.446c.419.027.841.034,1.259.067a10.952,10.952,0,0,1,8.439,5.094l-.05.047a8.059,8.059,0,0,1,1.22,1.759l.164.135c-.015.019-.029.037-.044.058a1.474,1.474,0,0,0-.109,1.241A9.782,9.782,0,0,0,55.5,31.19a2.564,2.564,0,0,1,.056.506,1.213,1.213,0,0,1-.714,1.04,1.369,1.369,0,0,1-1.188-.054l-.076-.168c-.084.037-.171.073-.259.1a2.837,2.837,0,0,1-1.736-.421l.126-.213a2.063,2.063,0,0,1-.7.168,4.818,4.818,0,0,1-1.427-.2,5.665,5.665,0,0,0-1.421-.232l-.007.034L46.9,31.488" transform="translate(-33.883 -21.022)" fill="#edc5ad"/>
        <path id="Path_12695" data-name="Path 12695" d="M49.647,36.709c.049.112.09.226.13.34.054-.019.109-.037.163-.054a1.2,1.2,0,0,1,.986-.019.739.739,0,0,1,.2.95,2.3,2.3,0,0,1-.753.766l-1.165.861a5.567,5.567,0,0,1-.055.669l-.174.008a1.9,1.9,0,0,1-.545,1.529q-.523.7-1.08,1.373c-.084.1-.168.2-.254.305a13.23,13.23,0,0,0-1.227,1.546c-.98,1.569-1.038,3.508-1.834,5.166a6.688,6.688,0,0,1-1.732,2.213l-.062.019c-.434.129-.864.278-1.283.448l0,.011a6.836,6.836,0,0,1-4.619,1.225c-.152-.015-.3-.037-.455-.062l-.028-.181a3.787,3.787,0,0,1-.175-2.138,11.812,11.812,0,0,1,.563-1.972q1.288-3.662,2.577-7.319a6.71,6.71,0,0,1,.889-1.874,3.654,3.654,0,0,1,.45-.491,6.6,6.6,0,0,1,1.076-.808,16.565,16.565,0,0,1,3.173-1.5c1.312-.476,2.68-.843,4.033-1.2a1.434,1.434,0,0,1,.766-.062.545.545,0,0,1,.339.294Z" transform="translate(-33.684 -18.511)" fill="#fff3ea"/>
        <path id="Path_12696" data-name="Path 12696" d="M47.847,88.792a6.964,6.964,0,0,1-.021-.7l-.267.056a1.813,1.813,0,0,1-.684.053,1.357,1.357,0,0,1-.63-.33,4.769,4.769,0,0,1-1.28-2.118,16.194,16.194,0,0,1-.609-2.194A4.154,4.154,0,0,1,44.222,83a2.606,2.606,0,0,1-.68-.136c-2.578-.809-4.1-3.3-5.124-5.679a64.662,64.662,0,0,1-3.535-12.195,5.362,5.362,0,0,1-.125-2.5l-.165-.041a8.114,8.114,0,0,0,.255-1.758l.126-.009c-.056-.761-.11-1.522-.166-2.283a11.5,11.5,0,0,0-.38-2.542,4.3,4.3,0,0,1-.416-2.206,2.875,2.875,0,0,1,1.453-1.6l-.006-.012a2.9,2.9,0,0,1,.511-.525,3.773,3.773,0,0,0,.175,2.137l.028.181c.152.025.3.047.455.062a6.836,6.836,0,0,0,4.619-1.225l0-.009c.42-.17.85-.319,1.284-.449l.009.025c.109.258.215.518.322.778l-.053.022a2.255,2.255,0,0,1,.153.668c.223,2.1.078,4.238.425,6.324l.028,0a12.143,12.143,0,0,0,.634,1.241l.112-.063a1.185,1.185,0,0,1,.425.254,6.759,6.759,0,0,0,.022-.9l.081,0a33.177,33.177,0,0,1,.892-6.643,7.927,7.927,0,0,1,1.574-3.528c1.736-1.956,4.854-2.243,6.864-3.945l0-.015a11.537,11.537,0,0,0,3.608.24,3.6,3.6,0,0,0,.721-.159l0,0a3.693,3.693,0,0,0,3.43-.828c2.328-1.811,3.286-4.713,4.738-7.213a2.261,2.261,0,0,1,.606-.749,1.5,1.5,0,0,1,.453-.207,3.471,3.471,0,0,1,1.081-.071,18.606,18.606,0,0,1,11.01,4.344,16.893,16.893,0,0,1,5.691,9.934,50.178,50.178,0,0,1,.688,6.611l-.078.019a15.166,15.166,0,0,1,.32,2.124h.069a61.03,61.03,0,0,1-.181,8.86c-.237,2.081-.671,4.137-1.021,6.2a74.711,74.711,0,0,0-.9,7.95A104.523,104.523,0,0,1,83.48,94.5a.39.39,0,0,1-.016.061H47.384a13.827,13.827,0,0,1,.463-5.764" transform="translate(-33.964 -18.536)" fill="#b1ccce"/>
        <path id="Path_12697" data-name="Path 12697" d="M56.435,49.577a5.724,5.724,0,0,0,1.621,2.295M63,60.58a14.59,14.59,0,0,1-.34-2.805,4.975,4.975,0,0,1,.731-2.7m22.941,7.265c.007.254.016.506.025.759a60.578,60.578,0,0,1-.181,8.828c-.239,2.074-.671,4.122-1.021,6.18a74.207,74.207,0,0,0-.9,7.921A103.8,103.8,0,0,1,83.48,97a.374.374,0,0,1-.016.059c-.062.178-.256.36-.359.213M47.943,90.915c-.033.133-.064.267-.1.4a13.749,13.749,0,0,0-.464,5.743c.009.057.023.118.036.175m5.062-7.09a11.227,11.227,0,0,0,5.572-.823l3.075-1.012a13.021,13.021,0,0,0,5.337-2.726,14.116,14.116,0,0,0,2.452-4.163c2.562-5.47,6.459-10.305,9.1-15.744.787-1.623,2.626-6.061,3.179-7.769M44.339,86.024c0,.027.009.05.016.077a16.121,16.121,0,0,0,.609,2.185,4.748,4.748,0,0,0,1.28,2.11,1.348,1.348,0,0,0,.63.329,1.819,1.819,0,0,0,.684-.052l.267-.056,2.876-.592m-.553-9.343A3.306,3.306,0,0,1,51.5,79c.266-.209.538-.411.787-.626a11.2,11.2,0,0,0,2.173-2.86c2.7-4.545,5.1-9.249,7.856-13.764.877-1.436,1.841-3.335,3.262-4.31M50.545,62.184a93.336,93.336,0,0,0,.791,16.291m7.016-29.29a3.7,3.7,0,0,0,3.43-.825c2.328-1.8,3.286-4.7,4.738-7.187a2.239,2.239,0,0,1,.606-.745,1.477,1.477,0,0,1,.453-.207,3.483,3.483,0,0,1,1.081-.071,18.645,18.645,0,0,1,11.01,4.328,16.817,16.817,0,0,1,5.691,9.9,49.836,49.836,0,0,1,.688,6.587M60.717,34.529a20.549,20.549,0,0,0,6.714,5.414c.113.056.225.108.335.156M44.686,63.179a32.94,32.94,0,0,1,.892-6.618,7.883,7.883,0,0,1,1.574-3.515c1.736-1.948,4.854-2.235,6.863-3.931M34.793,65c-.013.038-.025.078-.035.117a5.323,5.323,0,0,0,.125,2.492,64.243,64.243,0,0,0,3.535,12.15c1.025,2.374,2.546,4.851,5.123,5.659a2.68,2.68,0,0,0,.681.134,1.533,1.533,0,0,0,.343-.022,2.355,2.355,0,0,0,.767-.344,11.927,11.927,0,0,0,4.523-5.034c.013-.026.025-.054.037-.079M44.159,63.823a1.186,1.186,0,0,1,.425.253,3.222,3.222,0,0,1,.756,1.616,13.434,13.434,0,0,0,1.305,3.218,22.594,22.594,0,0,1,2.027,3.669m-12.3-7.859a3.574,3.574,0,0,0,2.467.563,10.63,10.63,0,0,0,2.495-.669,1.4,1.4,0,0,0,.871-.6m.168-8.8a.835.835,0,0,1,.437.47,2.225,2.225,0,0,1,.153.664c.223,2.094.078,4.222.425,6.3.013.1.03.193.049.288m-8.036-6.6c.257.05.516.1.776.14.152.023.3.047.455.061a6.848,6.848,0,0,0,4.619-1.22m-5.424-.832c-.119.069-.24.141-.359.216a2.869,2.869,0,0,0-1.453,1.6,4.271,4.271,0,0,0,.416,2.2,11.427,11.427,0,0,1,.38,2.532c.056.759.11,1.517.166,2.275.009.136.021.27.03.407m7.643-19.17a16.767,16.767,0,0,1,7.41-4.956l.163-.055a1.215,1.215,0,0,1,.985-.019.737.737,0,0,1,.2.947,2.3,2.3,0,0,1-.754.763c-.388.287-.776.572-1.165.857l-.237.176m-5.3,4.322a30.306,30.306,0,0,0,2.67-2.565,7.412,7.412,0,0,1,1.785-1.6.725.725,0,0,1,.382-.113.546.546,0,0,1,.44.368c.012.028.021.056.03.084a1.879,1.879,0,0,1-.545,1.524c-.35.464-.706.921-1.078,1.368-.084.1-.168.2-.255.3A13.251,13.251,0,0,0,46.157,47.5c-.98,1.564-1.039,3.5-1.835,5.149a6.647,6.647,0,0,1-1.731,2.2.606.606,0,0,1-.053.043c-.068.056-.138.112-.209.167m-.908-12.025a11.9,11.9,0,0,1,3.668-2.853M36.173,56.368c-.009-.023-.019-.043-.028-.065a3.751,3.751,0,0,1-.175-2.13,11.853,11.853,0,0,1,.56-1.966q1.291-3.646,2.579-7.29A6.674,6.674,0,0,1,40,43.049a3.714,3.714,0,0,1,.448-.489,6.763,6.763,0,0,1,1.077-.805,16.635,16.635,0,0,1,3.175-1.5c1.312-.475,2.68-.84,4.033-1.2A1.434,1.434,0,0,1,49.5,39a.54.54,0,0,1,.34.293.319.319,0,0,1,0,.269M35.865,37.386c.021.068.041.133.062.2a7.581,7.581,0,0,0,4.245,4.492l.2.082M36.135,26c-.028.134-.061.268-.094.4-.367,1.537-.928,3.03-1.257,4.574a7.921,7.921,0,0,0,.322,5.046m8.575-14.984a8.051,8.051,0,0,0,.887.094c.419.027.841.034,1.259.066a10.961,10.961,0,0,1,8.439,5.075M37.174,25.208l.051-.084a6.843,6.843,0,0,1,2.58-2.857,20.223,20.223,0,0,1,2.1-.716,4.421,4.421,0,0,0,.47-.2M52.581,32.775a3.565,3.565,0,0,0,.822-.188c.088-.03.174-.065.258-.1a3.478,3.478,0,0,0,.909-.584m-6.327-.206a5.692,5.692,0,0,1,1.421.231,4.829,4.829,0,0,0,1.427.2,2.057,2.057,0,0,0,.7-.168,1.362,1.362,0,0,0,.549-.427m5.141-.4a2.411,2.411,0,0,1-.095-.837m-1.893-.626q-.026-.08-.049-.164a1.455,1.455,0,0,1,.109-1.236c.015-.021.029-.04.044-.058a1.352,1.352,0,0,1,1.177-.409,2.506,2.506,0,0,1,1.231.562,4.224,4.224,0,0,1,1.377,4.686l0,.014M48.362,46.464c.032.026.063.052.095.076a11.98,11.98,0,0,0,5.468,2.542c.032.008.064.013.1.019a11.544,11.544,0,0,0,3.608.239,3.607,3.607,0,0,0,.721-.158c.087-.027.17-.058.254-.091A4.99,4.99,0,0,0,61.194,46.5a10.615,10.615,0,0,0,.671-4.539,8.178,8.178,0,0,0-.421-2.849m-6.106,8.048a2.832,2.832,0,0,0,1.222-.879,6.019,6.019,0,0,0,.783-1.267,2.141,2.141,0,0,1,.506-.754m-7.327-.7a2.161,2.161,0,0,1,1,1.478,1.516,1.516,0,0,0,.235.822.834.834,0,0,0,.611.24,2.653,2.653,0,0,0,.667-.106m-2.345-7.568c.774-.612,2.282-1.686,3.058-2.3M53.5,39.949c0-.015.016-.03.033-.047.074-.073.218-.019.289.023C54.6,40.4,53.537,40.348,53.5,39.949Zm-6.8-2.7a2.864,2.864,0,0,1-.057.327,3.88,3.88,0,0,1-1.364,2.169,4.125,4.125,0,0,1-.35.249m2.263-8.809a1.535,1.535,0,0,0-.209.274,4.706,4.706,0,0,0-.288,2.206,4.864,4.864,0,0,1-.339,1.591,5.478,5.478,0,0,1-2.783,2.95" transform="translate(-33.964 -21.035)" fill="none" stroke="#731f23" stroke-linecap="round" stroke-linejoin="round" stroke-width="0.539"/>
      </g>
      <g id="Group_19221" data-name="Group 19221" transform="translate(-13509.012 -13421.791)">
        <path id="Path_12698" data-name="Path 12698" d="M116.4,47.558a.294.294,0,0,1-.023-.034,3.106,3.106,0,0,0-.354-.428c.033-.11.064-.221.09-.333a2.885,2.885,0,0,0-.234-2.274c-.146-.225-.342-.419-.483-.644-.233-.367-.359-.842-.763-1.033-.382-.184-.878-.03-1.248-.234-.343-.188-.467-.622-.806-.815a1.474,1.474,0,0,0-.584-.138c-.014,0-.025,0-.037,0a8.476,8.476,0,0,1-.965-1.911,9.014,9.014,0,0,1-1.2-1.836q-.16-.323-.294-.657l.015,0a4.258,4.258,0,0,0,2.794-.358,2.642,2.642,0,0,0,1.409-.953l.047-.053a7.394,7.394,0,0,0,3.32-.984,5.013,5.013,0,0,0,2.315-2.935l.067.018h0a13.18,13.18,0,0,1,.787-2.179,2.342,2.342,0,0,1,.4-.7,1.555,1.555,0,0,1,1.577-.312,3.415,3.415,0,0,1,1.133.666c.288.516.5,1.075.78,1.6a3.372,3.372,0,0,0,1.594,1.646l.054-.138a.225.225,0,0,0,.18-.007.446.446,0,0,0,.192-.253,4.733,4.733,0,0,0,.168-1.663,2.131,2.131,0,0,1,.446-1.388,1.142,1.142,0,0,1,.143-.127,2.66,2.66,0,0,1,.25-.159c0-.091,0-.181,0-.273a.051.051,0,0,1,.02-.009.737.737,0,0,1,.775.154,1.3,1.3,0,0,1,.271.537,9.932,9.932,0,0,1,.6,2.8,3.479,3.479,0,0,1-.876,2.486l-.006.007a5.57,5.57,0,0,1-.551.391,16.368,16.368,0,0,1,.3,3.455,13.366,13.366,0,0,1-.331,2.266c-.614,2.7-2.052,6.06-4.282,7.657a5.078,5.078,0,0,1-6.693-.843m5.556-8.857c.386.681.432-.118.023-.324a.192.192,0,0,0-.078.178.482.482,0,0,0,.055.146m-7.569,1.687c.524.591.4-.2-.05-.322a.193.193,0,0,0-.036.189.456.456,0,0,0,.087.132" transform="translate(-94.99 -16.157)" fill="#fff3ea"/>
        <path id="Path_12699" data-name="Path 12699" d="M126.267,39.524a4.23,4.23,0,0,0,2.022.432l.036-.066c.131.074.263.139.4.2a14.434,14.434,0,0,1-5.421,6.36,3.161,3.161,0,0,1-1.44.577h0a6.091,6.091,0,0,1-.74-.385c2.229-1.6,3.668-4.958,4.281-7.657q.2.149.414.281c.02.013.039.026.06.037a1.074,1.074,0,0,0,.111.067,1.3,1.3,0,0,0,.152.087c.042.025.085.047.13.069" transform="translate(-93.018 -14.487)" fill="#fff3ea"/>
        <path id="Path_12700" data-name="Path 12700" d="M108.3,37.8a4.241,4.241,0,0,1-.6-.653,2.056,2.056,0,0,1-.37-.853,2.416,2.416,0,0,1-.785-2.081,1.015,1.015,0,0,1,.019-.117,6.988,6.988,0,0,0-.5-2.281,13.6,13.6,0,0,1-.814-4,5.953,5.953,0,0,1,1.2-3.848l.015.007a4.365,4.365,0,0,1,1.3-1.449l-.151-.226c1.216-.8,2.238-1.857,3.452-2.663a10.423,10.423,0,0,1,7.63-1.48l0-.007c.49.073.99.028,1.48.082a2.872,2.872,0,0,1,.336.056l-.018.075c.988.939,2.49,1.2,3.611,1.994a4.924,4.924,0,0,1,1.751,2.393l.058-.02a9.011,9.011,0,0,1,.857,2.316,6.014,6.014,0,0,1,.728,3.26,6.445,6.445,0,0,1,.38,2.164.677.677,0,0,0-.4.559,2.131,2.131,0,0,0-.444,1.39,4.755,4.755,0,0,1-.17,1.662.434.434,0,0,1-.192.253.225.225,0,0,1-.18.008l-.054.138a3.376,3.376,0,0,1-1.594-1.646c-.277-.525-.491-1.084-.78-1.6a3.411,3.411,0,0,0-1.133-.666,1.556,1.556,0,0,0-1.577.312,2.384,2.384,0,0,0-.4.7,13.163,13.163,0,0,0-.786,2.178h0l-.067-.016A5.018,5.018,0,0,1,117.8,36.67a7.4,7.4,0,0,1-3.32.984l-.047.051a3.475,3.475,0,0,1-.577.559,3.539,3.539,0,0,1-.833.4,4.259,4.259,0,0,1-2.8.357l-.015.006q.137.333.294.656a6.03,6.03,0,0,1-1.041-.5A3.111,3.111,0,0,1,108.3,37.8Z" transform="translate(-95.709 -17.961)" fill="#edc5ad"/>
        <path id="Path_12701" data-name="Path 12701" d="M125.938,46.838a3.2,3.2,0,0,0,1.44-.571,14.4,14.4,0,0,0,5.421-6.331c.008-.019.018-.037.025-.056a121.565,121.565,0,0,1,12.906,3.093,9.773,9.773,0,0,1,4.752,2.492,8.558,8.558,0,0,1,1.6,3.694,65.463,65.463,0,0,1,1.793,18.257h-.105q.014,1.463-.092,2.921l.146.013c-.333,4.567-.9,9.2-3.132,13.247a5.058,5.058,0,0,1-1.069,1.434,5.925,5.925,0,0,1-2.162,1.018q-1.633.5-3.3.911l.037.151c0,.072.011.143.016.215l.187-.014a75.536,75.536,0,0,1,.63,8.96l.108.015a4.118,4.118,0,0,0-.067.74H104.954l-.125.017c-.433-2.769,1.112-5.567.78-8.329a4.074,4.074,0,0,1-.138-.672l.036-.116a5.187,5.187,0,0,0,.761.169,1.633,1.633,0,0,0,.892-.069.631.631,0,0,0,.4-.669c.025-.008.05-.017.075-.028,1.2.336,2.359.774,3.578,1.021a6.7,6.7,0,0,0,3.736-.159v-.047a3.1,3.1,0,0,0,.488-.022l.1-.012q-.144-1.367-.151-2.743a7.838,7.838,0,0,1-.23-.784,4.27,4.27,0,0,1-2.047.965,4.99,4.99,0,0,1-2.095-.228,12.883,12.883,0,0,1-5-2.907q-.305-.278-.594-.569c-.1-.1-.2-.2-.291-.3-.193-.2-.38-.413-.558-.63a8.8,8.8,0,0,1-.6-.808,7.364,7.364,0,0,1-.531-.932,14.78,14.78,0,0,1-.926-3.179c-1.026-4.673-2.525-9.243-3.911-13.836a26.006,26.006,0,0,1-1.5-8.2,5.09,5.09,0,0,1,.443-2.152,5.492,5.492,0,0,1,1.137-1.435,17.8,17.8,0,0,1,5.916-3.8,2.3,2.3,0,0,1,.685-.078,4.059,4.059,0,0,0,.806,1.589,8.748,8.748,0,0,1,1.125,1.991,3.4,3.4,0,0,1,.149,2.046,1.7,1.7,0,0,0-.2.306,15.37,15.37,0,0,0,7.508-.432,1.778,1.778,0,0,1,.522-.1c.028-.065.056-.129.088-.192l.178.08a9.976,9.976,0,0,0,1.852-3.347c.082-.454.12-.915.219-1.369.144-.649.409-1.27.6-1.909a3.183,3.183,0,0,1,.354.426c.007.01.014.022.023.035a5.094,5.094,0,0,0,6.693.838,5.861,5.861,0,0,0,.74.383Z" transform="translate(-97.095 -14.243)" fill="#b1ccce"/>
        <path id="Path_12702" data-name="Path 12702" d="M101.614,79.707a.716.716,0,0,1,.015-.372,1.34,1.34,0,0,1,.382-.518,14.037,14.037,0,0,1,3.072-2.212l.168-.18a12.862,12.862,0,0,0,5,2.921,4.952,4.952,0,0,0,2.1.23,4.264,4.264,0,0,0,2.046-.971c.064.268.14.531.23.79q.007,1.381.151,2.757l-.095.011a2.97,2.97,0,0,1-.489.022v.047a6.667,6.667,0,0,1-3.736.161c-1.218-.249-2.383-.688-3.578-1.027a.474.474,0,0,1-.074.028.639.639,0,0,1-.4.674,1.625,1.625,0,0,1-.892.069,5.236,5.236,0,0,1-.761-.171,7.2,7.2,0,0,1-2.468-1.363,2.328,2.328,0,0,1-.525-.552,1,1,0,0,1-.137-.344" transform="translate(-96.331 -8.324)" fill="#fff3ea"/>
        <path id="Path_12703" data-name="Path 12703" d="M106.179,52.224a3.438,3.438,0,0,0-.149-2.057,8.84,8.84,0,0,0-1.125-2,4.107,4.107,0,0,1-.806-1.6c-.007-.043-.013-.088-.018-.132a3.208,3.208,0,0,1,.724-1.99l-.129-.164a2.543,2.543,0,0,1,.585-.375,9.332,9.332,0,0,1,.608-2.58,2.284,2.284,0,0,1,.852-1.188,3.786,3.786,0,0,1,1.758-.3c.533-.029,1.059-.135,1.59-.182a15.117,15.117,0,0,1,2.806.091.374.374,0,0,1,.037,0,1.474,1.474,0,0,1,.584.138c.34.193.463.627.806.815.371.2.867.051,1.249.234.4.191.529.667.761,1.033.142.226.337.421.484.644a2.9,2.9,0,0,1,.234,2.275c-.026.112-.057.222-.09.332-.191.642-.456,1.267-.6,1.919-.1.454-.137.918-.219,1.374a10.049,10.049,0,0,1-1.852,3.364l-.178-.081c-.032.064-.06.127-.088.193a1.809,1.809,0,0,0-.522.1,15.284,15.284,0,0,1-7.508.434,1.743,1.743,0,0,1,.2-.306" transform="translate(-95.91 -14.388)" fill="#fff3ea"/>
        <path id="Path_12704" data-name="Path 12704" d="M103.173,74.441a8.827,8.827,0,0,0,.6.812l-.244.138a10.384,10.384,0,0,0-1.581,1.039,2.6,2.6,0,0,1-.016-.477.609.609,0,0,1-.084-.528.719.719,0,0,1,.276-.258l.772-.5-.012-.032a.793.793,0,0,0,.292-.193" transform="translate(-96.294 -8.608)" fill="#fff3ea"/>
        <path id="Path_12705" data-name="Path 12705" d="M101.232,79.081l0,0a.944.944,0,0,1-.064-.7,1.591,1.591,0,0,1,.37-.615,3.814,3.814,0,0,1,.322-.309,7.492,7.492,0,0,1,1.253-.877,4.171,4.171,0,0,0,1.173-.787l.161-.117c.095.1.192.2.29.3.194.194.392.386.6.572l-.168.18a14.058,14.058,0,0,0-3.07,2.212,1.337,1.337,0,0,0-.382.518.692.692,0,0,0-.015.372,2.14,2.14,0,0,1-.461-.753" transform="translate(-96.41 -8.451)" fill="#fff3ea"/>
        <path id="Path_12706" data-name="Path 12706" d="M101.821,77.549a3.494,3.494,0,0,0-.322.309l-.144-.184a1.9,1.9,0,0,1,.062-.677l.047.012a.727.727,0,0,1,.063-.165,1.757,1.757,0,0,1,.485-.525l.011-.007a10.472,10.472,0,0,1,1.581-1.039l.244-.138c.179.216.365.428.558.632l-.16.118a4.187,4.187,0,0,1-1.173.787,7.357,7.357,0,0,0-1.253.877" transform="translate(-96.373 -8.543)" fill="#fff3ea"/>
        <path id="Path_12707" data-name="Path 12707" d="M101.914,88.629l0,0m24.019-38.151h0c.1.044.2.085.306.122m3.645-7.857c.02.013.039.026.06.037m.263.153c.042.024.085.047.13.069m-.28-6.629.006-.008M144.4,91.018a75.8,75.8,0,0,1,.63,8.975M105.553,92.05c.022.125.04.249.055.374.335,2.766-1.212,5.567-.779,8.342l0,.021m34.541-23.755c.069-.157.131-.316.185-.476a9.662,9.662,0,0,0,.423-2.329c.241-2.891.022-5.8.092-8.7a19.233,19.233,0,0,1,1.807-8.462M128.17,93.084a4.444,4.444,0,0,0,2.021.028,136.4,136.4,0,0,0,13.972-2.447q1.663-.411,3.3-.913a5.936,5.936,0,0,0,2.163-1.02,5.046,5.046,0,0,0,1.067-1.437c2.231-4.05,2.8-8.691,3.134-13.268.032-.434.061-.866.09-1.3M125.081,85.266a21.606,21.606,0,0,1,1.4,5.616m-1.824-7.893a8.616,8.616,0,0,1,3.115-.56,13.353,13.353,0,0,0,5.579-1.821c.835-.5,1.608-1.095,2.442-1.6a27.592,27.592,0,0,1,4.966-2.173m-22.625,7.669a10.061,10.061,0,0,1,4.237-1.135,4.813,4.813,0,0,0,1.115-.113m-8.1,5.242c0,.19,0,.382,0,.572q.007,1.376.151,2.748c.055.561.131,1.118.222,1.675a.807.807,0,0,0,.168.438.933.933,0,0,0,.778.163c3.4-.322,6.726-1.234,10.136-1.3M107.58,91.02l.057.016c1.2.338,2.359.775,3.578,1.023a6.7,6.7,0,0,0,3.736-.16m-9.106-5.608a14.085,14.085,0,0,0-3.07,2.2,1.333,1.333,0,0,0-.382.516.711.711,0,0,0-.015.371.98.98,0,0,0,.138.343,2.25,2.25,0,0,0,.524.55,7.224,7.224,0,0,0,2.468,1.359,5.334,5.334,0,0,0,.761.169,1.632,1.632,0,0,0,.892-.069.633.633,0,0,0,.4-.671.068.068,0,0,0-.006-.023.981.981,0,0,0-.432-.463,4.666,4.666,0,0,0-2.057-.958m-.1-4.264a4.194,4.194,0,0,1-1.174.785,7.451,7.451,0,0,0-1.253.874,4,4,0,0,0-.322.308,1.585,1.585,0,0,0-.37.613.943.943,0,0,0,.064.694m0,0a.709.709,0,0,0,.306.3m2.1-4.188a10.535,10.535,0,0,0-1.581,1.035l-.009.007a1.773,1.773,0,0,0-.487.523.723.723,0,0,0-.063.164.581.581,0,0,0,.085.5m1.422-2.956-.772.5a.69.69,0,0,0-.275.258.6.6,0,0,0,.083.526l.013.022m22.7-34.9a1.438,1.438,0,0,0,.491.05m0,0a3.168,3.168,0,0,0,1.439-.575,14.391,14.391,0,0,0,5.421-6.338c.008-.019.018-.037.025-.056a121.2,121.2,0,0,1,12.906,3.1,9.749,9.749,0,0,1,4.752,2.5,8.585,8.585,0,0,1,1.6,3.7,65.606,65.606,0,0,1,1.793,18.285M129.612,42.543c.089.071.182.14.278.2m.06.037c.036.023.073.047.111.066s.1.059.152.086m.13.069a4.243,4.243,0,0,0,2.022.43M102.572,57.753a7.524,7.524,0,0,1,2.887,2.194m.159,6.51c-.64.993-.385,2.257-.515,3.414a15.19,15.19,0,0,1-.993,3.236,5.009,5.009,0,0,0-.23,3.309m3.47-10.675c2.371.959,5.078.654,7.63.29m1.8-1.742a26.388,26.388,0,0,1-1.073-8.057.758.758,0,0,0-.13-.547.512.512,0,0,0-.388-.143,1.777,1.777,0,0,0-.522.1,15.343,15.343,0,0,1-7.507.431c-.161-.029-.324-.063-.485-.1a.819.819,0,0,0-.619.021.688.688,0,0,0-.236.52,34.979,34.979,0,0,0-.1,8.313m-.481-14.857q-.328.115-.646.241a17.82,17.82,0,0,0-5.916,3.8,5.5,5.5,0,0,0-1.137,1.437,5.106,5.106,0,0,0-.443,2.157,26.081,26.081,0,0,0,1.5,8.214c1.385,4.6,2.886,9.175,3.913,13.857a14.623,14.623,0,0,0,.926,3.184,7.229,7.229,0,0,0,.53.934,9.033,9.033,0,0,0,.6.809c.178.216.365.427.559.629.094.1.191.205.289.3q.291.29.6.57a12.87,12.87,0,0,0,5,2.912,4.986,4.986,0,0,0,2.1.228,4.284,4.284,0,0,0,2.047-.968c.153-.122.3-.255.441-.389a9.9,9.9,0,0,0,2.31-3.475,12.528,12.528,0,0,0,.623-2,21.7,21.7,0,0,0,.3-6.191,48.877,48.877,0,0,0-1.519-9.2c-.129-.481-.262-.958-.416-1.431M106.442,49.14a9.127,9.127,0,0,1,0-1.658,9.231,9.231,0,0,1,.607-2.572,2.269,2.269,0,0,1,.852-1.183,3.788,3.788,0,0,1,1.758-.3c.533-.029,1.059-.134,1.591-.182a15.16,15.16,0,0,1,2.8.091c.014,0,.025,0,.039,0a1.459,1.459,0,0,1,.583.139c.34.191.463.624.806.812.371.2.867.05,1.249.233.4.19.529.663.761,1.028.143.226.338.42.484.643a2.877,2.877,0,0,1,.234,2.266c-.026.112-.056.221-.09.331-.191.64-.456,1.262-.6,1.913-.1.452-.138.915-.22,1.37a10,10,0,0,1-1.852,3.353m-8.147.513c.021-.058.037-.115.055-.174a3.412,3.412,0,0,0-.149-2.049,8.8,8.8,0,0,0-1.124-1.995,4.075,4.075,0,0,1-.807-1.592c-.006-.042-.013-.087-.016-.132a3.177,3.177,0,0,1,.724-1.983l.076-.112M118.5,49.256a5.09,5.09,0,0,0,6.693.84c2.229-1.591,3.669-4.94,4.281-7.629a13.318,13.318,0,0,0,.332-2.259,16.315,16.315,0,0,0-.295-3.442c-.044-.246-.09-.49-.135-.737M128,24.709c.063.1.123.2.178.305a5.984,5.984,0,0,1,.728,3.249c0,.037,0,.075-.008.112m-7-10.022c.987.936,2.49,1.2,3.611,1.988a4.916,4.916,0,0,1,1.751,2.385c.047.128.088.259.124.389m-18.952-.486c.2-.11.4-.227.585-.352,1.216-.794,2.236-1.851,3.452-2.654a10.451,10.451,0,0,1,7.63-1.475c.146.027.292.058.439.093m-12.6,16.15a2.8,2.8,0,0,0,.026-.354,6.944,6.944,0,0,0-.5-2.273,13.513,13.513,0,0,1-.814-3.989,5.919,5.919,0,0,1,1.2-3.835m.863,11.948a1.5,1.5,0,0,0,.013.339,2.015,2.015,0,0,0,.37.85,4.283,4.283,0,0,0,.594.65c.1.093.207.187.312.277m1.524.757c.023.064.049.126.073.189.09.221.187.439.294.654a8.953,8.953,0,0,0,1.2,1.83c.048.059.1.119.151.177m15.8-7.649a1.646,1.646,0,0,1,.08-.85m-.248-2.063c0-.023,0-.048,0-.072a.674.674,0,0,1,.4-.557l.019-.009a.739.739,0,0,1,.777.155,1.283,1.283,0,0,1,.27.535,9.862,9.862,0,0,1,.6,2.792,3.457,3.457,0,0,1-.876,2.476m-.006.008c-.041.041-.084.084-.13.122m-4.806-5.849a5.1,5.1,0,0,1,.339.53c.289.515.5,1.072.781,1.6a3.365,3.365,0,0,0,1.594,1.64l.1.038m-7.551-4.3a6.111,6.111,0,0,0,2.584.051m-1.1,1.491a7.138,7.138,0,0,1-3.68.368m3.3,1.618a5,5,0,0,1-2.316,2.925,7.4,7.4,0,0,1-3.32.979c-.15.01-.3.017-.447.02m5.425,1.635c1.369-.418,2.631-1.7,3.735-2.544m-3.282,11.6,1.215-.261m-2.936-6.461a2.29,2.29,0,0,1,.462,1.768c-.047.295-.154.579-.2.874a1.16,1.16,0,0,0,.14.865c.13.181.337.311.43.511m-6.392-6.074a10.985,10.985,0,0,0,3.966.494m6.025.276a.184.184,0,0,1,.078-.177c.407.205.364,1-.023.322A.428.428,0,0,1,124,40.285Zm-7.6,1.694a.188.188,0,0,1,.034-.189c.447.121.574.91.051.321A.413.413,0,0,1,116.4,41.979Z" transform="translate(-97.095 -17.961)" fill="none" stroke="#731f23" stroke-linecap="round" stroke-linejoin="round" stroke-width="0.539"/>
      </g>
      <g id="Group_19220" data-name="Group 19220" transform="translate(-13366.052 -13419.669)">
        <path id="Path_12708" data-name="Path 12708" d="M185.4,51.776l.122-.151.05.041a4.674,4.674,0,0,0,2.376-2.2,2.873,2.873,0,0,0,.1-.382,11.3,11.3,0,0,0,10.273-.051l-.061-.113.88-.522c0,.016,0,.032,0,.048a4.773,4.773,0,0,0,.2,2.167,4.406,4.406,0,0,0,.653,1.018q.623.795,1.316,1.533l-.069.064a3.443,3.443,0,0,0,.163.411c.718-.673,1.5-1.283,2.279-1.89l2.578-2.012c.013-.068.027-.137.037-.2.379-1.24.924-2.934,1.293-4.144.1-.313.192-.628.271-.946l.89.561-.012.032a26.7,26.7,0,0,0,3.26.866c1.312.262,2.652.428,3.941.786a7.638,7.638,0,0,1,3.465,1.855,9.308,9.308,0,0,1,1.245,1.709,24.589,24.589,0,0,1,1.908,3.641c.364.909.415,1.9.74,2.814.282.793.622,1.567.916,2.357.283.759.4,1.549.6,2.328q.46,1.769.923,3.531a32.572,32.572,0,0,1,1.328,7.292,11.059,11.059,0,0,1-1.991,7.037,4.9,4.9,0,0,1-1.986,1.64,5.381,5.381,0,0,1-4.238-.425,14.2,14.2,0,0,1-4.137-3.183q-.5-.535-.969-1.1c0,.13,0,.256-.007.386l-.2,0a79.288,79.288,0,0,0-.338,10.014c.09,3.042.351,6.128-.345,9.1V95.7h-38.5a71.1,71.1,0,0,1-.041-17.271,47.343,47.343,0,0,0,.518-6.791q-.018-.867-.075-1.731a27.674,27.674,0,0,1-9.5,8.02,3.084,3.084,0,0,1-1.93.419,6.272,6.272,0,0,1-2.2-1.6l-.067.049a3.719,3.719,0,0,1-.5-.939,9.464,9.464,0,0,1-1.7-7.464,18.711,18.711,0,0,1,1.514-4.06l1.875-4.053c.84-1.812,1.68-3.626,2.661-5.372a39.257,39.257,0,0,1,2.59-4.007,9.283,9.283,0,0,1,7.663-4.727c1.8-.194,3.624-.226,5.443-.248a2.308,2.308,0,0,1,.481-.09l.021,0a9.187,9.187,0,0,1-.441,1.643l-.363.476a3.021,3.021,0,0,1,.418.185,15.82,15.82,0,0,1,4.682,3.626" transform="translate(-158.676 -15.765)" fill="#b1ccce"/>
        <path id="Path_12709" data-name="Path 12709" d="M196.642,36.273a.453.453,0,0,1,.147.091,1.083,1.083,0,0,1,.266.539q.354,1.351.761,2.689l.147-.044a1.87,1.87,0,0,0-.043-1.57q-.335-.993-.718-1.969c-.091-.236-.187-.471-.282-.708a1.553,1.553,0,0,1-.159-.615.536.536,0,0,1,.34-.5c.346-.109.644.227.828.537l.1-.04.012-.009a.649.649,0,0,1,.625-.044,1.415,1.415,0,0,1,.5.413,4.444,4.444,0,0,1,.339.461,10.7,10.7,0,0,1,.864,1.735l.808,1.9a12.68,12.68,0,0,1,.578,1.542,12.746,12.746,0,0,1,.35,2.218,11.036,11.036,0,0,1,.057,2.357,7.252,7.252,0,0,1-.18.928c-.081.317-.177.632-.273.946-.368,1.209-.914,2.9-1.291,4.144-.012.067-.026.136-.037.2l-2.579,2.012c-.78.608-1.56,1.218-2.277,1.891a3.1,3.1,0,0,1-.163-.412l.069-.064q-.695-.737-1.317-1.532a4.429,4.429,0,0,1-.653-1.018,4.774,4.774,0,0,1-.2-2.167c0-.018,0-.032,0-.049q.077-1.269.153-2.538a2.893,2.893,0,0,1,.165-.947,1.257,1.257,0,0,1,.275-.408.923.923,0,0,1,.426-.239.7.7,0,0,1,.771.318l.035-.014c.047.12.095.242.142.361a16.109,16.109,0,0,0,1.1-2.326,6.551,6.551,0,0,0-.177-3.307A8.524,8.524,0,0,1,195.772,37a1.211,1.211,0,0,1,.273-.564.584.584,0,0,1,.6-.166" transform="translate(-152.811 -17.307)" fill="#fff3ea"/>
        <path id="Path_12710" data-name="Path 12710" d="M199.671,34.241a8.044,8.044,0,0,1-1.056-2.66,3.011,3.011,0,0,0-2.228-1.277,3.883,3.883,0,0,0-1.075.13,4.641,4.641,0,0,0-1.266.485c-.076.046-.151.094-.225.145-.379.26-.721.575-1.1.837a4.74,4.74,0,0,1-1.477.681l0,0a2.938,2.938,0,0,0-1.85.022c-.6.173-1.17.444-1.772.616a5.881,5.881,0,0,1-3.592-.126,3.089,3.089,0,0,1-.63.4,1.455,1.455,0,0,1-1.137.073,1.755,1.755,0,0,1-.846-.933h0a3.428,3.428,0,0,0,.014-.743l-.087,0a16.379,16.379,0,0,0-.688-3.179,6.294,6.294,0,0,1,.282-3.4l-.065-.026a3.631,3.631,0,0,1,1.422-2.055.461.461,0,0,1,.039-.027c1.191-.826,2.172-1.953,3.527-2.511a9.69,9.69,0,0,1,2.889-.547l.006.016a4,4,0,0,1,2.011-.188l.028-.187a10.759,10.759,0,0,0,1.724.116,10.145,10.145,0,0,1,2.348.069,6.458,6.458,0,0,1,2.544,1.462,7.118,7.118,0,0,1,1.071.829,2.963,2.963,0,0,1,.345.4,2.49,2.49,0,0,0,.188.3c.443.612,1.123,1.077,1.538,1.717a5.177,5.177,0,0,1,.62,1.815,17.059,17.059,0,0,1,.43,3.4,7.506,7.506,0,0,1-.343,2.305A13.454,13.454,0,0,1,200.8,35a1.29,1.29,0,0,1-.109.277.359.359,0,0,1-.58.1.889.889,0,0,1-.226-.326,2.438,2.438,0,0,1-.212-.8" transform="translate(-154.966 -19.666)" fill="#edc5ad"/>
        <path id="Path_12711" data-name="Path 12711" d="M184.834,44.923a7.008,7.008,0,0,0,.836.739,12.749,12.749,0,0,0,1.15.74,5.813,5.813,0,0,0,2.155.9,6.523,6.523,0,0,0,3.528-.856,9.933,9.933,0,0,0,2.58-2.151l.387.225a1.258,1.258,0,0,0-.275.407,2.894,2.894,0,0,0-.165.949q-.075,1.269-.153,2.538c-.29.173-.585.347-.88.522l.061.113a11.3,11.3,0,0,1-10.273.05c.023-.1.04-.213.059-.319a4.017,4.017,0,0,1,.151-.664,7.906,7.906,0,0,1,.723-1.316,1.918,1.918,0,0,0,.3-1.423.977.977,0,0,0-.233-.407Z" transform="translate(-154.415 -15.616)" fill="#fff3ea"/>
        <path id="Path_12712" data-name="Path 12712" d="M182.383,53.641c-.04.051-.081.1-.122.152a15.82,15.82,0,0,0-4.682-3.626,3.174,3.174,0,0,0-.418-.186l.363-.474a9.242,9.242,0,0,0,.441-1.643,17.882,17.882,0,0,0,.242-3.053,29.755,29.755,0,0,1,.248-5.116,22.805,22.805,0,0,1,1.373-4.245,17.114,17.114,0,0,1,.916-2.039c.07-.131.145-.257.223-.381.15-.24.371-.5.662-.483a.666.666,0,0,1,.531.446,1.884,1.884,0,0,1,.091,1.035,3.435,3.435,0,0,1-.081.4,1.061,1.061,0,0,1,1.192.392,2.019,2.019,0,0,1,.317,1.246,12.739,12.739,0,0,1-.891,3.654,10.123,10.123,0,0,0-.453,1.876,17.362,17.362,0,0,0,.648,5.24c.012.069.026.139.037.209l.059-.012c.026.225.521.492.752.446a1.174,1.174,0,0,0,.58-.377,1.574,1.574,0,0,1,.546-.422.771.771,0,0,1,.468-.015,1.04,1.04,0,0,1,.48.3.983.983,0,0,1,.234.408,1.915,1.915,0,0,1-.3,1.422,8.094,8.094,0,0,0-.725,1.316,4.312,4.312,0,0,0-.149.666c-.02.106-.036.214-.058.319a2.847,2.847,0,0,1-.1.384,4.672,4.672,0,0,1-2.376,2.2Z" transform="translate(-155.539 -17.572)" fill="#fff3ea"/>
        <path id="Path_12713" data-name="Path 12713" d="M180.5,33.67c-.078.125-.153.253-.222.381l-.047-.027a2.516,2.516,0,0,1-.173-.261l.113-.068a2.023,2.023,0,0,1-.264-.812.8.8,0,0,1,.361-.738.561.561,0,0,1,.768.188l.071.013a3.447,3.447,0,0,0,.412-1.241,1.755,1.755,0,0,0,.844.932,1.45,1.45,0,0,0,1.137-.073,3.01,3.01,0,0,0,.63-.4,5.881,5.881,0,0,0,3.592.127c.6-.172,1.169-.443,1.772-.618a2.938,2.938,0,0,1,1.85-.022l0,0a4.677,4.677,0,0,0,1.477-.681c.38-.262.721-.578,1.1-.837.074-.05.149-.1.225-.144a4.6,4.6,0,0,1,1.267-.487,3.825,3.825,0,0,1,1.074-.129,3.006,3.006,0,0,1,2.228,1.277,8.074,8.074,0,0,0,1.056,2.659,2.483,2.483,0,0,0,.212.8.9.9,0,0,0,.226.325.357.357,0,0,0,.58-.1l.323.033a1.342,1.342,0,0,1,.287-.215.586.586,0,0,1,.471-.046.686.686,0,0,1,.344.418,2.532,2.532,0,0,1,.03,1.765l-.032-.013c-.158.235-.306.477-.442.724a4.444,4.444,0,0,0-.339-.461,1.421,1.421,0,0,0-.5-.413.651.651,0,0,0-.626.044l-.011.009-.105.04c-.184-.31-.482-.646-.828-.537a.536.536,0,0,0-.34.5,1.548,1.548,0,0,0,.159.615c.095.236.191.471.283.708a.661.661,0,0,0-.411.35l0,0a.441.441,0,0,0-.147-.091.584.584,0,0,0-.6.166,1.2,1.2,0,0,0-.274.564,8.51,8.51,0,0,0,.4,4.033c-.1.3-.212.587-.326.877l-.095-.032a12.283,12.283,0,0,1-2.267,4.137,9.949,9.949,0,0,1-2.58,2.15,6.521,6.521,0,0,1-3.528.856,5.788,5.788,0,0,1-2.156-.9,12.483,12.483,0,0,1-1.149-.74,7.01,7.01,0,0,1-.837-.738,9.34,9.34,0,0,1-1.744-2.622,20.359,20.359,0,0,1-1.095-3.22,13.483,13.483,0,0,1-.275-1.337l-.055-.018a12.691,12.691,0,0,0,.891-3.654,2.019,2.019,0,0,0-.317-1.246,1.059,1.059,0,0,0-1.191-.392,3.379,3.379,0,0,0,.08-.4,1.9,1.9,0,0,0-.09-1.035.668.668,0,0,0-.531-.446c-.292-.016-.513.243-.663.483M194,37.78c.1.766.445.037.142-.3a.206.206,0,0,0-.14.14.406.406,0,0,0,0,.156m-7.819-.112c.16.757.449,0,.119-.305a.2.2,0,0,0-.129.15.426.426,0,0,0,.009.156" transform="translate(-155.073 -18.14)" fill="#fff3ea"/>
        <path id="Path_12714" data-name="Path 12714" d="M186,23.231a.323.323,0,0,1,.039-.027M160.553,79.85a3.738,3.738,0,0,0,.5.936m33.9-48.235a2.948,2.948,0,0,0-1.85.022c-.6.173-1.17.443-1.771.614a5.9,5.9,0,0,1-3.593-.126,5.538,5.538,0,0,1-.575-.246m10.734-1.331a.777.777,0,0,0-.365-.443,1.866,1.866,0,0,0-.6-.235c-1.484-.337-3.145.1-4.516-.538M212.85,99.6c.7-2.963.434-6.038.344-9.069a78.484,78.484,0,0,1,.339-9.977m-38.769-5.973c.033.357.055.712.064,1.069a46.844,46.844,0,0,1-.517,6.766,70.605,70.605,0,0,0,.041,17.211l0,.037m14.258-44.01a14.957,14.957,0,0,0,9.618.473m-10.191-2.963,0,0a11.341,11.341,0,0,0,10.273-.05c.146-.075.29-.157.432-.241m13.4,8.256a.853.853,0,0,1,.833-.149,2.392,2.392,0,0,1,.752.448q2.5,1.942,5.01,3.887a26.9,26.9,0,0,1,2.089,1.736,12.9,12.9,0,0,1,2.048,2.509M208.022,48.88q.353.129.712.246a26.508,26.508,0,0,0,3.26.863c1.312.261,2.652.428,3.941.783A7.646,7.646,0,0,1,219.4,52.62a9.332,9.332,0,0,1,1.245,1.7,24.416,24.416,0,0,1,1.907,3.628c.365.906.415,1.889.74,2.806.283.789.623,1.561.916,2.347a23.317,23.317,0,0,1,.6,2.321q.46,1.761.924,3.518a32.421,32.421,0,0,1,1.328,7.266,10.991,10.991,0,0,1-1.992,7.012,4.889,4.889,0,0,1-1.985,1.634,5.4,5.4,0,0,1-4.238-.422,14.2,14.2,0,0,1-4.137-3.173q-.5-.533-.969-1.091a55.743,55.743,0,0,1-4.034-5.7q-1.632-2.523-3.267-5.048c-.441-.685-.883-1.582-.388-2.234m.829-1.627a16.075,16.075,0,0,0,4.17-3.919m-5.562,4.251-4.729-5.369a1.912,1.912,0,0,1-.559-.964,1.776,1.776,0,0,1,.664-1.342c.171-.179.35-.351.531-.519.718-.67,1.5-1.277,2.277-1.884l2.579-2,.047-.036c.132-.1.306-.214.463-.149a.482.482,0,0,1,.178.164q2.27,3,4.537,6.006m-50.358,20.94a6.275,6.275,0,0,0,2.2,1.592,3.1,3.1,0,0,0,1.929-.418,27.63,27.63,0,0,0,9.5-7.992q.63-.8,1.219-1.619a48.049,48.049,0,0,1,3.012-4.042,4.842,4.842,0,0,0,1.521-2.43M160.792,80.156c-.083-.1-.161-.2-.239-.305a9.4,9.4,0,0,1-1.7-7.437,18.659,18.659,0,0,1,1.512-4.046q.939-2.018,1.876-4.039c.839-1.805,1.68-3.613,2.661-5.353a38.909,38.909,0,0,1,2.59-3.993,9.287,9.287,0,0,1,7.663-4.71c1.8-.193,3.624-.225,5.443-.247.088,0,.177,0,.264,0m-7.047,8.8c-1.383.283-2.323,1.446-3.275,2.434-2.307,2.393-5.317,4.151-7.378,6.733m11.588-8.421q2.616,2.2,5.016,4.619m-5.234-6.162q1.9-2.493,3.8-4.989c.4-.522.915-1.1,1.6-1.066a1.4,1.4,0,0,1,.365.077,3.077,3.077,0,0,1,.416.184,15.818,15.818,0,0,1,4.683,3.613,14.906,14.906,0,0,1,1.069,1.36,1.031,1.031,0,0,1,.261.721,1.1,1.1,0,0,1-.174.374,36.129,36.129,0,0,1-4.709,5.947m19.116-15.482a.421.421,0,0,0-.034-.093.7.7,0,0,0-.77-.317.934.934,0,0,0-.427.239,1.258,1.258,0,0,0-.275.407,2.925,2.925,0,0,0-.165.944q-.075,1.264-.153,2.529c0,.016,0,.031,0,.048a4.779,4.779,0,0,0,.2,2.161,4.444,4.444,0,0,0,.653,1.013q.623.792,1.317,1.528l.078.084M203.9,37.077l.012-.009a.651.651,0,0,1,.625-.044,1.42,1.42,0,0,1,.5.411,4.552,4.552,0,0,1,.34.458,10.706,10.706,0,0,1,.863,1.73l.808,1.9a12.613,12.613,0,0,1,.578,1.536,12.659,12.659,0,0,1,.35,2.21,10.952,10.952,0,0,1,.058,2.347,7.175,7.175,0,0,1-.181.924c-.081.317-.177.631-.271.943-.368,1.206-.915,2.894-1.293,4.13-.012.037-.023.073-.034.108m-2.429-11.791a1.855,1.855,0,0,0-.043-1.563q-.335-.99-.717-1.963c-.092-.234-.188-.47-.283-.7a1.566,1.566,0,0,1-.158-.613.531.531,0,0,1,.339-.5c.346-.108.644.225.829.535.009.019.021.037.029.054,1.446,2.618,2.923,5.35,3.02,8.3m-6.222,6.437a6.682,6.682,0,0,1,.269-2.367,5.4,5.4,0,0,1,.212-.518,16.028,16.028,0,0,0,1.1-2.318,6.493,6.493,0,0,0-.175-3.3,8.439,8.439,0,0,1-.394-4.02,1.184,1.184,0,0,1,.273-.561.58.58,0,0,1,.6-.166.424.424,0,0,1,.147.091,1.068,1.068,0,0,1,.266.537q.354,1.346.761,2.68.474,1.546,1.021,3.072m-18.659-2.654c.07.261.139.524.212.786a20.165,20.165,0,0,0,1.1,3.209A9.254,9.254,0,0,0,189.094,49a7.011,7.011,0,0,0,.837.737,12.9,12.9,0,0,0,1.149.738,5.818,5.818,0,0,0,2.156.9,6.539,6.539,0,0,0,3.528-.853,9.883,9.883,0,0,0,2.58-2.143,12.21,12.21,0,0,0,2.267-4.121c.084-.246.16-.494.233-.746m-17.2-9.679a.562.562,0,0,0-.768-.189.8.8,0,0,0-.363.737,2.011,2.011,0,0,0,.264.809m2.442,13.93c.026.224.519.49.752.443a1.164,1.164,0,0,0,.58-.374,1.556,1.556,0,0,1,.545-.421.774.774,0,0,1,.468-.015,1.029,1.029,0,0,1,.481.3,1,1,0,0,1,.234.406,1.909,1.909,0,0,1-.3,1.418,8.058,8.058,0,0,0-.724,1.312,4.224,4.224,0,0,0-.15.661c-.019.106-.035.214-.059.319a2.987,2.987,0,0,1-.1.381,4.676,4.676,0,0,1-2.376,2.2m-.266-19.185,0,0a1.062,1.062,0,0,1,1.191.392,2.006,2.006,0,0,1,.317,1.241,12.609,12.609,0,0,1-.891,3.641,10.129,10.129,0,0,0-.453,1.87,17.281,17.281,0,0,0,.648,5.222c.013.069.026.139.037.209a11.28,11.28,0,0,1,.194,1.824m-5.826.969c.048-.112.092-.225.136-.34a9.168,9.168,0,0,0,.441-1.639,17.87,17.87,0,0,0,.241-3.041,29.662,29.662,0,0,1,.249-5.1,22.707,22.707,0,0,1,1.373-4.231,16.908,16.908,0,0,1,.916-2.03c.07-.129.144-.255.223-.381.149-.238.37-.5.662-.48a.664.664,0,0,1,.531.443,1.888,1.888,0,0,1,.09,1.033,3.338,3.338,0,0,1-.08.4c-.007.034-.016.069-.026.1-.6,2.272-1.978,4.331-2.382,6.64m21.733-7.941.087-.084a1.344,1.344,0,0,1,.285-.214.6.6,0,0,1,.473-.044.687.687,0,0,1,.343.416,2.515,2.515,0,0,1,.032,1.759,2.386,2.386,0,0,1-.2.427m-3.35-6.147c0,.031.011.063.018.092a8.025,8.025,0,0,0,1.056,2.65l.023.035m-.924-11.684c.016.035.035.07.054.106a2.646,2.646,0,0,0,.189.3c.442.61,1.122,1.073,1.537,1.711a5.123,5.123,0,0,1,.62,1.809,16.943,16.943,0,0,1,.432,3.385,7.492,7.492,0,0,1-.343,2.3,5.447,5.447,0,0,1-.44,1M193.856,19.683c.213.044.43.084.644.115a10.8,10.8,0,0,0,1.724.115,10.178,10.178,0,0,1,2.348.069,6.468,6.468,0,0,1,2.545,1.457c.028.024.057.047.085.071m-15.688,2.028c.168-.1.329-.2.488-.308m.039-.027c1.19-.823,2.172-1.946,3.525-2.5a9.727,9.727,0,0,1,2.889-.545M185.014,32.3a3.19,3.19,0,0,0,.037-.446,16.275,16.275,0,0,0-.689-3.168,6.251,6.251,0,0,1,.283-3.386,6.028,6.028,0,0,1,.284-.642m15.84,5.229a8.47,8.47,0,0,0-1.464-1.463,3.032,3.032,0,0,0-1.985-.619m-5.543,19.55a10.9,10.9,0,0,1,3.949-.106m.473-11.259c1.668-.21,2.105-.883,3.224-1.055.663-.1,1.551-.119,1.778.513m-13.4-.207c1.233-.909,2.881.207,3.838,1.063m1.826,2.959a1.771,1.771,0,0,1-.064,1.483c-.208.4-.574.744-.642,1.185a1.938,1.938,0,0,0,.456,1.275M197.6,39.1a.2.2,0,0,1,.14-.14c.3.332-.043,1.058-.142.295A.4.4,0,0,1,197.6,39.1Zm-7.83-.112a.2.2,0,0,1,.129-.149c.33.308.042,1.058-.119.3A.424.424,0,0,1,189.774,38.987Z" transform="translate(-158.676 -19.683)" fill="none" stroke="#731f23" stroke-linecap="round" stroke-linejoin="round" stroke-width="0.539"/>
      </g>
      <g id="Group_19217" data-name="Group 19217" transform="translate(-13717.658 -13420.729)">
        <path id="Path_12715" data-name="Path 12715" d="M66,129.151a15.453,15.453,0,0,1,2.012.364,7.22,7.22,0,0,1,3.972,2.44,10.293,10.293,0,0,1,1.6,4.416c1.549,8.2,2.154,16.59,4.457,24.609a.07.07,0,0,1,.006.021c.1.4.184.81.251,1.218l.019,0a85.817,85.817,0,0,1,1.174,16.528H36.549q.366-5.409.729-10.816l-.086-.005q-.054-.393-.11-.788a16.6,16.6,0,0,0,3.834-3.319,23.211,23.211,0,0,0,2.1-3.282c2.527-4.48,5.054-8.968,7.208-13.639.453-.979.889-1.969,1.427-2.9,1.385-2.411,3.427-4.456,4.392-7.061a1.008,1.008,0,0,0,.063-.753.864.864,0,0,0-.341-.35c.218-.2.433-.4.649-.6a2.966,2.966,0,0,0,.343-.32,4.457,4.457,0,0,0,.583-.78c.309-.51.551-1.058.856-1.57l.024.013a.893.893,0,0,0,.249.076l0-.029a8.059,8.059,0,0,0,4.064-3.78l.395.094c.933.035,2.02.094,3.062.221" transform="translate(-28.17 -98.432)" fill="#e1d3b8"/>
        <path id="Path_12716" data-name="Path 12716" d="M53.934,126.764l.365.428c-.249.062-.5.124-.744.192l-.046-.033c.144-.207.282-.4.424-.587" transform="translate(-27.133 -98.376)" fill="#fff3ea"/>
        <path id="Path_12717" data-name="Path 12717" d="M43.168,112.269c1.479-2.329,5.148-5.037,8.026-4.432l.022.216a5.757,5.757,0,0,1,2.255-.458v.034a3.164,3.164,0,0,1,2.454,1.053,20.69,20.69,0,0,1,2.567,3.369l-.032.02a10.835,10.835,0,0,1,.5,5.272q-.075,1.052-.147,2.106l.143.018a15.142,15.142,0,0,1-.612,3.019,5.237,5.237,0,0,0-.49.912,5.341,5.341,0,0,0-.7.344,43.875,43.875,0,0,0-5.787,4.241,9.726,9.726,0,0,1-2.186,1.6,1.182,1.182,0,0,1-.694.144c-.5-.092-.727-.675-.83-1.176-.158-.777-.243-1.57-.464-2.332a3.881,3.881,0,0,0-1.21-2,.942.942,0,0,0-.939-.233.744.744,0,0,0-.384.659l-.04,0c-.15-.271-.3-.542-.445-.816l.071-.041a7.728,7.728,0,0,1-1.193-3.8,4.093,4.093,0,0,1-.733-.533l.008-.013a2.643,2.643,0,0,1-.629-.633,7.367,7.367,0,0,1-1.442-4.216,2.167,2.167,0,0,1,.11-.833.91.91,0,0,1,.583-.57.588.588,0,0,1,.7.329l-.006.068a.851.851,0,0,0,.644-.337,6.213,6.213,0,0,0,.789-1.03Zm12.146,5.575a1,1,0,0,0-.025-.832c-.139-.153-.218.028-.253.249a1.344,1.344,0,0,0,0,.491c.057.138.171.264.275.091m-7.955-.643a.987.987,0,0,0-.025-.832c-.137-.154-.218.027-.251.25a1.315,1.315,0,0,0,0,.489c.057.14.171.265.275.092" transform="translate(-27.943 -99.448)" fill="#fff3ea"/>
        <path id="Path_12718" data-name="Path 12718" d="M45.967,132.245c-.005-.04-.011-.082-.015-.122l-.059.006a9.549,9.549,0,0,1-.192-2.21,16.164,16.164,0,0,0-1.068-5.281,2.5,2.5,0,0,1-.221-.832c0-.02,0-.041,0-.063a.744.744,0,0,1,.383-.658.943.943,0,0,1,.94.232,3.881,3.881,0,0,1,1.21,2c.221.762.306,1.556.464,2.333.1.5.327,1.083.829,1.175a1.178,1.178,0,0,0,.694-.143,9.765,9.765,0,0,0,2.187-1.6,43.811,43.811,0,0,1,5.787-4.242,5.341,5.341,0,0,1,.7-.344c.6-.244,1.321-.4,1.3.244a1.076,1.076,0,0,1-.3.7c-.908.84-1.738,1.4-2.719,2.157a7.143,7.143,0,0,0-1.4,1.44c-.143.185-.28.38-.424.587l.046.033c.246-.069.493-.132.743-.192q.867-.21,1.748-.369a1.684,1.684,0,0,1,.573-.034.6.6,0,0,1,.461.31.628.628,0,0,1,.049.307l.1,0c.039.166.077.332.116.5a.569.569,0,0,1,.432.257,1.333,1.333,0,0,1,.19.516.843.843,0,0,1,.005.43.947.947,0,0,1-.209.319c-.083.1-.166.192-.249.29.045.121.082.247.116.374l-.088.076a.907.907,0,0,1,.451,1.1,3.906,3.906,0,0,1-.646,1.125c-.065.094-.125.193-.183.292-.306.513-.549,1.06-.857,1.57a4.554,4.554,0,0,1-.582.781c-.114.105-.229.212-.343.319-.218.2-.433.4-.65.6l-.122-.074-3.4-2.042c-1.7-1.021-3.559-2.079-5.538-1.9a2.352,2.352,0,0,0-.256.036" transform="translate(-27.689 -98.65)" fill="#fff3ea"/>
        <path id="Path_12719" data-name="Path 12719" d="M42.056,113.982a.589.589,0,0,0-.7-.329.915.915,0,0,0-.583.57,2.167,2.167,0,0,0-.11.833,7.368,7.368,0,0,0,1.442,4.217,2.658,2.658,0,0,0,.629.632l-.008.013a4.061,4.061,0,0,0,.733.534,7.732,7.732,0,0,0,1.193,3.8l-.071.04c.147.274.295.545.445.816l.04,0c0,.021,0,.042,0,.063a2.473,2.473,0,0,0,.22.832,16.164,16.164,0,0,1,1.068,5.281,9.549,9.549,0,0,0,.192,2.21l.059-.006c0,.04.01.081.015.122a1.073,1.073,0,0,0-.541.239,1.569,1.569,0,0,0-.358.6c-1.479,3.68-2.574,7.576-4.83,10.837-.436.631-.917,1.238-1.419,1.83l-.04-.034a1.613,1.613,0,0,1-1.305.232,2.032,2.032,0,0,1-1.335-.808l-.082.011a6.065,6.065,0,0,1-.8-3.615c.175-4.2,2.272-8.076,3.371-12.117a2.805,2.805,0,0,0-.977.238l-.025-.058c-1.44.625-3.125.727-4.611,1.255a2.454,2.454,0,0,1,.151-.31l-.017-.011c3.754-6.254,4.257-13.547,6.02-20.433,1.379-5.392,6-12.91,12.22-11.343l.022.007c.051.015.1.029.154.04a3.126,3.126,0,0,0,1.7-.071l.049.153a3.006,3.006,0,0,1,2.153.358c2.552,1.391,4.072,4.3,4.883,6.977a48.434,48.434,0,0,1,1.338,7.156,91.1,91.1,0,0,0,3.638,15.72l-.031.015c.079.142.15.289.215.436-1.041-.126-2.129-.186-3.062-.221l-.395-.094a8.061,8.061,0,0,1-4.063,3.78l-.005.029a.893.893,0,0,1-.249-.076l-.023-.013c.057-.1.118-.2.183-.292a3.906,3.906,0,0,0,.646-1.125.907.907,0,0,0-.451-1.1l.088-.076c-.034-.126-.071-.253-.116-.374l.25-.29a.96.96,0,0,0,.208-.319.843.843,0,0,0-.005-.43,1.333,1.333,0,0,0-.19-.516.569.569,0,0,0-.432-.257c-.038-.166-.076-.332-.116-.5l-.1,0a.628.628,0,0,0-.049-.307.6.6,0,0,0-.459-.31,1.689,1.689,0,0,0-.574.034q-.88.158-1.748.369c-.122-.142-.242-.285-.364-.428a7.175,7.175,0,0,1,1.4-1.441c.982-.754,1.81-1.316,2.719-2.156a1.076,1.076,0,0,0,.3-.7c.022-.645-.7-.488-1.3-.244a5.237,5.237,0,0,1,.49-.912,15.142,15.142,0,0,0,.612-3.019l-.144-.018q.075-1.052.147-2.106a10.822,10.822,0,0,0-.5-5.272l.032-.02a20.69,20.69,0,0,0-2.567-3.369,3.165,3.165,0,0,0-2.455-1.053v-.033a5.737,5.737,0,0,0-2.254.458l-.022-.218c-2.879-.6-6.547,2.1-8.026,4.432l-.088-.056a6.169,6.169,0,0,1-.789,1.03.854.854,0,0,1-.644.339Z" transform="translate(-28.346 -99.918)" fill="#fddcc4"/>
        <path id="Path_12720" data-name="Path 12720" d="M46.93,131.834a2.352,2.352,0,0,1,.256-.036c1.979-.177,3.835.881,5.538,1.9l3.4,2.042.122.074a.867.867,0,0,1,.342.35,1.018,1.018,0,0,1-.063.753c-.966,2.605-3.008,4.65-4.393,7.061-.538.935-.973,1.925-1.426,2.9-2.155,4.671-4.683,9.159-7.209,13.639a23.186,23.186,0,0,1-2.1,3.283,16.574,16.574,0,0,1-3.834,3.318c-.241.159-.485.314-.73.467a4.414,4.414,0,0,1-2.868.917c-1.359-.2-2.241-1.526-2.785-2.787a29.15,29.15,0,0,1-1.891-8.194,67.384,67.384,0,0,1,.283-20.411c.436-2.3,1.186-4.777,3.146-6.058a5.886,5.886,0,0,1,1.264-.611c1.486-.528,3.171-.63,4.611-1.255l.025.058a2.805,2.805,0,0,1,.977-.238c-1.1,4.041-3.2,7.921-3.371,12.117a6.065,6.065,0,0,0,.8,3.615l.082-.01a2.03,2.03,0,0,0,1.335.806,1.613,1.613,0,0,0,1.305-.232l.04.034c.5-.592.983-1.2,1.419-1.83,2.256-3.261,3.35-7.157,4.83-10.837a1.569,1.569,0,0,1,.358-.6,1.082,1.082,0,0,1,.541-.239" transform="translate(-28.653 -98.422)" fill="#e1d3b8"/>
        <path id="Path_12721" data-name="Path 12721" d="M78.524,162.528a.088.088,0,0,1,.006.022M52.357,100.128l.021.005M78.8,163.76a85.238,85.238,0,0,1,1.174,16.472c0,.052,0,.1,0,.154M68.506,143.4c1.892,6.312-.632,13.09-.1,19.656a42.131,42.131,0,0,0,.768,4.81q1.235,6.184,2.465,12.367c.039.2.08.4.119.6M37.813,168.669c-.017.262-.035.522-.052.785q-.366,5.388-.73,10.779c0,.026,0,.055,0,.081m26.312-49.724.08,0c.933.035,2.02.093,3.062.22a15.876,15.876,0,0,1,2.012.362,7.248,7.248,0,0,1,3.972,2.431,10.245,10.245,0,0,1,1.6,4.4c1.549,8.17,2.154,16.533,4.457,24.523M63.919,126.887a7.778,7.778,0,0,1-.9,3.61,8.043,8.043,0,0,1-4.064,3.767m-19.475-3.881a5.085,5.085,0,0,1-.89.479c-1.44.623-3.125.725-4.612,1.251a5.893,5.893,0,0,0-1.264.609c-1.959,1.276-2.709,3.745-3.145,6.037A66.878,66.878,0,0,0,29.29,159.1a29.014,29.014,0,0,0,1.89,8.167c.544,1.256,1.427,2.574,2.785,2.777a4.436,4.436,0,0,0,2.869-.915c.244-.152.488-.306.729-.464a16.567,16.567,0,0,0,3.835-3.308,23.243,23.243,0,0,0,2.1-3.271c2.525-4.466,5.054-8.937,7.208-13.591.453-.976.889-1.964,1.427-2.9,1.384-2.4,3.426-4.439,4.392-7.036a1,1,0,0,0,.063-.751.869.869,0,0,0-.341-.349l-.122-.074-3.4-2.033c-1.7-1.017-3.56-2.073-5.538-1.895a2.363,2.363,0,0,0-.256.035,1.081,1.081,0,0,0-.541.239,1.553,1.553,0,0,0-.359.6c-1.479,3.667-2.573,7.551-4.83,10.8-.435.629-.916,1.234-1.418,1.824-2.367,2.8-5.21,5.294-6.286,8.754m4.423-12.654a5.362,5.362,0,0,0,1.92,3.768m.415-20.166a17.322,17.322,0,0,1-.658,4.026c-1.1,4.027-3.2,7.893-3.371,12.074a6.012,6.012,0,0,0,.8,3.6,3.3,3.3,0,0,0,.382.473m16.88-46.577a3.011,3.011,0,0,1,2.153.357c2.551,1.384,4.072,4.286,4.882,6.951a48.32,48.32,0,0,1,1.339,7.132A90.42,90.42,0,0,0,66.3,130.362M52.6,100.193l-.068-.018c-.051-.016-.1-.029-.155-.041m-.021-.005c-6.216-1.562-10.842,5.931-12.221,11.3-1.763,6.863-2.264,14.128-6.019,20.363-.016.026-.033.051-.048.078m20.113-23.8a3.168,3.168,0,0,1,2.455,1.049,20.709,20.709,0,0,1,2.567,3.358c.069.1.135.206.2.3m-6.228-10.922a18.712,18.712,0,0,0-.034,4.291m-10.66,10.363a4.651,4.651,0,0,1,.6.892m-.724-3.472a.592.592,0,0,0-.7-.33.914.914,0,0,0-.582.569,2.137,2.137,0,0,0-.11.831,7.33,7.33,0,0,0,1.442,4.2,2.619,2.619,0,0,0,.629.631,1.26,1.26,0,0,0,.4.172m.27-.316c.017.246.036.472.055.687a7.671,7.671,0,0,0,1.193,3.786c.109.186.228.384.361.593m14.466-6.03c-.038.4-.076.777-.12,1.137a15.069,15.069,0,0,1-.612,3.009c-.053.165-.11.33-.173.5m.173,8.32a.9.9,0,0,1,.451,1.094,3.942,3.942,0,0,1-.646,1.121c-.065.094-.126.191-.184.291-.306.51-.548,1.055-.856,1.565a4.443,4.443,0,0,1-.583.777,2.946,2.946,0,0,1-.343.318,2.329,2.329,0,0,1-.593.343m.394-6.4a15.21,15.21,0,0,1,1.754-1.219.813.813,0,0,1,.378-.147h.031a.574.574,0,0,1,.433.256,1.336,1.336,0,0,1,.19.514.857.857,0,0,1,.005.427.964.964,0,0,1-.209.319c-.083.1-.167.191-.249.289q-.769.882-1.535,1.769m-2.42-4.1c.245-.067.493-.13.743-.19.578-.14,1.16-.264,1.748-.369a1.718,1.718,0,0,1,.573-.034.6.6,0,0,1,.459.309.629.629,0,0,1,.05.307c0,.054-.005.108-.011.162m-11.783,4.274a9.561,9.561,0,0,1-.191-2.2,16.1,16.1,0,0,0-1.068-5.264,2.446,2.446,0,0,1-.221-.829.612.612,0,0,1,0-.061.743.743,0,0,1,.383-.657.946.946,0,0,1,.94.233,3.879,3.879,0,0,1,1.21,2c.221.758.3,1.55.463,2.324.1.5.328,1.081.83,1.172a1.178,1.178,0,0,0,.694-.144,9.755,9.755,0,0,0,2.187-1.595,43.685,43.685,0,0,1,5.786-4.226,5.285,5.285,0,0,1,.7-.344c.6-.243,1.321-.4,1.3.243a1.063,1.063,0,0,1-.3.695c-.907.838-1.737,1.4-2.718,2.15a7.16,7.16,0,0,0-1.4,1.434c-.142.185-.28.38-.424.585l-.452.661m-3.985-4.92a6.416,6.416,0,0,1,2.623-.222m1.513-9.029c.986-.894,2.935-.927,4.172-.842m-12.058-.793a5.489,5.489,0,0,1,3.564,1.4m2.269,2.445a2.037,2.037,0,0,0-.257,1.739c.073.191.186.367.263.557a1.7,1.7,0,0,1-.593,1.982m3.656-4.2c.036-.221.114-.4.253-.249a1,1,0,0,1,.025.83c-.1.171-.216.047-.275-.093A1.328,1.328,0,0,1,55.746,117.669Zm-7.953-.639c.034-.224.114-.4.25-.25a.978.978,0,0,1,.025.828c-.1.173-.216.048-.275-.091A1.29,1.29,0,0,1,47.793,117.031Zm-3.98-4.232.066-.1c1.479-2.321,5.148-5.019,8.026-4.416" transform="translate(-28.653 -99.918)" fill="none" stroke="#731f23" stroke-linecap="round" stroke-linejoin="round" stroke-width="0.539"/>
      </g>
      <g id="Group_19218" data-name="Group 19218" transform="translate(-13582.091 -13423.913)">
        <path id="Path_12722" data-name="Path 12722" d="M132.547,122.237a8.035,8.035,0,0,1-5.172,3.609,4.822,4.822,0,0,1-1.506.092,5,5,0,0,1-1.6-.511,13.164,13.164,0,0,1-2.78-1.822,8.631,8.631,0,0,1-2.9-4.392c-.032-.136-.059-.274-.083-.413h0a22.967,22.967,0,0,0-.2-2.845c-.15-1.2-.353-2.418-.5-3.835a15.669,15.669,0,0,1,.051-4.538,6.789,6.789,0,0,1,2.122-3.933,4.418,4.418,0,0,1,4.072-.953l-.006.023a2.011,2.011,0,0,0,1.534.187c.227-.05.449-.118.67-.189l.02.062a3.867,3.867,0,0,1,4.312,1.957c1.242,1.927,1.565,4.285,1.857,6.557.181,1.4.361,2.806.445,4.216.142,2.457-.041,4.205-.053,6.467-.1.084-.191.172-.283.263m-2.071-9.807a1.036,1.036,0,0,0-.062-.858c-.15-.153-.224.037-.249.27a1.362,1.362,0,0,0,.021.505c.067.141.189.266.29.084m-8.025.982a1.03,1.03,0,0,0-.06-.857c-.15-.153-.224.037-.251.268a1.378,1.378,0,0,0,.023.506c.067.141.189.266.289.083" transform="translate(-94.741 -97.841)" fill="#fff3ea"/>
        <path id="Path_12723" data-name="Path 12723" d="M125.42,150.407l-.162.12a1.154,1.154,0,0,0-.438,1.559,14.8,14.8,0,0,0,.513,1.526l-.114.046a2.754,2.754,0,0,0-1.514-.864l.021-.086a1.739,1.739,0,0,1-.311-.382,4.308,4.308,0,0,0,.039-3.469c-.29-.59-.709-1.1-1.055-1.662a7.552,7.552,0,0,1-1.124-3.624,2.455,2.455,0,0,1,.276-1.429,2.868,2.868,0,0,1,.8-.744q.578-.415,1.156-.832l.149.21a11.746,11.746,0,0,0,1.071,3.851l.137-.009c.1,1.867.376,3.727.647,5.579l.068.092c-.052.038-.1.076-.155.117" transform="translate(-94.521 -95.692)" fill="#fff3ea"/>
        <path id="Path_12724" data-name="Path 12724" d="M127.26,130.485a.778.778,0,0,0-1.03.7l.017.014c-.02.025-.039.052-.058.08-.074-.082-.149-.164-.224-.246a1.6,1.6,0,0,0-.9-.617.528.528,0,0,0-.49.171.678.678,0,0,0-.087.459,2.645,2.645,0,0,0,.642,1.507l.011.11a.359.359,0,0,0-.068.02,1.9,1.9,0,0,0-.781.448,15.648,15.648,0,0,0-3.393,2.44c-.123.108-.245.22-.363.34l-.035-.036a7.274,7.274,0,0,0-1.011-3.2l.168-.082a4.633,4.633,0,0,0,.168-2.35c-.034-.219-.08-.434-.132-.648l.052-.014a6.9,6.9,0,0,1,2.638-1.6c-.015.1-.032.2-.05.29h.006A17.605,17.605,0,0,1,127.3,129.3a7.473,7.473,0,0,0,4.988.02,7.09,7.09,0,0,0,1.616-1.084l0,0c.109-.19.213-.384.31-.58l.172-.052a13.578,13.578,0,0,0,.707,1.845l.094-.044a8.947,8.947,0,0,1,1.336,2.943c.056.215.1.435.14.654a3.793,3.793,0,0,1,.013,1.507,1.982,1.982,0,0,0-.12.864.532.532,0,0,0,.21.3,8.458,8.458,0,0,0,1.62-2.507q.748.326,1.5.649l-.058.135a15.61,15.61,0,0,1,3.306,1.326l.309.153c1.558.768,3.357,1.332,4.41,2.807,1.09,1.53,1.248,3.527,1.576,5.324q.543,2.972.986,5.964c.59,3.935,1.069,7.883,1.478,11.84a18.892,18.892,0,0,1,.033,5.12,18.024,18.024,0,0,1-2.129,5.4,16.8,16.8,0,0,1-4.092,5.441,5.889,5.889,0,0,1-2.564,1.225l.44.159q.185,1.439.365,2.876H106.086c.121-.6.221-1.21.3-1.82l.047.006a18.137,18.137,0,0,0,.917-5.433l-.056-.31a38.967,38.967,0,0,0,13.924-9.366l.566-.579a16.564,16.564,0,0,0,5.016-8.151v0c-.008-.122-.016-.244-.02-.364-.19-.382-.364-.771-.518-1.168a14.789,14.789,0,0,1-.513-1.525,1.155,1.155,0,0,1,.438-1.56c.054-.039.108-.081.162-.119s.1-.079.155-.118a17.017,17.017,0,0,0,2.389-1.9,6.624,6.624,0,0,0,1.533-2.621,1.321,1.321,0,0,1,.2-.437l-.116-.1c.122,0,.178-.167.19-.294q.048-.462.093-.923h.032c-.046-.955-.089-1.91-.136-2.867a9.519,9.519,0,0,0-.139-1.433c-.082-.4-.211-.789-.311-1.187-.154-.618-.229-1.252-.332-1.879a21.618,21.618,0,0,0-2.009-6.2,1.439,1.439,0,0,0-.636-.747" transform="translate(-95.449 -96.59)" fill="#e1d3b8"/>
        <path id="Path_12725" data-name="Path 12725" d="M123.9,136.862c.644-.459.8-1.019.687-1.315l.156-.034q.441,1.052.883,2.1a2.62,2.62,0,0,1,.266.962l-.292.168c-.2-.359-.416-.707-.645-1.048a2.132,2.132,0,0,0-.655-.7,1,1,0,0,0-.4-.127Z" transform="translate(-94.36 -95.961)" fill="#fff3ea"/>
        <path id="Path_12726" data-name="Path 12726" d="M124.048,132.656l-.039-.135a.55.55,0,0,1,.068-.02l-.011-.11a2.63,2.63,0,0,1-.641-1.507.673.673,0,0,1,.086-.459.532.532,0,0,1,.491-.17,1.607,1.607,0,0,1,.9.617c.074.082.149.164.224.245a9.891,9.891,0,0,1,2.255,3.365,10.66,10.66,0,0,1,.411,2.278l-.225.09a13.451,13.451,0,0,0-2.042-3.468,2.36,2.36,0,0,0-.711-.665.939.939,0,0,0-.768-.06" transform="translate(-94.389 -96.269)" fill="#fff3ea"/>
        <path id="Path_12727" data-name="Path 12727" d="M124.315,134.489a7.867,7.867,0,0,1,.532,1.1l-.157.034a.312.312,0,0,0-.2-.2,1.6,1.6,0,0,0-1.111.221l-1.127.53c.05-.171.1-.345.146-.516a11.4,11.4,0,0,1,1.728-1.421l.021-.013c.057.084.114.171.168.258" transform="translate(-94.461 -96.033)" fill="#f4e2d3"/>
        <path id="Path_12728" data-name="Path 12728" d="M123.511,132.838a1.9,1.9,0,0,1,.781-.448l.038.135a.663.663,0,0,0-.158.092.936.936,0,0,0-.2,1.023,3.026,3.026,0,0,0,.389.7l-.021.013a11.341,11.341,0,0,0-1.729,1.42c-.048.172-.1.345-.145.516l-.611.289a6.932,6.932,0,0,0-1.674.99,4.92,4.92,0,0,0-1.228,1.824l-.092-.038a5.074,5.074,0,0,1,.476-3.242,2.683,2.683,0,0,1,.189-.248,3.035,3.035,0,0,1,.232-.249c.117-.119.24-.231.363-.34a15.721,15.721,0,0,1,3.393-2.44" transform="translate(-94.672 -96.147)" fill="#fff3ea"/>
        <path id="Path_12729" data-name="Path 12729" d="M127.582,136.848l.226-.09a10.746,10.746,0,0,0-.411-2.279,9.9,9.9,0,0,0-2.256-3.364c.019-.027.037-.054.058-.08l-.017-.014a.778.778,0,0,1,1.03-.7,1.441,1.441,0,0,1,.636.748,21.644,21.644,0,0,1,2.009,6.2c.1.627.178,1.263.332,1.879.1.4.229.786.311,1.187a9.519,9.519,0,0,1,.139,1.433q.068,1.436.136,2.867l-.033,0q-.045.46-.092.922c-.013.127-.068.295-.19.295l.115.1a1.319,1.319,0,0,0-.2.437,6.623,6.623,0,0,1-1.533,2.621,16.889,16.889,0,0,1-2.39,1.9l-.067-.091c-.273-1.853-.544-3.713-.647-5.581-.02-.329-.032-.658-.039-.988a6.155,6.155,0,0,0-.711-3.542.76.76,0,0,0,.072-.083.5.5,0,0,0,.1-.594.621.621,0,0,0-.509-.213l0-.16q-.162-.514-.324-1.03a1.86,1.86,0,0,1-.1-.954.636.636,0,0,1,.2-.343.69.69,0,0,1,.5-.15.99.99,0,0,1,.4.128,2.119,2.119,0,0,1,.655.7q.344.513.645,1.049l.292-.169a2.626,2.626,0,0,0-.266-.962l-.883-2.1a7.746,7.746,0,0,0-.531-1.1c-.054-.087-.11-.174-.168-.258a3.048,3.048,0,0,1-.389-.7.935.935,0,0,1,.2-1.023.636.636,0,0,1,.157-.092.934.934,0,0,1,.769.06,2.333,2.333,0,0,1,.711.665,13.418,13.418,0,0,1,2.041,3.468" transform="translate(-94.403 -96.294)" fill="#fff3ea"/>
        <path id="Path_12730" data-name="Path 12730" d="M127.155,124.726a8.038,8.038,0,0,0,5.172-3.609c.092-.091.187-.179.282-.263,0,.369,0,.75.01,1.15a22.459,22.459,0,0,0,.846,6.017l-.171.053c-.1.2-.2.389-.311.579h0a7.08,7.08,0,0,1-1.617,1.083,7.473,7.473,0,0,1-4.988-.02,17.6,17.6,0,0,0-4.967-1.026l-.006,0c.019-.094.036-.192.051-.29a15.543,15.543,0,0,0-.147-5.122,4.69,4.69,0,0,0-.033-.791,13.2,13.2,0,0,0,2.781,1.822,5.013,5.013,0,0,0,1.6.511,4.889,4.889,0,0,0,1.506-.092" transform="translate(-94.521 -96.81)" fill="#fff3ea"/>
        <path id="Path_12731" data-name="Path 12731" d="M121.5,123.45a15.515,15.515,0,0,1,.147,5.122,6.791,6.791,0,0,0-1.434.665l-.077-.126a10.262,10.262,0,0,1-2.1-5.489,30.572,30.572,0,0,1,.374-4.1c.049-.531.071-1.035.073-1.521.027.09.055.18.084.271a8.631,8.631,0,0,0,2.9,4.392,4.808,4.808,0,0,1,.032.791" transform="translate(-94.719 -96.976)" fill="#fddcc4"/>
        <path id="Path_12732" data-name="Path 12732" d="M126.554,102.987a6.9,6.9,0,0,1-.671.189,2.008,2.008,0,0,1-1.533-.186l.006-.023a4.415,4.415,0,0,0-4.072.953,6.78,6.78,0,0,0-2.122,3.933,15.655,15.655,0,0,0-.051,4.536c.144,1.419.348,2.635.5,3.836a22.993,22.993,0,0,1,.2,2.845v0c0,.046,0,.092,0,.141,0,.485-.024.991-.072,1.522a30.383,30.383,0,0,0-.374,4.1,10.259,10.259,0,0,0,2.1,5.488l.077.126a6.747,6.747,0,0,0-1.2.935l-.052.013c.052.215.1.43.132.648a4.637,4.637,0,0,1-.168,2.351l-.169.081c-.04-.058-.082-.114-.126-.168a.747.747,0,0,0-.55-.337.57.57,0,0,0-.489.412,1.674,1.674,0,0,0-.035.675c.01.116.018.233.03.35a5.855,5.855,0,0,1-1.4.905,1.329,1.329,0,0,1-.87.154l-.181-.111c-.037.054-.071.11-.1.166a4.414,4.414,0,0,0-.435.966,1.692,1.692,0,0,1-.333-.614,16.512,16.512,0,0,1-.611-2.205l.192-.005a6.456,6.456,0,0,0-.215-2.567,31.35,31.35,0,0,1-1.24-5.021,22.355,22.355,0,0,1,.537-5.287c.65-3.569.837-6.3,1.49-9.871a31.237,31.237,0,0,1,1.33-5.653,15.381,15.381,0,0,1,5.384-6.692c1.419-1.04,3.627-1.912,5.24-1.216l.01.056a14,14,0,0,1,1.819-.211,5.79,5.79,0,0,1,4,1.03,10.529,10.529,0,0,1,2.693,3.1c4,6.359,5.428,13.1,5.258,20.611a25.777,25.777,0,0,0,.141,5.111c.253,1.425.666,5.016,1.638,6.671l-.105.063a5.024,5.024,0,0,1,.6,1.315,1.922,1.922,0,0,1-.006.978,15.633,15.633,0,0,0-3.306-1.326l.057-.134-1.5-.649a8.442,8.442,0,0,1-1.619,2.506.529.529,0,0,1-.21-.3,1.951,1.951,0,0,1,.12-.864,3.813,3.813,0,0,0-.014-1.507c-.037-.219-.083-.436-.139-.653a8.95,8.95,0,0,0-1.337-2.943l-.093.044a13.739,13.739,0,0,1-.708-1.846,22.453,22.453,0,0,1-.846-6.017c-.01-.4-.013-.781-.01-1.15.013-2.26.2-4.009.053-6.467-.083-1.409-.263-2.813-.445-4.216-.291-2.272-.614-4.63-1.856-6.558a3.868,3.868,0,0,0-4.312-1.956Z" transform="translate(-95.045 -98.111)" fill="#fddcc4"/>
        <path id="Path_12733" data-name="Path 12733" d="M118.4,140.928c.035-.108.068-.215.1-.323.153-.463.311-.936.5-1.389a4.905,4.905,0,0,1,1.229-1.824,6.916,6.916,0,0,1,1.673-.991l.611-.288,1.127-.529a1.6,1.6,0,0,1,1.111-.221.313.313,0,0,1,.2.2c.118.295-.042.855-.688,1.314v.01a.684.684,0,0,0-.5.149.64.64,0,0,0-.206.344,7.373,7.373,0,0,1-1.3,1.208,2.168,2.168,0,0,0-.868,1.425l.089.158a5.165,5.165,0,0,1,2.393-.648h.109a.618.618,0,0,1,.507.214.5.5,0,0,1-.1.593,1.07,1.07,0,0,1-.072.084,1.75,1.75,0,0,1-.261.229l-.346.249-1.156.831a2.9,2.9,0,0,0-.8.744,2.449,2.449,0,0,0-.277,1.429,7.551,7.551,0,0,0,1.124,3.624c.347.558.765,1.072,1.055,1.662a4.308,4.308,0,0,1-.039,3.469,5.046,5.046,0,0,1-.785,1.326l-.276-.032a1.524,1.524,0,0,0-.453.422l-.152.09c-.093-.082-.188-.164-.277-.251-.724-.686-1.307-1.5-1.988-2.227a2.882,2.882,0,0,0-.609-.523,1.267,1.267,0,0,1,.079-.162,19.931,19.931,0,0,0-.763-5.342,10.689,10.689,0,0,1-.5-2.167,7.666,7.666,0,0,1,.5-2.852" transform="translate(-94.728 -96.004)" fill="#fff3ea"/>
        <path id="Path_12734" data-name="Path 12734" d="M118.52,140.815c-.036.107-.069.213-.105.323-.025-.105-.05-.209-.076-.314l.017,0q-.43-3.731-.743-7.473c-.012-.117-.021-.234-.031-.35a1.662,1.662,0,0,1,.036-.676.57.57,0,0,1,.489-.412.746.746,0,0,1,.549.337c.045.054.086.11.127.169a7.265,7.265,0,0,1,1.011,3.2l.036.036a3.229,3.229,0,0,0-.233.248,2.99,2.99,0,0,0-.188.248,5.076,5.076,0,0,0-.476,3.242l.091.039c-.193.453-.351.926-.5,1.39" transform="translate(-94.747 -96.178)" fill="#fff3ea"/>
        <path id="Path_12735" data-name="Path 12735" d="M124.17,154.29a5.14,5.14,0,0,0,.785-1.326,1.79,1.79,0,0,0,.311.382l-.021.086a2.748,2.748,0,0,1,1.514.864l.112-.047c.155.4.329.786.519,1.168,0,.12.012.242.02.364v0a16.56,16.56,0,0,1-5.016,8.151l-.566.579a38.967,38.967,0,0,1-13.924,9.366,38.078,38.078,0,0,1-3.7,1.242A2.874,2.874,0,0,1,100.5,173.9a23.137,23.137,0,0,1-3.827-6.035,7.769,7.769,0,0,1-.586-2.133c-.173-1.732.546-3.418.752-5.148l.04.005a8.028,8.028,0,0,1,.29-1.3l-.1-.029q.933-3.166,1.861-6.337c.5-1.688.994-3.38,1.321-5.106.221-1.175.361-2.361.61-3.527s.611-2.326.95-3.482a19.834,19.834,0,0,1,2.084-5.346,9.268,9.268,0,0,1,3.683-3.268c2.338-.858,4.313-1.047,6.661-1.732.211-.105.424-.21.635-.316l.087-.005a6.459,6.459,0,0,1,.214,2.568l-.191,0a16.327,16.327,0,0,0,.611,2.206,1.69,1.69,0,0,0,.332.614,4.369,4.369,0,0,1,.436-.966c.032-.055.066-.112.1-.166l.181.111a1.34,1.34,0,0,0,.871-.154,5.93,5.93,0,0,0,1.4-.905q.312,3.742.743,7.473l-.017,0,.076.314a7.679,7.679,0,0,0-.5,2.851,10.731,10.731,0,0,0,.5,2.167,19.9,19.9,0,0,1,.764,5.343.993.993,0,0,0-.079.162,2.9,2.9,0,0,1,.609.522c.68.726,1.264,1.543,1.986,2.228.089.087.184.169.278.25l.151-.089a1.549,1.549,0,0,1,.453-.422Zm-14.8,4.057a.067.067,0,0,0,.052,0,.121.121,0,0,0,.053-.037c.029-.008.057-.019.085-.03a.465.465,0,0,1-.037-.089.265.265,0,0,1-.048.119l-.105.034" transform="translate(-96.062 -96.435)" fill="#e1d3b8"/>
        <path id="Path_12736" data-name="Path 12736" d="M127.41,157.537h0c.01.164.018.328.028.493-.015-.041-.031-.08-.045-.121m-18.244-16.839a87.293,87.293,0,0,1,.381,18.808c0,.021,0,.04-.007.061a.29.29,0,0,1-.048.118.12.12,0,0,1-.053.037.063.063,0,0,1-.052,0c-.055-.029-.082-.122-.018-.13m-1.39,15.919a18.052,18.052,0,0,1-.917,5.414m33.878-23.226a60.062,60.062,0,0,1,1.435-10.138,11.221,11.221,0,0,1,1.834-4.516m-5.9,11.942c2.034,1.048,2.909,3.411,4,5.416,1.064,1.953,2.492,3.767,2.989,5.934m-17.145-6.888a71.424,71.424,0,0,0,2.46,6.886c2.131,5.127,5.152,10.3,10.142,12.758a5.684,5.684,0,0,0,2.166.665,3.755,3.755,0,0,0,.858-.051,5.88,5.88,0,0,0,2.564-1.22,16.7,16.7,0,0,0,4.092-5.423,17.9,17.9,0,0,0,2.13-5.379,18.766,18.766,0,0,0-.034-5.1c-.409-3.943-.887-7.879-1.477-11.8q-.449-2.978-.987-5.943c-.327-1.79-.485-3.781-1.576-5.306-1.052-1.469-2.851-2.03-4.409-2.8-.1-.052-.206-.1-.309-.152a15.6,15.6,0,0,0-3.308-1.323c-.084-.02-.169-.038-.256-.056m-15.2,19.58a2.562,2.562,0,0,1,.258.037,2.76,2.76,0,0,1,1.514.861M97.05,161.09c.008-.03.018-.056.025-.085q.933-3.155,1.861-6.316a52.4,52.4,0,0,0,1.32-5.089c.221-1.171.362-2.353.611-3.515s.611-2.318.95-3.47a19.725,19.725,0,0,1,2.083-5.328,9.261,9.261,0,0,1,3.684-3.257c2.338-.856,4.313-1.044,6.66-1.726.1-.029.2-.058.3-.09m-17.7,30.11c-.206,1.724-.924,3.4-.751,5.13a7.683,7.683,0,0,0,.585,2.126A23.076,23.076,0,0,0,100.5,175.6a2.88,2.88,0,0,0,3.708,1.215,37.774,37.774,0,0,0,3.7-1.237,38.979,38.979,0,0,0,13.925-9.334l.566-.577a16.493,16.493,0,0,0,5.015-8.123m-16.747,2.414a7.319,7.319,0,0,1,.4-.669c.124-.184.255-.364.394-.536a10.586,10.586,0,0,1,1.774-1.723,27.641,27.641,0,0,1,3.311-2.11q.933-.535,1.867-1.069a2.339,2.339,0,0,1,1.671-.452,1.36,1.36,0,0,1,.334.144,2.874,2.874,0,0,1,.608.521c.681.723,1.264,1.537,1.988,2.22.089.087.183.169.278.25a4.033,4.033,0,0,0,2.34,1.044m-21.8,5.5a11.063,11.063,0,0,1,4.24-2.58c.427-.141.869-.259,1.3-.4l.105-.034c.029-.008.057-.019.085-.03a5.01,5.01,0,0,0,1.506-.747c.045-.033.089-.068.131-.1m16.667-1.127q-.251-.431-.472-.878-.287-.571-.519-1.163a14.974,14.974,0,0,1-.513-1.521,1.5,1.5,0,0,1,0-1.1,1.48,1.48,0,0,1,.444-.453c.053-.04.108-.08.162-.12s.1-.078.154-.117a16.879,16.879,0,0,0,2.39-1.9,6.6,6.6,0,0,0,1.533-2.612,1.312,1.312,0,0,1,.2-.436.408.408,0,0,1,.219-.151.727.727,0,0,1,.568.2l1.819,1.349a7.841,7.841,0,0,1,3.395,5.271m-10.393-21.557a.779.779,0,0,1,1.031-.7,1.436,1.436,0,0,1,.635.746,21.489,21.489,0,0,1,2.01,6.178c.1.625.177,1.258.332,1.873.1.4.229.784.311,1.183a9.736,9.736,0,0,1,.139,1.428q.068,1.431.135,2.857c.007.145.015.291.021.437a1.166,1.166,0,0,1-.032.429m-5.685-13.07a2.62,2.62,0,0,1-.641-1.5.669.669,0,0,1,.087-.458.526.526,0,0,1,.49-.169,1.6,1.6,0,0,1,.9.613l.224.245a9.86,9.86,0,0,1,2.256,3.352,10.677,10.677,0,0,1,.411,2.272m-1.872,2.132a2.591,2.591,0,0,0-.267-.959q-.439-1.047-.882-2.094a7.769,7.769,0,0,0-.531-1.1c-.054-.087-.11-.173-.168-.257a3.034,3.034,0,0,1-.389-.7.931.931,0,0,1,.2-1.019.662.662,0,0,1,.158-.092.934.934,0,0,1,.768.06,2.316,2.316,0,0,1,.711.662,13.39,13.39,0,0,1,2.042,3.457,9.079,9.079,0,0,1,.536,2.042m-4.459.767c-.109-.343-.215-.684-.325-1.027a1.847,1.847,0,0,1-.1-.951.633.633,0,0,1,.2-.342.692.692,0,0,1,.5-.149.993.993,0,0,1,.4.128,2.115,2.115,0,0,1,.655.7q.344.511.645,1.045a15.88,15.88,0,0,1,1.849,5.269m-2.105,6.454c-.272-1.846-.543-3.7-.646-5.562-.02-.328-.032-.656-.039-.985a6.125,6.125,0,0,0-.711-3.53c-.015-.023-.032-.045-.05-.069m-2.2-4.105c.147-.17.36-.387.6-.621a11.27,11.27,0,0,1,1.729-1.415m-5.48,4.982a5.04,5.04,0,0,1,.476-3.23,2.678,2.678,0,0,1,.189-.247,3.028,3.028,0,0,1,.232-.249c.117-.118.24-.231.363-.338a15.683,15.683,0,0,1,3.393-2.431,3.246,3.246,0,0,1,.437-.158m-5.668,8.083q-.43-3.718-.744-7.447c-.012-.116-.02-.234-.03-.349a1.669,1.669,0,0,1,.035-.674.571.571,0,0,1,.489-.41.751.751,0,0,1,.55.336c.044.054.086.11.126.168a7.223,7.223,0,0,1,1.011,3.184m4.084,5.675a11.682,11.682,0,0,0,1.071,3.839m-4.831-3.668a5.059,5.059,0,0,1,1.382-1.1,5.193,5.193,0,0,1,2.394-.647c.035,0,.072,0,.107,0a.622.622,0,0,1,.509.213.5.5,0,0,1-.1.592.759.759,0,0,1-.072.082,1.688,1.688,0,0,1-.261.228c-.115.084-.23.166-.346.249l-1.156.829a2.887,2.887,0,0,0-.8.74,2.426,2.426,0,0,0-.276,1.426,7.518,7.518,0,0,0,1.123,3.612c.346.556.765,1.068,1.055,1.656a4.284,4.284,0,0,1-.038,3.457,5.075,5.075,0,0,1-.786,1.322,4.189,4.189,0,0,1-.427.448m1.208-17.084a1.022,1.022,0,0,1-.057.092,7.331,7.331,0,0,1-1.3,1.2,2.154,2.154,0,0,0-.867,1.421m-2.233,11.3v-.06a19.767,19.767,0,0,0-.764-5.325,10.733,10.733,0,0,1-.5-2.159,7.654,7.654,0,0,1,.5-2.842c.036-.109.07-.215.105-.321.153-.462.311-.934.505-1.385a4.9,4.9,0,0,1,1.228-1.818,6.938,6.938,0,0,1,1.674-.987l.611-.288,1.127-.528a1.605,1.605,0,0,1,1.111-.22.316.316,0,0,1,.2.195c.117.3-.042.852-.687,1.31m-2.656-9.037a17.671,17.671,0,0,1,4.968,1.023,7.5,7.5,0,0,0,4.988.02,7.068,7.068,0,0,0,1.616-1.081M122.7,123.869c.051.231.1.467.142.707a15.439,15.439,0,0,1,.147,5.1c-.015.1-.032.195-.051.289-.012.062-.023.126-.037.186m-3.11-.507c.187.54.374,1.084.507,1.639.053.214.1.428.133.646a4.614,4.614,0,0,1-.168,2.342m-2.372-2.84a4.612,4.612,0,0,1-.34,3.084,19.424,19.424,0,0,1-1.082,1.71c-.038.054-.071.11-.1.165a4.392,4.392,0,0,0-.435.962,2.37,2.37,0,0,0-.084,1.144m20.955-8.069a4.144,4.144,0,0,1,.337,3.6,3.6,3.6,0,0,1-.253.543m2.658-4.692a8.587,8.587,0,0,1-.542,4.968,8.41,8.41,0,0,1-1.619,2.5l-.034.036m-8.1-39.112c.093-.026.188-.051.287-.069a5.8,5.8,0,0,1,4,1.026,10.508,10.508,0,0,1,2.693,3.091c4,6.337,5.428,13.054,5.258,20.541a25.678,25.678,0,0,0,.14,5.094c.254,1.421.667,5,1.639,6.65a2.152,2.152,0,0,0,.578.678M127.706,98.36c-1.614-.693-3.821.176-5.24,1.212a15.328,15.328,0,0,0-5.384,6.67,31.043,31.043,0,0,0-1.33,5.634c-.653,3.555-.839,6.281-1.49,9.837a22.192,22.192,0,0,0-.537,5.268,30.905,30.905,0,0,0,1.24,5,6.439,6.439,0,0,1,.215,2.559M126.092,101.5a3.084,3.084,0,0,1,1.294-1.563m-1.835,3.071q-.089-.033-.178-.06a4.426,4.426,0,0,0-4.072.95,6.76,6.76,0,0,0-2.122,3.919,15.52,15.52,0,0,0-.051,4.522c.144,1.413.348,2.625.5,3.822m0,0a22.839,22.839,0,0,1,.2,2.835v0c0,.045,0,.093,0,.142,0,.483-.024.987-.072,1.515a30.2,30.2,0,0,0-.374,4.091,10.214,10.214,0,0,0,2.1,5.471m5.972-27.14.138-.048a3.872,3.872,0,0,1,4.312,1.95,15.449,15.449,0,0,1,1.856,6.536c.181,1.4.362,2.8.445,4.2.142,2.448-.04,4.191-.053,6.445,0,.368,0,.748.01,1.146a22.313,22.313,0,0,0,.846,6,13.651,13.651,0,0,0,.708,1.839c.071.154.147.3.226.455m-16.181-13.186a5.866,5.866,0,0,0,.069.585m0,0c.023.139.05.276.083.41a8.591,8.591,0,0,0,2.9,4.377,13.133,13.133,0,0,0,2.78,1.817,5.025,5.025,0,0,0,1.6.51,4.905,4.905,0,0,0,1.506-.092,8.038,8.038,0,0,0,5.172-3.6c.072-.116.143-.236.21-.359m-6.879-1.115a15.4,15.4,0,0,0,1.659-.3,7.111,7.111,0,0,1,1.439-.551m-1.923-11.048a2.513,2.513,0,0,1,1.88-.872,4.309,4.309,0,0,1,2.051.525m-12.054,1.912a2.429,2.429,0,0,1,3.282-.325m3.148,2.224a2.8,2.8,0,0,1-.031,1.83,3.656,3.656,0,0,0-.516.992,1.625,1.625,0,0,0,.621,1.322m4.731-4.593c.024-.233.1-.422.248-.27a1.026,1.026,0,0,1,.063.856c-.1.183-.223.057-.29-.082A1.354,1.354,0,0,1,131.486,112.064Zm-8.026.978c.027-.231.1-.421.25-.269a1.022,1.022,0,0,1,.062.856c-.1.182-.223.058-.289-.082A1.369,1.369,0,0,1,123.459,113.042Z" transform="translate(-96.062 -98.111)" fill="none" stroke="#731f23" stroke-linecap="round" stroke-linejoin="round" stroke-width="0.539"/>
      </g>
      <g id="Group_19219" data-name="Group 19219" transform="translate(-13435.928 -13423.913)">
        <path id="Path_12737" data-name="Path 12737" d="M205,139.291c-.081.069-.185.145-.286.112a.32.32,0,0,1-.141-.12c-.006-.008-.014-.019-.021-.028q-.7-.907-1.4-1.811a2.7,2.7,0,0,0-.662-.673.892.892,0,0,1-.2-.148.752.752,0,0,1-.111-.51,2.841,2.841,0,0,0-.54-1.632l-.012,0a5.009,5.009,0,0,1,.228-2.776,14.41,14.41,0,0,1,.7-1.674,11.751,11.751,0,0,0,1.268-3.5c-.119-.266-.245-.527-.379-.787a14.942,14.942,0,0,0,1.723-3.773l-.063-.019a4.674,4.674,0,0,0,.237-1.471l.089-.164c-.061-2.3.065-4.673.119-6.927a16.429,16.429,0,0,0-.144-3.311,4.948,4.948,0,0,0-3.315-4.141l.066-.159a5.657,5.657,0,0,0-2.208-.626,4.022,4.022,0,0,0-1.723.277l0-.007a5.216,5.216,0,0,0-4.458,2.121,11.486,11.486,0,0,0-1.98,4.706c-.375,1.677-.751,3.824-1.3,5.451a15.23,15.23,0,0,1-1.956,3.74c-.118.175-.236.347-.357.516a16.116,16.116,0,0,0-3.037,5.83,38.384,38.384,0,0,0-1.513,5.311v0c0,.137.014.274.029.411-.375,0-.749.007-1.123.034a.826.826,0,0,0-.452.121.771.771,0,0,0-.216.318,7.849,7.849,0,0,1-.062-.849l.326-.006c.492-2.635.984-5.27,1.325-7.927.5-3.887.577-6.854,1.255-10.713a24.9,24.9,0,0,1,4.391-10.94c1.729-2.235,4.832-4.983,7.835-3.751l.023.1a8.8,8.8,0,0,1,1.138-.21c.1-.011.206-.019.31-.024a4.159,4.159,0,0,1,3.744.348,9.588,9.588,0,0,1,2.839,2.857,21.747,21.747,0,0,1,3.456,7.179,34.713,34.713,0,0,1,.685,4.058c.641,5.024,1.381,9.1,1.384,14.163a16.8,16.8,0,0,0,.094,2.347l-.013,0a1.981,1.981,0,0,1-.069.927,3.655,3.655,0,0,1-.749,1.244,2.178,2.178,0,0,1-.229.236c0,.137-.005.273-.013.411a6.616,6.616,0,0,1-.14,1.021,5.628,5.628,0,0,1-1.516,2.83l.019.024-.079.06c-.488.382-1.04.672-1.562,1.006a11.1,11.1,0,0,0-1.237.917" transform="translate(-169.932 -99.361)" fill="#fddcc4"/>
        <path id="Path_12738" data-name="Path 12738" d="M199.546,104.819a5.621,5.621,0,0,1,2.209.626l-.066.158A4.952,4.952,0,0,1,205,109.744a16.429,16.429,0,0,1,.144,3.311c-.055,2.254-.179,4.631-.119,6.927l-.089.166a4.71,4.71,0,0,1-.237,1.471l.063.019a14.971,14.971,0,0,1-1.723,3.772,5.267,5.267,0,0,1-.777.947,10.741,10.741,0,0,1-2.563,1.707,3.849,3.849,0,0,1-2.9.035,7.544,7.544,0,0,1-3.048-1.3l-.006.005a3.217,3.217,0,0,1-.3-.3,2.267,2.267,0,0,0,.192-.423,4.166,4.166,0,0,0,.161-1.459,1.78,1.78,0,0,0-.052-.437,1.331,1.331,0,0,0-.441-.623,2.145,2.145,0,0,0-1.3-.485c-.04-.068-.08-.136-.121-.2l-.027.015c-.35-.53-.795-1.113-1.429-1.147h-.016v-.006c-.1-.084-.19-.173-.279-.263l-.089.088a1.75,1.75,0,0,0-1.406-.361,3.637,3.637,0,0,1-.523-.088,15.276,15.276,0,0,0,1.957-3.742c.552-1.627.927-3.774,1.3-5.451a11.472,11.472,0,0,1,1.98-4.706,5.217,5.217,0,0,1,4.457-2.121l0,.007a4.01,4.01,0,0,1,1.723-.276m3.371,11.091a.915.915,0,0,0-.023-.764c-.127-.141-.2.023-.232.228a1.256,1.256,0,0,0,0,.452c.053.126.157.244.254.084m-7.851-.06a.921.921,0,0,0-.023-.765c-.127-.143-.2.023-.232.228a1.181,1.181,0,0,0,0,.452c.052.127.158.243.253.085" transform="translate(-169.545 -99.028)" fill="#fff3ea"/>
        <path id="Path_12739" data-name="Path 12739" d="M199.618,130.954l.017.04a8.6,8.6,0,0,1-8.884-1.413l-.038.024a2.6,2.6,0,0,0-.241-.288,14.178,14.178,0,0,0,.231-1.451,8.432,8.432,0,0,1,.211-1.556,3.554,3.554,0,0,1,.471-.959c.12.176.237.354.355.531l.039-.008a.468.468,0,0,0,.307.214.82.82,0,0,0,.5-.087,1.686,1.686,0,0,0,.722-.687,3.245,3.245,0,0,0,.3.3l.006-.006a7.532,7.532,0,0,0,3.048,1.3,3.85,3.85,0,0,0,2.9-.036,10.721,10.721,0,0,0,2.562-1.706,5.26,5.26,0,0,0,.778-.947c.134.259.259.521.378.787a11.749,11.749,0,0,1-1.267,3.5,14.235,14.235,0,0,0-.7,1.674,7.5,7.5,0,0,1-1.7.763" transform="translate(-169.401 -97.937)" fill="#fff3ea"/>
        <path id="Path_12740" data-name="Path 12740" d="M190.424,120.526c.089.09.184.179.279.263v.006h.016c.635.034,1.079.618,1.43,1.147l.025-.015c.041.068.081.136.122.2a2.145,2.145,0,0,1,1.3.485,1.336,1.336,0,0,1,.441.623,1.834,1.834,0,0,1,.053.437,4.216,4.216,0,0,1-.161,1.459,2.271,2.271,0,0,1-.193.423,1.7,1.7,0,0,1-.722.687.824.824,0,0,1-.5.087.474.474,0,0,1-.307-.214l-.038.008c-.119-.176-.237-.354-.355-.531a3.487,3.487,0,0,0-.471.958,8.459,8.459,0,0,0-.212,1.556,14.078,14.078,0,0,1-.23,1.451,6.874,6.874,0,0,1-1.8,3.626.493.493,0,0,1-.042.039,16.206,16.206,0,0,0-5.53-.991c-.015-.136-.025-.273-.029-.411v0a38.429,38.429,0,0,1,1.513-5.311,16.1,16.1,0,0,1,3.037-5.829l.011.006a1.956,1.956,0,0,1,.868-.434,1.753,1.753,0,0,1,1.407.361Z" transform="translate(-169.827 -98.173)" fill="#fff3ea"/>
        <path id="Path_12741" data-name="Path 12741" d="M205.394,137.59c.1.033.206-.044.286-.112a11.1,11.1,0,0,1,1.237-.917c.522-.334,1.074-.625,1.562-1.007l.079-.06-.019-.023a5.632,5.632,0,0,0,1.516-2.83,6.786,6.786,0,0,0,.14-1.021q.134.062.271.118a21.67,21.67,0,0,1,6.33,1.923,6.862,6.862,0,0,1,1.777,1.139,7.478,7.478,0,0,1,1.389,2.063,49.832,49.832,0,0,1,2.462,5.67,28.888,28.888,0,0,1,1.694,6.857c.127,1.245.139,2.5.149,3.747q.019,1.746.034,3.493a39.917,39.917,0,0,1-.7,9.688,3.742,3.742,0,0,1-.012.756,1.6,1.6,0,0,1-.068.29l.025.007a29.968,29.968,0,0,1-2.015,8.839c-.966,2.44-2.111,4.092-4.761,4.831a39.957,39.957,0,0,1-17.982.743c-4.155-.664-8.156-.371-12.28-1.216l-7.676-1.573a1.435,1.435,0,0,1-.487-.162c-.422-.268-.446-.866-.411-1.366.019-.258.034-.509.047-.753a20.546,20.546,0,0,1,.463-4.282h.005c0-.079.005-.155.011-.231a15.076,15.076,0,0,1-2.832-2.207c-.06-.057-.12-.115-.181-.17a18.6,18.6,0,0,1-3.1-3.431c-1.733-2.712-1.939-6.142-1.552-9.338s1.3-6.313,1.632-9.514c.166-1.62.179-3.259.468-4.861a8.17,8.17,0,0,1,2.025-4.363,4.435,4.435,0,0,1,4.438-1.25,2.807,2.807,0,0,1,.8-.5,14.213,14.213,0,0,0,1.2-1.81l.037.016q.559-1.281,1.117-2.555a.347.347,0,0,1,.018-.041.774.774,0,0,1,.216-.317.826.826,0,0,1,.452-.122q.56-.038,1.123-.034a16.232,16.232,0,0,1,5.53.991s.007,0,.012,0a.287.287,0,0,0,.031-.042,6.874,6.874,0,0,0,1.8-3.625,2.714,2.714,0,0,1,.24.288l.039-.025a8.6,8.6,0,0,0,8.884,1.414l-.017-.04a7.54,7.54,0,0,0,1.7-.763,5.006,5.006,0,0,0-.228,2.775l.012,0a2.839,2.839,0,0,1,.54,1.632.749.749,0,0,0,.111.509.861.861,0,0,0,.2.147,2.714,2.714,0,0,1,.662.673q.7.907,1.4,1.812c.007.008.015.019.021.028a.32.32,0,0,0,.141.12" transform="translate(-170.614 -97.83)" fill="#e1d3b8"/>
        <path id="Path_12742" data-name="Path 12742" d="M178.458,169.839c-.005.076-.008.153-.011.231h-.005a20.547,20.547,0,0,0-.463,4.282l-.256-.014a1.449,1.449,0,0,1-1.106-.493,6.56,6.56,0,0,1-.724-1.017,8.356,8.356,0,0,0-1.458-1.683,8.16,8.16,0,0,0-.763-.6,2.363,2.363,0,0,0-.609-.328.762.762,0,0,0-.074-.024,4.653,4.653,0,0,0-1.233-.013,1.678,1.678,0,0,1-.62-.106.814.814,0,0,1-.449-.386.915.915,0,0,1,.2-.989,2.255,2.255,0,0,1,.916-.538,8.862,8.862,0,0,1,3.62-.516v0a1.075,1.075,0,0,1,.2-.018,15.106,15.106,0,0,0,2.832,2.208" transform="translate(-170.615 -95.47)" fill="#fff3ea"/>
        <path id="Path_12743" data-name="Path 12743" d="M177.764,174.15q-.017.366-.046.753l-.134-.022a.653.653,0,0,1-.14.045l.051.188a.977.977,0,0,1-1.309.016l-.1-.034a1.179,1.179,0,0,1-.335-.235.591.591,0,0,0,.569-.134c.181-.211.086-.537-.038-.785a4.82,4.82,0,0,0-1.82-1.971l-.093-.005a.858.858,0,0,0,0-.565.956.956,0,0,0-.233-.358l.087-.1a8.35,8.35,0,0,1,1.458,1.682,6.51,6.51,0,0,0,.724,1.017,1.445,1.445,0,0,0,1.106.493Z" transform="translate(-170.4 -95.267)" fill="#fff3ea"/>
        <path id="Path_12744" data-name="Path 12744" d="M175.779,174.8a1.529,1.529,0,0,1-.247-.058,3.713,3.713,0,0,1-1.3-.6,1.444,1.444,0,0,1-.581-1.247l.107-.079c-.053-.071-.1-.142-.155-.213a1.167,1.167,0,0,0,.18-.051,1.079,1.079,0,0,0,.611-.648l.092.005a4.822,4.822,0,0,1,1.821,1.971c.124.248.219.574.037.785a.593.593,0,0,1-.569.134" transform="translate(-170.432 -95.208)" fill="#fff3ea"/>
        <path id="Path_12745" data-name="Path 12745" d="M172.968,170.054a.505.505,0,0,1,.074.024l-.013.045c.112.418-.26.8-.594,1.07a2.2,2.2,0,0,1-.456.306.707.707,0,0,1-.527.062.752.752,0,0,1-.465-.615,2.215,2.215,0,0,1,.069-.8l.1-.02c-.012-.063-.025-.123-.039-.187a1.686,1.686,0,0,0,.62.106,4.565,4.565,0,0,1,1.233.013" transform="translate(-170.593 -95.329)" fill="#fff3ea"/>
        <path id="Path_12746" data-name="Path 12746" d="M172.377,171.184c.334-.273.706-.652.594-1.069l.013-.046a2.363,2.363,0,0,1,.609.328,8.16,8.16,0,0,1,.763.6l-.087.1a.973.973,0,0,1,.233.358.854.854,0,0,1,0,.566,1.076,1.076,0,0,1-.611.648,1.154,1.154,0,0,1-.179.051,1.461,1.461,0,0,1-1.218-.36,1.1,1.1,0,0,1-.4-.745c-.056-.039-.112-.082-.167-.124a2.212,2.212,0,0,0,.456-.306" transform="translate(-170.535 -95.321)" fill="#fff3ea"/>
        <path id="Path_12747" data-name="Path 12747" d="M184.288,132.989v0m13.232-9.4c1.136.113,1.834.187,3.06.233M194.6,137.552l4.032.24a5.63,5.63,0,0,0,3.259-.46m9.384,26.128c.044-1.215-.143-2.432-.1-3.651a19.382,19.382,0,0,1,.241-2.184q1.1-7.44,2.314-14.864a3.52,3.52,0,0,1,1.251-2.6M208.9,167.907l0-.015c1.044-2.959,3.316-5.3,5.523-7.533m-22.486,11.322c1.558-1.155,3.719-.755,5.652-.938a14.7,14.7,0,0,0,2.9-.647c1.808-.561,3.58-1.246,5.414-1.71a16.362,16.362,0,0,1,3-.493,10.431,10.431,0,0,1,2.629.147m-24.29,1.831c.11,0,.219,0,.327.011,1.57.111,2.92,1.226,4.4,1.85l.037.015a14.314,14.314,0,0,0,2.408.694m-18.013,6.8a.981.981,0,0,0,1.311-.016m-3.874-2.149a1.434,1.434,0,0,0,.581,1.244,3.74,3.74,0,0,0,1.3.6,1.559,1.559,0,0,0,.247.058.591.591,0,0,0,.569-.133c.181-.21.087-.534-.037-.783a4.81,4.81,0,0,0-1.82-1.964m-2.5-.538a.875.875,0,0,0-.005.129,1.1,1.1,0,0,0,.4.742,1.457,1.457,0,0,0,1.218.359,1.152,1.152,0,0,0,.179-.05,1.081,1.081,0,0,0,.611-.647.852.852,0,0,0,0-.563.927.927,0,0,0-.233-.356,2.583,2.583,0,0,0-.848-.489c-.117-.048-.26-.091-.359-.013m-2.064-.458a2.178,2.178,0,0,0-.07.8.751.751,0,0,0,.465.613.709.709,0,0,0,.527-.062,2.151,2.151,0,0,0,.457-.3c.334-.271.706-.648.593-1.065m2.372-2.608a8.884,8.884,0,0,0-3.618.514,2.265,2.265,0,0,0-.917.535.916.916,0,0,0-.2.987.829.829,0,0,0,.449.385,1.713,1.713,0,0,0,.62.106,4.579,4.579,0,0,1,1.233.013.447.447,0,0,1,.075.024,2.413,2.413,0,0,1,.609.326,8.168,8.168,0,0,1,.763.6,8.33,8.33,0,0,1,1.458,1.676,6.49,6.49,0,0,0,.724,1.013,1.447,1.447,0,0,0,1.1.492m45.823-9.3a29.791,29.791,0,0,1-2.015,8.811c-.966,2.431-2.111,4.077-4.761,4.814a40.086,40.086,0,0,1-17.982.741c-4.155-.663-8.156-.37-12.28-1.212l-7.676-1.568a1.438,1.438,0,0,1-.487-.162c-.422-.268-.446-.863-.411-1.361.019-.257.034-.508.047-.751a20.42,20.42,0,0,1,.463-4.267m31.971-40.565.053.007a21.725,21.725,0,0,1,6.33,1.917,6.834,6.834,0,0,1,1.777,1.134,7.468,7.468,0,0,1,1.389,2.056,49.581,49.581,0,0,1,2.462,5.651,28.734,28.734,0,0,1,1.694,6.835c.127,1.24.139,2.487.149,3.733q.019,1.74.034,3.482a39.655,39.655,0,0,1-.7,9.656l0,.015m-40.626-29.388c1.544.271,3.155.1,4.673.491a16.331,16.331,0,0,0,3.145.874m-3.462,23.472a50.377,50.377,0,0,0,2.4-5.483c.394-1.137.707-2.3,1-3.467a56.334,56.334,0,0,0,1.848-10.949,5.009,5.009,0,0,0-.11-1.647m-13.089-3.065-.021-.007a4.446,4.446,0,0,0-4.438,1.246,8.131,8.131,0,0,0-2.025,4.349c-.289,1.6-.3,3.231-.468,4.845-.329,3.191-1.248,6.3-1.632,9.482s-.18,6.6,1.551,9.307a18.6,18.6,0,0,0,3.1,3.419c.062.056.121.112.181.169a15.069,15.069,0,0,0,2.832,2.2,5.872,5.872,0,0,0,2.115.726,6.063,6.063,0,0,0,5.142-2.164,8.966,8.966,0,0,0,1.574-2.642,13.508,13.508,0,0,0,.716-2.6,50.824,50.824,0,0,0,.473-5.769m-8.253-23.095-.071.029a2.831,2.831,0,0,0-.8.5,3.994,3.994,0,0,0-.874,1.122,10.763,10.763,0,0,0-.807,2.316,46.256,46.256,0,0,1-2.082,6.34c-1.106,2.581-2.644,5.2-2.272,7.987m7.71-19.234.361-.823q.559-1.275,1.117-2.547a.272.272,0,0,1,.018-.04.768.768,0,0,1,.216-.317.828.828,0,0,1,.452-.121c.374-.026.748-.037,1.123-.034a16.253,16.253,0,0,1,5.53.987.012.012,0,0,1,.012,0,15.815,15.815,0,0,1,1.475.622,1.356,1.356,0,0,1,.523.372,1.408,1.408,0,0,1,.213.625q.344,2.037.69,4.074m-.793-9.087a8.626,8.626,0,0,0,8.884,1.41l.011,0m3.632-7.047a4.49,4.49,0,0,1,0,1.087,11.687,11.687,0,0,1-1.268,3.493,14.342,14.342,0,0,0-.7,1.669,4.986,4.986,0,0,0-.227,2.767c.015.063.034.127.052.19m7.66-3.443a8.225,8.225,0,0,1,.2,1.793c0,.136-.005.272-.013.409a6.706,6.706,0,0,1-.14,1.017,5.6,5.6,0,0,1-1.516,2.821m-.95-1.66a7.245,7.245,0,0,1-2.358,3.627c-.055.047-.11.092-.169.136m1.931-7.485a6.777,6.777,0,0,1-2.8,4.72m-5.5-35.049a7.847,7.847,0,0,1,1.187,2.8m1.453,1.2a13.086,13.086,0,0,1,1.423.469,5.559,5.559,0,0,1,1.9,1.187,5.5,5.5,0,0,1,1.411,2.94,16.32,16.32,0,0,1,.144,3.3c-.054,2.246-.179,4.614-.119,6.9m-11.273,6.793a7.54,7.54,0,0,0,3.046,1.3,3.859,3.859,0,0,0,2.9-.036,10.724,10.724,0,0,0,2.562-1.7,5.247,5.247,0,0,0,.777-.943,14.87,14.87,0,0,0,1.723-3.761c.021-.068.041-.136.062-.206m-6.967-21.963a1.452,1.452,0,0,1,.136-.065,4.171,4.171,0,0,1,3.744.347,9.571,9.571,0,0,1,2.839,2.847,21.644,21.644,0,0,1,3.456,7.155,34.492,34.492,0,0,1,.685,4.044c.641,5.008,1.381,9.069,1.384,14.116a16.853,16.853,0,0,0,.093,2.339c.031.213.07.425.122.635m-28.6,1.873c.492-2.626.984-5.252,1.325-7.9.5-3.874.577-6.831,1.255-10.678a24.766,24.766,0,0,1,4.391-10.9c1.729-2.227,4.832-4.967,7.835-3.739m-8.748,22.092a1.947,1.947,0,0,1,.868-.433,1.749,1.749,0,0,1,1.407.36m2.38,3.88a9.182,9.182,0,0,0-.9,1.085,3.457,3.457,0,0,0-.471.955,8.393,8.393,0,0,0-.212,1.55,14.079,14.079,0,0,1-.23,1.446,6.846,6.846,0,0,1-1.8,3.614.48.48,0,0,1-.042.038.165.165,0,0,1-.024.022m.359-9.2c.237-.237.475-.476.71-.713a4.263,4.263,0,0,1,1.326-1.015,2.068,2.068,0,0,1,.868-.151,2.156,2.156,0,0,1,1.3.484,1.329,1.329,0,0,1,.441.62,1.83,1.83,0,0,1,.053.437,4.189,4.189,0,0,1-.161,1.454,2.251,2.251,0,0,1-.193.421,1.69,1.69,0,0,1-.722.684.818.818,0,0,1-.5.087A.466.466,0,0,1,193,127.3a.279.279,0,0,1-.045-.115m-4.354-2.791a6.145,6.145,0,0,1,2.154-2.208,1.543,1.543,0,0,1,.741-.189h.015c.635.034,1.079.616,1.43,1.143m5.954-17.738a5.223,5.223,0,0,0-4.458,2.114,11.427,11.427,0,0,0-1.98,4.69c-.375,1.671-.751,3.812-1.3,5.433a15.162,15.162,0,0,1-1.956,3.728c-.118.174-.236.346-.357.514a16.044,16.044,0,0,0-3.037,5.81,38.159,38.159,0,0,0-1.513,5.293m0,0a.955.955,0,0,0,0,.223m9.246-20.063c1.555-.107,3.073.372,4.629.021m3.235-.276a12.453,12.453,0,0,1,2.14-.473,1.7,1.7,0,0,1,1.775.392m-5.429,2.809a9.953,9.953,0,0,0-.107.991,1.755,1.755,0,0,0,.307,1.32,2.713,2.713,0,0,1,.214.228.882.882,0,0,1,.107.585,2.5,2.5,0,0,1-.324,1.013c-.023.039-.092.073-.1.029m3.751-4.134c.033-.205.105-.368.232-.228a.911.911,0,0,1,.024.763c-.1.159-.2.042-.255-.084A1.25,1.25,0,0,1,203.732,115.654Zm-7.851-.061c.032-.2.105-.37.232-.227a.915.915,0,0,1,.023.763c-.094.157-.2.042-.253-.086A1.189,1.189,0,0,1,195.881,115.593Z" transform="translate(-170.615 -99.361)" fill="none" stroke="#731f23" stroke-linecap="round" stroke-linejoin="round" stroke-width="0.539"/>
      </g>
    </g>
  </g>
</svg>
