<svg xmlns="http://www.w3.org/2000/svg" xmlns:xlink="http://www.w3.org/1999/xlink" width="40" height="40" viewBox="0 0 40 40">
  <defs>
    <clipPath id="clip-image_byTop">
      <rect width="40" height="40"/>
    </clipPath>
  </defs>
  <g id="image_byTop" clip-path="url(#clip-image_byTop)">
    <g id="Group_18960" data-name="Group 18960" transform="translate(-679 -787)">
      <path id="Path_12674" data-name="Path 12674" d="M20,0A20,20,0,1,1,0,20,20,20,0,0,1,20,0Z" transform="translate(679 787)" fill="#7dc9cf"/>
      <g id="Group_18855" data-name="Group 18855" transform="translate(684.24 792.24)">
        <path id="Path_12663" data-name="Path 12663" d="M0,0H29.521V29.521H0Z" fill="none"/>
        <path id="Path_12664" data-name="Path 12664" d="M5.931,6.936,7.5,12.162m6.9,6.9,5.229,1.568" transform="translate(1.364 1.595)" fill="none" stroke="#fff" stroke-linecap="round" stroke-linejoin="round" stroke-width="2"/>
        <path id="Path_12665" data-name="Path 12665" d="M11.683,13.642l7.084-7.084" transform="translate(2.687 1.508)" fill="none" stroke="#fff" stroke-linecap="round" stroke-linejoin="round" stroke-width="2"/>
        <circle id="Ellipse_121" data-name="Ellipse 121" cx="2" cy="2" r="2" transform="translate(5 4.521)" fill="none" stroke="#fff" stroke-linecap="round" stroke-linejoin="round" stroke-width="2"/>
        <circle id="Ellipse_122" data-name="Ellipse 122" cx="2" cy="2" r="2" transform="translate(21 4.521)" fill="none" stroke="#fff" stroke-linecap="round" stroke-linejoin="round" stroke-width="2"/>
        <circle id="Ellipse_123" data-name="Ellipse 123" cx="2" cy="2" r="2" transform="translate(21 20.521)" fill="none" stroke="#fff" stroke-linecap="round" stroke-linejoin="round" stroke-width="2"/>
        <circle id="Ellipse_124" data-name="Ellipse 124" cx="5.5" cy="5.5" r="5.5" transform="translate(5 13.521)" fill="none" stroke="#fff" stroke-linecap="round" stroke-linejoin="round" stroke-width="2"/>
      </g>
    </g>
  </g>
</svg>
