<svg xmlns="http://www.w3.org/2000/svg" xmlns:xlink="http://www.w3.org/1999/xlink" width="136" height="28" viewBox="0 0 136 28">
  <defs>
    <clipPath id="clip-image_logo">
      <rect width="136" height="28"/>
    </clipPath>
  </defs>
  <g id="image_logo" clip-path="url(#clip-image_logo)">
    <g id="Group_18088" data-name="Group 18088" transform="translate(0.201 -1.873)">
      <g id="Group_2412" data-name="Group 2412" transform="translate(-0.201 1.873)">
        <g id="Group_2197" data-name="Group 2197">
          <path id="Path_958" data-name="Path 958" d="M88.758,209.479c-.014.007.014,0,0,0s0,.08.242.246a5.21,5.21,0,0,1,2.348,4.731,5.4,5.4,0,0,1-5.667,5.091v4.076c5.235,0,9.993-3.6,9.993-8.751a8.912,8.912,0,0,0-1.818-5.421,5.659,5.659,0,0,0,.571-.783c.319-.547.379-1.211.379-3.429v-9.611H81.378v7.66H77.1V207.5h8.655v-7.565h4.83v6.522a3.332,3.332,0,0,1-1.829,3.024" transform="translate(-67.809 -195.624)" fill="#008f8a"/>
          <path id="Path_959" data-name="Path 959" d="M36.641,195.626H35.4a8.61,8.61,0,0,0-6.251,2.5c-1.676,1.844-1.834,3.481-1.834,6.179v19.308H40.947v-7.58h4.315v-4.258H36.6v7.639H31.649v-16s-.319-3.476,4-3.572l.989-.045Z" transform="translate(-27.31 -195.624)" fill="#007fbc"/>
        </g>
        <g id="Group_2201" data-name="Group 2201" transform="translate(35.628 6.577)">
          <g id="Group_2198" data-name="Group 2198" transform="translate(0 0.19)">
            <path id="Path_960" data-name="Path 960" d="M256.365,278.206v3.3l-13.234.012v-4.537h11.634c1.7,0,1.6,1.229,1.6,1.229m-2.57,1.761v-1.389h-8.268v1.389Z" transform="translate(-239.648 -269.951)" fill="#1a1311"/>
            <path id="Path_961" data-name="Path 961" d="M229.789,314.931v-7.993H246.2a2.026,2.026,0,0,1,.8.228,1.793,1.793,0,0,1,1.047,1.533v6.224H245.3v-.548H232.535v.551H229.79M245.3,309.84v-1.086h-5.117v1.086H245.3m-7.641,0v-1.086h-5.112v1.086h5.112m7.641,2.777v-1.083h-5.117v1.083H245.3m-7.641.009V311.54h-5.112v1.086Z" transform="translate(-228.777 -294.449)" fill="#1a1311"/>
            <rect id="Rectangle_3525" data-name="Rectangle 3525" width="13.245" height="1.703" transform="translate(3.473 4.458)" fill="#1a1311"/>
            <path id="Path_962" data-name="Path 962" d="M224.326,245.087v-5.232h8.768V238.5h2.654v1.269h6.92s1.769.131,1.769,1.588v3.729h-2.407v-2.994H226.873v2.994Z" transform="translate(-224.326 -238.5)" fill="#1a1311"/>
          </g>
          <g id="Group_2199" data-name="Group 2199" transform="translate(26.631 0.144)">
            <path id="Path_963" data-name="Path 963" d="M436.868,248.213l1.678-5.46a1.472,1.472,0,0,0-.311-1.227,1.518,1.518,0,0,0-1.157-.548h-7.015v20.1h2.553v-3.633s.764,1.122,1.18,1.683a4.228,4.228,0,0,0,2.022-.5,5.56,5.56,0,0,0,3.049-4.214,8.57,8.57,0,0,0-1.992-6.194m-.581,6.4a3.647,3.647,0,0,1-2.212,2.11,2.831,2.831,0,0,1-1.494.06V243.468h3.26c-.488,1.735-1.1,3.542-1.652,5.249.172.317.549.606.748.955a6.05,6.05,0,0,1,1.343,4.944Z" transform="translate(-418.584 -240.479)" fill="#1a1311"/>
            <path id="Path_964" data-name="Path 964" d="M378.7,247.65v-2.6h-3.663v-1.972h3.582v-2.492h-3.577V238.24h-2.772v2.347H368.1v2.549h4.172v1.931H368.1v2.54h4.176v1.9h-4.117v2.6h4a7.022,7.022,0,0,1-2.5,4.745l1.51,1.985c3.725-2.049,3.9-6.71,3.9-6.71H378.7v-2.616h-3.66v-1.859Z" transform="translate(-368.1 -238.24)" fill="#1a1311"/>
          </g>
          <g id="Group_2200" data-name="Group 2200" transform="translate(80.163 0)">
            <path id="Path_965" data-name="Path 965" d="M667.234,240.393h-7.668v1.542h17.853v-1.542h-7.727v-.751h8.493V238.11h-8.493v-.651h-2.463v.651h-8.387v1.532h8.387Z" transform="translate(-658.522 -237.459)" fill="#1a1311"/>
            <path id="Path_966" data-name="Path 966" d="M679.176,265.678a1.97,1.97,0,0,0-.953-.179H659.81v1.556h17.047a.832.832,0,0,1,.473.1c.165.119.139.424.139.424v1.551h2.042v-2.793a.841.841,0,0,0-.336-.664Z" transform="translate(-659.306 -260.378)" fill="#1a1311"/>
            <path id="Path_967" data-name="Path 967" d="M659.935,280.416v1.516h18.071v-1.516h-7.43v-.777h5.456v-1.571H661.786v1.571h6.341v.777Z" transform="translate(-659.409 -270.652)" fill="#1a1311"/>
            <path id="Path_968" data-name="Path 968" d="M657.086,305.112h15.241v1.138h-5.251v1.628h5.251v2.107c0,.741-1.523.837-2.454.777l.939,1.822a5.618,5.618,0,0,0,3.644-1.118c.459-.471.339-1.465.339-3.591h1.849V306.25H674.8v-1.138h2.493v-1.587h-20.2Z" transform="translate(-657.086 -291.463)" fill="#1a1311"/>
            <path id="Path_969" data-name="Path 969" d="M671.386,315.464H664.48v5.8h2.086v-.529h3.473v.529h2.085V316.22a.762.762,0,0,0-.2-.6.9.9,0,0,0-.534-.157m-1.336,2.189v1.513h-3.483v-2.072h3.03a.68.68,0,0,1,.363.2.613.613,0,0,1,.09.357Z" transform="translate(-663.11 -301.223)" fill="#1a1311"/>
            <path id="Path_970" data-name="Path 970" d="M711.129,329.242l-1.52,1.2,1.613,2,1.517-1.2Z" transform="translate(-699.88 -312.485)" fill="#1a1311"/>
          </g>
          <path id="Path_971" data-name="Path 971" d="M517.49,248.621a25.636,25.636,0,0,1-1.023,2.558,20.257,20.257,0,0,1-8.022,8.526l-1.91-1.971a17.145,17.145,0,0,0,4.353-3.164,18.908,18.908,0,0,0,5.321-14.044v-1.085h2.743s-.043.638-.071,1.086c-.044.7-.057,1.866-.046,1.923a21.173,21.173,0,0,0,.7,4.623q1.886,6,9.024,10.975l-2.269,1.725c-1.119-.918-2.072-1.725-2.847-2.436a22.2,22.2,0,0,1-5.95-8.715Z" transform="translate(-454.259 -239.078)" fill="#1a1311"/>
        </g>
      </g>
    </g>
  </g>
</svg>
