<svg xmlns="http://www.w3.org/2000/svg" xmlns:xlink="http://www.w3.org/1999/xlink" width="386" height="271" viewBox="0 0 386 271">
  <defs>
    <clipPath id="clip-path">
      <rect id="Rectangle_6748" data-name="Rectangle 6748" width="401.667" height="321.333" fill="none"/>
    </clipPath>
    <clipPath id="clip-image_mainBackground">
      <rect width="386" height="271"/>
    </clipPath>
  </defs>
  <g id="image_mainBackground" clip-path="url(#clip-image_mainBackground)">
    <g id="Group_18059" data-name="Group 18059" transform="translate(-7.833 -44.333)">
      <g id="Group_17489" data-name="Group 17489" clip-path="url(#clip-path)">
        <path id="Path_12065" data-name="Path 12065" d="M59.2,235.353h-.008a.3.3,0,0,1-.294-.308c.354-15.348,1.541-33.012,3.341-49.739a.3.3,0,0,1,.6.065c-1.8,16.71-2.985,34.357-3.339,49.688a.3.3,0,0,1-.3.294" fill="#b6ba98"/>
        <path id="Path_12066" data-name="Path 12066" d="M61.232,235.509h-.024a.3.3,0,0,1-.277-.324c1.1-13.982,2.37-31.9,3.406-47.93a.3.3,0,1,1,.6.038c-1.036,16.034-2.31,33.954-3.406,47.939a.3.3,0,0,1-.3.278" fill="#b6ba98"/>
        <path id="Path_12067" data-name="Path 12067" d="M47.3,174.419a1.825,1.825,0,0,1-.454-.063,4.7,4.7,0,0,1-2.51-1.954,3.738,3.738,0,0,1,.1-3l.045-.111a1.277,1.277,0,0,0-.083-1.5c-.032-.055-.063-.111-.093-.167a5.108,5.108,0,0,1-.051-4.7l.068-.129a1.368,1.368,0,0,0,.244-.757,1.347,1.347,0,0,0-.208-.458c-.026-.042-.051-.085-.076-.127a3.785,3.785,0,0,1,1.285-4.982.3.3,0,1,1,.311.515,3.208,3.208,0,0,0-1.074,4.166c.022.039.046.078.07.117a1.464,1.464,0,0,1-.019,1.807l-.065.124a4.5,4.5,0,0,0,.044,4.142c.029.052.059.1.088.157a1.837,1.837,0,0,1,.118,2.023l-.044.107a3.265,3.265,0,0,0-.12,2.518,4.1,4.1,0,0,0,2.121,1.632.727.727,0,0,0,.557-.023.3.3,0,1,1,.346.493,1.021,1.021,0,0,1-.6.176" fill="#b6ba98"/>
        <path id="Path_12068" data-name="Path 12068" d="M46.27,153.486a.3.3,0,0,1-.28-.191,4.69,4.69,0,0,1,.772-4.633c.117-.138.245-.272.372-.4a2.106,2.106,0,0,0,.8-2.156,5.2,5.2,0,0,1-.015-.893c.14-1.451,1.3-2.347,2.42-3.213a10.257,10.257,0,0,0,1.62-1.44,8.759,8.759,0,0,0,.533-.737,7.137,7.137,0,0,1,.783-1.025,2.173,2.173,0,0,1,2.292-.669.3.3,0,0,1-.232.556,1.6,1.6,0,0,0-1.628.533,6.6,6.6,0,0,0-.715.94,9.675,9.675,0,0,1-.57.788,10.716,10.716,0,0,1-1.715,1.531c-1.066.824-2.074,1.6-2.189,2.794a4.791,4.791,0,0,0,.016.79,2.664,2.664,0,0,1-.966,2.617c-.119.125-.238.25-.348.379a4.074,4.074,0,0,0-.671,4.023.3.3,0,0,1-.28.411" fill="#b6ba98"/>
        <path id="Path_12069" data-name="Path 12069" d="M57.251,135.183h-.019a.3.3,0,0,1-.282-.318,4.42,4.42,0,0,1,3.2-3.9,3.919,3.919,0,0,1,2.249-3.7l.143-.062a1.17,1.17,0,0,0,.562-.366,1.122,1.122,0,0,0-.01-.766,3.843,3.843,0,0,1-.082-.478,1.946,1.946,0,0,1,1.918-2.042.3.3,0,1,1-.014.6,1.255,1.255,0,0,0-.94.424,1.271,1.271,0,0,0-.364.964,3.345,3.345,0,0,0,.071.4,1.6,1.6,0,0,1-.061,1.2,1.625,1.625,0,0,1-.842.613l-.133.058a3.338,3.338,0,0,0-1.875,3.35.3.3,0,0,1-.242.334,3.793,3.793,0,0,0-2.982,3.4.3.3,0,0,1-.3.283" fill="#b6ba98"/>
        <path id="Path_12070" data-name="Path 12070" d="M75.95,159.147a.3.3,0,0,1-.185-.54c.98-.751.424-2.4-.215-3.658a2.086,2.086,0,0,1-.034-2.29c.036-.079.073-.157.105-.236a4.649,4.649,0,0,0-.614-4.575c-.092-.116-.19-.229-.288-.343a3.073,3.073,0,0,1-.863-1.5,3.039,3.039,0,0,1,.362-1.681,4.384,4.384,0,0,0,.32-.922c.191-1.052-.476-1.976-1.183-2.953a7.248,7.248,0,0,1-1.326-2.43,6.627,6.627,0,0,1-.142-1.13c-.016-.239-.031-.464-.062-.689a4.6,4.6,0,0,0-2.095-3.22l-.085-.052a1.328,1.328,0,0,1-.727-1.8l.033-.133a3.645,3.645,0,0,0-1.386-3.717.3.3,0,1,1,.351-.489,4.26,4.26,0,0,1,1.621,4.345l-.035.142a.77.77,0,0,0,.457,1.142l.09.055a5.2,5.2,0,0,1,2.371,3.648c.035.246.052.493.068.732a6.1,6.1,0,0,0,.126,1.027,6.818,6.818,0,0,0,1.229,2.22c.749,1.037,1.525,2.109,1.289,3.414a5.013,5.013,0,0,1-.36,1.051,2.555,2.555,0,0,0-.321,1.351,2.628,2.628,0,0,0,.724,1.2c.1.12.207.24.3.362a5.268,5.268,0,0,1,.7,5.184c-.036.083-.073.167-.112.25a2.222,2.222,0,0,0-.271.906,2.111,2.111,0,0,0,.294.862c1.345,2.641.767,3.855.045,4.409a.3.3,0,0,1-.182.062" fill="#b6ba98"/>
        <path id="Path_12071" data-name="Path 12071" d="M65.3,182.789a.3.3,0,0,1-.017-.6,5.133,5.133,0,0,0,1.919-.358,1.538,1.538,0,0,0,.951-1.33l-.006-.093a.933.933,0,0,1,.117-.633.947.947,0,0,1,.643-.333l.034-.007a2.611,2.611,0,0,0,2.028-2.192.9.9,0,0,1,.276-.656.858.858,0,0,1,.476-.16l.04,0a1.7,1.7,0,0,0,1.089-2.8.3.3,0,0,1,.455-.395,2.3,2.3,0,0,1-1.475,3.794l-.046.005a.594.594,0,0,0-.162.031.681.681,0,0,0-.052.231l0,.027a3.23,3.23,0,0,1-2.507,2.711l-.036.007c-.1.019-.238.047-.267.089a.576.576,0,0,0-.01.242c0,.037.006.075.007.111a2.139,2.139,0,0,1-1.292,1.9,5.639,5.639,0,0,1-2.144.416H65.3" fill="#b6ba98"/>
        <path id="Path_12072" data-name="Path 12072" d="M73.656,171.082a.3.3,0,0,1-.16-.046,2.513,2.513,0,0,1-.147-4.162,2.5,2.5,0,0,1-.812-2.236,4.925,4.925,0,0,1,1.294-2.464.3.3,0,1,1,.453.4,4.379,4.379,0,0,0-1.15,2.148,1.767,1.767,0,0,0,.919,1.875.3.3,0,0,1,.01.556,1.915,1.915,0,0,0-.247,3.376.3.3,0,0,1-.16.557" fill="#b6ba98"/>
        <path id="Path_12073" data-name="Path 12073" d="M81.527,188.626a2.62,2.62,0,0,1-2.642-2.775,3.057,3.057,0,0,1-1.858-.759,3,3,0,0,1-1.068-2.1,5.874,5.874,0,0,1,.018-.666,1.737,1.737,0,0,0-.671-1.83c-.126-.124-.256-.252-.376-.392a3.231,3.231,0,0,1-.444-3.389.3.3,0,1,1,.544.258,2.61,2.61,0,0,0,.359,2.74c.1.121.217.234.34.354a2.3,2.3,0,0,1,.849,2.3,5.575,5.575,0,0,0-.017.6,2.509,2.509,0,0,0,2.636,2.272.3.3,0,0,1,.325.359,2.027,2.027,0,0,0,2.6,2.332.3.3,0,1,1,.184.574,2.568,2.568,0,0,1-.782.12" fill="#b6ba98"/>
        <path id="Path_12074" data-name="Path 12074" d="M87.975,192.011a2.238,2.238,0,0,1-.522-.062,4.138,4.138,0,0,1-1.062-.476l-1.77-1.008c-.3-.172-1.01-.575-1-1.27a.3.3,0,0,1,.3-.3h0a.3.3,0,0,1,.3.305c0,.3.37.553.7.739l1.77,1.008a3.745,3.745,0,0,0,.907.414,1.708,1.708,0,0,0,1.489-.36.3.3,0,1,1,.392.457,2.329,2.329,0,0,1-1.5.55" fill="#b6ba98"/>
        <path id="Path_12075" data-name="Path 12075" d="M79.391,156.576a.315.315,0,0,1-.061-.006.3.3,0,0,1-.234-.357,3.035,3.035,0,0,1,2.3-2.3l.128-.024a1.03,1.03,0,0,0,.392-.121,1.04,1.04,0,0,0,.244-.339l.044-.08a4,4,0,0,1,3.141-2,.3.3,0,0,1,.047.6,3.441,3.441,0,0,0-2.663,1.7l-.041.074a1.213,1.213,0,0,1-1.057.763l-.114.022a2.413,2.413,0,0,0-1.834,1.829.3.3,0,0,1-.295.24" fill="#b6ba98"/>
        <path id="Path_12076" data-name="Path 12076" d="M58.26,181.255c-.066,0-.133,0-.2-.007a2.8,2.8,0,0,1-1.94-.926c-.065-.074-.127-.154-.189-.233a1.312,1.312,0,0,0-.557-.505,1.282,1.282,0,0,0-.362-.027c-.06,0-.12,0-.18,0a2.4,2.4,0,0,1-1.941-1.13c-.063-.1-.118-.214-.173-.324a1.271,1.271,0,0,0-.939-.827,3.725,3.725,0,0,1-.524-.236,2.051,2.051,0,0,1-.983-1.974.3.3,0,1,1,.6.073,1.431,1.431,0,0,0,.687,1.379,3.23,3.23,0,0,0,.442.2,1.839,1.839,0,0,1,1.258,1.119c.047.1.1.191.149.282a1.789,1.789,0,0,0,1.443.84h.156a1.418,1.418,0,0,1,1.4.763c.056.072.112.144.17.211a2.3,2.3,0,0,0,3.128.205.3.3,0,0,1,.4.45,2.777,2.777,0,0,1-1.845.671" fill="#b6ba98"/>
        <path id="Path_12077" data-name="Path 12077" d="M18.512,200.188A3,3,0,0,1,15.7,198.13l-.027-.09a.765.765,0,0,0-.159-.345.761.761,0,0,0-.358-.089l-.081-.008a3.332,3.332,0,0,1-2.741-2.3.3.3,0,1,1,.577-.172A2.716,2.716,0,0,0,15.149,197l.074.008a.991.991,0,0,1,1.031.86l.025.082a2.416,2.416,0,0,0,2.234,1.636h.036a.3.3,0,0,1,0,.6h-.041" fill="#b6ba98"/>
        <path id="Path_12078" data-name="Path 12078" d="M26.393,206.147a.291.291,0,0,1-.087-.013c-1.721-.519-3.543-1.275-4.015-2.955l-.017-.063a.654.654,0,0,0-.093-.237.679.679,0,0,0-.277-.119l-.055-.016a3.365,3.365,0,0,1-2.345-2.832.3.3,0,1,1,.6-.059,2.753,2.753,0,0,0,1.916,2.314l.051.014a.916.916,0,0,1,.785.779l.016.057c.393,1.4,2.045,2.069,3.609,2.54a.3.3,0,0,1-.087.59" fill="#b6ba98"/>
        <path id="Path_12079" data-name="Path 12079" d="M29.694,207.982H29.65a1.185,1.185,0,0,1-.922-.44.3.3,0,1,1,.473-.372.6.6,0,0,0,.466.21.985.985,0,0,0,.749-.314,2.115,2.115,0,0,0,.384-1.586l0-.079a1.412,1.412,0,0,1,.494-1.4l.059-.059a4.427,4.427,0,0,0,1.23-2.537.3.3,0,1,1,.6.076,5.038,5.038,0,0,1-1.4,2.884l-.063.063a1.267,1.267,0,0,0-.284.352,1.291,1.291,0,0,0-.036.576l.006.082a2.679,2.679,0,0,1-.535,2.027,1.6,1.6,0,0,1-1.172.517" fill="#b6ba98"/>
        <path id="Path_12080" data-name="Path 12080" d="M34.367,200.04a1.4,1.4,0,0,1-.368-.05.3.3,0,0,1,.158-.581c.708.194,1.328-.637,1.543-1.288.076-.229.135-.467.2-.719a4.1,4.1,0,0,1,.81-1.86,4.426,4.426,0,0,1,.354-.336,1.437,1.437,0,0,0,.6-1.491,3.032,3.032,0,0,1,.143-1.123,2.878,2.878,0,0,1,.287-.53c.053-.084.106-.167.154-.254a2.141,2.141,0,0,0-.306-2.4.3.3,0,1,1,.439-.412,2.725,2.725,0,0,1,.4,3.1c-.053.1-.114.193-.174.288a2.483,2.483,0,0,0-.233.423,2.572,2.572,0,0,0-.1.907,2,2,0,0,1-.811,1.944,3.849,3.849,0,0,0-.3.287,3.619,3.619,0,0,0-.673,1.6c-.062.251-.127.511-.21.762a2.294,2.294,0,0,1-1.9,1.73" fill="#b6ba98"/>
        <path id="Path_12081" data-name="Path 12081" d="M13.194,191.576a.3.3,0,0,1-.2-.072.925.925,0,0,1,.023-1.282,2.977,2.977,0,0,1,.3-.3,1.638,1.638,0,0,0,.322-.348,1.685,1.685,0,0,0,0-1.157c-.014-.067-.028-.134-.041-.2a1.534,1.534,0,0,1,.593-1.756.3.3,0,0,1,.259.544c-.321.153-.341.686-.261,1.1l.039.193a2.162,2.162,0,0,1-.07,1.584,2.094,2.094,0,0,1-.44.492,2.707,2.707,0,0,0-.247.241c-.122.146-.17.369-.093.435a.3.3,0,0,1-.195.531" fill="#b6ba98"/>
        <path id="Path_12082" data-name="Path 12082" d="M12.776,182.584a.3.3,0,0,1-.224-.1,2.049,2.049,0,0,1-.377-1.755,7.323,7.323,0,0,1,.186-.756,6.362,6.362,0,0,0,.185-.777c.018-.122.032-.249.047-.379.085-.747.192-1.676,1.019-1.927a.3.3,0,1,1,.175.576c-.417.127-.51.668-.595,1.419-.016.137-.032.271-.05.4a6.719,6.719,0,0,1-.2.853,6.787,6.787,0,0,0-.172.7A1.535,1.535,0,0,0,13,182.082a.3.3,0,0,1-.224.5" fill="#b6ba98"/>
        <path id="Path_12083" data-name="Path 12083" d="M15.534,174.577a.3.3,0,0,1-.194-.071.3.3,0,0,1-.036-.424,2,2,0,0,0,.165-1.538,2.633,2.633,0,0,1,.253-1.963,2.612,2.612,0,0,1,.367-.381.834.834,0,0,0,.327-1.088,3.384,3.384,0,0,1-.077-.506,1.763,1.763,0,0,1,1.369-1.759.3.3,0,1,1,.119.59,1.157,1.157,0,0,0-.886,1.139,2.778,2.778,0,0,0,.065.414,1.394,1.394,0,0,1-.513,1.657,2.241,2.241,0,0,0-.287.292,2.146,2.146,0,0,0-.139,1.529,2.476,2.476,0,0,1-.3,2,.3.3,0,0,1-.23.107" fill="#b6ba98"/>
        <path id="Path_12084" data-name="Path 12084" d="M24.461,173.232a.3.3,0,0,1-.248-.13,4.561,4.561,0,0,0-1.731-1.5l-.1-.046a1.846,1.846,0,0,1-.695-.486,1.816,1.816,0,0,1-.292-.659,2.872,2.872,0,0,0-.094-.292,2.579,2.579,0,0,0-.468-.659,4.171,4.171,0,0,1-.448-.582,4.091,4.091,0,0,1-.447-1.478l-.031-.188a2.433,2.433,0,0,0-.536-1.322.906.906,0,0,0-.643-.267.541.541,0,0,0-.388.149.3.3,0,1,1-.433-.419,1.132,1.132,0,0,1,.817-.332,1.518,1.518,0,0,1,1.074.444,2.985,2.985,0,0,1,.7,1.644l.032.192a2.6,2.6,0,0,0,.755,1.763,3.089,3.089,0,0,1,.57.823,3.413,3.413,0,0,1,.118.359,1.323,1.323,0,0,0,.185.451,1.36,1.36,0,0,0,.483.316l.1.049a5.167,5.167,0,0,1,1.96,1.693.3.3,0,0,1-.248.472" fill="#b6ba98"/>
        <path id="Path_12085" data-name="Path 12085" d="M25.741,174.142a.3.3,0,0,1-.3-.276,2.657,2.657,0,0,1,1.782-2.668l.074-.022a.32.32,0,0,0,.31-.449c0-.042,0-.084,0-.125a2.575,2.575,0,0,1,1.134-1.975,6.973,6.973,0,0,1,1.971-.9.3.3,0,0,1,.191.572,6.533,6.533,0,0,0-1.806.815,1.983,1.983,0,0,0-.888,1.5c0,.036,0,.072,0,.108a.873.873,0,0,1-.736,1.035l-.067.02a2.035,2.035,0,0,0-1.365,2.043.3.3,0,0,1-.274.326h-.026" fill="#b6ba98"/>
        <path id="Path_12086" data-name="Path 12086" d="M36.837,185.361a.3.3,0,0,1-.21-.517,1.676,1.676,0,0,0-.338-2.519l-.058-.031a1.131,1.131,0,0,1-.349-.252,1.2,1.2,0,0,1-.168-.99l.006-.04a3.812,3.812,0,0,0-.526-2.461c-.027-.044-.055-.088-.083-.131a2.1,2.1,0,0,1-.353-.771,2.07,2.07,0,0,1,.052-.774c.019-.094.038-.188.05-.282a1.769,1.769,0,0,0-1.327-1.86.3.3,0,0,1-.209-.425,1.779,1.779,0,0,0-.778-2.267.3.3,0,1,1,.268-.539,2.387,2.387,0,0,1,1.177,2.742,2.382,2.382,0,0,1,1.466,2.422c-.013.109-.035.218-.056.327a1.58,1.58,0,0,0-.05.554,1.6,1.6,0,0,0,.267.547l.089.14a4.364,4.364,0,0,1,.61,2.856l-.006.043c-.027.2-.057.419.026.514a.685.685,0,0,0,.176.115l.068.036a2.275,2.275,0,0,1,.466,3.477.3.3,0,0,1-.21.086" fill="#b6ba98"/>
        <path id="Path_12094" data-name="Path 12094" d="M26.548,218.063a.3.3,0,0,1-.3-.3v-8.628a.3.3,0,1,1,.6,0v8.628a.3.3,0,0,1-.3.3" fill="#b6ba98"/>
        <path id="Path_12095" data-name="Path 12095" d="M28.244,220.572a.3.3,0,0,1-.3-.3c0-3.535-.063-7.12-.18-10.655a.3.3,0,1,1,.6-.02c.118,3.541.178,7.133.18,10.674A.3.3,0,0,1,28.244,220.572Z" fill="#b6ba98"/>
        <path id="Path_12096" data-name="Path 12096" d="M192.822,219.474H175.253a.3.3,0,0,1,0-.6h17.569a.3.3,0,0,1,0,.6" fill="#b6ba98"/>
        <path id="Path_12097" data-name="Path 12097" d="M288.354,203.179a.3.3,0,0,1-.021-.6,6.25,6.25,0,0,0,1.895-.32,1.884,1.884,0,0,0,1.189-1.184.3.3,0,0,1,.282-.223,5.049,5.049,0,0,0,2.428-.58,2.1,2.1,0,0,0,1.09-1.92.3.3,0,1,1,.6-.071,2.694,2.694,0,0,1-1.373,2.507,5.344,5.344,0,0,1-2.512.656,2.577,2.577,0,0,1-1.478,1.375,6.812,6.812,0,0,1-2.078.361h-.019" fill="#b6ba98"/>
        <path id="Path_12098" data-name="Path 12098" d="M296.612,196.976a.3.3,0,0,1-.2-.528,2.7,2.7,0,0,0,.9-2.252c-.016-.146-.04-.294-.07-.451a2.152,2.152,0,0,1,.45-2.1,4.513,4.513,0,0,0,.276-.414,3.884,3.884,0,0,0,.345-1.288,8.16,8.16,0,0,0-.067-4.068.3.3,0,1,1,.563-.213,8.739,8.739,0,0,1,.1,4.372,4.422,4.422,0,0,1-.413,1.486,4.163,4.163,0,0,1-.316.478,2.329,2.329,0,0,0-.38.664,2.25,2.25,0,0,0,.038.976c.026.161.056.327.072.5a3.3,3.3,0,0,1-1.1,2.763.308.308,0,0,1-.2.074" fill="#b6ba98"/>
        <path id="Path_12099" data-name="Path 12099" d="M296.331,180.881a.306.306,0,0,1-.067-.008.3.3,0,0,1-.225-.362,1.644,1.644,0,0,0-.377-1.441l-.054-.059a1.017,1.017,0,0,1-.329-.562.994.994,0,0,1,.064-.453,1.15,1.15,0,0,0,.035-.124c.083-.388-.308-.78-.7-1.017-.088-.053-.182-.1-.273-.156a2.683,2.683,0,0,1-1.154-.986,2.584,2.584,0,0,1-.188-1.412,3.629,3.629,0,0,0-.01-.79,1.582,1.582,0,0,0-1.679-1.256.3.3,0,1,1-.07-.6,2.2,2.2,0,0,1,2.34,1.752,4.114,4.114,0,0,1,.022.926,2.081,2.081,0,0,0,.118,1.1,2.153,2.153,0,0,0,.916.742c.1.055.192.109.286.166a1.419,1.419,0,0,1,.932,1.838.624.624,0,0,0-.04.191.585.585,0,0,0,.169.229l.061.066a2.239,2.239,0,0,1,.52,1.985.3.3,0,0,1-.3.233" fill="#b6ba98"/>
        <path id="Path_12100" data-name="Path 12100" d="M314.079,199.23a.312.312,0,0,1-.1-.018,3.675,3.675,0,0,1-1.733-1.332l-.07-.1a1.139,1.139,0,0,0-.31-.355,1.085,1.085,0,0,0-.421-.092c-.093-.01-.19-.019-.281-.037a1.772,1.772,0,0,1-.645-3.226.3.3,0,1,1,.329.505,1.17,1.17,0,0,0,.426,2.129c.075.014.153.021.23.029a1.586,1.586,0,0,1,.659.169,1.607,1.607,0,0,1,.514.541l.064.094a3.064,3.064,0,0,0,1.444,1.111.3.3,0,0,1-.1.584" fill="#b6ba98"/>
        <path id="Path_12101" data-name="Path 12101" d="M321.839,203.7a3.011,3.011,0,0,1-1.85-.608l-.1-.079a.658.658,0,0,0-.691-.212l-.072.009a4.136,4.136,0,0,1-3.76-1.639.3.3,0,1,1,.485-.356,3.572,3.572,0,0,0,3.2,1.4l.067-.008a1.215,1.215,0,0,1,1.144.341l.088.071a2.59,2.59,0,0,0,3.406-.362.3.3,0,0,1,.461.387,3.122,3.122,0,0,1-2.386,1.059" fill="#b6ba98"/>
        <path id="Path_12102" data-name="Path 12102" d="M309.859,191.027a.3.3,0,0,1-.249-.13,7.384,7.384,0,0,1-1.05-2.266,1.857,1.857,0,0,1-.069-.862,2.028,2.028,0,0,1,.281-.632l.064-.11a3.611,3.611,0,0,0,.329-2.728.3.3,0,1,1,.579-.166,4.17,4.17,0,0,1-.386,3.193l-.069.119a1.547,1.547,0,0,0-.209.445,1.361,1.361,0,0,0,.061.584,6.8,6.8,0,0,0,.967,2.081.3.3,0,0,1-.249.472" fill="#b6ba98"/>
        <path id="Path_12103" data-name="Path 12103" d="M310.218,181.18a.3.3,0,0,1-.289-.223,2.637,2.637,0,0,1,1.54-3.034l.088-.033a.733.733,0,0,0,.268-.134c.093-.1.069-.32.045-.55-.008-.065-.016-.13-.019-.192a4.138,4.138,0,0,1,.748-2.309l.136-.247a2.378,2.378,0,0,0,.364-2.166.3.3,0,1,1,.539-.269,2.9,2.9,0,0,1-.375,2.724l-.14.251a3.718,3.718,0,0,0-.672,1.97c0,.056.011.113.016.171a.993.993,0,0,1-.7,1.317l-.081.029a2.015,2.015,0,0,0-1.175,2.316.3.3,0,0,1-.212.369.308.308,0,0,1-.08.01" fill="#b6ba98"/>
        <path id="Path_12104" data-name="Path 12104" d="M314.92,169.715a.3.3,0,0,1-.268-.16,1.856,1.856,0,0,1,.413-2c.1-.125.208-.246.316-.368a2.951,2.951,0,0,0,.677-1,3.093,3.093,0,0,0,.094-.723l.008-.145a9.186,9.186,0,0,1,1.955-5.121.3.3,0,1,1,.471.375,8.574,8.574,0,0,0-1.826,4.781l-.006.141a2.689,2.689,0,0,1-.924,2.1c-.1.114-.2.228-.294.346a1.343,1.343,0,0,0-.351,1.341.3.3,0,0,1-.126.407.3.3,0,0,1-.139.035" fill="#b6ba98"/>
        <path id="Path_12105" data-name="Path 12105" d="M323.4,160.354a.29.29,0,0,1-.131-.031,3.93,3.93,0,0,1-2.092-2.727l-.013-.058a.8.8,0,0,0-.078-.271.261.261,0,0,0-.179-.108.546.546,0,0,0-.407.1,1.679,1.679,0,0,0-.474.838.3.3,0,0,1-.383.191.3.3,0,0,1-.19-.381,2.225,2.225,0,0,1,.68-1.127,1.161,1.161,0,0,1,.881-.212.85.85,0,0,1,.581.381,1.267,1.267,0,0,1,.161.48l.011.053a3.327,3.327,0,0,0,1.767,2.3.3.3,0,0,1,.136.4.3.3,0,0,1-.27.168" fill="#b6ba98"/>
        <path id="Path_12106" data-name="Path 12106" d="M328.625,171.412a.3.3,0,0,1-.083-.012.3.3,0,0,1-.209-.371,2.55,2.55,0,0,0-.972-2.716c-.07-.049-.142-.1-.214-.141a1.868,1.868,0,0,1-.983-2.123,4.429,4.429,0,0,0-.019-.736,4.025,4.025,0,0,0-1.8-2.288.3.3,0,1,1,.369-.476,4.487,4.487,0,0,1,2.027,2.678,4.8,4.8,0,0,1,.025.837,1.883,1.883,0,0,0,.219,1.225,1.957,1.957,0,0,0,.48.373c.08.051.163.1.241.157a3.17,3.17,0,0,1,1.207,3.374.3.3,0,0,1-.289.219" fill="#b6ba98"/>
        <path id="Path_12107" data-name="Path 12107" d="M334.109,183.7l-.035,0a.3.3,0,0,1-.262-.336,2.5,2.5,0,0,0-.662-2.718,3.2,3.2,0,0,1-.685-.964,3.445,3.445,0,0,1-.182-1.108,1.754,1.754,0,0,0-.295-1.133,1.8,1.8,0,0,0-.835-.4,4.928,4.928,0,0,1-.541-.184,2.509,2.509,0,0,1-1.5-2.224.3.3,0,0,1,.294-.306h.006a.3.3,0,0,1,.3.3,1.923,1.923,0,0,0,1.133,1.682,4.38,4.38,0,0,0,.474.159,2.324,2.324,0,0,1,1.109.571,2.261,2.261,0,0,1,.452,1.509,2.872,2.872,0,0,0,.139.917,2.717,2.717,0,0,0,.568.778,4.075,4.075,0,0,1,.587.748,4.028,4.028,0,0,1,.23,2.453.3.3,0,0,1-.3.264" fill="#b6ba98"/>
        <path id="Path_12108" data-name="Path 12108" d="M334.13,197.505a.3.3,0,0,1-.054-.6,2.1,2.1,0,0,0,1.594-2.465,4.764,4.764,0,0,0-.158-.467,1.991,1.991,0,0,1,.276-2.286,1.6,1.6,0,0,0-.185-2.348c-.139-.207-.284-.42-.4-.641a3.651,3.651,0,0,1-.388-2.36.3.3,0,0,1,.351-.245.3.3,0,0,1,.243.349,3.066,3.066,0,0,0,.322,1.969,6.943,6.943,0,0,0,.375.593,2.158,2.158,0,0,1,.187,3.017,1.427,1.427,0,0,0-.214,1.741,5.206,5.206,0,0,1,.176.529,2.7,2.7,0,0,1-2.072,3.207.293.293,0,0,1-.051.005" fill="#b6ba98"/>
        <path id="Path_12109" data-name="Path 12109" d="M326.643,202.389a.289.289,0,0,1-.155-.044.3.3,0,0,1-.1-.413,3.986,3.986,0,0,1,2.737-1.5,9.131,9.131,0,0,0,1.4-.423,5.106,5.106,0,0,0,1.941-1.6.3.3,0,1,1,.474.37,5.668,5.668,0,0,1-2.177,1.784,9.495,9.495,0,0,1-1.489.456,3.512,3.512,0,0,0-2.367,1.228.3.3,0,0,1-.257.145" fill="#b6ba98"/>
        <path id="Path_12110" data-name="Path 12110" d="M322.83,233.751a.3.3,0,0,1-.3-.277c-.466-5.779-.394-11.268-.316-17.08.046-3.289.091-6.691.038-10.236a.3.3,0,0,1,.294-.306.3.3,0,0,1,.308.3c.054,3.554.008,6.96-.037,10.254-.078,5.8-.15,11.272.313,17.022a.3.3,0,0,1-.276.325h-.024" fill="#b6ba98"/>
        <path id="Path_12111" data-name="Path 12111" d="M324.932,234.537a.3.3,0,0,1-.3-.292c-.15-4.76-.2-9.8-.252-14.67s-.1-9.91-.254-14.667a.3.3,0,0,1,.292-.31.31.31,0,0,1,.311.291c.152,4.763.2,9.8.254,14.68s.1,9.9.252,14.657a.3.3,0,0,1-.292.311h-.011" fill="#b6ba98"/>
        <path id="Path_12112" data-name="Path 12112" d="M378.64,198.329a4.5,4.5,0,0,1-1.556-.273c-.1-.035-.19-.074-.286-.112a1.844,1.844,0,0,0-1.4-.16l-.2.034c-3.109.5-5.934-1.694-7.358-4.1l-.088-.148a3.084,3.084,0,0,0-.659-.881,3.04,3.04,0,0,0-.8-.408c-.1-.038-.193-.077-.287-.117a5.8,5.8,0,0,1-2.83-2.647.3.3,0,0,1,.538-.274,5.18,5.18,0,0,0,2.528,2.367c.091.039.182.075.273.111a2.772,2.772,0,0,1,1.754,1.546l.086.144c1.32,2.227,3.917,4.268,6.745,3.809l.185-.032a3.059,3.059,0,0,1,.8-.072,3.092,3.092,0,0,1,.932.267c.089.036.177.072.265.1a4,4,0,0,0,3.174-.2.3.3,0,1,1,.275.534,4.556,4.556,0,0,1-2.1.5" fill="#b6ba98"/>
        <path id="Path_12113" data-name="Path 12113" d="M384.523,198.421a1.688,1.688,0,0,1-1.417-.628.3.3,0,0,1,.485-.357,1.515,1.515,0,0,0,1.655.265c.233-.076.458-.173.7-.276a3.752,3.752,0,0,1,1.966-.46,2.992,2.992,0,0,0,2.49-1.113.3.3,0,0,1,.383.466,4.638,4.638,0,0,1-2.279,1.227,4.5,4.5,0,0,1-.6.022,4.615,4.615,0,0,0-.49.014,4.361,4.361,0,0,0-1.231.4c-.241.1-.49.211-.748.295a2.961,2.961,0,0,1-.91.148" fill="#b6ba98"/>
        <path id="Path_12114" data-name="Path 12114" d="M361.878,186.347a.305.305,0,0,1-.25-.129c-.712-1.019-.793-1.926-.217-2.426a1.825,1.825,0,0,1,.562-.3,2.207,2.207,0,0,0,.271-.116.986.986,0,0,0,.452-1.122.3.3,0,0,1,.576-.182,1.594,1.594,0,0,1-.744,1.835,2.848,2.848,0,0,1-.34.148,1.28,1.28,0,0,0-.381.191c-.487.421.177,1.428.316,1.625a.3.3,0,0,1-.245.474" fill="#b6ba98"/>
        <path id="Path_12115" data-name="Path 12115" d="M360.078,178.573a2.5,2.5,0,0,1-1.706-.861c-.115-.115-.227-.236-.337-.358a3.506,3.506,0,0,0-1.1-.917,3.57,3.57,0,0,0-.487-.156,1.839,1.839,0,0,1-1.406-.973,2.144,2.144,0,0,0-1.114-.946,3.281,3.281,0,0,1-1.151-.89,3.239,3.239,0,0,1-.394-2.137,3.477,3.477,0,0,0-.163-1.6,3.317,3.317,0,0,0-1.452-1.283,8.812,8.812,0,0,1-.883-.579,4.289,4.289,0,0,1-1.361-4.775.3.3,0,0,1,.389-.178.3.3,0,0,1,.176.388,3.719,3.719,0,0,0,1.165,4.09,8.459,8.459,0,0,0,.822.537,3.788,3.788,0,0,1,1.69,1.548,3.994,3.994,0,0,1,.22,1.882,1.986,1.986,0,0,0,1.237,2.474,3.524,3.524,0,0,1,1.1.816,3.574,3.574,0,0,1,.23.335,1.958,1.958,0,0,0,.294.391,1.867,1.867,0,0,0,.758.323,3.1,3.1,0,0,1,1.875,1.247c.107.115.214.231.324.341.31.313.921.814,1.515.651a.3.3,0,0,1,.161.581,1.477,1.477,0,0,1-.4.053" fill="#b6ba98"/>
        <path id="Path_12116" data-name="Path 12116" d="M349.477,160.7a.3.3,0,0,1-.257-.142c-.412-.66.166-1.306.586-1.777l.121-.136a2.552,2.552,0,0,0,.506-2.39,6.113,6.113,0,0,0-.479-1.03,3.174,3.174,0,0,1-.579-2.206c.014-.065.032-.129.051-.193a1.456,1.456,0,0,0,.059-.274,1.379,1.379,0,0,0-.1-.448c-.03-.089-.059-.179-.083-.269a2.056,2.056,0,0,1,.316-1.684.3.3,0,0,1,.49.351,1.451,1.451,0,0,0-.222,1.184c.018.077.045.152.069.227a1.43,1.43,0,0,1,.048,1.077c-.016.053-.029.1-.04.158a2.715,2.715,0,0,0,.517,1.79,6.279,6.279,0,0,1,.525,1.138,3.151,3.151,0,0,1-.627,2.965l-.123.141c-.4.442-.685.8-.525,1.057a.3.3,0,0,1-.1.415.293.293,0,0,1-.158.046" fill="#b6ba98"/>
        <path id="Path_12117" data-name="Path 12117" d="M348.5,146.526h-.021a.3.3,0,0,1-.282-.32c.054-.822-.653-1.5-1.338-2.156l-.166-.16c-.873-.844-1.567-2.106-.895-3.117a2.788,2.788,0,0,1,.562-.579,1.568,1.568,0,0,0,.52-.6c.139-.417-.179-.9-.549-1.393-.75-1.01-.627-1.663-.391-2.031a2.008,2.008,0,0,1,.233-.281,1.1,1.1,0,0,0,.177-.218,1.2,1.2,0,0,0,0-.735,4.87,4.87,0,0,1-.008-2.192,2.294,2.294,0,0,1,1.564-1.648.3.3,0,1,1,.142.585,1.687,1.687,0,0,0-1.125,1.226,4.308,4.308,0,0,0,.019,1.908,1.713,1.713,0,0,1-.056,1.139,1.676,1.676,0,0,1-.274.35,1.525,1.525,0,0,0-.16.19c-.257.4.12,1.016.367,1.348a2.221,2.221,0,0,1,.632,1.946,2.035,2.035,0,0,1-.7.867,2.435,2.435,0,0,0-.45.453c-.469.7.144,1.707.811,2.351l.164.158c.749.716,1.6,1.528,1.526,2.63a.3.3,0,0,1-.3.282" fill="#b6ba98"/>
        <path id="Path_12118" data-name="Path 12118" d="M348.738,129.124a.3.3,0,0,1-.225-.5,2.445,2.445,0,0,0,.372-1.579c.006-.139.008-.277.016-.412a6.033,6.033,0,0,1,1.752-3.9c.147-.145.3-.283.455-.421a4.352,4.352,0,0,0,.929-1.021,4.3,4.3,0,0,0,.41-1.693,7.217,7.217,0,0,1,.243-1.374A4.733,4.733,0,0,1,355.3,115.5a13.4,13.4,0,0,1,3.585-.924.3.3,0,1,1,.094.594,12.992,12.992,0,0,0-3.425.876,4.147,4.147,0,0,0-2.29,2.357,6.582,6.582,0,0,0-.216,1.257,3.728,3.728,0,0,1-1.538,3.1c-.147.131-.294.262-.431.4a5.422,5.422,0,0,0-1.577,3.506c-.005.13-.011.262-.013.395a2.949,2.949,0,0,1-.525,1.962.3.3,0,0,1-.225.1" fill="#b6ba98"/>
        <path id="Path_12119" data-name="Path 12119" d="M361.6,112.64a.3.3,0,0,1-.169-.551,3.431,3.431,0,0,0,.94-1.235c.378-.681.771-1.385,1.577-1.593a2.814,2.814,0,0,1,.654-.068c.1,0,.193,0,.289-.012a2.292,2.292,0,0,0,2.024-2.035.3.3,0,1,1,.6.047,2.913,2.913,0,0,1-2.576,2.588c-.107.009-.214.012-.321.014a2.419,2.419,0,0,0-.52.049c-.557.143-.857.681-1.2,1.3a3.889,3.889,0,0,1-1.127,1.442.3.3,0,0,1-.169.051" fill="#b6ba98"/>
        <path id="Path_12120" data-name="Path 12120" d="M368.288,105.89a.319.319,0,0,1-.059-.006.3.3,0,0,1-.235-.354,12.5,12.5,0,0,1,.806-2.839,4.4,4.4,0,0,1,2.067-2.223,6.862,6.862,0,0,1,.889-.315,1.919,1.919,0,0,0,1.818-1.9c.029-.156.062-.312.1-.465.172-.691.63-1.45,1.4-1.51a.3.3,0,0,1,.048.6c-.458.035-.753.589-.865,1.053-.035.143-.064.289-.091.436a3.179,3.179,0,0,1-.514,1.4,3.145,3.145,0,0,1-1.722.953,6.378,6.378,0,0,0-.812.287,3.816,3.816,0,0,0-1.772,1.927,12,12,0,0,0-.761,2.705.3.3,0,0,1-.3.242" fill="#b6ba98"/>
        <path id="Path_12121" data-name="Path 12121" d="M378.124,95.152a.3.3,0,0,1-.287-.21,1.285,1.285,0,0,1,.1-.99,1.948,1.948,0,0,1,1.112-.915,4.544,4.544,0,0,1,1.654-.109c.158.009.314.018.469.022a6.692,6.692,0,0,0,4.266-1.4l.126-.1a3.087,3.087,0,0,1,.765-.489,2.991,2.991,0,0,1,2.234.262,5.27,5.27,0,0,0,1.163.351.3.3,0,0,1,.259.337.3.3,0,0,1-.338.26,5.659,5.659,0,0,1-1.3-.386,2.527,2.527,0,0,0-1.795-.264,2.6,2.6,0,0,0-.614.4l-.13.1a7.335,7.335,0,0,1-4.649,1.528c-.164,0-.327-.014-.488-.023a4.06,4.06,0,0,0-1.443.083,1.332,1.332,0,0,0-.755.617.675.675,0,0,0-.064.531.3.3,0,0,1-.2.378.318.318,0,0,1-.09.014" fill="#b6ba98"/>
        <path id="Path_12122" data-name="Path 12122" d="M384.1,225.588a.3.3,0,0,1-.3-.281l-1.748-25.87a.3.3,0,0,1,.278-.32.294.294,0,0,1,.321.28l1.749,25.869a.3.3,0,0,1-.279.321H384.1" fill="#b6ba98"/>
        <path id="Path_12123" data-name="Path 12123" d="M384.207,244.886a.3.3,0,0,1-.3-.3l-.228-17.881a.3.3,0,0,1,.3-.305h0a.3.3,0,0,1,.3.3l.228,17.881a.3.3,0,0,1-.3.305Z" fill="#b6ba98"/>
        <path id="Path_12124" data-name="Path 12124" d="M386.837,245.521a.3.3,0,0,1-.3-.241,57.346,57.346,0,0,1-.623-13.071c.024-.82.048-1.638.064-2.455.206-9.909-.592-19.956-1.363-29.672a.3.3,0,0,1,.276-.324.3.3,0,0,1,.324.276c.774,9.731,1.571,19.793,1.365,29.732-.016.819-.04,1.639-.064,2.46a56.8,56.8,0,0,0,.611,12.934.3.3,0,0,1-.236.355.3.3,0,0,1-.059.006" fill="#b6ba98"/>
        <path id="Path_12125" data-name="Path 12125" d="M321.135,236.735a.3.3,0,0,1-.019-.6c.929-.058,1.671-.115,2.311-.165,1.186-.092,2.043-.155,3.088-.149,2.035.021,3.936-.01,5.773-.039s3.752-.06,5.792-.04a.3.3,0,0,1,0,.6h0c-2.032-.021-3.934.01-5.773.04s-3.749.06-5.79.04c-1.023-.012-1.866.055-3.036.146-.643.05-1.387.108-2.319.166h-.019" fill="#b6ba98"/>
        <path id="Path_12126" data-name="Path 12126" d="M309.155,234.171a.3.3,0,0,1-.075-.593c.155-.039.3-.077.437-.113a8.424,8.424,0,0,1,3.047-.364,27.026,27.026,0,0,0,4.793-.236c1.111-.127,2.375-.271,4.07-.352a.3.3,0,0,1,.027.6c-1.674.08-2.927.223-4.03.348a27.327,27.327,0,0,1-4.89.24,7.9,7.9,0,0,0-2.868.345l-.436.114a.321.321,0,0,1-.075.009" fill="#b6ba98"/>
        <path id="Path_12127" data-name="Path 12127" d="M336.139,234.953a.269.269,0,0,1-.07-.009c-2.128-.518-4.056-.81-6.1-1.121-.552-.083-1.111-.169-1.687-.26l-2.016-.32a.3.3,0,0,1,.1-.594l2.014.319c.575.092,1.132.176,1.684.26,2.054.312,3.993.607,6.148,1.131a.3.3,0,0,1-.072.594" fill="#b6ba98"/>
        <path id="Path_12128" data-name="Path 12128" d="M320.043,236.426a.315.315,0,0,1-.151-.039,3.833,3.833,0,0,0-1.331-.366l-6.286-.956a.3.3,0,1,1,.091-.6l6.286.956a4.353,4.353,0,0,1,1.537.438.3.3,0,0,1,.113.411.3.3,0,0,1-.259.152" fill="#b6ba98"/>
        <path id="Path_12129" data-name="Path 12129" d="M366.323,244.441a.3.3,0,0,1,0-.6,13.112,13.112,0,0,0,2.129-.154,5.6,5.6,0,0,1,1.36-.074,86.513,86.513,0,0,0,13.049-.1.3.3,0,1,1,.051.6,87.1,87.1,0,0,1-13.143.1,4.921,4.921,0,0,0-1.229.069,13.7,13.7,0,0,1-2.214.161Z" fill="#b6ba98"/>
        <path id="Path_12130" data-name="Path 12130" d="M389.322,248.15a.306.306,0,0,1-.067-.008,94.3,94.3,0,0,0-12.537-2.03c-1.494-.139-3.021-.245-4.5-.347l-3.548-.245a.3.3,0,0,1-.279-.321.3.3,0,0,1,.322-.279l3.545.245c1.481.1,3.01.207,4.512.347a95.111,95.111,0,0,1,12.618,2.043.3.3,0,0,1-.07.6" fill="#b6ba98"/>
        <path id="Path_12131" data-name="Path 12131" d="M389.791,243.9h-.027a16.355,16.355,0,0,0-2.311-.047.3.3,0,0,1-.032-.6,17.116,17.116,0,0,1,2.4.049.3.3,0,0,1-.027.6" fill="#b6ba98"/>
        <path id="Path_12132" data-name="Path 12132" d="M29.809,221.639H29.8l-5.783-.2a.3.3,0,0,1-.291-.311.305.305,0,0,1,.312-.291l5.782.2a.3.3,0,0,1-.01.6" fill="#b6ba98"/>
        <path id="Path_12133" data-name="Path 12133" d="M32.765,219.972a.3.3,0,0,1-.051-.6,28.476,28.476,0,0,1,5.208-.254c.683.009,1.388.018,2.078.007,2.143-.037,4.33-.276,6.444-.508a41.586,41.586,0,0,1,10.916-.233.3.3,0,0,1,.252.343.3.3,0,0,1-.345.252,41.191,41.191,0,0,0-10.757.236c-2.128.234-4.329.475-6.5.512-.7.012-1.409,0-2.1-.006a28.033,28.033,0,0,0-5.1.244.315.315,0,0,1-.052.005" fill="#b6ba98"/>
        <path id="Path_12134" data-name="Path 12134" d="M36.376,217.688a.3.3,0,0,1-.3-.3V206.131a.3.3,0,0,1,.6,0v11.256a.3.3,0,0,1-.3.3" fill="#b6ba98"/>
        <path id="Path_12135" data-name="Path 12135" d="M54.2,205.345h-.02c-5.486-.359-11.054-.533-16.548-.507h0a.3.3,0,0,1,0-.6c5.511-.021,11.09.148,16.591.508a.3.3,0,0,1-.02.6" fill="#b6ba98"/>
        <path id="Path_12136" data-name="Path 12136" d="M56.741,215.965H56.73a.3.3,0,0,1-.291-.311,85.594,85.594,0,0,0-.266-10.116.3.3,0,0,1,.6-.051,86.36,86.36,0,0,1,.269,10.187.3.3,0,0,1-.3.291" fill="#b6ba98"/>
        <path id="Path_12137" data-name="Path 12137" d="M48.172,198.194a.3.3,0,0,1-.257-.144A1.749,1.749,0,0,0,46,197.3c-.071.021-.143.046-.215.07a1.606,1.606,0,0,1-.844.126,1.624,1.624,0,0,1-.671-.347l-.11-.081a2.684,2.684,0,0,0-2.762-.154.3.3,0,0,1-.292-.527,3.261,3.261,0,0,1,3.4.19c.041.029.081.059.121.089a.751.751,0,0,0,.96.135c.082-.029.165-.057.247-.08a2.368,2.368,0,0,1,2.591,1.015.3.3,0,0,1-.257.458" fill="#b6ba98"/>
        <path id="Path_12138" data-name="Path 12138" d="M54.283,202.962a.3.3,0,0,1-.116-.023.3.3,0,0,1-.163-.393,1.506,1.506,0,0,0-.712-1.863c-.056-.026-.113-.05-.172-.073a1.681,1.681,0,0,1-.534-.308,1.635,1.635,0,0,1-.385-.7,2.588,2.588,0,0,0-.112-.286,1.106,1.106,0,0,0-1.353-.518.3.3,0,1,1-.228-.558,1.715,1.715,0,0,1,2.123.811,3.408,3.408,0,0,1,.139.354,1.131,1.131,0,0,0,.23.457,1.2,1.2,0,0,0,.35.189c.068.028.136.056.2.087a2.105,2.105,0,0,1,1.01,2.636.3.3,0,0,1-.278.186" fill="#b6ba98"/>
        <path id="Path_12139" data-name="Path 12139" d="M65.746,218.847a.3.3,0,0,1-.05-.6,77.728,77.728,0,0,1,14.543-.623l18.512.369a.3.3,0,0,1,0,.6h-.007l-18.512-.369a77.264,77.264,0,0,0-14.43.615.293.293,0,0,1-.051,0" fill="#b6ba98"/>
        <path id="Path_12140" data-name="Path 12140" d="M21.213,221.281H21.2l-10.313-.42a.3.3,0,0,1-.288-.313.308.308,0,0,1,.313-.289l10.313.42a.3.3,0,0,1-.012.6" fill="#b6ba98"/>
        <path id="Path_12141" data-name="Path 12141" d="M25.122,218.363h0l-12.508-.2a.3.3,0,0,1,.01-.6l12.508.2a.3.3,0,0,1-.005.6" fill="#b6ba98"/>
        <path id="Path_12142" data-name="Path 12142" d="M35.932,237.3a.3.3,0,0,1-.1-.586l7.342-2.518a.3.3,0,0,1,.195.57l-7.341,2.518a.309.309,0,0,1-.1.016" fill="#b6ba98"/>
        <path id="Path_12143" data-name="Path 12143" d="M44.492,234.65a.3.3,0,0,1-.05-.6,63.989,63.989,0,0,1,11.322-.86.3.3,0,0,1,.3.3.3.3,0,0,1-.306.3,63.136,63.136,0,0,0-11.214.852.3.3,0,0,1-.05,0" fill="#b6ba98"/>
        <path id="Path_12144" data-name="Path 12144" d="M80.609,235.455a.3.3,0,0,1-.021-.6.63.63,0,0,0,.076-.01c-5.708-.354-11.592-.713-17.405-.918a.3.3,0,0,1,.022-.6c6.061.213,12.195.594,18.128.963a.3.3,0,0,1,.261.413,1.238,1.238,0,0,1-1.04.755h-.021" fill="#b6ba98"/>
        <path id="Path_12145" data-name="Path 12145" d="M67.954,239.412H67.93c-9.829-.789-19.815-1.205-29.679-1.236a.3.3,0,0,1,0-.6h0c9.879.031,19.88.448,29.725,1.239a.3.3,0,0,1-.024.6" fill="#b6ba98"/>
        <path id="Path_12146" data-name="Path 12146" d="M69.973,239.538a.3.3,0,0,1-.1-.585l9.09-3.217a.3.3,0,0,1,.2.568l-9.091,3.217a.292.292,0,0,1-.1.017" fill="#b6ba98"/>
        <path id="Path_12147" data-name="Path 12147" d="M287.491,226.066a.3.3,0,0,1-.032-.6l4.29-.474a.3.3,0,0,1,.067.6l-4.29.474-.035,0" fill="#b6ba98"/>
        <path id="Path_12148" data-name="Path 12148" d="M319.895,227.294l-.035,0a171.7,171.7,0,0,0-23.562-1.069h-.005a.3.3,0,0,1-.008-.6,172.109,172.109,0,0,1,23.642,1.073.3.3,0,0,1-.032.6" fill="#b6ba98"/>
        <path id="Path_12149" data-name="Path 12149" d="M380.48,236.332a.334.334,0,0,1-.062-.006c-12.73-2.574-27.3-4.173-40.147-5.584-3.739-.41-7.273-.8-10.7-1.2a.3.3,0,0,1,.073-.6c3.427.4,6.957.79,10.7,1.2,12.865,1.412,27.442,3.013,40.2,5.593a.3.3,0,0,1-.059.6" fill="#b6ba98"/>
        <path id="Path_12150" data-name="Path 12150" d="M391.223,237.382a.32.32,0,0,1-.075-.009,7.261,7.261,0,0,0-2.683-.169.3.3,0,1,1-.075-.6,7.872,7.872,0,0,1,2.908.182.3.3,0,0,1-.075.593" fill="#b6ba98"/>
        <path id="Path_12151" data-name="Path 12151" d="M300.781,188.562a.3.3,0,0,1-.07-.594,16,16,0,0,1,5.707-.3.3.3,0,1,1-.075.6,15.4,15.4,0,0,0-5.492.286.358.358,0,0,1-.07.008" fill="#b6ba98"/>
        <path id="Path_12152" data-name="Path 12152" d="M337.732,190.286a.3.3,0,0,1-.035-.6,178.6,178.6,0,0,1,22.611-.559.3.3,0,0,1,.284.318.3.3,0,0,1-.318.283,177.877,177.877,0,0,0-22.507.556l-.035,0" fill="#b6ba98"/>
        <path id="Path_12153" data-name="Path 12153" d="M335.159,174.258a.3.3,0,0,1-.185-.539,35.884,35.884,0,0,1,7.854-4.639.3.3,0,1,1,.238.553,35.284,35.284,0,0,0-7.722,4.562.311.311,0,0,1-.185.063" fill="#b6ba98"/>
        <path id="Path_12154" data-name="Path 12154" d="M350.21,170.8a.3.3,0,0,1-.139-.035,12.37,12.37,0,0,0-4.427-1.333.3.3,0,0,1,.062-.6,12.992,12.992,0,0,1,4.646,1.4.3.3,0,0,1-.142.568" fill="#b6ba98"/>
        <path id="Path_12155" data-name="Path 12155" d="M336.224,177.642a.3.3,0,0,1-.07-.594,61.709,61.709,0,0,1,15.553-1.629.3.3,0,0,1,.294.308.293.293,0,0,1-.307.294,61.309,61.309,0,0,0-15.4,1.613.358.358,0,0,1-.07.008" fill="#b6ba98"/>
        <path id="Path_12156" data-name="Path 12156" d="M298.612,175.968a.3.3,0,0,1-.04-.6c3.524-.481,7.1-.934,10.636-1.345a1.394,1.394,0,0,1,1.063.254.632.632,0,0,1,.206.506.3.3,0,0,1-.6-.028.034.034,0,0,0-.014-.037.881.881,0,0,0-.583-.1c-3.532.411-7.107.863-10.626,1.344a.27.27,0,0,1-.04,0" fill="#b6ba98"/>
        <path id="Path_12157" data-name="Path 12157" d="M346.761,185a.3.3,0,0,1-.3-.3v-4.081a.3.3,0,0,1,.6,0V184.7a.3.3,0,0,1-.3.3" fill="#b6ba98"/>
        <path id="Path_12158" data-name="Path 12158" d="M349.179,186.283a.3.3,0,0,1-.3-.274l-.56-6.147a.769.769,0,0,0-.214-.51.3.3,0,1,1-.222-.557.6.6,0,0,1,.544.047,1.324,1.324,0,0,1,.492.965l.56,6.147a.3.3,0,0,1-.273.328h-.027" fill="#b6ba98"/>
        <path id="Path_12159" data-name="Path 12159" d="M352.537,184.146a.3.3,0,0,1-.3-.282l-.254-4.078a.3.3,0,0,1,.281-.32.3.3,0,0,1,.321.282l.255,4.078a.3.3,0,0,1-.284.319h-.019" fill="#b6ba98"/>
        <path id="Path_12160" data-name="Path 12160" d="M354.915,185.637a.3.3,0,0,1-.3-.27L354.1,180.4a2.014,2.014,0,0,0-.321-1.1.617.617,0,0,0-.461-.216.294.294,0,0,0-.235.1.3.3,0,0,1-.466-.383.89.89,0,0,1,.7-.314,1.23,1.23,0,0,1,.927.434,2.6,2.6,0,0,1,.455,1.417l.517,4.966a.3.3,0,0,1-.268.331l-.032,0" fill="#b6ba98"/>
        <path id="Path_12161" data-name="Path 12161" d="M303.384,185.433a.3.3,0,0,1-.3-.266l-.506-4.286a.3.3,0,1,1,.6-.07l.509,4.285a.3.3,0,0,1-.265.335l-.035,0" fill="#b6ba98"/>
        <path id="Path_12162" data-name="Path 12162" d="M305.574,186.533a.3.3,0,0,1-.3-.273l-.6-6.355a.8.8,0,0,0-.217-.483.3.3,0,0,1-.4-.07.3.3,0,0,1,.054-.42.559.559,0,0,1,.575-.072,1.263,1.263,0,0,1,.6.989l.6,6.354a.3.3,0,0,1-.271.329h-.029" fill="#b6ba98"/>
        <path id="Path_12163" data-name="Path 12163" d="M188.783,161.243a.291.291,0,0,1-.108-.02,30.86,30.86,0,0,0-8.216-1.937.3.3,0,1,1,.057-.6,31.52,31.52,0,0,1,8.376,1.975.3.3,0,0,1-.109.582" fill="#b6ba98"/>
        <path id="Path_12164" data-name="Path 12164" d="M189.425,163.95a.288.288,0,0,1-.115-.023,28.4,28.4,0,0,0-9.46-2.138.3.3,0,0,1-.285-.316.3.3,0,0,1,.316-.286,29.011,29.011,0,0,1,9.659,2.184.3.3,0,0,1-.115.579" fill="#b6ba98"/>
        <path id="Path_12165" data-name="Path 12165" d="M179.251,188.063a.3.3,0,0,1-.024-.6,125.29,125.29,0,0,1,13.257-.353.3.3,0,0,1,.293.309.3.3,0,0,1-.309.293,124.623,124.623,0,0,0-13.193.352h-.024" fill="#b6ba98"/>
        <path id="Path_12166" data-name="Path 12166" d="M181.09,215.081h0a.3.3,0,0,1-.3-.3l.009-10.133a.883.883,0,0,0-.1-.52c-.115-.141-.387-.158-.664-.152l-3.244.048a.306.306,0,0,1-.306-.3.3.3,0,0,1,.3-.306l3.244-.048a1.394,1.394,0,0,1,1.139.372,1.376,1.376,0,0,1,.233.9l-.009,10.133a.3.3,0,0,1-.3.3" fill="#b6ba98"/>
        <path id="Path_12167" data-name="Path 12167" d="M102.9,153.58q-.047-.733-.093-1.472.927-.982,1.85-1.965a1.377,1.377,0,0,1,.356-.3,1.457,1.457,0,0,1,.624-.116,14.172,14.172,0,0,0,2.765-.39l.339.08c-.808,3.445-3.121,6.324-4.723,9.49l-.028-.014-.714-1.172.195-.119a3.8,3.8,0,0,0-1.373-1.511,9.993,9.993,0,0,0,.449-1.113,9.57,9.57,0,0,0,.353-1.4" fill="#fffbfa"/>
        <path id="Path_12168" data-name="Path 12168" d="M221.189,68.26l-6.669,1.568a16.59,16.59,0,0,1-3.847.593,7.405,7.405,0,0,1-1.932-.37q.156.771.378,1.525l-.025.008a68.386,68.386,0,0,1,2.361,21.668l-.175.305-3.042-1.731a12.908,12.908,0,0,0-10.191-1.269,19.186,19.186,0,0,0-8.8,5.613,15.06,15.06,0,0,0-2.635,3.762c-.062-.164-.122-.33-.178-.494a115.656,115.656,0,0,1,5.508-41.977c-.1-.1-.057-.285.008-.423a8.4,8.4,0,0,1,3.74-3.946L195.643,53a20.475,20.475,0,0,1,5.85-1.613q9.584-1.611,19.168-3.218a92.2,92.2,0,0,1,13.671-1.6c2.706-.045,5.406.144,8.106.336l22.216,1.571,2.59-.037c5.225.136,10.353-1.311,15.569-1.63a73.232,73.232,0,0,1,9.177.212q2.378.157,4.753.311a1.924,1.924,0,0,1,1.1-.006,8.2,8.2,0,0,1,4.17,1.952,17.365,17.365,0,0,1,3.43,2.339,7.725,7.725,0,0,1,2.8,5.471,1.709,1.709,0,0,1-.581,1.474,1.585,1.585,0,0,1-1.633-.034,2.477,2.477,0,0,1-.348-.237l-.263.17a112.167,112.167,0,0,1-4.71,53.1c-.262.286-.522.568-.782.853a46.458,46.458,0,0,0-4.547-12.2,22.589,22.589,0,0,0-6.448-7.867,11.506,11.506,0,0,0-8.965-2.1,8.455,8.455,0,0,1,.166-1.187q.828-2.067,1.709-4.115l-.391-.169c.259-.678.519-1.359.782-2.037-1.7.517-3.449.89-5.163,1.347a52.133,52.133,0,0,0-12.258,5q-.961.542-1.9,1.129a51.245,51.245,0,0,0-5.144,3.647l-.285-.065a4.287,4.287,0,0,0-.311,1,7.015,7.015,0,0,0-.11,1.5l.455-.008c.13,1.132.3,2.505.452,3.932a48.842,48.842,0,0,1,.367,6.318,19.886,19.886,0,0,1-.664,4.94,16.523,16.523,0,0,1-.746,1.981c-.562,1.293-1.223,2.553-1.7,3.883-.7,1.946-.986,4.014-1.531,6.005a2.866,2.866,0,0,1-1.466,2.127,2.262,2.262,0,0,1-2.006-.44c-1.889-1.345-2.4-3.955-2.211-6.262.152-1.879.663-3.729.825-5.6l-.275-.022a2.651,2.651,0,0,0-.341-1.356c-3.119,3.35-7.754,5.149-11.759,7.55-4.96,2.971-9.157,7.05-13.928,10.318a5.3,5.3,0,0,1-2.189,1.028,1.946,1.946,0,0,1-2.062-.966,2.29,2.29,0,0,1,.361-2.079,18.053,18.053,0,0,1-2,1.469,8.339,8.339,0,0,1-2.838.523,2.109,2.109,0,0,1-1.269-.3,1.653,1.653,0,0,1-.407-1.915,4.916,4.916,0,0,1,1.283-1.652,4.016,4.016,0,0,1-1.455-.847l.2-.088a1.765,1.765,0,0,1-.613-1.268,4.233,4.233,0,0,1,.9-2.288q1.974-3.025,4.189-5.89c.1-.135.2-.268.311-.4l-.294-.229A1.928,1.928,0,0,1,215,112.795a3.552,3.552,0,0,1,.726-1.7c.517-.774,1.059-1.525,1.633-2.26a38.493,38.493,0,0,1,8.883-8.27q1.542-1.04,3.181-1.918l1.745-1.3.865-.754c3.471-3.019,7.087-5.985,11.38-7.567l.045.124c.4.062.74-.282.992-.6q.469-.594.9-1.212l-.073-.051c.805-2.4,2.621-4.293,4.432-6.056a141.805,141.805,0,0,1,25.2-19.535l-.032-.082a7.983,7.983,0,0,1-2.024.492,8.078,8.078,0,0,1-3.714-.765,19.66,19.66,0,0,1-3.586-1.958,8.464,8.464,0,0,0-4.5-.068c-.862.1-1.721.243-2.568.421v.006a3.588,3.588,0,0,0-1.491.754c-.322-.353-.628-.695-.907-.983a14.552,14.552,0,0,0-11.4-4.279h-.006a7.073,7.073,0,0,0-4.875.728c-5.214-1.194-10,4.009-12.31,7.816a21.244,21.244,0,0,1-2.409,3.836c-.122.028-.246.059-.37.09l-1.763.432a3.673,3.673,0,0,1-1.763.136Z" fill="#fffbfa"/>
        <path id="Path_12169" data-name="Path 12169" d="M198.521,209.908a34.235,34.235,0,0,1-1.35-11.027c.254-6.822-1.605-13.53-2.585-20.23q-1.788-12.177-4.07-24.272c-.477-1.83-.587-3.794-1.045-5.652l.33-.082q-2.113-8.495-4.236-16.984a42.273,42.273,0,0,1-1.413-7.655c-.333-5.734,1.689-11.409,1.523-17.137v-.011a7.809,7.809,0,0,1,.161-4.361,8.717,8.717,0,0,1,.777-2.565,15,15,0,0,1,2.635-3.763,19.189,19.189,0,0,1,8.8-5.612,12.914,12.914,0,0,1,10.192,1.268l3.042,1.732.4.228c.364,1.981.808,6.175,1.181,8.336a51.147,51.147,0,0,1,3.883,5.18l-.152.1c.251.48.508.955.762,1.435q-.859,1.1-1.632,2.259a3.565,3.565,0,0,0-.726,1.7,1.926,1.926,0,0,0,1.666,1.96l.294.229c-.107.133-.209.266-.31.4q-2.213,2.86-4.19,5.89a4.231,4.231,0,0,0-.9,2.288,1.767,1.767,0,0,0,.613,1.268l-.2.087a4,4,0,0,0,1.455.848,4.906,4.906,0,0,0-1.283,1.652,1.65,1.65,0,0,0,.407,1.915,2.114,2.114,0,0,0,1.268.3,8.349,8.349,0,0,0,2.839-.523,18.147,18.147,0,0,0,2-1.469,2.293,2.293,0,0,0-.362,2.079,1.949,1.949,0,0,0,2.062.966,5.312,5.312,0,0,0,2.189-1.028c4.772-3.268,8.969-7.347,13.929-10.318,4.005-2.4,8.64-4.2,11.759-7.55a2.659,2.659,0,0,1,.341,1.355l.274.023c-.161,1.87-.671,3.72-.824,5.6-.19,2.308.321,4.918,2.211,6.263a2.264,2.264,0,0,0,2,.44,2.863,2.863,0,0,0,1.466-2.127c.546-1.991.834-4.059,1.531-6.005.475-1.33,1.136-2.59,1.7-3.884l.288.124a17.936,17.936,0,0,0,6.138.52q.873-.673,1.782-1.288a31.085,31.085,0,0,0,4.187-5c.623-.929,1.2-1.9,1.865-2.794a16.467,16.467,0,0,1,2.868-2.977,14.141,14.141,0,0,0,.051-2.017l-.043-.008a19.53,19.53,0,0,1,2.807-6.858c.16-.246.327-.486.5-.723a8.051,8.051,0,0,1,2.577-1.862c.007-.11.013-.217.021-.327a11.505,11.505,0,0,1,8.966,2.1,22.579,22.579,0,0,1,6.447,7.867,46.458,46.458,0,0,1,4.547,12.2c.1.455.193.909.276,1.367l-.425.079a10.175,10.175,0,0,1-.676,2.881,69.269,69.269,0,0,1-4.953,19.131c-1.637,3.912-3.68,7.929-3.457,12.126l-.327.014q.072,1.755.068,3.514h.015c1.347,9.341-.2,18.744-1.918,27.927-.857,4.559-1.782,9.1-2.455,13.7-.718,4.886-.774,8.976-2.327,13.651-1.411,4.26.12,8.522.49,12.827q.69,8.012,1.269,16.038,1.1,15.122,1.784,30.271l-.054,0a5.359,5.359,0,0,1-.121,1.836,2.34,2.34,0,0,1-1.5,1.667l.008.021c-.919.236-1.842.453-2.775.659-16.3,3.615-34.649,3.267-51.164,2.456-13.229-.656-27.18-1.931-38.162-9.159q-.813-.534-1.6-1.116a6.592,6.592,0,0,1,.023-1.932q.122-1.126.251-2.259l.113.011c2.336-15.9,4.906-30.89,6.008-46.877.068-.446.135-.893.206-1.336" fill="#fff"/>
        <path id="Path_12170" data-name="Path 12170" d="M193.533,264.053a.232.232,0,0,1-.045-.006c.011-.209.022-.418.036-.629,10.983,7.227,24.933,8.5,38.161,9.158,16.515.811,34.861,1.16,51.166-2.455a3.758,3.758,0,0,0,.886,1.745l.284-.1a30.11,30.11,0,0,1,1.226,10.567l-.107.016a31.659,31.659,0,0,1,.311,4.766,60.838,60.838,0,0,1,7.479,26.572H191.355a105.884,105.884,0,0,1-.209-30.639c-.014-.217-.028-.437-.039-.654a11.36,11.36,0,0,1,.005-2.174c.082-.618.266-1.218.407-1.823a14.664,14.664,0,0,0,.319-2.006l.345.029q.516-5.622,1.028-11.241a2.475,2.475,0,0,1,.271-1.054.437.437,0,0,1,.051-.073" fill="#fce1d8"/>
        <path id="Path_12171" data-name="Path 12171" d="M261.852,92.763a6.693,6.693,0,0,1,1.065-2.548c.624-.392,1.26-.768,1.9-1.13a12.455,12.455,0,0,1,.469,1.814l.214,0a11.863,11.863,0,0,1-1.706,5.073,4.271,4.271,0,0,1-1.2,1.509,1.782,1.782,0,0,1-1.342.294l.043-.221c-.376-.206-.752-.412-1.128-.615q.844-2.089,1.684-4.181" fill="#fffbfa"/>
        <path id="Path_12172" data-name="Path 12172" d="M262.917,90.215a6.708,6.708,0,0,0-1.065,2.548q-.843,2.088-1.683,4.18c-.147.368-.3.735-.444,1.1l.074.045a8.56,8.56,0,0,1-1.7,2.113l-.121.011c-.153-1.426-.322-2.8-.452-3.932l-.455.009a7.015,7.015,0,0,1,.11-1.5,4.334,4.334,0,0,1,.311-1l.285.065a51.357,51.357,0,0,1,5.144-3.647" fill="#e8d6ba"/>
        <path id="Path_12173" data-name="Path 12173" d="M225.087,67.616A21.21,21.21,0,0,0,227.5,63.78c2.308-3.807,7.1-9.01,12.31-7.815a7.068,7.068,0,0,1,4.875-.729h.006a14.549,14.549,0,0,1,11.4,4.279c.28.288.585.63.907.983a7.447,7.447,0,0,0,2.853,2.243,7.578,7.578,0,0,1,.825,2.762l.22-.025a20.974,20.974,0,0,1,.918,4.463c-.011.186-.026.373-.045.559l.121.158a140.823,140.823,0,0,0-12.174,10.576c-1.811,1.762-3.627,3.66-4.432,6.056l.074.05c-.288.413-.591.817-.9,1.212-.251.319-.591.664-.992.6l-.045-.125c-4.293,1.582-7.909,4.548-11.38,7.568a23.573,23.573,0,0,1-.873-2.523l-.085.02a15.3,15.3,0,0,0-1.031-2.847,13.394,13.394,0,0,1-2.7-5.737l-.116.023a13.359,13.359,0,0,0-1.427-2.995,12.11,12.11,0,0,1-1.064-2.994,27.216,27.216,0,0,1-.181-8.146l.1-.019a8.8,8.8,0,0,1,0-3.384,2.889,2.889,0,0,0,.44-.379" fill="#e8d6ba"/>
        <path id="Path_12174" data-name="Path 12174" d="M227.228,85.533l.116-.023a13.405,13.405,0,0,0,2.7,5.737,15.3,15.3,0,0,1,1.031,2.847l.085-.02a23.573,23.573,0,0,0,.873,2.523l-.865.754-1.745,1.3q-1.635.882-3.18,1.918v0a33.78,33.78,0,0,1-1.071-6.228h-.011a6.062,6.062,0,0,1-1.285-1.327l-.06.042a5.6,5.6,0,0,1-1.833-3.279,15.884,15.884,0,0,1,.124-3.726q.3-2.6.591-5.209a2.377,2.377,0,0,1,.568-1.553c.417-.381,1.265-.277,1.355.282l.119-.022a12.127,12.127,0,0,0,1.065,2.994,13.371,13.371,0,0,1,1.426,2.994" fill="#fffbfa"/>
        <path id="Path_12175" data-name="Path 12175" d="M104.016,158.907c1.6-3.167,3.915-6.045,4.722-9.491l-.339-.079a14.326,14.326,0,0,1-2.765.39,1.445,1.445,0,0,0-.624.116,1.373,1.373,0,0,0-.356.3q-.924.982-1.85,1.966c.031.491.062.983.093,1.472a9.444,9.444,0,0,1-.353,1.4,10.071,10.071,0,0,1-.449,1.113,3.8,3.8,0,0,1,1.373,1.511l-.195.118.714,1.173Zm14.665-32.486c.511-.331,1.031-.647,1.542-.961q11.9-7.273,23.442-15.1,3.219-2.187,6.409-4.412c.587-.209,1.178-.416,1.765-.622a9.6,9.6,0,0,0,2.022.876,20.776,20.776,0,0,0,4.706.505,26.824,26.824,0,0,1,7.4,1.523,1.015,1.015,0,0,0,.588.087.8.8,0,0,0,.392-.279,3.064,3.064,0,0,0-.161-3.757,8.084,8.084,0,0,0,1.585.068,5.943,5.943,0,0,1,2.048,1.087,13.034,13.034,0,0,1,2.454,2.811,6.8,6.8,0,0,0,2.729,2.72,1.375,1.375,0,0,0,1.039.059,22.842,22.842,0,0,1,.175,2.639l-.124.016,1.856,13.982c.684,8.265-.263,37.94-.91,46.205-.406,5.18-1.186,10.615-4.039,14.886a34.7,34.7,0,0,1,.63,3.448h.051c0,1.483-.04,3.045-.133,4.35l-.553-.037a31.435,31.435,0,0,0-.523,4.452,10.913,10.913,0,0,1-6.093-3.8,27.085,27.085,0,0,1-3.875-6.66,85.624,85.624,0,0,1-4.652-13.6l-.1.022a9.343,9.343,0,0,1-.508-2.988,17.912,17.912,0,0,0-2.661-.673c-.172-.031-.345-.062-.517-.09-.362-.062-.726-.119-1.09-.175a17.214,17.214,0,0,1-.04-1.788l.2.008a34.988,34.988,0,0,1,2-7.42,51.8,51.8,0,0,0,2.107-5.539,29.832,29.832,0,0,0,.686-4.169c1.15-9.858,2.3-19.744,2.356-29.664h-.161q-.042-1.352-.087-2.7c-1.164.57-2.413,1.127-3.734,1.678-9.576,3.988-22.784,7.578-32.388,12.247a16.2,16.2,0,0,0-2.739,1.6l.008.008a8.637,8.637,0,0,0-2.7,6.135l-.014.006-.017-.034a9.74,9.74,0,0,1-.591,3.7,13.044,13.044,0,0,1-1.573,2.635l-7.77,10.974-1.116,1.573c-.751,1.06-1.782,2.249-3.064,2.054a1.955,1.955,0,0,1-1.252-.782l-.124.016a18.127,18.127,0,0,1-3.672-2.293,6.134,6.134,0,0,1-2.178-3.647,9.357,9.357,0,0,1-.037-1.632q.136-3.7.274-7.392-.316-1.314-.519-2.653l.042-.005c-.184-1.232.8-2.3,1.706-3.155A41.637,41.637,0,0,1,107.5,136.2c.127-.071.257-.139.387-.2a19.451,19.451,0,0,0,3.9-2.339v0a12.516,12.516,0,0,1,1.709-2.028l-.071-.074a13.929,13.929,0,0,1,5.254-5.135" fill="#fffbfa"/>
        <path id="Path_12176" data-name="Path 12176" d="M90.161,171.465l-.09-.026c-1.271-2.18-1.283-4.846-1.2-7.372.251-7.815,1.028-15.6,1.808-23.385q.3-3.042.607-6.084,1.318-13.173,2.633-26.348l.223.014c.025-.454.051-.912.079-1.367a9.995,9.995,0,0,1,.195-1.666l.24.065A4.456,4.456,0,0,1,96.6,102.72a13.3,13.3,0,0,1,3.231-1.393c7.689-2.545,15.27-5.4,22.851-8.253l5.977-2.254c3.217-1.209,6.432-2.421,9.556-3.85l.014.034a3.246,3.246,0,0,1,.791-.246l2.712-.593,0,.017a5.023,5.023,0,0,1,1.927-.079,13.123,13.123,0,0,1,2.838.968c4.073,1.636,8.525,2,12.855,2.735s8.779,1.943,12.036,4.886A25.2,25.2,0,0,1,176.481,102a11.827,11.827,0,0,1,1.652,4.864,1.667,1.667,0,0,1-.709,1.664l.06.155c-.119.049-.24.094-.362.133a2.852,2.852,0,0,1,.04,1.5,1.127,1.127,0,0,1-.37.616.679.679,0,0,1-.156.09,1.37,1.37,0,0,1-1.039-.059,6.8,6.8,0,0,1-2.729-2.72,13.061,13.061,0,0,0-2.454-2.811,5.943,5.943,0,0,0-2.048-1.087,8.084,8.084,0,0,1-1.585-.068,3.064,3.064,0,0,1,.161,3.757.8.8,0,0,1-.392.279,1.015,1.015,0,0,1-.588-.087,26.832,26.832,0,0,0-7.4-1.523,20.776,20.776,0,0,1-4.706-.505,9.6,9.6,0,0,1-2.022-.876c-2.551-1.463-4.488-3.9-6.932-5.536-3.51-2.344-7.456-.655-11.163.729-8.341,3.112-15.625,8.375-23.331,12.716a27.474,27.474,0,0,1-4.821,2.291,23.835,23.835,0,0,1,.494,3.025l.13-.011q.834,8.731,1.675,17.464c-.13.065-.26.133-.387.2a41.637,41.637,0,0,0-8.341,6.553c-.907.856-1.89,1.923-1.706,3.155l-.042.005q.2,1.34.519,2.653-.135,3.694-.274,7.392a9.357,9.357,0,0,0,.037,1.632,6.134,6.134,0,0,0,2.178,3.647,18.127,18.127,0,0,0,3.672,2.293l.124-.016a1.953,1.953,0,0,0,1.252.782c1.282.2,2.313-.994,3.064-2.054l1.116-1.573.308.218a20.747,20.747,0,0,1,.971,1.974,27.585,27.585,0,0,1,3.1,7.917,9.6,9.6,0,0,0,.559,1.068l-1.15-.107c-.46-.062-.926-.11-1.389-.144-.159-.012-.317-.02-.475-.026a20.935,20.935,0,0,0-2.3.009l-.59-.1a3.049,3.049,0,0,0-.571,1.737c-.026.251-.048.505-.071.757l.164.017a50.69,50.69,0,0,1-2.268,13.25c-1.113,3.471-5.452,9.154-8.353,11.539-.144.078-.288.149-.437.217a11.992,11.992,0,0,0-.774-2.446l.084-.043c-.118-.364-.886-2.708-1.013-3.07-2.051-5.833-5.41-11.459-5.78-17.549l.184-.009a32.17,32.17,0,0,1,.853-4.42" fill="#fffbfa"/>
        <path id="Path_12177" data-name="Path 12177" d="M103.9,271.194a7.415,7.415,0,0,1,1.305-1.617,1.287,1.287,0,0,0,.141-.008,4.713,4.713,0,0,0,1.653-.493.3.3,0,0,0,.042-.024,28.346,28.346,0,0,1,5.282.233,151.531,151.531,0,0,0,23.15.543c2.768-.147,5.537-.369,8.307-.415a85.448,85.448,0,0,1,12.881.967c2.652.361,7.728-.22,9.691,1.96a3.009,3.009,0,0,1,.342.463c.55.916,1.028,4.534,1.327,6.614.455,3.136.622,6.309,1.13,9.44,1.28,7.875,4.658,15.547,4.051,23.5H91.395c1.206-13.153,5.867-25.728,10.483-38.11a5.567,5.567,0,0,1,2.022-3.05" fill="#fff"/>
        <path id="Path_12178" data-name="Path 12178" d="M97.056,200.864c-.172-.61-.305-1.24-.449-1.861.15-.068.294-.139.438-.217,2.9-2.385,7.239-8.068,8.352-11.539A50.7,50.7,0,0,0,107.665,174l-.164-.017c.023-.252.046-.506.071-.757a3.067,3.067,0,0,1,.571-1.738l.59.1a20.935,20.935,0,0,1,2.3-.008,11.084,11.084,0,0,1,.659,2.989l.028,0,.045.624c.842,3.59,3.827,6.4,7.217,7.844a27.309,27.309,0,0,0,10.852,1.7,78.3,78.3,0,0,0,16.137-1.745,15.571,15.571,0,0,0,4.709-1.616c1.434-.85,3.592-6.152,3.914-7.79l.068-.4c.173.028.345.059.517.09a18.034,18.034,0,0,1,2.661.672,9.376,9.376,0,0,0,.508,2.989l.1-.023a85.7,85.7,0,0,0,4.652,13.6,27.107,27.107,0,0,0,3.876,6.66,10.91,10.91,0,0,0,6.092,3.8,30.83,30.83,0,0,0,.057,3.7,81.124,81.124,0,0,1-1.238,9.23q-1.906,11.029-3.815,22.058c-.859,4.954-2.283,9.8-2.91,14.8a40.8,40.8,0,0,0,.249,11.24c.641,3.245,2.327,4.872,1.652,8.25l-.237-.037a15.952,15.952,0,0,1-.472,2.142c-1.963-2.18-7.039-1.6-9.691-1.96a85.313,85.313,0,0,0-12.88-.967c-2.771.046-5.539.268-8.307.415a151.544,151.544,0,0,1-23.151-.543,28.346,28.346,0,0,0-5.282-.233.446.446,0,0,1-.042.024,4.69,4.69,0,0,1-1.653.492,1.078,1.078,0,0,1-.141.008.406.406,0,0,1-.3-.1.559.559,0,0,1-.068-.5,17.151,17.151,0,0,1,.5-1.941l.04.008c.762-3.065,3.4-8.364,3.485-11.245a51.313,51.313,0,0,0-1.324-11.329q-2.373-12.037-5.336-23.944l-.379-2.226c-.819-2.127-.748-5.83-1.57-7.957-.735-1.9-1.469-3.8-2.093-5.743-.754-2.347-.452-1.35-1.113-3.725Z" fill="#d0e7e8"/>
        <path id="Path_12179" data-name="Path 12179" d="M157.359,134.1a4.634,4.634,0,0,1-2,2.26,1.576,1.576,0,0,0-.2.127c-.77,1.508-.836,3.361-1.216,5.093a23.925,23.925,0,0,1-1.571,3.107,5.214,5.214,0,0,1-1.468,1.18,13.119,13.119,0,0,1-3.157.972q-3.459,1.776-6.92,3.553a13.636,13.636,0,0,1-1.632.746,6.625,6.625,0,0,1-2.683.359,22.125,22.125,0,0,1-.388,17.145,10.679,10.679,0,0,1-.983,1.17,13.357,13.357,0,0,1-4.573,3.019,8.215,8.215,0,0,1-3.614,4.531l.017.031a6.421,6.421,0,0,1-3.726.712l.963-1.142a8.735,8.735,0,0,0,1.26-1.779,8.181,8.181,0,0,0,.469-4.169,9.818,9.818,0,0,0,.534-1.418,16.382,16.382,0,0,0-.662-9.827c-.866-2.477-2.072-4.855-2.547-7.437a13.927,13.927,0,0,1,0-4.9l-.4-.071a3.762,3.762,0,0,1-1.571-1.1,8.065,8.065,0,0,1-2.245-2.876l.014-.006a8.636,8.636,0,0,1,2.7-6.135l-.008-.008a16.249,16.249,0,0,1,2.74-1.6c9.6-4.669,22.811-8.259,32.386-12.247l.263.59.037-.017c1.118.839,1.183,2.466,1.146,3.864-.022.9-.048,1.794-.069,2.689a9.506,9.506,0,0,1-.14,1.607,8.023,8.023,0,0,1-.765,2.006.194.194,0,0,0,0-.034" fill="#e9c6b8"/>
        <path id="Path_12180" data-name="Path 12180" d="M114.043,171.85l1.782.167a20.493,20.493,0,0,0,6.929-1.336l-.042-.122a30.276,30.276,0,0,0,2.96-1.184l.8.226a9.731,9.731,0,0,1-.534,1.418,8.18,8.18,0,0,1-.469,4.169,8.748,8.748,0,0,1-1.259,1.78c-.323.381-.642.76-.964,1.141a6.413,6.413,0,0,0,3.726-.712l-.017-.031a8.216,8.216,0,0,0,3.616-4.531,13.362,13.362,0,0,0,4.572-3.019,10.791,10.791,0,0,0,.984-1.169,22.136,22.136,0,0,0,.387-17.146,6.611,6.611,0,0,0,2.683-.358,13.96,13.96,0,0,0,1.632-.746q3.462-1.776,6.921-3.553a13.162,13.162,0,0,0,3.155-.972,5.19,5.19,0,0,0,1.469-1.181,23.917,23.917,0,0,0,1.57-3.107c.381-1.731.447-3.584,1.217-5.092a1.662,1.662,0,0,1,.2-.128,4.616,4.616,0,0,0,2-2.259.127.127,0,0,1,0,.034q.132,1.1.189,2.2l-.166.009a14.124,14.124,0,0,0-.625,4.087,13.593,13.593,0,0,1-.11,2.819,2.881,2.881,0,0,1-1.533,2.113,22.917,22.917,0,0,1,.282,3.6h-.076a10.892,10.892,0,0,1-.805,4.036c-.229.554-.5,1.088-.771,1.622a26.216,26.216,0,0,1-4.912,7.414l.112.449c-.29.071-.578.144-.87.215a31.5,31.5,0,0,0-.5,6.178h.022a4.553,4.553,0,0,0,.919,2.9A21.631,21.631,0,0,0,153.568,173c.364.056.728.113,1.09.175l-.068.4c-.322,1.638-2.48,6.94-3.915,7.79a15.565,15.565,0,0,1-4.708,1.616,78.3,78.3,0,0,1-16.137,1.745,27.309,27.309,0,0,1-10.852-1.7c-3.39-1.446-6.376-4.254-7.217-7.844l-.046-.624L111.5,171.6c.463.034.929.083,1.389.144Z" fill="#fffbfa"/>
        <path id="Path_12181" data-name="Path 12181" d="M141.911,109.361c.613.277,1.158.684,1.754.994q-11.541,7.83-23.441,15.106c-.511.314-1.031.63-1.542.961a7.326,7.326,0,0,1-.015-.9l.249.014a39.419,39.419,0,0,1,3.483-8.511,16.3,16.3,0,0,1,6.457-6.4,21.066,21.066,0,0,1,8.691-1.819l0,.067a9.426,9.426,0,0,1,4.361.492" fill="#e9c6b8"/>
        <path id="Path_12182" data-name="Path 12182" d="M111.5,171.6l.212,2.96-.028,0a11.086,11.086,0,0,0-.659-2.988c.159.005.317.014.475.025" fill="#d0e7e8"/>
        <path id="Path_12183" data-name="Path 12183" d="M244.681,55.236h.006a6.241,6.241,0,0,1,.929.268m16.191,14.437c-.012.186-.026.373-.045.559m-76.087,36.37v-.012m-73.886,26.8v0a12.653,12.653,0,0,1,1.709-2.028M129.24,250.1a67.24,67.24,0,0,0,23.5-15.286m-46.416,34.319c.24-.035.48-.064.72-.083a28.52,28.52,0,0,1,5.282.233,151.531,151.531,0,0,0,23.15.544c2.769-.147,5.537-.37,8.308-.415a85.443,85.443,0,0,1,12.88.966c2.652.362,7.728-.219,9.691,1.961a3.01,3.01,0,0,1,.342.463c.551.916,1.028,4.533,1.327,6.614.455,3.136.622,6.309,1.13,9.439,1.28,7.875,4.658,15.547,4.051,23.5-.006.075-.011.15-.017.225m-69.056-41.506c-.079.038-.156.078-.229.121a5.567,5.567,0,0,0-2.022,3.05c-4.616,12.382-9.277,24.956-10.483,38.11-.019.2-.036.391-.053.589m5.7-112.074c.661,2.375.359,1.378,1.113,3.725.624,1.941,1.358,3.842,2.093,5.743.822,2.127.751,5.83,1.57,7.956l.379,2.227q2.961,11.9,5.336,23.943a51.329,51.329,0,0,1,1.324,11.33c-.082,2.881-2.723,8.18-3.485,11.245-.04.155-.074.3-.1.446m67.9-64.1c-.009.427-.026.85-.051,1.274a81.111,81.111,0,0,1-1.238,9.231q-1.906,11.029-3.815,22.058c-.859,4.954-2.283,9.8-2.91,14.8a40.8,40.8,0,0,0,.249,11.24c.641,3.245,2.327,4.872,1.652,8.25m5.573-80.19a15.331,15.331,0,0,0,.96-1.3c2.853-4.271,3.633-9.7,4.04-14.886.646-8.264,1.593-37.94.909-46.2l-1.856-13.982-.251-1.9m-2.426,86.133c.053-.407.1-.867.132-1.367.093-1.305.133-2.867.133-4.35,0-1.327-.034-2.6-.088-3.553m-15.942-12.691c.06.3.125.618.2.946a85.656,85.656,0,0,0,4.652,13.6,27.113,27.113,0,0,0,3.876,6.661,10.91,10.91,0,0,0,6.092,3.8c.133.025.271.048.407.068M154.59,173.575c-.322,1.639-2.48,6.941-3.914,7.791a15.569,15.569,0,0,1-4.709,1.615,78.235,78.235,0,0,1-16.137,1.746,27.309,27.309,0,0,1-10.852-1.7c-3.39-1.446-6.375-4.254-7.217-7.844l-.045-.625-.212-2.96c-.158-.011-.316-.019-.475-.025a20.691,20.691,0,0,0-2.3.008M107.665,174a50.683,50.683,0,0,1-2.268,13.25c-1.113,3.472-5.451,9.155-8.352,11.539-.048.043-.1.082-.144.119M89.1,174.259q-.025.826.029,1.635c.369,6.09,3.728,11.717,5.779,17.55.127.361.9,2.706,1.014,3.07m10.205-78.942c.031.322.062.641.093.963q.835,8.733,1.675,17.465a.55.55,0,0,0,.006.07M93.918,108.251Q92.6,121.422,91.285,134.6q-.3,3.042-.607,6.084c-.779,7.782-1.556,15.569-1.808,23.385-.082,2.525-.07,5.192,1.2,7.372m4.542-65.926c.011-.074.025-.147.042-.218A4.456,4.456,0,0,1,96.6,102.72a13.331,13.331,0,0,1,3.231-1.392c7.689-2.545,15.27-5.4,22.851-8.254q2.988-1.126,5.977-2.254c3.217-1.209,6.432-2.42,9.556-3.85.014-.005.031-.014.045-.02m39.161,21.578a1.67,1.67,0,0,0,.708-1.664A11.822,11.822,0,0,0,176.481,102a25.181,25.181,0,0,0-5.087-7.307c-3.257-2.944-7.709-4.155-12.036-4.887s-8.781-1.1-12.854-2.734a13.152,13.152,0,0,0-2.839-.969,5.023,5.023,0,0,0-1.927.079,4.82,4.82,0,0,0-1.107.4m26.345,17.583a4.384,4.384,0,0,1,1.39.18,5.92,5.92,0,0,1,2.048,1.088,13.052,13.052,0,0,1,2.454,2.81,6.8,6.8,0,0,0,2.729,2.72,1.377,1.377,0,0,0,1.04.06.74.74,0,0,0,.155-.091,1.128,1.128,0,0,0,.37-.615,2.852,2.852,0,0,0-.04-1.5,8.472,8.472,0,0,0-.632-1.548,34.794,34.794,0,0,0-3.116-5.406,11.972,11.972,0,0,0-4.748-3.952m-63.9,17.866c.292-.077.579-.161.862-.255a27.513,27.513,0,0,0,4.822-2.29c7.705-4.342,14.99-9.6,23.331-12.717,3.706-1.384,7.652-3.073,11.163-.729,2.443,1.633,4.381,4.074,6.931,5.537a9.556,9.556,0,0,0,2.023.875,20.768,20.768,0,0,0,4.705.506,26.752,26.752,0,0,1,7.4,1.523,1.023,1.023,0,0,0,.588.087.8.8,0,0,0,.392-.28,3.061,3.061,0,0,0-.161-3.756,3.512,3.512,0,0,0-.463-.523,9.913,9.913,0,0,0-4.344-1.9,8.438,8.438,0,0,1-4.245-2.071m-47.414,62.964c.022.039.045.076.067.116a27.574,27.574,0,0,1,3.1,7.917c.062.263.116.528.167.794m-2.147.022c.463.034.929.082,1.39.144l1.149.108,1.783.166a20.444,20.444,0,0,0,6.928-1.336m25.077.786c.226.115.452.22.684.313A21.58,21.58,0,0,0,153.568,173c.364.057.729.113,1.09.176.173.028.345.059.517.09a18.034,18.034,0,0,1,2.661.672,8.173,8.173,0,0,1,3.977,2.633m-12.979-14.533a26.207,26.207,0,0,0,4.912-7.415c.271-.533.542-1.067.771-1.621a10.892,10.892,0,0,0,.805-4.036m-5.158,5.172a87.277,87.277,0,0,0-2.087,8.564,31.5,31.5,0,0,0-.5,6.177v.048m-28.658-43.388a39.416,39.416,0,0,1,3.482-8.511,16.3,16.3,0,0,1,6.457-6.4,21.07,21.07,0,0,1,8.692-1.819c.161-.009.319-.014.48-.02m19.19,25.645.144-.289a8.112,8.112,0,0,0,.766-2.005,9.615,9.615,0,0,0,.138-1.607c.023-.9.048-1.794.071-2.689.036-1.4-.029-3.026-1.147-3.865m-1.418,11.593a4.826,4.826,0,0,0-.607.926c-.771,1.508-.836,3.361-1.218,5.093a8.715,8.715,0,0,1-.556,1.74m3.994-6.98a14.1,14.1,0,0,0-.624,4.088,13.648,13.648,0,0,1-.11,2.818,2.881,2.881,0,0,1-1.534,2.113c-.034.014-.068.028-.1.04m-34.392-.3a3.79,3.79,0,0,0,2.248,2.266m17.12-1.39a13.7,13.7,0,0,0,7.762.861,13.133,13.133,0,0,0,3.155-.971c.147-.062.291-.13.432-.2m-15.306,1.7a7.078,7.078,0,0,0,4.787,2.271M129.6,137.6a1.788,1.788,0,0,1,1.8.226,5.349,5.349,0,0,1,1.249,1.434m-.136,3.207c.732,3.067,2.6,5.722,3.833,8.626.06.135.116.274.17.412a22.132,22.132,0,0,1-.387,17.146c-.02.047-.04.093-.062.141m-5.178-4.528a20.313,20.313,0,0,1,.057,7.259,10.921,10.921,0,0,1-.373,1.316,8.219,8.219,0,0,1-3.616,4.531m.766-38.714a17.448,17.448,0,0,0-4.455,8.79,13.9,13.9,0,0,0,0,4.9c.474,2.582,1.68,4.96,2.547,7.437a16.39,16.39,0,0,1,.661,9.827,9.774,9.774,0,0,1-.534,1.418,9.935,9.935,0,0,1-.615,1.113m35.542-49.885c.008.726.011,1.452,0,2.177-.053,9.921-1.206,19.807-2.355,29.665a29.98,29.98,0,0,1-.687,4.169,51.882,51.882,0,0,1-2.107,5.539,34.956,34.956,0,0,0-2,7.42m-33.872-31.695a6.027,6.027,0,0,1,1.909-2.274,16.165,16.165,0,0,1,2.74-1.6c9.6-4.669,22.811-8.26,32.387-12.248,1.322-.551,2.57-1.107,3.734-1.677.9-.441,1.748-.888,2.533-1.342m-49.73,11.177a13.929,13.929,0,0,1,5.254-5.135c.512-.331,1.031-.647,1.543-.961q11.9-7.275,23.441-15.106,3.221-2.186,6.409-4.412l1.068-.745M97.457,145.911c-.183-1.231.8-2.3,1.706-3.155A41.709,41.709,0,0,1,107.5,136.2c.127-.07.257-.138.387-.2a19.442,19.442,0,0,0,3.9-2.339m0,0a4.673,4.673,0,0,0,.359-.333M97.96,147.9c-.009.221-.017.444-.025.664q-.136,3.694-.275,7.392a9.37,9.37,0,0,0,.037,1.633,6.137,6.137,0,0,0,2.178,3.646,18.175,18.175,0,0,0,3.672,2.294m-1.474-10.646q.368-.39.731-.78.928-.982,1.85-1.965a1.393,1.393,0,0,1,.356-.3,1.46,1.46,0,0,1,.624-.116,14.193,14.193,0,0,0,2.766-.39m-6.319,6.785a.294.294,0,0,0,.014-.031,9.917,9.917,0,0,0,.449-1.113,9.381,9.381,0,0,0,.353-1.4c.029-.161.054-.325.074-.489m-1.517,2.681a3.906,3.906,0,0,1,.641.319,3.8,3.8,0,0,1,1.373,1.511m5.316-8.377c-.014.065-.028.129-.045.192-.808,3.445-3.122,6.324-4.723,9.49-.04.077-.079.156-.119.235a5.781,5.781,0,0,0-.771,2.94,2.769,2.769,0,0,0,.545,1.435,1.951,1.951,0,0,0,1.252.782c1.282.2,2.313-.994,3.064-2.053.373-.525.743-1.048,1.116-1.574l7.77-10.973a13,13,0,0,0,1.574-2.635,9.761,9.761,0,0,0,.59-3.7c0-.4-.014-.79-.034-1.183M285.218,286.694c.078.139.158.281.233.423a60.82,60.82,0,0,1,7.479,26.571c.011.134.016.268.021.4m-95.475-35.066c23.168,9.707,52.34,7.276,77.459,7.11m8.687-15.472c.145.369.279.739.4,1.106a30.079,30.079,0,0,1,1.226,10.566m-93.829-1.119q-.146.915-.272,1.834a105.884,105.884,0,0,0,.209,30.639c.02.142.043.284.066.429m2.35-50.29a.858.858,0,0,0-.238.226.539.539,0,0,0-.051.074,2.481,2.481,0,0,0-.271,1.053q-.512,5.623-1.028,11.242c-.023.249-.045.5-.068.749m-.2-14.875.008.006q.794.58,1.6,1.116c10.982,7.228,24.933,8.5,38.16,9.158,16.516.812,34.861,1.16,51.166-2.455.932-.206,1.856-.423,2.774-.659.233-.059.469-.118.7-.179m-55.625-11.4a49.61,49.61,0,0,0,26.63-3.959m25.755-130.627a31.551,31.551,0,0,1,4.3,8.431m-92.919-1.429a25.555,25.555,0,0,1,8.833-10.505m63.74,91.882a75.148,75.148,0,0,1-31.749,26.1m-5.175-99.158a64.824,64.824,0,0,0,45.63-2.028m-77.341,73.282q-.044.686-.091,1.372c-1.1,15.988-3.672,30.972-6.008,46.877m-1.915-104.4c.043.221.082.438.125.658q2.283,12.093,4.07,24.272c.98,6.7,2.838,13.409,2.584,20.23a34.286,34.286,0,0,0,1.35,11.027,36.317,36.317,0,0,0,3.571,8.172m88.361-66.556c1.347,9.341-.2,18.744-1.917,27.926-.857,4.56-1.784,9.1-2.456,13.7-.717,4.887-.774,8.977-2.327,13.651-1.411,4.26.121,8.522.49,12.827q.691,8.012,1.27,16.038,1.1,15.122,1.783,30.271c.019.393.04.789.056,1.181M305.425,58.456a112.178,112.178,0,0,1-4.711,53.1c-.059.178-.12.359-.182.537m-20.838-21.93c.147-.37.294-.74.444-1.107q.828-2.068,1.709-4.116c.214-.511.439-1.022.661-1.531m16.624,33.144c-.006.062-.014.122-.024.184a69.315,69.315,0,0,1-4.954,19.131c-1.636,3.912-3.68,7.928-3.457,12.126.01.214.032.429.053.644M279.225,90.445c.247-.08.5-.147.747-.2a11.5,11.5,0,0,1,8.965,2.1,22.59,22.59,0,0,1,6.449,7.866,46.516,46.516,0,0,1,4.546,12.2c.1.455.193.91.276,1.367.035.173.067.348.1.523M273.792,101.83a18.171,18.171,0,0,1,.276-1.816,19.517,19.517,0,0,1,2.806-6.858c.161-.245.327-.486.5-.723.067-.1.136-.192.206-.285m-13.729,21.84q.66-.573,1.288-1.178a30.988,30.988,0,0,0,4.185-5c.624-.929,1.2-1.895,1.867-2.793a16.548,16.548,0,0,1,6.052-4.994m-20.025,13.555a17.961,17.961,0,0,0,6.138.52c2.935-.116,5.872-.333,8.427,1m-86.137-8.9c.011.221.023.441.028.664m0,.012c.167,5.728-1.856,11.4-1.522,17.136a42.168,42.168,0,0,0,1.412,7.655q2.122,8.492,4.237,16.984c.138.546.274,1.094.41,1.639m18.967-52.052a51.607,51.607,0,0,1,7.567,9.07c.161.246.319.491.474.74m-31.443-4.294a6.847,6.847,0,0,1,.059-1.251,8.747,8.747,0,0,1,.777-2.565,15.06,15.06,0,0,1,2.635-3.762,19.184,19.184,0,0,1,8.8-5.612,12.9,12.9,0,0,1,10.191,1.268l3.042,1.731.4.229c.365,1.98.808,6.175,1.181,8.336.017.093.031.183.048.268M192.285,56.422c-.116.345-.232.692-.342,1.04a115.651,115.651,0,0,0-5.508,41.976c.006.124.011.249.02.373m70.3-39.655c.571-.158,1.144-.3,1.723-.418.848-.178,1.706-.319,2.568-.42.2-.023.4-.046.6-.066m-67.883-4.971A8.169,8.169,0,0,1,195.643,53a20.517,20.517,0,0,1,5.85-1.613q9.584-1.611,19.168-3.217a92.073,92.073,0,0,1,13.671-1.6c2.706-.045,5.406.144,8.106.336q11.11.784,22.216,1.571l2.59-.037c5.225.136,10.353-1.311,15.569-1.629a73.041,73.041,0,0,1,9.177.211q2.378.157,4.753.311c.354.025.71.048,1.063.07M205.614,68.571a10.1,10.1,0,0,0,3.127,1.48,7.405,7.405,0,0,0,1.932.37,16.528,16.528,0,0,0,3.847-.593q3.334-.785,6.669-1.568l1.039-.243m-13.386,2.672c.088.3.17.6.252.9a68.38,68.38,0,0,1,2.361,21.667M243.616,55.36c.354-.056.709-.1,1.065-.124m.006,0a14.55,14.55,0,0,1,11.4,4.279c.28.288.585.63.907.983a7.447,7.447,0,0,0,2.853,2.243,2.316,2.316,0,0,0,.5.1M225.3,88.51a26.2,26.2,0,0,0-.133,5.827,33.783,33.783,0,0,0,1.07,6.228m34.537-3a1.169,1.169,0,0,0,.477.217,1.773,1.773,0,0,0,1.342-.294,4.268,4.268,0,0,0,1.2-1.508A11.872,11.872,0,0,0,265.5,90.9a5.962,5.962,0,0,0-.18-1.785m-3.04,2.576c-.144.356-.288.712-.429,1.068q-.843,2.088-1.684,4.18c-.147.367-.3.734-.443,1.1m1.164-32.568a20.974,20.974,0,0,1,.918,4.463c.011.079.022.152.033.22M224.494,68.1c.051-.031.1-.065.152-.1a2.847,2.847,0,0,0,.441-.379A21.21,21.21,0,0,0,227.5,63.78c2.308-3.807,7.1-9.01,12.31-7.815.15.033.3.073.452.118M228.971,89.538a7.027,7.027,0,0,1,1.07,1.709,15.3,15.3,0,0,1,1.031,2.847,5.818,5.818,0,0,1,.178,1.217M224.556,71.4a27.184,27.184,0,0,0,.181,8.146,12.11,12.11,0,0,0,1.064,2.994,13.359,13.359,0,0,1,1.427,2.995,3.15,3.15,0,0,1,.079.937m-2.689-6.9c-.09-.559-.938-.664-1.356-.283a2.381,2.381,0,0,0-.567,1.554q-.3,2.605-.591,5.209a15.878,15.878,0,0,0-.124,3.725,5.6,5.6,0,0,0,1.833,3.28M303.946,56.2q.454.581.9,1.161a5.691,5.691,0,0,0,.838.929,2.571,2.571,0,0,0,.348.238,1.589,1.589,0,0,0,1.633.034,1.715,1.715,0,0,0,.582-1.475,7.73,7.73,0,0,0-2.8-5.471,17.408,17.408,0,0,0-3.43-2.339c-.7-.381-1.409-.734-2.118-1.082m-12.342,5.816a10.4,10.4,0,0,0,2.6-.124c2.434-.382,4.839-1.333,7.3-1.229a8.718,8.718,0,0,1,5.147,1.969m-22.52-2.74c2.423.164,4.589,1.435,6.866,2.322a15.045,15.045,0,0,0,1.8.584c2.587.645,5.455.37,7.814,1.554.137.068.273.141.407.22m-31.975,2.424c.183.136.37.268.559.4a19.693,19.693,0,0,0,3.586,1.958,8.065,8.065,0,0,0,3.714.765,7.981,7.981,0,0,0,2.024-.491c.381-.136.761-.286,1.136-.424a24.468,24.468,0,0,1,11.332-1.446c2.571.313,5.107,1.1,7.691.943a4.56,4.56,0,0,0,2.1-.551,2.142,2.142,0,0,0,1.1-1.782M257.773,93.862a51.074,51.074,0,0,1,5.144-3.646c.624-.393,1.26-.769,1.9-1.13a52.063,52.063,0,0,1,12.257-5c1.714-.458,3.468-.831,5.163-1.348a18.976,18.976,0,0,0,3.708-1.522s8.931-6.282,10.495-8.711M245.277,87.29c.805-2.4,2.621-4.294,4.432-6.056a141.64,141.64,0,0,1,25.2-19.535m-58.245,53.057A1.926,1.926,0,0,1,215,112.8a3.55,3.55,0,0,1,.725-1.7c.517-.774,1.06-1.525,1.633-2.26a38.513,38.513,0,0,1,8.883-8.27q1.542-1.038,3.181-1.918l1.745-1.3.865-.754c3.471-3.02,7.087-5.986,11.38-7.568.074-.028.147-.056.22-.082M226.4,104.616a91.685,91.685,0,0,0-9.445,10.369c-.108.132-.209.265-.311.4q-2.213,2.859-4.189,5.889a4.239,4.239,0,0,0-.9,2.288,1.763,1.763,0,0,0,.613,1.268,1.129,1.129,0,0,0,.941.277M229.66,107.72a175.472,175.472,0,0,1-16.236,18.046,4.923,4.923,0,0,0-1.283,1.653,1.653,1.653,0,0,0,.407,1.915,2.115,2.115,0,0,0,1.269.3,8.223,8.223,0,0,0,4.237-1.2m30.839-16.553a12.621,12.621,0,0,1-.048,1.291c-.162,1.87-.673,3.72-.825,5.6-.189,2.308.322,4.918,2.211,6.262a2.262,2.262,0,0,0,2.006.441,2.869,2.869,0,0,0,1.466-2.127c.545-1.992.833-4.059,1.531-6.006.474-1.33,1.135-2.589,1.7-3.883a16.508,16.508,0,0,0,.745-1.98,19.9,19.9,0,0,0,.664-4.941,48.852,48.852,0,0,0-.367-6.318c-.153-1.427-.322-2.8-.452-3.932m-23.837,15.154a50.92,50.92,0,0,1-9.587,10.88,30.525,30.525,0,0,0-5.191,4.941c-.088.121-.176.251-.255.384a2.289,2.289,0,0,0-.361,2.079,1.949,1.949,0,0,0,2.062.966,5.3,5.3,0,0,0,2.189-1.029c4.771-3.267,8.968-7.346,13.928-10.318,4.005-2.4,8.641-4.2,11.759-7.55a13.02,13.02,0,0,0,1.342-1.683" fill="none" stroke="#8a5855" stroke-linecap="round" stroke-linejoin="round" stroke-width="1.205"/>
      </g>
    </g>
  </g>
</svg>
