<svg xmlns="http://www.w3.org/2000/svg" viewBox="0 0 23.22 23.34"><defs><style>.cls-1{fill:#0c7d94;stroke:#0c7d94;stroke-width:0.5px;}</style></defs><g id="圖層_6" data-name="圖層 6"><g id="Group_5636" data-name="Group 5636"><path id="Fill_6" data-name="Fill 6" class="cls-1" d="M14.82,3h1.57v2.1H14.82Z"/><path id="Fill_8" data-name="Fill 8" class="cls-1" d="M3.26,5.66V20.89c0,.53.71,1.05,1.58,1.05V5.66H3.26"/><path id="Fill_9" data-name="Fill 9" class="cls-1" d="M20.07,5.66V20.89c0,.53-.71,1.05-1.58,1.05V5.66h1.58"/><path id="Fill_7" data-name="Fill 7" class="cls-1" d="M6.94,3H8.51v2.1H6.94Z"/><path id="Fill_4" data-name="Fill 4" class="cls-1" d="M4.84,20.37H18.5v1.57H4.84Z"/><path id="Fill_5" data-name="Fill 5" class="cls-1" d="M1.16,5.4A.79.79,0,0,1,2,4.61H20.86a.79.79,0,0,1,.79.79h0a.78.78,0,0,1-.79.78H2a.78.78,0,0,1-.79-.78Z"/><path id="Fill_10" data-name="Fill 10" class="cls-1" d="M16.39,3H6.94c0-.87.53-1.57,1.11-1.57h7.23c.58,0,1.11.7,1.11,1.57"/></g></g></svg>