<svg xmlns="http://www.w3.org/2000/svg" viewBox="0 0 28.2 28.62"><defs><style>.cls-1{fill:#fff;}.cls-2{fill:none;stroke:#0c7d94;stroke-width:1.5px;}.cls-3{fill:#0c7d94;}</style></defs><g id="small"><g id="Group_5640" data-name="Group 5640"><g id="Rectangle_2859" data-name="Rectangle 2859"><path class="cls-1" d="M14,.81h0a13.49,13.49,0,0,1,13.5,13.5h0A13.5,13.5,0,0,1,14,27.81h0A13.51,13.51,0,0,1,.53,14.31h0A13.5,13.5,0,0,1,14,.81Z"/><path class="cls-2" d="M14,1.56h0A12.75,12.75,0,0,1,26.78,14.31h0A12.75,12.75,0,0,1,14,27.06h0A12.75,12.75,0,0,1,1.28,14.31h0A12.75,12.75,0,0,1,14,1.56Z"/></g><path id="question-circle" class="cls-3" d="M19.18,11.08c0,3.58-3.87,3.63-3.87,5v.34a.64.64,0,0,1-.64.64H12.23a.64.64,0,0,1-.64-.64h0v-.47c0-1.91,1.45-2.67,2.54-3.28.94-.53,1.51-.88,1.51-1.58,0-.92-1.17-1.53-2.12-1.53-1.24,0-1.81.58-2.61,1.6a.65.65,0,0,1-.89.11L8.53,10.1a.64.64,0,0,1-.14-.87,6,6,0,0,1,5.37-2.89C16.38,6.34,19.18,8.38,19.18,11.08ZM15.69,20a2.24,2.24,0,1,1-2.24-2.25A2.24,2.24,0,0,1,15.69,20Z"/></g></g></svg>