<svg xmlns="http://www.w3.org/2000/svg" width="29.632" height="29.248" viewBox="0 0 29.632 29.248">
  <g id="Group_4051" data-name="Group 4051" transform="translate(9901.256 -1995.959)">
    <g id="Group_3856" data-name="Group 3856" transform="translate(-10334.068 1439.284)">
      <path id="Path_40324" data-name="Path 40324" d="M452.144,577.028a9.944,9.944,0,0,1-6.012-2l-2.788.747.747-2.787a9.94,9.94,0,0,1-2-6.013,10.051,10.051,0,1,1,10.051,10.051Zm-5.743-3.313.237.188a8.759,8.759,0,0,0,5.5,1.924,8.851,8.851,0,1,0-8.851-8.851,8.754,8.754,0,0,0,1.925,5.5l.189.237-.365,1.358Z" fill="#999" stroke="#999" stroke-width="0.5"/>
    </g>
    <g id="Group_3857" data-name="Group 3857" transform="translate(-10334.068 1439.284)">
      <path id="Path_40325" data-name="Path 40325" d="M448.555,578.8a.3.3,0,0,0-.064.064l-1.017,1.53a1.216,1.216,0,0,1-1.7.118c-.675-.474-2.725-2.32-4-3.526-1.2-1.275-3.065-3.339-3.54-4.017a1.212,1.212,0,0,1,.119-1.7l1.529-1.017a.3.3,0,0,0,.064-.064,58.057,58.057,0,0,1-3.566-4.781,11.035,11.035,0,0,0-1.894,1.511c-.28.281-.54.58-.787.883-.251,3.217,1.234,7.488,5.34,11.562,4.151,4.343,8.6,5.941,11.9,5.684.3-.248.6-.508.881-.789a11.031,11.031,0,0,0,1.512-1.893A58.244,58.244,0,0,1,448.555,578.8Z" fill="none"/>
      <path id="Path_40326" data-name="Path 40326" d="M450.25,585.673h0c-3.821,0-8.064-2.15-11.648-5.9-3.8-3.771-5.806-8.157-5.5-12.024l.015-.188.119-.145a12.337,12.337,0,0,1,.827-.927,11.646,11.646,0,0,1,2-1.6l.495-.313.325.487A57.875,57.875,0,0,0,440.4,569.8l.312.378-.307.384a.888.888,0,0,1-.2.185l-1.531,1.018a.33.33,0,0,0-.124.215.866.866,0,0,0,.164.64c.42.6,2.132,2.518,3.473,3.939,1.414,1.334,3.323,3.038,3.922,3.456a.914.914,0,0,0,.519.175.4.4,0,0,0,.335-.128l.356-.539.663-1a.873.873,0,0,1,.186-.2l.384-.309.378.313a58.009,58.009,0,0,0,4.73,3.529l.487.325-.313.495a11.616,11.616,0,0,1-1.594,2c-.264.265-.567.535-.925.832l-.146.119-.188.015C450.747,585.663,450.5,585.673,450.25,585.673Zm-15.967-17.641c-.1,1.792.3,6.064,5.177,10.9,3.365,3.52,7.3,5.536,10.789,5.537h0c.154,0,.308-.005.459-.012.263-.222.49-.428.69-.628a10.523,10.523,0,0,0,1.1-1.307c-1.287-.879-2.571-1.837-3.829-2.856l-.345.519-.355.535a1.572,1.572,0,0,1-1.337.67,2.128,2.128,0,0,1-1.209-.393c-.733-.512-2.862-2.44-4.069-3.58l-.024-.025c-1.146-1.216-3.081-3.351-3.6-4.085a2.053,2.053,0,0,1-.36-1.556,1.5,1.5,0,0,1,.644-.991l1.047-.7c-1.02-1.26-1.977-2.544-2.856-3.83a10.449,10.449,0,0,0-1.308,1.105C434.708,567.543,434.506,567.765,434.283,568.032Z" fill="#999" stroke="#999" stroke-width="0.5"/>
    </g>
    <path id="Path_40327" data-name="Path 40327" d="M450.592,567.732a.985.985,0,1,0,0,1.97h2.624a.985.985,0,0,0,0-1.97h-2.624Z" transform="translate(-10334.068 1439.284)" fill="#999"/>
    <path id="Path_40328" data-name="Path 40328" d="M450.592,564.177a.984.984,0,1,0,0,1.969h3.9a.984.984,0,1,0,0-1.969Z" transform="translate(-10334.068 1439.284)" fill="#999"/>
  </g>
</svg>
