<svg xmlns="http://www.w3.org/2000/svg" width="20.355" height="24.46" viewBox="0 0 20.355 24.46">
  <g id="Group_4055" data-name="Group 4055" transform="translate(9278 -1997.846)">
    <path id="Path_40377" data-name="Path 40377" d="M637.638,581.559h-7.552V560.8H646.5v11.24a.985.985,0,0,0,1.97,0V560.054a.986.986,0,0,0-.985-.985H629.1a.986.986,0,0,0-.985.985v22.49a.989.989,0,0,0,.985.985h8.536a.985.985,0,0,0,0-1.97Z" transform="translate(-9906.117 1438.777)" fill="#999"/>
    <path id="Path_40380" data-name="Path 40380" d="M643.876,571.217a.987.987,0,0,0-.985-.988h-8.864a.985.985,0,0,0,0,1.97h8.864A.987.987,0,0,0,643.876,571.217Z" transform="translate(-9906.117 1438.777)" fill="#999"/>
    <path id="Path_40381" data-name="Path 40381" d="M634.027,575.485a.985.985,0,0,0,0,1.97h2.624a.985.985,0,0,0,0-1.97h-2.624Z" transform="translate(-9906.117 1438.777)" fill="#999"/>
    <path id="Path_40382" data-name="Path 40382" d="M642.891,564.815h-8.864a.985.985,0,0,0,0,1.97h8.864a.985.985,0,0,0,0-1.97Z" transform="translate(-9906.117 1438.777)" fill="#999"/>
    <g id="Group_3913" data-name="Group 3913" transform="translate(-9906.117 1438.777)">
      <g id="Group_3911" data-name="Group 3911">
        <path id="Path_40369" data-name="Path 40369" d="M647.086,580.042l-2.847-2.845-2.847,2.845-1.294-1.295,4.141-4.138,4.141,4.138Z" fill="#999"/>
      </g>
      <g id="Group_3912" data-name="Group 3912">
        <rect id="Rectangle_2544" data-name="Rectangle 2544" width="1.83" height="5.91" transform="translate(643.324 576.593)" fill="#999"/>
      </g>
    </g>
  </g>
</svg>
