<svg xmlns="http://www.w3.org/2000/svg" viewBox="0 0 32.92 32.72"><defs><style>.cls-1,.cls-2,.cls-3,.cls-4{fill:#FFF;}.cls-1,.cls-2{stroke:#FFF;}.cls-2{stroke-miterlimit:10;stroke-width:0.5px;}.cls-4{fill-rule:evenodd;}</style></defs><g id="圖層_10" data-name="圖層 10"><g id="Component_283_1" data-name="Component 283 1"><path id="Path_41708" data-name="Path 41708" class="cls-1" d="M16.63,31.42a15,15,0,1,1,15.05-15A15,15,0,0,1,16.63,31.42Zm0-28.91a13.88,13.88,0,1,0,13.9,13.86A13.89,13.89,0,0,0,16.63,2.51Z"/><path id="Path_41709" data-name="Path 41709" class="cls-2" d="M16.65,10.31a18.08,18.08,0,0,1-2.44-.17.49.49,0,0,1-.47-.5v0a.56.56,0,0,1,.66-.38,16.74,16.74,0,0,0,2.24.15A15.27,15.27,0,0,0,26,6.28a.65.65,0,0,1,.8,0,.42.42,0,0,1,.06.58.24.24,0,0,1-.09.08A16.49,16.49,0,0,1,16.65,10.31ZM7.52,7.56a.63.63,0,0,1-.4-.14l-.28-.21L6.49,7a.41.41,0,0,1-.09-.58.34.34,0,0,1,.09-.08.66.66,0,0,1,.8,0l.27.21a3.32,3.32,0,0,1,.36.26A.4.4,0,0,1,8,7.33a.24.24,0,0,1-.08.09.67.67,0,0,1-.4.14Z"/><path id="Path_41710" data-name="Path 41710" class="cls-2" d="M16.67,31.42c-4.92,0-8.76-6.61-8.76-15a26.85,26.85,0,0,1,.31-4.1.66.66,0,0,1,.74-.5.6.6,0,0,1,.56.64h0a26.17,26.17,0,0,0-.3,4c0,7.53,3.41,13.89,7.45,13.89C20,30.26,23,26,23.86,20.15a.64.64,0,0,1,.74-.5.6.6,0,0,1,.56.64v0C24.15,27,20.74,31.42,16.67,31.42ZM24.5,13.13a.63.63,0,0,1-.64-.5C23,6.77,20,2.52,16.67,2.52c-1.6,0-3.19,1-4.48,2.86a.7.7,0,0,1-.9.19A.54.54,0,0,1,11,4.85h0a.25.25,0,0,1,0-.07c1.54-2.2,3.52-3.41,5.59-3.41,4.07,0,7.48,4.46,8.48,11.11a.6.6,0,0,1-.54.65H24.5Z"/><path id="Path_41711" data-name="Path 41711" class="cls-2" d="M16.63,31.42a.54.54,0,0,1-.5-.58V26.71a.51.51,0,0,1,1-.14.33.33,0,0,1,0,.14v4.13A.55.55,0,0,1,16.63,31.42Zm0-11.84a.54.54,0,0,1-.5-.58V1.94a.51.51,0,0,1,.42-.58.5.5,0,0,1,.58.42.43.43,0,0,1,0,.16V19a.54.54,0,0,1-.5.58Z"/><path id="Path_41712" data-name="Path 41712" class="cls-2" d="M31.1,16.88H27.72a.51.51,0,0,1-.14-1H31.1a.51.51,0,0,1,.58.43.51.51,0,0,1-.43.58H31.1ZM20,16.88H2.2a.52.52,0,0,1-.58-.43.51.51,0,0,1,.43-.58H20a.51.51,0,0,1,.58.43.51.51,0,0,1-.43.58H20Z"/><path id="Path_41713" data-name="Path 41713" class="cls-2" d="M26.41,27.61a.6.6,0,0,1-.4-.13,14.27,14.27,0,0,0-5.78-2.69.46.46,0,0,1-.4-.51.13.13,0,0,1,0-.06.59.59,0,0,1,.7-.33,15.52,15.52,0,0,1,6.26,2.92.42.42,0,0,1,.1.58.3.3,0,0,1-.08.08A.57.57,0,0,1,26.41,27.61Zm-19.53,0a.59.59,0,0,1-.41-.14.42.42,0,0,1-.07-.58h0l.09-.08a15.85,15.85,0,0,1,6.26-2.92.59.59,0,0,1,.7.32.48.48,0,0,1-.33.57h-.07a14.56,14.56,0,0,0-5.77,2.69.58.58,0,0,1-.4.13Z"/><path id="Path_41714" data-name="Path 41714" class="cls-3" d="M10.42,10.34A2,2,0,0,1,8.49,8.42a1.93,1.93,0,0,1,1.93-1.93,1.91,1.91,0,0,1,1.93,1.88v.05A1.94,1.94,0,0,1,10.42,10.34Zm0-2.84a.92.92,0,0,0-.92.92,1,1,0,0,0,.92.92.92.92,0,0,0,.92-.92.9.9,0,0,0-.88-.92h0Z"/><path id="Path_41715" data-name="Path 41715" class="cls-3" d="M24,18.3a1.94,1.94,0,0,1-1.93-1.93A2,2,0,0,1,24,14.44,1.94,1.94,0,0,1,26,16.37a1.91,1.91,0,0,1-1.89,1.93Zm0-2.85a.94.94,0,0,0-.92.92.92.92,0,0,0,.92.92h0a.9.9,0,0,0,.92-.88h0v0A.92.92,0,0,0,24,15.45Z"/><path id="Path_41716" data-name="Path 41716" class="cls-3" d="M16.63,24.93A1.93,1.93,0,1,1,18.56,23h0A1.93,1.93,0,0,1,16.63,24.93Zm0-2.85a.92.92,0,1,0,.06,1.84.91.91,0,0,0,.89-1,.93.93,0,0,0-.89-.89h-.06Z"/><g id="Group_5948" data-name="Group 5948"><path id="Path_41717" data-name="Path 41717" class="cls-4" d="M10.63,7a1.56,1.56,0,0,1,1.58,1.54h0v0a1.57,1.57,0,0,1-1.57,1.58h0a1.58,1.58,0,1,1,0-3.16ZM16.49,20.8a1.58,1.58,0,0,1,0,3.16h0a1.58,1.58,0,0,1,0-3.16Zm7-6.25a1.58,1.58,0,0,1,0,3.16h0a1.58,1.58,0,1,1,0-3.16Z"/><path id="Path_41718" data-name="Path 41718" class="cls-3" d="M16.49,24.51a2.14,2.14,0,1,1,2.13-2.13,2.13,2.13,0,0,1-2.13,2.13Zm0-3.15a1,1,0,1,0,.06,0Zm7-3.1a2.13,2.13,0,0,1-2.14-2.13A2.17,2.17,0,0,1,23.46,14a2.14,2.14,0,0,1,.05,4.28h-.05Zm0-3.15a1,1,0,0,0-1,1,1,1,0,0,0,1,1,1,1,0,0,0,1-1v0a1,1,0,0,0-1-1ZM10.63,10.76A2.17,2.17,0,0,1,8.49,8.63a2.14,2.14,0,0,1,2.14-2.14,2.12,2.12,0,0,1,2.14,2.09h0v.05a2.14,2.14,0,0,1-2.14,2.13Zm0-3.16a1,1,0,0,0-1,1,1.05,1.05,0,0,0,1,1,1,1,0,0,0,1-1h0a1,1,0,0,0-1-1h0Z"/></g></g></g></svg>