<svg xmlns="http://www.w3.org/2000/svg" viewBox="0 0 28.2 28.62"><defs><style>.cls-1{fill:#d33e54;}.cls-2{fill:#fff;}</style></defs><g id="small"><g id="Group_5642" data-name="Group 5642"><g id="Path_41372" data-name="Path 41372"><path class="cls-1" d="M14,27.06A12.75,12.75,0,0,1,5,5.29a12.75,12.75,0,0,1,18,18A12.67,12.67,0,0,1,14,27.06Z"/><path class="cls-1" d="M14,2.31A12,12,0,0,0,5.55,22.79a12,12,0,0,0,17-17A12,12,0,0,0,14,2.31m0-1.5A13.5,13.5,0,1,1,.53,14.31,13.49,13.49,0,0,1,14,.81Z"/></g><path id="question-circle" class="cls-2" d="M19.18,11.08c0,3.58-3.87,3.63-3.87,5v.33a.65.65,0,0,1-.64.65H12.23a.65.65,0,0,1-.64-.65h0v-.46c0-1.91,1.45-2.67,2.54-3.28.94-.53,1.51-.89,1.51-1.58,0-.92-1.17-1.53-2.12-1.53-1.24,0-1.81.58-2.61,1.6a.65.65,0,0,1-.89.11L8.53,10.1a.64.64,0,0,1-.14-.87,6,6,0,0,1,5.37-2.9C16.38,6.34,19.18,8.38,19.18,11.08ZM15.69,20a2.24,2.24,0,1,1-2.24-2.25A2.24,2.24,0,0,1,15.69,20Z"/></g></g></svg>