<svg xmlns="http://www.w3.org/2000/svg" viewBox="0 0 20 20.01"><defs><style>.cls-1{fill:#e07e6d;}</style></defs><g id="圖層_3" data-name="圖層 3"><path id="volume-down" class="cls-1" d="M11.13,1l-4.3,4.3H1.89A1.16,1.16,0,0,0,.73,6.49h0v7a1.16,1.16,0,0,0,1.16,1.16H6.83l4.3,4.3a1.16,1.16,0,0,0,1.64,0,1.19,1.19,0,0,0,.34-.82V1.85A1.18,1.18,0,0,0,11.94.69,1.21,1.21,0,0,0,11.13,1Zm5.95,5.23a1.16,1.16,0,1,0-1.17,2l.05,0a1.9,1.9,0,0,1,.79,2.58,1.94,1.94,0,0,1-.79.79,1.16,1.16,0,1,0,1.12,2,4.23,4.23,0,0,0,0-7.43Z"/></g></svg>