<svg xmlns="http://www.w3.org/2000/svg" viewBox="0 0 17.5 22.09"><defs><style>.cls-1{fill:#0c7d94;}</style></defs><g id="圖層_5" data-name="圖層 5"><g id="Group_4796" data-name="Group 4796"><path id="calendar-check" class="cls-1" d="M14.19,11.61,8.31,17.45a.5.5,0,0,1-.7,0l-3.1-3.13a.5.5,0,0,1,0-.7l.94-.93a.48.48,0,0,1,.7,0L8,14.52,12.56,10a.5.5,0,0,1,.7,0l.93.94a.5.5,0,0,1,0,.7Z"/><path id="file" class="cls-1" d="M15.83,5.29,12.55,2a1.88,1.88,0,0,0-1.32-.55h-8A1.88,1.88,0,0,0,1.38,3.34V19.59a1.87,1.87,0,0,0,1.87,1.87H14.5a1.88,1.88,0,0,0,1.88-1.87v-13A1.88,1.88,0,0,0,15.83,5.29ZM14.35,6.46h-3v-3ZM3.25,19.59V3.34H9.5V7.4a.94.94,0,0,0,.93.94H14.5V19.59Z"/></g></g></svg>