<svg xmlns="http://www.w3.org/2000/svg" width="20" height="23" viewBox="0 0 20 23">
  <g id="Group_6305" data-name="Group 6305" transform="translate(22108 11387)">
    <path id="_Color" data-name=" ↳Color" d="M17.895,23H6.316A2.1,2.1,0,0,1,4.21,20.909V6.273A2.1,2.1,0,0,1,6.316,4.181H17.895A2.1,2.1,0,0,1,20,6.273V20.909A2.1,2.1,0,0,1,17.895,23ZM6.316,6.273V20.909H17.895V6.273ZM2.105,16.727H0V2.091A2.1,2.1,0,0,1,2.105,0H14.737V2.091H2.105V16.726Z" transform="translate(-22108 -11387)" fill="#ffffff"/>
  </g>
</svg>
