<svg xmlns="http://www.w3.org/2000/svg" viewBox="0 0 49.73 49.73"><defs><style>.cls-1{fill:#35b69e;}.cls-2{fill:none;stroke:#0c7d94;}.cls-2,.cls-3{stroke-width:0.5px;}.cls-3{fill:#fff;stroke:#fff;}</style></defs><g id="查核行前規劃"><rect id="Rectangle_6" data-name="Rectangle 6" class="cls-1" x="0.86" y="1.14" width="48" height="48" rx="4"/><g id="Group_5653" data-name="Group 5653"><path id="Path_41481" data-name="Path 41481" class="cls-2" d="M22.21,14.7a.59.59,0,0,1,.62-.25.62.62,0,0,1,.28.14l4,3.46-.68-2.67a.64.64,0,0,1,.23-.66.61.61,0,0,1,.35-.11.6.6,0,0,1,.36.12l5.33,4.09h0a3.2,3.2,0,0,1,.94-.38v-3a7.3,7.3,0,0,0-7.48-7.08,7.3,7.3,0,0,0-7.48,7.08v3a3.17,3.17,0,0,1,.78.28Z"/><path id="Path_41482" data-name="Path 41482" class="cls-2" d="M34,33.93a20.59,20.59,0,0,1-3.71-2l-3.59,6.83a.59.59,0,0,1-1.05,0L22,32a20.59,20.59,0,0,1-3.71,2c-.72.32-1.41.63-2,1-1.48.66-3.44,2.12-3.44,3.42l0,2.46s-.08,1.69,1.5,1.74c5.25.15,22.25,0,22.25,0a2,2,0,0,0,2-2V37.9C38.58,36,36.45,35,34,33.93Z"/><path id="Path_41483" data-name="Path 41483" class="cls-2" d="M22.74,28.5a4.93,4.93,0,0,0,6.84,0,.36.36,0,0,1,.07-.1,9.29,9.29,0,0,0,2.12-3.91.6.6,0,0,1,.58-.42h.44c.83,0,1.38-1,1.55-2,.2-1.16-.1-2.19-.68-2.42l-.39.19-.38.19-.07,0a.57.57,0,0,1-.26,0,.63.63,0,0,1-.23-.08L32.26,20,28,16.72l.72,2.85a.62.62,0,0,1-.19.63.6.6,0,0,1-.77,0l-4.94-4.27L20.16,19.8l-.1.12a.7.7,0,0,1-.24.13.65.65,0,0,1-.24,0,.55.55,0,0,1-.17,0l-.34-.16-.41-.18h0c-.6.26-.87,1.39-.62,2.56.18.85.68,1.83,1.51,1.83H20a.6.6,0,0,1,.57.42,9.29,9.29,0,0,0,2.12,3.91Z"/><path id="Path_41484" data-name="Path 41484" class="cls-2" d="M22.83,30.08v.81l3.32,6.34,3.33-6.34v-.81a6,6,0,0,1-6.65,0Z"/><path id="Path_41485" data-name="Path 41485" class="cls-3" d="M34.47,32.84a17.33,17.33,0,0,1-3.8-2.08V29.1l.09-.1a.57.57,0,0,0,.11-.16,10.94,10.94,0,0,0,1.91-3.58h0c1.34,0,2.41-1.16,2.72-3a3.93,3.93,0,0,0-.68-3.23V15.41a8,8,0,0,0-2.57-5.85,8.8,8.8,0,0,0-6.1-2.42,8.5,8.5,0,0,0-8.68,8.27v3.65a4,4,0,0,0-.64,3.43c.35,1.68,1.41,2.77,2.68,2.77h0a10.76,10.76,0,0,0,1.91,3.58.57.57,0,0,0,.11.16l.09.1v1.66a17.33,17.33,0,0,1-3.8,2.08,27.06,27.06,0,0,0-2.65,1.3c-4.41,1.9-3.57,3.37-3.71,6.53a7.24,7.24,0,0,0,0,1.23,2.08,2.08,0,0,0,2.07,1.81h23a3.21,3.21,0,0,0,3.2-3.2V37.9C39.78,35.21,37.08,34,34.47,32.84ZM18.68,15.42a7.3,7.3,0,0,1,7.48-7.08,7.29,7.29,0,0,1,7.47,7.08v3a3.14,3.14,0,0,0-.93.38h0l-5.33-4.09a.63.63,0,0,0-.37-.12.6.6,0,0,0-.57.77l.67,2.67-4-3.46a.59.59,0,0,0-.89.11l-2.76,4a3,3,0,0,0-.77-.28Zm1.86,9.08a.62.62,0,0,0-.57-.43h-.45c-.83,0-1.33-1-1.51-1.82-.25-1.18,0-2.3.61-2.56l0,0a3.89,3.89,0,0,1,.41.19l.34.16.16.05a.69.69,0,0,0,.25,0,.56.56,0,0,0,.24-.13.4.4,0,0,0,.1-.12l2.65-3.88,4.94,4.27a.59.59,0,0,0,.77,0,.62.62,0,0,0,.2-.63L28,16.73,32.26,20l.07,0a.49.49,0,0,0,.23.08.76.76,0,0,0,.26,0l.07,0,.38-.19.38-.19c.59.23.88,1.26.68,2.41-.17,1-.71,2-1.55,2h-.44a.62.62,0,0,0-.57.43,9.52,9.52,0,0,1-2.12,3.91.39.39,0,0,0-.08.1,4.92,4.92,0,0,1-6.84,0l-.08-.1a9.4,9.4,0,0,1-2.11-3.9Zm8.94,5.58v.81l-3.32,6.34-3.33-6.34v-.81a6,6,0,0,0,6.65,0Zm9.1,10.42a2,2,0,0,1-2,2s-17,.15-22.25,0c-1.58,0-1.5-1.74-1.5-1.74l0-2.46c0-1.3,2-2.76,3.44-3.42.63-.33,1.32-.64,2-1A20.93,20.93,0,0,0,22,32l3.58,6.83a.6.6,0,0,0,.53.32.58.58,0,0,0,.53-.32L30.27,32a20.26,20.26,0,0,0,3.71,2c2.47,1.1,4.6,2.06,4.6,4Z"/></g></g></svg>