<svg xmlns="http://www.w3.org/2000/svg" viewBox="0 0 49.73 49.73"><defs><style>.cls-1{fill:#237dc2;}.cls-2{fill:#fff;stroke:#fff;stroke-width:0.5px;}</style></defs><g id="查核行前規劃"><rect id="Rectangle_6" data-name="Rectangle 6" class="cls-1" x="0.86" y="1.14" width="48" height="48" rx="4"/><g id="Group_5654" data-name="Group 5654"><path id="Path_41491" data-name="Path 41491" class="cls-2" d="M37,34.93c-.82-.47-3.2-1.69-4.11-2.1a17,17,0,0,1-3.79-2.07V29.1l.09-.1a.54.54,0,0,0,.1-.16,10.63,10.63,0,0,0,1.91-3.57h0c1.35,0,2.42-1.17,2.73-3,.22-1.31,0-2.89-1.09-3.56,0-3.32-.52-5.45-1.62-6.89S28.61,9.79,26.63,9a37.6,37.6,0,0,1-3.88-1.77.59.59,0,0,0-.68.08.55.55,0,0,0-.17.27,3.8,3.8,0,0,0-.18,1l-.2-.21a.55.55,0,0,0-.34-.2.6.6,0,0,0-.64.31,2.16,2.16,0,0,0-.21,1.2c-4,1.42-4,4.67-4,9.12-1.11.7-1.32,2.39-1,3.75.36,1.69,1.41,2.78,2.69,2.78h0a10.83,10.83,0,0,0,1.9,3.58A.91.91,0,0,0,20,29l.09.1v1.66a17.22,17.22,0,0,1-3.79,2.07C13.7,34,11,35.21,11,37.89V40.5a3.2,3.2,0,0,0,3.2,3.2H34.53c4.93,0,4.32-3.56,4-7.15C38.44,35.86,37.8,35.44,37,34.93ZM20.62,10.78l.13.41a.6.6,0,1,0,1.14-.36l-.3-.95a2.09,2.09,0,0,0,.73.2.59.59,0,0,0,.59-.3A.64.64,0,0,0,23,9.35a2.72,2.72,0,0,1-.06-.7c1.2.61,2.29,1,3.27,1.45,1.88.77,3.24,1.32,4.14,2.49s1.35,3,1.38,6l-.52.25c-.11.06-.26.14-.38.19h0v-.17c-.05-.8-.1-1.55-.15-2-.25-2.15-3.15-3.14-5.92-3.17h-.14c-2.78,0-5.66,1-6,3.15-.08.56-.11,1.29-.14,2.06V19l-.39-.18c-.18-.08-.35-.17-.52-.23C17.49,14.06,17.69,11.86,20.62,10.78ZM19,24.5a.6.6,0,0,0-.57-.42H18c-.84,0-1.34-1-1.52-1.83-.24-1.18,0-2.3.62-2.56l0,0,.42.19c.52.25,1.11.54,1.62.22a1.17,1.17,0,0,0,.48-1v-.12c0-.71.06-1.44.13-1.94.2-1.43,2.63-2.15,4.92-2.13,2.57,0,4.61.94,4.74,2.11.05.41.1,1.18.15,1.93v.18a1.21,1.21,0,0,0,.55,1.06c.53.3,1.1,0,1.6-.26l.38-.19c.59.23.88,1.26.68,2.42-.17,1-.71,2-1.55,2h-.44a.6.6,0,0,0-.57.42,9.52,9.52,0,0,1-2.12,3.91.39.39,0,0,0-.08.1,4.93,4.93,0,0,1-6.84,0,.39.39,0,0,0-.08-.1A9.52,9.52,0,0,1,19,24.5Zm2.1,7a.61.61,0,0,0,.2-.45v-1a6,6,0,0,0,6.65,0v1a.61.61,0,0,0,.2.45,7.66,7.66,0,0,0,1.17.86l-.94,1.47h-7.5l-.95-1.47a8.79,8.79,0,0,0,1.17-.86ZM27.6,35l-3,4.63-3-4.63Zm9.45,5.49a2,2,0,0,1-2,2H14.2a2,2,0,0,1-2-2h0V37.9c0-1.91,2.13-2.87,4.61-4,.7-.32,1.41-.63,2.08-1l5.23,8.12a.63.63,0,0,0,.32.26.61.61,0,0,0,.69-.25l5.23-8.13c.68.36,1.39.67,2.09,1,2.47,1.1,4.61,2.06,4.61,4Z"/></g></g></svg>