<svg xmlns="http://www.w3.org/2000/svg" viewBox="0 0 715.17 410.1"><defs><style>.cls-1{fill:#eaf2f9;}.cls-2{opacity:0.3;}.cls-3{fill:#acbde1;}.cls-4{fill:#dee9f6;}.cls-5{opacity:0.5;}.cls-6{fill:#c4d8f0;}.cls-7{opacity:0.2;}.cls-8{fill:#90aedb;}.cls-9{fill:#ef9347;}.cls-10{fill:#a4cb9b;}.cls-11{fill:#cf6d2d;}.cls-12{fill:#e3792f;}.cls-13{fill:#d8702c;}.cls-14{fill:#4b57a5;}.cls-15,.cls-17{fill:#fff;}.cls-16{fill:none;stroke:#dfded7;stroke-width:2px;stroke-dasharray:12.15;opacity:0.6;isolation:isolate;}.cls-16,.cls-17{stroke-linejoin:round;}.cls-17{stroke:#a2aebb;stroke-width:1.62px;}.cls-18{fill:#dfded7;}.cls-19{fill:#fafafa;}.cls-20{fill:#f5ad7c;}.cls-21{fill:#21365f;}.cls-22{fill:#92aad8;}.cls-23{fill:#e4935c;}.cls-24{fill:#0c2542;}.cls-25{fill:#13345d;}.cls-26{fill:#1a4383;}.cls-27{fill:#f3a06a;}.cls-28{fill:#2c3450;}</style></defs><g id="圖層_10" data-name="圖層 10"><g id="Group_5941" data-name="Group 5941"><g id="Group_5869" data-name="Group 5869"><path id="Path_41645" data-name="Path 41645" class="cls-1" d="M34.39,404.08s-48.53-73.43,4.33-159.82,123.85-42.95,120.42-143.5S305.86-9.55,358.93,19.61s99.92,12.45,163.3,14.49C625,37.4,653.8,138.82,625.3,188.18c-40.44,70,126.68,78.27,30.48,215.9Z"/></g><g id="Group_5870" data-name="Group 5870" class="cls-2"><path id="Path_41646" data-name="Path 41646" class="cls-3" d="M114.77,245.83c-4.78-17.53,23.51-27.77,23.51-27.77s32.86,16.29,38.27,14-25.38-19.41-25.38-19.41c9.21-6.68,41.12-9.31,41.12-9.31s16.55,31.79,21.22,28.2-16.09-27.4-16.09-27.4c11.12-2.71,26.4,3.14,26.4,3.14,21.56,11.48,5.7,38.58,5.7,38.58s6,10.89,19.8,19.3h0a42.52,42.52,0,0,1,6.6,4.35L253.35,271c-.62-.57-1.24-1.1-1.88-1.59h0l0,0-1.71-1.22h0c-1.69-1.08-2.89-1.9-3.71-2.53h0c-5.2-3.45-12.29-7.76-15.34-7.75a5.83,5.83,0,0,0-.14-1.5c0,.48.1,1,.14,1.5,1.14,12-20,26.56-33.75,31.25s-10.44-1.92-7.13-11.43,18.05-16.16,20.85-20.76-4.48-3.3-12.3,2.13-7.11,16-19.6,25.06-37.18-9.95-37.18-9.95c10.8-2.53,24.22-17.18,23-20.7s-25.29,11-29.62,12.3S119.55,263.35,114.77,245.83Z"/></g><g id="Group_5871" data-name="Group 5871"><path id="Path_41647" data-name="Path 41647" class="cls-4" d="M587.92,374.74c17.57-17.07-8.24-48.38-8.24-48.38s-49.32-3.62-54-10,42.78-5.13,42.78-5.13c-6.11-14.07-41.35-39-41.35-39s-41,25.57-44,18.2,37.48-20.79,37.48-20.79c-11-10.77-32.81-14.47-32.81-14.47C454.87,253.64,454.69,296,454.69,296s-14.41,8.55-36.22,8.82h0a57.59,57.59,0,0,0-10.66.52l1.95,3.53c1.1-.24,2.2-.43,3.27-.56,0,0,0,0,0,0h.05l2.82-.23h0c2.7-.09,4.66-.23,6-.39h0c8.4-.45,19.6-.58,23.12,1.52a7.83,7.83,0,0,1,1.2-1.65l-1.2,1.65c-9.58,13.2,5,44.54,17.75,59.43s13.44,4.94,16.11-8.37-9.86-31.14-10-38.41,7.47-.76,12.81,10.92-2.74,23.49,5.57,42.54,50,14,50,14c-10.8-10.34-16.33-36.57-12.5-39.82s21.79,30.16,26,34.61S570.34,391.81,587.92,374.74Z"/></g><g id="Group_5874" data-name="Group 5874"><g id="Group_5872" data-name="Group 5872" class="cls-5"><path id="Path_41648" data-name="Path 41648" class="cls-6" d="M215.84,194s-22.44-23.38-47.18-28.79a3.6,3.6,0,0,0-3.57,5.75l.1.13C168.82,175.51,198.15,183.73,215.84,194Z"/></g><g id="Group_5873" data-name="Group 5873" class="cls-5"><path id="Path_41649" data-name="Path 41649" class="cls-6" d="M223,200.11s-37.34-22.22-70.47-19.53a3.82,3.82,0,0,0-3.54,3.9c.06,1.32.81,2.88,3.08,4.5C158.11,193.28,197.44,193.44,223,200.11Z"/></g></g><g id="Group_5877" data-name="Group 5877" class="cls-5"><g id="Group_5875" data-name="Group 5875" class="cls-5"><path id="Path_41650" data-name="Path 41650" class="cls-3" d="M486.05,251.58s5.33-33.32,23.28-52.62a3.75,3.75,0,0,1,6.47,2.8c0,.06,0,.12,0,.18C515.33,207.89,495.11,232.32,486.05,251.58Z"/></g><g id="Group_5876" data-name="Group 5876" class="cls-5"><path id="Path_41651" data-name="Path 41651" class="cls-3" d="M483.58,261.08s18.76-41.17,48.7-58.51a4,4,0,0,1,5.35,1.23c.73,1.16,1,2.94,0,5.67C535,216.74,501.48,240.22,483.58,261.08Z"/></g></g><g id="Group_5878" data-name="Group 5878" class="cls-7"><path id="Path_41652" data-name="Path 41652" class="cls-8" d="M332.55,175l13.07-1.43a2.92,2.92,0,0,1,2.74,1.32c.75,1.17,1.56,2.33,2.42,3.46a48.85,48.85,0,0,0,5.16,5.79,2.87,2.87,0,0,1,.7,3.16l-5.05,12.78A2.82,2.82,0,0,0,353,203.7l11.24,5.61a2.79,2.79,0,0,0,3.58-1l6.84-10.64a2.78,2.78,0,0,1,3.14-1.2,50.94,50.94,0,0,0,15.93,1.63,2.91,2.91,0,0,1,2.9,2l2.28,7.35a2.92,2.92,0,0,0,3.32,2L414.43,207a2.46,2.46,0,0,0,.71-.23,2.81,2.81,0,0,0,1.57-2.86l-1.06-9.77-.26-2.38a50.81,50.81,0,0,0,12.91-10.32,2.8,2.8,0,0,1,3.13-.74l10.29,4.07a2.89,2.89,0,0,0,3.67-1.41l4.29-8.59,1.23-2.47a3,3,0,0,0-1-3.79L441,162.81a2.81,2.81,0,0,1-1.25-3.06,50.68,50.68,0,0,0,1.39-10.69c0-.3,0-.61,0-.91a1,1,0,0,1,0-.3,2.87,2.87,0,0,1,2-2.45l11.92-3.74a1.66,1.66,0,0,0,.39-.15,2.9,2.9,0,0,0,1.58-3.15l-2.41-12.2a2.89,2.89,0,0,0-3.16-2.32l-13.63,1.5a2.82,2.82,0,0,1-2.81-1.49,51.1,51.1,0,0,0-4.25-6.53c-.85-1.12-1.74-2.19-2.67-3.22a3,3,0,0,1-.55-3.06l4.85-12.29a2.81,2.81,0,0,0-1.36-3.56L420,89.66a3,3,0,0,0-3.81,1l-5.41,8.43a2.9,2.9,0,0,1-3.37,1.18A50.64,50.64,0,0,0,392,97.51a2.86,2.86,0,0,1-2.7-2l-3.37-10.75a3,3,0,0,0-3.4-2l-12.15,2.4a2.86,2.86,0,0,0-2.29,3.11l.06.58,1.24,11.34a2.92,2.92,0,0,1-1.58,2.92h0a49.76,49.76,0,0,0-7.55,4.77c-1.29,1-2.5,2-3.69,3.1a2.85,2.85,0,0,1-3,.57l-10.45-4.14a3,3,0,0,0-3.73,1.43l-5.52,11.08a3.19,3.19,0,0,0-.28,1,3,3,0,0,0,1.31,2.76l7.11,4.55a3,3,0,0,1,1.33,2.56,3.64,3.64,0,0,1-.15.8,50.41,50.41,0,0,0-2.63,19.79A2.84,2.84,0,0,1,339,154a3.52,3.52,0,0,1-.45.18l-9.66,3a2.88,2.88,0,0,0-2,3.31l.05.28,2.34,11.89A2.94,2.94,0,0,0,332.55,175Zm83.7-36.87a33.63,33.63,0,0,1,1.75,6,26.5,26.5,0,0,1-1.93,14.34c-.2.4-.4.8-.61,1.19-12.85,23.7-46.35,18.88-51.8-7.91a27.63,27.63,0,0,1,1-12.51,18.16,18.16,0,0,1,1-2.46,31.1,31.1,0,0,1,6.26-8.57,27.26,27.26,0,0,1,44.3,9.88Z"/></g><g id="Group_5879" data-name="Group 5879"><path id="Path_41653" data-name="Path 41653" class="cls-3" d="M497.93,153.63l8.11-.89a1.77,1.77,0,0,1,1.7.82c.47.73,1,1.44,1.5,2.14a29.61,29.61,0,0,0,3.2,3.6,1.8,1.8,0,0,1,.44,2l-3.14,7.94a1.75,1.75,0,0,0,.86,2.22l7,3.48a1.73,1.73,0,0,0,2.23-.61l4.24-6.61a1.75,1.75,0,0,1,2-.75,31.5,31.5,0,0,0,9.9,1,1.8,1.8,0,0,1,1.8,1.25l1.42,4.57a1.82,1.82,0,0,0,2.06,1.23l7.6-1.52a1.41,1.41,0,0,0,.44-.14,1.74,1.74,0,0,0,1-1.78l-.66-6.06-.16-1.48a31.42,31.42,0,0,0,8-6.41,1.73,1.73,0,0,1,1.94-.46l6.39,2.53a1.8,1.8,0,0,0,2.28-.88l2.67-5.33.76-1.54a1.82,1.82,0,0,0-.65-2.35L565.26,146a1.74,1.74,0,0,1-.77-1.9,31.72,31.72,0,0,0,.86-6.65,5.15,5.15,0,0,0,0-.56,1.21,1.21,0,0,1,0-.19,1.8,1.8,0,0,1,1.26-1.52l7.41-2.32a1.22,1.22,0,0,0,.24-.1,1.8,1.8,0,0,0,1-2l-1.5-7.58a1.79,1.79,0,0,0-2-1.44l-8.47.93a1.72,1.72,0,0,1-1.74-.92,31,31,0,0,0-2.64-4.06c-.53-.69-1.08-1.36-1.66-2a1.86,1.86,0,0,1-.34-1.9l3-7.63a1.75,1.75,0,0,0-.84-2.21l-6.91-3.44a1.84,1.84,0,0,0-2.37.65l-3.36,5.23a1.8,1.8,0,0,1-2.1.74,31.34,31.34,0,0,0-9.54-1.74,1.79,1.79,0,0,1-1.68-1.26l-2.09-6.68A1.85,1.85,0,0,0,529,96.28l-7.55,1.49A1.77,1.77,0,0,0,520,99.7l0,.36.76,7a1.8,1.8,0,0,1-1,1.82h0a31.67,31.67,0,0,0-4.69,3c-.8.61-1.56,1.26-2.29,1.93a1.79,1.79,0,0,1-1.87.36l-6.48-2.57a1.83,1.83,0,0,0-2.32.88l-3.42,6.88a1.6,1.6,0,0,0-.18.6,1.84,1.84,0,0,0,.81,1.72l4.42,2.82a1.82,1.82,0,0,1,.82,1.59,2.1,2.1,0,0,1-.09.5,31.3,31.3,0,0,0-1.63,12.29,1.75,1.75,0,0,1-.95,1.69,1.69,1.69,0,0,1-.28.12l-6,1.87a1.81,1.81,0,0,0-1.23,2.06l0,.17,1.45,7.39A1.84,1.84,0,0,0,497.93,153.63Zm52-22.9a21.22,21.22,0,0,1,1.1,3.75,16.56,16.56,0,0,1-1.2,8.9l-.38.73c-8,14.72-28.79,11.73-32.17-4.91a17.14,17.14,0,0,1,.63-7.76,10.25,10.25,0,0,1,.63-1.53,19.1,19.1,0,0,1,3.89-5.32,16.9,16.9,0,0,1,27.5,6.14Z"/></g><g id="Group_5880" data-name="Group 5880"><path id="Path_41654" data-name="Path 41654" class="cls-9" d="M450.6,104.05l5.54-1.86a1.29,1.29,0,0,1,1.31.31c.44.44.9.87,1.38,1.28a22.06,22.06,0,0,0,2.79,2,1.27,1.27,0,0,1,.6,1.31l-1,6a1.25,1.25,0,0,0,.94,1.42l5.41,1.38a1.26,1.26,0,0,0,1.47-.77l2-5.27a1.24,1.24,0,0,1,1.25-.82,22.54,22.54,0,0,0,7.08-.8,1.27,1.27,0,0,1,1.44.6l1.69,3a1.3,1.3,0,0,0,1.63.54l5.08-2.21a1.38,1.38,0,0,0,.29-.17,1.24,1.24,0,0,0,.41-1.39l-1.38-4.15-.34-1a21.34,21.34,0,0,0,2.21-2.25,23,23,0,0,0,2.42-3.45,1.24,1.24,0,0,1,1.29-.62L499,98a1.29,1.29,0,0,0,1.46-1l1-4.14.3-1.19a1.3,1.3,0,0,0-.81-1.55l-4.4-1.64a1.25,1.25,0,0,1-.83-1.21,21.85,21.85,0,0,0-.41-4.78,2.57,2.57,0,0,0-.07-.4.59.59,0,0,1,0-.13,1.27,1.27,0,0,1,.65-1.26L500.7,78a.78.78,0,0,0,.15-.1,1.29,1.29,0,0,0,.39-1.52L499,71.26a1.27,1.27,0,0,0-1.59-.71l-5.78,1.94a1.23,1.23,0,0,1-1.36-.38,22.67,22.67,0,0,0-2.46-2.44c-.48-.41-1-.79-1.47-1.15a1.31,1.31,0,0,1-.53-1.27l.95-5.8a1.26,1.26,0,0,0-.93-1.42l-5.36-1.35a1.31,1.31,0,0,0-1.56.81l-1.55,4.17a1.3,1.3,0,0,1-1.35.84,22.2,22.2,0,0,0-6.95.23,1.26,1.26,0,0,1-1.36-.63l-2.48-4.35a1.34,1.34,0,0,0-1.67-.56l-5.06,2.19a1.27,1.27,0,0,0-.7,1.57l.08.24L459.52,68a1.29,1.29,0,0,1-.41,1.41h0a21.93,21.93,0,0,0-2.83,2.79A21.2,21.2,0,0,0,455,73.91a1.27,1.27,0,0,1-1.25.54l-4.93-.81a1.31,1.31,0,0,0-1.49,1L446,79.94a1.14,1.14,0,0,0,0,.45,1.31,1.31,0,0,0,.82,1.08l3.53,1.3a1.29,1.29,0,0,1,.81,1,1.53,1.53,0,0,1,0,.37,22.38,22.38,0,0,0,.73,8.84,1.26,1.26,0,0,1-.41,1.33.94.94,0,0,1-.18.12l-3.91,2.23a1.29,1.29,0,0,0-.55,1.62l0,.12,2.15,5A1.3,1.3,0,0,0,450.6,104.05Zm32.88-23.94a15.37,15.37,0,0,1,1.33,2.46,11.87,11.87,0,0,1,.52,6.41l-.15.58c-3.35,11.51-18.36,12.59-23.26,1.46a12.27,12.27,0,0,1-.74-5.53,9.54,9.54,0,0,1,.2-1.17A14,14,0,0,1,463.29,80a12.11,12.11,0,0,1,16.8-3.32,12.26,12.26,0,0,1,3.39,3.42Z"/></g><g id="Group_5881" data-name="Group 5881"><path id="Path_41655" data-name="Path 41655" class="cls-10" d="M53,403.6h23.9c1.28-1.09-.89-3.55-3.15-3.72a14,14,0,0,0-3.65.43c-.33-4.37-2.21-24-9.29-23.21-8,.88,0,8.64,2.25,13.24a106.18,106.18,0,0,1,4.23,10.59c-.64.14-1.31.28-2,.4-1-3.24-5-14.13-10-13.5-5.86.75-3.5,5.11.65,7.7,3,1.91,6.79,4.62,8.57,5.93a25.33,25.33,0,0,1-4.68.37C55.75,401.74,53.75,403,53,403.6Z"/></g><g id="Group_5882" data-name="Group 5882"><path id="Path_41656" data-name="Path 41656" class="cls-10" d="M639.07,403h-27c-1.45-1.23,1-4,3.56-4.21a15.86,15.86,0,0,1,4.12.49c.38-4.94,2.5-27.14,10.5-26.25,9,1,0,9.78-2.54,15a123.49,123.49,0,0,0-4.78,12c.73.16,1.49.31,2.26.46,1.19-3.67,5.63-16,11.27-15.27,6.63.84,4,5.78-.73,8.71-3.45,2.16-7.68,5.23-9.69,6.7a28.47,28.47,0,0,0,5.29.43C635.94,400.92,638.19,402.29,639.07,403Z"/></g><g id="Group_5895" data-name="Group 5895"><g id="Group_5883" data-name="Group 5883"><path id="Path_41657" data-name="Path 41657" class="cls-11" d="M339.24,238.19,326.17,393.62s-1.37,9.42,5.64,9.44c11.52,0,57.35,0,57.35,0s-8.67-2-8.57-6.37c.13-5.2,15.28-160,15.28-160Z"/></g><g id="Group_5884" data-name="Group 5884"><path id="Path_41658" data-name="Path 41658" class="cls-9" d="M393.47,400.3c-2.26,0-46.63.08-57.85-.06-4.89-.06-5.75-4.35-5.79-7.12a12.86,12.86,0,0,1,.15-2.32l.34-4,.86-10.3.77-9.1,1-11.69.83-9.86,9.29-110.44,56.63-1.47s-6.38,64.76-10.9,111.91c-.5,5.25-1,10.29-1.43,15-.14,1.5-.28,3-.41,4.4-.42,4.46-.8,8.55-1.14,12.17-.17,1.91-.34,3.68-.48,5.3-.58,6.36-.92,10.42-.92,11.19a6,6,0,0,0,.11,1.26C385.44,400.08,392.62,400.3,393.47,400.3Z"/></g><g id="Group_5885" data-name="Group 5885"><path id="Path_41659" data-name="Path 41659" class="cls-9" d="M201.71,153.62l31.84,127.9L237.91,299l14.83,59.57H528.26l-54.66-205Z"/></g><g id="Group_5886" data-name="Group 5886"><path id="Path_41660" data-name="Path 41660" class="cls-11" d="M201.71,153.62l-4.41,1.47,49.57,208,5.87-4.45Z"/></g><g id="Group_5887" data-name="Group 5887"><path id="Path_41661" data-name="Path 41661" class="cls-12" d="M246.87,363.05H520.69l7.56-4.45H252.74Z"/></g><g id="Group_5888" data-name="Group 5888"><rect id="Rectangle_3325" data-name="Rectangle 3325" class="cls-9" x="343.03" y="400.3" width="59.29" height="2.82"/></g><g id="Group_5889" data-name="Group 5889"><path id="Path_41662" data-name="Path 41662" class="cls-13" d="M387.25,363.05l-.31,2.15-55.76,11.27.77-9.1.36-4.33Z"/></g><g id="Group_5890" data-name="Group 5890" class="cls-5"><path id="Path_41663" data-name="Path 41663" class="cls-12" d="M393.48,400.3c-2.27,0-46.64.08-57.86-.06-4.89-.06-5.75-4.35-5.79-7.12l55.49-10.44c-.57,6.35-.91,10.41-.91,11.19a5.81,5.81,0,0,0,.11,1.25C385.44,400.08,392.62,400.3,393.48,400.3Z"/></g><g id="Group_5891" data-name="Group 5891"><path id="Path_41664" data-name="Path 41664" class="cls-12" d="M201.71,153.62H473.59l44.12,164.74h-275Z"/></g><g id="Group_5892" data-name="Group 5892"><path id="Path_41665" data-name="Path 41665" class="cls-14" d="M504.88,311.22H250.32L241.22,275l-3.52-14-1.44-5.72L226.91,218l-.48-1.94-4.94-19.69-2.21-8.8-1.89-7.52L213,162.44h250.9l4.85,17.61,2.07,7.52,2.43,8.8,16,58h0l1.36,4.92.63,2.28,11,40.06Z"/></g><g id="Group_5893" data-name="Group 5893"><path id="Path_41666" data-name="Path 41666" class="cls-12" d="M346,318.36l-93.19,40.72-10.1-40.72Z"/></g><path id="question-circle" class="cls-15" d="M378.55,229.34c0,11.52-12.44,11.7-12.44,15.95v1.09a2.06,2.06,0,0,1-2.06,2.06h-7.84a2.07,2.07,0,0,1-2.07-2.06h0v-1.49c0-6.14,4.66-8.6,8.18-10.57,3-1.69,4.87-2.84,4.87-5.08,0-3-3.78-4.93-6.84-4.93-4,0-5.82,1.88-8.41,5.15a2.06,2.06,0,0,1-2.86.36l-4.78-3.62a2.05,2.05,0,0,1-.45-2.81,19.28,19.28,0,0,1,17.27-9.31C369.55,214.08,378.55,220.66,378.55,229.34Zm-11.21,28.72a7.22,7.22,0,1,1-7.22-7.22,7.21,7.21,0,0,1,7.22,7.22Z"/><path id="Stroke_1" data-name="Stroke 1" class="cls-16" d="M359.34,281.52a44.75,44.75,0,1,1,44.76-44.75,44.75,44.75,0,0,1-44.76,44.75Z"/><path id="Stroke_3" data-name="Stroke 3" class="cls-16" d="M359.28,300.14a63.39,63.39,0,1,1,63.4-63.39,63.39,63.39,0,0,1-63.4,63.39Z"/><path id="Fill_6" data-name="Fill 6" class="cls-15" d="M304.46,246.4l7.6-.39-5.57,5.19Z"/><path id="Stroke_7" data-name="Stroke 7" class="cls-17" d="M304.46,246.4l7.6-.39-5.57,5.19Z"/><path id="Fill_8" data-name="Fill 8" class="cls-15" d="M283.24,251.11l7.59-3.22L296,260l-7.6,3.22Z"/><path id="Stroke_9" data-name="Stroke 9" class="cls-17" d="M283.24,251.11l7.59-3.22L296,260l-7.6,3.22Z"/><path id="Fill_10" data-name="Fill 10" class="cls-15" d="M289.55,245.28l1.87-.8,7.4,17.42-1.88.8Z"/><path id="Stroke_11" data-name="Stroke 11" class="cls-17" d="M289.55,245.28l1.87-.8,7.4,17.42-1.88.8Z"/><path id="Fill_12" data-name="Fill 12" class="cls-15" d="M291.28,266.87l7-3,8.88,20.91-7,3Z"/><path id="Stroke_13" data-name="Stroke 13" class="cls-17" d="M291.28,266.87l7-3,8.88,20.91-7,3Z"/><path id="Fill_14" data-name="Fill 14" class="cls-15" d="M293,248.2l1.3-.55,4.24,10-1.3.55Z"/><path id="Stroke_15" data-name="Stroke 15" class="cls-17" d="M293,248.2l1.3-.55,4.24,10-1.3.55Z"/><path id="Fill_16" data-name="Fill 16" class="cls-15" d="M295.14,249.41l3-1.28.29.68-3,1.27Z"/><path id="Stroke_17" data-name="Stroke 17" class="cls-17" d="M295.14,249.41l3-1.28.29.68-3,1.27Z"/><path id="Fill_18" data-name="Fill 18" class="cls-15" d="M297.58,255.15l3-1.28.29.68-3,1.27Z"/><path id="Stroke_19" data-name="Stroke 19" class="cls-17" d="M297.58,255.15l3-1.28.29.68-3,1.27Z"/><path id="Fill_20" data-name="Fill 20" class="cls-15" d="M293.51,262.38l1.28,3-.67.29-1.28-3Z"/><path id="Stroke_21" data-name="Stroke 21" class="cls-17" d="M293.51,262.38l1.28,3-.67.29-1.28-3Z"/><path id="Fill_22" data-name="Fill 22" class="cls-15" d="M281.51,254.17l1.73-3.06,5.13,12.07-3.4-.89Z"/><path id="Stroke_23" data-name="Stroke 23" class="cls-17" d="M281.51,254.17l1.73-3.06,5.13,12.07-3.4-.89Z"/><path id="Fill_24" data-name="Fill 24" class="cls-15" d="M281.51,254.17l-2.11-1.42,5.12,12.06.44-2.51Z"/><path id="Stroke_25" data-name="Stroke 25" class="cls-17" d="M281.51,254.17l-2.11-1.42,5.12,12.06.44-2.51Z"/><path id="Fill_26" data-name="Fill 26" class="cls-15" d="M280.27,255l-2.16-.44,1.52,3.6,1.19-1.86Z"/><path id="Stroke_27" data-name="Stroke 27" class="cls-17" d="M280.27,255l-2.16-.44,1.52,3.6,1.19-1.86Z"/><path id="Fill_28" data-name="Fill 28" class="cls-15" d="M283,261.35l-2.16-.43,1.53,3.6,1.18-1.86Z"/><path id="Stroke_29" data-name="Stroke 29" class="cls-17" d="M283,261.35l-2.16-.43,1.53,3.6,1.18-1.86Z"/><path id="Fill_30" data-name="Fill 30" class="cls-15" d="M294.66,248.27l.9-.38,1.24,2.91-.9.39Z"/><path id="Stroke_31" data-name="Stroke 31" class="cls-17" d="M294.66,248.27l.9-.38,1.24,2.91-.9.39Z"/><path id="Fill_32" data-name="Fill 32" class="cls-15" d="M297.11,254l.9-.38,1.23,2.91-.9.38Z"/><path id="Stroke_33" data-name="Stroke 33" class="cls-17" d="M297.11,254l.9-.38,1.23,2.91-.9.38Z"/><path id="Fill_34" data-name="Fill 34" class="cls-15" d="M292,261.64l1.35-.58.62,1.46-1.35.57Z"/><path id="Stroke_35" data-name="Stroke 35" class="cls-17" d="M292,261.64l1.35-.58.62,1.46-1.35.57Z"/><path id="Fill_36" data-name="Fill 36" class="cls-15" d="M300,251.14c-2.28-5.38-1.93-10.85.62-13.32.42-.4,1.39-1.09,2.16.72L311,257.77c.7,1.64-.34,2.15-.92,2.17C306.5,260.07,302.32,256.52,300,251.14Z"/><path id="Stroke_38" data-name="Stroke 38" class="cls-17" d="M300,251.14c-2.28-5.38-1.93-10.85.62-13.32.42-.4,1.39-1.09,2.16.72L311,257.77c.7,1.64-.34,2.15-.92,2.17C306.5,260.07,302.32,256.52,300,251.14Z"/><path id="Fill_40" data-name="Fill 40" class="cls-15" d="M297.9,247.55l.9-.38,3.21,7.55-.9.38Z"/><path id="Stroke_42" data-name="Stroke 42" class="cls-17" d="M297.9,247.55l.9-.38,3.21,7.55-.9.38Z"/><path id="Fill_44" data-name="Fill 44" class="cls-15" d="M312.75,246.88a1.08,1.08,0,1,1,.56-1.41h0a1.07,1.07,0,0,1-.56,1.41"/><path id="Fill_46" data-name="Fill 46" class="cls-15" d="M297.72,266.71l-.34-.79.79-.34.34.79Z"/><path id="Stroke_48" data-name="Stroke 48" class="cls-15" d="M297.72,266.71l-.34-.79.79-.34.34.79Z"/><path id="Fill_50" data-name="Fill 50" class="cls-15" d="M298.26,268l-.33-.79.78-.34.34.79Z"/><path id="Stroke_52" data-name="Stroke 52" class="cls-15" d="M298.26,268l-.33-.79.78-.34.34.79Z"/><path id="Fill_54" data-name="Fill 54" class="cls-15" d="M298.81,269.27l-.34-.79.79-.33.33.78Z"/><path id="Stroke_56" data-name="Stroke 56" class="cls-15" d="M298.81,269.27l-.34-.79.79-.33.33.78Z"/><path id="Fill_58" data-name="Fill 58" class="cls-15" d="M299.35,270.55l-.34-.79.79-.33.34.79Z"/><path id="Stroke_60" data-name="Stroke 60" class="cls-15" d="M299.35,270.55l-.34-.79.79-.33.34.79Z"/><path id="Fill_62" data-name="Fill 62" class="cls-15" d="M296.53,267.21l-.33-.79.79-.34.33.79Z"/><path id="Stroke_64" data-name="Stroke 64" class="cls-15" d="M296.53,267.21l-.33-.79.79-.34.33.79Z"/><path id="Fill_66" data-name="Fill 66" class="cls-15" d="M297.08,268.49l-.34-.79.79-.33.34.78Z"/><path id="Stroke_68" data-name="Stroke 68" class="cls-15" d="M297.08,268.49l-.34-.79.79-.33.34.78Z"/><path id="Fill_70" data-name="Fill 70" class="cls-15" d="M297.62,269.77l-.33-.79.79-.33.33.79Z"/><path id="Stroke_72" data-name="Stroke 72" class="cls-15" d="M297.29,269l.79-.33.33.79-.79.33Z"/><path id="Fill_74" data-name="Fill 74" class="cls-15" d="M298.17,271.05l-.34-.79.79-.33.34.79Z"/><path id="Stroke_76" data-name="Stroke 76" class="cls-15" d="M298.17,271.05l-.34-.79.79-.33.34.79Z"/><path id="Fill_78" data-name="Fill 78" class="cls-15" d="M295.35,267.71l-.34-.79.79-.33.34.78Z"/><path id="Stroke_80" data-name="Stroke 80" class="cls-15" d="M295.35,267.71l-.34-.79.79-.33.34.78Z"/><path id="Fill_82" data-name="Fill 82" class="cls-15" d="M295.89,269l-.33-.79.79-.33.33.79Z"/><path id="Stroke_84" data-name="Stroke 84" class="cls-15" d="M295.89,269l-.33-.79.79-.33.33.79Z"/><path id="Fill_86" data-name="Fill 86" class="cls-15" d="M296.44,270.27l-.34-.79.79-.33.34.79Z"/><path id="Stroke_88" data-name="Stroke 88" class="cls-15" d="M296.44,270.27l-.34-.79.79-.33.34.79Z"/><path id="Fill_90" data-name="Fill 90" class="cls-15" d="M297,271.56l-.33-.79.79-.34.33.79Z"/><path id="Stroke_92" data-name="Stroke 92" class="cls-15" d="M297,271.56l-.33-.79.79-.34.33.79Z"/><path id="Fill_94" data-name="Fill 94" class="cls-15" d="M294.17,268.21l-.34-.79.79-.33.34.79Z"/><path id="Stroke_96" data-name="Stroke 96" class="cls-15" d="M294.17,268.21l-.34-.79.79-.33.34.79Z"/><path id="Fill_98" data-name="Fill 98" class="cls-15" d="M294.71,269.49l-.33-.79.78-.33.34.79Z"/><path id="Stroke_100" data-name="Stroke 100" class="cls-15" d="M294.71,269.49l-.33-.79.78-.33.34.79Z"/><path id="Fill_102" data-name="Fill 102" class="cls-15" d="M295.26,270.78l-.34-.79.79-.34.33.79Z"/><path id="Stroke_104" data-name="Stroke 104" class="cls-15" d="M295.26,270.78l-.34-.79.79-.34.33.79Z"/><path id="Fill_106" data-name="Fill 106" class="cls-15" d="M295.8,272.06l-.34-.79.79-.33.34.79Z"/><path id="Stroke_108" data-name="Stroke 108" class="cls-15" d="M295.8,272.06l-.34-.79.79-.33.34.79Z"/><path id="Fill_110" data-name="Fill 110" class="cls-15" d="M293,268.71l-.33-.78.79-.34.33.79Z"/><path id="Stroke_112" data-name="Stroke 112" class="cls-15" d="M293,268.71l-.33-.78.79-.34.33.79Z"/><path id="Fill_114" data-name="Fill 114" class="cls-15" d="M293.53,270l-.34-.79.79-.34.34.79Z"/><path id="Stroke_116" data-name="Stroke 116" class="cls-15" d="M293.53,270l-.34-.79.79-.34.34.79Z"/><path id="Fill_118" data-name="Fill 118" class="cls-15" d="M294.07,271.28l-.33-.79.79-.34.33.79Z"/><path id="Stroke_120" data-name="Stroke 120" class="cls-15" d="M294.07,271.28l-.33-.79.79-.34.33.79Z"/><path id="Fill_122" data-name="Fill 122" class="cls-15" d="M294.62,272.56l-.34-.79.79-.33.33.79Z"/><path id="Stroke_124" data-name="Stroke 124" class="cls-15" d="M294.62,272.56l-.34-.79.79-.33.33.79Z"/><path id="Fill_126" data-name="Fill 126" class="cls-15" d="M300.57,273.42l-.34-.79.79-.34.34.79Z"/><path id="Stroke_128" data-name="Stroke 128" class="cls-15" d="M300.57,273.42l-.34-.79.79-.34.34.79Z"/><path id="Fill_130" data-name="Fill 130" class="cls-15" d="M301.11,274.7l-.34-.79.79-.33.34.78Z"/><path id="Stroke_132" data-name="Stroke 132" class="cls-15" d="M301.11,274.7l-.34-.79.79-.33.34.78Z"/><path id="Fill_134" data-name="Fill 134" class="cls-15" d="M301.66,276l-.34-.79.79-.33.33.79Z"/><path id="Stroke_136" data-name="Stroke 136" class="cls-15" d="M301.66,276l-.34-.79.79-.33.33.79Z"/><path id="Fill_138" data-name="Fill 138" class="cls-15" d="M302.2,277.26l-.34-.78.79-.34.34.79Z"/><path id="Stroke_140" data-name="Stroke 140" class="cls-15" d="M302.2,277.26l-.34-.78.79-.34.34.79Z"/><path id="Fill_142" data-name="Fill 142" class="cls-15" d="M299.38,273.92l-.33-.79.79-.33.33.79Z"/><path id="Stroke_144" data-name="Stroke 144" class="cls-15" d="M299.38,273.92l-.33-.79.79-.33.33.79Z"/><path id="Fill_146" data-name="Fill 146" class="cls-15" d="M299.93,275.2l-.34-.79.79-.33.34.78Z"/><path id="Stroke_148" data-name="Stroke 148" class="cls-15" d="M299.93,275.2l-.34-.79.79-.33.34.78Z"/><path id="Fill_150" data-name="Fill 150" class="cls-15" d="M300.47,276.48l-.33-.78.79-.34.33.79Z"/><path id="Stroke_152" data-name="Stroke 152" class="cls-15" d="M300.47,276.48l-.33-.78.79-.34.33.79Z"/><path id="Fill_154" data-name="Fill 154" class="cls-15" d="M301,277.77l-.34-.79.79-.34.34.79Z"/><path id="Stroke_156" data-name="Stroke 156" class="cls-15" d="M301,277.77l-.34-.79.79-.34.34.79Z"/><path id="Fill_158" data-name="Fill 158" class="cls-15" d="M298.2,274.42l-.33-.79.78-.33.34.79Z"/><path id="Stroke_160" data-name="Stroke 160" class="cls-15" d="M298.2,274.42l-.33-.79.78-.33.34.79Z"/><path id="Fill_162" data-name="Fill 162" class="cls-15" d="M298.74,275.7l-.33-.79.79-.33.33.79Z"/><path id="Stroke_164" data-name="Stroke 164" class="cls-15" d="M298.74,275.7l-.33-.79.79-.33.33.79Z"/><path id="Fill_166" data-name="Fill 166" class="cls-15" d="M299.29,277l-.34-.79.79-.34.34.79Z"/><path id="Stroke_168" data-name="Stroke 168" class="cls-15" d="M299.29,277l-.34-.79.79-.34.34.79Z"/><path id="Fill_170" data-name="Fill 170" class="cls-15" d="M299.83,278.27l-.33-.79.79-.34.33.79Z"/><path id="Stroke_172" data-name="Stroke 172" class="cls-15" d="M299.83,278.27l-.33-.79.79-.34.33.79Z"/><path id="Fill_174" data-name="Fill 174" class="cls-15" d="M297,274.92l-.34-.78.79-.34.33.79Z"/><path id="Stroke_176" data-name="Stroke 176" class="cls-15" d="M297,274.92l-.34-.78.79-.34.33.79Z"/><path id="Fill_178" data-name="Fill 178" class="cls-15" d="M297.56,276.2l-.33-.79.79-.33.33.79Z"/><path id="Stroke_180" data-name="Stroke 180" class="cls-15" d="M297.56,276.2l-.33-.79.79-.33.33.79Z"/><path id="Fill_182" data-name="Fill 182" class="cls-15" d="M298.11,277.49l-.34-.79.79-.34.33.79Z"/><path id="Stroke_184" data-name="Stroke 184" class="cls-15" d="M298.11,277.49l-.34-.79.79-.34.33.79Z"/><path id="Fill_186" data-name="Fill 186" class="cls-15" d="M298.65,278.77l-.34-.79.79-.33.34.79Z"/><path id="Stroke_188" data-name="Stroke 188" class="cls-15" d="M298.65,278.77l-.34-.79.79-.33.34.79Z"/><path id="Fill_190" data-name="Fill 190" class="cls-15" d="M295.83,275.43l-.33-.79.79-.34.33.79Z"/><path id="Stroke_192" data-name="Stroke 192" class="cls-15" d="M295.83,275.43l-.33-.79.79-.34.33.79Z"/><path id="Fill_194" data-name="Fill 194" class="cls-15" d="M296.38,276.71l-.34-.79.79-.33.34.78Z"/><path id="Stroke_196" data-name="Stroke 196" class="cls-15" d="M296.38,276.71l-.34-.79.79-.33.34.78Z"/><path id="Fill_198" data-name="Fill 198" class="cls-15" d="M296.92,278l-.33-.79.79-.33.33.79Z"/><path id="Stroke_200" data-name="Stroke 200" class="cls-15" d="M296.92,278l-.33-.79.79-.33.33.79Z"/><path id="Fill_202" data-name="Fill 202" class="cls-15" d="M297.46,279.27l-.33-.79.79-.33.33.79Z"/><path id="Stroke_204" data-name="Stroke 204" class="cls-15" d="M297.46,279.27l-.33-.79.79-.33.33.79Z"/><path id="Fill_206" data-name="Fill 206" class="cls-15" d="M303.42,280.13l-.34-.79.79-.33.34.79Z"/><path id="Stroke_208" data-name="Stroke 208" class="cls-15" d="M303.42,280.13l-.34-.79.79-.33.34.79Z"/><path id="Fill_210" data-name="Fill 210" class="cls-15" d="M304,281.41l-.33-.79.79-.33.33.79Z"/><path id="Stroke_212" data-name="Stroke 212" class="cls-15" d="M304,281.41l-.33-.79.79-.33.33.79Z"/><path id="Fill_214" data-name="Fill 214" class="cls-15" d="M304.51,282.7l-.34-.79.79-.34.33.79Z"/><path id="Stroke_216" data-name="Stroke 216" class="cls-15" d="M304.51,282.7l-.34-.79.79-.34.33.79Z"/><path id="Fill_218" data-name="Fill 218" class="cls-15" d="M305.05,284l-.33-.79.78-.34.34.79Z"/><path id="Stroke_220" data-name="Stroke 220" class="cls-15" d="M305.05,284l-.33-.79.78-.34.34.79Z"/><path id="Fill_222" data-name="Fill 222" class="cls-15" d="M302.23,280.63l-.33-.78.79-.34.33.79Z"/><path id="Stroke_224" data-name="Stroke 224" class="cls-15" d="M302.23,280.63l-.33-.78.79-.34.33.79Z"/><path id="Fill_226" data-name="Fill 226" class="cls-15" d="M302.78,281.92l-.34-.79.79-.34.34.79Z"/><path id="Stroke_228" data-name="Stroke 228" class="cls-15" d="M302.78,281.92l-.34-.79.79-.34.34.79Z"/><path id="Fill_230" data-name="Fill 230" class="cls-15" d="M303.32,283.2l-.33-.79.79-.34.33.79Z"/><path id="Stroke_232" data-name="Stroke 232" class="cls-15" d="M303.32,283.2l-.33-.79.79-.34.33.79Z"/><path id="Fill_234" data-name="Fill 234" class="cls-15" d="M303.87,284.48l-.34-.79.79-.33.34.78Z"/><path id="Stroke_236" data-name="Stroke 236" class="cls-15" d="M303.87,284.48l-.34-.79.79-.33.34.78Z"/><path id="Fill_238" data-name="Fill 238" class="cls-15" d="M301.05,281.14l-.33-.79.79-.34.33.79Z"/><path id="Stroke_240" data-name="Stroke 240" class="cls-15" d="M301.05,281.14l-.33-.79.79-.34.33.79Z"/><path id="Fill_242" data-name="Fill 242" class="cls-15" d="M301.6,282.42l-.34-.79.79-.34.33.79Z"/><path id="Stroke_244" data-name="Stroke 244" class="cls-15" d="M301.6,282.42l-.34-.79.79-.34.33.79Z"/><path id="Fill_246" data-name="Fill 246" class="cls-15" d="M302.14,283.7l-.34-.79.79-.33.34.79Z"/><path id="Stroke_248" data-name="Stroke 248" class="cls-15" d="M302.14,283.7l-.34-.79.79-.33.34.79Z"/><path id="Fill_250" data-name="Fill 250" class="cls-15" d="M302.68,285l-.33-.79.79-.33.33.79Z"/><path id="Stroke_252" data-name="Stroke 252" class="cls-15" d="M302.68,285l-.33-.79.79-.33.33.79Z"/><path id="Fill_254" data-name="Fill 254" class="cls-15" d="M299.87,281.64l-.34-.79.79-.34.34.79Z"/><path id="Stroke_256" data-name="Stroke 256" class="cls-15" d="M299.87,281.64l-.34-.79.79-.34.34.79Z"/><path id="Fill_258" data-name="Fill 258" class="cls-15" d="M300.41,282.92l-.33-.79.79-.33.33.79Z"/><path id="Stroke_260" data-name="Stroke 260" class="cls-15" d="M300.41,282.92l-.33-.79.79-.33.33.79Z"/><path id="Fill_262" data-name="Fill 262" class="cls-15" d="M301,284.2l-.34-.79.79-.33.34.79Z"/><path id="Stroke_264" data-name="Stroke 264" class="cls-15" d="M301,284.2l-.34-.79.79-.33.34.79Z"/><path id="Fill_266" data-name="Fill 266" class="cls-15" d="M301.5,285.48l-.33-.78.78-.34.34.79Z"/><path id="Stroke_268" data-name="Stroke 268" class="cls-15" d="M301.5,285.48l-.33-.78.78-.34.34.79Z"/><path id="Fill_270" data-name="Fill 270" class="cls-15" d="M298.68,282.14l-.33-.79.79-.33.33.79Z"/><path id="Stroke_272" data-name="Stroke 272" class="cls-15" d="M298.35,281.35l.79-.33.33.79-.79.33Z"/><path id="Fill_274" data-name="Fill 274" class="cls-15" d="M299.23,283.42l-.34-.79.79-.33.34.79Z"/><path id="Stroke_276" data-name="Stroke 276" class="cls-15" d="M299.23,283.42l-.34-.79.79-.33.34.79Z"/><path id="Fill_278" data-name="Fill 278" class="cls-15" d="M299.77,284.7l-.33-.78.79-.34.33.79Z"/><path id="Stroke_280" data-name="Stroke 280" class="cls-15" d="M299.77,284.7l-.33-.78.79-.34.33.79Z"/><path id="Fill_282" data-name="Fill 282" class="cls-15" d="M300.32,286l-.34-.79.79-.34.34.79Z"/><path id="Stroke_284" data-name="Stroke 284" class="cls-15" d="M300.32,286l-.34-.79.79-.34.34.79Z"/><path id="Fill_286" data-name="Fill 286" class="cls-15" d="M282.57,246.35l7-3-8.88-20.9-7,3Z"/><path id="Fill_290" data-name="Fill 290" class="cls-15" d="M287.35,247.87l-1.27-3-.68.29,1.28,3Z"/><path id="Stroke_292" data-name="Stroke 292" class="cls-17" d="M287.35,247.87l-1.27-3-.68.29,1.28,3Z"/><path id="Fill_294" data-name="Fill 294" class="cls-15" d="M286.84,249.47l1.35-.58-.62-1.45-1.35.57Z"/><path id="Stroke_296" data-name="Stroke 296" class="cls-17" d="M286.84,249.47l1.35-.58-.62-1.45-1.35.57Z"/><path id="Fill_298" data-name="Fill 298" class="cls-15" d="M287.16,241.84l.33.79.79-.34-.33-.79Z"/><path id="Stroke_300" data-name="Stroke 300" class="cls-15" d="M287.16,241.84l.33.79.79-.34-.33-.79Z"/><path id="Fill_302" data-name="Fill 302" class="cls-15" d="M286.61,240.56l.34.78.79-.33-.34-.79Z"/><path id="Stroke_304" data-name="Stroke 304" class="cls-15" d="M286.61,240.56l.34.78.79-.33-.34-.79Z"/><path id="Fill_306" data-name="Fill 306" class="cls-15" d="M286.07,239.27l.33.79.79-.33-.33-.79Z"/><path id="Stroke_308" data-name="Stroke 308" class="cls-15" d="M286.07,239.27l.33.79.79-.33-.33-.79Z"/><path id="Fill_310" data-name="Fill 310" class="cls-15" d="M285.52,238l.34.79.79-.33-.34-.79Z"/><path id="Stroke_312" data-name="Stroke 312" class="cls-15" d="M285.52,238l.34.79.79-.33-.34-.79Z"/><path id="Fill_314" data-name="Fill 314" class="cls-15" d="M286,242.34l.34.79.79-.34-.34-.79Z"/><path id="Stroke_316" data-name="Stroke 316" class="cls-15" d="M286,242.34l.34.79.79-.34-.34-.79Z"/><path id="Fill_318" data-name="Fill 318" class="cls-15" d="M285.43,241.06l.34.79.78-.34-.33-.79Z"/><path id="Stroke_320" data-name="Stroke 320" class="cls-15" d="M285.43,241.06l.34.79.78-.34-.33-.79Z"/><path id="Fill_322" data-name="Fill 322" class="cls-15" d="M284.89,239.78l.33.78.79-.33-.34-.79Z"/><path id="Stroke_324" data-name="Stroke 324" class="cls-15" d="M284.89,239.78l.33.78.79-.33-.34-.79Z"/><path id="Fill_326" data-name="Fill 326" class="cls-15" d="M284.34,238.49l.34.79.79-.33-.34-.79Z"/><path id="Stroke_328" data-name="Stroke 328" class="cls-15" d="M284.34,238.49l.34.79.79-.33-.34-.79Z"/><path id="Fill_330" data-name="Fill 330" class="cls-15" d="M284.79,242.84l.34.79.79-.33-.34-.79Z"/><path id="Stroke_332" data-name="Stroke 332" class="cls-15" d="M284.79,242.84l.34.79.79-.33-.34-.79Z"/><path id="Fill_334" data-name="Fill 334" class="cls-15" d="M284.25,241.56l.33.79.79-.34-.33-.79Z"/><path id="Stroke_336" data-name="Stroke 336" class="cls-15" d="M284.25,241.56l.33.79.79-.34-.33-.79Z"/><path id="Fill_338" data-name="Fill 338" class="cls-15" d="M283.7,240.28l.34.79.79-.34-.34-.79Z"/><path id="Stroke_340" data-name="Stroke 340" class="cls-15" d="M283.7,240.28l.34.79.79-.34-.34-.79Z"/><path id="Fill_342" data-name="Fill 342" class="cls-15" d="M283.16,239l.33.79.79-.34-.33-.79Z"/><path id="Stroke_344" data-name="Stroke 344" class="cls-15" d="M283.16,239l.33.79.79-.34-.33-.79Z"/><path id="Fill_346" data-name="Fill 346" class="cls-15" d="M283.61,243.34l.33.79.79-.33-.33-.79Z"/><path id="Stroke_348" data-name="Stroke 348" class="cls-15" d="M283.61,243.34l.33.79.79-.33-.33-.79Z"/><path id="Fill_350" data-name="Fill 350" class="cls-15" d="M283.06,242.06l.34.79.79-.33-.34-.79Z"/><path id="Stroke_352" data-name="Stroke 352" class="cls-15" d="M283.06,242.06l.34.79.79-.33-.34-.79Z"/><path id="Fill_354" data-name="Fill 354" class="cls-15" d="M282.52,240.78l.33.79.79-.34-.33-.79Z"/><path id="Stroke_356" data-name="Stroke 356" class="cls-15" d="M282.52,240.78l.33.79.79-.34-.33-.79Z"/><path id="Fill_358" data-name="Fill 358" class="cls-15" d="M282,239.5l.34.79.79-.34-.34-.79Z"/><path id="Stroke_360" data-name="Stroke 360" class="cls-15" d="M282,239.5l.34.79.79-.34-.34-.79Z"/><path id="Fill_362" data-name="Fill 362" class="cls-15" d="M282.42,243.85l.34.79.79-.34-.34-.78Z"/><path id="Stroke_364" data-name="Stroke 364" class="cls-15" d="M282.42,243.85l.34.79.79-.34-.34-.78Z"/><path id="Fill_366" data-name="Fill 366" class="cls-15" d="M281.88,242.56l.33.79L283,243l-.33-.79Z"/><path id="Stroke_368" data-name="Stroke 368" class="cls-15" d="M281.88,242.56l.33.79L283,243l-.33-.79Z"/><path id="Fill_370" data-name="Fill 370" class="cls-15" d="M281.34,241.28l.33.79.79-.33-.34-.79Z"/><path id="Stroke_372" data-name="Stroke 372" class="cls-15" d="M281.34,241.28l.33.79.79-.33-.34-.79Z"/><path id="Fill_374" data-name="Fill 374" class="cls-15" d="M280.79,240l.34.79.78-.34-.33-.78Z"/><path id="Stroke_376" data-name="Stroke 376" class="cls-15" d="M280.79,240l.34.79.78-.34-.33-.78Z"/><path id="Fill_378" data-name="Fill 378" class="cls-15" d="M284.31,235.12l.33.79.79-.33-.33-.79Z"/><path id="Stroke_380" data-name="Stroke 380" class="cls-15" d="M284.31,235.12l.33.79.79-.33-.33-.79Z"/><path id="Fill_382" data-name="Fill 382" class="cls-15" d="M283.76,233.84l.34.79.79-.33-.34-.79Z"/><path id="Stroke_384" data-name="Stroke 384" class="cls-15" d="M283.76,233.84l.34.79.79-.33-.34-.79Z"/><path id="Fill_386" data-name="Fill 386" class="cls-15" d="M283.22,232.56l.33.79.79-.34-.33-.78Z"/><path id="Stroke_388" data-name="Stroke 388" class="cls-15" d="M283.22,232.56l.33.79.79-.34-.33-.78Z"/><path id="Fill_390" data-name="Fill 390" class="cls-15" d="M282.67,231.28l.34.79.79-.34-.34-.79Z"/><path id="Stroke_392" data-name="Stroke 392" class="cls-15" d="M282.67,231.28l.34.79.79-.34-.34-.79Z"/><path id="Fill_394" data-name="Fill 394" class="cls-15" d="M283.12,235.63l.34.78.79-.33-.34-.79Z"/><path id="Stroke_396" data-name="Stroke 396" class="cls-15" d="M283.12,235.63l.34.78.79-.33-.34-.79Z"/><path id="Fill_398" data-name="Fill 398" class="cls-15" d="M282.58,234.34l.33.79.79-.33-.33-.79Z"/><path id="Stroke_400" data-name="Stroke 400" class="cls-15" d="M282.58,234.34l.33.79.79-.33-.33-.79Z"/><path id="Fill_402" data-name="Fill 402" class="cls-15" d="M282,233.06l.33.79.79-.33-.34-.79Z"/><path id="Stroke_404" data-name="Stroke 404" class="cls-15" d="M282,233.06l.33.79.79-.33-.34-.79Z"/><path id="Fill_406" data-name="Fill 406" class="cls-15" d="M281.49,231.78l.34.79.79-.34-.34-.78Z"/><path id="Stroke_408" data-name="Stroke 408" class="cls-15" d="M281.49,231.78l.34.79.79-.34-.34-.78Z"/><path id="Fill_410" data-name="Fill 410" class="cls-15" d="M281.94,236.13l.34.79.78-.34-.33-.79Z"/><path id="Stroke_412" data-name="Stroke 412" class="cls-15" d="M281.94,236.13l.34.79.78-.34-.33-.79Z"/><path id="Fill_414" data-name="Fill 414" class="cls-15" d="M281.4,234.85l.33.79.79-.34-.34-.79Z"/><path id="Stroke_416" data-name="Stroke 416" class="cls-15" d="M281.4,234.85l.33.79.79-.34-.34-.79Z"/><path id="Fill_418" data-name="Fill 418" class="cls-15" d="M280.85,233.56l.34.79L282,234l-.34-.79Z"/><path id="Stroke_420" data-name="Stroke 420" class="cls-15" d="M280.85,233.56l.34.79L282,234l-.34-.79Z"/><path id="Fill_422" data-name="Fill 422" class="cls-15" d="M280.31,232.28l.33.79.79-.33-.33-.79Z"/><path id="Stroke_424" data-name="Stroke 424" class="cls-15" d="M280.31,232.28l.33.79.79-.33-.33-.79Z"/><path id="Fill_426" data-name="Fill 426" class="cls-15" d="M280.76,236.63l.33.79.79-.34-.33-.78Z"/><path id="Stroke_428" data-name="Stroke 428" class="cls-15" d="M280.76,236.63l.33.79.79-.34-.33-.78Z"/><path id="Fill_430" data-name="Fill 430" class="cls-15" d="M280.21,235.35l.34.79.79-.34L281,235Z"/><path id="Stroke_432" data-name="Stroke 432" class="cls-15" d="M280.21,235.35l.34.79.79-.34L281,235Z"/><path id="Fill_434" data-name="Fill 434" class="cls-15" d="M279.67,234.07l.33.79.79-.34-.33-.79Z"/><path id="Stroke_436" data-name="Stroke 436" class="cls-15" d="M279.67,234.07l.33.79.79-.34-.33-.79Z"/><path id="Fill_438" data-name="Fill 438" class="cls-15" d="M279.12,232.78l.34.79.79-.33-.34-.79Z"/><path id="Stroke_440" data-name="Stroke 440" class="cls-15" d="M279.12,232.78l.34.79.79-.33-.34-.79Z"/><path id="Fill_442" data-name="Fill 442" class="cls-15" d="M279.57,237.13l.34.79.79-.33-.34-.79Z"/><path id="Stroke_444" data-name="Stroke 444" class="cls-15" d="M279.57,237.13l.34.79.79-.33-.34-.79Z"/><path id="Fill_446" data-name="Fill 446" class="cls-15" d="M279,235.85l.33.79.79-.34-.33-.78Z"/><path id="Stroke_448" data-name="Stroke 448" class="cls-15" d="M279,235.85l.33.79.79-.34-.33-.78Z"/><path id="Fill_450" data-name="Fill 450" class="cls-15" d="M278.49,234.57l.33.79.79-.34-.34-.79Z"/><path id="Stroke_452" data-name="Stroke 452" class="cls-15" d="M278.49,234.57l.33.79.79-.34-.34-.79Z"/><path id="Fill_454" data-name="Fill 454" class="cls-15" d="M277.94,233.29l.34.79.79-.34-.34-.79Z"/><path id="Stroke_456" data-name="Stroke 456" class="cls-15" d="M277.94,233.29l.34.79.79-.34-.34-.79Z"/><path id="Fill_458" data-name="Fill 458" class="cls-15" d="M281.46,228.41l.33.79.79-.34-.33-.78Z"/><path id="Stroke_460" data-name="Stroke 460" class="cls-15" d="M281.46,228.41l.33.79.79-.34-.33-.78Z"/><path id="Fill_462" data-name="Fill 462" class="cls-15" d="M280.91,227.13l.34.79.79-.34-.34-.79Z"/><path id="Stroke_464" data-name="Stroke 464" class="cls-15" d="M280.91,227.13l.34.79.79-.34-.34-.79Z"/><path id="Fill_466" data-name="Fill 466" class="cls-15" d="M280.37,225.85l.33.79.79-.34-.33-.79Z"/><path id="Stroke_468" data-name="Stroke 468" class="cls-15" d="M280.37,225.85l.33.79.79-.34-.33-.79Z"/><path id="Fill_470" data-name="Fill 470" class="cls-15" d="M279.82,224.57l.34.78L281,225l-.34-.79Z"/><path id="Stroke_472" data-name="Stroke 472" class="cls-15" d="M280.16,225.35,281,225l-.34-.79-.79.34Z"/><path id="Fill_474" data-name="Fill 474" class="cls-15" d="M280.27,228.91l.34.79.79-.33-.34-.79Z"/><path id="Stroke_476" data-name="Stroke 476" class="cls-15" d="M280.27,228.91l.34.79.79-.33-.34-.79Z"/><path id="Fill_478" data-name="Fill 478" class="cls-15" d="M279.73,227.63l.33.79.79-.34-.33-.78Z"/><path id="Stroke_480" data-name="Stroke 480" class="cls-15" d="M279.73,227.63l.33.79.79-.34-.33-.78Z"/><path id="Fill_482" data-name="Fill 482" class="cls-15" d="M279.19,226.35l.33.79.79-.34L280,226Z"/><path id="Stroke_484" data-name="Stroke 484" class="cls-15" d="M279.19,226.35l.33.79.79-.34L280,226Z"/><path id="Fill_486" data-name="Fill 486" class="cls-15" d="M278.64,225.07l.34.79.78-.34-.33-.79Z"/><path id="Stroke_488" data-name="Stroke 488" class="cls-15" d="M278.64,225.07l.34.79.78-.34-.33-.79Z"/><path id="Fill_490" data-name="Fill 490" class="cls-15" d="M279.09,229.42l.34.78.78-.33-.33-.79Z"/><path id="Stroke_492" data-name="Stroke 492" class="cls-15" d="M279.09,229.42l.34.78.78-.33-.33-.79Z"/><path id="Fill_494" data-name="Fill 494" class="cls-15" d="M278.55,228.13l.33.79.79-.33-.34-.79Z"/><path id="Stroke_496" data-name="Stroke 496" class="cls-15" d="M278.55,228.13l.33.79.79-.33-.34-.79Z"/><path id="Fill_498" data-name="Fill 498" class="cls-15" d="M278,226.85l.34.79.79-.33-.34-.79Z"/><path id="Stroke_500" data-name="Stroke 500" class="cls-15" d="M278,226.85l.34.79.79-.33-.34-.79Z"/><path id="Fill_502" data-name="Fill 502" class="cls-15" d="M277.46,225.57l.33.79.79-.34-.33-.79Z"/><path id="Stroke_504" data-name="Stroke 504" class="cls-15" d="M277.46,225.57l.33.79.79-.34-.33-.79Z"/><path id="Fill_506" data-name="Fill 506" class="cls-15" d="M277.91,229.92l.33.79.79-.34-.33-.79Z"/><path id="Stroke_508" data-name="Stroke 508" class="cls-15" d="M277.91,229.92l.33.79.79-.34-.33-.79Z"/><path id="Fill_510" data-name="Fill 510" class="cls-15" d="M277.36,228.63l.34.79.79-.33-.34-.79Z"/><path id="Stroke_512" data-name="Stroke 512" class="cls-15" d="M277.36,228.63l.34.79.79-.33-.34-.79Z"/><path id="Fill_514" data-name="Fill 514" class="cls-15" d="M276.82,227.35l.33.79.79-.33-.33-.79Z"/><path id="Stroke_516" data-name="Stroke 516" class="cls-15" d="M276.82,227.35l.33.79.79-.33-.33-.79Z"/><path id="Fill_518" data-name="Fill 518" class="cls-15" d="M276.27,226.07l.34.79.79-.33-.34-.79Z"/><path id="Stroke_520" data-name="Stroke 520" class="cls-15" d="M276.27,226.07l.34.79.79-.33-.34-.79Z"/><path id="Fill_522" data-name="Fill 522" class="cls-15" d="M276.72,230.42l.34.79.79-.34-.34-.79Z"/><path id="Stroke_524" data-name="Stroke 524" class="cls-15" d="M276.72,230.42l.34.79.79-.34-.34-.79Z"/><path id="Fill_526" data-name="Fill 526" class="cls-15" d="M276.18,229.14l.33.79.79-.34-.33-.79Z"/><path id="Stroke_528" data-name="Stroke 528" class="cls-15" d="M276.18,229.14l.33.79.79-.34-.33-.79Z"/><path id="Fill_530" data-name="Fill 530" class="cls-15" d="M275.63,227.86l.34.78.79-.33-.34-.79Z"/><path id="Stroke_532" data-name="Stroke 532" class="cls-15" d="M275.63,227.86l.34.78.79-.33-.34-.79Z"/><path id="Fill_534" data-name="Fill 534" class="cls-15" d="M275.09,226.57l.34.79.78-.33-.33-.79Z"/><path id="Stroke_536" data-name="Stroke 536" class="cls-15" d="M275.09,226.57l.34.79.78-.33-.33-.79Z"/><path id="Fill_538" data-name="Fill 538" class="cls-15" d="M315.84,244.17c-.61-1.44-.86-2.7-.56-2.84s1.05.93,1.66,2.37.85,2.7.55,2.83S316.45,245.6,315.84,244.17Z"/><path id="Stroke_540" data-name="Stroke 540" class="cls-17" d="M315.84,244.17c-.61-1.44-.86-2.7-.56-2.84s1.05.93,1.66,2.37.85,2.7.55,2.83S316.45,245.6,315.84,244.17Z"/><path id="Fill_542" data-name="Fill 542" class="cls-15" d="M318.25,243.14c-1.22-2.87-1.72-5.4-1.11-5.66s2.08,1.86,3.3,4.73,1.71,5.4,1.11,5.66S319.47,246,318.25,243.14Z"/><path id="Stroke_544" data-name="Stroke 544" class="cls-17" d="M318.25,243.14c-1.22-2.87-1.72-5.4-1.11-5.66s2.08,1.86,3.3,4.73,1.71,5.4,1.11,5.66S319.47,246,318.25,243.14Z"/><path id="Fill_546" data-name="Fill 546" class="cls-15" d="M322.14,241.49c-1.63-3.84-2.3-7.24-1.49-7.59s2.8,2.5,4.43,6.34,2.3,7.25,1.49,7.59S323.77,245.33,322.14,241.49Z"/><path id="Stroke_548" data-name="Stroke 548" class="cls-17" d="M322.14,241.49c-1.63-3.84-2.3-7.24-1.49-7.59s2.8,2.5,4.43,6.34,2.3,7.25,1.49,7.59S323.77,245.33,322.14,241.49Z"/><path id="Star_1_Copy_16" data-name="Star 1 Copy 16" class="cls-15" d="M312,296.55l-.13.14a.92.92,0,0,1-1.29.06,1,1,0,0,1-.28-.51l0-.19-.18-.08a.91.91,0,0,1-.06-1.64l.17-.09,0-.19a.91.91,0,0,1,1-.81.94.94,0,0,1,.53.25l.14.13.19,0a.91.91,0,0,1,1.08.7,1,1,0,0,1-.07.58l-.09.18.1.17a.9.9,0,0,1-.91,1.35Z"/><path id="Star_1_Copy_20" data-name="Star 1 Copy 20" class="cls-18" d="M416.19,287.77l-.2,0a.92.92,0,0,1-.66-1.1.93.93,0,0,1,.32-.5l.17-.13,0-.2a.92.92,0,0,1,.85-1,.9.9,0,0,1,.57.16l.17.11.19-.08a.91.91,0,0,1,1.18.52.83.83,0,0,1,0,.58l-.05.2.13.16a.91.91,0,0,1-.12,1.28.89.89,0,0,1-.54.21H418l-.11.17a.92.92,0,0,1-1.26.29.86.86,0,0,1-.36-.46Z"/><path id="Oval_8_Copy_2-2" data-name="Oval 8 Copy 2-2" class="cls-19" d="M345.54,214.38c2.18-1.26,6.13-2.75,4.88-4.93s-5.89-1.86-8.07-.6-4.51,5-3.25,7.14,4.26-.35,6.44-1.61"/><circle id="Oval_10_Copy" data-name="Oval 10 Copy" class="cls-19" cx="355.44" cy="207.56" r="1.82"/></g><g id="Group_5898" data-name="Group 5898"><g id="Group_5896" data-name="Group 5896"><path id="Path_41667" data-name="Path 41667" class="cls-18" d="M469.83,259.69l-13.58,3.12L449.51,275l-5.05-27.84Z"/></g><g id="Group_5897" data-name="Group 5897"><rect id="Rectangle_3326" data-name="Rectangle 3326" class="cls-18" x="457.61" y="259.42" width="2.48" height="14.35" transform="translate(-68.05 329.79) rotate(-37)"/></g></g><g id="Group_5924" data-name="Group 5924"><g id="Group_5919" data-name="Group 5919"><g id="Group_5899" data-name="Group 5899"><path id="Path_41668" data-name="Path 41668" class="cls-20" d="M258.26,190a1.58,1.58,0,0,0-.28,1.7h0c.41,1.13,1.76,2.4,3.33,3.66l.54.45.12.1.09.09c1.46,1.35.91,1.66,3.54,4.4,3,3.12,5.07,3.17,5.66,2.89s-.51-1.9-1.63-3.76l-.17-.27c-.15-.25-.3-.5-.44-.75-1.31-2.24-1-3.29-.67-6.62.26-2.71,4.22-15.13,4.22-15.13l-5.75-1s-1.73,9.89-3.64,11.41c-1,.82-2.16.83-3.14,1.43a1.37,1.37,0,0,0-.2.13A7.36,7.36,0,0,0,258.26,190Z"/></g><g id="Group_5900" data-name="Group 5900"><path id="Path_41669" data-name="Path 41669" class="cls-21" d="M258.26,190a1.58,1.58,0,0,0-.28,1.7h0a12.26,12.26,0,0,0,3.34,3.65l.53.45.12.11.09.09c1.46,1.35.91,1.65,3.54,4.4,3,3.12,5.07,3.17,5.66,2.89s-.51-1.9-1.63-3.76a12.78,12.78,0,0,1-5.35-3.94c-1.74-2.22-2.93-5-4.11-6.79l-.34-.06A7.3,7.3,0,0,0,258.26,190Z"/></g><g id="Group_5901" data-name="Group 5901"><path id="Path_41670" data-name="Path 41670" class="cls-20" d="M304.63,186.35c.36,1.78,2.89,1.48,5.71.79s2.16.13,6.18-.31,5.24-2,5.36-2.55-1.87-.71-4-1l-.8-.1c-2.41-.3-4.17-1.85-6.36-3.13s-5.16-6.13-5.16-6.13l-5.52.43s2.9,4.4,4,6.31a6.67,6.67,0,0,1,.54,3.76A7,7,0,0,0,304.63,186.35Z"/></g><g id="Group_5902" data-name="Group 5902"><path id="Path_41671" data-name="Path 41671" class="cls-21" d="M310.34,187.14c2.83-.69,2.16.13,6.18-.31s5.24-2,5.36-2.55-1.87-.71-4-1l0,0a11.22,11.22,0,0,1-5.76,1.79c-2.73.07-5.62-.71-7.5-.68a7.39,7.39,0,0,0,0,1.88C305,188.13,307.52,187.83,310.34,187.14Z"/></g><g id="Group_5903" data-name="Group 5903"><path id="Path_41672" data-name="Path 41672" class="cls-22" d="M283.49,151.08,278.33,165l-6.73,18.12a11.38,11.38,0,0,1-3.58-.33,15.41,15.41,0,0,1-3.46-1.69s1.87-19.45,5.36-30.62a19.9,19.9,0,0,1,3-6.49C278.33,137.56,283.49,151.08,283.49,151.08Z"/></g><g id="Group_5904" data-name="Group 5904"><path id="Path_41673" data-name="Path 41673" class="cls-3" d="M278.24,129c-2.93-.95-10.6,0-18.9,1.49a5.62,5.62,0,0,1-5.81-2.63h0l-20.91-1.63s-6.9,15.3-3.13,25a3.67,3.67,0,0,0,3.66,2.35h0l16.67,0c10.4,0,22-7.15,23.51-7.45,2.46-.49,3.44,4.43,5.9,9.59s23.1,22.86,23.1,22.86a18.32,18.32,0,0,0,4.49-.46,4.39,4.39,0,0,0,1.92-1.22S285.86,131.5,278.24,129Z"/></g><g id="Group_5905" data-name="Group 5905"><path id="Path_41674" data-name="Path 41674" class="cls-21" d="M251.3,66.5a7.38,7.38,0,0,0-4-1,10.38,10.38,0,0,1-1.93-.12c-8-1.17-12.79,10.43-13.07,13.93-.51,6.43-3.92,7.41-8.7,11.44-9.6,8.07-6.79,17.45-1.54,20.94,3.15,2.09,8.7,0,8.7,0S246,103.21,253.4,99.11C264.56,97.52,255.79,69.17,251.3,66.5Z"/></g><g id="Group_5906" data-name="Group 5906"><path id="Path_41675" data-name="Path 41675" class="cls-20" d="M247.16,95.62s-3.66,1.28-6.14.18c-2.32-1-4.08-4.85-4.05-4.85,1.06,0,2.22-1,3.11-7l.45.16,7.58,2.72s-.55,2.43-.9,4.75C246.91,93.48,246.74,95.34,247.16,95.62Z"/></g><g id="Group_5907" data-name="Group 5907"><path id="Path_41676" data-name="Path 41676" class="cls-23" d="M248.11,86.79s-.3,1.31-.74,3.76a8.54,8.54,0,0,1-6.83-6.48Z"/></g><g id="Group_5908" data-name="Group 5908"><path id="Path_41677" data-name="Path 41677" class="cls-20" d="M249.24,89.21s-10.37-1.4-9.4-7.83.27-11,6.93-10.34,7.57,3.26,7.77,5.49S252,89.4,249.24,89.21Z"/></g><g id="Group_5909" data-name="Group 5909"><path id="Path_41678" data-name="Path 41678" class="cls-21" d="M254.17,73s-6.63,5.72-11.15,6.18-6.22-1-6.22-1a17.68,17.68,0,0,0,4.26-5.77,3.18,3.18,0,0,1,2.62-1.87C246.9,70.27,253,70.14,254.17,73Z"/></g><g id="Group_5910" data-name="Group 5910"><path id="Path_41679" data-name="Path 41679" class="cls-21" d="M250,72.49a16.32,16.32,0,0,1,2.92,3.74,12.56,12.56,0,0,1,.34,6.66s3.46-6.72,1.5-10C252.7,69.44,250,72.49,250,72.49Z"/></g><g id="Group_5911" data-name="Group 5911"><path id="Path_41680" data-name="Path 41680" class="cls-9" d="M255.88,110.88c-.31,21-.08,16.59-2.38,18.58-.55.48-2.1.76-4.15.9-6.43.42-17.73-.64-18.16-1.82-1.49-4.12-.44-5.39-1.68-11.69-.13-.67-.29-1.39-.47-2.18-1-4.33-2-5.8,1.62-12.74,3.32-6.3,6.77-11.4,7.08-11.22,8.76,5.2,9.47.83,9.47.83S256,100.65,255.88,110.88Z"/></g><g id="Group_5912" data-name="Group 5912"><path id="Path_41681" data-name="Path 41681" class="cls-3" d="M278.33,165l-6.73,18.12a11.38,11.38,0,0,1-3.58-.33,15.41,15.41,0,0,1-3.46-1.69s1.87-19.45,5.36-30.62Z"/></g><g id="Group_5913" data-name="Group 5913"><path id="Path_41682" data-name="Path 41682" class="cls-9" d="M247.2,91.54s9,1.53,10.08,5.41,4.54,27.43,4.54,27.43-2.54,2.48-4.66.36-6.66-22-6.66-22Z"/></g><g id="Group_5914" data-name="Group 5914"><path id="Path_41683" data-name="Path 41683" class="cls-12" d="M249.35,130.36c-6.43.42-17.74-.64-18.16-1.82-1.49-4.12-.44-5.39-1.68-11.69l3.1-8.73s-.51,9.72,2.36,12.28,11.74,4.94,13.14,7.08A7.88,7.88,0,0,1,249.35,130.36Z"/></g><g id="Group_5915" data-name="Group 5915"><path id="Path_41684" data-name="Path 41684" class="cls-20" d="M242,126.27s6.34-1.42,7.36-.85a14.88,14.88,0,0,1,3.84,3.32c.32.72-2.28-.54-3.12-.76a7.2,7.2,0,0,0-2.7.59,9,9,0,0,1-4.83.48Z"/></g><g id="Group_5916" data-name="Group 5916"><path id="Path_41685" data-name="Path 41685" class="cls-9" d="M237.73,90.71s-8.52.52-11.46,4.64c-4.16,5.79-12.39,30.46-7.67,33.75,5.31,3.71,24.19,1,24.19,1s.63-2.93-.25-4.35-15.07-3.72-15.73-4.37S235,108.56,235,106.6,237.73,90.71,237.73,90.71Z"/></g><g id="Group_5917" data-name="Group 5917"><path id="Path_41686" data-name="Path 41686" class="cls-20" d="M249.66,127.18a12.35,12.35,0,0,0,1.76,1.92,1.38,1.38,0,0,0,.72.16l-.9-1.62Z"/></g><g id="Group_5918" data-name="Group 5918"><path id="Path_41687" data-name="Path 41687" class="cls-20" d="M249.35,125.41l3.87,1.88a.72.72,0,0,1-.64.25,9.47,9.47,0,0,1-1.68-.46Z"/></g></g><g id="Group_5923" data-name="Group 5923"><g id="Group_5920" data-name="Group 5920"><path id="Path_41688" data-name="Path 41688" class="cls-21" d="M282.35,129.83H242v.89h40Z"/></g><g id="Group_5921" data-name="Group 5921"><path id="Path_41689" data-name="Path 41689" class="cls-21" d="M251.42,130.72H282l9.2-22.87H260.67Z"/></g><g id="Group_5922" data-name="Group 5922"><path id="Path_41690" data-name="Path 41690" class="cls-15" d="M274.28,119.29a1.06,1.06,0,0,0-.58-1.38,1,1,0,0,0-.46-.08,2.08,2.08,0,0,0-1.87,1.46,1.06,1.06,0,0,0,1,1.45A2.1,2.1,0,0,0,274.28,119.29Z"/></g></g></g><g id="Group_5939" data-name="Group 5939"><g id="Group_5925" data-name="Group 5925"><path id="Path_41691" data-name="Path 41691" class="cls-12" d="M572.88,223.81s14.82,15.07,15.58,21.33-7.68,16-7.68,16Z"/></g><g id="Group_5926" data-name="Group 5926"><path id="Path_41692" data-name="Path 41692" class="cls-24" d="M564.41,394.56s-.56,8.82-2.27,8.94c-.23,0-8.65,0-8.65,0l-10.76-.09a3.49,3.49,0,0,1,3.22-3.13c3.14-.54,8.41-2.74,10.33-6.89C558.3,389,564.41,394.56,564.41,394.56Z"/></g><g id="Group_5927" data-name="Group 5927"><path id="Path_41693" data-name="Path 41693" class="cls-24" d="M588.38,394.61s-.56,8.82-2.27,8.94c-.23,0-8.66,0-8.66,0l-10.76-.08a3.5,3.5,0,0,1,3.23-3.14c3.14-.54,8.41-2.74,10.33-6.89C582.26,389.07,588.38,394.61,588.38,394.61Z"/></g><g id="Group_5928" data-name="Group 5928"><path id="Path_41694" data-name="Path 41694" class="cls-25" d="M552.71,299.74s2.77,18,13.2,50,11.83,45.8,11.83,45.8l11.26-.29s.17-34.91-4.63-51-.92-57.91-.92-57.91Z"/></g><g id="Group_5929" data-name="Group 5929"><path id="Path_41695" data-name="Path 41695" class="cls-26" d="M547.26,287.23a434.64,434.64,0,0,0,4.16,60.42c4.62,33.31,3,47.44,3,47.44l11.24.4s6.78-33.29,4.89-50,9.33-57.17,9.33-57.17Z"/></g><g id="Group_5930" data-name="Group 5930"><path id="Path_41696" data-name="Path 41696" class="cls-20" d="M569.15,223.81l-6,3.92-8.65-1.63c.12-.7.7-3.6,1.22-6.22,0-.15.07-.31.1-.46.45-2.23.84-4.14.84-4.14l8.09-3.55,3-1.33s-.23,2.48-.27,2.83A20.53,20.53,0,0,0,569.15,223.81Z"/></g><g id="Group_5931" data-name="Group 5931"><path id="Path_41697" data-name="Path 41697" class="cls-12" d="M556.73,221.81c.17-.07,10.43-3.08,11.54-2.7s1.77,2.52,1.77,2.52l-16.78,3.76A8.27,8.27,0,0,1,556.73,221.81Z"/></g><g id="Group_5932" data-name="Group 5932"><path id="Path_41698" data-name="Path 41698" class="cls-9" d="M584.19,290.66c-1.75,7.92-30.68,8.8-38.12,1.59-.84-.83-.88-4.64-.55-9.79.65-10,2.69-25.17,2.79-32.9a60,60,0,0,1,1.26-11,88.48,88.48,0,0,1,3.7-13.17s14.13-4.54,16.77-3.75C582.76,225.4,585.94,282.73,584.19,290.66Z"/></g><g id="Group_5933" data-name="Group 5933"><path id="Path_41699" data-name="Path 41699" class="cls-12" d="M545.52,282.46c.65-10,2.69-25.17,2.78-32.9a61.8,61.8,0,0,1,1.26-11l8.5-1.48S567.43,273.09,545.52,282.46Z"/></g><g id="Group_5934" data-name="Group 5934"><path id="Path_41700" data-name="Path 41700" class="cls-20" d="M550.15,268.46a2,2,0,0,1-.64,2.31c-1.22.93-2,2.44-1.73,3.54s2.94,2.9,3.86,2.61,2.81-1.73,2.61-2.31,1.28-5.09-1-6.84S550.15,268.46,550.15,268.46Z"/></g><g id="Group_5935" data-name="Group 5935"><path id="Path_41701" data-name="Path 41701" class="cls-9" d="M559.52,223.83s-8.06,1.07-14.68,10.78-11,16.95-9.78,20.46,12.27,15.7,14.18,15.7,5-1.38,5.18-4.51c0,0-7-12.44-5.47-14.19.66-.75,9.39-7.7,10.73-4.22C561.91,253.61,559.52,223.83,559.52,223.83Z"/></g><g id="Group_5936" data-name="Group 5936"><path id="Path_41702" data-name="Path 41702" class="cls-27" d="M566.89,213.34c-1.78,3-8.4,5.59-11.16,6.54l.09-.46c.45-2.23.84-4.14.84-4.14l8.09-3.55C566.54,211.71,567.62,212.11,566.89,213.34Z"/></g><g id="Group_5937" data-name="Group 5937"><path id="Path_41703" data-name="Path 41703" class="cls-20" d="M553.61,214.78s13,4.09,15.44-4.05,5.73-13.1-2.48-16-10.74-.34-12.21,2.19S550.3,213.5,553.61,214.78Z"/></g><g id="Group_5938" data-name="Group 5938"><path id="Path_41704" data-name="Path 41704" class="cls-25" d="M554.87,196.08s.81,9.48,2.77,9.07,3.74-.7,3.45,2.15-3,6.15,3,6.67,14.76-15,13.11-18C572.45,187.45,548,185.68,554.87,196.08Z"/></g></g><g id="Group_5940" data-name="Group 5940"><path id="Rectangle_3327" data-name="Rectangle 3327" class="cls-28" d="M9,403.12H708.85a1,1,0,0,1,1,1h0a1,1,0,0,1-1,1H9a1,1,0,0,1-1-1H8A1,1,0,0,1,9,403.12Z"/></g></g></g></svg>