
<svg xmlns="http://www.w3.org/2000/svg" viewBox="0 0 22.78 26.67"><defs><style>.cls-1{fill:#35b69e;}</style></defs><g id="查核行前規劃"><g id="Group_5475" data-name="Group 5475"><g id="Group_5472" data-name="Group 5472"><g id="Group_5470" data-name="Group 5470"><path id="Path_41429" data-name="Path 41429" class="cls-1" d="M17.16,6.63c0,3.32-2.49,7.19-5.8,7.19S5.56,10,5.56,6.63a5.8,5.8,0,0,1,11.6,0Z"/></g><g id="Group_5471" data-name="Group 5471"><path id="Path_41430" data-name="Path 41430" class="cls-1" d="M.9,20.64s0,.05,0,.07h0c.29,2.74,4.84,4.93,10.4,4.93s10.1-2.19,10.4-4.93h.11c-.71-5.34-5.17-6.72-7.77-7.07a6.08,6.08,0,0,1-5.39,0C6.11,14,1.76,15.32.93,20.43A.76.76,0,0,0,.9,20.64Z"/></g></g></g></g></svg>