<svg xmlns="http://www.w3.org/2000/svg" xmlns:xlink="http://www.w3.org/1999/xlink" width="493.022" height="470.637" viewBox="0 0 493.022 470.637">
  <defs>
    <clipPath id="clip-path">
      <path id="Path_42007" data-name="Path 42007" d="M126.709,165.83l-25.762,96.144a19.187,19.187,0,0,0,13.566,23.5L257.775,323.86a19.186,19.186,0,0,0,23.5-13.567l25.762-96.144a19.187,19.187,0,0,0-13.567-23.5l-1.871-.5-16.576-4.441-106.366-28.5-16.576-4.441-1.871-.5a19.166,19.166,0,0,0-23.5,13.567" transform="translate(-100.289 -151.605)" fill="none"/>
    </clipPath>
    <linearGradient id="linear-gradient" x1="-0.324" y1="1.178" x2="-0.32" y2="1.178" gradientUnits="objectBoundingBox">
      <stop offset="0" stop-color="#f9d41b"/>
      <stop offset="1" stop-color="#faaa22"/>
    </linearGradient>
  </defs>
  <g id="Group_17937" data-name="Group 17937" transform="translate(-184 -170.682)">
    <path id="Path_41967" data-name="Path 41967" d="M50.655,199.208c40.7-29.306,46.517-63.241,60.938-95.5,9.172-20.516,28.593-35.341,51.016-36.783,36.9-2.374,81.116,17.446,104.583,31.911,36.723,22.73,87.833-18.387,130.672,24.955,30.474,30.725,23.473,58.837,31.458,93.192,13.981,45.349,36.582,91.568-9.4,127.937-23.992,21.991-62.725,29.123-82.844,53.489-49.739,60.481-116.587,89.733-186.418,61.265C67.46,425.46,103.2,380.349,74.985,324.386c-22.851-45.469-78.633-86.074-24.33-125.178" transform="translate(180.623 169.969)" fill="#e6f7ff"/>
    <path id="Path_42023" data-name="Path 42023" d="M10.95,289.346c.271-1.29.6-2.55.964-3.794a4.783,4.783,0,0,0,5.545,2.034,4.761,4.761,0,0,0,2.888-5.889,18.442,18.442,0,0,0-3.762-7.21,50.529,50.529,0,0,1,54.424-24.325c5.843,1.221,7.688-7.869,1.838-9.091A59.926,59.926,0,0,0,1.859,287.508c-1.229,5.842,7.861,7.686,9.091,1.838" transform="translate(187.779 182.662)" fill="#faaa22"/>
    <path id="Path_42024" data-name="Path 42024" d="M416.663,332.218c.41-1.253.753-2.51,1.062-3.768a4.661,4.661,0,0,1-5.375-7.555,18.443,18.443,0,0,1,6.862-4.363,50.527,50.527,0,0,0-34.969-48.278c-5.671-1.864-2.724-10.659,2.953-8.792a59.927,59.927,0,0,1,38.259,75.71c-1.856,5.674-10.65,2.725-8.792-2.954" transform="translate(181.952 176.864)" fill="#faaa22"/>
    <path id="Path_41969" data-name="Path 41969" d="M401.863,438.624a9.681,9.681,0,1,1-9.742-9.74,9.736,9.736,0,0,1,9.742,9.74" transform="translate(184 170.682)" fill="#e6f7ff"/>
    <path id="Path_41971" data-name="Path 41971" d="M378.756,424.389a18.367,18.367,0,1,1-18.36-18.36,18.407,18.407,0,0,1,18.36,18.36" transform="translate(184 170.682)" fill="#e6f7ff"/>
    <path id="Path_41973" data-name="Path 41973" d="M57.1,377.112a6.959,6.959,0,1,1-3.993-8.994,7.071,7.071,0,0,1,3.993,8.994" transform="translate(184 170.682)" fill="#ffe7d6"/>
    <path id="Path_41975" data-name="Path 41975" d="M84.3,251.78a4.1,4.1,0,1,1-4.1-4.128,4.091,4.091,0,0,1,4.1,4.128" transform="translate(184 170.682)" fill="#90daf6"/>
    <path id="Path_41979" data-name="Path 41979" d="M467.138,355.344l9.945,9.946a1.876,1.876,0,1,1-2.654,2.654L464.485,358a1.876,1.876,0,0,1,2.653-2.654" transform="translate(184 168.809)" fill="#fec35f"/>
    <path id="Path_41980" data-name="Path 41980" d="M464.484,365.291l9.945-9.949A1.876,1.876,0,0,1,477.082,358l-9.945,9.948a1.876,1.876,0,1,1-2.653-2.653" transform="translate(184 168.809)" fill="#fec35f"/>
    <path id="Path_41981" data-name="Path 41981" d="M13.215,164.4a6.608,6.608,0,1,1-6.608-6.659,6.6,6.6,0,0,1,6.608,6.659" transform="translate(184 170.682)" fill="#90daf6"/>
    <path id="Path_41982" data-name="Path 41982" d="M493.022,204.215a6.608,6.608,0,1,1-6.608-6.659,6.6,6.6,0,0,1,6.608,6.659" transform="translate(184 170.682)" fill="#90daf6"/>
    <path id="Path_41983" data-name="Path 41983" d="M413.312,241.375a4.267,4.267,0,1,1-4.267-4.3,4.261,4.261,0,0,1,4.267,4.3" transform="translate(184 170.682)" fill="#90daf6"/>
    <path id="Path_41984" data-name="Path 41984" d="M368.792,48.423a4.735,4.735,0,1,1-4.735-4.771,4.729,4.729,0,0,1,4.735,4.771" transform="translate(184 170.682)" fill="#90daf6"/>
    <path id="Path_41985" data-name="Path 41985" d="M212.468,10.22A10.143,10.143,0,1,1,202.325,0,10.128,10.128,0,0,1,212.468,10.22" transform="translate(192.181 193.971)" fill="#90daf6" opacity="0.612"/>
    <path id="Path_41986" data-name="Path 41986" d="M60.759,104.167a4.6,4.6,0,1,1-4.6-4.633,4.591,4.591,0,0,1,4.6,4.633" transform="translate(184 170.682)" fill="#90daf6"/>
    <path id="Path_41987" data-name="Path 41987" d="M95.936,162.688,106.748,173.5a2.04,2.04,0,0,1-2.885,2.885L93.052,165.573a2.04,2.04,0,0,1,2.884-2.885" transform="translate(193.326 159.271)" fill="#fec35f"/>
    <path id="Path_41988" data-name="Path 41988" d="M93.052,173.5l10.812-10.816a2.04,2.04,0,0,1,2.884,2.885L95.936,176.386a2.039,2.039,0,1,1-2.884-2.884" transform="translate(193.326 159.271)" fill="#fec35f"/>
    <path id="Path_41989" data-name="Path 41989" d="M397.828,140.494l10.631,10.631a2.006,2.006,0,0,1-2.837,2.837l-10.631-10.631a2.006,2.006,0,0,1,2.837-2.837" transform="translate(184 165.469)" fill="#fec35f"/>
    <path id="Path_41990" data-name="Path 41990" d="M394.991,151.128l10.631-10.634a2.005,2.005,0,1,1,2.837,2.835l-10.631,10.636a2.006,2.006,0,0,1-2.837-2.837" transform="translate(184 165.468)" fill="#fec35f"/>
    <path id="Path_41991" data-name="Path 41991" d="M219.833,126.964l17.99,17.988a3.394,3.394,0,0,1-4.8,4.8l-17.987-17.988a3.393,3.393,0,0,1,4.8-4.8" transform="translate(204.085 169.271)" fill="#fec35f"/>
    <path id="Path_41992" data-name="Path 41992" d="M215.034,144.956l17.99-17.994a3.393,3.393,0,1,1,4.8,4.8l-17.99,17.992a3.393,3.393,0,1,1-4.8-4.8" transform="translate(204.083 169.27)" fill="#fec35f"/>
    <path id="Path_41995" data-name="Path 41995" d="M106.238,71.006,103.8,63.871a31.932,31.932,0,0,0-15.719,23.3H95.5a24.678,24.678,0,0,1,10.734-16.167" transform="translate(183.926 187.884)" fill="#ff4e4f"/>
    <path id="Path_41996" data-name="Path 41996" d="M119.624,58.386a31.6,31.6,0,0,0-10.942,1.993c.008.026,2.259,6.428,2.411,6.911a24.326,24.326,0,0,1,8.53-1.565A24.592,24.592,0,1,1,95.092,91.878H87.751a31.914,31.914,0,1,0,31.873-33.492" transform="translate(184 189.112)" fill="#fec35f"/>
    <path id="Path_41997" data-name="Path 41997" d="M368.592,179.878H89.345a6.878,6.878,0,0,0-6.848,6.847V378.59H375.438V186.725a6.882,6.882,0,0,0-6.846-6.847M89.345,172.792H368.592a13.969,13.969,0,0,1,13.932,13.933V385.677H75.411V186.725a13.964,13.964,0,0,1,13.934-13.933" transform="translate(184 170.682)" fill="#295578" fill-rule="evenodd"/>
    <path id="Path_41998" data-name="Path 41998" d="M89.345,176.335H368.592a10.426,10.426,0,0,1,10.389,10.39V382.133H78.955V186.725a10.42,10.42,0,0,1,10.39-10.39" transform="translate(184 170.682)" fill="#fdffff" fill-rule="evenodd"/>
    <rect id="Rectangle_6718" data-name="Rectangle 6718" width="260.033" height="151.841" transform="translate(282.952 369.045)" fill="#acdee9"/>
    <path id="Path_41999" data-name="Path 41999" d="M78.955,186.725V370.436h5.951V186.725a10.42,10.42,0,0,1,10.39-10.39H89.345a10.428,10.428,0,0,0-10.39,10.39" transform="translate(184 170.682)" fill="#d5d4d1" fill-rule="evenodd"/>
    <path id="Path_42000" data-name="Path 42000" d="M269.138,373.979H188.8v3.461h80.34Zm-83.883-7.086h90.97v17.634H181.711V366.893Z" transform="translate(184 170.682)" fill="#605d5b" fill-rule="evenodd"/>
    <path id="Path_42001" data-name="Path 42001" d="M404.134,389.675H53.8a13.964,13.964,0,0,1-13.933-13.933v-8.849H187.538v4.662H270.4v-4.662h147.67v8.848a13.966,13.966,0,0,1-13.933,13.934M53.8,382.589H404.134a6.876,6.876,0,0,0,6.846-6.847v-1.763H277.318a6.115,6.115,0,0,1-1.612,2.871l-.008.007-.007.007a6.048,6.048,0,0,1-4.269,1.778H186.513a6.052,6.052,0,0,1-4.269-1.777l-.007-.008-.008-.007a6.105,6.105,0,0,1-1.611-2.871H46.955v1.762a6.878,6.878,0,0,0,6.847,6.848" transform="translate(184 170.682)" fill="#295578" fill-rule="evenodd"/>
    <path id="Path_42002" data-name="Path 42002" d="M53.8,386.132H404.134a10.42,10.42,0,0,0,10.389-10.39v-5.306H273.94v2.144a2.527,2.527,0,0,1-2.518,2.519H186.513a2.526,2.526,0,0,1-2.518-2.519v-2.144H43.412v5.3A10.421,10.421,0,0,0,53.8,386.132" transform="translate(184 170.682)" fill="#fff" fill-rule="evenodd"/>
    <path id="Path_42003" data-name="Path 42003" d="M43.413,370.436v5.306a10.421,10.421,0,0,0,10.39,10.39h11.9a10.421,10.421,0,0,1-10.39-10.389v-5.307Z" transform="translate(184 170.682)" fill="#d5d4d1" fill-rule="evenodd"/>
    <rect id="Rectangle_6719" data-name="Rectangle 6719" width="493.022" height="470.637" transform="translate(184 170.682)" fill="none"/>
    <g id="Group_17938" data-name="Group 17938" transform="translate(43.644 43.652)">
      <path id="Path_42006" data-name="Path 42006" d="M298.314,123.22l-10.5,39.188a13.951,13.951,0,0,0,1.723,1.929c3.851,3.523,9.393,4.075,14.615,3.4l10.739-40.075A72.22,72.22,0,0,0,175.372,90.278l-10.738,40.075,16.576,4.441L191.948,94.72a55.059,55.059,0,1,1,106.366,28.5" transform="translate(151.876 163.513)" fill="#ccc"/>
      <g id="Group_17934" data-name="Group 17934" transform="translate(264.72 292.705)">
        <g id="Group_17933" data-name="Group 17933" transform="translate(0 0)" clip-path="url(#clip-path)">
          <rect id="Rectangle_6720" data-name="Rectangle 6720" width="223.792" height="249.655" transform="matrix(0.259, -0.966, 0.966, 0.259, -45.832, 163.276)" fill="url(#linear-gradient)"/>
        </g>
      </g>
      <g id="Group_17936" data-name="Group 17936" transform="translate(184 170.682)">
        <path id="Path_42008" data-name="Path 42008" d="M238.287,293.2a25.162,25.162,0,1,1-17.792-30.816A25.161,25.161,0,0,1,238.287,293.2" transform="translate(-36.842 -51.028)" fill="#faaa22"/>
        <path id="Path_42009" data-name="Path 42009" d="M222.265,284.434a6.2,6.2,0,1,0-6.83-1.83L206.5,302.675a44.574,44.574,0,0,0,13.47,3.609l2.3-21.851" transform="translate(-40.293 -53.15)"/>
        <path id="Path_42010" data-name="Path 42010" d="M283.688,231.382c-7.918-2.122-11.229,10.18-3.3,12.306s11.229-10.181,3.3-12.306" transform="translate(-53.824 -45.1)" fill="#e9292f"/>
        <path id="Path_42011" data-name="Path 42011" d="M192.127,206.848c-7.918-2.122-11.229,10.18-3.3,12.306s11.229-10.181,3.3-12.306" transform="translate(-35.958 -40.313)" fill="#e9292f"/>
        <path id="Path_42012" data-name="Path 42012" d="M221.638,239.286c-.236,1.592,2.205,2.266,2.444.655.736-4.963,5.013-6.445,8.793-5.715,3.64,1.258,6.6,4.68,4.758,9.345-.6,1.514,1.853,2.151,2.444.655,2.39-6.048-1.443-10.562-6.248-12.238l.01-.039c-.111-.027-.225-.044-.336-.069s-.216-.076-.326-.108l-.01.039c-5-.951-10.576,1.042-11.53,7.475" transform="translate(-43.244 -45.188)"/>
        <path id="Path_42013" data-name="Path 42013" d="M206.454,196.067c-10.294-2.758-14.6,13.235-4.287,16,10.294,2.758,14.6-13.235,4.287-16" transform="translate(-38.294 -38.195)"/>
        <path id="Path_42014" data-name="Path 42014" d="M209.036,200.252a3.239,3.239,0,0,0-3.9,2.251l-.109.41a3.183,3.183,0,1,0,6.149,1.648l.11-.41a3.22,3.22,0,0,0-2.251-3.9" transform="translate(-39.986 -39.058)" fill="#fff"/>
        <path id="Path_42015" data-name="Path 42015" d="M275.6,214.593c-10.294-2.758-14.6,13.235-4.287,16,10.294,2.758,14.6-13.235,4.287-16" transform="translate(-51.785 -41.81)"/>
        <path id="Path_42016" data-name="Path 42016" d="M278.178,218.779a3.239,3.239,0,0,0-3.9,2.251l-.109.41a3.183,3.183,0,1,0,6.149,1.648l.11-.41a3.22,3.22,0,0,0-2.251-3.9" transform="translate(-53.477 -42.673)" fill="#fff"/>
        <path id="Path_42017" data-name="Path 42017" d="M304.964,351.378a1.438,1.438,0,0,0,.332-2.855,1.438,1.438,0,0,0-.332,2.855" transform="translate(-59.267 -68.003)"/>
        <path id="Path_42018" data-name="Path 42018" d="M292.3,347.831a1.917,1.917,0,0,0,.443-3.806,1.917,1.917,0,0,0-.443,3.806" transform="translate(-56.716 -67.124)"/>
        <path id="Path_42019" data-name="Path 42019" d="M304.274,338.952c3.062.356,3.62-4.4.553-4.758s-3.62,4.4-.553,4.758" transform="translate(-58.973 -65.205)"/>
        <path id="Path_42020" data-name="Path 42020" d="M150.079,169.092a1.438,1.438,0,0,0-.332,2.856,1.438,1.438,0,0,0,.332-2.856" transform="translate(-28.98 -32.992)"/>
        <path id="Path_42021" data-name="Path 42021" d="M162.517,172.407a1.917,1.917,0,0,0-.443,3.806c2.449.285,2.9-3.521.443-3.806" transform="translate(-31.306 -33.638)"/>
        <path id="Path_42022" data-name="Path 42022" d="M150.319,181.054c-3.062-.356-3.62,4.4-.553,4.758s3.62-4.4.553-4.758" transform="translate(-28.825 -35.324)"/>
        <rect id="Rectangle_6721" data-name="Rectangle 6721" width="396.822" height="378.805" fill="none"/>
      </g>
    </g>
  </g>
</svg>
