<svg id="圖層_1" data-name="圖層 1" xmlns="http://www.w3.org/2000/svg" viewBox="0 0 102.4 78.46"><defs><style>.cls-1{fill:#a297c9;}.cls-2{fill:#9fabf5;}.cls-3{fill:#e5a1bb;}.cls-4{fill:#e6e6e6;}.cls-5{fill:#d9d9d9;}.cls-6{fill:#3b2f5b;}.cls-7{fill:#bd5e44;}.cls-8{fill:#504586;}.cls-9{fill:#f7bc96;}.cls-10{fill:#f2f2f2;}.cls-11{fill:#ffe152;}</style></defs><path id="Path_40951" data-name="Path 40951" class="cls-1" d="M59.13,23.15,42.42,26.08,42.29,9,59,6Z"/><path id="Path_40952" data-name="Path 40952" class="cls-1" d="M79.39,19.59,62.68,22.53,62.54,5.41,79.26,2.48Z"/><path id="Path_40953" data-name="Path 40953" class="cls-2" d="M59.46,43.27l-37,6.5L22.19,11.9l37-6.5Z"/><path id="Path_40954" data-name="Path 40954" class="cls-3" d="M79.54,39.72,62.83,42.65,62.7,25.54,79.41,22.6Z"/><path id="Path_40955" data-name="Path 40955" class="cls-4" d="M39.19,67,22.48,69.89l-.13-17.11,16.71-2.94Z"/><path id="Path_40956" data-name="Path 40956" class="cls-1" d="M59.44,63.4,42.73,66.34,42.6,49.22l16.71-2.93Z"/><path id="Path_40957" data-name="Path 40957" class="cls-5" d="M79.69,59.84,63,62.78l-.13-17.12,16.71-2.93Z"/><g id="Group_4462" data-name="Group 4462"><path id="Path_40958" data-name="Path 40958" class="cls-6" d="M73.46,29c-.87-.87-3-.65-4.13.39-1.79,1.62-1.46,5.45.1,7.53,1.45,1.92,3.87,2.21,6.82,2.57.38,0,1.35.16,1.44-.05s-1-.45-1.74-1.15c-1.56-1.37-1.76-4.15-2-7.59A2.49,2.49,0,0,0,73.46,29Z"/><g id="Group_4461" data-name="Group 4461"><path id="Path_40959" data-name="Path 40959" class="cls-7" d="M73.41,32.11c0-1.64-1-2.78-2.29-2.56s-2.25,1.72-2.24,3.36a2.64,2.64,0,0,0,2,2.56,18.35,18.35,0,0,1-.6,2.93l.85-.15.2,0,.84-.15a14.83,14.83,0,0,1-.64-2.71A4.07,4.07,0,0,0,73.41,32.11Z"/><path id="Path_40960" data-name="Path 40960" class="cls-8" d="M76.52,38a12.29,12.29,0,0,1-4.76-1.19,2.71,2.71,0,0,1-1.16.2,17.39,17.39,0,0,1-4.73,2.85c-1.06.48-1.88,1.82-1.68,2.4l7-1.23.14,0,7-1.22C78.42,39.19,77.59,38.13,76.52,38Z"/></g><path id="Path_40961" data-name="Path 40961" class="cls-6" d="M69.67,29.15c.57-.79,3-.65,4.43.24.3.19,1.63,1,1.22,2a2.89,2.89,0,0,1-2,1.27C70.87,33.05,69,30.14,69.67,29.15Z"/></g><g id="Group_4468" data-name="Group 4468"><g id="Group_4464" data-name="Group 4464"><g id="Group_4463" data-name="Group 4463"><ellipse id="Ellipse_34" data-name="Ellipse 34" class="cls-9" cx="51.02" cy="56.29" rx="3.02" ry="2.23" transform="translate(-14.56 94.66) rotate(-78.15)"/></g></g><g id="Group_4466" data-name="Group 4466"><g id="Group_4465" data-name="Group 4465"><path id="Path_40962" data-name="Path 40962" class="cls-9" d="M53.77,61.37a10.65,10.65,0,0,1-2.13-.78,13.2,13.2,0,0,1-.33-2l-.17,0-.2,0-.17,0a18.45,18.45,0,0,1-.3,2.09,15.74,15.74,0,0,1-2.11,1.53L50.17,62l-.05.18L51,62l.2,0,.84-.15,0-.15,1.81-.32Z"/></g></g><path id="Path_40963" data-name="Path 40963" class="cls-10" d="M56.39,61.78A12.38,12.38,0,0,1,52,60.73a1.28,1.28,0,0,1-.89,1.15c-.45.08-.82-.28-.9-.83a17.78,17.78,0,0,1-4.41,2.6c-1.07.47-1.89,1.81-1.68,2.39l7-1.22.14,0,6.94-1.22C58.29,62.93,57.46,61.87,56.39,61.78Z"/><path id="Path_40964" data-name="Path 40964" class="cls-6" d="M49,56.2a2.77,2.77,0,0,0,2.4-.11,7,7,0,0,0,3.33-4.18A3.09,3.09,0,0,1,53.55,53c-.46.18-.7,0-1.15,0a4.7,4.7,0,0,0-3.68,1.69A1.11,1.11,0,0,0,49,56.2Z"/><g id="Group_4467" data-name="Group 4467"><path id="Path_40965" data-name="Path 40965" class="cls-6" d="M49.26,56.71c0,.68-.12,1.26-.28,1.29s-.29-.5-.3-1.19.12-1.26.28-1.29S49.26,56,49.26,56.71Z"/><path id="Path_40966" data-name="Path 40966" class="cls-6" d="M53.35,56c0,.68-.12,1.26-.28,1.29s-.29-.5-.3-1.19.12-1.26.28-1.28S53.35,55.31,53.35,56Z"/></g></g><g id="Group_4469" data-name="Group 4469"><ellipse id="Ellipse_35" data-name="Ellipse 35" class="cls-7" cx="71.37" cy="12.47" rx="3.02" ry="2.23" transform="translate(44.51 79.76) rotate(-78.15)"/><path id="Path_40967" data-name="Path 40967" class="cls-7" d="M74.13,17.55A10.68,10.68,0,0,1,72,16.76a14.75,14.75,0,0,1-.34-2l-.17,0-.2,0-.17,0a15,15,0,0,1-.3,2.1,17,17,0,0,1-2.11,1.53l1.82-.32s0,.11,0,.17l.84-.15.2,0,.85-.14-.06-.16,1.82-.32Z"/><path id="Path_40968" data-name="Path 40968" class="cls-11" d="M76.75,18A12.23,12.23,0,0,1,72.3,16.9a1.26,1.26,0,0,1-.88,1.15c-.45.08-.83-.28-.9-.83a17.72,17.72,0,0,1-4.42,2.6c-1.07.47-1.88,1.82-1.68,2.39l7-1.22.14,0,6.95-1.22C78.65,19.1,77.82,18.05,76.75,18Z"/><path id="Path_40969" data-name="Path 40969" class="cls-6" d="M69.42,14.43a4.38,4.38,0,0,1,.11-1.65,9.31,9.31,0,0,0,3.5-.91,5.18,5.18,0,0,1,.45,1.53,3.91,3.91,0,0,0,.14-1.63l1.17-1-1.18,0a4.74,4.74,0,0,0,.56-2.3,3.71,3.71,0,0,1-1.9,1.08,2.65,2.65,0,0,0-.83-1.85,2.59,2.59,0,0,0-.63,1.66,4.68,4.68,0,0,1-2.26.09,1.16,1.16,0,0,0,1.11.9,3.26,3.26,0,0,0-1.39,1.29A6.78,6.78,0,0,0,69.42,14.43Z"/></g><g id="Group_4470" data-name="Group 4470"><path id="Path_40970" data-name="Path 40970" class="cls-6" d="M29.72,56.2a2.34,2.34,0,0,1,2.84.57,4.84,4.84,0,0,1,1,2.76c0,.14.35,3.24-.55,4-.72.64-1.6-.79-2.71.07-.38.3-.36.54-.73.78a1.76,1.76,0,0,1-2.35-.8l-.06-.16C26.27,61.63,27.61,57.28,29.72,56.2Z"/><path id="Path_40971" data-name="Path 40971" class="cls-7" d="M32.53,59.54c0-1.63-1-2.77-2.28-2.55S28,58.71,28,60.33A2.66,2.66,0,0,0,30,62.89a17.06,17.06,0,0,1-.59,2.91l.84-.15.2,0,.84-.15a14.73,14.73,0,0,1-.64-2.7A4,4,0,0,0,32.53,59.54Z"/><path id="Path_40972" data-name="Path 40972" class="cls-11" d="M35.62,65.44A12.06,12.06,0,0,1,31,64.29c0-.32-.08-.64-.11-1l-.36.06-.42.08-.35.06c0,.34-.06.67-.1,1A17.46,17.46,0,0,1,25,67.3c-1.06.47-1.88,1.8-1.67,2.38l6.91-1.22.14,0,6.91-1.22C37.51,66.58,36.68,65.54,35.62,65.44Z"/><path id="Path_40973" data-name="Path 40973" class="cls-1" d="M37.32,67.22s0,0,0,0l-7-.21-7,2.67s0,0,0,0l6.91-1.22.14,0Z"/><path id="Path_40974" data-name="Path 40974" class="cls-6" d="M32.54,56.24c.37.62-.86,2.65-2.23,3.7-.28.21-1.56,1.18-2.13.66-.4-.36-.3-1.33-.07-2C28.88,56.52,32.08,55.45,32.54,56.24Z"/></g><g id="Group_4473" data-name="Group 4473"><path id="Path_40975" data-name="Path 40975" class="cls-6" d="M35.76,33.88c1.52.48,6.36,2,10.05-1.25a12.85,12.85,0,0,0,2.33-2.91c.47-.75,1.65-2.64,1.28-3.24s-2,.46-2.19,0,.72-.85,1.18-2c.6-1.46.38-3.5-.37-3.84-.93-.41-2.35,1.92-2.93,1.49s.69-2.59,0-4a2.08,2.08,0,0,0-2.82-.85l-.27.16c-.72.7-.45,2.05-1,2.31s-1.11-1.62-2.48-1.65a2.15,2.15,0,0,0-1.84,1.12c-.54.91.17,1.9-.21,2.35-.53.61-1.89-1-2.67-.3s-.73,2.58,0,3.66c.38.61.88.73.81,1-.13.62-2.5.49-2.65,1.12s2.07,1.23,1.94,2.25c-.1.84-1.66,1.09-1.8,1.88C31.91,32.19,33.94,33.29,35.76,33.88Z"/><g id="Group_4472" data-name="Group 4472"><g id="Group_4471" data-name="Group 4471"><path id="Path_40976" data-name="Path 40976" class="cls-9" d="M46.42,39.29l-.17,0h0A22.52,22.52,0,0,1,42,37.66c-.24-1-.43-2-.57-3a8.42,8.42,0,0,0,4-6.72c0-3.4-2.14-5.78-4.74-5.32S36,26.19,36,29.59a5.5,5.5,0,0,0,4.06,5.31,30.92,30.92,0,0,1-.52,3.2,33.76,33.76,0,0,1-4.17,3h0l-.17.1.17,0,0,3.07,5.44.23,5.44-2.14,0-3.07.17,0Z"/></g></g><path id="Path_40977" data-name="Path 40977" class="cls-8" d="M51.83,40.09a27.09,27.09,0,0,1-8.24-1.75l-2.78,5.49L38,39.33A37.61,37.61,0,0,1,29.77,44c-2.21,1-3.9,3.77-3.49,5l14.4-2.53.29,0,14.4-2.53C55.78,42.48,54.05,40.3,51.83,40.09Z"/><path id="Path_40978" data-name="Path 40978" class="cls-3" d="M40.83,45.63l3.53-7-.77-.3-2.78,5.49L38,39.33l-.76.57Z"/><path id="Path_40979" data-name="Path 40979" class="cls-6" d="M44.38,23c.27,1.36-2.87,4.36-5.7,5.46-.58.23-3.21,1.25-3.88,0-.46-.91.23-2.62,1-3.64C38.2,21.32,44.05,21.24,44.38,23Z"/></g><g id="Group_4475" data-name="Group 4475"><g id="Group_4474" data-name="Group 4474"><path id="Path_40980" data-name="Path 40980" class="cls-7" d="M73.54,52.14c0-1.63-1-2.78-2.28-2.56S69,51.3,69,52.93a2.63,2.63,0,0,0,2,2.55,18.11,18.11,0,0,1-.6,2.91l.84-.15.2,0,.84-.15a13.93,13.93,0,0,1-.63-2.7A4.09,4.09,0,0,0,73.54,52.14Z"/><path id="Path_40981" data-name="Path 40981" class="cls-10" d="M76.63,58A12.19,12.19,0,0,1,72,56.89c0-.32-.08-.65-.12-1l-.35.07-.42.07-.36.06c0,.34-.06.68-.1,1A17.24,17.24,0,0,1,66,59.89c-1.07.47-1.88,1.81-1.68,2.38l6.92-1.21.14,0,6.91-1.21C78.52,59.18,77.69,58.13,76.63,58Z"/><path id="Path_40982" data-name="Path 40982" class="cls-1" d="M73.73,59.53a2.06,2.06,0,0,0,.7,0A2.65,2.65,0,0,0,76.31,58l-.75-.09a1.7,1.7,0,0,1-1.13.84,1.17,1.17,0,0,1-.78-.12l-.12-.11a3.89,3.89,0,0,1-2.2,1.25,2.8,2.8,0,0,1-2.2-.48l-.11.16a1.55,1.55,0,0,1-.78.38,1.1,1.1,0,0,1-1.14-.43l-.75.35a1.75,1.75,0,0,0,1.9.87,2.55,2.55,0,0,0,.7-.25,3.76,3.76,0,0,0,2.4.35A4.89,4.89,0,0,0,73.73,59.53Z"/></g><path id="Path_40983" data-name="Path 40983" class="cls-6" d="M72.39,48a1.42,1.42,0,0,1-1.12,1.35.94.94,0,0,1-1.11-.72,2,2,0,0,1,0-.23,1.42,1.42,0,0,1,1.12-1.35.94.94,0,0,1,1.11.72A1.79,1.79,0,0,1,72.39,48Z"/><ellipse id="Ellipse_36" data-name="Ellipse 36" class="cls-6" cx="71.04" cy="49.37" rx="1.24" ry="1.04" transform="translate(-11.75 74.49) rotate(-51.67)"/><path id="Path_40984" data-name="Path 40984" class="cls-6" d="M74.27,49.54a1.15,1.15,0,0,1-.93,1.12.76.76,0,0,1-.92-.6.58.58,0,0,1,0-.19,1.16,1.16,0,0,1,.93-1.12.78.78,0,0,1,.93.6A.61.61,0,0,1,74.27,49.54Z"/><ellipse id="Ellipse_37" data-name="Ellipse 37" class="cls-6" cx="69.82" cy="50.3" rx="1.03" ry="0.87" transform="translate(-12.94 73.86) rotate(-51.66)"/><ellipse id="Ellipse_38" data-name="Ellipse 38" class="cls-6" cx="68.83" cy="51.81" rx="0.81" ry="0.69" transform="translate(-14.5 73.68) rotate(-51.67)"/><ellipse id="Ellipse_39" data-name="Ellipse 39" class="cls-6" cx="69.01" cy="50.13" rx="1.03" ry="0.87" transform="translate(-13.12 73.17) rotate(-51.66)"/><path id="Path_40985" data-name="Path 40985" class="cls-6" d="M70.49,48.59a1.17,1.17,0,0,1-.93,1.13.78.78,0,0,1-.92-.6.68.68,0,0,1,0-.2,1.16,1.16,0,0,1,.93-1.12.79.79,0,0,1,.93.6A1.21,1.21,0,0,1,70.49,48.59Z"/><path id="Path_40986" data-name="Path 40986" class="cls-6" d="M73.5,48.78a1.16,1.16,0,0,1-.93,1.12.78.78,0,0,1-.92-.6.62.62,0,0,1,0-.19A1.17,1.17,0,0,1,72.56,48a.79.79,0,0,1,.93.6A.67.67,0,0,1,73.5,48.78Z"/><ellipse id="Ellipse_40" data-name="Ellipse 40" class="cls-6" cx="73.43" cy="49.33" rx="1.03" ry="0.87" transform="translate(-10.82 76.33) rotate(-51.66)"/><ellipse id="Ellipse_41" data-name="Ellipse 41" class="cls-6" cx="73.46" cy="50.75" rx="0.7" ry="0.59" transform="matrix(0.62, -0.78, 0.78, 0.62, -11.91, 76.89)"/><ellipse id="Ellipse_42" data-name="Ellipse 42" class="cls-6" cx="69.02" cy="50.89" rx="1.03" ry="0.87" transform="translate(-13.71 73.46) rotate(-51.66)"/><ellipse id="Ellipse_43" data-name="Ellipse 43" class="cls-6" cx="72.72" cy="48.49" rx="1.03" ry="0.87" transform="translate(-10.42 75.45) rotate(-51.66)"/></g><path id="Path_40987" data-name="Path 40987" class="cls-8" d="M79.74,66.52l-57.21,10,0-2.56L79.72,64Z"/><g id="Group_4476" data-name="Group 4476"><ellipse id="Ellipse_44" data-name="Ellipse 44" class="cls-10" cx="48.12" cy="70.78" rx="0.75" ry="0.64" transform="translate(-37.25 64.62) rotate(-51.66)"/><ellipse id="Ellipse_45" data-name="Ellipse 45" class="cls-10" cx="51.13" cy="70.26" rx="0.75" ry="0.64" transform="translate(-35.69 66.8) rotate(-51.67)"/><ellipse id="Ellipse_46" data-name="Ellipse 46" class="cls-10" cx="54.13" cy="69.73" rx="0.75" ry="0.64" transform="translate(-34.14 68.99) rotate(-51.7)"/></g></svg>