<svg id="圖層_1" data-name="圖層 1" xmlns="http://www.w3.org/2000/svg" viewBox="0 0 102.4 78.46"><defs><style>.cls-1{opacity:0.55;}.cls-2{fill:#406a6a;}.cls-15,.cls-3{fill:#fff;}.cls-12,.cls-13,.cls-4,.cls-5{fill:#998999;}.cls-4{opacity:0.21;}.cls-10,.cls-12,.cls-13,.cls-15,.cls-21,.cls-4,.cls-5{isolation:isolate;}.cls-11,.cls-5{opacity:0.67;}.cls-6{fill:#665e67;}.cls-7{fill:#766b77;}.cls-8{fill:#857784;}.cls-10,.cls-9{fill:#1f142a;}.cls-10{opacity:0.5;}.cls-12{opacity:0.31;}.cls-13{opacity:0.48;}.cls-14{opacity:0.68;}.cls-15{opacity:0.72;}.cls-16,.cls-21{fill:#f7c2bc;}.cls-17{fill:#d68624;}.cls-18{fill:#e2b2ae;}.cls-19{fill:#160f1e;}.cls-20{fill:#f49628;}.cls-21{opacity:0.6;}.cls-22{fill:#190f22;}.cls-23{fill:#3f4c8a;}</style></defs><g id="Group_4087" data-name="Group 4087" class="cls-1"><path id="Path_40683" data-name="Path 40683" class="cls-2" d="M93,37.28s-13.13,9.08-5.1,21.2C87.86,58.48,100.76,54.81,93,37.28Z"/><g id="Group_4083" data-name="Group 4083"><path id="Path_40684" data-name="Path 40684" class="cls-3" d="M91.58,41.5a.06.06,0,0,0-.07,0h0A98.49,98.49,0,0,0,87.73,59h.11a100,100,0,0,1,3.77-17.44A.05.05,0,0,0,91.58,41.5Z"/></g><g id="Group_4084" data-name="Group 4084"><path id="Path_40685" data-name="Path 40685" class="cls-3" d="M90.81,44.29a.06.06,0,0,1-.06,0s0,0,0-.05l1.64-1.11a.06.06,0,0,1,.08,0,.05.05,0,0,1,0,.08l-1.64,1.11Z"/></g><g id="Group_4085" data-name="Group 4085"><path id="Path_40686" data-name="Path 40686" class="cls-3" d="M89.75,48.34a.06.06,0,0,1-.07,0,0,0,0,0,1,0-.07l2.76-1.41a.05.05,0,0,1,.07,0,.05.05,0,0,1,0,.08l-2.76,1.4Z"/></g><g id="Group_4086" data-name="Group 4086"><path id="Path_40687" data-name="Path 40687" class="cls-3" d="M88.75,52.78a.07.07,0,0,1-.06,0,.05.05,0,0,1,0-.08h0c.6-.32,1.2-.6,1.77-.87s1.14-.53,1.74-.85a.05.05,0,0,1,.07,0,.05.05,0,0,1,0,.08c-.6.31-1.18.58-1.74.85s-1.17.54-1.76.86Z"/></g></g><path id="Path_40688" data-name="Path 40688" class="cls-4" d="M8.77,59.49c14.84-2.51,90-6.9,91.22,5.6,1.25,12.93-67.43,7.45-91.46,6C-1.87,70.47,1.41,60.74,8.77,59.49Z"/><g id="Group_4088" data-name="Group 4088"><rect id="Rectangle_2660" data-name="Rectangle 2660" class="cls-3" x="12.94" y="19.07" width="75.12" height="41.44"/><rect id="Rectangle_2661" data-name="Rectangle 2661" class="cls-5" x="13.95" y="19.36" width="73.08" height="40"/></g><g id="Group_4092" data-name="Group 4092"><rect id="Rectangle_2662" data-name="Rectangle 2662" class="cls-6" x="4.21" y="66.73" width="92.97" height="1.64"/><path id="Path_40697" data-name="Path 40697" class="cls-7" d="M89.07,59.84H12.71a.86.86,0,0,0-.57.21L4.25,66.64a.11.11,0,0,0,0,.17.13.13,0,0,0,.09,0H97.06a.12.12,0,0,0,.12-.12.11.11,0,0,0,0-.09L89.5,60A.67.67,0,0,0,89.07,59.84Z"/><g id="Group_4091" data-name="Group 4091"><path id="Path_40698" data-name="Path 40698" class="cls-8" d="M87.84,18H13.55a.65.65,0,0,0-.65.66h0V59.85a.65.65,0,0,0,.65.66H87.84a.65.65,0,0,0,.65-.66V18.65A.65.65,0,0,0,87.84,18ZM87,58.06a.66.66,0,0,1-.66.66H15a.66.66,0,0,1-.66-.66h0V20.67A.66.66,0,0,1,15,20H86.37a.66.66,0,0,1,.66.66Z"/><g id="Group_4090" data-name="Group 4090"><circle id="Ellipse_16" data-name="Ellipse 16" class="cls-9" cx="45.7" cy="19.03" r="0.38"/><rect id="Rectangle_2663" data-name="Rectangle 2663" class="cls-9" x="47.35" y="18.97" width="8.72" height="0.12"/></g></g><path id="Path_40699" data-name="Path 40699" class="cls-10" d="M87.38,61.78H14l-3.87,4H91.25Z"/></g><g id="Group_4095" data-name="Group 4095" class="cls-11"><path id="Path_40700" data-name="Path 40700" class="cls-3" d="M85.14,20.85h-69a.24.24,0,0,0-.24.26v1.34a.24.24,0,0,0,.24.26h69a.25.25,0,0,0,.24-.26V21.11A.25.25,0,0,0,85.14,20.85Z"/><g id="Group_4094" data-name="Group 4094"><path id="Path_40701" data-name="Path 40701" class="cls-9" d="M85.35,20.86H83v1.85h2.33a.12.12,0,0,0,.11-.11V21A.11.11,0,0,0,85.35,20.86Z"/><g id="Group_4093" data-name="Group 4093"><rect id="Rectangle_2664" data-name="Rectangle 2664" class="cls-3" x="84.78" y="21.81" width="0.12" height="0.69" transform="translate(25.02 86.27) rotate(-61.62)"/><path id="Path_40702" data-name="Path 40702" class="cls-12" d="M83.91,22.24a.54.54,0,0,0,.64-.39.53.53,0,0,0-1-.25h0A.54.54,0,0,0,83.91,22.24Z"/><path id="Path_40703" data-name="Path 40703" class="cls-3" d="M83.53,21.45a.56.56,0,0,0,1,.54.55.55,0,0,0-.23-.76A.56.56,0,0,0,83.53,21.45Zm.93.5a.49.49,0,1,1-.2-.67.49.49,0,0,1,.2.67h0Z"/><path id="Path_40704" data-name="Path 40704" class="cls-3" d="M84.58,21.93l-.07.14h0a0,0,0,0,1,0,0h0l.07-.13h0A0,0,0,0,1,84.58,21.93Z"/></g></g></g><g id="Group_4097" data-name="Group 4097"><path id="Path_40705" data-name="Path 40705" class="cls-3" d="M83.29,37.28H47.93a.37.37,0,0,0-.39.37V53.5a.38.38,0,0,0,.39.37H83.29a.38.38,0,0,0,.39-.37V37.65A.37.37,0,0,0,83.29,37.28Z"/><g id="Group_4096" data-name="Group 4096"><rect id="Rectangle_2665" data-name="Rectangle 2665" class="cls-13" x="52.56" y="38.71" width="23.02" height="0.45"/><rect id="Rectangle_2666" data-name="Rectangle 2666" class="cls-13" x="49.08" y="40.39" width="30.84" height="0.3"/><rect id="Rectangle_2667" data-name="Rectangle 2667" class="cls-13" x="49.08" y="42.21" width="30.84" height="0.3"/><rect id="Rectangle_2668" data-name="Rectangle 2668" class="cls-13" x="49.08" y="44.03" width="30.84" height="0.3"/><rect id="Rectangle_2669" data-name="Rectangle 2669" class="cls-13" x="49.08" y="45.84" width="30.84" height="0.3"/><rect id="Rectangle_2670" data-name="Rectangle 2670" class="cls-13" x="49.08" y="47.66" width="19.22" height="0.3"/><rect id="Rectangle_2671" data-name="Rectangle 2671" class="cls-13" x="49.08" y="49.48" width="19.22" height="0.3"/><rect id="Rectangle_2672" data-name="Rectangle 2672" class="cls-13" x="49.08" y="51.3" width="30.84" height="0.3"/></g></g><g id="Group_4098" data-name="Group 4098" class="cls-14"><path id="Path_40706" data-name="Path 40706" class="cls-15" d="M32.83,35.73c0,.33.08.67.12,1h0a.11.11,0,0,1-.06.12,5.24,5.24,0,0,0-1.38,1l0,0-.94-.46a6.35,6.35,0,0,0-1.18,1.88c.12.1.25.19.38.28a.82.82,0,0,1,.42.49v.05a5.29,5.29,0,0,0-.25,1.42v.24h0l-1,.34a6.43,6.43,0,0,0,.49,2.12c.34,0,.68,0,1-.09h0a.11.11,0,0,1,.11.06,5.18,5.18,0,0,0,1,1.35v0c-.16.31-.32.63-.47.94a6.38,6.38,0,0,0,1.86,1.18l.14-.18c.16-.2.33-.39.48-.6h0a.12.12,0,0,1,.13,0,5.59,5.59,0,0,0,1.52.28h.16s0,0,0,0c.11.33.23.65.35,1a6.29,6.29,0,0,0,2.18-.49c0-.15,0-.3-.05-.45s-.08-.38-.08-.55a.11.11,0,0,1,.06-.1,5.53,5.53,0,0,0,1.29-.9.13.13,0,0,1,.13,0l.88.44a6.63,6.63,0,0,0,1.22-1.87l-.81-.65,0,0a5.73,5.73,0,0,0,.31-1.63v-.08a.1.1,0,0,1,.08-.1l.93-.33a6.22,6.22,0,0,0-.48-2.17l-.73.1-.26,0a.13.13,0,0,1-.1-.06,5.38,5.38,0,0,0-1-1.39l0,0c.16-.3.31-.62.46-.93a6.49,6.49,0,0,0-1.8-1.17l0,0c-.22.25-.45.51-.68.75l0,0a5.29,5.29,0,0,0-1.62-.31h-.12a.13.13,0,0,1-.1-.06.14.14,0,0,0,0-.06c-.1-.3-.2-.6-.31-.9a6.18,6.18,0,0,0-2.16.49Zm2.64,2.81a3.15,3.15,0,1,1-3.28,3,3.15,3.15,0,0,1,3.28-3Z"/><path id="Path_40707" data-name="Path 40707" class="cls-15" d="M23.79,31.16c0,.28-.09.56-.12.84h0a.11.11,0,0,1-.08.08,4.69,4.69,0,0,0-1.36.53l0,0L21.54,32a5.59,5.59,0,0,0-1.4,1.3,4,4,0,0,0,.26.32.7.7,0,0,1,.24.49s0,0,0,0a4.54,4.54,0,0,0-.51,1.12l-.06.19h0l-.89.06a5.35,5.35,0,0,0-.06,1.87l.86.15h0a.08.08,0,0,1,.07.07A4.88,4.88,0,0,0,20.52,39h0c-.2.23-.4.45-.59.68A5.25,5.25,0,0,0,21.2,41l.16-.11.52-.39h0a.08.08,0,0,1,.11,0,4.86,4.86,0,0,0,1.2.56l.13,0v0c0,.3.05.59.08.89a5.56,5.56,0,0,0,1.91.07l.06-.39a3.56,3.56,0,0,1,.05-.47.09.09,0,0,1,.07-.06,4.86,4.86,0,0,0,1.27-.47.1.1,0,0,1,.1,0l.64.55A5.37,5.37,0,0,0,28.91,40c-.17-.24-.34-.48-.52-.71l0,0A4.8,4.8,0,0,0,29,38l0-.06a.1.1,0,0,1,.09-.07l.84-.07a5.28,5.28,0,0,0,.08-1.9l-.63-.08-.22,0a.12.12,0,0,1-.07-.07,4.65,4.65,0,0,0-.51-1.36l0,0c.2-.22.38-.44.57-.66A5.51,5.51,0,0,0,28,32.29l0,0c-.24.16-.48.33-.73.48h0a4.65,4.65,0,0,0-1.27-.61l-.1,0a.09.09,0,0,1-.06-.07.13.13,0,0,1,0-.06c0-.27,0-.54-.06-.81a5.29,5.29,0,0,0-1.9-.07Zm1.56,2.9A2.7,2.7,0,1,1,22,35.85a2.69,2.69,0,0,1,3.37-1.79Z"/><path id="Path_40708" data-name="Path 40708" class="cls-15" d="M26.73,42.75l-.35.61h0a.08.08,0,0,1-.08,0,3.65,3.65,0,0,0-1.19,0v0l-.33-.65a4.5,4.5,0,0,0-1.45.56,3,3,0,0,0,.1.32.59.59,0,0,1,0,.45l0,0a4,4,0,0,0-.73.69,1.13,1.13,0,0,1-.1.13h0l-.69-.22a4.06,4.06,0,0,0-.61,1.4l.6.37h0a.09.09,0,0,1,0,.08,3.76,3.76,0,0,0,0,1.16h0l-.66.33a4.67,4.67,0,0,0,.55,1.44l.16,0,.51-.14h0a.09.09,0,0,1,.09,0,3.75,3.75,0,0,0,.74.8l.08.06v0c-.08.23-.15.46-.22.69a4.52,4.52,0,0,0,.51.3,4.23,4.23,0,0,0,.92.34l.16-.27c.07-.11.11-.25.18-.34a.07.07,0,0,1,.08,0,4,4,0,0,0,1.1,0,.1.1,0,0,1,.08.05c.1.2.2.41.31.61A4.43,4.43,0,0,0,27.93,51l-.18-.7v0a4,4,0,0,0,.86-.79l0,0a.08.08,0,0,1,.09,0l.66.2A4.27,4.27,0,0,0,30,48.23L29.57,48l-.15-.09a.09.09,0,0,1,0-.08,3.89,3.89,0,0,0,0-1.18l0,0,.64-.32a4.69,4.69,0,0,0-.52-1.41h0l-.7.14h0a3.56,3.56,0,0,0-.78-.86L28,44.12a.06.06,0,0,1,0-.07.09.09,0,0,1,0,0c.07-.2.13-.42.2-.63a4.32,4.32,0,0,0-1.42-.63Zm.3,2.67a2.2,2.2,0,1,1-3.1.33,2.19,2.19,0,0,1,3.1-.33Z"/></g><g id="Group_4107" data-name="Group 4107"><path id="Path_40709" data-name="Path 40709" class="cls-16" d="M57.2,22.61l-3.12,5.67L48,30.66l-1.4-.2-1.4.34a.21.21,0,0,0-.15.25.2.2,0,0,0,0,.08l.54.66.82.51a.28.28,0,0,0,.13,0l1.15-.09,7.1-2.06a2.21,2.21,0,0,0,1.24-.92l4-6.05Z"/><path id="Path_40710" data-name="Path 40710" class="cls-9" d="M62.19,18.11a3.72,3.72,0,0,0,.34-5.26l-.15-.16c-2.66-.84-5,.75-4.31,2.63S61.43,19.05,62.19,18.11Z"/><path id="Path_40711" data-name="Path 40711" class="cls-17" d="M58.09,20.31,55,25.24l3.79,1.65,2-5.29a1.38,1.38,0,0,0-.9-1.64h0A1.4,1.4,0,0,0,58.09,20.31Z"/><path id="Path_40712" data-name="Path 40712" class="cls-18" d="M61.81,16.18l.45,3.17,1.49.94s-4.6,1.52-5.72,1.1c0,0,1.25-1.9,1.24-2s.16-2.7.16-2.7Z"/><path id="Path_40713" data-name="Path 40713" class="cls-16" d="M68.23,62l4.09,6.4,3-1.7-4.24-7Z"/><path id="Path_40714" data-name="Path 40714" class="cls-17" d="M72.06,68.14a2.35,2.35,0,0,0-.36,2.46l4.47-2.53-1-1.72Z"/><g id="Group_4099" data-name="Group 4099"><path id="Path_40715" data-name="Path 40715" class="cls-9" d="M71.83,69.84s-.07,0-.07-.06,0,0,0-.07l3.66-2.07a.08.08,0,0,1,.1,0h0a.08.08,0,0,1,0,.1h0l-3.66,2.07Z"/></g><path id="Path_40716" data-name="Path 40716" class="cls-16" d="M52.78,61.34l-1,7.53,3.38.64,1.3-8.08Z"/><path id="Path_40717" data-name="Path 40717" class="cls-17" d="M51.72,68.49a2.36,2.36,0,0,0-1.86,1.65l5,1,.38-1.93Z"/><g id="Group_4100" data-name="Group 4100"><path id="Path_40718" data-name="Path 40718" class="cls-9" d="M54.63,70.44h0l-4.13-.78a.08.08,0,0,1-.06-.08s0-.07.08-.06l4.14.79a.08.08,0,0,1,.06.08.07.07,0,0,1-.07,0Z"/></g><path id="Path_40719" data-name="Path 40719" class="cls-19" d="M58.2,65.27l4.9-32.39-7.28-.82L50.14,64.27Z"/><path id="Path_40720" data-name="Path 40720" class="cls-9" d="M56.06,32l3.32,21,7.7,12.24,7.37-4.4L66.68,50.48,64,37.5c.24-3.29-.77-5.44-2-5.72Z"/><path id="Path_40721" data-name="Path 40721" class="cls-20" d="M59,19.8A15,15,0,0,0,57,23.45c-.76,2.1-1,5.53-1.13,8.61.89.73,5.57.45,6.32-.21-.14.07,4-7.37,2.55-10.75-.43-1.16-2.5-2.25-2.5-2.25S60.52,20.88,59,19.8Z"/><g id="Group_4101" data-name="Group 4101"><path id="Path_40722" data-name="Path 40722" class="cls-16" d="M59.07,33.51a8.45,8.45,0,0,1-2.7-.13.08.08,0,0,1,0-.09.07.07,0,0,1,.09,0h0a11,11,0,0,0,5.84-.53.07.07,0,0,1,.08,0,.07.07,0,0,1,0,.08A14.75,14.75,0,0,1,59.07,33.51Z"/></g><g id="Group_4102" data-name="Group 4102"><path id="Path_40723" data-name="Path 40723" class="cls-21" d="M67.79,63.75a.07.07,0,0,1-.06,0l-7.1-10.61s0,0,0,0L57,34.47a.07.07,0,0,1,.05-.08.06.06,0,0,1,.08.06L60.75,53l7.09,10.6a.08.08,0,0,1,0,.1h0Z"/></g><g id="Group_4103" data-name="Group 4103"><path id="Path_40724" data-name="Path 40724" class="cls-9" d="M60.07,21h0a1.91,1.91,0,0,1-1.34-.4.06.06,0,0,1,0-.09.08.08,0,0,1,.08,0,1.8,1.8,0,0,0,.94.37A2.86,2.86,0,0,0,62,19.62a.06.06,0,0,1,.09,0,.06.06,0,0,1,0,.07A3.18,3.18,0,0,1,60.07,21Z"/></g><path id="Path_40725" data-name="Path 40725" class="cls-16" d="M61.69,13s-2.51-1.08-3.26,1.9c-.46,1.84-.53,3.29.63,3.67,1.41.46,2.6.08,3.08-1S64.11,14.07,61.69,13Z"/><path id="Path_40726" data-name="Path 40726" class="cls-16" d="M62.72,15.92s.57,0,.44.35-.48.49-.72.53S62.72,15.92,62.72,15.92Z"/><path id="Path_40727" data-name="Path 40727" class="cls-9" d="M59.33,13.63s.09,1.31,2.66,1.14c1-.06.45,2.45,1.19,1.72s.39-3.86-1.57-4.3-4.83.82-3.67,3C58.34,15.92,58.56,14,59.33,13.63Z"/><path id="Path_40728" data-name="Path 40728" class="cls-9" d="M62.7,11.23a2.65,2.65,0,0,0,.15-.69c.07-.6.64-1.56,3.69-1.35,4.36.3,7.42-1.63,8.36-3.38S84.07,12.35,78,16.39c-5.35,3.54-8.77-1.48-10.85-2.54C63.44,12,63,14.22,63,14.22A7.77,7.77,0,0,1,62.7,11.23Z"/><g id="Group_4105" data-name="Group 4105"><g id="Group_4104" data-name="Group 4104"><path id="Path_40729" data-name="Path 40729" class="cls-22" d="M48.57,17.12a37.08,37.08,0,0,0-9.81.53s-.69,9.6-.6,9.94.39,7.44,8.58,11.49C55.49,36.45,57,29.5,57.11,29.17s1-9.9,1-9.9A37.13,37.13,0,0,0,48.57,17.12Z"/><path id="Path_40730" data-name="Path 40730" class="cls-23" d="M48.44,18.71a31.11,31.11,0,0,0-8.4.45s-.59,8.21-.52,8.51.34,6.37,7.35,9.83c7.49-2.26,8.75-8.2,8.87-8.48s.9-8.48.9-8.48A31.63,31.63,0,0,0,48.44,18.71Z"/></g><path id="Path_40731" data-name="Path 40731" class="cls-3" d="M51.43,24.52l-.47,0c-.1-2.46-1.24-3.75-2.72-3.87s-2.83,1-3.34,3.36l-.38,0a.89.89,0,0,0-1,.8L43,31.65a.88.88,0,0,0,.8,1l6.91.57a.88.88,0,0,0,.95-.8l.57-6.9A.88.88,0,0,0,51.43,24.52Zm-2.72,3.86a.32.32,0,0,0-.1.21l-.22,2.7a.32.32,0,0,1-.35.3h0l-1.16-.1a.31.31,0,0,1-.3-.34h0l.22-2.72a.29.29,0,0,0-.06-.22,1.51,1.51,0,0,1-.42-.92,1.48,1.48,0,1,1,3,.18v.07A1.56,1.56,0,0,1,48.71,28.38Zm-2.93-4.33c.52-1.93,1.4-2.61,2.38-2.53s1.73.9,1.92,2.89Z"/></g><path id="Path_40732" data-name="Path 40732" class="cls-16" d="M60.73,24.7l-2.61,5.92-5.84,2.91-1.41-.07-1.36.46a.2.2,0,0,0-.13.26.14.14,0,0,0,0,.08l.59.6.86.44a.3.3,0,0,0,.13,0l1.14-.19L59,32.44a2.21,2.21,0,0,0,1.15-1L63.63,25Z"/><path id="Path_40733" data-name="Path 40733" class="cls-20" d="M61.86,21.85l-2.94,5,4.2,1.6,1.45-5.42a1.38,1.38,0,0,0-.94-1.61h0A1.4,1.4,0,0,0,61.86,21.85Z"/><g id="Group_4106" data-name="Group 4106"><path id="Path_40734" data-name="Path 40734" class="cls-9" d="M63.12,28.55h0L58.89,27a.08.08,0,0,1,0,0,.07.07,0,0,1,0-.06l2.71-4.68a.07.07,0,0,1,.09,0,.06.06,0,0,1,0,.09L59,26.85l4.06,1.54,1.38-5.29a.06.06,0,0,1,.08-.05.07.07,0,0,1,0,.08l-1.4,5.37a.08.08,0,0,1,0,0S63.13,28.55,63.12,28.55Z"/></g></g></svg>