<?xml version="1.0" encoding="UTF-8"?><svg id="_圖層_1" xmlns="http://www.w3.org/2000/svg" viewBox="0 0 102.4 78.46"><defs><style>.cls-1{fill:#f4acc8;}.cls-2{fill:#fff;}.cls-3{fill:#e4e5fd;}.cls-4{fill:#9fabf5;}.cls-5{fill:#b9d2f7;}.cls-6{fill:#415167;}.cls-7{fill:#37384f;}.cls-8{fill:#30237b;}.cls-9{fill:#2f247f;}.cls-10{fill:#83a2cf;}.cls-11{fill:#4e66ec;}.cls-12{fill:#d1d6ff;stroke:#d1d6ff;}</style></defs><g id="Group_17916"><path id="Path_41781" class="cls-5" d="M69.51,35.03c2.93,.02,5.31-2.35,5.33-5.27,.02-2.93-2.35-5.31-5.27-5.33-.77,0-1.53,.16-2.22,.48,0-.16,.02-.31,.02-.47,0-5.84-4.72-10.58-10.57-10.59-2.6,0-5.11,.95-7.05,2.68-2.19-7.68-10.19-12.12-17.87-9.93-7.68,2.19-12.12,10.19-9.93,17.87-.18-.02-.35-.03-.53-.03-2.92,.11-5.2,2.58-5.09,5.5,.11,2.77,2.32,4.98,5.09,5.09h48.09Z"/><path id="Path_41782" class="cls-3" d="M77.48,48.52H31.13c-.75,0-1.35-.6-1.35-1.35V17.17c0-.75,.6-1.35,1.35-1.35,0,0,0,0,0,0h46.36c.75,0,1.35,.6,1.35,1.35h0v30c0,.75-.6,1.35-1.35,1.35h0"/><rect id="Rectangle_6702" class="cls-6" x="32" y="18.03" width="44.62" height="28.27"/><rect id="Rectangle_6703" class="cls-10" x="66.88" y="21.96" width=".71" height="20.4"/><rect id="Rectangle_6704" class="cls-10" x="60.41" y="21.96" width=".71" height="20.4"/><rect id="Rectangle_6705" class="cls-10" x="53.95" y="21.96" width=".71" height="20.4"/><rect id="Rectangle_6706" class="cls-10" x="47.49" y="21.96" width=".71" height="20.4"/><rect id="Rectangle_6707" class="cls-10" x="41.02" y="21.96" width=".71" height="20.4"/><path id="Path_41783" class="cls-2" d="M65.34,41.83c0,1.05,.85,1.89,1.9,1.89,1.05,0,1.89-.85,1.89-1.9,0-1.04-.85-1.88-1.89-1.89-1.05,0-1.9,.85-1.9,1.9h0"/><path id="Path_41784" class="cls-2" d="M58.88,29.41c0,1.05,.85,1.89,1.9,1.89,1.05,0,1.89-.85,1.89-1.9,0-1.04-.85-1.89-1.89-1.89-1.05,0-1.9,.85-1.9,1.9"/><path id="Path_41785" class="cls-2" d="M52.41,33.55c0,1.05,.85,1.89,1.9,1.89,1.05,0,1.89-.85,1.89-1.9,0-1.04-.85-1.89-1.89-1.89-1.05,0-1.9,.85-1.9,1.9h0"/><path id="Path_41786" class="cls-2" d="M45.95,23.61c0,1.05,.85,1.89,1.9,1.89s1.89-.85,1.89-1.9c0-1.04-.85-1.89-1.89-1.89-1.05,0-1.9,.85-1.9,1.9"/><path id="Path_41787" class="cls-2" d="M39.48,36.86c0,1.05,.85,1.89,1.9,1.89,1.05,0,1.89-.85,1.89-1.9,0-1.04-.84-1.89-1.89-1.89-1.05,0-1.9,.85-1.9,1.9"/><path id="Path_41788" class="cls-12" d="M60.54,12.18c-2.1-2.1-5.5-2.1-7.59,0l-.71-.71c2.49-2.48,6.51-2.48,9,0l-.7,.71Zm-9.7-2.11l-.71-.71c3.65-3.65,9.57-3.65,13.22,0,0,0,0,0,0,0l-.71,.71c-3.26-3.26-8.55-3.26-11.81,0m13.92-2.11c-4.43-4.43-11.6-4.43-16.03,0l-.7-.71c4.82-4.82,12.62-4.82,17.44,0,0,0,0,0,0,0l-.71,.71Z"/><path id="Path_41789" class="cls-8" d="M83.1,16.36c1.58,1.07,3.54,6.42,3.83,12.3l-.58,.64h-1.94s-3.54-8.93-4.18-10.57l2.87-2.37Z"/><path id="Path_41790" class="cls-8" d="M81.65,38.94l-.59,1.77,.26,1.09-.36-.02c-.43-.03-.8-.3-.95-.7l-.24-.64,.77-1.88,1.11,.38Z"/><path id="Path_41791" class="cls-8" d="M86.93,28.66l-1.58-.65-1.06,.57c-1.49,3.23-2.74,6.57-3.75,9.98l1.08,.49c2.04-3.32,3.82-6.79,5.32-10.39"/><path id="Path_41792" class="cls-8" d="M83.12,53.17c.45,6.46,.05,12.96-1.19,19.31h-3.04l-2.27-19.1,6.51-.21Z"/><path id="Path_41793" class="cls-8" d="M76.61,53.38l-1.02-17.34h7.56c.6,5.7,.59,11.44-.03,17.13l-6.51,.21Z"/><path id="Path_41794" class="cls-8" d="M69.54,49.23c-.02,5.29-.63,10.56-1.82,15.71h-3.41l-.8-19.8,6.04,4.09Z"/><path id="Path_41795" class="cls-8" d="M63.53,45.16l13.33-13.8,4.64,7.53c-2.95,3.07-12.62,11.28-12.62,11.28l-5.35-5.01Z"/><path id="Path_41796" class="cls-7" d="M66.83,64.94h-1.78l-1.86,1.26-1.56,.26-.05,.75h5.1l.15-2.26Z"/><path id="Path_41797" class="cls-1" d="M75.94,13.64l-.43,3.4,2.69,.5-.1-4.95-2.17,1.05Z"/><path id="Path_41798" class="cls-1" d="M74.66,13.33c-.02,.6,.57,1.13,1.68,.71l1.79-1.14,.86-2.54-.99-2.17-3.31,.19-.04,4.95Z"/><path id="Path_41799" class="cls-7" d="M76.28,9.81l-1.74-.47-.64-1.85,.82,.16h3.19c1.42,0,1.99,1.06,1.56,2.63l-.6,1.9c-.16,.51-.2,.79-.71,.97l-1.17,.47c-.38-1.24-.61-2.52-.71-3.81"/><path id="Path_41800" class="cls-11" d="M72.12,16.74c3.37-2.36,6.85-2.56,10.98-.39,2.28,2.16,1.32,28.13,1.32,28.13h-7.62c-3.14,0-6.01-1.82-7.34-4.66l-.25-.53s1.78-21.75,2.92-22.55"/><path id="Path_41801" class="cls-8" d="M71.96,16.96c2.51-1.25,4.06,1.31,3.51,3.55,0,0-3,6.83-4.09,8.69l-1.02-.42-2.03-1.5c.46-1.33,2.72-9.26,3.62-10.32"/><path id="Path_41802" class="cls-1" d="M60.4,27.72l-1.84-1.84-.3,.07,.25,1.01-3.05-.1,.06,.26,.44,.39,.72,1.14,3.03,.64,.69-1.57Z"/><path id="Path_41803" class="cls-8" d="M71.38,29.2l-.09-1.71-1.28-1.05c-3.41-.02-6.81,.22-10.18,.7l-.12,2.14c3.89,.29,7.8,.26,11.68-.08"/><path id="Path_41804" class="cls-7" d="M81.4,72.48h-1.78l-1.86,1.25-1.56,.25-.05,.75h5.46l-.22-2.25Z"/><path id="Path_41805" class="cls-9" d="M80.34,8.94c.27-1.61-.81-3.14-2.43-3.42,0,0,0,0,0,0-2.24-.38-3.97,.67-4.24,2.29l6.67,1.13Z"/><path id="Path_41806" class="cls-9" d="M76.56,8.3c.44-1.26,.26-2.37-.42-2.48-.93-.16-1.92,.75-2.36,2.01l2.77,.47Z"/><path id="Path_41807" class="cls-9" d="M73.33,8.36l6.9,1.17c.16,.05,.33-.05,.37-.21,.05-.16-.05-.33-.21-.37-.02,0-.04,0-.06-.01l-6.9-1.17c-.17-.01-.31,.11-.32,.28-.01,.14,.08,.28,.22,.31"/><path id="Path_41808" class="cls-4" d="M53.47,67.2h18.54c2.29,0,4.15,1.86,4.15,4.15h0v3.4h-26.83v-3.39c0-2.29,1.86-4.15,4.15-4.15"/></g></svg>