<svg xmlns="http://www.w3.org/2000/svg" xmlns:xlink="http://www.w3.org/1999/xlink" width="16" height="16" viewBox="0 0 16 16">
  <defs>
    <clipPath id="clip-button_close_2">
      <rect width="16" height="16"/>
    </clipPath>
  </defs>
  <g id="button_close_2" clip-path="url(#clip-button_close_2)">
    <g id="Group_19400" data-name="Group 19400" transform="translate(-233.412 -32)">
      <path id="Union_1" data-name="Union 1" d="M.291,15.708a.991.991,0,0,1,0-1.4L6.6,8,.4,1.8A1.077,1.077,0,0,1,.291.291,1.078,1.078,0,0,1,1.8.4L8,6.6,14.306.291a.991.991,0,0,1,1.4,1.4L9.4,8l6.2,6.2a1,1,0,1,1-1.4,1.4L8,9.4,1.692,15.708a.991.991,0,0,1-1.4,0Z" transform="translate(233.414 32)" fill="#363636"/>
    </g>
  </g>
</svg>
