<svg xmlns="http://www.w3.org/2000/svg" xmlns:xlink="http://www.w3.org/1999/xlink" width="65" height="65" viewBox="0 0 65 65">
  <defs>
    <linearGradient id="linear-gradient" x1="0.5" x2="0.5" y2="1" gradientUnits="objectBoundingBox">
      <stop offset="0" stop-color="#4caaf5"/>
      <stop offset="1" stop-color="#28b4be"/>
    </linearGradient>
    <clipPath id="clip-Icon_search">
      <rect width="65" height="65"/>
    </clipPath>
  </defs>
  <g id="Icon_search" clip-path="url(#clip-Icon_search)">
    <g id="_9004662_search_find_magnifier_zoom_icon" data-name="9004662_search_find_magnifier_zoom_icon" transform="translate(0.293 1.041)">
      <path id="Path_14946" data-name="Path 14946" d="M51.07,39.622a27.1,27.1,0,1,0-11.45,11.45l11.5,11.507A8.1,8.1,0,1,0,62.587,51.139ZM5.487,27.118A21.634,21.634,0,1,1,27.121,48.752,21.634,21.634,0,0,1,5.487,27.118ZM58.761,58.779a2.7,2.7,0,0,1-3.786,0L44.247,48.048a27.292,27.292,0,0,0,3.786-3.8L58.774,54.971a2.639,2.639,0,0,1-.024,3.8Z" transform="translate(0 0)" fill="url(#linear-gradient)"/>
      <path id="Path_14947" data-name="Path 14947" d="M20.225,4A16.242,16.242,0,0,0,4,20.225a2.7,2.7,0,1,0,5.408,0A10.817,10.817,0,0,1,20.225,9.408a2.7,2.7,0,0,0,0-5.408Z" transform="translate(6.896 6.892)" fill="url(#linear-gradient)"/>
    </g>
  </g>
</svg>
