<svg xmlns="http://www.w3.org/2000/svg" xmlns:xlink="http://www.w3.org/1999/xlink" width="60" height="60" viewBox="0 0 60 60">
  <defs>
    <clipPath id="clip-path">
      <circle id="Ellipse_130" data-name="Ellipse 130" cx="30" cy="30" r="30" fill="#fff"/>
    </clipPath>
    <clipPath id="clip-path-2">
      <rect id="Rectangle_10798" data-name="Rectangle 10798" width="58.099" height="79.611" fill="none"/>
    </clipPath>
    <clipPath id="clip-image_customerservice">
      <rect width="60" height="60"/>
    </clipPath>
  </defs>
  <g id="image_customerservice" clip-path="url(#clip-image_customerservice)">
    <g id="Group_60291" data-name="Group 60291" transform="translate(18436 -4950)">
      <circle id="Ellipse_129" data-name="Ellipse 129" cx="30" cy="30" r="30" transform="translate(-18436 4950)" fill="#fff"/>
      <g id="Mask_Group_23" data-name="Mask Group 23" transform="translate(-18436 4950)" clip-path="url(#clip-path)">
        <g id="Group_29392" data-name="Group 29392" transform="translate(1.115 -0.019)">
          <g id="Group_29391" data-name="Group 29391" clip-path="url(#clip-path-2)">
            <path id="Path_14669" data-name="Path 14669" d="M233.472,2.91c-.564-2.573-3.981-3.827-5.934-2.14-.392.339-1.484,1.295-1.631,1.438a2.307,2.307,0,0,0,.007,3.47.5.5,0,0,0,.668.08c.446.408.7,1.152,1.589.651.261-.148.839.065,1.264.12.229.03.363.5.017.794-.224.19-.593.357-.423.729s.583.355.931.327a3.551,3.551,0,0,0,1.34-.391c.325-.168-.05.13.3.127.187.176.244.322.7.034.285-.18-.593.322-.894.482a2.293,2.293,0,0,1,.3.075,1.608,1.608,0,0,0,.4-.015,2.23,2.23,0,0,0,.9-.353,3.083,3.083,0,0,0,.969-3.445,17.732,17.732,0,0,1-.5-1.984m-7.329-.281A11.943,11.943,0,0,0,226,4.92a1.423,1.423,0,0,1,.142-2.29m1.7-.215c.645-1.012,1.146-1.207,1.73-.71l-1.73.71" transform="translate(-195.419 -0.001)" fill="#572b2b"/>
            <path id="Path_14670" data-name="Path 14670" d="M48.074,318.1q0,2.1,0,4.2c-.319,3.634-1.236,7.182-1.438,10.838a14.19,14.19,0,0,1-1.1,4.526,5.181,5.181,0,0,1-1.311,1.854c-1.624,1.506-3.353,1.186-4.632-.634-1.169-1.664-1.229-3.529-1.325-5.415a64.366,64.366,0,0,1,.774-10.906,112.143,112.143,0,0,1,2.438-13.287,12.347,12.347,0,0,1,.685-2.037,3.821,3.821,0,0,1,2.3-1.972c.7-.283,1.242.023,1.687.775a12.632,12.632,0,0,1,1.336,4.526,59.244,59.244,0,0,1,.453,6.248c.024.431.088.859.134,1.289" transform="translate(-33.184 -264.891)" fill="#ffd7c5"/>
            <path id="Path_14671" data-name="Path 14671" d="M34.224,483.112a8.333,8.333,0,0,1,1.737.635A2.953,2.953,0,0,1,37.6,485.29c.083.185.112.435-.086.507-.317.115-.724.391-.989.165a11.675,11.675,0,0,1-2.3-2.85" transform="translate(-29.708 -419.367)" fill="#c77c5b"/>
            <path id="Path_14672" data-name="Path 14672" d="M97.269,270.253c2.535,1.217,5.255,1.871,7.84,2.926a3.73,3.73,0,0,1,2.27,4.547c-.23.957-.441,1.919-.627,2.886a2.729,2.729,0,0,1-.433,1.05,35.885,35.885,0,0,1-9.91,9.891,14.125,14.125,0,0,1-11.567,2.314,21.152,21.152,0,0,1-11.416-7.324,22.009,22.009,0,0,1-4-6.663,5.923,5.923,0,0,1,.275-5.339c.426-.7.925-1.328,1.4-1.984a.854.854,0,0,1,.555-.28,70.441,70.441,0,0,0,8.487-2.756,10.674,10.674,0,0,0,3.9-1.906c.975-.924,11.326,1.722,13.235,2.639" transform="translate(-59.827 -232.136)" fill="#ffd7c5"/>
            <path id="Path_14673" data-name="Path 14673" d="M159.043,241.135a9.19,9.19,0,0,1,4.809.717,9.837,9.837,0,0,1,1.083.583,8.6,8.6,0,0,0,1.031.623,20.716,20.716,0,0,1,2.792,3.43.956.956,0,0,1,.236.52c0,.195-.17.4-.351.348a.47.47,0,0,1-.239-.249l-.366-.651c-.036-.064-.08-.135-.15-.151-.115-.027-.2.1-.278.192a1.173,1.173,0,0,1-.954.279,29.43,29.43,0,0,1-5.4-.929,13.63,13.63,0,0,0-5.437-.337,2.052,2.052,0,0,0-.857.323c-.2.152-.356.366-.555.523a.644.644,0,0,1-.7.125c-.1-.061-.2-.172-.32-.143a.358.358,0,0,0-.148.109,2.094,2.094,0,0,1-1.7.343.325.325,0,0,1-.182-.054c-.127-.1-.046-.313.044-.452a17.072,17.072,0,0,1,2.154-2.805,7.118,7.118,0,0,1,3.4-1.979,14.014,14.014,0,0,1,2.082-.363" transform="translate(-131.33 -209.271)" fill="#a2defc"/>
            <path id="Path_14674" data-name="Path 14674" d="M177.249,202.1h-2.806c-1.193-.392-2.455-.449-3.659-.827-.688-.216-1.054-.395-.812-1.228.168-.578-.144-.833-.708-.732-.381.069-.853.252-1.058-.229-.178-.42.223-.687.483-.954a2.871,2.871,0,0,1,.33-.268,2.7,2.7,0,0,0,1.111-1.782c.366-2.708.556-5.416-.605-8a.816.816,0,0,1,.047-.814,1.283,1.283,0,0,1,2.091-.306c.644.927,1.773,1.444,2.071,2.644.049.2.149.376.4.224a1.714,1.714,0,0,1,2.483.609,10.364,10.364,0,0,1,.908-3.3,1.667,1.667,0,0,1,1.734-.967,1.376,1.376,0,0,1,1.239,1.113c.172.732.384,1.514-.354,2.114a1.377,1.377,0,0,0-.485,1.085c-.008,1.516-.052,3.037.049,4.547.093,1.394.114,2.857,1.455,4.016-.962-.108-.911.435-.786.856.223.754-.149,1.108-.691,1.445a3.471,3.471,0,0,1-1.242.457,2.808,2.808,0,0,0-1.195.3" transform="translate(-145.974 -161.596)" fill="#ffd7c5"/>
            <path id="Path_14675" data-name="Path 14675" d="M188.452,223.629c-3.016-.175-4.448-1.247-4.451-1.385a20.8,20.8,0,0,0-.105-3.459c-.065-.4.5-.255.625.1s.3.5.674.4a.587.587,0,0,1,.647.332c.724,1.14,2.037,1.4,3.016,2.158.2.158.335-.062.485-.159.712-.456,1.425-.909,2.136-1.366.185-.119.37-.239.57-.051s.812-1.028.7-.8c-.043.085.382-.714.44-.646.505.6-1.613,4.928-4.735,4.875" transform="translate(-159.627 -189.708)" fill="#c77c5b"/>
            <path id="Path_14676" data-name="Path 14676" d="M306.23,323.2q0-1.087,0-2.173a20.235,20.235,0,0,1,2.52-7.066,4.654,4.654,0,0,1,.274-.419c1.17-1.649,2.635-1.507,3.73.03a27.268,27.268,0,0,1,2.475,4.522,101.7,101.7,0,0,1,3.7,10.507c.768,2.32,1.72,4.576,2.527,6.883a46.045,46.045,0,0,1,2.431,9.014c.006.048.011.1.016.143a1.9,1.9,0,0,1-2.37,2.225,7.891,7.891,0,0,1-5.61-4.249c-1.808-3.616-3.64-7.219-5.417-10.852-.965-1.973-2.236-3.778-3.222-5.75a11.8,11.8,0,0,1-1.055-2.815" transform="translate(-265.822 -271.142)" fill="#ffd7c5"/>
            <path id="Path_14677" data-name="Path 14677" d="M373,492.6a58.769,58.769,0,0,1-7.155,3.374c-.222.068-.529.25-.655-.016a3.648,3.648,0,0,1-.422-1.116c0-.364.346.184.538.1a11.517,11.517,0,0,1,3.95-1.023c.245-.014.356-.2.53-.307.193.034,3.2-1.327,3.214-1.012" transform="translate(-316.64 -427.566)" fill="#c77c5b"/>
            <path id="Path_14678" data-name="Path 14678" d="M162.487,48.431h1.684c1.1.38,2.187.8,3.3,1.132,2.453.737,5.324,3.55,5.022,6.9a1.415,1.415,0,0,0,.019.36,15.536,15.536,0,0,1-.521,6.046,24.189,24.189,0,0,1-1.738,4.944,15.985,15.985,0,0,1-4.567,6.291,3.242,3.242,0,0,1-4.049-.06c-.438-.359-.893-.7-1.31-1.082a11.115,11.115,0,0,1-3.046-4.161,31.6,31.6,0,0,1-2.216-9.861c-.145-2.812.241-5.4,2.258-7.523a7.65,7.65,0,0,1,2.727-1.96c.82-.325,1.627-.687,2.439-1.032" transform="translate(-134.579 -42.041)" fill="#ffd7c5"/>
            <path id="Path_14679" data-name="Path 14679" d="M67.353,278.713A64.558,64.558,0,0,1,70.361,286a28.739,28.739,0,0,1,1.989,8.569c.076,2.131.747,4.249.148,6.4a1.191,1.191,0,0,0,.078.632c.7,2.138,1.4,4.275,2.122,6.406.317.936.651,1.866.99,2.794H99.573c.3-1.147.558-2.306.852-3.455a56.532,56.532,0,0,0,1.687-9.664,17.145,17.145,0,0,1,.363-3.055c.66-2.522,1.3-5.05,1.941-7.577.629-2.476.953-5.015,1.357-7.533a2.517,2.517,0,0,0-.583-2.206,3.975,3.975,0,0,0-1.937-.892,52.928,52.928,0,0,1-6.212-2.186A23.021,23.021,0,0,1,93.371,272c-.249-.178-.527-.343-.839-.118a.561.561,0,0,0-.252.627,4.924,4.924,0,0,1,0,1.99,17.17,17.17,0,0,1-3.375,8.558c-.189.258-.311.255-.564.091a18.932,18.932,0,0,1-3.964-3.613c-1.222-1.421-2.252-2.992-3.407-4.465a3.945,3.945,0,0,1-1.051-2c-.08-.764-.326-.9-1.026-.554-.97.474-1.957.9-2.965,1.281-2.257.858-4.64,1.216-6.948,1.873a6.011,6.011,0,0,0-1.992.85c-.579.428-.6.8-.168,1.348a5,5,0,0,1,.538.839" transform="translate(-57.741 -235.916)" fill="#1489d1"/>
            <path id="Path_14680" data-name="Path 14680" d="M15.723,329.753c-.055.488.137,1.01-.215,1.462-.127.164.029.281.139.419.352.442.226.677-.32.823a7.2,7.2,0,0,1-2.9-.046A51.327,51.327,0,0,1,5.6,331.005a11.427,11.427,0,0,1-4.992-2.779c-.735-.716-.76-1.047-.33-1.97,1.274-2.731,2.794-5.326,4.164-8a62.941,62.941,0,0,0,3.314-8.4c.224-.656.509-1.291.72-1.951a1.664,1.664,0,0,1,1.44-1.176,1.485,1.485,0,0,1,1.608.9,7.264,7.264,0,0,1,.654,2.629,102.786,102.786,0,0,0,2.227,10.435,33.912,33.912,0,0,1,1.194,7.49c.009.518.154,1.04.12,1.572" transform="translate(0 -266.235)" fill="#1489d1"/>
            <path id="Path_14681" data-name="Path 14681" d="M329.6,342.7h-1.122c-1-.4-1.069-1.269-.948-2.168.294-2.178.624-4.35.949-6.524.36-2.41.734-4.817,1.1-7.226a53.485,53.485,0,0,0,1.038-7.528c.007-.868.3-1.738.269-2.635a.588.588,0,0,1,.336-.591c.242-.085.43.12.612.271a3.033,3.033,0,0,1,.747,1.438,51.408,51.408,0,0,0,3.285,7.469,42.131,42.131,0,0,1,2.619,4.926c1.079,2.688,2.371,5.27,3.506,7.929.264.618.093,1.154-.48,1.315q-3.132.882-6.266,1.752L329.6,342.7" transform="translate(-284.279 -274.314)" fill="#1489d1"/>
            <path id="Path_14682" data-name="Path 14682" d="M165.186,258.494a3.761,3.761,0,0,0-.153-2.291.546.546,0,0,1,.1-.673c.168-.162,0,0,.15.118a19.481,19.481,0,0,1,3.356,2.8,4.856,4.856,0,0,1,.877,2.829,41.044,41.044,0,0,1-.074,7.119c-.125.3-.432-.074-.573-.217-.583-.592-1.057-.815-1.637-1.409-.857-.88-1.342-1.206-2.3-.482-.806.607-2.277,2.3-3.086,2.9a.974.974,0,0,1-1.181.048c-.54-.414-1.684-1.475-2.23-1.88-1.429-1.058-1.4-.353-2.645.988-.27.29-.527.7-.807.988-.488.5-.513.458-.945-.1a10.112,10.112,0,0,1-1.7-3.368c-.5-1.7-.964-3.4-1.326-5.139-.524-2.512.238-3.331,2.167-4.649a17.533,17.533,0,0,1,1.484-1.306c.474-.19.524.078.424.585a8.206,8.206,0,0,0,1.049,5.75,70.518,70.518,0,0,0,4.886,6.645c.271.313.4.364.669-.015a21.528,21.528,0,0,0,3.441-7.653,3.855,3.855,0,0,0,.055-.715c.009-.24,0-.482,0-.875" transform="translate(-130.943 -221.102)" fill="#a2defc"/>
            <path id="Path_14683" data-name="Path 14683" d="M153.977,298.265a.207.207,0,0,1-.157-.073A19.815,19.815,0,0,1,150,289.326a.217.217,0,0,1,.171-.251.212.212,0,0,1,.244.176,19.825,19.825,0,0,0,3.535,8.428c1.689-2.7,2.968-2.83,3.023-2.834a.206.206,0,0,1,.158.056,10.636,10.636,0,0,0,3.943,2.615c.159-.206.507-.6,1.27-1.414a20.426,20.426,0,0,1,2.135-2.034c.27-.194.438-.251.58-.2a30.779,30.779,0,0,1,3.346,2.43c.245-1.185.8-5.954-.45-8.8a.22.22,0,0,1,.1-.287.208.208,0,0,1,.279.108,14.523,14.523,0,0,1,.81,5.934,23.752,23.752,0,0,1-.211,2.431c-.156,1.085-.248,1.138-.33,1.185a.224.224,0,0,1-.29-.074,33.007,33.007,0,0,0-3.377-2.507c-.54.153-3.349,3.211-3.6,3.572a.214.214,0,0,1-.052.066.205.205,0,0,1-.173.046c-.068-.013-1.691-.345-4.187-2.678-.293.084-1.381.539-2.774,2.867a.21.21,0,0,1-.161.1h-.018" transform="translate(-130.209 -249.298)" fill="#083c56"/>
            <path id="Path_14684" data-name="Path 14684" d="M178.928,260.344a.211.211,0,0,1-.2-.158,6.86,6.86,0,0,1,.054-3.823.206.206,0,0,1,.3,0,.222.222,0,0,1,.034.26,7.126,7.126,0,0,0,.019,3.444.218.218,0,0,1-.145.268.2.2,0,0,1-.058.008" transform="translate(-154.939 -222.481)" fill="#083c56"/>
            <path id="Path_14685" data-name="Path 14685" d="M255.943,262.342h-.021a.215.215,0,0,1-.189-.237,12.949,12.949,0,0,0-.319-3.446.221.221,0,0,1,.076-.268.207.207,0,0,1,.292.06,12.4,12.4,0,0,1,.37,3.7.213.213,0,0,1-.209.2" transform="translate(-221.698 -224.264)" fill="#083c56"/>
            <path id="Path_14686" data-name="Path 14686" d="M76.255,326.013a.213.213,0,0,1-.208-.183c-1.549-10.217-3.841-12.534-3.864-12.556a.221.221,0,0,1-.009-.306.206.206,0,0,1,.3-.01c.1.095,2.421,2.442,3.992,12.806a.216.216,0,0,1-.176.248l-.033,0" transform="translate(-62.601 -271.612)" fill="#083c56"/>
            <path id="Path_14687" data-name="Path 14687" d="M73.794,370.84a.209.209,0,0,1-.177-.1c-1.33-2.125-2.4-2.485-2.409-2.488a.219.219,0,0,1-.14-.27.209.209,0,0,1,.26-.146c.049.015,1.214.386,2.643,2.669a.221.221,0,0,1-.063.3.205.205,0,0,1-.114.035" transform="translate(-61.683 -319.295)" fill="#083c56"/>
            <path id="Path_14688" data-name="Path 14688" d="M86.924,321.5a.212.212,0,0,1-.206-.175,29.251,29.251,0,0,0-2.086-6.649.22.22,0,0,1,.093-.291.208.208,0,0,1,.283.1,29.7,29.7,0,0,1,2.123,6.761.217.217,0,0,1-.166.254.213.213,0,0,1-.04,0" transform="translate(-73.445 -272.886)" fill="#083c56"/>
            <path id="Path_14689" data-name="Path 14689" d="M115.778,413.132a.21.21,0,0,1-.2-.136s-1.315-3.348-2.628-6.7c-2.654-6.787-2.65-6.8-2.615-6.908a.209.209,0,0,1,.266-.137.215.215,0,0,1,.14.164c.142.46,3.814,9.829,5.226,13.424a.219.219,0,0,1-.116.282.205.205,0,0,1-.079.016" transform="translate(-95.775 -346.557)" fill="#083c56"/>
            <path id="Path_14690" data-name="Path 14690" d="M135.727,438.138a.208.208,0,0,1-.165-.082c-.987-1.274-2.614-3.346-2.828-3.54a.22.22,0,0,1-.09-.254.209.209,0,0,1,.266-.137c.075.026.2.068,2.981,3.66a.222.222,0,0,1-.033.3.207.207,0,0,1-.131.047" transform="translate(-115.133 -376.834)" fill="#083c56"/>
            <path id="Path_14691" data-name="Path 14691" d="M222.247,447.2a.2.2,0,0,1-.109-.031.221.221,0,0,1-.071-.3c.726-1.237,4.636-16.129,4.742-16.576a.219.219,0,0,1,.059-.135.207.207,0,0,1,.28-.021c.118.094.118.094-.089.9-.109.427-.268,1.036-.463,1.77-.448,1.7-.985,3.678-1.471,5.439-1.01,3.659-2.3,8.164-2.7,8.846a.209.209,0,0,1-.18.1" transform="translate(-192.739 -373.346)" fill="#083c56"/>
            <path id="Path_14692" data-name="Path 14692" d="M248.829,492.679a.2.2,0,0,1-.074-.014.219.219,0,0,1-.122-.28l.894-2.434a.209.209,0,0,1,.271-.126.219.219,0,0,1,.122.28l-.894,2.434a.211.211,0,0,1-.2.14" transform="translate(-215.814 -425.181)" fill="#083c56"/>
            <path id="Path_14693" data-name="Path 14693" d="M328.839,343.5a.2.2,0,0,1-.058-.008.218.218,0,0,1-.145-.268c0-.015.419-1.515.531-2.182.064-.38.2-3.247.324-5.776.092-1.915.179-3.724.225-4.254.059-.687.6-3.089,1.127-5.412.427-1.886.83-3.668.908-4.249a23.479,23.479,0,0,0,0-3.6.215.215,0,0,1,.194-.233.213.213,0,0,1,.226.2,23.388,23.388,0,0,1,0,3.7c-.081.6-.486,2.391-.915,4.287-.5,2.2-1.062,4.7-1.118,5.352-.045.522-.132,2.326-.224,4.237-.129,2.666-.261,5.422-.33,5.828-.116.69-.524,2.165-.541,2.227a.212.212,0,0,1-.2.157" transform="translate(-285.267 -275.623)" fill="#083c56"/>
            <path id="Path_14694" data-name="Path 14694" d="M340.963,382.19a.205.205,0,0,1-.069-.012.218.218,0,0,1-.13-.276c.033-.1,3.3-10.712,3.439-13.866a.211.211,0,1,1,.421.02c-.143,3.275-3.43,13.891-3.462,13.988a.211.211,0,0,1-.2.146" transform="translate(-295.792 -319.296)" fill="#083c56"/>
            <path id="Path_14695" data-name="Path 14695" d="M359.092,405.812a.2.2,0,0,1-.108-.031.221.221,0,0,1-.073-.3,48.645,48.645,0,0,0,2.375-4.555.208.208,0,0,1,.271-.127.219.219,0,0,1,.123.279,51.062,51.062,0,0,1-2.408,4.625.209.209,0,0,1-.181.105" transform="translate(-311.528 -347.906)" fill="#083c56"/>
            <path id="Path_14696" data-name="Path 14696" d="M103.668,205.779c-.26.993-.5,1.8-1.3,2.219.045-.155-3.492-.471-3.5-3.2a9.336,9.336,0,0,0-.7-2.424c-.6-1.717-1.231-3.417-1.882-5.113a3.441,3.441,0,0,1-.3-2.647c.783-1.8,1.428-3.725,2.135-5.583.25-.657.53-1.366.818-2.031.27-.621.771-1.459,1.345-1.158.443.232.44-.883.927-.678.7.291.3,1.7.152,2.334-.287,1.188-.609,2.366-.9,3.553-.049.2-.179.415-.044.65.321-.107.344-.4.419-.628.227-.69.457-1.508.667-2.2.1-.323.134-.605.564-.562.478.048.516.716.532,1.078a8.705,8.705,0,0,1-.518,2.92,18.744,18.744,0,0,0-.469,3.439s.488-3.362,1.7-3.087c.738.167.338.557.138,1.152a20.341,20.341,0,0,0-.482,3.694,6.661,6.661,0,0,0,.482,2.949c1.2,2.663.753,3.276.215,5.333" transform="translate(-83.174 -160.705)" fill="#ffd7c5"/>
            <path id="Path_14697" data-name="Path 14697" d="M48.935,344.919a3.681,3.681,0,0,1-1.324-.732c-.425-.653-2.137-1.031-2.54-1.7-.7-1.16.223-2.994-.25-4.279a.846.846,0,0,1-.084-.275c.294-.1.23-.38.291-.6,1.764-6.339,8.588-12.656,9.509-23.324.026-.305-.559-3.169-.217-3.295s.535.148.637.417c.274.726,4.231,1.983,4.231,2.08-.046.133.6-.251.512.2-.459,2.271-.961,5.47-2.195,10.457-1.142,4.617-2.678,11.146-4,15.722-.819,2.839-1.952,3.568-4.317,5.28a.27.27,0,0,1-.253.042" transform="translate(-38.834 -269.691)" fill="#ffd7c5"/>
            <path id="Path_14698" data-name="Path 14698" d="M280.578,536.916c-2.435-.242-4.772-.5-7.114-.7-1.646-.142-3.292-.282-4.936-.453-1.951-.2-3.013-.376-4.936-.742-.228-.043-.612.318-.96.507-.925.5-2.745-1.765-2.83-3.08a1.238,1.238,0,0,1,.76-1.3c1.415-.721,2.884-.477,4.315-.388,2.847.178,5.682.088,8.525-.008a30.371,30.371,0,0,1,5.861-.049,5.333,5.333,0,0,1,4.176,4.789c0,.322-.055.716-.447.818a12.72,12.72,0,0,1-2.414.6" transform="translate(-225.518 -460.56)" fill="#ffd7c5"/>
            <path id="Path_14699" data-name="Path 14699" d="M218.309,538.217h-.561c-.1-.307-.4-.306-.619-.409a19.725,19.725,0,0,1-3.049-1.435c-.481-.329-1.091-.655-1.064-1.328s.672-.941,1.2-1.167q2.807-1.2,5.557-2.53c.835-.4,2.767-.239,3.949-.172.962.054.034,1.244.2,2.155a1.972,1.972,0,0,1-1.016,2.042c-1.48,1.044-3.035,1.951-4.6,2.844" transform="translate(-184.909 -461.01)" fill="#ffd7c5"/>
            <path id="Path_14700" data-name="Path 14700" d="M180.455,556.821c-.55.409-1.082-.26-.851-.6a12.631,12.631,0,0,1,1.647-1.756c.613-.613,1.242-1.209,1.891-1.781.911-.8,1.705-1.627,2.807-1.607,1.185.022,2.589.831,3.771.961a7.465,7.465,0,0,1,2.111.49c.764.323,2.6-.179,2.028.2a65.759,65.759,0,0,1-7.755,4.688c-.429.182-.9.335-1.295-.122-.113-.13-.252-.058-.389-.015-.7.221-1.388.842-2.131.092-.021-.021-.1-.011-.133.012a5.4,5.4,0,0,1-1.492.592c-1.393.027.052-1.346-.21-1.15" transform="translate(-155.858 -478.361)" fill="#ffd7c5"/>
            <path id="Path_14701" data-name="Path 14701" d="M170.491,121.293c.411-.019.767.063.813.568.041.456-.305.586-.632.6a11.231,11.231,0,0,0-3.159,1.052c-.189.067-.521.208-.512-.152a.593.593,0,0,1,.064-.229c.557-1.216,2.216-1.785,3.425-1.843" transform="translate(-144.965 -105.287)" fill="#422121"/>
            <path id="Path_14702" data-name="Path 14702" d="M382.9,530.546a.206.206,0,0,1-.072-.013,15.41,15.41,0,0,0-5.6-.755.211.211,0,0,1-.223-.2.215.215,0,0,1,.2-.23,15.871,15.871,0,0,1,5.767.781.219.219,0,0,1,.125.278.211.211,0,0,1-.2.143" transform="translate(-327.263 -459.483)" fill="#c77c5b"/>
            <path id="Path_14703" data-name="Path 14703" d="M236.177,120.96a4.7,4.7,0,0,1,2.8.841c.233.2.533.472.387.756-.1.2-.51.144-.768.035a7.591,7.591,0,0,0-2.393-.465c-.438-.036-1,.058-.959-.614.028-.418.421-.556.931-.552" transform="translate(-204.204 -104.999)" fill="#422121"/>
            <path id="Path_14704" data-name="Path 14704" d="M187.739,144.978a1.78,1.78,0,0,1-.121.618c-.114.29-.478.684-.8.407a1.687,1.687,0,0,1-.042-1.882c.3-.379.761-.081.882.29a1.743,1.743,0,0,1,.084.567" transform="translate(-161.899 -124.951)" fill="#282828"/>
            <path id="Path_14705" data-name="Path 14705" d="M242.214,145.156c-.022-.518.07-1.122.6-1.08.729.058.637,1.4.4,1.868a.5.5,0,0,1-.823.092.888.888,0,0,1-.12-.344,3.945,3.945,0,0,1-.061-.537" transform="translate(-210.252 -125.064)" fill="#282828"/>
            <path id="Path_14706" data-name="Path 14706" d="M141.695,34.282c.118-.015,2.313-.045,2.43-.056.8-.077,1.75.077,1.243,1.609-.312.943.361,1.436.651,2.109v1.012c-.142-.032-.187.069-.265.167-.594.754-.841,1.71-1.381,2.493a14.565,14.565,0,0,1-6.512,5.153,3.727,3.727,0,0,0-1.232.788,12.576,12.576,0,0,0-2.64,3.695c-1,2.182-3.116-1.036-3.575-2.086a3.954,3.954,0,0,1-.319-2.116c.1-.728.646-1.33.475-2.1a5.147,5.147,0,0,1,.865-4.081,19.562,19.562,0,0,1,3.13-3.251,12.521,12.521,0,0,1,7.13-3.338m-9.275,7a5.463,5.463,0,0,0-1.063,2.091,3.193,3.193,0,0,0,1.063-2.091" transform="translate(-112.898 -29.696)" fill="#572b2b"/>
            <path id="Path_14707" data-name="Path 14707" d="M226.556,41.1v-.434a3.543,3.543,0,0,1,2.754-.358c3.763.984,5.623,3.825,6.629,7.394.555,1.967.013,3.9-.609,5.782a.7.7,0,0,1-.744.536.679.679,0,0,1-.61-.6c-.04-.157,0-.488-.271-.362-.886.406-1.354-.18-1.812-.764a25.658,25.658,0,0,1-4.312-9.9c-.174-.7-.308-1.171-1.023-1.3" transform="translate(-196.663 -34.881)" fill="#572b2b"/>
            <path id="Path_14708" data-name="Path 14708" d="M277.288,114.747a.208.208,0,0,1-.088-.019c-.108-.051-.134-.063-.928-2.635a.218.218,0,0,1,.137-.272.21.21,0,0,1,.264.141c.263.852.7,2.241.786,2.443a.213.213,0,0,1,.022.04.22.22,0,0,1-.109.285.207.207,0,0,1-.084.018m-.008-.433a.2.2,0,0,0-.075.018.2.2,0,0,1,.075-.018" transform="translate(-239.81 -97.057)" fill="#421414"/>
            <path id="Path_14709" data-name="Path 14709" d="M148.618,60.5c.227-1.677,1.216-7.389,1.508-8.874a5.381,5.381,0,0,1,3.3-4c3.192-.851,9.223-1.288,11.742,1.253.753.759.845,1.649,1.218,2.969.646,2.282,1,4.02,1.433,6.351a2.689,2.689,0,0,1,0,1.146c-.047.19-.145.36-.375.367a.374.374,0,0,1-.375-.274c-.128-.385.088.649,0,.253-.5-2.126-.882-5.181-1.578-7.26-.851-2.541-2.21-3.613-4.413-3.767a18.231,18.231,0,0,0-5.618.19c-1.624.371-3.112.752-3.928,2.455a29.854,29.854,0,0,0-1.789,8.1c-.072.737.16,1.107-.264,1.745H149.2c-.02-.308-.333-.607-.4-.9-.12-.511-.27.945-.175.246" transform="translate(-128.983 -40.768)" fill="#525263"/>
            <path id="Path_14710" data-name="Path 14710" d="M200.784,201.148a3.992,3.992,0,0,1-1.911-.92c-.08-.08-.322-.187-.275-.314s.266-.076.369-.07a22.712,22.712,0,0,0,2.9.148c.454-.03.905-.092,1.356-.15.154-.02,1.446-.3,1.335-.088a5.191,5.191,0,0,1-1.6,1.1,4.519,4.519,0,0,1-2.169.3" transform="translate(-172.389 -173.329)" fill="#f97f5a"/>
            <path id="Path_14711" data-name="Path 14711" d="M160.312,71.508a.2.2,0,0,1-.054-.007.217.217,0,0,1-.149-.265c2.4-9.324,9.5-11.1,10.9-11.366l.026-.005a.209.209,0,0,1,.24.113.22.22,0,0,1-.094.291.3.3,0,0,1-.1.028c-1.356.254-8.236,1.979-10.573,11.05a.211.211,0,0,1-.2.161" transform="translate(-138.976 -51.96)" fill="#421414"/>
            <path id="Path_14712" data-name="Path 14712" d="M190.97,61.833a.209.209,0,0,1-.176-.1.221.221,0,0,1,.061-.3,11.706,11.706,0,0,1,6.735-1.615c.045,0,.076,0,.094,0a.211.211,0,0,1,.223.153.218.218,0,0,1-.141.27.525.525,0,0,1-.185.008,11.291,11.291,0,0,0-6.494,1.543.2.2,0,0,1-.115.036" transform="translate(-165.589 -51.923)" fill="#421414"/>
            <path id="Path_14713" data-name="Path 14713" d="M263.358,104.683a.206.206,0,0,1-.144-.059.219.219,0,0,1-.051-.078,36.913,36.913,0,0,0-2.537-4.227.221.221,0,0,1,.033-.3.206.206,0,0,1,.3.034,25.71,25.71,0,0,1,1.686,2.655c1.005,1.765,1,1.77.872,1.912a.207.207,0,0,1-.153.068" transform="translate(-226.197 -86.777)" fill="#421414"/>
            <path id="Path_14714" data-name="Path 14714" d="M146.731,131.179c.635.131,1.11,1.108,1.262,1.658a49,49,0,0,1,1.218,5.31c.135.843-.4,2.5-1.323,1.337a7.429,7.429,0,0,1-1.459-3.1c-.161-.795-.681-3.677-.681-4.015,0-.4-.011-.775.362-1.037a.778.778,0,0,1,.622-.153" transform="translate(-126.517 -113.857)" fill="#202020"/>
            <path id="Path_14715" data-name="Path 14715" d="M141.294,134.066c.235.088.388.674.468.878.25.633.46,1.284.659,1.936a24.484,24.484,0,0,1,1.01,4.212c.018.153.123.664-.015.792-.175.162-.986-.369-1.167-.485a4.506,4.506,0,0,1-2-3.154c-.02-.132-.62-3.161,1.04-4.179" transform="translate(-121.642 -116.376)" fill="#525263"/>
            <path id="Path_14716" data-name="Path 14716" d="M148.961,179.372a.541.541,0,0,1,.047-.073c.131-.171.4-.293.576-.113s.194.682.237.94c.169,1,.063,1.975.839,2.727a5.882,5.882,0,0,0,2.257,1.2c.362.123.73.23,1.095.344a.688.688,0,0,0,.637-.129,1.944,1.944,0,0,1,2.18.068.861.861,0,0,1,.47.92,1.1,1.1,0,0,1-1.35.8c-.842-.17-1.567-.734-2.4-.951a11.281,11.281,0,0,1-2.459-.991,3.611,3.611,0,0,1-1.543-1.486,8.167,8.167,0,0,1-.653-2.649,1.056,1.056,0,0,1,.067-.614" transform="translate(-129.235 -155.466)" fill="#525263"/>
            <path id="Path_14717" data-name="Path 14717" d="M43.618,495.06a.2.2,0,0,1-.063-.01.218.218,0,0,1-.138-.272c.176-.581,1.116-2.888,1.156-2.986a.208.208,0,0,1,.275-.116.219.219,0,0,1,.113.284c-.01.024-.971,2.385-1.142,2.947a.211.211,0,0,1-.2.152" transform="translate(-37.68 -426.786)" fill="#c77c5b"/>
            <path id="Path_14718" data-name="Path 14718" d="M136.874,269.337a.21.21,0,0,1-.184-.112c-.124-.23-1.342-2.616-1.393-2.717l-.007-.016a2.837,2.837,0,0,1,.1-1.738l.037-.144a.21.21,0,0,1,.257-.154.218.218,0,0,1,.15.265l-.037.145a2.551,2.551,0,0,0-.125,1.449c.081.158,1.267,2.481,1.385,2.7a.22.22,0,0,1-.082.295.2.2,0,0,1-.1.027" transform="translate(-117.349 -229.555)" fill="#c77c5b"/>
            <path id="Path_14719" data-name="Path 14719" d="M121.449,238.213h-.013a.215.215,0,0,1-.2-.229,33.659,33.659,0,0,1,1.028-3.992.209.209,0,0,1,.265-.14.218.218,0,0,1,.136.273,34.7,34.7,0,0,0-1.009,3.886.213.213,0,0,1-.21.2" transform="translate(-105.241 -202.986)" fill="#c77c5b"/>
            <path id="Path_14720" data-name="Path 14720" d="M107.365,204.669l-.031,0a.216.216,0,0,1-.178-.246,48.764,48.764,0,0,1,1.421-5.535c.315-1.043.609-1.974.8-2.571.184-.572.279-.868.34-1.025a.222.222,0,0,1,.008-.035l0-.014c.059-.121.086-.13.136-.147a.206.206,0,0,1,.215.052.23.23,0,0,1,.045.243.226.226,0,0,1-.012.03,84.392,84.392,0,0,0-2.542,9.065.213.213,0,0,1-.208.185" transform="translate(-93.015 -169.342)" fill="#c77c5b"/>
            <path id="Path_14721" data-name="Path 14721" d="M243.282,39.389a.208.208,0,0,1-.168-.086,10.143,10.143,0,0,0-2.933-2.013,9.487,9.487,0,0,0-1.611-.368l-.055-.008a.216.216,0,0,1-.173-.25.211.211,0,0,1,.242-.178l.044.006a9.89,9.89,0,0,1,1.681.384,10.355,10.355,0,0,1,3.14,2.164.221.221,0,0,1-.04.3.206.206,0,0,1-.127.044" transform="translate(-206.892 -31.669)" fill="#421414"/>
            <path id="Path_14722" data-name="Path 14722" d="M251.929,14.023a.213.213,0,0,1-.209-.192.215.215,0,0,1,.185-.24,1.72,1.72,0,0,0,1.426-.8c.5-.93-.107-2.393-.305-2.82A.243.243,0,0,1,253,9.827a.209.209,0,0,1,.4-.053l.006.012c.22.474.891,2.105.294,3.217a2.11,2.11,0,0,1-1.746,1.018h-.024" transform="translate(-218.506 -8.368)" fill="#421414"/>
            <path id="Path_14723" data-name="Path 14723" d="M253.759,25.1a4.925,4.925,0,0,1-1.912-.473.219.219,0,0,1-.112-.284.208.208,0,0,1,.276-.116c1.223.531,2.143.581,2.734.151a2.81,2.81,0,0,0,.774-2.262s0-.02,0-.024a.21.21,0,1,1,.421-.007,3.169,3.169,0,0,1-.951,2.647,2.031,2.031,0,0,1-1.229.367" transform="translate(-218.505 -18.989)" fill="#421414"/>
            <path id="Path_14724" data-name="Path 14724" d="M213.213,160.219a.673.673,0,0,1-.422-.113.379.379,0,0,1-.139-.323c.049-.953.284-3.072.294-3.161a.213.213,0,0,1,.233-.191.215.215,0,0,1,.185.24c0,.022-.239,2.148-.291,3.1a1.917,1.917,0,0,0,.767-.1.209.209,0,0,1,.262.145.218.218,0,0,1-.141.27,2.758,2.758,0,0,1-.749.133" transform="translate(-184.593 -135.788)" fill="#c77c5b"/>
            <path id="Path_14725" data-name="Path 14725" d="M152.319,146.526a.213.213,0,0,1-.209-.2,25.62,25.62,0,0,0-1.45-5.9.216.216,0,0,1,.078-.292.211.211,0,0,1,.29.083,25.813,25.813,0,0,1,1.5,6.067.215.215,0,0,1-.19.236h-.02" transform="translate(-130.756 -121.624)" fill="#161616"/>
            <path id="Path_14726" data-name="Path 14726" d="M185.033,568.97a.207.207,0,0,1-.147-.061.221.221,0,0,1,0-.307,32.789,32.789,0,0,1,3.952-3.64.207.207,0,0,1,.289.073.221.221,0,0,1-.07.3,33.334,33.334,0,0,0-3.869,3.571.207.207,0,0,1-.151.066" transform="translate(-160.435 -490.39)" fill="#c77c5b"/>
            <path id="Path_14727" data-name="Path 14727" d="M198.058,572.546a.205.205,0,0,1-.108-.031.221.221,0,0,1-.072-.3,23.979,23.979,0,0,1,4.205-3.724.207.207,0,0,1,.285.089.22.22,0,0,1-.087.293,24,24,0,0,0-4.057,3.586.208.208,0,0,1-.167.084" transform="translate(-171.742 -493.46)" fill="#c77c5b"/>
            <path id="Path_14728" data-name="Path 14728" d="M217.728,579.857a.212.212,0,0,1-.039,0,.217.217,0,0,1-.168-.253,28.854,28.854,0,0,1,2.621-2.507.207.207,0,0,1,.3.028.222.222,0,0,1-.027.305c-.7.6-2.332,2.108-2.5,2.317a.209.209,0,0,1-.185.114" transform="translate(-188.817 -500.903)" fill="#c77c5b"/>
            <path id="Path_14729" data-name="Path 14729" d="M274.553,132.651v.867c-.335.142-.248.473-.288.731-.354,2.271-.718,4.533-2.658,6.064-.61.289-.749-.5-.748-.8a23.8,23.8,0,0,1,1.069-7.043c.281-.909.828-.989,1.557-.986.542,0,.551.507.784.8.1.12.061.346.284.362" transform="translate(-235.12 -114.139)" fill="#202020"/>
            <path id="Path_14730" data-name="Path 14730" d="M281.83,132.676c.388-.219,1.105.776,1.3,1.069.869,1.314.336,3.811-.544,5.349a2.984,2.984,0,0,1-2.227,1.608c-.082-.241,1.13-7.834,1.472-8.026" transform="translate(-243.362 -115.142)" fill="#525263"/>
            <path id="Path_14731" data-name="Path 14731" d="M280.778,141.537h-.013a.215.215,0,0,1-.2-.229,27.754,27.754,0,0,1,1.066-6.478c.019-.063.033-.106.039-.131a.215.215,0,0,1,.143-.183.209.209,0,0,1,.266.137c.024.075.013.11-.047.307a27.305,27.305,0,0,0-1.047,6.373.214.214,0,0,1-.21.2" transform="translate(-243.547 -116.757)" fill="#161616"/>
            <path id="Path_14732" data-name="Path 14732" d="M298.725,383.743h0s0,.011.034.035a.74.74,0,0,1,.327.669.757.757,0,0,1-.79.72v.577a1.318,1.318,0,0,0,1.393-1.238,1.273,1.273,0,0,0-.253-.767.81.81,0,0,0,.08-.111c.044-.078.053-.171.053-.486v-1.36H297.7v1.083h-.6v.6h1.207v-1.069h.674v.923a.473.473,0,0,1-.255.428" transform="translate(-257.898 -331.408)" fill="#fff"/>
            <path id="Path_14733" data-name="Path 14733" d="M288.582,381.782h-.174a1.192,1.192,0,0,0-.872.354,1.119,1.119,0,0,0-.256.874v2.732h1.9V384.67h.6v-.6h-1.207v1.081h-.691v-2.263s-.044-.492.558-.505l.138-.006Z" transform="translate(-249.375 -331.407)" fill="#fff"/>
          </g>
        </g>
      </g>
    </g>
  </g>
</svg>
