<svg xmlns="http://www.w3.org/2000/svg" xmlns:xlink="http://www.w3.org/1999/xlink" width="32" height="32" viewBox="0 0 32 32">
  <defs>
    <clipPath id="clip-path">
      <rect id="Rectangle_11908" data-name="Rectangle 11908" width="18" height="14.62" fill="#51b7a3"/>
    </clipPath>
    <clipPath id="clip-icon_mail">
      <rect width="32" height="32"/>
    </clipPath>
  </defs>
  <g id="icon_mail" clip-path="url(#clip-icon_mail)">
    <g id="button_mail">
      <rect id="Rectangle_77_Copy_14" data-name="Rectangle 77 Copy 14" width="32" height="32" rx="4" fill="#f4fffb"/>
      <g id="Layer_2" data-name="Layer 2" transform="translate(4.69 5)">
        <g id="Layer_4" data-name="Layer 4" transform="translate(0.31)">
          <rect id="Rectangle_11879" data-name="Rectangle 11879" width="22" height="22" transform="translate(0)" fill="none"/>
          <g id="Group_29343" data-name="Group 29343" transform="translate(2 4)">
            <g id="Mask_Group_29342" data-name="Mask Group 29342" clip-path="url(#clip-path)">
              <path id="Path_24710" data-name="Path 24710" d="M18.054,126.5a1.109,1.109,0,0,1-.085.276,2.1,2.1,0,0,1-2,1.514q-6.913.005-13.826,0a2.1,2.1,0,0,1-2.08-2.066c-.007-2.284,0-4.568,0-6.851v-.1c.363.269.691.542,1.048.768a.736.736,0,0,1,.367.726c-.019,1.774-.009,3.549-.009,5.323a.713.713,0,0,0,.788.8h13.6a.714.714,0,0,0,.795-.789q0-2.8,0-5.6a.308.308,0,0,1,.148-.285c.375-.27.743-.55,1.115-.824.045-.033.082-.085.146-.088Z" transform="translate(-0.059 -113.672)" fill="#51b7a3"/>
              <path id="Path_24711" data-name="Path 24711" d="M18,1.786A2.145,2.145,0,0,0,15.878,0Q9,0,2.125,0A2.107,2.107,0,0,0,0,2.117c0,.509.006,1.019,0,1.528a.353.353,0,0,0,.167.328q3.749,2.78,7.492,5.567a2.092,2.092,0,0,0,2.672.007q3.212-2.384,6.421-4.773c.412-.306.829-.606,1.244-.909V1.828c0-.042.007-.019,0-.042M16.485,3.223Q13.012,5.8,9.543,8.384a.742.742,0,0,1-1.089,0Q4.983,5.8,1.512,3.22A.232.232,0,0,1,1.408,3c.005-.281,0-.562,0-.843a.7.7,0,0,1,.759-.753H15.781a.718.718,0,0,1,.808.81c0,.263,0,.527,0,.79a.231.231,0,0,1-.106.216" transform="translate(0 0)" fill="#51b7a3"/>
            </g>
          </g>
        </g>
      </g>
    </g>
  </g>
</svg>
