<svg xmlns="http://www.w3.org/2000/svg" xmlns:xlink="http://www.w3.org/1999/xlink" width="26" height="26" viewBox="0 0 26 26">
  <defs>
    <linearGradient id="linear-gradient" x1="0.5" x2="0.5" y2="1" gradientUnits="objectBoundingBox">
      <stop offset="0" stop-color="#50a3a2"/>
      <stop offset="1" stop-color="#52c9a4" stop-opacity="0.859"/>
    </linearGradient>
    <clipPath id="clip-Icon_user">
      <rect width="26" height="26"/>
    </clipPath>
  </defs>
  <g id="Icon_user" clip-path="url(#clip-Icon_user)">
    <path id="_8665306_circle_user_icon" data-name="8665306_circle_user_icon" d="M13,0A13,13,0,1,0,26,13,13,13,0,0,0,13,0Zm0,6.5a3.656,3.656,0,1,1-3.656,3.656A3.656,3.656,0,0,1,13,6.5Zm0,16.25a9.724,9.724,0,0,1-6.891-2.858,5.652,5.652,0,0,1,5.266-3.642h3.25a5.646,5.646,0,0,1,5.266,3.642A9.72,9.72,0,0,1,13,22.75Z" fill="url(#linear-gradient)"/>
  </g>
</svg>
