<svg xmlns="http://www.w3.org/2000/svg" xmlns:xlink="http://www.w3.org/1999/xlink" width="32" height="32" viewBox="0 0 32 32">
  <defs>
    <clipPath id="clip-icon_delete_hover">
      <rect width="32" height="32"/>
    </clipPath>
  </defs>
  <g id="icon_delete_hover" clip-path="url(#clip-icon_delete_hover)">
    <g id="button_delete">
      <g id="Group_17639" data-name="Group 17639" transform="translate(-1142 -666)">
        <rect id="Rectangle_77_Copy_14" data-name="Rectangle 77 Copy 14" width="32" height="32" rx="4" transform="translate(1142 666)" fill="#f77878"/>
        <g id="Group_2385" data-name="Group 2385" transform="translate(1146 670)">
          <path id="Path_1077" data-name="Path 1077" d="M0,0H24V24H0Z" fill="none"/>
          <line id="Line_75" data-name="Line 75" x2="16" transform="translate(4 7)" fill="none" stroke="#fff" stroke-linecap="round" stroke-linejoin="round" stroke-width="1.5"/>
          <line id="Line_76" data-name="Line 76" y2="6" transform="translate(10 11)" fill="none" stroke="#fff" stroke-linecap="round" stroke-linejoin="round" stroke-width="1.5"/>
          <line id="Line_77" data-name="Line 77" y2="6" transform="translate(14 11)" fill="none" stroke="#fff" stroke-linecap="round" stroke-linejoin="round" stroke-width="1.5"/>
          <path id="Path_1078" data-name="Path 1078" d="M5,7,6,19a2,2,0,0,0,2,2h8a2,2,0,0,0,2-2L19,7" fill="none" stroke="#fff" stroke-linecap="round" stroke-linejoin="round" stroke-width="1.5"/>
          <path id="Path_1079" data-name="Path 1079" d="M9,7V4a1,1,0,0,1,1-1h4a1,1,0,0,1,1,1V7" fill="none" stroke="#fff" stroke-linecap="round" stroke-linejoin="round" stroke-width="1.5"/>
        </g>
      </g>
    </g>
  </g>
</svg>
