<svg xmlns="http://www.w3.org/2000/svg" xmlns:xlink="http://www.w3.org/1999/xlink" width="176" height="30" viewBox="0 0 176 30">
  <defs>
    <clipPath id="clip-logo_ifap">
      <rect width="176" height="30"/>
    </clipPath>
  </defs>
  <g id="logo_ifap" clip-path="url(#clip-logo_ifap)">
    <g id="Rectangle_11922" data-name="Rectangle 11922" fill="none" stroke="#fff" stroke-width="0.5">
      <rect width="176" height="30" rx="1" stroke="none"/>
      <rect x="0.25" y="0.25" width="175.5" height="29.5" rx="0.75" fill="none"/>
    </g>
    <path id="Path_24722" data-name="Path 24722" d="M8.176-10.992h4.64a6.9,6.9,0,0,1-.768.976l1.12.912a9.455,9.455,0,0,0,1.376-2.112v-1.152H8.992c.1-.224.176-.448.272-.7l-1.536-.192a5.621,5.621,0,0,1-2.272,2.8l.912,1.2A8.867,8.867,0,0,0,8.176-10.992Zm-6.928-1.36v1.408h4v-1.408Zm-.32,2.88v1.424H5.584V-9.472Zm8.784-1.44c-.384,1.44-1.632,2.336-3.744,2.7l.608.96h-3.9v6.7h2.7A22.507,22.507,0,0,1,.9.5l.752,1.3A18.426,18.426,0,0,0,6.736.3L6.1-.544H9.7L9.2.432a33.5,33.5,0,0,1,5.344,1.36L15.088.464A36.931,36.931,0,0,0,10.64-.544h2.7V-7.072a10.284,10.284,0,0,0,1.152.256l.672-1.392a7.461,7.461,0,0,1-4.24-1.808c.064-.192.128-.4.192-.608ZM7.68-7.248a5.271,5.271,0,0,0,2.608-1.664,7.527,7.527,0,0,0,2.56,1.664Zm4.032,5.392H4.3v-.7h7.408ZM4.3-3.616v-.64h7.408v.64Zm0-1.712V-6h7.408v.672Zm20.64-1.408v1.584h1.712V1.584h1.616V-5.152h1.7V-6.736h-1.7V-10.96h1.936v3.632c0,3.92.368,6.5,1.088,7.712a1.859,1.859,0,0,0,1.552,1.1.72.72,0,0,0,.624-.464,8.888,8.888,0,0,0,.448-2.992l-1.3-.624c0,.544-.016,1.024-.032,1.456a2.239,2.239,0,0,1-.112.688c-.1,0-.192-.256-.288-.736a34.748,34.748,0,0,1-.352-6.144V-12.56H24.992v1.6h1.664v4.224ZM19.12-11.3V-9.76h5.568V-11.3h-1.92a17.752,17.752,0,0,0-.592-1.888l-1.6.432c.224.48.416.96.608,1.456Zm.544,2.4V-7.44h4.464V-8.9Zm0,2.24v1.472h4.464V-6.656Zm4.592,2.384H19.5V1.536H21.04V.752h1.7v.656h1.52ZM21.04-.752V-2.768h1.7V-.752Zm16.8-8.88v6.72h2.048v.832h-2.4V-.64h2.4v2.3H41.36V-.64h2.416V-2.08H41.36v-.832h2.064v-6.72H41.392v-.816h2.24v-1.44h-2.24v-1.248H39.92v1.248h-2.3v1.44h2.3v.816Zm4.24,5.376h-.848V-5.664h.848Zm-2.064,0H39.2V-5.664h.816ZM39.2-6.912V-8.288h.816v1.376Zm2.032-1.376h.848v1.376h-.848Zm2.8-3.056v1.5H47.2v1.072H44.32v10.4h1.5v-3.36H47.2v3.2h1.568v-3.2h1.408V-.32c0,.288-.144.448-.416.448L48.9.048,49.3,1.6h.992q1.44,0,1.44-1.584V-8.768h-2.96V-9.84h3.3v-1.5h-1.2l.752-.528a14.227,14.227,0,0,0-1.232-1.28l-1.136.72a12.684,12.684,0,0,1,1.04,1.088h-1.52v-1.744H47.2v1.744ZM47.2-7.28v1.344H45.824V-7.28ZM45.824-4.5H47.2v1.328H45.824Zm4.352,1.328H48.768V-4.5h1.408Zm0-2.768H48.768V-7.28h1.408ZM62.5-12.288H56.832V-1.312l-1.1.224.464,1.6a74.257,74.257,0,0,0,7.28-1.952V-3.024l-.976.3ZM58.48-1.664V-4.048h2.4v1.792C60.112-2.064,59.312-1.856,58.48-1.664Zm0-3.872V-7.472h2.4v1.936Zm0-3.44v-1.792h2.4v1.792Zm6.512-4.1v3.04h-1.76v1.6h1.76V-8.3Q64.944-2.112,62.08.672l1.264,1.12Q66.584-1.4,66.656-8.3v-.128H68.48c-.032,4.24-.08,6.72-.176,7.44A1.1,1.1,0,0,1,67.12.064c-.416,0-.9-.032-1.456-.064l.4,1.456c.624.048,1.072.08,1.328.08,1.472,0,2.288-.592,2.48-1.776q.24-1.872.24-9.792H66.656v-3.04Zm10.1.5v1.632h5.6v5.5h-6.24v1.616h6.24V1.648h1.7V-3.824h6.368V-5.44H82.384v-5.5H88.16v-1.632ZM77.44-10.3l-1.552.752a30.174,30.174,0,0,1,1.648,3.584L79.1-6.736C78.56-8.048,78.016-9.232,77.44-10.3Zm8.464-.064A19.546,19.546,0,0,1,84.16-6.832l1.5.768a19.07,19.07,0,0,0,1.76-3.584Zm19.616,5.2H94.48V1.7h1.7V1.088h7.648V1.7h1.7ZM96.176-.512V-3.568h7.648V-.512Zm-2.7-6.08q6.12-.216,11.12-.672c.368.608.736,1.232,1.088,1.888l1.632-.8a46.532,46.532,0,0,0-3.632-5.3l-1.52.72c.5.624.992,1.3,1.472,2q-3.7.336-7.584.528a29.983,29.983,0,0,0,3.808-4.384l-1.728-.608c-2.176,3.184-3.84,4.864-4.96,5.04Zm25.776-4.832V0h1.872V-11.424Zm6.512,0V0h1.872V-5.056h5.584v-1.6h-5.584V-9.824h5.92v-1.6Zm14.96,0L136.352,0h2l1.04-2.864h4.784L145.216,0h2l-4.368-11.424ZM139.952-4.4l1.808-5.008h.064L143.616-4.4Zm10.784-7.024V0h1.872V-4.384h2.832c2.784,0,4.176-1.184,4.176-3.536,0-2.336-1.392-3.5-4.144-3.5Zm1.872,1.6h2.72a2.92,2.92,0,0,1,1.808.448,1.7,1.7,0,0,1,.592,1.456,1.785,1.785,0,0,1-.576,1.488,3.052,3.052,0,0,1-1.824.448h-2.72Z" transform="translate(8 21)" fill="#fff"/>
  </g>
</svg>
