<svg xmlns="http://www.w3.org/2000/svg" xmlns:xlink="http://www.w3.org/1999/xlink" width="32" height="32" viewBox="0 0 32 32">
  <defs>
    <clipPath id="clip-icon_setting_hover">
      <rect width="32" height="32"/>
    </clipPath>
  </defs>
  <g id="icon_setting_hover" clip-path="url(#clip-icon_setting_hover)">
    <g id="button_setting">
      <rect id="Rectangle_77_Copy_14" data-name="Rectangle 77 Copy 14" width="32" height="32" rx="4" fill="#51b7a3"/>
      <g id="Layer_2" data-name="Layer 2" transform="translate(4.69 5)">
        <g id="Layer_4" data-name="Layer 4" transform="translate(0.31)">
          <path id="Path_24681" data-name="Path 24681" d="M13.038,21h-1.4a2.087,2.087,0,0,1-2.1-2.077v-.09a.817.817,0,0,0-.468-.692l-.454-.263a.825.825,0,0,0-.853-.042l-.084.042a2.108,2.108,0,0,1-2.866-.755l-.7-1.2a2.066,2.066,0,0,1,.769-2.832.939.939,0,0,0,.461-.858v-.457a.9.9,0,0,0-.461-.831A2.066,2.066,0,0,1,4.119,8.1l.7-1.2a2.108,2.108,0,0,1,2.866-.755l.084.042a.825.825,0,0,0,.853-.042l.454-.263a.817.817,0,0,0,.468-.692V5.077A2.087,2.087,0,0,1,11.64,3h1.4a2.087,2.087,0,0,1,2.1,2.077v.09a.817.817,0,0,0,.468.692l.454.263a.825.825,0,0,0,.853.042l.084-.042a2.108,2.108,0,0,1,2.866.755l.7,1.2a2.066,2.066,0,0,1-.769,2.832l-.077.048a.746.746,0,0,0-.391.692v.658a.746.746,0,0,0,.391.692l.077.048a2.066,2.066,0,0,1,.769,2.832l-.7,1.2a2.108,2.108,0,0,1-2.866.755L16.91,17.8a.825.825,0,0,0-.853.042l-.454.263a.817.817,0,0,0-.468.692v.125A2.087,2.087,0,0,1,13.038,21ZM8.145,16.334a2.337,2.337,0,0,1,1.223.353l.356.208a2.193,2.193,0,0,1,1.216,1.938v.09a.7.7,0,0,0,.7.692h1.4a.7.7,0,0,0,.7-.692v-.09a2.193,2.193,0,0,1,1.216-1.938l.356-.208a2.234,2.234,0,0,1,2.3-.069l.084.042a.7.7,0,0,0,.937-.249l.7-1.2a.689.689,0,0,0-.259-.942h0l-.077-.048a2.127,2.127,0,0,1-1.062-1.959c0-.083,0-.166,0-.256v-.263a2.121,2.121,0,0,1,1.09-1.952l.077-.048a.688.688,0,0,0,.231-.942l-.7-1.2a.7.7,0,0,0-.958-.249l-.077.042a2.248,2.248,0,0,1-2.307-.069l-.356-.208a2.192,2.192,0,0,1-1.2-1.938v-.09a.7.7,0,0,0-.7-.692h-1.4a.7.7,0,0,0-.7.692v.09A2.193,2.193,0,0,1,9.725,7.105l-.356.208a2.234,2.234,0,0,1-2.3.069l-.084-.042a.7.7,0,0,0-.937.249l-.7,1.2a.689.689,0,0,0,.259.942,2.294,2.294,0,0,1,1.16,2.077v.367a2.287,2.287,0,0,1-1.16,2.077.689.689,0,0,0-.259.948l.7,1.2a.7.7,0,0,0,.958.249l.077-.042A2.112,2.112,0,0,1,8.145,16.334Z" transform="translate(-1.352 -1)" fill="#fff"/>
          <path id="Path_24682" data-name="Path 24682" d="M14.914,17.828a2.914,2.914,0,1,1,2.914-2.914A2.914,2.914,0,0,1,14.914,17.828Zm0-4.371a1.457,1.457,0,1,0,1.457,1.457A1.457,1.457,0,0,0,14.914,13.457Z" transform="translate(-4.06 -3.768)" fill="#fff"/>
          <rect id="Rectangle_11879" data-name="Rectangle 11879" width="22" height="22" fill="none"/>
        </g>
      </g>
    </g>
  </g>
</svg>
