<svg xmlns="http://www.w3.org/2000/svg" xmlns:xlink="http://www.w3.org/1999/xlink" width="120" height="120" viewBox="0 0 120 120">
  <defs>
    <clipPath id="clip-path">
      <rect id="Rectangle_11915" data-name="Rectangle 11915" width="120" height="120" fill="none"/>
    </clipPath>
    <clipPath id="clip-image_greensuccess">
      <rect width="120" height="120"/>
    </clipPath>
  </defs>
  <g id="image_greensuccess" clip-path="url(#clip-image_greensuccess)">
    <g id="Group_29403" data-name="Group 29403">
      <g id="Group_29402" data-name="Group 29402" clip-path="url(#clip-path)">
        <path id="Path_24712" data-name="Path 24712" d="M102.427,17.573a60,60,0,1,1-84.853,0,60,60,0,0,1,84.853,0" transform="translate(0 0)" fill="#c0d999"/>
        <path id="Path_24713" data-name="Path 24713" d="M106.162,32.892a51.81,51.81,0,1,1-73.27,0,51.81,51.81,0,0,1,73.27,0" transform="translate(-9.527 -9.527)" fill="#71ae19"/>
        <path id="Path_24714" data-name="Path 24714" d="M113.65,84.753,88.517,109.885a1.75,1.75,0,0,1-2.475,0l-7.9-7.9a1.756,1.756,0,0,0-2.475,0l-8.671,8.671a1.755,1.755,0,0,0,0,2.475l10.377,10.377,8.671,8.671a1.755,1.755,0,0,0,2.475,0l8.671-8.671L124.8,95.9a1.756,1.756,0,0,0,0-2.475l-8.671-8.671a1.755,1.755,0,0,0-2.475,0" transform="translate(-35.75 -45.3)" fill="#fff"/>
      </g>
    </g>
  </g>
</svg>
