<svg xmlns="http://www.w3.org/2000/svg" xmlns:xlink="http://www.w3.org/1999/xlink" width="120" height="120" viewBox="0 0 120 120">
  <defs>
    <clipPath id="clip-path">
      <rect id="Rectangle_11916" data-name="Rectangle 11916" width="120" height="120" fill="none"/>
    </clipPath>
    <clipPath id="clip-image_error">
      <rect width="120" height="120"/>
    </clipPath>
  </defs>
  <g id="image_error" clip-path="url(#clip-image_error)">
    <g id="Group_29405" data-name="Group 29405">
      <g id="Group_29404" data-name="Group 29404" clip-path="url(#clip-path)">
        <path id="Path_24715" data-name="Path 24715" d="M102.427,17.573a60,60,0,1,1-84.853,0,60,60,0,0,1,84.853,0" transform="translate(0 0)" fill="#f2acae"/>
        <path id="Path_24716" data-name="Path 24716" d="M106.162,32.892a51.81,51.81,0,1,1-73.27,0,51.81,51.81,0,0,1,73.27,0" transform="translate(-9.527 -9.527)" fill="#e2454a"/>
        <path id="Path_24717" data-name="Path 24717" d="M116.607,75.639l-12.6,12.6-12.6-12.6a1.755,1.755,0,0,0-2.475,0l-8.6,8.6a1.756,1.756,0,0,0,0,2.475l12.6,12.6-12.6,12.6a1.756,1.756,0,0,0,0,2.475l8.6,8.6a1.755,1.755,0,0,0,2.475,0l12.6-12.6,12.6,12.6a1.755,1.755,0,0,0,2.475,0l8.6-8.6a1.756,1.756,0,0,0,0-2.475l-12.6-12.6,12.6-12.6a1.756,1.756,0,0,0,0-2.475l-8.6-8.6a1.755,1.755,0,0,0-2.475,0" transform="translate(-42.921 -40.399)" fill="#fff"/>
      </g>
    </g>
  </g>
</svg>
