<svg xmlns="http://www.w3.org/2000/svg" xmlns:xlink="http://www.w3.org/1999/xlink" width="107" height="20" viewBox="0 0 107 20">
  <defs>
    <clipPath id="clip-logo_email">
      <rect width="107" height="20"/>
    </clipPath>
  </defs>
  <g id="logo_email" clip-path="url(#clip-logo_email)">
    <path id="Path_24723" data-name="Path 24723" d="M.98-10V0H8.4V-1.3H2.506V-4.48h5.32v-1.3H2.506V-8.694H8.162V-10ZM13.286-7.434A2.6,2.6,0,0,0,11.3-6.44v-.8H9.814V0H11.3V-4.354a1.878,1.878,0,0,1,.448-1.288,1.382,1.382,0,0,1,1.148-.546c.98,0,1.484.56,1.484,1.708V0h1.484V-4.452a1.84,1.84,0,0,1,.42-1.274,1.331,1.331,0,0,1,1.036-.462,1.6,1.6,0,0,1,1.232.406,1.839,1.839,0,0,1,.378,1.288V0h1.484V-4.746a2.675,2.675,0,0,0-.728-1.946,2.458,2.458,0,0,0-1.848-.742,2.545,2.545,0,0,0-1.232.266,2.966,2.966,0,0,0-1.036.952A2.4,2.4,0,0,0,13.286-7.434Zm12.068,0a4.033,4.033,0,0,0-2.156.49,2.469,2.469,0,0,0-1.162,1.736l1.47.126a1.284,1.284,0,0,1,.63-.9,2.176,2.176,0,0,1,1.12-.252q1.638,0,1.638,1.512v.294l-1.624.042a4.471,4.471,0,0,0-2.492.658,2.13,2.13,0,0,0-.966,1.876A1.8,1.8,0,0,0,22.5-.378,2.547,2.547,0,0,0,24.262.2a3.909,3.909,0,0,0,1.68-.35,3.015,3.015,0,0,0,1.05-.868V0h1.372V-4.62a2.841,2.841,0,0,0-.658-2.016A3.1,3.1,0,0,0,25.354-7.434Zm1.54,4.088v.42a1.8,1.8,0,0,1-.686,1.414,2.412,2.412,0,0,1-1.61.574,1.412,1.412,0,0,1-.91-.28.818.818,0,0,1-.35-.686c0-.9.672-1.372,2.03-1.4Zm4.214-6.79a.97.97,0,0,0-.728.28.929.929,0,0,0-.294.714,1,1,0,0,0,.294.728,1.027,1.027,0,0,0,.728.28,1.051,1.051,0,0,0,.728-.28.993.993,0,0,0,.308-.728.929.929,0,0,0-.294-.714A1,1,0,0,0,31.108-10.136Zm-.742,2.9V0H31.85V-7.238Zm3.654-2.954V0H35.5V-10.192Zm7.56,6.328H46.8v1.2H41.566c0-.056.014-.126.014-.182ZM46.8-5.012H41.58V-6.258H46.8Zm-5.348,3.5H46.8V-.336c0,.364-.182.56-.518.56-.42,0-.882-.028-1.358-.056l.308,1.19h1.428c.924,0,1.4-.42,1.4-1.246V-7.406h-6.4a14.2,14.2,0,0,0,.77-1.358h7.322v-1.274H42.994c.168-.434.322-.9.462-1.372L42.1-11.564c-.168.518-.35,1.022-.56,1.526h-4.1v1.274h3.472a15.16,15.16,0,0,1-3.85,4.438l.854,1.12a18.47,18.47,0,0,0,2.422-2.366v2.814a4.769,4.769,0,0,1-1.3,3.346L40,1.456A5.72,5.72,0,0,0,41.454-1.512ZM52.962-8.428a13.182,13.182,0,0,1-2.114,3.192l1.036.742a14.388,14.388,0,0,0,2.184-3.388ZM56.644-5.67l.868-.854A16.344,16.344,0,0,0,55.58-8.5l-.8.77A19.923,19.923,0,0,1,56.644-5.67Zm-3.5.63-.826.924c.574.476,1.148,1.008,1.722,1.568A8.794,8.794,0,0,1,50.932.21l.784,1.148a9.747,9.747,0,0,0,3.248-2.94c.434.462.868.952,1.316,1.484l.91-1.022c-.476-.56-.98-1.12-1.512-1.652a14.363,14.363,0,0,0,.938-2.366l-1.106-.49a13.294,13.294,0,0,1-.8,1.932C54.208-4.158,53.69-4.606,53.144-5.04ZM54.6-11.55l-1.372.224a8.317,8.317,0,0,1,.658,1.218h-2.66v1.274h6.566v-1.274h-2.6C54.992-10.64,54.8-11.116,54.6-11.55Zm5.1,3.514H61.67a10.38,10.38,0,0,1-1.2,4.606,12.37,12.37,0,0,1-1.232-2.52l-.532.294A13.82,13.82,0,0,0,59.7-8.036Zm-.014,5.754A9.5,9.5,0,0,1,56.448.168L57.2,1.386A11.13,11.13,0,0,0,60.466-1.19,14.09,14.09,0,0,0,63.182,1.4L64.106.336A13.749,13.749,0,0,1,61.278-2.3a11.555,11.555,0,0,0,1.61-5.74h.938V-9.324h-3.78c.154-.616.294-1.274.406-1.974l-1.316-.224a14.619,14.619,0,0,1-2.212,6.286l.84,1.036c.2-.252.378-.518.56-.8A13.678,13.678,0,0,0,59.682-2.282Zm5.754-6.454a19.1,19.1,0,0,1-.49,3.766l1.078.308a21.5,21.5,0,0,0,.448-4Zm3.808-.336-.966.308a17,17,0,0,1,.742,2.478l.6-.154q-.126.294-.294.63l.98.868a11.12,11.12,0,0,0,1.078-2.7h1.9v3.108H70.154v1.3H73.29v3H69.4V1.05h8.54V-.238h-3.3v-3H77.42v-1.3H74.634V-7.644h2.94V-8.918h-2.94v-2.506H73.29v2.506H71.638q.084-.714.126-1.47l-1.218-.168A12.215,12.215,0,0,1,69.9-7.168,16.72,16.72,0,0,0,69.244-9.072Zm-2.338-2.366V1.386h1.33V-11.438Zm13.748,3.57h1.008v.938H80.654Zm0,1.974h1.008v.91H80.654Zm2.156.91v-.91h1.246V-6.93H82.81v-.938h1.246V-8.9H82.81V-9.87h1.638V-11H79.506v7.14H83.44c0,1.092-.028,1.974-.07,2.618-.112-.672-.252-1.414-.448-2.226l-.588.168c.168.8.322,1.61.448,2.45l.574-.21a4.241,4.241,0,0,1-.056.5.856.856,0,0,1-.924.812A5.9,5.9,0,0,1,81.69.2l.252,1.064c.224.014.434.028.63.028a1.488,1.488,0,0,0,1.484-.8c.252-.518.392-2.338.392-5.474ZM81.662-9.87V-8.9H80.654V-9.87Zm.308,6.552-.616.14c.14.812.252,1.75.364,2.814L82.4-.518C82.278-1.526,82.138-2.45,81.97-3.318Zm-.938.084-.672.07c.042.826.07,1.988.1,3.486l.756-.1C81.172-1.232,81.116-2.394,81.032-3.234Zm-1.68-.1A28.454,28.454,0,0,1,78.974.476l.77.224a34.344,34.344,0,0,0,.308-3.948Zm7.238,2.8a8.821,8.821,0,0,1,.686.868L88.1-.476a10.625,10.625,0,0,0-1.036-1.092c.1-.252.2-.532.294-.826l-1.106-.434A7.942,7.942,0,0,1,84.224.644l.938.826A7.971,7.971,0,0,0,86.59-.532ZM89.8-.378a13.331,13.331,0,0,1,1.4,1.834L92.05.588A17.292,17.292,0,0,0,90.3-1.428c.112-.28.224-.588.336-.91l-1.12-.434A7.848,7.848,0,0,1,87.5.644l.938.826A8.311,8.311,0,0,0,89.8-.378ZM85.988-7.9v.462h4.284v-.574a9.8,9.8,0,0,0,1.092.686l.686-1.036a8.162,8.162,0,0,1-3.36-3.024H87.612a8.564,8.564,0,0,1-3.29,3.094l.672,1.036C85.33-7.448,85.652-7.658,85.988-7.9Zm3.626-.63H86.73a9.975,9.975,0,0,0,1.414-1.708A6.925,6.925,0,0,0,89.614-8.526ZM84.966-6.664v3.7h3v-3.7Zm1.96,2.716H86V-5.684h.924Zm1.5-2.716v3.7h2.982v-3.7ZM90.37-3.948h-.91V-5.684h.91ZM94.752.644h1.47v.574H97.5v-4.9H93.478V1.4h1.274Zm1.47-1.232h-1.47V-2.464h1.47Zm-.616-10.948-1.26.35a13.523,13.523,0,0,1,.518,1.316H93.212v1.232h4.634V-9.87H96.124A16.773,16.773,0,0,0,95.606-11.536Zm-2.03,3.794v1.176h3.836V-7.742Zm0,1.974v1.176h3.836V-5.768Zm5.208.462v3.514H104.9V-5.306ZM103.656-2.9h-3.612V-4.214h3.612ZM98.07,0V1.19h7.672V0h-1.848a9,9,0,0,0,.686-1.2l-1.19-.406a15.65,15.65,0,0,1-.8,1.61h-1.358a10.706,10.706,0,0,0-.84-1.61l-1.176.434A7.182,7.182,0,0,1,99.946,0Zm2.03-7.042v.7h3.682v-.882a9.381,9.381,0,0,0,1.47,1.61l.812-.938a7.833,7.833,0,0,1-1.274-1.274,7.176,7.176,0,0,0,1.26-1.344l-.868-.756a7.22,7.22,0,0,1-1.036,1.218c-.14-.224-.28-.462-.406-.714a6.6,6.6,0,0,0,1.288-1.288l-.84-.756a6.888,6.888,0,0,1-.9,1.036q-.189-.483-.336-1.008l-.938.532A11.231,11.231,0,0,0,103.6-7.49h-3.164a8.155,8.155,0,0,0,1.176-2.618v-.938h-3.15v1.12h2.03a7.043,7.043,0,0,1-.644,1.3,12.622,12.622,0,0,0-.98-.868l-.812.77a10.18,10.18,0,0,1,1.134.966,7,7,0,0,1-1.61,1.288l.77.994A7.477,7.477,0,0,0,100.1-7.042Z" transform="translate(0 15)"/>
  </g>
</svg>
