<svg xmlns="http://www.w3.org/2000/svg" xmlns:xlink="http://www.w3.org/1999/xlink" width="225" height="30" viewBox="0 0 225 30">
  <defs>
    <clipPath id="clip-logo_fbifap">
      <rect width="225" height="30"/>
    </clipPath>
  </defs>
  <g id="logo_fbifap" clip-path="url(#clip-logo_fbifap)">
    <g id="Group_29409" data-name="Group 29409" transform="translate(-2965 2183)">
      <path id="Path_24721" data-name="Path 24721" d="M10.22-13.74h5.8a8.624,8.624,0,0,1-.96,1.22l1.4,1.14a11.818,11.818,0,0,0,1.72-2.64v-1.44H11.24c.12-.28.22-.56.34-.88l-1.92-.24a7.027,7.027,0,0,1-2.84,3.5l1.14,1.5A11.083,11.083,0,0,0,10.22-13.74Zm-8.66-1.7v1.76h5v-1.76Zm-.4,3.6v1.78H6.98v-1.78Zm10.98-1.8c-.48,1.8-2.04,2.92-4.68,3.38l.76,1.2H3.34V-.68H6.72A28.133,28.133,0,0,1,1.12.62l.94,1.62A23.032,23.032,0,0,0,8.42.38L7.62-.68h4.5L11.5.54a41.872,41.872,0,0,1,6.68,1.7L18.86.58A46.163,46.163,0,0,0,13.3-.68h3.38V-8.84a12.854,12.854,0,0,0,1.44.32l.84-1.74a9.326,9.326,0,0,1-5.3-2.26c.08-.24.16-.5.24-.76ZM9.6-9.06a6.589,6.589,0,0,0,3.26-2.08,9.408,9.408,0,0,0,3.2,2.08Zm5.04,6.74H5.38V-3.2h9.26ZM5.38-4.52v-.8h9.26v.8Zm0-2.14V-7.5h9.26v.84Zm25.8-1.76v1.98h2.14V1.98h2.02V-6.44h2.12V-8.42H35.34V-13.7h2.42v4.54c0,4.9.46,8.12,1.36,9.64a2.323,2.323,0,0,0,1.94,1.38.9.9,0,0,0,.78-.58,11.11,11.11,0,0,0,.56-3.74l-1.62-.78c0,.68-.02,1.28-.04,1.82a2.8,2.8,0,0,1-.14.86c-.12,0-.24-.32-.36-.92a43.436,43.436,0,0,1-.44-7.68V-15.7H31.24v2h2.08v5.28Zm-7.28-5.7v1.92h6.96v-1.92h-2.4a22.191,22.191,0,0,0-.74-2.36l-2,.54c.28.6.52,1.2.76,1.82Zm.68,3V-9.3h5.58v-1.82Zm0,2.8v1.84h5.58V-8.32Zm5.74,2.98H24.38V1.92H26.3V.94h2.12v.82h1.9ZM26.3-.94V-3.46h2.12V-.94Zm21-11.1v8.4h2.56V-2.6h-3V-.8h3V2.08H51.7V-.8h3.02V-2.6H51.7V-3.64h2.58v-8.4H51.74v-1.02h2.8v-1.8h-2.8v-1.56H49.9v1.56H47.02v1.8H49.9v1.02Zm5.3,6.72H51.54V-7.08H52.6Zm-2.58,0H49V-7.08h1.02ZM49-8.64v-1.72h1.02v1.72Zm2.54-1.72H52.6v1.72H51.54Zm3.5-3.82v1.88H59v1.34H55.4v13h1.88v-4.2H59v4h1.96v-4h1.76V-.4c0,.36-.18.56-.52.56L61.12.06,61.62,2h1.24q1.8,0,1.8-1.98V-10.96h-3.7V-12.3h4.12v-1.88h-1.5l.94-.66a17.785,17.785,0,0,0-1.54-1.6l-1.42.9a15.855,15.855,0,0,1,1.3,1.36h-1.9v-2.18H59v2.18ZM59-9.1v1.68H57.28V-9.1ZM57.28-5.62H59v1.66H57.28Zm5.44,1.66H60.96V-5.62h1.76Zm0-3.46H60.96V-9.1h1.76Zm15.4-7.94H71.04V-1.64l-1.38.28.58,2a92.821,92.821,0,0,0,9.1-2.44V-3.78l-1.22.38ZM73.1-2.08V-5.06h3v2.24C75.14-2.58,74.14-2.32,73.1-2.08Zm0-4.84V-9.34h3v2.42Zm0-4.3v-2.24h3v2.24Zm8.14-5.12v3.8h-2.2v2h2.2v.16Q81.18-2.64,77.6.84l1.58,1.4q4.05-3.99,4.14-12.62v-.16H85.6c-.04,5.3-.1,8.4-.22,9.3A1.378,1.378,0,0,1,83.9.08c-.52,0-1.12-.04-1.82-.08l.5,1.82c.78.06,1.34.1,1.66.1,1.84,0,2.86-.74,3.1-2.22q.3-2.34.3-12.24H83.32v-3.8Zm12.62.62v2.04h7V-6.8h-7.8v2.02h7.8V2.06h2.12V-4.78h7.96V-6.8h-7.96v-6.88h7.22v-2.04Zm2.94,2.84-1.94.94a37.718,37.718,0,0,1,2.06,4.48l1.96-.96C98.2-10.06,97.52-11.54,96.8-12.88Zm10.58-.08a24.433,24.433,0,0,1-2.18,4.42l1.88.96a23.837,23.837,0,0,0,2.2-4.48Zm24.52,6.5H118.1V2.12h2.12V1.36h9.56v.76h2.12ZM120.22-.64V-4.46h9.56V-.64Zm-3.38-7.6q7.65-.27,13.9-.84c.46.76.92,1.54,1.36,2.36l2.04-1a58.168,58.168,0,0,0-4.54-6.62l-1.9.9c.62.78,1.24,1.62,1.84,2.5q-4.62.42-9.48.66a37.479,37.479,0,0,0,4.76-5.48l-2.16-.76c-2.72,3.98-4.8,6.08-6.2,6.3Zm30.008-3.184V0h1.872V-11.424Zm6.512,0V0h1.872V-5.056h5.584v-1.6h-5.584V-9.824h5.92v-1.6Zm14.96,0L163.952,0h2l1.04-2.864h4.784L172.816,0h2l-4.368-11.424ZM167.552-4.4l1.808-5.008h.064L171.216-4.4Zm10.784-7.024V0h1.872V-4.384h2.832c2.784,0,4.176-1.184,4.176-3.536,0-2.336-1.392-3.5-4.144-3.5Zm1.872,1.6h2.72a2.92,2.92,0,0,1,1.808.448,1.7,1.7,0,0,1,.592,1.456,1.785,1.785,0,0,1-.576,1.488,3.052,3.052,0,0,1-1.824.448h-2.72Z" transform="translate(3002 -2159)" fill="#222"/>
      <g id="fblogo" transform="translate(2966 -2183.873)">
        <g id="Group_2412" data-name="Group 2412" transform="translate(0.001 0.059)">
          <g id="Group_2197" data-name="Group 2197" transform="translate(-0.203 1.813)">
            <path id="Path_958" data-name="Path 958" d="M88.705,209.619c-.014.007.014,0,0,0s0,.081.241.248a5.288,5.288,0,0,1,2.337,4.779,5.4,5.4,0,0,1-5.641,5.143v4.118c5.211,0,9.948-3.641,9.948-8.839a9.088,9.088,0,0,0-1.81-5.476,5.715,5.715,0,0,0,.569-.791c.317-.553.378-1.223.378-3.463v-9.708H81.359v7.737H77.1v4.252h8.615v-7.641h4.808v6.588a3.372,3.372,0,0,1-1.82,3.055" transform="translate(-67.851 -195.624)" fill="#1aa19d"/>
            <path id="Path_959" data-name="Path 959" d="M36.6,195.626h-1.24a8.506,8.506,0,0,0-6.222,2.525c-1.668,1.863-1.826,3.516-1.826,6.242v19.5H40.885v-7.656h4.3v-4.3H36.561v7.716H31.629V203.5s-.317-3.511,3.982-3.608l.984-.045Z" transform="translate(-27.31 -195.624)" fill="#1991cc"/>
          </g>
        </g>
      </g>
    </g>
  </g>
</svg>
