<svg xmlns="http://www.w3.org/2000/svg" xmlns:xlink="http://www.w3.org/1999/xlink" width="19" height="15" viewBox="0 0 19 15">
  <defs>
    <clipPath id="clip-path">
      <rect id="Rectangle_6559" data-name="Rectangle 6559" width="214" height="588" transform="translate(0 1016)" fill="none" stroke="#FFFFFF" stroke-width="1"/>
    </clipPath>
    <clipPath id="clip-button_sort_2">
      <rect width="19" height="15"/>
    </clipPath>
  </defs>
  <g id="button_sort_2" clip-path="url(#clip-button_sort_2)">
    <g id="Mask_Group_23" data-name="Mask Group 23" transform="translate(-4 -1039)" clip-path="url(#clip-path)">
      <g id="Group_16938" data-name="Group 16938" transform="translate(19.227 87.5)">
        <path id="Union_8" data-name="Union 8" d="M52.356,525.321c-6.318-2.572,42.915-40.6,36.737-43.447-.342-.152-.676-.306-1.012-.461-.072-.031-.146-.062-.216-.1-.126-.054-.256-.109-.374-.165-.777-.343-1.554-.677-2.342-1.011a63.424,63.424,0,0,0-11.95-3.761c-3.813-.8-7.678-1.326-11.5-2.14-15.554-3.293-28.758-12.429-41.223-21.852-2.032-1.541-5.776-3.211-5.088-6.255A80.789,80.789,0,0,1,19.2,435.216c1.937-4.986,4.079-9.886,6.364-14.718q1.858-3.986,3.839-7.912l.5-1.005-.133-.011q.608-1.3,1.23-2.6a89.956,89.956,0,0,1-10.114-3.279A100.1,100.1,0,0,1,8.7,399.012,89,89,0,0,0,0,394.355c8.729-19.714,40.951-67.666,45.2-78.989a119.1,119.1,0,0,1,8.982-18.41q-1.352.572-2.669,1.069l-.348.47A77.058,77.058,0,0,1,33.959,302.5l-.041,0,.247-.608,18.2-44.9.785-1.846.022-.055,14.111-33.2,2.593-6.095s13.844-16.3,25.485-31.9c9.431-12.631,25.269-21.174,30.931-23.957a30.894,30.894,0,0,1,7.607-3.32l0-.01.074-.014c10.267-3.165,25.064-4.417,32.982-3.576a76.231,76.231,0,0,0,12.054.412,45.054,45.054,0,0,1,14.889,1.568l.58.066.019.081.478.12c.027,0,.4.108.774.212l4.4-.37c.411-1.011.828-2.02,1.239-3.03.048-.113.092-.225.131-.337q3.632-8.92,7.259-17.862a.063.063,0,0,0,.007-.008l-.014-.041a52.279,52.279,0,0,1-1.674-24.673,3.555,3.555,0,0,1-1.271-1.1l-5.17,18.885a1.114,1.114,0,0,1-1.8.552,12.643,12.643,0,0,1-4.166-13.534c1.351-4.491,5.992-7.622,9.218-9.316-.471-1.08-.886-2.157-1.192-2.989-2.405-6.465-.556-14.915,3.469-20.518a9.416,9.416,0,0,1,.808-.984h0a32.2,32.2,0,0,1-.033-4.884c.276-3.61,1.59-6.5,3.252-9.674,1.385-2.663,2.177-5.666,3.673-8.246,1.432-2.485,3.646-3.929,5.747-5.728,6.625-11.543,17.163-22.992,31.574-21.57,1.311.133,2.607.353,3.9.607a9.523,9.523,0,0,1-.009-2.108,13.973,13.973,0,0,1,1.073-4.048,18.428,18.428,0,0,1,1.037-2.06c.079-.192.156-.383.235-.57.027-.062.053-.124.08-.185a52.064,52.064,0,0,1,4.228-7.684c2.306-3.619,4.459-8.4,8.057-10.923,2.736-1.918,5.974-1.839,9.159-1.5a44.469,44.469,0,0,0,6.069.265,14.741,14.741,0,0,1,3.507-.88C291.059.644,293.4-.336,295.99.118a13.868,13.868,0,0,1,8.895,6.03c2.5,3.6,2.441,7.513,1.057,11.376-.12.349-.261.7-.409,1.045-.034.08-.068.161-.1.24-.752,1.771-1.719,3.456-2.464,5.215a13.52,13.52,0,0,0-1.12,4.171c-.249,2.919,1.189,5.738.4,8.654a10.405,10.405,0,0,1-.462,1.337c-1.434,3.386-4.591,5.947-8.336,7.507h0a116.026,116.026,0,0,0,8.577,8.782,12.951,12.951,0,0,1,3.9,6.317,11.565,11.565,0,0,1,.019,3.453,7.889,7.889,0,0,0,.7,4.455c.195.476.515.9.71,1.379a18.944,18.944,0,0,1,1.063,8.507,25.282,25.282,0,0,1-3.83,11.6,26.059,26.059,0,0,1-5.224,11.889c-3.923,4.848-4.7,10.8-8.587,15.542-1.541,6.151-5.75,12.326-11.3,15-.693.334-1.559.743-2.478,1.125h0c1.522,3.3,3.362,8.763,1.619,13.212a12.635,12.635,0,0,1-11.608,8.1,1.107,1.107,0,0,1-1.083-1.543l7.792-18.622a7.131,7.131,0,0,1-1.744.234c-1.248,1.956-2.5,3.774-3.749,5.414a50.738,50.738,0,0,1-14.121,12.248L245.7,172.2l0,0,4.755,4.035,1.092.706.071-.055.431.381c1.993,1.3,4.569,2.992,5.408,3.637,5.682,4.391,10.814,7.159,16.5,11.551,4.613,3.574,9.217,7.189,12.311,11.815.558.833,1.067,1.68,1.536,2.537,3.3,2.8,6.128,5.206,6.356,5.461,18.246,20.359,8.057,38.936,8.683,50.476.378,6.917-1.847,14.511-2.741,21.449-.947,7.4-5.212,54.665-5.486,60.71a65.736,65.736,0,0,1-3.833,17.924c-1.922,5.751-3.758,11.815-7.542,16.664-2.949,3.787-9.7,12.167-14.555,12.725-5.2.6-17.887-5.2-22.7-6.957a21.871,21.871,0,0,1-7.214-3.971,73.645,73.645,0,0,0-3.486,11.392c-.5,2.351-.922,4.7-1.321,7.05-1.467,8.415-2.709,16.795-6.484,24.563a84.729,84.729,0,0,0-3.74,10.174q-.6,2.235-1.252,4.452l-.169.117q-.44,1.443-.892,2.947l.165-.116q-.818,2.642-1.7,5.263c-4.094,13.725-8.661,28.945-12.61,34.233a3.427,3.427,0,0,1-2.665,1.518c-.288-.26-13.423-5.392-27.01-11.055q-.779,2.266-1.584,4.523C172.271,492.31,90.9,574.9,90.7,576.176,49.957,542.04,67.627,531.543,52.356,525.321Z" transform="translate(-114.481 942.742)" fill="#6a7d99" stroke="rgba(0,0,0,0)" stroke-miterlimit="10" stroke-width="1"/>
        <g id="Group_16937" data-name="Group 16937" transform="matrix(0.921, 0.391, -0.391, 0.921, 51.573, 878)">
          <g id="Group_16930" data-name="Group 16930" transform="translate(71.505 0)">
            <path id="Path_11921" data-name="Path 11921" d="M86.829,10.162s-3.192.866-7.859,2.136c-.6.163-1.23.334-1.873.506-9.273,2.516-3.022,14.514-10.106,16.377-.826.214-3.354-.334-6.482-1.21C53.2,25.9,42.567,22.03,42.471,22.03s-1.239-.369-3.074-1c-4.6-1.561-13.571-4.72-21.8-7.622-3.76-1.322-7.356-2.591-10.314-3.639H7.275c-.833-.3-1.622-.583-2.345-.84C1.916,7.861,0,7.183,0,7.183l3.287-1.45,1.563-.688.193-.084,4.35-1.915H9.4L16.306,0s23.253,9.208,24,9.037S60.791,0,60.791,0l17.3,6.754.176.068,1.629.635,2.817,1.1.8.309,3.318,1.3Z" transform="matrix(0.998, -0.07, 0.07, 0.998, 13.805, 182.479)" fill="#e8b78e"/>
            <path id="Path_11922" data-name="Path 11922" d="M47.621,32.84c-.206-3.013-2.484-5.21-3.2-8.051-.848-3.347.1-6.676.333-10.041.036-.464.066-.928.066-1.382.051-4.1-1.165-7.819-4.7-10.411A13.864,13.864,0,0,0,29.743.148c-2.594.413-4.49,2.1-6.761,3.228A14.835,14.835,0,0,0,19.954,5.35,44.484,44.484,0,0,1,14.13,7.076c-3.12.72-6.208,1.7-8.17,4.4C3.381,15.04,2.9,20.257,1.9,24.43A52.253,52.253,0,0,0,.4,33.072c-.021.266-.036.54-.052.816A15.28,15.28,0,0,0,.343,40.35a9.518,9.518,0,0,0,.694,1.99,8.773,8.773,0,0,0,8.55,5.116c2.382-.044,4.726-.7,7.108-.833,3.457-.19,5.7,1.837,8.817,2.652a1.976,1.976,0,0,0,.308.086,12.647,12.647,0,0,0,3.642.292,14.612,14.612,0,0,0,2.138-.274c.178-.026.369-.06.547-.1a22.84,22.84,0,0,0,10.034-5.21c3.421-3.038,5.72-7.037,5.439-11.226Z" transform="matrix(0.998, -0.07, 0.07, 0.998, 27.707, 3.323)" fill="#c65442"/>
            <path id="Path_11923" data-name="Path 11923" d="M47.621,19.474c-.206-3.013-2.484-5.21-3.2-8.051-.848-3.347.1-6.676.333-10.041C44.79.918,44.82.455,44.82,0A43.575,43.575,0,0,1,42,7.536C38.885,13.561,34.4,15.93,27.745,15.26c-3.707-.378-6.045.129-8.853,2.567C14.83,21.336,5.313,23.62.4,19.706c-.021.267-.036.541-.052.816a15.28,15.28,0,0,0-.007,6.462,9.519,9.519,0,0,0,.694,1.991,8.773,8.773,0,0,0,8.55,5.116c2.382-.044,4.726-.7,7.108-.833,3.457-.19,5.7,1.837,8.817,2.651,1.238.035,2.476.053,3.708.044.782-.009,1.555-.018,2.329-.035.206,0,.4,0,.6-.009A22.84,22.84,0,0,0,42.181,30.7c3.421-3.038,5.72-7.037,5.439-11.226Z" transform="matrix(0.998, -0.07, 0.07, 0.998, 28.64, 16.657)" fill="#aa3f2e"/>
            <path id="Path_11924" data-name="Path 11924" d="M97.6,30.634a18.932,18.932,0,0,0-3.775-7.7c-.339-.385-.781-.687-1.12-1.074a7.878,7.878,0,0,1-2.115-3.982,11.579,11.579,0,0,0-1.143-3.26,12.956,12.956,0,0,0-5.742-4.7A116.075,116.075,0,0,1,72.73,4.406c-.045-.026-.1-.06-.134-.086C67.428,1.11,62.121.621,56.614,1.651A14.006,14.006,0,0,0,51.408.08C47.73-.289,44.065.69,40.5,1.462c-2.94.635-5.941.833-8.912,1.218-1.305.181-2.6.394-3.886.7C13.611,6.723,7.374,20.98,4.868,34.05c-1.4,2.386-3.023,4.472-3.569,7.287C.724,44.264.953,47.362.511,50.331c-.538,3.546-.84,6.7.074,10.205a32.17,32.17,0,0,0,1.621,4.609c.193.438.391.876.583,1.305a12.862,12.862,0,0,0,3.525,7.116c.64,1.338,1.23,2.694,1.739,4.094.2.541.384,1.088.545,1.647a.317.317,0,0,1,.03.077.952.952,0,0,0,1.674.266.774.774,0,0,0,.066-.661,1.1,1.1,0,0,0-.045-.146,3.082,3.082,0,0,0-.095-.3c-.185-.593-.384-1.167-.605-1.744.178.155.361.31.532.464.242.215.479.422.715.626.095.087.184.164.28.25.921.807,1.835,1.622,2.757,2.447,4.224,3.775,8.478,7.6,13.284,10.582,11.649,7.209,24.623,10.744,38.071,6.762A45.154,45.154,0,0,0,79.21,90.918,44.677,44.677,0,0,0,83.25,87.58c.67-.61,1.318-1.245,1.946-1.9s1.268-1.348,1.864-2.051a43.614,43.614,0,0,0,5.721-8.445,19.55,19.55,0,0,0,.84-1.906c2.13-5.75.929-11.629,3.059-17.491A26.051,26.051,0,0,0,97.75,42.848,25.28,25.28,0,0,0,97.6,30.634Z" transform="matrix(0.998, -0.07, 0.07, 0.998, 0, 45.018)" fill="#c65442"/>
            <path id="Path_11925" data-name="Path 11925" d="M40.74,13.652a56.871,56.871,0,0,1-13.4-.909A82.182,82.182,0,0,1,13.183,8.271,14.682,14.682,0,0,1,7.876,5.189C6.549,3.808,5.826,1.937,4.773.29,4.359-.338,3.452.153,3.416.829q-.454,8.266-.908,16.539a3.209,3.209,0,0,0-.021.361.082.082,0,0,1-.008.042c-.346,6.411-.694,12.84-1.048,19.251,0,.119-.006.239-.014.361-.06,1.089-.127,2.179-.185,3.269-.162,3-.324,6-.494,8.995C.688,50.8.614,51.946.555,53.1Q.278,58.234,0,63.354a.865.865,0,0,0,.522.858c10.7,4.317,20.237,41.3,31.679,41.239,2.728,0,10.263-23.071,12.976-23.345,1.334-.137,8.412-7.724,8.412-7.724L48.689,57l.4-5.184.759-9.844,1.637-21.1.664-8.635S43.6,13.557,40.74,13.652Z" transform="matrix(0.998, -0.07, 0.07, 0.998, 25.671, 141.051)" fill="#e8b78e"/>
            <path id="Path_11926" data-name="Path 11926" d="M2.5,12.838C5.352,10.3,18.46,2.024,21.991,2.006,27.932,1.976,40.185-.288,46.113.031,59.575.753,68.34,6.55,75.912,15.4c.486.568,1.009.833.929,1.382a.9.9,0,0,1,.4.694c.53,15.984-1.12,46.6-6.834,63.946-3.1,9.407-11.214,20.406-20.1,25.364-18.158,10.139-28.442.814-38.3-12.342C.3,78.814,1.231,61.951.132,42.152-.148,37.135-.229,15.263,2.5,12.838Z" transform="matrix(0.998, -0.07, 0.07, 0.998, 10.783, 65.183)" fill="#e8b78e"/>
            <path id="Path_11927" data-name="Path 11927" d="M.186,7.395A15.149,15.149,0,0,1,.179,2.673,4.273,4.273,0,0,1,1.174.643C2.714-.926,4.506.672,4.9,2.269c.516,2.075.391,6.587-1.556,7.614C1.321,10.946.532,9.447.186,7.395Z" transform="matrix(0.998, -0.07, 0.07, 0.998, 30.786, 106.593)" fill="#162134"/>
            <path id="Path_11928" data-name="Path 11928" d="M.186,7.395A15.146,15.146,0,0,1,.179,2.673a4.272,4.272,0,0,1,1-2.03C2.714-.926,4.506.672,4.9,2.269c.507,2.075.39,6.587-1.556,7.614C1.321,10.946.533,9.447.186,7.395Z" transform="matrix(0.998, -0.07, 0.07, 0.998, 67.991, 105.058)" fill="#162134"/>
            <path id="Path_11929" data-name="Path 11929" d="M13.132,11.567A17.533,17.533,0,0,0,12.01,4.933a.69.69,0,0,0-.087-.224.183.183,0,0,0-.045-.068,10.205,10.205,0,0,0-1.423-2.31c-.1-.128-.213-.248-.323-.376a.887.887,0,0,0-.914-.25c-.162-.129-.325-.248-.487-.369a9.285,9.285,0,0,0-.981-.6C5.384-.517,2.832-.371,1.417,2.761A9.134,9.134,0,0,0,.974,3.955c-1.983,6.608-.98,15.2,3.4,20.529.56.687,1.3,1.57,2.1,2.438a17.069,17.069,0,0,0,2.927,2.6,3.541,3.541,0,0,0,1.563.626c1.076.095,1.858-.824,1.947-3.57C13,23.8,13.072,21,13.117,18.2q.054-3.322.015-6.635Z" transform="matrix(0.998, -0.07, 0.07, 0.998, 5.139, 107.195)" fill="#e8b78e"/>
            <path id="Path_11930" data-name="Path 11930" d="M0,0S2.609,3.312,4.821,4.2c2.035.807,4.5,1.855,6.694,1.88a18.781,18.781,0,0,0,7.992-1.983A31.118,31.118,0,0,0,24.241.385L0,0Z" transform="matrix(0.998, -0.07, 0.07, 0.998, 42.008, 143.52)" fill="#793e29"/>
            <path id="Path_11931" data-name="Path 11931" d="M38.431,11.071c-6.149,4.24-15.055,4.583-21.63,1.2C10.645,9.106,6.066,5.27,1.069,0V.042C.729,6.453.368,12.882.014,19.293c0,.119-.006.239-.014.361a73.091,73.091,0,0,0,7.445,1.81c4.158.48,7.7-2,11.869-1.707,3.715.265,7.254,1.149,10.742-.626A28,28,0,0,0,37.739,13.2c.441-.5.861-1,1.252-1.512.25-.325-.2-.857-.56-.617Z" transform="matrix(0.998, -0.07, 0.07, 0.998, 28.322, 158.639)" fill="#e66d56"/>
            <path id="Path_11932" data-name="Path 11932" d="M23.585,3.63C23.2,1.751,20.473,1.09,18.918.661A21.05,21.05,0,0,0,.2,4.962c-1.12.986,2.825.738,3.119.687A58.7,58.7,0,0,1,15.15,5.116c1.97.068,3.937.2,5.9.274,1.188.051,2.853-.146,2.537-1.76Z" transform="matrix(0.998, -0.07, 0.07, 0.998, 20.448, 96.468)" fill="#c65442"/>
            <path id="Path_11933" data-name="Path 11933" d="M23.2,6.457A21.078,21.078,0,0,0,5.022.243C3.436.51.65.9.09,2.723-.4,4.295,1.248,4.654,2.42,4.731c1.968.12,3.936.2,5.9.334A58.9,58.9,0,0,1,20.032,6.817c.295.078,4.187.739,3.171-.36Z" transform="matrix(0.998, -0.07, 0.07, 0.998, 59.811, 95.451)" fill="#c65442"/>
            <path id="Path_11934" data-name="Path 11934" d="M3.7,18.409c-1.364-.6-3.79-5.685-.221-5.584a.864.864,0,0,0,.877-1.042Q3.3,6.243,2.564.658C2.424-.437.743-.063.89,1.027q.676,5.115,1.622,10.181c-4,.831-2.8,7.307.649,8.831,1.01.449,1.542-1.186.539-1.629Z" transform="matrix(0.998, -0.07, 0.07, 0.998, 11.106, 110.479)" fill="#e66d56"/>
            <path id="Path_11935" data-name="Path 11935" d="M14.551,6.59c-.067-.754-.177-1.485-.309-2.2C13.313-.524,9.906-.73,6.854.951a1.543,1.543,0,0,0-.228.128c-.119.071-.236.139-.361.215a.879.879,0,0,0-.628-.026.779.779,0,0,0-.294.181,9.987,9.987,0,0,0-2.02,2.489L3.272,4a1.026,1.026,0,0,0-.112.214A17.583,17.583,0,0,0,1.369,10.7C.831,15.181.477,19.722.139,24.227c-.03.482-.066.953-.1,1.426-.25,3.4.87,4.119,2.433,3.613a7.1,7.1,0,0,0,1.578-.79,20.967,20.967,0,0,0,2.727-2.155c.745-.66,1.43-1.329,1.977-1.87,4.378-4.335,6.348-11.544,5.8-17.861Z" transform="matrix(0.998, -0.07, 0.07, 0.998, 83.53, 106.031)" fill="#e8b78e"/>
            <path id="Path_11936" data-name="Path 11936" d="M.625,18.123c1.422-.459,4.357-5.265.8-5.532a.872.872,0,0,1-.768-1.129Q2.279,6.062,3.58.583c.259-1.074,1.888-.528,1.629.54Q4.017,6.142,2.549,11.081C6.441,12.321,4.583,18.64.993,19.8c-1.055.34-1.409-1.339-.369-1.676Z" transform="matrix(0.998, -0.07, 0.07, 0.998, 87.102, 109.226)" fill="#e66d56"/>
            <path id="Path_11937" data-name="Path 11937" d="M5.383,23.328C.155,20.814,2.9,16.252,3.657,12.137c.7-3.752,1.313-7.521,1.96-11.28C5.81-.23,4.092-.308,3.907.768,3.377,3.812,2.861,6.86,2.323,9.9,1.8,12.839.229,15.967.015,18.869-.22,22,2.331,23.751,4.844,24.958c.988.479,1.519-1.158.539-1.629Z" transform="matrix(0.998, -0.07, 0.07, 0.998, 47.098, 109.467)" fill="#e66d56"/>
            <path id="Path_11938" data-name="Path 11938" d="M80.593,30.828c.036-5.425.155-11.449-1.9-16.572C75.9,7.234,68.916,3.364,61.58,1.492c-.545-.146-1.107-.274-1.659-.394A47.072,47.072,0,0,0,55.048.316C54.436.247,53.824.2,53.234.153,52.7.11,52.18.075,51.664.059c-6.723-.292-13.44.558-20.1,1.424-6.221.807-12.347,1.906-18.084,4.541-.957.438-1.967.884-2.991,1.356-.8.367-1.593.763-2.367,1.176C5.263,10.1,2.712,12.066,1.7,15.1c-1.784,5.33-2.418,22.974-.664,29.318a4.139,4.139,0,0,0,1.061,2.1.843.843,0,0,0,1.062.017,2.368,2.368,0,0,0,.583-.524c1.2-1.45,1.313-4.368,1.46-5.938.443-4.875.383-9.433,2.2-14.076A60.413,60.413,0,0,1,14.235,14.04C17.124,9.844,20.023,6.1,25.4,5.389c4.276-.559,8.7.069,13-.223A47.106,47.106,0,0,1,48.9,5.337c3.517.55,6.473,2.146,9.783,3.261,5.47,1.846,12.289,2.129,15.283,7.9,2.248,4.36,1.6,10.616,1.873,15.389q.475,8.329.965,16.658a.978.978,0,0,0,.4.712.741.741,0,0,0,.974.051.847.847,0,0,0,.192-.248.991.991,0,0,1,.051-.12c2.545-5.313,2.13-12.367,2.168-18.117Z" transform="matrix(0.998, -0.07, 0.07, 0.998, 8.786, 63.147)" fill="#c65442"/>
            <path id="Path_11939" data-name="Path 11939" d="M7.682,11.236A10.217,10.217,0,0,0,5.919,6.563C4.85,5.02,1.459,2.874,1.77.861,1.938-.231.22-.31.059.772c-.31,2.009.634,3.123,2.056,4.41,3.966,3.582,5.442,8.507,1.607,12.966-.715.828.428,2.111,1.15,1.275a10.531,10.531,0,0,0,2.809-8.188Z" transform="matrix(0.998, -0.07, 0.07, 0.998, 55.822, 43.568)" fill="#aa3f2e"/>
            <path id="Path_11940" data-name="Path 11940" d="M1.643.438C1.1-.523-.429.26.115,1.225A8.714,8.714,0,0,1,.993,7.856C.706,8.919,2.335,9.465,2.622,8.4A10.481,10.481,0,0,0,1.643.438Z" transform="matrix(0.998, -0.07, 0.07, 0.998, 66.961, 53.384)" fill="#aa3f2e"/>
            <path id="Path_11941" data-name="Path 11941" d="M3.612,24.241c-4.475-2.189-.257-7.308-.117-10.344.058-1.337-.568-1.921-.945-3.1-1.1-3.439-1.046-6.274.819-9.454C3.922.387,2.491-.557,1.931.4A12.352,12.352,0,0,0,.007,7.223c.1,3.148,1.858,5.542,1.01,8.662-.87,3.231-2.176,7.915,1.658,9.793.982.48,1.932-.952.937-1.436Z" transform="matrix(0.998, -0.07, 0.07, 0.998, 15.528, 54.505)" fill="#aa3f2e"/>
            <path id="Path_11942" data-name="Path 11942" d="M3.488,15.3c-2.774-3.951-1.777-9.763-.7-14.175C3.044.056,1.416-.492,1.157.582-.1,5.758-1.018,11.844,2.21,16.45c.636.9,1.9-.256,1.277-1.15Z" transform="matrix(0.998, -0.07, 0.07, 0.998, 47.733, 8.4)" fill="#aa3f2e"/>
            <path id="Path_11943" data-name="Path 11943" d="M4.035,1.045c-.235-.256-.479-.5-.7-.72a1.112,1.112,0,0,0-1.894.712L1.308,3.2,0,23.343A1.108,1.108,0,0,0,1.53,24.45,12.639,12.639,0,0,0,9.868,13.01c.2-4.773-3.319-9.338-5.833-11.965Z" transform="matrix(0.998, -0.07, 0.07, 0.998, 88.024, 131.055)" fill="#eee0d8"/>
            <path id="Path_11944" data-name="Path 11944" d="M8.618,3.8,8.434,1.038a1.114,1.114,0,0,0-1.9-.714c-.264.266-.559.559-.847.876C3.192,3.852-.177,8.323.007,13.01A12.642,12.642,0,0,0,8.353,24.45a1.113,1.113,0,0,0,1.525-1.108L8.618,3.8Z" transform="matrix(0.998, -0.07, 0.07, 0.998, 7.714, 132.799)" fill="#eee0d8"/>
            <path id="Path_11945" data-name="Path 11945" d="M2.734.176C.2,1.309-.32,5.189.16,7.608c.589,2.945,4.276,4.472,5.219.833C5.77,6.94,6.014-1.3,2.734.176Z" transform="matrix(0.998, -0.07, 0.07, 0.998, 10.336, 139.613)" fill="#fff"/>
            <path id="Path_11946" data-name="Path 11946" d="M2.857.176C-.416-1.3-.166,6.94.218,8.441c.944,3.639,4.622,2.12,5.219-.833.48-2.419-.044-6.3-2.579-7.432Z" transform="matrix(0.998, -0.07, 0.07, 0.998, 90.637, 138.515)" fill="#fff"/>
          </g>
          <path id="Path_11947" data-name="Path 11947" d="M128.992,76.817a120.066,120.066,0,0,0,.323-18.354c-.493-12.4-1.077-24.8-1.615-37.19q-.2-4.567-.4-9.14a.322.322,0,0,0-.164-.284q-4.8-2.185-9.6-4.366C114.585,6.144,96.123,0,96.123,0S72.251,42.8,68.935,43.364c-3.623.618-33.924-41.12-33.924-41.12S22.1,6.014,18.556,8.373c-6.566,4.383-5.086,12.593-4.831,19.374.692,18.666-5.3,36.719-6.838,55.2-1.582,19.04.7,38.091,2.03,57.069A371.308,371.308,0,0,1,8.3,197.232C6.474,218.88,3.242,240.376,0,261.847a.378.378,0,0,0,.317.42c26.962,7.655,49.38,4.287,74.136,3.1q18.643-.9,37.31-1.31l4.258-.085c1.57-.029,9.651.216,11.193-.062,1.49-.272,2.058-3.045,2.291-4.361.8-4.564-7.014-9.224-7.746-13.692-1.009-6.135.045-20.776.93-26.848a90.893,90.893,0,0,0,.613-17.385,79.569,79.569,0,0,1-.051-8.919,56.637,56.637,0,0,1,1.582-9.287,70.643,70.643,0,0,0,2.342-16.9c-.1-11.975-3.141-23.723-3.855-35.664a146.332,146.332,0,0,1,2.489-36.918c1.123-5.693,2.523-11.34,3.181-17.117Z" transform="translate(60.99 181.451)" fill="#fff"/>
          <path id="Path_11948" data-name="Path 11948" d="M47.043,92.639c.074.2-1.9,1.994-2.248,2.345a27.883,27.883,0,0,1-2.409,2.609c-.435-1.066-.636-2.337-.95-3.4-.013-.038-.02-.076-.039-.124.455-.825.89-1.666,1.291-2.507l.6.148c.508.124,3.639.56,3.752.935ZM40.52,91.011c.3.078.589.148.884.226-.175.343-.341.685-.529,1.021-.12-.413-.24-.825-.355-1.246Zm-4.027,25.362a11.533,11.533,0,0,0-1.09,3.88c-.074,1.347.28,2.663.287,4q-.07.98-.141,1.962-3.07,2.279-2.81-.35c-1.011-3.646,1.164-7.479-.462-11.163-.709-1.581-1.192-1.44-.837-3.459a12.162,12.162,0,0,1,1.786-4.221c.836-1.442,1.666-2.875,2.5-4.315a.969.969,0,0,0,.422-.3c.4-.575.8-1.16,1.191-1.729.97,1.947.769,4.869.809,6.8a21.9,21.9,0,0,1-1.659,8.9ZM30.23,74.419c-.376-1.448-.764-2.9-1.164-4.339,2.322.055,2.837,3.132,1.164,4.339Zm-3.754-1.566A2.945,2.945,0,0,1,27.6,70.548c.4,1.44.777,2.89,1.151,4.33a2.025,2.025,0,0,1-2.274-2.025ZM68.582,2.562c-.107.678-.227,1.349-.368,2.018q-.312,1.718-.7,3.411C64.206,22.636,57.91,36.4,52.791,50.506a148.737,148.737,0,0,0-6.817,24.972c-.469,2.641-.943,5.281-1.613,7.868l-.917-.336c-.936-.342-1.345,1.162-.408,1.5.3.108.609.225.917.333a35.128,35.128,0,0,1-1.833,4.963c-.722-.187-1.445-.366-2.168-.545a.766.766,0,0,0-.95.716.672.672,0,0,0-.194.724c.321,1.146.663,2.29,1,3.435-.829,1.379-1.705,2.719-2.608,4.043a.7.7,0,0,0-.843.335c-.187.318-.375.638-.561.95q-.564-3.013-1.171-6.029c.562-.615,1.157-1.207,1.779-1.768.756-.67-.354-1.768-1.1-1.105-.367.327-.729.67-1.07,1.021-.321-1.536-.635-3.069-.977-4.605.629-.59,1.271-1.167,1.947-1.713.776-.638-.328-1.737-1.1-1.105-.429.351-.836.709-1.245,1.074-.7-3.1-1.432-6.183-2.222-9.252a4.083,4.083,0,0,0,2.189-4.145,3.773,3.773,0,0,0-3.152-3.21.79.79,0,0,0-.435-.163,3.7,3.7,0,0,0-.6.031A350.166,350.166,0,0,0,4.155,5.242H4.149C3.567,4.082,2.328,1.636,1.48,0,.73.249.154.459,0,.514c.649,1.269,1.64,3.2,2.021,3.965A347.817,347.817,0,0,1,27.159,68.967a4.576,4.576,0,0,0-2.241,3.886,3.636,3.636,0,0,0,4.242,3.568c.85,3.334,1.64,6.675,2.4,10.033a38.086,38.086,0,0,0-2.73,2.96c-.635.764.462,1.878,1.1,1.1s1.332-1.526,2.034-2.25c.349,1.565.67,3.146.991,4.72a23.844,23.844,0,0,0-1.76,2.313c-.569.834.776,1.612,1.338.787.268-.4.549-.771.83-1.145.436,2.165.843,4.33,1.238,6.511a79.854,79.854,0,0,0-4.937,8.646c-1.279,2.805.848,3.614,1.565,6.35.582,2.234-2.134,14.292,2.871,13.584,1.827-.257,2.763-2.376,3.038-3.942a24.678,24.678,0,0,0-.121-4.5c-.014-2.282.855-4.181,1.62-6.278,1.211-3.349,1.19-6.932.956-10.445-.134-1.994-.141-4.052-1.277-5.639.709-1.084,1.377-2.174,2.019-3.263.254.91.382,2.547,1.1,3.169a1.191,1.191,0,0,0,1.513-.077,23.4,23.4,0,0,0,3.2-3.2c.884-.9,3.848-2.905,2.148-4.332-.776-.661-2.368-.762-3.324-1l-1.593-.4c.7-1.55,1.312-3.154,1.866-4.8.7.257,1.386.514,2.088.763.944.343,1.344-1.16.415-1.5-.683-.242-1.358-.491-2.028-.739A48.976,48.976,0,0,0,46.99,78.61,172.169,172.169,0,0,1,53.828,52.2c5.3-14.847,12.037-29.258,15.389-44.673.221-1.036.435-2.08.628-3.124.074-.421.148-.842.215-1.269l-1.478-.577Z" transform="matrix(0.998, -0.07, 0.07, 0.998, 90.045, 190.141)" fill="#f6c49f"/>
          <path id="Path_11949" data-name="Path 11949" d="M160.513,55.77q-.723-12.358-2.216-24.653c-.471-3.9-.924-7.83-1.593-11.709a4.513,4.513,0,0,0-1.186-2.705,3.643,3.643,0,0,0-.425-.34,27.172,27.172,0,0,0-4.87-2.211,102.126,102.126,0,0,0-22.34-6.98c-7.729-1.366-15.575-2.081-23.378-2.954C88.31,2.4,72.066.662,55.769.13,41.191-.346,26.3.334,12.314,4.791a77.552,77.552,0,0,0-7.8,2.954c.034-.93.074-1.859.09-2.79a.329.329,0,0,0-.658,0c-.028,1.038-.073,2.064-.108,3.1-.442.2-.884.391-1.326.6-.38.176-.046.743.329.567.329-.152.658-.289.975-.436-.147,4.06-.374,8.108-.64,12.162C2.431,32.086,1.342,43.211.645,54.364.458,57.29.3,60.216.2,63.147-.013,68.487-.069,73.835.1,79.182a80.8,80.8,0,0,0,.76,11.533c.556,3.072,4.655,3.146,7.128,3.771,15.156,3.8,30.879,7.054,46.483,4.008,3.833-.742,7.6-1.768,11.419-2.522a63.437,63.437,0,0,1,12.469-1.207c.856,0,1.7,0,2.551.016.131.006.272.006.409.006.079.006.159.006.237.006.369.011.738.023,1.112.029,6.8.2-5.866,43.029.955,42.928,16.489-.239-5.127,12.195,45.712,27.7C129.017,164.194,163.307,71.926,160.513,55.77Z" transform="translate(44.018 430.875)" fill="#e6d8cc"/>
          <path id="Path_11950" data-name="Path 11950" d="M45.2,7.317A157.335,157.335,0,0,1,24.6,1.754c-5.693-2.03-11.567-2.88-16.863.7A16.328,16.328,0,0,0,2.977,7.578C2.228,18.72,1.14,29.844.442,41,.255,43.923.1,46.849,0,49.78a58.19,58.19,0,0,0,7-2.7,20.044,20.044,0,0,0,8.9-8.41,19.819,19.819,0,0,1,4.207-5.534,25.808,25.808,0,0,1,5.749-3.119,18.088,18.088,0,0,0,5.069-3.084,21.434,21.434,0,0,0,3.5-5.228c2.944-5.115,6.951-9.5,10.921-13.829a.339.339,0,0,0-.147-.556Z" transform="translate(44.608 434.377)" fill="#485057"/>
          <path id="Path_11951" data-name="Path 11951" d="M35.381,41.587q-.723-12.357-2.216-24.654c-.471-3.9-.924-7.831-1.593-11.708A4.518,4.518,0,0,0,30.387,2.52c-2.416-.555-4.984-.765-7.27-1.128C19.335.8,15.44-.094,11.6.008A26.67,26.67,0,0,0,3.458,1.715C3.448,1.257,3.431.8,3.419.343a.329.329,0,0,0-.658,0c.012.528.029,1.061.045,1.6-.867.306-1.729.63-2.586.963-.39.143-.22.783.176.63.812-.3,1.616-.612,2.433-.908.176,4.723.629,9.521,2.489,13.9C7.36,21.34,11.4,24.815,13.818,29.4c1.1,2.091,1.39,4.6,3.328,6.157,2.127,1.7,4.367,2.727,5.943,5.074,1.514,2.241,2.058,4.939,3.725,7.1a52.887,52.887,0,0,0,4.689,4.8,15.89,15.89,0,0,1,2.717,3.373c.709,1.236.958,2.683,1.69,3.9.039.056.073.119.119.176q-.111-9.2-.647-18.393Z" transform="translate(168.762 435.522)" fill="#485057"/>
          <path id="Path_11952" data-name="Path 11952" d="M0,296.5a88.92,88.92,0,0,1,9.823.888,99.983,99.983,0,0,0,13.834,1.383c4.845-.011,9.734-.946,14.551-1.359,11.22-.946,22.395-1.434,33.363-3.635,1.071-.215,2.135-.431,3.2-.645.413-.58.828-1.225,1.249-1.951,2.57-4.424,11.346-33.272,7.674-72.567-.091-.97-.22-2.229-.363-3.5-1.145-10.134,6.781-49.738,7.084-59.878l.923-31.054c.3-10.187.266-20.432,1.2-30.6C93.007,88.38,94.69,53.3,93.892,47.94c-.872-5.895-.72-17.544-1.359-24.686-1.9-13.228-4.618-23.23-4.9-23.213-.495.024.466-.1,0,0-.044-.006-1.521.186-1.573.2-14.477,2.253-12.9,4.688-26.67,8.881-10.274,3.13-30.58,14.653-35.321,23.225-2.622,4.744-2.586,10.216-3.088,15.286-.6,6.111,6.2-.04,5.607,6.063-1.2,12.261-2.608,24.532-2.859,36.84-.244,12.161-4.713,32.459-4.786,44.609-.074,12.081-2.542,24.039-4.756,35.962-2.157,11.622-3.945,23.254-3.442,35.021C11.256,218.212.332,274.943,0,296.5Z" transform="translate(10.475 183.445)" fill="#7cacd3"/>
          <path id="Path_11953" data-name="Path 11953" d="M47.323,54.173C43.688,58.4,36.431,126.993,26.86,143.508a66.989,66.989,0,0,1-11.749,14.666A76.675,76.675,0,0,1,.8,169.045L0,117.882.017,81.809l.006-6.624S6.4,54.771,11.017,35.862C15.639,16.972,31.667,0,31.667,0L50.623,14.869s.329,35.086-3.3,39.3Z" transform="translate(5.008 213.102)" fill="#7cacd3"/>
          <path id="Path_11954" data-name="Path 11954" d="M80.575,297.932a3.425,3.425,0,0,1-1.86,2.438c-.731-.253-55.959,1.62-62.049-1.095s-2.416-44.974-6.024-64.687c-1.208-6.543-4.127-22.82-4.779-28.99-1.223-11.492-2.833-22.947-4.494-34.41C-.271,159.894,2.6,147.56,2.606,136.168c.007-11.209-1.4-21.184-.753-32.357C2.51,92.349.973,80.893.644,69.441.008,47.158,0,0,0,0S7.62,1.3,9.369,1.752c6.947,1.822,12.751,2.364,19.7,4.186C34.71,7.425,40.361,8.954,45.016,12c4.633,3.033,8.066,7.017,11.44,10.909,3.558,4.1,7.028,8.273,8.769,13.094,1.741,4.773,1.961,9.79,1.735,14.731-.257,5.564-.915,11.129-1.428,16.681-1.054,11.572,3.849,23.137,2.788,34.7-2.115,23.016,4.794,46.027,3.118,69.061-.321,4.371-.68,8.759-.87,13.152A88.771,88.771,0,0,0,71.7,205.356c.462,2.358.988,4.687,1.538,7.006,1.939,8.319,4.069,16.518,3.63,25.144-.592,11.179,6.383,49.481,3.7,60.425Z" transform="translate(154.689 181.116)" fill="#7cacd3"/>
          <path id="Path_11955" data-name="Path 11955" d="M22.539.454a70.442,70.442,0,0,0-3.465,10.381c-.9,3.692-.987,7.718-2.308,11.278-1.241,3.318-3.719,6.044-5.3,9.214a38.117,38.117,0,0,0-2.688,7.127C6.7,33.437,5.16,28.571,5.33,22.982A18.753,18.753,0,0,0,2.28,11.59C.642,8.772.012,3.016.012,3.016L0,27.069l.8,49.1A76.59,76.59,0,0,0,15.111,65.734q1.115-4.61,2.1-9.259A318.485,318.485,0,0,0,23.843.63c.017-.805-1.038-.811-1.3-.176Z" transform="translate(5.008 305.98)" fill="#485057"/>
          <path id="Path_11956" data-name="Path 11956" d="M6.9.466C3.527,12.2,4.367,24.689,2.36,36.669A88.918,88.918,0,0,0,1.1,54.031,62.629,62.629,0,0,1,.086,64.571c-.425,3.068.908,6.38.125,9.293a.659.659,0,0,0,1.27.352c.748-2.772-.414-5.409-.239-8.227.188-2.948,1.077-5.783,1.19-8.749.137-3.4-.255-6.8-.1-10.211A85.5,85.5,0,0,1,3.629,37.014C5.637,25.045,4.8,12.532,8.166.817A.659.659,0,0,0,6.9.466Z" transform="translate(26.945 229.973)" fill="#203533"/>
          <path id="Path_11957" data-name="Path 11957" d="M27.7.2A96.262,96.262,0,0,1,.338,19.835c-.765.363-.1,1.5.669,1.14a97.29,97.29,0,0,0,27.63-19.84C29.232.523,28.3-.412,27.7.2Z" transform="translate(20.013 394.751)" fill="#203533"/>
          <path id="Path_11958" data-name="Path 11958" d="M41.066,86.425a110.486,110.486,0,0,1-.878-20.672c-3.249-6.169-6.873-12.18-10.263-18.235C21.045,31.7,11.86,16.054,1.755.983A.865.865,0,0,0,1.569.79,1.274,1.274,0,0,1,1.551.631C1.5-.207.179-.213.23.631c.256,4.083.5,8.194.914,12.282C.769,17.721.389,22.529.1,27.337c-.369,6.125.21,11.551,2.937,17.084a96.843,96.843,0,0,1,4.326,9.543,52.632,52.632,0,0,0,3.226,7.678A29.356,29.356,0,0,0,20.711,72.108a12.915,12.915,0,0,1,2.11,5.908A4.259,4.259,0,0,0,23.988,80.9a4.129,4.129,0,0,0,1.73.743c2,.595,3.244.952,4.575,2.818a25.112,25.112,0,0,0,2.835,3.8c2.541,2.432,6.09,3.34,9.13,5.052-.426-2.28-.834-4.57-1.192-6.89Z" transform="translate(184.928 301.629)" fill="#485057"/>
          <path id="Path_11959" data-name="Path 11959" d="M25.693,23.291c-4.9-2.948-9.032-7.411-13.251-11.244-4-3.628-8.312-7.1-11.2-11.736C.8-.41-.349.254.1.98c2.954,4.739,7.308,8.289,11.4,12,4.322,3.919,8.488,8.426,13.523,11.448a.66.66,0,0,0,.664-1.14Z" transform="translate(199.541 388.652)" fill="#203533"/>
          <path id="Path_11960" data-name="Path 11960" d="M77.425,146.679a65.729,65.729,0,0,0-3.475-18c-2.11-5.671-16.653-50.85-18.671-58.028-1.889-6.736-2.807-14.6-5.857-20.815C44.335,39.463,46.455,18.382,21.706,6.77,20.934,6.407,0,0,0,0S23.883,32.943,25.335,39.612c0,0,8.919,24.862,6.044,37.547-2.9,12.78-7.938,24.427-13.637,36.163C12.52,124.073,4.706,137.805,3.22,141.1c-2.341,5.2,3.817,11.806,7.1,16.563,2.841,4.105,7.49,13.607,11.714,16.239,10.393,6.476,10.909,11.544,22.918,10.931,5.121-.26,19.069.12,23.616-2.466,4.246-2.41,7.19-12.762,8.426-17.4,1.588-5.942.908-12.241.431-18.286Z" transform="translate(188.39 190.628)" fill="#7cacd3"/>
          <path id="Path_11961" data-name="Path 11961" d="M2.49.477A69.27,69.27,0,0,1,.041,9.4c-.284.8.992,1.151,1.27.351A70.289,70.289,0,0,0,3.766.828C3.93-.006,2.66-.357,2.49.477Z" transform="translate(179.095 218.208)" fill="#db8173"/>
          <path id="Path_11962" data-name="Path 11962" d="M16.953.248a31.329,31.329,0,0,0-4.9,11.945,53.463,53.463,0,0,1-.857,5.751A18.476,18.476,0,0,1,7.92,23.687c-2.138,2.87-3.776,5.581-4.3,8.863C3,36.536,3.378,40.671.119,44.124c-.489.512.658,1,1.14.487,2.58-2.728,3.017-5.877,3.351-9.1A21.191,21.191,0,0,1,9.06,24.179a18.721,18.721,0,0,0,3.97-9.346A31.785,31.785,0,0,1,18.092.736c.364-.558-.771-1.05-1.139-.488Z" transform="translate(204.08 211.366)" fill="#203533"/>
          <path id="Path_11963" data-name="Path 11963" d="M28.918.632c-.085-.839-1.406-.845-1.32,0A28.1,28.1,0,0,1,.636,31.777c-.845.028-.851,1.349,0,1.315A29.413,29.413,0,0,0,28.918.632Z" transform="translate(208.467 311.949)" fill="#203533"/>
          <g id="Group_16931" data-name="Group 16931" transform="translate(199.988 424.953) rotate(3)">
            <path id="Path_11964" data-name="Path 11964" d="M23.752.742A49.722,49.722,0,0,0,8.794,22.5,110.074,110.074,0,0,0,3.1.385,1.054,1.054,0,0,0,2.846,0C1.423,15.545,1.5,31.192,0,46.727c4.9-8.163,10.144-16.155,15.06-24.281,3.067-5.077,6.2-10.116,9.459-15.068-.221-2.212-.471-4.423-.767-6.635Z" transform="matrix(0.998, -0.07, 0.07, 0.998, 8.148, 1.71)" fill="#485057"/>
            <path id="Path_11965" data-name="Path 11965" d="M9.076,0C1.563,7.025-.817,17.48.237,27.518A62.477,62.477,0,0,0,4.181,44a12.9,12.9,0,0,0,2,3.449C7.837,31.684,7.689,15.788,9.076,0Z" transform="matrix(0.998, -0.07, 0.07, 0.998, 0, 3.038)" fill="#485057"/>
            <path id="Path_11966" data-name="Path 11966" d="M25.338,24.454q-.032-4.747-.148-9.434c-.53.262-1.01.507-1.423.727q.687-1.1,1.372-2.269C25,8.961,24.771,4.476,24.4,0,21.35,4.722,18.409,9.516,15.5,14.329,10.432,22.726,5,30.962,0,39.416c8.4-3.83,16.743-7.874,24.44-13.021.3-.2.611-.417.921-.626-.007-.438-.022-.876-.022-1.314Z" transform="matrix(0.998, -0.07, 0.07, 0.998, 9.273, 12.104)" fill="#485057"/>
            <path id="Path_11967" data-name="Path 11967" d="M23.775,0A168.833,168.833,0,0,1,0,12.731a11.362,11.362,0,0,0,2.138.672,22.74,22.74,0,0,0,9.82-.568,63.184,63.184,0,0,0,12.334-3.77q-.4-4.519-.516-9.065Z" transform="matrix(0.998, -0.07, 0.07, 0.998, 12.854, 39.962)" fill="#485057"/>
          </g>
          <g id="Group_16932" data-name="Group 16932" transform="matrix(0.695, 0.719, -0.719, 0.695, 48.967, 400.917)">
            <path id="Path_11968" data-name="Path 11968" d="M0,0C-.066,10.283,5.877,19.206,13.89,25.347a62.65,62.65,0,0,0,14.671,8.477,12.986,12.986,0,0,0,3.886.914C22.141,22.7,10.507,11.867,0,0Z" transform="matrix(0.998, -0.07, 0.07, 0.998, 1.164, 33.419)" fill="#485057"/>
            <path id="Path_11969" data-name="Path 11969" d="M23.223,37.812c1.364-7.992,2.337-17.3,1.474-25.725-4.365,2.823-8.4,14.285-9.665,18.884C12.37,20.83,7.49,7.876.252.175A.733.733,0,0,0,0,0,331.217,331.217,0,0,0,8.316,36c2.611,9.454,4.851,19.064,7.542,28.509,3.008-8.734,5.81-17.568,7.365-26.692Z" transform="matrix(0.998, -0.07, 0.07, 0.998, 18.46, 1.746)" fill="#485057"/>
            <path id="Path_11970" data-name="Path 11970" d="M7.563,22.688C6.155,32.543,3.214,42.06,0,51.453a11.129,11.129,0,0,0,1.96-1.09A22.732,22.732,0,0,0,8.3,42.85c3.332-5.738,6.59-11.148,7.033-17.938a37.485,37.485,0,0,0-1.894-14.577A73.408,73.408,0,0,0,8.705,0,103.963,103.963,0,0,1,7.563,22.688Z" transform="matrix(0.998, -0.07, 0.07, 0.998, 37.276, 13.262)" fill="#485057"/>
            <path id="Path_11971" data-name="Path 11971" d="M24.7,33.017A331.333,331.333,0,0,1,17.038,0a49.705,49.705,0,0,0,3.383,37.6A110,110,0,0,0,.456,26.522,1.018,1.018,0,0,0,0,26.439C10.306,38.163,21.711,48.879,31.958,60.65,29.4,51.479,27.211,42.174,24.7,33.017Z" transform="matrix(0.998, -0.07, 0.07, 0.998, 0, 5.027)" fill="#485057"/>
          </g>
          <g id="Group_16933" data-name="Group 16933" transform="matrix(0.819, 0.574, -0.574, 0.819, 55.982, 266.477)">
            <path id="Path_11972" data-name="Path 11972" d="M0,0C-.066,10.283,5.877,19.206,13.89,25.347a62.652,62.652,0,0,0,14.671,8.477,12.982,12.982,0,0,0,3.885.914C22.141,22.7,10.507,11.867,0,0Z" transform="translate(20.899 53.511) rotate(-49)" fill="#485057"/>
            <path id="Path_11973" data-name="Path 11973" d="M23.223,37.812c1.364-7.992,2.337-17.3,1.474-25.725-4.365,2.823-8.4,14.285-9.665,18.883C12.37,20.83,7.491,7.876.252.175A.732.732,0,0,0,0,0,331.14,331.14,0,0,0,8.316,36c2.611,9.454,4.851,19.064,7.542,28.509,3.008-8.734,5.81-17.568,7.365-26.692Z" transform="translate(10.733 18.885) rotate(-49)" fill="#485057"/>
            <path id="Path_11974" data-name="Path 11974" d="M7.563,22.688C6.155,32.543,3.214,42.06,0,51.453a11.127,11.127,0,0,0,1.96-1.09A22.729,22.729,0,0,0,8.3,42.85c3.332-5.738,6.59-11.148,7.033-17.938a37.5,37.5,0,0,0-1.894-14.577A73.415,73.415,0,0,0,8.705,0,103.946,103.946,0,0,1,7.563,22.688Z" transform="translate(32.181 13.723) rotate(-49)" fill="#485057"/>
            <path id="Path_11975" data-name="Path 11975" d="M24.7,33.017A331.344,331.344,0,0,1,17.038,0a49.706,49.706,0,0,0,3.383,37.6A110.007,110.007,0,0,0,.456,26.522,1.017,1.017,0,0,0,0,26.439C10.306,38.163,21.711,48.879,31.958,60.65,29.4,51.479,27.211,42.174,24.7,33.017Z" transform="translate(0 34.259) rotate(-49)" fill="#485057"/>
          </g>
          <g id="Group_16934" data-name="Group 16934" transform="translate(182.876 276.352) rotate(-45)">
            <path id="Path_11976" data-name="Path 11976" d="M22.551,5.1C15.046,12.906,7.862,21.032,0,28.472a11.271,11.271,0,0,1,.621-3.381A54.367,54.367,0,0,1,7.273,12.131a31.8,31.8,0,0,1,11.9-10.606c.006-.008.006,0,.006,0C20.931.869,26.983-.373,27.34.108c.132.126-4.922,4.87-4.789,4.99Z" transform="matrix(0.998, -0.07, 0.07, 0.998, 0, 2.059)" fill="#485057"/>
            <path id="Path_11977" data-name="Path 11977" d="M23.241,21.557c6.923.83,14.963,1.268,22.158.172-2.612-3.632-12.629-6.61-16.629-7.5C37.36,11.514,48.277,6.77,54.585.221A.654.654,0,0,0,54.725,0,284,284,0,0,0,24.167,8.679C16.154,11.322,7.994,13.655,0,16.373a147.016,147.016,0,0,0,23.241,5.184Z" transform="matrix(0.998, -0.07, 0.07, 0.998, 1.674, 16.521)" fill="#485057"/>
            <path id="Path_11978" data-name="Path 11978" d="M25.03,5.267C16.509,4.477,8.2,2.359,0,0A9.476,9.476,0,0,0,1.02,1.635,19.521,19.521,0,0,0,7.74,6.76c5.072,2.615,9.858,5.188,15.711,5.275A32.208,32.208,0,0,0,35.889,9.786a63.235,63.235,0,0,0,8.68-4.5A89.346,89.346,0,0,1,25.03,5.267Z" transform="matrix(0.998, -0.07, 0.07, 0.998, 3.245, 34.628)" fill="#485057"/>
            <path id="Path_11979" data-name="Path 11979" d="M51.455,11.56c-6.9,1.514-13.676,3.433-20.408,5.543q-3.822,1.185-7.626,2.443C15.666,22.1,7.766,24.381,0,26.963c7.5-7.211,14.424-15,21.645-22.488,1.193-1.137,4-4.667,4.338-4.467.711.427-.829,4.934-1.206,6.024a91.56,91.56,0,0,1-5.472,10.046A42.774,42.774,0,0,1,51.455,11.56Z" transform="matrix(0.998, -0.07, 0.07, 0.998, 2.268, 3.589)" fill="#485057"/>
          </g>
          <g id="Group_16935" data-name="Group 16935" transform="matrix(0.985, -0.174, 0.174, 0.985, 38.42, 198.504)">
            <path id="Path_11980" data-name="Path 11980" d="M22.515,46.182a.927.927,0,0,1-.221-.214c-5.949-8.737-8.758-22.289-9.8-32.726C10.527,17.593,4.755,28.288,0,30.39c.465-8.453,2.875-17.5,5.47-25.18.221-.661.457-1.322.686-1.975C10.38,2.067,14.655,1.021,18.947,0c.3,3.115.6,6.23.958,9.329,1.379,12.247,2.6,24.521,2.611,36.853Z" transform="matrix(0.998, -0.07, 0.07, 0.998, 5.16, 3.493)" fill="#485057"/>
            <path id="Path_11981" data-name="Path 11981" d="M9.343,0c-.375,1.091-.736,2.18-1.077,3.279A103.508,103.508,0,0,0,3.608,25.508,71.088,71.088,0,0,1,.549,14.565,36.547,36.547,0,0,1,.4,2.85Q4.814,1.28,9.343,0Z" transform="matrix(0.998, -0.07, 0.07, 0.998, 0, 7.732)" fill="#485057"/>
            <path id="Path_11982" data-name="Path 11982" d="M8.817,10.78C6.893,7.576,4.851,3.769,4.638,0A15.433,15.433,0,0,0,2.713.318C1.814.533.907.747,0,.97.354,4.678.715,8.394,1.128,12.086A332.76,332.76,0,0,1,3.546,45.892,49.686,49.686,0,0,0,6.061,8.222c.906.872,1.828,1.719,2.757,2.558Z" transform="matrix(0.998, -0.07, 0.07, 0.998, 25.873, 0.615)" fill="#485057"/>
          </g>
          <g id="Group_16936" data-name="Group 16936" transform="translate(158.717 192.487)">
            <path id="Path_11983" data-name="Path 11983" d="M0,8.187l32.455,64.2s16.387,8.8,29.949-4.61C72.18,58.107,64.8,45.99,64.8,45.99L23.139,0,0,8.187Z" transform="translate(6.261 68.995)" fill="#f5caa5"/>
            <path id="Path_11984" data-name="Path 11984" d="M44.023,23.64C41.972,23.822,39.17,34.7,39.17,34.7l1.236-7.122c.709-4.1,2.155-10.336,2.3-14.5.284-8.1-3.436-8.069-3.436-8.069s1.462-6.48-5.018-4.706C33.063.632,31.8,3.1,31.385,4.181q-1.284,3.36-2.557,6.713-2.381,6.337-4.684,12.7.919-4.8,1.844-9.588c.339-1.786,4.184-14.447-2.444-12.059-2.1.76-2.449,2.534-3.011,4.292-1.31,4.111-2.29,8.312-3.244,12.52s-1.87,8.408-3.05,12.547c-.533,1.866-1.116,3.719-1.78,5.546-.142.38-1.48,4.037-2.427,6.022C9.9,41.513,10,38.893,9.8,37.543c-.351-2.392-.419-7.41-2.308-9.2-3.651-3.458-5.069,4.287-5.159,6.233-.2,4.337-.391,8.674-.687,13.007C1.362,51.765.767,55.846.2,59.991a23.123,23.123,0,0,0,.55,8.925c.652,2.484,1.8,6.033,3.884,7.706.959.771,2.087,1.287,3.04,2.07,1.888,1.548,4.349,1.446,6.645,1.559,6.89.346,12.894,6.186,19.932,3.97a.64.64,0,0,0,.39-.329.609.609,0,0,0,.3-.38c4.6-15.876,5.937-30.528,10.49-46.421.652-2.28,4.088-13.926-1.407-13.45Z" fill="#f5caa5"/>
            <path id="Path_11985" data-name="Path 11985" d="M1.23.328C.821-.42-.318.244.085.992,4.23,8.573,9.838,17.956,7.819,26.949c-.182.828,1.088,1.18,1.275.346C11.2,17.911,5.556,8.25,1.23.328Z" transform="translate(10.332 45.81)" fill="#db8173"/>
            <path id="Path_11986" data-name="Path 11986" d="M2.911.468.024,11.383a.662.662,0,0,0,1.276.351L4.182.82A.659.659,0,0,0,2.911.468Z" transform="translate(35.222 36.599)" fill="#db8173"/>
            <path id="Path_11987" data-name="Path 11987" d="M11.008.469Q6.253,17.981.042,35.044c-.289.8.987,1.146,1.275.352Q7.518,18.344,12.284.819A.662.662,0,0,0,11.008.469Z" transform="translate(25.452 7.262)" fill="#db8173"/>
            <path id="Path_11988" data-name="Path 11988" d="M11.712.452C10.539,3.672,4.087,6.184,1,4.54c-.748-.4-1.417.743-.669,1.139,2.472,1.316,5.183.442,7.66-.47,2.28-.839,4.146-2.058,5-4.412C13.278,0,12-.343,11.712.452Z" transform="translate(23.16 75.892)" fill="#db8173"/>
          </g>
        </g>
      </g>
    </g>
    <g id="Group_16949" data-name="Group 16949" transform="translate(-3 -4.5)">
      <path id="Path_1083" data-name="Path 1083" d="M0,0H24V24H0Z" fill="none"/>
      <line id="Line_122" data-name="Line 122" x2="7" transform="translate(4 6)" fill="none" stroke="#FFFFFF" stroke-linecap="round" stroke-linejoin="round" stroke-width="1.5"/>
      <line id="Line_123" data-name="Line 123" x2="7" transform="translate(4 12)" fill="none" stroke="#FFFFFF" stroke-linecap="round" stroke-linejoin="round" stroke-width="1.5"/>
      <line id="Line_124" data-name="Line 124" x2="9" transform="translate(4 18)" fill="none" stroke="#FFFFFF" stroke-linecap="round" stroke-linejoin="round" stroke-width="1.5"/>
      <path id="Path_1084" data-name="Path 1084" d="M15,6l3,3,3-3" transform="translate(0 9)" fill="none" stroke="#FFFFFF" stroke-linecap="round" stroke-linejoin="round" stroke-width="1.5"/>
      <line id="Line_125" data-name="Line 125" y1="12" transform="translate(18 6)" fill="none" stroke="#FFFFFF" stroke-linecap="round" stroke-linejoin="round" stroke-width="1.5"/>
    </g>
  </g>
</svg>
