<svg xmlns="http://www.w3.org/2000/svg" xmlns:xlink="http://www.w3.org/1999/xlink" width="352" height="347" viewBox="0 0 352 347">
  <defs>
    <clipPath id="clip-image_empty">
      <rect width="352" height="347"/>
    </clipPath>
  </defs>
  <g id="image_empty" clip-path="url(#clip-image_empty)">
    <g id="Group_16922" data-name="Group 16922" transform="translate(-1431 -3337.25)">
      <g id="Rectangle_6315" data-name="Rectangle 6315" transform="translate(1431 3337.25)" fill="#fff" stroke="#d9d9d9" stroke-width="1">
        <rect width="352" height="347" rx="2" stroke="none"/>
        <rect x="0.5" y="0.5" width="351" height="346" rx="1.5" fill="none"/>
      </g>
      <g id="Group_16156" data-name="Group 16156" transform="translate(1520.01 3430.865)">
        <g id="Group_16151" data-name="Group 16151" transform="translate(0 50.25)">
          <path id="Path_1300" data-name="Path 1300" d="M54.139,171.033c12.754-.139,22.968-3.26,31.1-8.982,17.374-12.213,25.249-35.46,28.178-60.452a232.386,232.386,0,0,0,1.43-27.3,372.238,372.238,0,0,0-5.268-58.6c-1.146-6.868-2.081-11.25-2.253-12.037l-.023-.123c-30.444-7.3-61.37-1.2-66.248-.156-.438.1-.668.156-.668.156-9.149,33.322-33.744,101-33.744,101s-32.831,67.362,47.5,66.493Z" transform="translate(16.77 2.004) rotate(-1)" fill="#fff7f4"/>
          <path id="Path_1301" data-name="Path 1301" d="M.419,16.228A.432.432,0,0,0,.8,15.987C6.264,4.429,25.886.869,26.086.837A.423.423,0,0,0,26.43.35a.426.426,0,0,0-.486-.344C25.112.145,5.694,3.672.038,15.622a.425.425,0,0,0,.2.561l.177.045Z" transform="translate(78.822 107.323) rotate(-1)" fill="#d0b5ad"/>
          <path id="Path_1302" data-name="Path 1302" d="M.053,20.024C.884,29.632,7.7,49.35,13.417,58.6A372.238,372.238,0,0,0,8.15,0c-4,5.21-8.7,12.971-8.1,20.024Z" transform="translate(118.457 15.927) rotate(-1)" fill="#72543a"/>
          <path id="Path_1303" data-name="Path 1303" d="M.557,60.452C17.931,48.239,25.806,24.992,28.735,0,18.209,2.9,4.9,8,3.219,15.457a161.742,161.742,0,0,0-2.662,45Z" transform="translate(103.211 102.11) rotate(-1)" fill="#615859"/>
          <path id="Path_1309" data-name="Path 1309" d="M32.717,49.613S25.988.285,11.194.006C-6.4-.326,1.216,13.378,4.383,16.287c1.31,1.2,11.267,29.918,12.258,39.536s14.826,8.24,16.076-6.209Z" transform="translate(0 106.6) rotate(-1)" fill="#fff7f4"/>
          <path id="Path_1310" data-name="Path 1310" d="M8.688,29.923C7.036,21.535,4.162,9.474,0,.877.176.59.348.3.512,0,4.924,8.785,7.893,21.244,9.56,29.837c-.295.016-.585.045-.872.086Z" transform="translate(22.168 116.653) rotate(-1)" fill="#d0b5ad"/>
          <path id="Path_1320" data-name="Path 1320" d="M17.554,55.74S28.845,7.768,15.347,1.714C.008-5.162,1.363,10.614,3.129,14.452,3.866,16.069,2.851,46.419.315,55.74s10.861,13.037,17.238,0Z" transform="translate(55.973 105.218) rotate(-1)" fill="#fff7f4"/>
          <path id="Path_1321" data-name="Path 1321" d="M19.3,45.358C21.731,30.937,24.357,6.6,15.232,2.5,9.743.051,5.86.313,3.939,3.3,1.8,6.637,2.568,12.485,3.576,14.689,4.387,16.471,3.285,46.013.942,55.67c-.315.1-.635.188-.942.291,2.519-9.412,3.445-39.408,2.806-40.92C1.7,12.625.894,6.482,3.236,2.848,5.39-.51,9.634-.924,15.58,1.742c9.625,4.317,7.139,28.6,4.666,43.279-.316.1-.632.213-.943.336Z" transform="translate(55.965 105.231) rotate(-1)" fill="#d0b5ad"/>
          <path id="Path_1322" data-name="Path 1322" d="M.908,6.608l.147-.024a.421.421,0,0,0,.25-.545C.7,4.4.692,3.122,1.278,2.217A3.673,3.673,0,0,1,3.877.845.426.426,0,0,0,4.267.4.412.412,0,0,0,3.828,0,4.44,4.44,0,0,0,.569,1.754C-.173,2.893-.189,4.429.52,6.329a.411.411,0,0,0,.389.278Z" transform="translate(67.499 106.959) rotate(-1)" fill="#d0b5ad"/>
          <path id="Path_1353" data-name="Path 1353" d="M.908,6.608l.147-.024a.421.421,0,0,0,.25-.545C.7,4.4.692,3.122,1.278,2.217A3.673,3.673,0,0,1,3.877.845.426.426,0,0,0,4.267.4.412.412,0,0,0,3.828,0,4.44,4.44,0,0,0,.569,1.754C-.173,2.893-.189,4.429.52,6.329a.411.411,0,0,0,.389.278Z" transform="translate(11.734 107.933) rotate(-1)" fill="#d0b5ad"/>
          <path id="Path_1323" data-name="Path 1323" d="M.639,6.887l.106-.016a.412.412,0,0,0,.3-.512A4.438,4.438,0,0,1,3.663.813.416.416,0,0,0,3.916.276a.414.414,0,0,0-.536-.25A5.306,5.306,0,0,0,.234,6.568a.413.413,0,0,0,.405.319Z" transform="translate(62.61 105.287) rotate(-1)" fill="#d0b5ad"/>
          <path id="Path_1354" data-name="Path 1354" d="M.639,6.887l.106-.016a.412.412,0,0,0,.3-.512A4.438,4.438,0,0,1,3.663.813.416.416,0,0,0,3.916.276a.414.414,0,0,0-.536-.25A5.306,5.306,0,0,0,.234,6.568a.413.413,0,0,0,.405.319Z" transform="translate(6.845 106.26) rotate(-1)" fill="#d0b5ad"/>
          <path id="Path_1324" data-name="Path 1324" d="M.066,2.294c-.381,1.659.914,3.379,2.9,3.854a3.439,3.439,0,0,0,4.3-2.179c.39-1.659-.9-3.383-2.9-3.854a3.441,3.441,0,0,0-4.3,2.179Z" transform="translate(61.519 113.492) rotate(-1)" fill="#e3bab9"/>
          <path id="Path_1358" data-name="Path 1358" d="M.066,2.294c-.381,1.659.914,3.379,2.9,3.854a3.439,3.439,0,0,0,4.3-2.179c.39-1.659-.9-3.383-2.9-3.854a3.441,3.441,0,0,0-4.3,2.179Z" transform="translate(5.754 114.465) rotate(-1)" fill="#e3bab9"/>
          <path id="Path_1325" data-name="Path 1325" d="M.039,1.191A1.591,1.591,0,0,0,1.267,3.078,1.588,1.588,0,0,0,3.193,1.931,1.589,1.589,0,0,0,1.971.044,1.6,1.6,0,0,0,.039,1.191Z" transform="translate(63.724 109.174) rotate(-1)" fill="#e3bab9"/>
          <path id="Path_1356" data-name="Path 1356" d="M.039,1.191A1.591,1.591,0,0,0,1.267,3.078,1.588,1.588,0,0,0,3.193,1.931,1.589,1.589,0,0,0,1.971.044,1.6,1.6,0,0,0,.039,1.191Z" transform="translate(7.959 110.148) rotate(-1)" fill="#e3bab9"/>
          <path id="Path_1326" data-name="Path 1326" d="M.04,1.2A1.585,1.585,0,0,0,1.264,3.075,1.587,1.587,0,0,0,3.2,1.929,1.6,1.6,0,0,0,1.973.045,1.593,1.593,0,0,0,.04,1.2Z" transform="translate(58.677 110.101) rotate(-1)" fill="#e3bab9"/>
          <path id="Path_1357" data-name="Path 1357" d="M.04,1.2A1.585,1.585,0,0,0,1.264,3.075,1.587,1.587,0,0,0,3.2,1.929,1.6,1.6,0,0,0,1.973.045,1.593,1.593,0,0,0,.04,1.2Z" transform="translate(2.911 111.075) rotate(-1)" fill="#e3bab9"/>
          <path id="Path_1327" data-name="Path 1327" d="M.046,1.211A1.526,1.526,0,0,0,1.16,3.074,1.533,1.533,0,0,0,2.979,1.9,1.533,1.533,0,0,0,1.864.04,1.525,1.525,0,0,0,.046,1.211Z" transform="translate(69.192 110.636) rotate(-1)" fill="#e3bab9"/>
          <path id="Path_1355" data-name="Path 1355" d="M.046,1.211A1.526,1.526,0,0,0,1.16,3.074,1.533,1.533,0,0,0,2.979,1.9,1.533,1.533,0,0,0,1.864.04,1.525,1.525,0,0,0,.046,1.211Z" transform="translate(13.426 111.609) rotate(-1)" fill="#e3bab9"/>
        </g>
        <g id="Group_16154" data-name="Group 16154" transform="translate(53.129)">
          <path id="Path_1304" data-name="Path 1304" d="M0,3.38C1.536,8.827,7.581,20.311,31.241,21.426,55.9,22.6,63.991,9.241,66.271,3.658l-.023-.123C35.8-3.763,4.878,2.332,0,3.38Z" transform="translate(4.689 51.537) rotate(-1)" fill="#e3d0cb"/>
          <path id="Path_1341" data-name="Path 1341" d="M.223,38.753c1.114,6.062,12.389,13.864,35.415,13.864s39-5.7,39-15.85a55.381,55.381,0,0,0-.536-5.857A106.052,106.052,0,0,0,71.05,16.465C67.59,4.21,52.6,0,37.744,0S8.643,3.71,5.052,15.474C3.11,21.838,1.583,26.626.727,30.493a20.911,20.911,0,0,0-.5,8.261Z" transform="translate(0 16.073) rotate(-1)" fill="#fff7f4"/>
          <path id="Path_1343" data-name="Path 1343" d="M20.7,26.773a32.719,32.719,0,0,0,0-7.429C20.2,15.883,18.347-.836,14.383.033S.769,12.037.02,17.492,19.711,30.119,20.7,26.773Z" transform="translate(46.616 0.365) rotate(-1)" fill="#d6a343"/>
          <path id="Path_1344" data-name="Path 1344" d="M6.424,17.957s7.762,3.063,8.04-2.592S11.806.784,10.439.034-1.792,10.659.256,13.284a14.694,14.694,0,0,0,6.168,4.673Z" transform="translate(50.688 2.266) rotate(-1)" fill="#ead2d1"/>
          <path id="Path_1345" data-name="Path 1345" d="M.22,26.773a32.719,32.719,0,0,1,0-7.429C.715,15.883,2.579-.836,6.535.033s13.622,12,14.359,17.459S1.211,30.119.22,26.773Z" transform="translate(7.245 1.052) rotate(-1)" fill="#72543a"/>
          <path id="Path_1346" data-name="Path 1346" d="M8.056,17.957S.295,21.021.02,15.365,2.669.784,4.042.034s12.226,10.625,10.186,13.25a14.694,14.694,0,0,1-6.172,4.673Z" transform="translate(9.682 2.982) rotate(-1)" fill="#ead2d1"/>
          <path id="Path_1348" data-name="Path 1348" d="M.7,6.684c.311,0,.93-.238.93-.545V.483C1.627.172,1.105,0,.795,0S0,.172,0,.483V6.147c0,.308.39.537.7.537Z" transform="translate(37.887 42.941) rotate(1)" fill="#232631"/>
          <path id="Path_1349" data-name="Path 1349" d="M0,1.387A2.527,2.527,0,0,0,.521,2.735C1.356,3.956,3.014,5.1,3.707,5.1A6,6,0,0,0,7.282,2.637,1.967,1.967,0,0,0,7.6,1.51C7.486-.23,3.707.011,3.707.011S0-.165,0,1.387Z" transform="translate(34.796 41.195) rotate(-1)" fill="#e07275"/>
          <path id="Path_1350" data-name="Path 1350" d="M0,1.219C.836,2.44,2.493,3.586,3.187,3.586A6,6,0,0,0,6.762,1.121c-.14-.569-.431-1.3-.9-1.082-.749.353-.331,3.3-2.584,3.228C1.421,3.21,1.479,0,.876,0,.205,0,.016.592,0,1.219Z" transform="translate(35.342 42.702) rotate(-1)" fill="#232631"/>
          <path id="Path_1351" data-name="Path 1351" d="M1,3.5a1.114,1.114,0,0,0,.613-.181A9.615,9.615,0,0,1,9.964,2.161a1.069,1.069,0,0,0,1.311-.414A.788.788,0,0,0,10.8.633,11.853,11.853,0,0,0,.383,2,.753.753,0,0,0,.21,3.176,1.049,1.049,0,0,0,1,3.5Z" transform="translate(46.683 35.229) rotate(-1)" fill="#232631"/>
          <path id="Path_1352" data-name="Path 1352" d="M10.271,3.5a1.072,1.072,0,0,1-.605-.181A9.427,9.427,0,0,0,1.4,2.161,1.062,1.062,0,0,1,.091,1.747.8.8,0,0,1,.563.633,11.622,11.622,0,0,1,10.869,2a.754.754,0,0,1,.172,1.175,1.012,1.012,0,0,1-.77.328Z" transform="translate(18.938 35.713) rotate(-1)" fill="#232631"/>
        </g>
        <g id="Group_16155" data-name="Group 16155" transform="translate(85.287 15.997)">
          <g id="Rectangle_6317" data-name="Rectangle 6317" transform="translate(0 1)" fill="#fff" stroke="#d6a343" stroke-width="1">
            <rect width="2" height="9" rx="1" stroke="none"/>
            <rect x="0.5" y="0.5" width="1" height="8" rx="0.5" fill="none"/>
          </g>
          <g id="Rectangle_6318" data-name="Rectangle 6318" transform="translate(10 1)" fill="#fff" stroke="#d6a343" stroke-width="1">
            <rect width="2" height="7" rx="1" stroke="none"/>
            <rect x="0.5" y="0.5" width="1" height="6" rx="0.5" fill="none"/>
          </g>
          <g id="Rectangle_6320" data-name="Rectangle 6320" transform="translate(10 9)" fill="#fff" stroke="#d6a343" stroke-width="1">
            <rect width="2" height="3" rx="1" stroke="none"/>
            <rect x="0.5" y="0.5" width="1" height="2" rx="0.5" fill="none"/>
          </g>
          <g id="Rectangle_6319" data-name="Rectangle 6319" transform="translate(5)" fill="#fff" stroke="#d6a343" stroke-width="1">
            <rect width="2" height="14" rx="1" stroke="none"/>
            <rect x="0.5" y="0.5" width="1" height="13" rx="0.5" fill="none"/>
          </g>
        </g>
        <path id="Path_10857" data-name="Path 10857" d="M1734.7,3634.247a3.17,3.17,0,0,0,1.827.97,2.149,2.149,0,0,0,1.966-.97,3.369,3.369,0,0,0,1.98.97,4.2,4.2,0,0,0,2.088-.97" transform="translate(-1646.713 -3584.991)" fill="none" stroke="#232631" stroke-linecap="round" stroke-width="1.5"/>
      </g>
      <path id="Rectangle_6316" data-name="Rectangle 6316" d="M0,0H352a0,0,0,0,1,0,0V147a2,2,0,0,1-2,2H2a2,2,0,0,1-2-2V0A0,0,0,0,1,0,0Z" transform="translate(1431 3535.25)" fill="#3b567c" opacity="0.999"/>
      <rect id="Rectangle_6322" data-name="Rectangle 6322" width="27" height="14" rx="2" transform="translate(1511.476 3598.5)" fill="#f5f5f7"/>
      <rect id="Rectangle_6336" data-name="Rectangle 6336" width="27" height="14" rx="2" transform="translate(1577.508 3598.5)" fill="#aeb8c2"/>
      <rect id="Rectangle_6338" data-name="Rectangle 6338" width="27" height="14" rx="2" transform="translate(1643.54 3598.5)" fill="#b8cde3"/>
      <rect id="Rectangle_6325" data-name="Rectangle 6325" width="27" height="14" rx="2" transform="translate(1454 3528.5)" fill="#b8cde3"/>
      <rect id="Rectangle_6323" data-name="Rectangle 6323" width="27" height="14" rx="2" transform="translate(1544.492 3598.5)" fill="#aeb8c2"/>
      <rect id="Rectangle_6335" data-name="Rectangle 6335" width="27" height="14" rx="2" transform="translate(1610.524 3598.5)" fill="#b8cde3"/>
      <rect id="Rectangle_6337" data-name="Rectangle 6337" width="27" height="14" rx="2" transform="translate(1676.556 3598.5)" fill="#f5f5f7"/>
      <rect id="Rectangle_6324" data-name="Rectangle 6324" width="27" height="14" rx="2" transform="translate(1487.746 3528.5)" fill="#b8cde3"/>
      <rect id="Rectangle_6327" data-name="Rectangle 6327" width="27" height="14" rx="2" transform="translate(1561 3617.25)" fill="#b8cde3"/>
      <rect id="Rectangle_6340" data-name="Rectangle 6340" width="27" height="14" rx="2" transform="translate(1594 3617.25)" fill="#f5f5f7"/>
      <rect id="Rectangle_6341" data-name="Rectangle 6341" width="27" height="14" rx="2" transform="translate(1627 3617.25)" fill="#b8cde3"/>
      <rect id="Rectangle_6330" data-name="Rectangle 6330" width="27" height="14" rx="2" transform="translate(1744 3659.5)" fill="#b8cde3"/>
      <text id="發生好事_再告訴你" data-name="發生好事 再告訴你" transform="translate(1607 3578.5)" fill="#fff" font-size="22" font-family="PingFangTC-Semibold, PingFang TC" font-weight="600"><tspan x="-91.663" y="0">發生好事 再告訴你</tspan></text>
    </g>
  </g>
</svg>
