<svg xmlns="http://www.w3.org/2000/svg" xmlns:xlink="http://www.w3.org/1999/xlink" width="209" height="197" viewBox="0 0 209 197">
  <defs>
    <clipPath id="clip-path">
      <rect id="Rectangle_6588" data-name="Rectangle 6588" width="215" height="197" transform="translate(1151 1453)" fill="none" stroke="#707070" stroke-width="1"/>
    </clipPath>
    <filter id="Path_1328" x="98.505" y="65.478" width="56.985" height="53.328" filterUnits="userSpaceOnUse">
      <feOffset dy="2" input="SourceAlpha"/>
      <feGaussianBlur stdDeviation="0.5" result="blur"/>
      <feFlood flood-opacity="0.082"/>
      <feComposite operator="in" in2="blur"/>
      <feComposite in="SourceGraphic"/>
    </filter>
    <filter id="Path_1332" x="75.896" y="45.414" width="48.426" height="50.539" filterUnits="userSpaceOnUse">
      <feOffset dy="2" input="SourceAlpha"/>
      <feGaussianBlur stdDeviation="0.5" result="blur-2"/>
      <feFlood flood-opacity="0.09"/>
      <feComposite operator="in" in2="blur-2"/>
      <feComposite in="SourceGraphic"/>
    </filter>
    <clipPath id="clip-image_bottomCat">
      <rect width="209" height="197"/>
    </clipPath>
  </defs>
  <g id="image_bottomCat" clip-path="url(#clip-image_bottomCat)">
    <g id="Mask_Group_31" data-name="Mask Group 31" transform="translate(-1151 -1453)" clip-path="url(#clip-path)">
      <g id="Group_2519" data-name="Group 2519" transform="translate(61.609 -1637.576)">
        <g id="Group_2467" data-name="Group 2467" transform="matrix(0.966, 0.259, -0.259, 0.966, 1219.025, 3110.988)">
          <path id="Path_1209" data-name="Path 1209" d="M.722,151.9S-7.916,47.166,34.571,0c0,0-2.191,75.6-33.849,151.9Z" transform="translate(34.902 0)" fill="#4caaf5"/>
          <path id="Path_1210" data-name="Path 1210" d="M0,117.627S12.182,30.652,55.48,0C55.48,0,39.816,61.239,0,117.627Z" transform="translate(35.754 37.104)" fill="#2c4666"/>
          <path id="Path_1211" data-name="Path 1211" d="M0,77.346S23.02,14.215,65.861,0C65.861,0,43.34,42.992,0,77.346Z" transform="translate(34.749 80.492)" fill="#2c4666"/>
          <path id="Path_1359" data-name="Path 1359" d="M0,77.346S23.02,14.215,65.861,0C65.861,0,43.34,42.992,0,77.346Z" transform="translate(0 89.803)" fill="#2296f3"/>
        </g>
        <g id="Group_2471" data-name="Group 2471" transform="translate(1089.391 3099.299)">
          <path id="Path_1209-2" data-name="Path 1209" d="M2185.176,1210.759s8.638-104.736-33.849-151.9c0,0,2.191,75.6,33.849,151.9Z" transform="translate(-2120.19 -1058.857)" fill="#ed7d7d"/>
          <path id="Path_1210-2" data-name="Path 1210" d="M2207.272,1196.762s-12.183-86.975-55.48-117.627c0,0,15.665,61.239,55.48,117.627Z" transform="translate(-2142.416 -1042.031)" fill="#2c4666"/>
          <path id="Path_1211-2" data-name="Path 1211" d="M2217.1,1180.193s-23.021-63.131-65.861-77.346c0,0,22.521,42.992,65.861,77.346Z" transform="translate(-2151.243 -1022.355)" fill="#ed7d7d"/>
        </g>
        <g id="Group_2472" data-name="Group 2472" transform="matrix(0.998, -0.07, 0.07, 0.998, 1147.971, 3135.919)">
          <path id="Path_1209-3" data-name="Path 1209" d="M.472,99.225S-5.171,30.809,22.582,0c0,0-1.431,49.386-22.111,99.225Z" transform="translate(0.1 0)" fill="#2f6a9a"/>
          <path id="Path_1210-3" data-name="Path 1210" d="M0,76.835S7.958,20.022,36.24,0C36.24,0,26.008,40,0,76.835Z" transform="translate(0.656 24.237)" fill="#2f6a9a"/>
          <path id="Path_1211-3" data-name="Path 1211" d="M0,50.524S15.037,9.286,43.021,0A177.7,177.7,0,0,1,0,50.524Z" transform="translate(0 52.578)" fill="#2f6a9a"/>
        </g>
        <g id="Group_2473" data-name="Group 2473" transform="translate(1253.471 3216.501) rotate(52)">
          <path id="Path_1209-4" data-name="Path 1209" d="M.42,88.349S-4.6,27.433,20.107,0c0,0-1.274,43.973-19.687,88.349Z" transform="translate(0.089 0)" fill="#7cacd3"/>
          <path id="Path_1210-4" data-name="Path 1210" d="M0,68.414S7.085,17.828,32.269,0c0,0-9.111,35.618-32.269,68.414Z" transform="translate(0.584 21.58)" fill="#7cacd3"/>
          <path id="Path_1211-4" data-name="Path 1211" d="M0,64.014S19.052,11.765,54.508,0C54.508,0,35.87,35.582,0,64.014Z" transform="translate(0 27.787)" fill="#7cacd3"/>
        </g>
        <g id="Group_2470" data-name="Group 2470" transform="matrix(0.927, 0.375, -0.375, 0.927, 1173.523, 3070.75)">
          <g id="Group_2469" data-name="Group 2469" transform="translate(0 0)">
            <path id="Path_1300" data-name="Path 1300" d="M46.373,146.5c10.925-.119,19.673-2.793,26.638-7.693,14.882-10.461,21.627-30.373,24.136-51.781a199.073,199.073,0,0,0,1.225-23.386,318.855,318.855,0,0,0-4.512-50.2c-.982-5.883-1.783-9.637-1.93-10.31l-.02-.1C65.832-3.223,39.343,2,35.165,2.9c-.376.084-.572.133-.572.133-7.837,28.542-28.9,86.515-28.9,86.515s-28.122,57.7,40.685,56.955Z" transform="translate(15.926 43.198)" fill="#fff7f4"/>
            <path id="Path_1301" data-name="Path 1301" d="M.359,13.9a.369.369,0,0,0,.329-.207C5.365,3.794,22.173.745,22.344.717A.362.362,0,0,0,22.639.3.365.365,0,0,0,22.222,0C21.509.124,4.877,3.145.033,13.381a.364.364,0,0,0,.175.481l.151.039Z" transform="translate(67.494 134.324)" fill="#d0b5ad"/>
            <path id="Path_1302" data-name="Path 1302" d="M.046,17.152C.757,25.382,6.6,42.271,11.493,50.2A318.86,318.86,0,0,0,6.981,0C3.557,4.463-.474,11.111.046,17.152Z" transform="translate(102.805 56.643)" fill="#615859"/>
            <path id="Path_1303" data-name="Path 1303" d="M.477,51.781C15.359,41.319,22.1,21.407,24.613,0,15.6,2.484,4.2,6.855,2.758,13.24A138.538,138.538,0,0,0,.477,51.781Z" transform="translate(88.46 130.224)" fill="#615859"/>
            <path id="Path_1304" data-name="Path 1304" d="M0,2.9C1.316,7.561,6.494,17.4,26.76,18.353c21.123,1,28.052-10.437,30.005-15.219l-.02-.1C30.668-3.223,4.178,2,0,2.9Z" transform="translate(51.091 43.198)" fill="#e3d0cb"/>
            <path id="Path_1309" data-name="Path 1309" d="M28.024,42.5S22.26.244,9.588.005C-5.483-.279,1.042,11.459,3.755,13.95c1.122,1.031,9.65,25.627,10.5,33.864s12.7,7.058,13.77-5.319Z" transform="translate(0 132.526)" fill="#fff7f4"/>
            <path id="Path_1310" data-name="Path 1310" d="M7.441,25.631C6.027,18.446,3.565,8.115,0,.751.151.505.3.256.438,0,4.217,7.525,6.76,18.2,8.188,25.557c-.252.014-.5.038-.747.074Z" transform="translate(18.835 141.467)" fill="#d0b5ad"/>
            <path id="Path_1320" data-name="Path 1320" d="M15.036,47.745S24.707,6.653,13.145,1.469C.007-4.422,1.168,9.092,2.68,12.379,3.312,13.764,2.442,39.76.27,47.745s9.3,11.167,14.766,0Z" transform="translate(47.958 132.179)" fill="#fff7f4"/>
            <path id="Path_1321" data-name="Path 1321" d="M16.534,38.851c2.08-12.352,4.33-33.194-3.486-36.706C8.346.044,5.02.268,3.375,2.829,1.544,5.685,2.2,10.694,3.063,12.582c.694,1.526-.249,26.831-2.256,35.1-.27.084-.544.161-.807.249,2.157-8.062,2.951-33.755,2.4-35.05C1.456,10.814.766,5.552,2.772,2.44,4.617-.437,8.252-.792,13.345,1.492c8.244,3.7,6.115,24.5,4,37.071-.271.084-.541.182-.808.288Z" transform="translate(47.95 132.19)" fill="#d0b5ad"/>
            <path id="Path_1322" data-name="Path 1322" d="M.778,5.66.9,5.639a.361.361,0,0,0,.214-.467A3.638,3.638,0,0,1,1.094,1.9,3.146,3.146,0,0,1,3.321.724.365.365,0,0,0,3.655.341.353.353,0,0,0,3.279,0,3.8,3.8,0,0,0,.487,1.5,4.278,4.278,0,0,0,.445,5.421a.352.352,0,0,0,.333.238Z" transform="translate(57.803 133.843)" fill="#d0b5ad"/>
            <path id="Path_1353" data-name="Path 1353" d="M.778,5.66.9,5.639a.361.361,0,0,0,.214-.467A3.638,3.638,0,0,1,1.094,1.9,3.146,3.146,0,0,1,3.321.724.365.365,0,0,0,3.655.341.353.353,0,0,0,3.279,0,3.8,3.8,0,0,0,.487,1.5,4.278,4.278,0,0,0,.445,5.421a.352.352,0,0,0,.333.238Z" transform="translate(10.029 133.843)" fill="#d0b5ad"/>
            <path id="Path_1323" data-name="Path 1323" d="M.548,5.9l.091-.014a.353.353,0,0,0,.256-.439A3.8,3.8,0,0,1,3.137.7a.357.357,0,0,0,.217-.46A.355.355,0,0,0,2.895.023,4.545,4.545,0,0,0,.2,5.626.354.354,0,0,0,.548,5.9Z" transform="translate(53.64 132.337)" fill="#d0b5ad"/>
            <path id="Path_1354" data-name="Path 1354" d="M.548,5.9l.091-.014a.353.353,0,0,0,.256-.439A3.8,3.8,0,0,1,3.137.7a.357.357,0,0,0,.217-.46A.355.355,0,0,0,2.895.023,4.545,4.545,0,0,0,.2,5.626.354.354,0,0,0,.548,5.9Z" transform="translate(5.867 132.337)" fill="#d0b5ad"/>
            <path id="Path_1324" data-name="Path 1324" d="M.057,1.965a2.96,2.96,0,0,0,2.48,3.3A2.946,2.946,0,0,0,6.221,3.4,2.946,2.946,0,0,0,3.741.1,2.947,2.947,0,0,0,.057,1.965Z" transform="translate(52.584 139.348)" fill="#e3bab9"/>
            <path id="Path_1358" data-name="Path 1358" d="M.057,1.965a2.96,2.96,0,0,0,2.48,3.3A2.946,2.946,0,0,0,6.221,3.4,2.946,2.946,0,0,0,3.741.1,2.947,2.947,0,0,0,.057,1.965Z" transform="translate(4.81 139.348)" fill="#e3bab9"/>
            <path id="Path_1325" data-name="Path 1325" d="M.033,1.02A1.362,1.362,0,0,0,1.086,2.637a1.36,1.36,0,0,0,1.649-.982A1.361,1.361,0,0,0,1.689.037,1.367,1.367,0,0,0,.033,1.02Z" transform="translate(54.537 135.683)" fill="#e3bab9"/>
            <path id="Path_1356" data-name="Path 1356" d="M.033,1.02A1.362,1.362,0,0,0,1.086,2.637a1.36,1.36,0,0,0,1.649-.982A1.361,1.361,0,0,0,1.689.037,1.367,1.367,0,0,0,.033,1.02Z" transform="translate(6.763 135.683)" fill="#e3bab9"/>
            <path id="Path_1326" data-name="Path 1326" d="M.034,1.027A1.357,1.357,0,0,0,1.083,2.634a1.359,1.359,0,0,0,1.66-.982A1.366,1.366,0,0,0,1.69.038a1.365,1.365,0,0,0-1.656.989Z" transform="translate(50.2 136.402)" fill="#e3bab9"/>
            <path id="Path_1357" data-name="Path 1357" d="M.034,1.027A1.357,1.357,0,0,0,1.083,2.634a1.359,1.359,0,0,0,1.66-.982A1.366,1.366,0,0,0,1.69.038a1.365,1.365,0,0,0-1.656.989Z" transform="translate(2.426 136.402)" fill="#e3bab9"/>
            <path id="Path_1327" data-name="Path 1327" d="M.039,1.037a1.307,1.307,0,0,0,.955,1.6,1.313,1.313,0,0,0,1.558-1A1.313,1.313,0,0,0,1.6.034a1.306,1.306,0,0,0-1.558,1Z" transform="translate(59.197 137.017)" fill="#e3bab9"/>
            <path id="Path_1355" data-name="Path 1355" d="M.039,1.037a1.307,1.307,0,0,0,.955,1.6,1.313,1.313,0,0,0,1.558-1A1.313,1.313,0,0,0,1.6.034a1.306,1.306,0,0,0-1.558,1Z" transform="translate(11.424 137.017)" fill="#e3bab9"/>
            <g transform="matrix(0.93, -0.37, 0.37, 0.93, -70.58, 49.9)" filter="url(#Path_1328)">
              <path id="Path_1328-2" data-name="Path 1328" d="M33.479,0S17.264-.185,11.264,8.217-3.428,27.459,1.407,34.2,15.482,27.68,15.482,27.68s6.315-8.686,7.445-9.507,20.709,0,20.709,0S40.018,3.614,33.479,0Z" transform="matrix(0.93, 0.37, -0.37, 0.93, 113.53, 65.48)" fill="#fff7f4"/>
            </g>
            <path id="Path_1329" data-name="Path 1329" d="M.667,12.078c-.221-.112-.445-.214-.667-.312C5,5.034,7.672,1.6,23.358,0c.035.238.063.481.112.716C7.789,2.617,5.568,5.648.667,12.078Z" transform="translate(67.701 68.121)" fill="#d0b5ad"/>
            <path id="Path_1330" data-name="Path 1330" d="M1.12,6.266a.362.362,0,0,0,.291-.572c-1.54-2.256.007-5.133.022-5.16A.365.365,0,0,0,1.293.039.377.377,0,0,0,.8.187C.72.32-.971,3.481.818,6.105a.36.36,0,0,0,.3.161Z" transform="translate(63.61 97.523)" fill="#d0b5ad"/>
            <path id="Path_1331" data-name="Path 1331" d="M.666,5.3.789,5.28a.365.365,0,0,0,.217-.467A4.149,4.149,0,0,1,1.715.607.367.367,0,0,0,1.7.1a.368.368,0,0,0-.515.014,4.887,4.887,0,0,0-.856,4.95A.359.359,0,0,0,.666,5.3Z" transform="translate(59.963 95.717)" fill="#d0b5ad"/>
            <g transform="matrix(0.93, -0.37, 0.37, 0.93, -70.58, 49.9)" filter="url(#Path_1332)">
              <path id="Path_1332-2" data-name="Path 1332" d="M22.489,0S17.269.677,11.27,9.08-3.423,28.314,1.4,35.061s14.075-6.518,14.075-6.518,6.315-8.686,7.444-9.515S34.055,9.935,34.055,9.935A44.915,44.915,0,0,0,22.489,0Z" transform="matrix(0.93, 0.37, -0.37, 0.93, 91.25, 45.41)" fill="#fff7f4"/>
            </g>
            <path id="Path_1333" data-name="Path 1333" d="M.916,6.137,1.1,6.088a.368.368,0,0,0,.134-.495C-.239,3.06,1.905.706,2,.6A.361.361,0,0,0,1.975.092a.368.368,0,0,0-.509.021C1.438.142-1.136,2.955.6,5.954a.362.362,0,0,0,.313.183Z" transform="translate(36.11 87.619)" fill="#d0b5ad"/>
            <path id="Path_1334" data-name="Path 1334" d="M.976,6.354a.4.4,0,0,0,.2-.056A.364.364,0,0,0,1.285,5.8C-.143,3.512,1.633.583,1.646.555a.364.364,0,0,0-.112-.5.367.367,0,0,0-.5.119C.949.309-.992,3.519.671,6.186a.378.378,0,0,0,.305.169Z" transform="translate(31.983 86.079)" fill="#d0b5ad"/>
            <path id="Path_1335" data-name="Path 1335" d="M38.644,3.645S27.889,5.5,30.937,25.1c1.989,12.759,17.1,6.367,52.749,41.533,0,0,7.946,6.981,13.25,4.336,0,0-24.091,28.185-62.631,14.211S-13.368,18.309,22.748,1.841c0,0,5.932-5.164,15.9,1.8Z" transform="translate(8.98 178.226)" fill="#615859"/>
            <path id="Path_1336" data-name="Path 1336" d="M34.972,22.58a.349.349,0,0,0,.249-.105.367.367,0,0,0,.007-.509C35.085,21.823,20.644,7.369.489.023A.362.362,0,0,0,.023.24.358.358,0,0,0,.237.7C20.248,7.993,34.568,22.331,34.712,22.468a.342.342,0,0,0,.26.112Z" transform="translate(55.168 226.802)" fill="#43393b"/>
            <path id="Path_1337" data-name="Path 1337" d="M17.625,7.045a.364.364,0,0,0,.132-.7C17.638,6.3,6.2,1.8.469.015A.37.37,0,0,0,.017.25.361.361,0,0,0,.255.7c5.7,1.782,17.127,6.273,17.236,6.315l.134.028Z" transform="translate(58.522 239.629)" fill="#43393b"/>
            <path id="Path_1338" data-name="Path 1338" d="M17.622,7.048a.362.362,0,0,0,.131-.7C17.636,6.3,6.2,1.8.467.014A.368.368,0,0,0,.015.259.36.36,0,0,0,.25.7c5.7,1.789,17.126,6.273,17.239,6.315l.133.028Z" transform="translate(41.182 228.064)" fill="#43393b"/>
            <path id="Path_1339" data-name="Path 1339" d="M11.25,31.814a.358.358,0,0,0,.41-.056.37.37,0,0,0,.015-.516A39.014,39.014,0,0,1,.94.423a.374.374,0,0,0-.3-.417A.364.364,0,0,0,.224.3,39.776,39.776,0,0,0,11.145,31.744l.105.07Z" transform="translate(16.49 201.75)" fill="#43393b"/>
            <path id="Path_1340" data-name="Path 1340" d="M33,12.358a.438.438,0,0,0,.418-.417c0-.2-.169-.481-.362-.481C32.831,11.452,10.518,11.445.632.139A.371.371,0,0,0,.124.075a.705.705,0,0,0-.035.74C10.024,12.171,32.038,12.358,33,12.358Z" transform="translate(19.867 236.057)" fill="#43393b"/>
            <path id="Path_1341" data-name="Path 1341" d="M.191,33.194C1.146,38.387,10.8,45.07,30.526,45.07s33.408-4.88,33.408-13.576a47.408,47.408,0,0,0-.459-5.017A90.81,90.81,0,0,0,60.858,14.1C57.894,3.607,45.053,0,32.33,0S7.4,3.178,4.327,13.254c-1.663,5.452-2.971,9.553-3.7,12.865a17.91,17.91,0,0,0-.432,7.076Z" transform="translate(47.605 12.755)" fill="#fff7f4"/>
            <path id="Path_1342" data-name="Path 1342" d="M0,26.119c9.865,11.822,20.358,4.318,21.68.813a17.868,17.868,0,0,1,5.516-7.42s.48-15.17,4.935-14.8,4.88,15.226,4.88,15.226c4.448,3.711,6.676,9.858,14.738,11.878,5.568,1.389,9.322-2.687,11.1-5.339A90.885,90.885,0,0,0,60.235,14.1C57.271,3.607,44.43,0,31.707,0S6.78,3.178,3.7,13.254C2.041,18.706.733,22.807,0,26.119Z" transform="translate(48.228 12.755)" fill="#615859"/>
            <path id="Path_1343" data-name="Path 1343" d="M17.729,22.932a28.029,28.029,0,0,0,0-6.364C17.3,13.6,15.715-.716,12.32.028S.658,10.31.017,14.983,16.883,25.8,17.729,22.932Z" transform="translate(87.763 0)" fill="#615859"/>
            <path id="Path_1344" data-name="Path 1344" d="M5.5,15.381s6.648,2.624,6.887-2.22S10.112.671,8.941.029-1.535,9.13.219,11.378a12.585,12.585,0,0,0,5.283,4Z" transform="translate(91.222 1.689)" fill="#ead2d1"/>
            <path id="Path_1345" data-name="Path 1345" d="M.188,22.932a28.029,28.029,0,0,1,0-6.364C.613,13.6,2.209-.716,5.6.028S17.266,10.31,17.9,14.983,1.038,25.8.188,22.932Z" transform="translate(54.034 0)" fill="#615859"/>
            <path id="Path_1346" data-name="Path 1346" d="M6.9,15.381S.253,18.005.017,13.161,2.286.671,3.462.029s10.472,9.1,8.724,11.349a12.586,12.586,0,0,1-5.287,4Z" transform="translate(56.093 1.689)" fill="#ead2d1"/>
            <path id="Path_1347" data-name="Path 1347" d="M6.992,2.979A.486.486,0,0,0,7.4,2.751a.477.477,0,0,0-.162-.656L3.733,0,.231,2.095a.476.476,0,1,0,.494.814l3.007-1.8,3.013,1.8a.457.457,0,0,0,.246.07Z" transform="translate(76.549 41.298)" fill="#232631"/>
            <path id="Path_1348" data-name="Path 1348" d="M.6,5.725c.266,0,.8-.2.8-.467V.414C1.394.147.947,0,.681,0S0,.147,0,.414V5.266c0,.264.334.46.6.46Z" transform="translate(80.309 36.562)" fill="#232631"/>
            <path id="Path_1349" data-name="Path 1349" d="M0,1.188A2.163,2.163,0,0,0,.446,2.343,5.051,5.051,0,0,0,3.175,4.37,5.14,5.14,0,0,0,6.238,2.259a1.685,1.685,0,0,0,.274-.965C6.412-.2,3.175.01,3.175.01S0-.141,0,1.188Z" transform="translate(77.03 34.791)" fill="#e07275"/>
            <path id="Path_1350" data-name="Path 1350" d="M0,1.044A5.051,5.051,0,0,0,2.729,3.072,5.142,5.142,0,0,0,5.792.96C5.672.472,5.423-.152,5.02.034c-.642.3-.284,2.828-2.213,2.765C1.217,2.749,1.266,0,.75,0,.176,0,.013.507,0,1.044Z" transform="translate(77.475 36.09)" fill="#232631"/>
            <path id="Path_1351" data-name="Path 1351" d="M.725,3a.724.724,0,0,0,.446-.155,6.083,6.083,0,0,1,6.076-1A.721.721,0,0,0,7.854.542,7.5,7.5,0,0,0,.279,1.714.721.721,0,0,0,.725,3Z" transform="translate(87.3 29.859)" fill="#232631"/>
            <path id="Path_1352" data-name="Path 1352" d="M7.549,3A.71.71,0,0,1,7.1,2.847a6.082,6.082,0,0,0-6.076-1A.723.723,0,0,1,.414.542,7.5,7.5,0,0,1,7.988,1.714a.71.71,0,0,1,.126,1.007A.7.7,0,0,1,7.549,3Z" transform="translate(64.898 29.859)" fill="#232631"/>
          </g>
        </g>
      </g>
    </g>
  </g>
</svg>
