<svg id="圖層_1" data-name="圖層 1" xmlns="http://www.w3.org/2000/svg" viewBox="0 0 26.92 22.85"><defs><style>.cls-1{fill:#fff;}</style></defs><path id="tasks" class="cls-1" d="M11.37,6.08H24.09a.71.71,0,0,0,.7-.71V3.6a.7.7,0,0,0-.7-.7H11.37a.7.7,0,0,0-.71.7V5.37A.72.72,0,0,0,11.37,6.08Zm0,7.06H24.09a.7.7,0,0,0,.7-.71V10.67a.7.7,0,0,0-.7-.71H11.37a.71.71,0,0,0-.71.71v1.76A.71.71,0,0,0,11.37,13.14Zm0,7.07H24.09a.7.7,0,0,0,.7-.71V17.73a.7.7,0,0,0-.7-.7H11.37a.7.7,0,0,0-.71.7V19.5A.71.71,0,0,0,11.37,20.21ZM5,16.5a2.12,2.12,0,1,0-.1,4.24H5A2.12,2.12,0,0,0,5,16.5ZM9.09,3.3,5.91,6.48l-.69.69a.56.56,0,0,1-.78,0L2.34,5.08a.53.53,0,0,1,0-.75h0L3,3.64a.53.53,0,0,1,.75,0h0l1,1L7.6,1.81a.53.53,0,0,1,.75,0h0l.75.73a.53.53,0,0,1,0,.75Zm0,7.05L5.91,13.53l-.7.69a.55.55,0,0,1-.77,0l-2.1-2.1a.53.53,0,0,1,0-.75h0L3,10.68a.54.54,0,0,1,.75,0h0l1,1L7.6,8.84a.54.54,0,0,1,.75,0h0l.75.76a.52.52,0,0,1,0,.74Z"/></svg>