<svg xmlns="http://www.w3.org/2000/svg" xmlns:xlink="http://www.w3.org/1999/xlink" width="20" height="20" viewBox="0 0 20 20">
  <defs>
    <clipPath id="clip-button_container_white">
      <rect width="20" height="20"/>
    </clipPath>
  </defs>
  <g id="button_container_white" clip-path="url(#clip-button_container_white)">
    <g id="Group_18967" data-name="Group 18967" transform="translate(-2 -2)">
      <path id="Path_12676" data-name="Path 12676" d="M0,0H24V24H0Z" fill="none"/>
      <path id="Path_12677" data-name="Path 12677" d="M14,3V7a1,1,0,0,0,1,1h4" fill="none" stroke="#fff" stroke-linecap="round" stroke-linejoin="round" stroke-width="1.5"/>
      <path id="Path_12678" data-name="Path 12678" d="M17,21H7a2,2,0,0,1-2-2V5A2,2,0,0,1,7,3h7l5,5V19A2,2,0,0,1,17,21Z" fill="none" stroke="#fff" stroke-linecap="round" stroke-linejoin="round" stroke-width="1.5"/>
      <line id="Line_506" data-name="Line 506" y1="5" transform="translate(9 12)" fill="none" stroke="#fff" stroke-linecap="round" stroke-linejoin="round" stroke-width="1.5"/>
      <line id="Line_507" data-name="Line 507" y1="1" transform="translate(12 16)" fill="none" stroke="#fff" stroke-linecap="round" stroke-linejoin="round" stroke-width="1.5"/>
      <line id="Line_508" data-name="Line 508" y1="3" transform="translate(15 14)" fill="none" stroke="#fff" stroke-linecap="round" stroke-linejoin="round" stroke-width="1.5"/>
    </g>
  </g>
</svg>
