<svg xmlns="http://www.w3.org/2000/svg" xmlns:xlink="http://www.w3.org/1999/xlink" width="20" height="20" viewBox="0 0 20 20">
  <defs>
    <clipPath id="clip-path">
      <path id="Mask" d="M.6,8.718a.6.6,0,0,1-.6-.6V5.945a.336.336,0,1,1,.672,0v1.9a.2.2,0,0,0,.2.2H7.844a.2.2,0,0,0,.2-.2v-1.9a.337.337,0,0,1,.673,0V8.114a.6.6,0,0,1-.6.6ZM4.131,7.009,2.614,5.492a.337.337,0,0,1,.476-.476l.943.943V.337a.337.337,0,1,1,.673,0V5.959l.943-.943a.336.336,0,0,1,.475.476L4.607,7.009a.338.338,0,0,1-.477,0Z" fill="none" stroke="#23c4a8" stroke-width="0.5"/>
    </clipPath>
    <clipPath id="clip-button_list_green">
      <rect width="20" height="20"/>
    </clipPath>
  </defs>
  <g id="button_list_green" clip-path="url(#clip-button_list_green)">
    <g id="Group_18617" data-name="Group 18617" transform="translate(-0.225 -0.306)">
      <g id="Button__Resources_Icon_Download" data-name="Button/_Resources/Icon/Download" transform="translate(11.247 3.433)">
        <g id="Group">
          <path id="Mask-2" data-name="Mask" d="M.6,8.718a.6.6,0,0,1-.6-.6V5.945a.336.336,0,1,1,.672,0v1.9a.2.2,0,0,0,.2.2H7.844a.2.2,0,0,0,.2-.2v-1.9a.337.337,0,0,1,.673,0V8.114a.6.6,0,0,1-.6.6ZM4.131,7.009,2.614,5.492a.337.337,0,0,1,.476-.476l.943.943V.337a.337.337,0,1,1,.673,0V5.959l.943-.943a.336.336,0,0,1,.475.476L4.607,7.009a.338.338,0,0,1-.477,0Z" fill="none" stroke="#23c4a8" stroke-width="0.5"/>
          <g id="Group-2" data-name="Group" clip-path="url(#clip-path)">
            <g id="Button__Resources_Color_Black" data-name="Button/_Resources/Color/Black" transform="translate(-7.846 -18.308)">
              <g id="Oval_Copy_4" data-name="Oval Copy 4" fill="#23c4a8" stroke="#23c4a8" stroke-miterlimit="10" stroke-width="0.5">
                <circle cx="24.846" cy="24.846" r="24.846" stroke="none"/>
                <circle cx="24.846" cy="24.846" r="24.596" fill="none"/>
              </g>
            </g>
          </g>
        </g>
      </g>
      <circle id="Ellipse_124" data-name="Ellipse 124" cx="3.923" cy="3.923" r="3.923" transform="translate(2.526 2.561)" fill="none" stroke="#23c4a8" stroke-linecap="round" stroke-linejoin="round" stroke-width="1.5"/>
      <path id="Path_12602" data-name="Path 12602" d="M6,20.449V18.633A3.633,3.633,0,0,1,9.633,15h3.633A3.633,3.633,0,0,1,16.9,18.633v1.816" transform="translate(-5 -2.302)" fill="none" stroke="#23c4a8" stroke-linecap="round" stroke-linejoin="round" stroke-width="1.5"/>
    </g>
  </g>
</svg>
