<svg xmlns="http://www.w3.org/2000/svg" xmlns:xlink="http://www.w3.org/1999/xlink" width="251" height="131" viewBox="0 0 251 131">
  <defs>
    <clipPath id="clip-image_login">
      <rect width="251" height="131"/>
    </clipPath>
  </defs>
  <g id="image_login" clip-path="url(#clip-image_login)">
    <g id="Group_18058" data-name="Group 18058" transform="translate(-137.269 -221.314)">
      <g id="Group_17335" data-name="Group 17335" transform="translate(86.359 190)">
        <g id="Group_17336" data-name="Group 17336">
          <path id="Path_11903" data-name="Path 11903" d="M106.781,57.625c0,15.133,8.755,27.4,19.552,27.4s19.552-12.269,19.552-27.4-8.753-27.4-19.552-27.4-19.552,12.269-19.552,27.4" transform="translate(45.942 13.003)" fill="#fff7f3"/>
          <path id="Path_11904" data-name="Path 11904" d="M136.617,63.864a9.376,9.376,0,0,1,.43,10.268c-3.28,5.508-6.566,13.889-6.337,14.421s.23.373.23.373h-17.89s-6.463-8.574-6.289-13.951,2.184-5.233,3.51-7.932,1.888-7.621,1.888-7.621Z" transform="translate(45.933 25.566)" fill="#fff7f3"/>
          <path id="Path_11905" data-name="Path 11905" d="M133.517,62.807s1.951,2.823,4.269,2.479,2.836-.974,6.964-1.662,6.712-.834,8.714.438a4.022,4.022,0,0,1,2.027,3.079l1.251.157s9.1,1.968,11.032,2.248a77.662,77.662,0,0,0,13.956.95c6.192-.233,29.025-2.184,32.969-3.826s4.136-2.122,5.545-2.09,14.337,3,16.638,4.113,6.46,3.882,7.413,5.356a24.148,24.148,0,0,1,2.569,6.5c.114,1.191.053,3.353-.908,3.963s-5.857,2.675-7.176,3.534-7.569,3.9-9.633,3.955-8.085.289-10.033-.285-14.621-3.67-14.621-3.67l-46.785-.612-35.2-.19a8.593,8.593,0,0,1,1.733-5.346c1.878-2.223,7.54-9.48,5.777-14.32Z" transform="translate(52.706 27.023)" fill="#fff"/>
          <path id="Path_11906" data-name="Path 11906" d="M38.364,82.653c.882.928,2.876,1.608,4.859,4.512s7.5,3.247,8.945,3.411,2.68.488,3.4,3.145,2.23,2.5,3.408,2.656,3.147-2.288,3.823-3.52-.077-1.723-.077-1.723l.535-.013V88.16h.536V86.325h79.772a36.519,36.519,0,0,1-4.707-7.148c-4.362-8.371,1.432-13.37,1.432-13.37-2.932-.721-8.479,4.46-8.479,4.46a11.658,11.658,0,0,1-4.491,0c-1.6-.538-1.147-2.211-1.988-3.817s-5.963-1.452-8.72-1.1a9.991,9.991,0,0,0-5.422,2.286c-1.181.937-.383,3.7-.383,3.7s-2.806.925-4.58,1.34-6.113.227-10.863-.342-8.027,0-10.168,0-13.21-3.28-14.753-3.99-3.548-2.453-5.582-3.188-6.3.672-8.214,1.6-3.629-.187-6.714-.2-4.183,1.859-4.874,2.477-4.884,5.441-7,7.729-.578,4.962.3,5.888" transform="translate(15.916 27.944)" fill="#fff"/>
          <path id="Path_11907" data-name="Path 11907" d="M60.069,67.32s6.187.239,16.511,3.34a202.392,202.392,0,0,0,23.395,5.085,9.012,9.012,0,0,1,7.567,3.215c3.365,3.822,10.637,16.977,11.192,18.649s1.7,5.278,1.685,6.616-1.437,22.917-1.865,23.671-.864,2-1.982,1.625-2-.871-1.842-2.094,1.443-16.753.994-17.124-1.775-1.765-1.775-1.765a27.547,27.547,0,0,0-2.437,2.615c-.611.871.309,1.495-1.756,1.928s-3.531,1.133-3.637-.134-.033-3.56-.033-3.56l-.835-.36-2.048-.147s-1.317-.767-1.49-1.46a13.912,13.912,0,0,1-.2-2.214s-.359.147-1.025-.362a16.4,16.4,0,0,1-2.054-3.135l-.749-1.037-.965-1.116a7.147,7.147,0,0,0-.207-3.241c-.526-1.755.092-5.564.092-5.564a5.642,5.642,0,0,0-2.59-1.775c-1.3-.23-14.124-.392-14.9-.768s-5.667-1.449-7.808-.99-10.778,3.2-12.842,2.9-6.575-1.064-8.41-4.274-2.217-8.813,3.44-13.543,6.575-4.977,6.575-4.977" transform="translate(21.015 28.964)" fill="#fff7f3"/>
          <path id="Path_11908" data-name="Path 11908" d="M200.76,67.577s1.675-2.4,6.111-2.158,11.376,2.765,12.752,3.4a52.233,52.233,0,0,1,6.765,3.325c1.606,1.147,3.5,1.888,2.466,5.931s-6.472,9.262-6.705,9.893-7.094,3.265-10.715,2.923-14.516-1.26-16.981-1.433a20.926,20.926,0,0,0-6.134.574,77.26,77.26,0,0,1-9.345.631c-4.129.172-9.919.287-10.607,1.2s.974,3.268.974,3.268-1.6,7-2.923,8.772-1.267,2.58-1.267,2.58,1.041,1.549.752,2.294-5.913,1.49-5.913,1.49-.166,0-.8.975-2.065,2.064-4.874,1.088-6.466-2.58-6.466-2.58a6.069,6.069,0,0,0-1.16,2.409c-.458,1.662-1.031,8.945-1.146,13.589s.286,6.88-.8,7.339a2.137,2.137,0,0,1-3.152-1.606c-.345-1.949,0-23.335,0-23.335s.057-7.11,1.088-9.116,4.984-8.24,4.984-8.24,9.178-11.483,9.751-12.114,2.35-2.271,7.167-2.34,16.971-2.477,19.207-2.878,16.971-5.881,16.971-5.881" transform="translate(60.854 28.139)" fill="#fff7f3"/>
          <path id="Path_11909" data-name="Path 11909" d="M127.746,25.278c-.3,0-5.023-1.156-7.713-.655s-3.534-.634-7.47,2.672-9.661,9.355-9.269,13.666,5.421,14.753,3.4,18.685l2.916-3.483s2.4-1.117,2.74-3.081.728-4.7,3.251-5.512,6.957-2.792,8.1-6.541c0,0,2.643-3.371,4.494-3.943s7.966-1.758,9.114,4.072c0,0,4.264-2.68,4.96,1.5s-1.426,6.156,2.082,7.384c0,0-.851,4.133,2.054,5.127l.9,3.117,3.917.9a9.994,9.994,0,0,1,.379-4.3c.722-1.742,3.47-8.823.4-13.215s-.4,0-.4,0,1.731-10.943-4.208-12.652-5.275-1.143-5.275-1.143-3.111-5.311-5.413-5.3-8.958,2.7-8.958,2.7" transform="translate(44.433 9.714)" fill="#72290a"/>
          <path id="Path_11910" data-name="Path 11910" d="M113.086,53.01c0,3.3-2.124,5.977-4.741,5.977S103.6,56.311,103.6,53.01s2.124-5.977,4.743-5.977,4.741,2.676,4.741,5.977" transform="translate(44.575 20.236)" fill="#fff7f3"/>
          <path id="Path_11911" data-name="Path 11911" d="M139.916,53.01c0,3.3-2.125,5.977-4.743,5.977s-4.741-2.676-4.741-5.977,2.122-5.977,4.741-5.977,4.743,2.676,4.743,5.977" transform="translate(56.118 20.236)" fill="#fff7f3"/>
          <path id="Path_11912" data-name="Path 11912" d="M128.572,58.023H115.983s2.882,6.822,6.229,6.479,5.649-3.9,6.36-6.479" transform="translate(49.902 24.964)" fill="#fbddd7"/>
          <path id="Path_11913" data-name="Path 11913" d="M122.136,65.255h0c-1.545,0-3.119-1.177-4.678-3.5a22.2,22.2,0,0,1-1.828-3.341.568.568,0,0,1,.523-.789h12.59a.568.568,0,0,1,.549.719c-.707,2.56-3.115,6.509-6.852,6.894-.1.01-.2.016-.3.016m-5.093-6.492c.98,2,3.054,5.353,5.093,5.353a1.67,1.67,0,0,0,.189-.01c2.849-.292,4.816-3.131,5.637-5.343Z" transform="translate(49.73 24.794)" fill="#b8493b"/>
          <path id="Path_11914" data-name="Path 11914" d="M125.818,50.2c0,1.118.581,2.025,1.3,2.025s1.3-.907,1.3-2.025-.582-2.025-1.3-2.025-1.3.907-1.3,2.025" transform="translate(54.133 20.727)" fill="#b8493b"/>
          <path id="Path_11915" data-name="Path 11915" d="M113.578,50.2c0,1.118.581,2.025,1.3,2.025s1.3-.907,1.3-2.025-.584-2.025-1.3-2.025-1.3.907-1.3,2.025" transform="translate(48.867 20.727)" fill="#b8493b"/>
          <path id="Path_11916" data-name="Path 11916" d="M120.5,55.394c-.1.079-.207.157-.306.236a.568.568,0,0,0,.355,1.013.562.562,0,0,0,.355-.124c.092-.072.186-.143.282-.216a2.586,2.586,0,0,0,1.347-1.978.477.477,0,0,0-.011-.112,2.979,2.979,0,0,0-.824-1.357c-.1-.11-.193-.216-.273-.316a7.272,7.272,0,0,1-.189-3.793.568.568,0,1,0-1.126-.159,8.088,8.088,0,0,0,.3,4.481.607.607,0,0,0,.063.106c.114.153.246.3.372.441a2.487,2.487,0,0,1,.543.765c-.034.342-.38.628-.892,1.014" transform="translate(51.605 20.694)" fill="#b8493b"/>
          <path id="Path_11917" data-name="Path 11917" d="M131.639,45.256a.569.569,0,0,0,.4-.974,9.092,9.092,0,0,0-2.625-1.712,4.878,4.878,0,0,0-5.579.931.568.568,0,1,0,.784.822c2.925-2.788,6.472.624,6.622.769a.566.566,0,0,0,.4.163" transform="translate(53.204 18.11)" fill="#b8493b"/>
          <path id="Path_11918" data-name="Path 11918" d="M119.485,44.094a.57.57,0,0,0-.043-.8c-.037-.033-3.743-3.27-7.778.641a.569.569,0,0,0,.792.818c3.258-3.159,6.1-.719,6.227-.611a.568.568,0,0,0,.8-.044" transform="translate(47.969 18.071)" fill="#b8493b"/>
          <path id="Path_11919" data-name="Path 11919" d="M211.671,82.957a45.035,45.035,0,0,1-10.95-.554c-1.565-.207-3.181-.422-4.777-.561h-.016a20.765,20.765,0,0,0-6.013.358,45.633,45.633,0,0,1-10.9.86,69.065,69.065,0,0,0-7.61.276h-.019a7.271,7.271,0,0,0-2.353.628c-.021.011-.041.023-.061.036a1.352,1.352,0,0,1-.24.107c-.246.1-1,.386-.8,1.191a4.181,4.181,0,0,0,.675,1.344,3.657,3.657,0,0,1,.571,1.107,1.87,1.87,0,0,1-.08.654c-.488,1.189-.854,2.383-1.209,3.54-.232.762-.472,1.549-.742,2.311a14.4,14.4,0,0,1-1.752,3.4,6.081,6.081,0,0,1-3.945,2.274.569.569,0,0,0,.067,1.134.526.526,0,0,0,.066,0,6.779,6.779,0,0,0,3.35-1.387.365.365,0,0,0,.023.054,3.884,3.884,0,0,1,.652,2.072.155.155,0,0,1-.083.114,19.414,19.414,0,0,1-4.673.7.57.57,0,0,0-.721-.518,8.137,8.137,0,0,1-3.354-.011c-1.535-.282-2.823-2.66-3.191-3.554a.568.568,0,1,0-1.051.431c.062.156,1.579,3.79,4.035,4.244a10.6,10.6,0,0,0,2.919.144,2.556,2.556,0,0,1-2.426,1.593H157c-2.8,0-8.672-3.115-9.221-3.8a4.314,4.314,0,0,1-.449-2.361.566.566,0,0,0-.533-.6.573.573,0,0,0-.6.533,5.392,5.392,0,0,0,.7,3.141,3.978,3.978,0,0,0,.825.665,5.7,5.7,0,0,0-1.209,2.637,49.23,49.23,0,0,0-.955,10.827,62.174,62.174,0,0,1-.5,8.454,1.892,1.892,0,0,1-.435,1.133,1.05,1.05,0,0,1-1.276-.195,3.472,3.472,0,0,1-.814-1.7,34.815,34.815,0,0,1-.562-9.729l.576-16.208a19.942,19.942,0,0,1,.456-4.251,19.951,19.951,0,0,1,2.882-5.674.569.569,0,1,0-.955-.619,20.883,20.883,0,0,0-3.029,6.008,21,21,0,0,0-.491,4.5l-.576,16.206a35.6,35.6,0,0,0,.6,10.048,4.485,4.485,0,0,0,1.134,2.254,2.42,2.42,0,0,0,1.619.651,1.8,1.8,0,0,0,1.166-.409,2.866,2.866,0,0,0,.831-1.836,62.763,62.763,0,0,0,.516-8.61,48.444,48.444,0,0,1,.924-10.577,4.67,4.67,0,0,1,.958-2.151.59.59,0,0,0,.106-.167c2.3,1.31,6.167,2.979,8.337,2.979h.08a3.7,3.7,0,0,0,3.465-2.307c1.007-.06,4.451-.3,5.505-.855a1.287,1.287,0,0,0,.646-.812c.3-1.08-.585-2.657-.769-2.963a.534.534,0,0,0-.186-.189c.183-.185.363-.38.536-.588a.256.256,0,0,0,.029-.04,15.321,15.321,0,0,0,1.905-3.691c.279-.791.523-1.589.761-2.361.348-1.138.708-2.314,1.18-3.458l.013-.037a3.07,3.07,0,0,0,.144-1.1.53.53,0,0,0-.016-.124,4.454,4.454,0,0,0-.745-1.549,3.938,3.938,0,0,1-.466-.822l.05-.019a2.47,2.47,0,0,0,.429-.2,6.328,6.328,0,0,1,1.969-.5,68.075,68.075,0,0,1,7.475-.266,47.226,47.226,0,0,0,11.162-.89,19.615,19.615,0,0,1,5.675-.33c1.569.136,3.171.348,4.721.554a45.752,45.752,0,0,0,11.226.556.569.569,0,0,0-.129-1.13" transform="translate(60.552 35.184)" fill="#b8493b"/>
          <path id="Path_11920" data-name="Path 11920" d="M109.334,99.59a.569.569,0,0,0-.782-.189,20.177,20.177,0,0,0-6.752,6.2,2.9,2.9,0,0,1-2.653,1.26c-1.166-.195-1.366-.483-1.4-.566l-.009-.02a2.645,2.645,0,0,1,.142-2.607c.1-.1.2-.187.3-.277a.516.516,0,0,0,.114-.1c.172-.144.35-.287.536-.435a8.558,8.558,0,0,0,1.6-1.526.569.569,0,0,0-.911-.682,7.529,7.529,0,0,1-1.4,1.319c-.149.119-.3.24-.451.365a10.03,10.03,0,0,0-1.246.011,3.914,3.914,0,0,1-1.969-.21,2.093,2.093,0,0,1-1.015-1.814l.019-.006a.564.564,0,0,0,.376-.446,25.919,25.919,0,0,0,3.1.287h.019a.568.568,0,0,0,.019-1.136,24.934,24.934,0,0,1-3.451-.356,3.869,3.869,0,0,1-1.7-.6,4.192,4.192,0,0,1-1.08-1.743,6,6,0,0,0-1.512-2.371,4.11,4.11,0,0,1-.831-1.077,3.881,3.881,0,0,1-.239-1.035,30.207,30.207,0,0,1-.219-5.248,2.357,2.357,0,0,1,.425-1.528.569.569,0,0,0,.086-.692,5.393,5.393,0,0,0-3.681-2.337,15.473,15.473,0,0,0-3.619-.137l-.513.019a99.971,99.971,0,0,1-11.107-.439.569.569,0,0,0-.087,1.134,100.922,100.922,0,0,0,11.236.442l.518-.02a14.48,14.48,0,0,1,3.357.119,4.5,4.5,0,0,1,2.7,1.492,3.916,3.916,0,0,0-.455,1.9,31.346,31.346,0,0,0,.229,5.445,4.78,4.78,0,0,0,.328,1.352,4.967,4.967,0,0,0,1.046,1.4,6.69,6.69,0,0,1,.616.708,6.911,6.911,0,0,1,.671,1.324,5.1,5.1,0,0,0,1.429,2.2,3.672,3.672,0,0,0,1.25.612l-.013.049a3.315,3.315,0,0,0,1.579,3.526,3.747,3.747,0,0,0,1.756.36c.265,0,.529-.014.791-.027l.195-.01a3.893,3.893,0,0,0,.013,3.261c.348.845,1.459,1.121,2.257,1.254a3.268,3.268,0,0,0,.588.053,4.089,4.089,0,0,0,3.175-1.753l.027-.039a19.042,19.042,0,0,1,6.406-5.873.569.569,0,0,0,.187-.782" transform="translate(29.652 35.053)" fill="#b8493b"/>
          <path id="Path_11921" data-name="Path 11921" d="M96.65,88.325a14.661,14.661,0,0,0-3.584-.225,36.123,36.123,0,0,0-6.881,1.256,28.749,28.749,0,0,1-8.1,1.23c-3.619-.152-7.595-2.068-8.323-6.01-.8-4.342,1.952-8.048,5.046-11.4,1.585-1.719,3.076-3.188,5.3-3.747a13.852,13.852,0,0,1,6.691.245c1.425.349,2.858.8,4.244,1.233,1.014.318,2.062.646,3.108.935,2.357.654,4.831,1.254,7.567,1.839,5.086,1.087,10.281,1.938,15.307,2.762a.569.569,0,1,0,.183-1.123c-4.728-.775-9.608-1.578-14.394-2.573.262-.016.528-.03.788-.04a48.306,48.306,0,0,1,7.579.518c1.037.126,2.111.256,3.172.356,1.093.1,2.3.186,3.557.186a18.62,18.62,0,0,0,7.419-1.352.569.569,0,1,0-.453-1.044c-3.455,1.5-7.383,1.363-10.417,1.077-1.046-.1-2.111-.227-3.142-.353a48.979,48.979,0,0,0-7.758-.525c-.306.013-.615.03-.915.046a10.453,10.453,0,0,1-3.846-.242.568.568,0,0,0-.7.318c-1.257-.306-2.467-.619-3.646-.945-1.027-.285-2.067-.611-3.072-.925-1.4-.441-2.853-.894-4.312-1.251a14.917,14.917,0,0,0-7.241-.243c-2.519.635-4.206,2.291-5.854,4.078-3.137,3.4-6.223,7.537-5.328,12.385.832,4.508,5.226,6.719,9.258,6.931a.562.562,0,0,0-.092.425c.129.722-.29,1.55-1.284,2.53a3.667,3.667,0,0,1-2.532,1.342,2.949,2.949,0,0,1-2-1.535,13.144,13.144,0,0,1-.651-1.3,12.938,12.938,0,0,0-.777-1.522A2.937,2.937,0,0,0,69.5,90.568a3.453,3.453,0,0,0-1.353-.31c-2.655-.226-5.418-.644-7.629-2.15A17.926,17.926,0,0,1,57.71,85.54a22.923,22.923,0,0,0-2.447-2.328c-.147-.114-.3-.226-.449-.338a5.557,5.557,0,0,1-1.362-1.256,3.805,3.805,0,0,1,.318-3.947,13.749,13.749,0,0,1,2.19-2.473c.333-.322.678-.655,1.007-1,.644-.672,1.237-1.395,1.811-2.094.532-.648,1.081-1.317,1.659-1.929a8.612,8.612,0,0,1,4.112-2.689,11.8,11.8,0,0,1,3.212-.17,16.81,16.81,0,0,0,5.617-.436c.466-.146.915-.329,1.349-.506a13.108,13.108,0,0,1,1.472-.536c2.416-.668,5.29.079,8.543,2.218a.569.569,0,1,0,.625-.951c-3.538-2.327-6.725-3.122-9.471-2.364a13.912,13.912,0,0,0-1.6.581c-.431.176-.837.342-1.257.472a15.672,15.672,0,0,1-5.235.386,12.663,12.663,0,0,0-3.524.2A9.7,9.7,0,0,0,59.608,69.4c-.6.641-1.167,1.326-1.711,1.988-.561.684-1.14,1.389-1.753,2.03-.313.326-.649.652-.975.967a14.871,14.871,0,0,0-2.361,2.683c-.842,1.339-1.427,3.5-.3,5.188a6.477,6.477,0,0,0,1.629,1.538c.143.106.287.213.428.322a18.576,18.576,0,0,1,1.942,1.816c.082.1.578.72.9,1.137a.554.554,0,0,0,.162-.026,15.377,15.377,0,0,0,2.307,2.011c2.436,1.658,5.5,2.114,8.182,2.343a2.53,2.53,0,0,1,.911.183,1.82,1.82,0,0,1,.631.681,11.833,11.833,0,0,1,.707,1.392,14.18,14.18,0,0,0,.709,1.413A3.905,3.905,0,0,0,73.9,97.144c.079.007.156.01.232.01a4.854,4.854,0,0,0,3.194-1.675c.471-.465,1.9-1.879,1.6-3.541a.575.575,0,0,0-.08-.2,32.611,32.611,0,0,0,7.616-1.274,35.247,35.247,0,0,1,6.662-1.224,13.608,13.608,0,0,1,3.307.2.568.568,0,1,0,.219-1.116" transform="translate(0.418 27.736)" fill="#b8493b"/>
          <path id="Path_11922" data-name="Path 11922" d="M49.112,75.02c.142-.239.295-.471.458-.715a11.955,11.955,0,0,0,.759-1.26,11.754,11.754,0,0,0,.519-1.283c.06-.164.12-.33.183-.495a13.389,13.389,0,0,1,2.328-3.923.569.569,0,0,0-.867-.738,14.531,14.531,0,0,0-2.524,4.255c-.066.172-.127.343-.19.516a10.8,10.8,0,0,1-.469,1.161,10.589,10.589,0,0,1-.689,1.138c-.162.246-.329.5-.485.761a17.633,17.633,0,0,0-1.761,4.8,17.317,17.317,0,0,0-.722,4.992A6.761,6.761,0,0,0,47.7,89.022a.569.569,0,1,0,.757-.85,5.638,5.638,0,0,1-1.668-3.99,16.461,16.461,0,0,1,.689-4.664,16.708,16.708,0,0,1,1.635-4.5" transform="translate(19.638 28.571)" fill="#b8493b"/>
          <path id="Path_11923" data-name="Path 11923" d="M43.525,78.686c-.217-.229-.433-.462-.651-.7a13.2,13.2,0,0,0-3.709-3.131.635.635,0,0,0-.656-.355.612.612,0,0,0-.536.525.71.71,0,0,0,.475.749,11.506,11.506,0,0,1,3.593,2.983c.219.239.439.476.661.709,1.209,1.267,3.082,2.956,5.406,2.991h.009a.569.569,0,0,0,.009-1.138c-1.9-.027-3.533-1.519-4.6-2.637" transform="translate(16.335 32.053)" fill="#b8493b"/>
          <path id="Path_11924" data-name="Path 11924" d="M44.472,76a1.091,1.091,0,0,1,.636-.277.569.569,0,1,0-.09-1.134,2.213,2.213,0,0,0-1.314.574,2.423,2.423,0,0,0-.618.921,2.328,2.328,0,0,0,.516,2.51,1.915,1.915,0,0,0,1.28.482,1.594,1.594,0,0,0,.166-.007,1.671,1.671,0,0,0,1.2-.632.569.569,0,0,0-.9-.694.564.564,0,0,1-.4.193.778.778,0,0,1-.579-.182,1.184,1.184,0,0,1-.222-1.263A1.284,1.284,0,0,1,44.472,76" transform="translate(18.469 32.091)" fill="#b8493b"/>
          <path id="Path_11925" data-name="Path 11925" d="M170.479,105.188a.569.569,0,0,0,.891.708L180.9,93.9a15.663,15.663,0,0,1,2.308-2.51c2.476-2,5.92-2.243,9.249-2.477.225-.016.446-.031.668-.049,13.377-.977,25.644-4.312,35.473-9.646a.682.682,0,0,0-.545-1.247c-.562.262-6.362,1.623-6.827,1.678-7.163.838-14.57,1.7-21.893,1.838a73.9,73.9,0,0,1-21.65-2.44l-.329-.093a11.6,11.6,0,0,0-3.9-.645.569.569,0,0,0,.069,1.136,10.774,10.774,0,0,1,3.517.6l.33.094a73.006,73.006,0,0,0,20.019,2.5q.97,0,1.962-.017c7.379-.136,14.815-1.005,22-1.846.146-.017,1.4-.29,2.823-.624a90.733,90.733,0,0,1-31.141,7.575l-.665.047c-3.506.247-7.13.5-9.884,2.727a16.586,16.586,0,0,0-2.484,2.687l-3.992,5.026H143.347a15.826,15.826,0,0,1,.758-2.818,6.2,6.2,0,0,1,2.037-2.622l.312-.249a11.451,11.451,0,0,0,2.185-2.084l.1-.134c.116-.16.226-.312.345-.453.02-.024.041-.05.061-.076s.04-.049.062-.073a4.25,4.25,0,0,1,.905.481l.215.136a16.323,16.323,0,0,1,2.888,2.44,25.936,25.936,0,0,0,1.957,1.8l.279.223a10.967,10.967,0,0,1,1.007.86,2.908,2.908,0,0,0,1.6.964,1.077,1.077,0,0,0,1.064-.227.81.81,0,0,0,.024-1.16.671.671,0,0,0-.04-.056c-.4-.576-.7-1.023-.97-1.452a16.306,16.306,0,0,1-1.507-2.9,15.09,15.09,0,0,1-.762-3.288c-.092-.644-.156-1.3-.219-1.938a18.3,18.3,0,0,0-1.088-5.343,19.956,19.956,0,0,0-1.745-3.237,6.522,6.522,0,0,0,1.988.153,15.848,15.848,0,0,0,2.916-.569l.533-.137a38.981,38.981,0,0,1,8.115-1.17,10.138,10.138,0,0,1,3.035.232,3.73,3.73,0,0,1,2.25,1.552,1.438,1.438,0,0,1,.249.97,2.461,2.461,0,0,1-.406.8l-.046.069a17.716,17.716,0,0,0-2.85,9.2,7.922,7.922,0,0,0,.641,3.616,3.962,3.962,0,0,0,3.079,2.3c.08.007.159.01.235.01a1.688,1.688,0,0,0,.754-.16,1.808,1.808,0,0,0,.93-1.442,5.369,5.369,0,0,0-.928-3.208c-.818-1.5-1.6-3.1-1.352-4.694a.569.569,0,1,0-1.124-.173c-.3,1.942.6,3.812,1.476,5.412a4.451,4.451,0,0,1,.8,2.51.754.754,0,0,1-.3.574.778.778,0,0,1-.386.037,2.863,2.863,0,0,1-2.161-1.669,6.6,6.6,0,0,1-.523-3.091,16.565,16.565,0,0,1,2.663-8.6l.044-.067a3.319,3.319,0,0,0,.574-1.221,2.557,2.557,0,0,0-.393-1.768,4.85,4.85,0,0,0-2.921-2.058,11.187,11.187,0,0,0-3.38-.272,40.181,40.181,0,0,0-8.353,1.2l-.541.14a14.714,14.714,0,0,1-2.706.533,4.333,4.333,0,0,1-2.873-.691.587.587,0,0,0-.282-.109c-.2-.276-.409-.549-.614-.82a30.559,30.559,0,0,0,4.129-9.106l0-.019.233-1.005a5.687,5.687,0,0,0,4.48-3.076,7.845,7.845,0,0,0,.912-6.418,4.5,4.5,0,0,0-.812-1.469.575.575,0,0,0,.1-.465c-.255-1.482.365-2.945,1.021-4.494.159-.378.325-.768.475-1.156a14.091,14.091,0,0,0-.086-10.989.569.569,0,0,0-1.03.485,12.948,12.948,0,0,1,.053,10.095c-.142.369-.3.752-.461,1.121a10.446,10.446,0,0,0-1.161,4.5,3.475,3.475,0,0,0-2.367-.359.569.569,0,0,0,.223,1.116,2.638,2.638,0,0,1,2.968,1.972,6.806,6.806,0,0,1-.81,5.469c-.335.555-1.506,2.287-3.237,2.5l.19-.821a.568.568,0,0,0-1.107-.257l-.691,2.975a27.239,27.239,0,0,1-7.489,12.8.569.569,0,0,0-.252.223,15.736,15.736,0,0,1-8.6,3.932,13.984,13.984,0,0,1-9.7-2.647,22.484,22.484,0,0,1-5.833-6.237.566.566,0,0,0-.247-.4,30,30,0,0,1-3.207-7.648.569.569,0,0,0-1.1.3,31.005,31.005,0,0,0,3.4,8.052,12.9,12.9,0,0,1-1.13,4.442c-3.134,1.054-6.137,2.214-8.554,4.515l-.01.01a4.4,4.4,0,0,0-.95,4.337l.006.02.217.692a85.312,85.312,0,0,1,2.762,10.3.569.569,0,0,0,.559.466.626.626,0,0,0,.1-.009.57.57,0,0,0,.458-.662,86.118,86.118,0,0,0-2.8-10.441l-.213-.681a3.33,3.33,0,0,1,.654-3.218,18.941,18.941,0,0,1,6.98-3.86q-.182.3-.379.591c-1.363,1.679-2.832,3.965-2.161,6.777a26.517,26.517,0,0,0,5.153,10.661,6.662,6.662,0,0,0,.8.805l.074.067h-.586a.57.57,0,0,0-.07-.482,2.866,2.866,0,0,0-2.768-1.42,4.324,4.324,0,0,0-2.4,1.9H97.689A57.676,57.676,0,0,0,94.1,93.307q-.019-.024-.039-.043L92.8,92l-.023-.02a18.747,18.747,0,0,0-3.661-2.6.588.588,0,0,0-.093-.04,4.943,4.943,0,0,1-.728-.313c-.02-.01-.041-.019-.06-.026a9.324,9.324,0,0,0-4.145-.6.569.569,0,0,0,.1,1.134,8.188,8.188,0,0,1,3.621.521,6.147,6.147,0,0,0,.8.343,17.616,17.616,0,0,1,3.394,2.413l1.229,1.23a56.484,56.484,0,0,1,3.636,5.007.684.684,0,0,0,.053.083,85.271,85.271,0,0,1,5.732,10.7,33.84,33.84,0,0,1,2.244,7.958c0,4.737-.452,9.487-.887,14.082-.265,2.81-.541,5.715-.715,8.616a3.437,3.437,0,0,1-.568,1.326,1.45,1.45,0,0,1-1.708.532,1.3,1.3,0,0,1-.491-.835c-.142-3.677.039-7.427.215-11.054.1-2.1.2-4.261.246-6.408a3.283,3.283,0,0,0-.309-1.264.569.569,0,1,0-1.048.443,2.279,2.279,0,0,1,.22.81c-.041,2.12-.146,4.278-.246,6.365-.176,3.671-.36,7.467-.213,11.215a.761.761,0,0,0,.017.114,2.321,2.321,0,0,0,1.1,1.633,2.262,2.262,0,0,0,1.013.242,2.757,2.757,0,0,0,2.087-1.074l.019-.023a4.536,4.536,0,0,0,.79-1.836.461.461,0,0,0,.011-.076c.173-2.895.448-5.8.714-8.617.439-4.637.892-9.43.892-14.237a.528.528,0,0,0-.009-.094,34.94,34.94,0,0,0-2.333-8.274l0-.011a90.1,90.1,0,0,0-5.282-10.01h18.279a.555.555,0,0,0,.508,0h57.909ZM118.173,98.22a2.265,2.265,0,0,1,1.176-.79,1.666,1.666,0,0,1,1.475.79ZM139.7,94.487a10.589,10.589,0,0,0-.549,3.308c-.007.143-.017.283-.026.425H124.089a.5.5,0,0,0-.061-.1,6.281,6.281,0,0,0-.807-.821,5.513,5.513,0,0,1-.666-.664,25.406,25.406,0,0,1-4.94-10.215c-.435-1.826.167-3.62,1.954-5.817l.027-.037a14.314,14.314,0,0,0,2.337-5.707,23.554,23.554,0,0,0,5.352,5.392,15.1,15.1,0,0,0,8.915,2.928q.768,0,1.556-.074h.013a16.833,16.833,0,0,0,8.5-3.586c.019.137.039.275.059.409a7.192,7.192,0,0,1,.1,2.288,20.074,20.074,0,0,1-3.129,7.24c-.439.658-.944,1.283-1.435,1.886a17.262,17.262,0,0,0-2.15,3.1l-.019.043m2.49,3.733h-1.925c.007-.119.016-.237.023-.358a9.885,9.885,0,0,1,.459-2.932,16.254,16.254,0,0,1,2.007-2.868c.506-.626,1.031-1.274,1.5-1.979l.01-.017a21.127,21.127,0,0,0,3.288-7.659,8.229,8.229,0,0,0-.1-2.645c-.057-.385-.113-.754-.14-1.121a21.531,21.531,0,0,0,1.781-1.809q.605-.691,1.167-1.45a24.818,24.818,0,0,1,3.247,5.3,17.136,17.136,0,0,1,1.005,5.019c.064.648.132,1.317.225,1.985a16.135,16.135,0,0,0,.827,3.536,17.362,17.362,0,0,0,1.609,3.1c.2.313.41.635.662,1.005a2.967,2.967,0,0,1-.572-.486,12.365,12.365,0,0,0-1.108-.951c-.092-.072-.182-.143-.272-.216a25.094,25.094,0,0,1-1.871-1.722,17.5,17.5,0,0,0-3.092-2.6l-.2-.124a3.939,3.939,0,0,0-1.467-.671,1.08,1.08,0,0,0-.99.5l-.051.063c-.144.17-.272.346-.395.515l-.094.13a10.578,10.578,0,0,1-1.978,1.868l-.316.253a7.356,7.356,0,0,0-2.38,3.082,18.14,18.14,0,0,0-.861,3.242" transform="translate(35.959 15.442)" fill="#b8493b"/>
          <path id="Path_11926" data-name="Path 11926" d="M88.82,72.281c1.2.98,2.281,2.082,2.108,3.507a.569.569,0,0,0,.5.634.553.553,0,0,0,.069,0,.567.567,0,0,0,.564-.5c.24-1.964-1.121-3.38-2.493-4.505a2.441,2.441,0,0,1,.156-3.214,4.594,4.594,0,0,1,1.38-.993,22.125,22.125,0,0,1,8.024-1.57,6.283,6.283,0,0,1,4.623,2.41,8.1,8.1,0,0,1,.635,1.118,9.1,9.1,0,0,0,.734,1.28.29.29,0,0,0,.026.033,2.772,2.772,0,0,0,2.983,1.02.569.569,0,1,0-.372-1.076,1.679,1.679,0,0,1-1.725-.656,8.276,8.276,0,0,1-.629-1.11,8.888,8.888,0,0,0-.734-1.28l-.016-.021a7.5,7.5,0,0,0-5.469-2.853,23.086,23.086,0,0,0-8.466,1.636l-.026.009a5.753,5.753,0,0,0-1.795,1.273.337.337,0,0,0-.043.047,3.536,3.536,0,0,0-.073,4.77.521.521,0,0,0,.043.039" transform="translate(37.81 27.749)" fill="#b8493b"/>
          <path id="Path_11927" data-name="Path 11927" d="M216.026,86.278l.435-.2a16.961,16.961,0,0,0,2.449-1.3c2.65-1.8,1.619-4.96,1.121-6.478a15.182,15.182,0,0,0-3.39-6.067c-3.324-3.49-8.007-5.122-12.573-6.366-2.54-.692-5.136-1.316-7.716-1.856a10.41,10.41,0,0,0-3.679-.31,4.922,4.922,0,0,0-1.782.642,45.2,45.2,0,0,1-4.774,1.354.22.22,0,0,0-.041.01c-.019,0-.037.007-.056.013a.555.555,0,0,0-.051.021.418.418,0,0,0-.051.024c-.016.009-.03.02-.046.03s-.03.021-.043.033a.323.323,0,0,0-.039.039.5.5,0,0,0-.037.04.493.493,0,0,0-.031.044c-.009.016-.019.03-.029.047l-.02.049a.4.4,0,0,0-.02.053c-.006.017-.009.036-.013.054s-.006.036-.007.054a.41.41,0,0,0,0,.059.428.428,0,0,0,0,.043l0,.014v.014a.221.221,0,0,0,.011.041.257.257,0,0,0,.013.057c.006.017.014.034.021.051a.387.387,0,0,0,.023.049.438.438,0,0,0,.034.05.4.4,0,0,0,.029.04c.013.016.03.03.044.046s.02.02.031.029.037.026.057.039l.034.021a.659.659,0,0,0,.064.027l.037.014c.021.006.044.01.067.014l.043.007c.021,0,.043,0,.064,0a.375.375,0,0,0,.04,0c6.556-.595,12.9,2.354,18.492,4.957a9.686,9.686,0,0,1,4.1,2.849,6.33,6.33,0,0,1,.225,5.894,19.7,19.7,0,0,1-3.814,5.268,15.716,15.716,0,0,1-4.261,3.7,15.742,15.742,0,0,1-5.1,1.26l-1.263.167a.569.569,0,0,0,.074,1.133.458.458,0,0,0,.076,0l1.263-.167.34-.046a.564.564,0,0,0,.36.212,15.928,15.928,0,0,0,2.357.169,18.766,18.766,0,0,0,6.084-1.015,66.01,66.01,0,0,0,6.654-2.9l.212-.1c.539-.259,1.078-.521,1.618-.781m1.476-1.977q-1.791.869-3.587,1.732l-.21.1a64.744,64.744,0,0,1-6.539,2.855,17.424,17.424,0,0,1-4.584.915,9.658,9.658,0,0,0,1.284-.535,16.836,16.836,0,0,0,4.588-3.95,20.827,20.827,0,0,0,4.019-5.587,7.377,7.377,0,0,0-.335-6.982,10.685,10.685,0,0,0-4.557-3.237c-4.335-2.017-9.514-4.424-14.91-5.006a7.8,7.8,0,0,0,1.153-.419,3.834,3.834,0,0,1,1.377-.5,9.6,9.6,0,0,1,3.28.3c2.556.535,5.13,1.154,7.649,1.841,4.407,1.2,8.916,2.763,12.05,6.053a14.144,14.144,0,0,1,3.131,5.637c.758,2.317.933,4.085-.679,5.182a15.912,15.912,0,0,1-2.286,1.206c-.279.129-.565.26-.844.4" transform="translate(79.867 27.379)" fill="#b8493b"/>
          <path id="Path_11928" data-name="Path 11928" d="M107.388,54.153a.568.568,0,0,0,.552.439.576.576,0,0,0,.13-.014.569.569,0,0,0,.425-.684,2.447,2.447,0,0,1-.034-.568c0-.1,0-.195,0-.29a4.485,4.485,0,0,0-.974-2.662,1.779,1.779,0,0,0-1.7-.792.569.569,0,1,0,.222,1.116c.144-.029.379.127.586.388a3.345,3.345,0,0,1,.725,1.982c0,.083,0,.167,0,.25a3.447,3.447,0,0,0,.066.835" transform="translate(45.318 21.322)" fill="#b8493b"/>
          <path id="Path_11929" data-name="Path 11929" d="M135.189,51.084c.207-.26.442-.415.586-.386A.569.569,0,0,0,136,49.583a1.777,1.777,0,0,0-1.7.791,4.494,4.494,0,0,0-.975,2.662c0,.1,0,.195,0,.292a2.6,2.6,0,0,1-.034.566.569.569,0,0,0,.423.684.591.591,0,0,0,.132.016.569.569,0,0,0,.552-.441,3.5,3.5,0,0,0,.066-.834c0-.083,0-.167,0-.252a3.346,3.346,0,0,1,.727-1.982" transform="translate(57.341 21.322)" fill="#b8493b"/>
          <path id="Path_11930" data-name="Path 11930" d="M110.545,46.665a4.84,4.84,0,0,0,1.3-2.193c.041-.126.084-.252.13-.376a6.668,6.668,0,0,1,3.384-3.693.568.568,0,1,0-.485-1.028,7.816,7.816,0,0,0-3.966,4.328c-.05.134-.1.27-.142.406a5.412,5.412,0,0,1-.348.864,5.34,5.34,0,0,1-.724.931,6.1,6.1,0,0,1-2.9,2.175.569.569,0,0,0,.124,1.124.641.641,0,0,0,.126-.014,7.206,7.206,0,0,0,3.5-2.524" transform="translate(45.758 16.918)" fill="#b8493b"/>
          <path id="Path_11931" data-name="Path 11931" d="M110.6,39.117a10.351,10.351,0,0,0,4.514,1.153c.2,0,.393-.007.586-.023a6.132,6.132,0,0,0,4.663-2.549.569.569,0,0,0-.947-.632,4.994,4.994,0,0,1-3.8,2.047,8.829,8.829,0,0,1-4.515-1.018,3.275,3.275,0,0,1-1.845-1.648.569.569,0,0,0-1.073.379,4.445,4.445,0,0,0,2.42,2.291" transform="translate(46.531 15.518)" fill="#b8493b"/>
          <path id="Path_11932" data-name="Path 11932" d="M130.078,32.3a5.666,5.666,0,0,1,3.5,1.872,3.177,3.177,0,0,1,.785,1.46,1.543,1.543,0,0,1-.33,1.344.569.569,0,1,0,.821.788,2.658,2.658,0,0,0,.626-2.343,4.278,4.278,0,0,0-1.044-2,6.732,6.732,0,0,0-8.855-1.147,12.825,12.825,0,0,0-1.372,1.124c-.073.064-.143.13-.216.195a35.216,35.216,0,0,1-3.109,2.476,8.931,8.931,0,0,1-1.532.924,5.418,5.418,0,0,1-4.042.077,6.438,6.438,0,0,1-3.174-2.65,2.061,2.061,0,0,1-.422-1.322.569.569,0,1,0-1.127-.154,3.189,3.189,0,0,0,.584,2.077,7.578,7.578,0,0,0,3.742,3.115,6.746,6.746,0,0,0,2.35.425,6.3,6.3,0,0,0,2.549-.528A9.869,9.869,0,0,0,121.539,37a36.366,36.366,0,0,0,3.211-2.557c.073-.066.147-.132.219-.2a12.153,12.153,0,0,1,1.249-1.028,5.67,5.67,0,0,1,3.86-.918" transform="translate(47.571 13.39)" fill="#b8493b"/>
          <path id="Path_11933" data-name="Path 11933" d="M130.938,42.72a4.436,4.436,0,0,0,2.542,2.519,4.849,4.849,0,0,0,1.984.475c.053,0,.1,0,.157,0a2.881,2.881,0,0,0,2.132-1.005.569.569,0,0,0-.884-.717,1.775,1.775,0,0,1-1.3.586,3.646,3.646,0,0,1-1.628-.373,3.452,3.452,0,0,1-1.925-1.835,4.934,4.934,0,0,1,.053-2.321,5.477,5.477,0,0,0-.044-3,3.145,3.145,0,0,0-3.257-1.934.569.569,0,0,0,.146,1.128,2.01,2.01,0,0,1,2.052,1.217,4.6,4.6,0,0,1-.017,2.4,5.855,5.855,0,0,0-.014,2.871" transform="translate(55.19 15.094)" fill="#b8493b"/>
          <path id="Path_11934" data-name="Path 11934" d="M137.542,46.424a.569.569,0,1,0-.719-.882,2.263,2.263,0,0,1-3.045-.173,4.183,4.183,0,0,1-.675-1.013c-.147-.292-.286-.595-.412-.9a.569.569,0,1,0-1.053.432c.136.333.289.665.452.985a5.194,5.194,0,0,0,.874,1.29,3.441,3.441,0,0,0,2.238,1.017c.063,0,.124.006.186.006a3.454,3.454,0,0,0,2.154-.762" transform="translate(56.619 18.545)" fill="#b8493b"/>
          <path id="Path_11935" data-name="Path 11935" d="M121.78,25.218a14.715,14.715,0,0,1,4.033-1.753,6.71,6.71,0,0,1,4.394.554,6.211,6.211,0,0,1,2.965,3.229,10.882,10.882,0,0,1,.552,2.34,14.665,14.665,0,0,1-.041,5.918,8.344,8.344,0,0,1-2.04,3.607.568.568,0,0,0,.016.8.57.57,0,0,0,.8-.014,9.493,9.493,0,0,0,2.318-4.1,15.7,15.7,0,0,0,.069-6.385,12.015,12.015,0,0,0-.618-2.584A7.361,7.361,0,0,0,130.72,23a7.865,7.865,0,0,0-5.142-.652,15.626,15.626,0,0,0-4.354,1.874.569.569,0,0,0,.555.994" transform="translate(52.031 9.543)" fill="#b8493b"/>
          <path id="Path_11936" data-name="Path 11936" d="M116.6,23.094a6.1,6.1,0,0,1,2.789.232,2.6,2.6,0,0,1,1.688,1.732.57.57,0,0,0,.555.443.54.54,0,0,0,.126-.014.57.57,0,0,0,.429-.681,3.745,3.745,0,0,0-2.4-2.546,7.473,7.473,0,0,0-3.3-.3.569.569,0,1,0,.11,1.133" transform="translate(49.899 9.424)" fill="#b8493b"/>
          <path id="Path_11937" data-name="Path 11937" d="M106.544,57.059c-2.2.7-3.558,3.61-3.074,6.815s2.655,5.607,4.97,5.607a3.3,3.3,0,0,0,.5-.039,3.448,3.448,0,0,0,1.091-.359.569.569,0,0,0-.529-1.007,2.338,2.338,0,0,1-.731.242c-1.879.285-3.753-1.786-4.179-4.613s.754-5.358,2.63-5.641a2.4,2.4,0,0,1,1.307.176.569.569,0,1,0,.439-1.05,3.645,3.645,0,0,0-1.25-.286c.283-2.185-.6-4.367-1.387-6.316-1.412-3.493-2.855-7.543-2.094-11.425a15.491,15.491,0,0,1,2.809-5.971,21.633,21.633,0,0,1,7.579-6.761,14.7,14.7,0,0,1,9.827-1.422.569.569,0,1,0,.249-1.11,15.833,15.833,0,0,0-10.592,1.519,22.761,22.761,0,0,0-7.987,7.111,16.558,16.558,0,0,0-3,6.415c-.822,4.188.681,8.426,2.158,12.078.808,2,1.64,4.058,1.261,6.036" transform="translate(44.269 10.137)" fill="#b8493b"/>
          <path id="Path_11938" data-name="Path 11938" d="M131.172,27.266a11.629,11.629,0,0,1,4.347.8,6.134,6.134,0,0,1,3.147,2.752,10.588,10.588,0,0,1,.737,2.22,15.982,15.982,0,0,1,.556,3.014,7.654,7.654,0,0,1-.518,3.178.569.569,0,0,0,.322.738.562.562,0,0,0,.207.04.568.568,0,0,0,.529-.36,8.814,8.814,0,0,0,.6-3.654,16.842,16.842,0,0,0-.591-3.232,11.336,11.336,0,0,0-.827-2.461,7.28,7.28,0,0,0-3.716-3.281,12.745,12.745,0,0,0-4.768-.884.569.569,0,1,0-.021,1.137" transform="translate(56.197 11.242)" fill="#b8493b"/>
        </g>
      </g>
    </g>
  </g>
</svg>
