<svg xmlns="http://www.w3.org/2000/svg" xmlns:xlink="http://www.w3.org/1999/xlink" width="141" height="86" viewBox="0 0 141 86">
  <defs>
    <clipPath id="clip-path">
      <rect id="Rectangle_6801" data-name="Rectangle 6801" width="249" height="86" rx="10" transform="translate(945.222 254.722)" fill="none" stroke="#707070" stroke-width="1"/>
    </clipPath>
    <clipPath id="clip-image_personal">
      <rect width="141" height="86"/>
    </clipPath>
  </defs>
  <g id="image_personal" clip-path="url(#clip-image_personal)">
    <g id="Mask_Group_47" data-name="Mask Group 47" transform="translate(-990.555 -254.722)" clip-path="url(#clip-path)">
      <g id="Group_18087" data-name="Group 18087" transform="translate(992.921 255.905)">
        <path id="Path_12601" data-name="Path 12601" d="M295.341,1297.438a6.308,6.308,0,0,0-6.956-5.723,4.452,4.452,0,0,0-5.111-4.458m20.149,25.093a9.7,9.7,0,0,0-10.474-2.191,4.258,4.258,0,0,0-4.564-4.668,4.305,4.305,0,0,0-5.693-3.4m-5.5-3.864a9.621,9.621,0,0,0-6.81-12.075,3.059,3.059,0,0,1-1.936-.831,4.41,4.41,0,0,1-.486-1.282,3.318,3.318,0,0,0-4.622-1.7,5.291,5.291,0,0,0-6.154-2.956" transform="translate(-166.542 -1230.463)" fill="none" stroke="#d3dbb7" stroke-linecap="round" stroke-linejoin="round" stroke-width="1"/>
        <path id="Path_12602" data-name="Path 12602" d="M1418.363,1615.914a23.991,23.991,0,0,0,2.7-2.206,15.8,15.8,0,0,1,2.609-1.346c2.593-1.228,4.534-2.145,6.207-4.474l.15-.187a7.2,7.2,0,0,0-3.959-5.8c-.892-.431-1.867-.672-2.765-1.089a23.508,23.508,0,0,1-2.928-1.82c-1.3-.847-2.68-1.556-4.007-2.356a34.369,34.369,0,0,1-10.976-10.593q-.526-.8-1-1.626-.742-1.283-1.369-2.629c-1.748-3.76-2.817-7.845-4.982-11.376q-.614-.714-1.23-1.428a67,67,0,0,0-3.35,6.2q-4.875,9.306-10.189,18.375c-2.976,5.078-6.946,9.4-10.591,14.024-1.926,2.443-4.083,3.654-5.6,5.234l.037.037c-.019.74-.035,1.481-.054,2.224a2.337,2.337,0,0,1-.028.339c1.33,1.283,2.515,2.726,3.828,4.034l-.007.009c.6.517,1.167,1.065,1.707,1.637l1.656.367a10.221,10.221,0,0,1,2.745.887c1.587.872,2.592,2.511,4.013,3.635a13.557,13.557,0,0,0,4.313,2.042,9.518,9.518,0,0,1,1.209.8h12.461v-.489a28.794,28.794,0,0,1,5.735-5.541l.006.006.4-.363a13.138,13.138,0,0,0,1.741-1.815l-.06-.055a20.926,20.926,0,0,1,2.85-2.643,7.907,7.907,0,0,1,4.1-1.624,12.107,12.107,0,0,1,1.574.044l2.657.195a2.842,2.842,0,0,0,.222-.311c.063-.1.122-.2.18-.309" transform="translate(-1328.417 -1475.191)" fill="#fff"/>
        <path id="Path_12603" data-name="Path 12603" d="M2046.622,578.315l-.237.035a18.372,18.372,0,0,0,.9,13.537,10.81,10.81,0,0,0,2.234,3.224c3.268,3.1,10.8,1.869,13.64,5.328l.063-.05a2.734,2.734,0,0,0,1.087.33.941.941,0,0,0,.918-.548l-.266-.195a7.921,7.921,0,0,0,2.124-4.585,6.837,6.837,0,0,0,.316-2.5,12.486,12.486,0,0,1-3.6-1.23,6.3,6.3,0,0,1-3.216-3.918,3.327,3.327,0,0,1-.024-1.52,2.962,2.962,0,0,1,1.622-1.895,3.857,3.857,0,0,1,1.347-.348l4.212,1.216a2.1,2.1,0,0,0,1.936-.085,1.5,1.5,0,0,0,.376-1.437,10.046,10.046,0,0,0-.536-1.459,10.74,10.74,0,0,1-.344-3.861v0a14.644,14.644,0,0,0,.962-1.737c1.217-.918,3.809-2.711,4.98-3.583.877-2.856.3-5.97-.6-8.83a12.214,12.214,0,0,0-1.039-2.478,22.2,22.2,0,0,1,2.341.557l-.07.245a13.631,13.631,0,0,1,4.713,3.6l-.053.05q1.083,1.142,2.052,2.391c.274.354.546.718.826,1.08a1.4,1.4,0,0,0,.168-.756,14.227,14.227,0,0,0-.476-3.717l-.02,0a8.155,8.155,0,0,0-2-3.839,18.315,18.315,0,0,0-5.925-3.989l.054-.15a15,15,0,0,0-3.757-.9,6.879,6.879,0,0,0-5.167.826c-1.747.922-3.312,2.2-5.163,2.889-1.059.395-2.188.589-3.23,1.03a14.6,14.6,0,0,0-2.724,1.667,25.972,25.972,0,0,0-5.527,4.826c-1.462,1.867-3.3,5.245-3.026,7.646a17.048,17.048,0,0,0,.138,3.132" transform="translate(-2044.656 -556.079)" fill="#696155"/>
        <path id="Path_12604" data-name="Path 12604" d="M1584.926,1319.065l-.446.235c.035.05.07.1.1.152.085.13.163.263.235.4a1.245,1.245,0,0,0,.715-.705,1.791,1.791,0,0,0,.121-.547c-.235.165-.484.315-.728.465" transform="translate(-1504.177 -1247.995)" fill="#fff9f4" stroke="#707070" stroke-linecap="round" stroke-width="1"/>
        <path id="Path_12605" data-name="Path 12605" d="M1519.69,1244.977a109.13,109.13,0,0,0-16.332-2,1.558,1.558,0,0,0-.987.176,1.459,1.459,0,0,0-.463.75,10.841,10.841,0,0,0-.528,2.357l.022.074a9.191,9.191,0,0,1,1.055-.193,9.429,9.429,0,0,0,2.174-.624,4.372,4.372,0,0,1,1.593-.495,1.389,1.389,0,0,1,.889.317l.011-.013.594.509.056.1a9.174,9.174,0,0,1,2.517-.95,3.671,3.671,0,0,1,1.448-.043,4.534,4.534,0,0,1,1.6.794,3.068,3.068,0,0,1,1.4,1.618,2.158,2.158,0,0,1-.548,1.861,4.438,4.438,0,0,1-.865.754,1.776,1.776,0,0,1-.12.546,1.246,1.246,0,0,1-.715.706,4.692,4.692,0,0,1,.467,2.95,6.058,6.058,0,0,1-.265.989,1.711,1.711,0,0,1,.667.878,4.892,4.892,0,0,1,.222,1.271,1.483,1.483,0,0,1-.039.566,2.064,2.064,0,0,1,.226.609c.137.679-.072,1.387.031,2.07a22.176,22.176,0,0,1,.7,2.337,3.7,3.7,0,0,1-1.469,2.593,16.968,16.968,0,0,1-4.307,2.911q.531.089,1.067.141l0,.009a17.778,17.778,0,0,0,2.976.148,2.887,2.887,0,0,0,1.426-.318,2.969,2.969,0,0,0,.983-1.26,48.064,48.064,0,0,0,3.291-9.674q.7-2.692,1.38-5.393a35.13,35.13,0,0,0,1.176-6.321,5.121,5.121,0,0,0-1.389-.456Z" transform="translate(-1431.857 -1179.366)" fill="#7db48a" stroke="#707070" stroke-linecap="round" stroke-width="1"/>
        <path id="Path_12606" data-name="Path 12606" d="M2133.626,900.623a1.728,1.728,0,0,0,.463,2,2.178,2.178,0,0,0,1.944.218c.3-.115.574-.3.863-.439,1.278-.626,2.82-.461,4.126-1.026a.382.382,0,0,0,.2-.152.391.391,0,0,0,.023-.232c-.018-.189-.037-.379-.056-.568a.409.409,0,0,0-.059-.211.4.4,0,0,0-.282-.119,10.123,10.123,0,0,0-4.053.276,1.75,1.75,0,0,1-1.065.084,4.1,4.1,0,0,1-.565-.354,1.089,1.089,0,0,0-1.306.332Z" transform="translate(-2110.609 -868.156)" fill="#fff"/>
        <path id="Path_12607" data-name="Path 12607" d="M1107.244,1754.721c.061-.039.122-.078.185-.117a29.178,29.178,0,0,1,3.954-1.922l.391.02a1.21,1.21,0,0,0,.922,1.145,2.812,2.812,0,0,0,1.565-.106,18.1,18.1,0,0,0,3.5-1.591,1.92,1.92,0,0,0,.557-.394,1.536,1.536,0,0,0,.121-1.524h-.524l-.23-.2c-.087.089-.174.178-.263.267a7.308,7.308,0,0,1-.981.857,7.186,7.186,0,0,1-3.918,1,2.526,2.526,0,0,1-1.328-.213.97.97,0,0,1-.511-1.015c-.05-.207-.108-.415-.168-.62a.076.076,0,0,1-.024-.013,1.092,1.092,0,0,1-.389-1.163,1.366,1.366,0,0,1,.15-.4,3.5,3.5,0,0,1,1.3-1.132l.261-.016a1.325,1.325,0,0,0,1.479.57,2.561,2.561,0,0,0,.648-.344l2.758-1.817a1.842,1.842,0,0,0,.491-.411,1.861,1.861,0,0,0,.276-.7c.159-.639.315-1.274.474-1.913.024-.1.05-.2.074-.3a2.269,2.269,0,0,0-.193-2.115,2.146,2.146,0,0,0-.848-.471,34.417,34.417,0,0,0-5.711-1.544,7.657,7.657,0,0,0-3.873.048,8.543,8.543,0,0,0-2.337,1.439q-3.939,3.05-7.876,6.1a.706.706,0,0,1-.219.22,1.77,1.77,0,0,1-.748.213c-.068.009-.137.019-.206.026l-.016-.123c-5.106-1.183-10.922-4.139-15.9-5.813a157.374,157.374,0,0,1-14.974-5.873l-.143.082q.478.828,1,1.626a34.365,34.365,0,0,0,10.976,10.593c1.328.8,2.711,1.509,4.007,2.355a23.525,23.525,0,0,0,2.928,1.821c.9.416,1.873.657,2.765,1.089a7.084,7.084,0,0,1,2.739,2.391c.25-.011.5-.033.745-.069l.019.152,3.028.405c.685.091,1.374.183,2.05.328l-.02.1q1.283.35,2.591.613a7.879,7.879,0,0,0,6.876.052,27.044,27.044,0,0,0,2.567-1.6" transform="translate(-989.001 -1625.64)" fill="#fff9f4" stroke="#707070" stroke-linecap="round" stroke-width="1"/>
        <path id="Path_12608" data-name="Path 12608" d="M523.186,1902.986c.518-.009,1.039.006,1.557.046l0,.294q2.6.04,5.2.074v.027a9.846,9.846,0,0,1,1.32.084l-.011.085q.253,2.017.508,4.031l.267.139a.7.7,0,0,1-.12.832.689.689,0,0,1-.47.18v.04l-9.783.016q.236-2.3.474-4.595l.12.013a2.607,2.607,0,0,1,.22-.809.781.781,0,0,1,.3-.38.906.906,0,0,1,.417-.08m46.221,8.793c-7.563.078-16.845.468-24.4.545l0-.075a1.5,1.5,0,0,1-1.157-.481c-.026-.028-.052-.058-.076-.087l.054-.1q-.367-4.575-1.05-9.113l.068-.011a.93.93,0,0,1,1.528-.891l0,.072c2.232.178,17.12.037,18.417-.059l0,.078a4.7,4.7,0,0,1,.954.05,2.651,2.651,0,0,1,.881.306l-.091.047q1.972,3.758,3.726,7.626.569,1.044,1.143,2.091m-43.939-8.969a2.812,2.812,0,0,1-1.565.105,1.209,1.209,0,0,1-.922-1.144l-.391-.021a29.15,29.15,0,0,0-3.954,1.922s-.05.166-.141.459c-.589,1.948-2.865,9.448-2.959,9.754a3.237,3.237,0,0,0-.154.882,10.38,10.38,0,0,0,1.726.044l0,.059c2.7-.065,61.684-1.109,62.162-.972l.02.245c.463-.039.926-.1,1.383-.185a29.487,29.487,0,0,0-2.417-3.05l-.026.016a108.923,108.923,0,0,0-7.793-10.467l-.009.007q-.539-.722-1.13-1.406a3.222,3.222,0,0,1-.735.178,6.9,6.9,0,0,1-1.542-.028c-7.245.084-36.35.226-36.833.19v-.1h-.545a1.535,1.535,0,0,1-.12,1.524,1.943,1.943,0,0,1-.557.394,18.093,18.093,0,0,1-3.5,1.591" transform="translate(-400.207 -1774.708)" fill="#fff"/>
        <path id="Path_12609" data-name="Path 12609" d="M1918.954,629.386c-.047-.143-.049-.341.09-.4.191-.08.378.056.521.261.252.363.369.946.126.961a.387.387,0,0,1-.261-.115,1.522,1.522,0,0,1-.476-.707m-6.612-11.58.07-.244a22.076,22.076,0,0,0-2.341-.557,12.217,12.217,0,0,1,1.039,2.478c.9,2.859,1.482,5.974.6,8.83-1.17.872-3.763,2.665-4.98,3.583a14.734,14.734,0,0,1-.963,1.737v0a10.757,10.757,0,0,0,.344,3.861,9.986,9.986,0,0,1,.536,1.459,1.5,1.5,0,0,1-.376,1.437,2.1,2.1,0,0,1-1.935.085l-4.213-1.217a3.858,3.858,0,0,0-1.346.348,2.961,2.961,0,0,0-1.622,1.895,3.323,3.323,0,0,0,.024,1.52,6.293,6.293,0,0,0,3.215,3.918,12.477,12.477,0,0,0,3.605,1.23,6.837,6.837,0,0,1-.317,2.5,7.919,7.919,0,0,1-2.124,4.585l.267.194a.942.942,0,0,1-.919.548,2.74,2.74,0,0,1-1.087-.33,1.162,1.162,0,0,1,.3.685l.211,1.078a5.23,5.23,0,0,1,.341,1.739c.041,2.139-1.354,3.711-1.629,6.054l.2.024a12.124,12.124,0,0,1,.005,1.759c3.48-1.7,7.209-3.278,11-2.67,3.3.528,6.114,2.652,8.537,4.952,1.463,1.385,2.85,2.869,4.339,4.22a13.126,13.126,0,0,0,.034-2.291l.072-.006a50.677,50.677,0,0,0,.448-5.237,72.556,72.556,0,0,1,1.037-11.115c.463-2.313,3.7-3.627,6.376-5.346a6.013,6.013,0,0,0,2.5-2.483,3.658,3.658,0,0,0-.266-2.863c-.354-.778-.828-1.5-1.154-2.291a21.55,21.55,0,0,1-2.187-3.193,7.766,7.766,0,0,1-1-4.006c.053-.983.356-1.948.409-2.922.033-.185.061-.37.085-.556a1.942,1.942,0,0,0-.2-1.374,1.9,1.9,0,0,0-1.2-.624c-1.554-.335-3.226-.328-4.615-1.1l.013-.033a8.77,8.77,0,0,1-3.6-3.143c-.28-.361-.552-.726-.826-1.08q-.967-1.247-2.052-2.391l.054-.05a13.628,13.628,0,0,0-4.713-3.6m-7.831,25.83a1.088,1.088,0,0,1,1.305-.332,4.177,4.177,0,0,0,.564.354,1.751,1.751,0,0,0,1.065-.083,10.122,10.122,0,0,1,4.054-.276.4.4,0,0,1,.281.118.414.414,0,0,1,.059.211c.018.189.037.38.055.568a.394.394,0,0,1-.022.232.387.387,0,0,1-.2.152c-1.306.565-2.848.4-4.126,1.026-.289.143-.561.324-.863.439a2.179,2.179,0,0,1-1.945-.219,1.729,1.729,0,0,1-.463-2Z" transform="translate(-1881.259 -611.362)" fill="#fff9f4"/>
        <path id="Path_12610" data-name="Path 12610" d="M1636.988,1269.493l.446-.235c.245-.15.493-.3.728-.465a4.412,4.412,0,0,0,.865-.754,2.156,2.156,0,0,0,.548-1.861,3.067,3.067,0,0,0-1.4-1.619,4.523,4.523,0,0,0-1.6-.794,3.658,3.658,0,0,0-1.448.043,9.155,9.155,0,0,0-2.516.95l-.056-.1c-.2-.171-.4-.339-.595-.509l-.011.013a1.389,1.389,0,0,0-.89-.317,4.381,4.381,0,0,0-1.592.495,9.466,9.466,0,0,1-2.174.624,9.2,9.2,0,0,0-1.056.192,2.023,2.023,0,0,0-.211.07c-.022.007-.046.017-.069.026a4.111,4.111,0,0,0-.891.554,22.406,22.406,0,0,0-3.393,3.192,6.517,6.517,0,0,0-.909,1.274,13.418,13.418,0,0,0-.645,1.833c-.561,1.67-1.6,3.157-2.193,4.806-.091.25-.17.5-.237.759-.211.811-.287,1.656-.461,2.473l.142.031a14.648,14.648,0,0,1-.679,2.531l-.048-.018c-2.465,2.572-4.178,5.755-6.215,8.678a65.7,65.7,0,0,1-8.576,9.722l-.024-.022a9.079,9.079,0,0,1-1.669,1.383,8.072,8.072,0,0,1-.885.788q-2.536,2.036-5.072,4.074l-.006-.007c-.094.061-.189.124-.283.187s-.187.126-.28.191a24.118,24.118,0,0,0,1.018-4.528l-.363-.017a6.316,6.316,0,0,0-.056-1.311,39.975,39.975,0,0,0-10.456,2.013,77.569,77.569,0,0,0-13.448,6.141c-.669.372-1.4.841-1.541,1.592l-.011.167c-.015.32-.026.644-.035.971a93.393,93.393,0,0,0,2.076,20.235c.087.122.17.246.252.374.129.026.255.053.383.087a12.971,12.971,0,0,1,2.008.767q4.08,1.822,8.159,3.649l.094-.052,2.665-1.453a11.424,11.424,0,0,1,2.448-1.1c2.42-.653,5.02.363,7.006,1.9.124.1.246.195.367.292l.142-.3a7.294,7.294,0,0,1,1.015-1.3c1.513-1.58,3.67-2.791,5.6-5.234,3.645-4.622,7.615-8.946,10.591-14.024q5.314-9.064,10.189-18.374a66.884,66.884,0,0,1,3.35-6.2,15.122,15.122,0,0,1,1.492-1.915c1.506-1.615,3.759-1.45,5.677-2.25q.662-.275,1.312-.593a16.985,16.985,0,0,0,4.307-2.911,3.7,3.7,0,0,0,1.469-2.593,22.071,22.071,0,0,0-.7-2.337c-.1-.683.106-1.391-.031-2.07a2.065,2.065,0,0,0-.226-.609,1.5,1.5,0,0,0,.039-.567,4.909,4.909,0,0,0-.223-1.27,1.714,1.714,0,0,0-.667-.878,6.1,6.1,0,0,0,.265-.989,4.7,4.7,0,0,0-.467-2.95c-.073-.137-.15-.271-.235-.4-.033-.05-.068-.1-.1-.152" transform="translate(-1556.684 -1198.187)" fill="#fff9f4" stroke="#707070" stroke-linecap="round" stroke-width="1"/>
        <path id="Path_12611" data-name="Path 12611" d="M200.5,1991.932l.5.051a103.116,103.116,0,0,0,15.011,1.287c4,.156,9.761.413,12.47,3.74l11.42.692c.126-3.124-.046-4.848,0-7.365-8.98-2.348-29.179-4.025-38.339-5.612l-.241-.023c-.4,3.777-.7,6.433-.824,7.231" transform="translate(-19.683 -1852.419)" fill="#e1e6e8"/>
        <path id="Path_12612" data-name="Path 12612" d="M1875.356,2019.389c-.358-.346-.728-.681-1.113-1-.12-.1-.243-.2-.367-.292-1.984-1.536-4.585-2.552-7.005-1.9a11.429,11.429,0,0,0-2.448,1.1l-2.665,1.454-.095.052q-4.077-1.823-8.159-3.648a12.923,12.923,0,0,0-2.007-.767c-.128-.033-.254-.061-.383-.087-.06-.011-.12-.022-.181-.032a8.518,8.518,0,0,0-6.785,2.234,17.923,17.923,0,0,0-4.326,6.6c-.929,2.192-1.681,4.465-2.72,6.605v3.089h57.719a9.451,9.451,0,0,0-1.209-.8,13.549,13.549,0,0,1-4.313-2.043c-1.42-1.124-2.426-2.763-4.013-3.635a10.206,10.206,0,0,0-2.745-.887l-1.656-.367c-.541-.572-1.111-1.12-1.707-1.637l.007-.01c-1.313-1.307-2.5-2.75-3.828-4.033" transform="translate(-1836.733 -1879.172)" fill="#fff"/>
        <path id="Path_12613" data-name="Path 12613" d="M1050.488,1863.884a.969.969,0,0,0,.511,1.015,2.524,2.524,0,0,0,1.328.213,7.185,7.185,0,0,0,3.919-1,7.355,7.355,0,0,0,.982-.858c.089-.089.176-.177.263-.266.609-.628,1.195-1.28,1.746-1.958a1.992,1.992,0,0,0,.5-.9.714.714,0,0,0-.469-.822l-.146-.047a5.664,5.664,0,0,1-.593.752,22.247,22.247,0,0,1-2.2,2.123,2.339,2.339,0,0,1-.5.348,2.714,2.714,0,0,1-.959.186,15.5,15.5,0,0,0-3.054.559,1.893,1.893,0,0,1-1.491.037c.061.205.119.413.168.62" transform="translate(-928.805 -1738.594)" fill="#fff9f4" stroke="#707070" stroke-linecap="round" stroke-width="1"/>
        <path id="Path_12614" data-name="Path 12614" d="M639.312,1934.626l0,.074c7.556-.077,16.837-.467,24.4-.545q-.572-1.048-1.143-2.091-1.75-3.867-3.726-7.626l.091-.047a2.652,2.652,0,0,0-.881-.305,4.705,4.705,0,0,0-.954-.05l0-.077c-1.3.1-16.185.237-18.417.059l0-.072a.93.93,0,0,0-1.528.891l-.069.011q.683,4.533,1.05,9.114l-.054.1c.024.029.05.059.076.087a1.5,1.5,0,0,0,1.157.482" transform="translate(-494.514 -1797.085)" fill="#fff"/>
        <path id="Path_12615" data-name="Path 12615" d="M1835.9,1178.216a9.122,9.122,0,0,0,1.669-1.383l.024.022a65.676,65.676,0,0,0,8.576-9.722c2.037-2.922,3.75-6.106,6.215-8.678l.048.018a14.688,14.688,0,0,0,.68-2.531l-.143-.031c.174-.817.25-1.661.461-2.472.067-.258.146-.509.237-.759-.089-.133-.183-.265-.279-.395l.024-.018a66.465,66.465,0,0,1-5-11.445c-.719-2.444-1.195-5.054-2.719-7.095-2.1-2.815-5.694-3.929-9.155-4.75a12.406,12.406,0,0,0-1.68-.4,50.759,50.759,0,0,1-.448,5.237l-.072.006a13.164,13.164,0,0,1-.033,2.291c-1.489-1.352-2.876-2.835-4.339-4.22-2.424-2.3-5.239-4.424-8.537-4.952-3.791-.607-7.52.967-11,2.67-.293.145-.585.289-.874.433a5.874,5.874,0,0,0-1.976,1.352,5.744,5.744,0,0,0-.987,2.389q-1.475,6.095-2.4,12.3a82.144,82.144,0,0,0-.976,10.561c-.117,6.3.791,12.6.413,18.884-.236,3.95-.974,7.97-.2,11.833.353.372.705.743,1.059,1.113.009-.326.02-.65.035-.97l.011-.167c.137-.752.872-1.221,1.541-1.593a77.562,77.562,0,0,1,13.448-6.141,39.974,39.974,0,0,1,10.456-2.013,6.328,6.328,0,0,1,.055,1.311l.363.017a24.119,24.119,0,0,1-1.018,4.528c.093-.065.185-.128.28-.191l.283-.187.006.008q2.537-2.039,5.072-4.074a8.051,8.051,0,0,0,.885-.787" transform="translate(-1792.429 -1073.958)" fill="#fff"/>
        <path id="Path_12616" data-name="Path 12616" d="M513.711,2060.171l0-.06a10.287,10.287,0,0,1-1.726-.045,2.257,2.257,0,0,0,1.554,2.165l62.562-.824c.905.083,1.482-1.647,1.482-1.647a.172.172,0,0,0,.011-.038c-.1-.156-.207-.312-.315-.465a13.9,13.9,0,0,1-1.383.185l-.02-.244c-.478-.137-59.458.907-62.162.973" transform="translate(-396.807 -1920.008)" fill="#fff"/>
        <path id="Path_12617" data-name="Path 12617" d="M2046.563,2043.622l-.142.3c.385.316.755.651,1.113,1a2.38,2.38,0,0,0,.028-.339q.027-1.114.053-2.224l-.037-.037a7.35,7.35,0,0,0-1.015,1.3" transform="translate(-2008.911 -1904.703)" fill="#fff9f4" stroke="#707070" stroke-linecap="round" stroke-width="1"/>
        <path id="Path_12618" data-name="Path 12618" d="M1048.138,1941.877v-.028q-2.6-.036-5.2-.074l0-.294c-.519-.041-1.039-.055-1.558-.046a.9.9,0,0,0-.416.08.778.778,0,0,0-.3.38,2.619,2.619,0,0,0-.22.809l-.12-.013q-.239,2.3-.474,4.595l9.783-.017v-.041a.691.691,0,0,0,.471-.18.7.7,0,0,0,.12-.831l-.267-.14q-.256-2.014-.507-4.031l.011-.085a9.755,9.755,0,0,0-1.321-.083" transform="translate(-918.402 -1813.156)" fill="#fff"/>
        <path id="Path_12619" data-name="Path 12619" d="M1053.182,1829a1.363,1.363,0,0,0-.15.4c.157.385.295.778.413,1.176a1.893,1.893,0,0,0,1.491-.036,15.528,15.528,0,0,1,3.054-.56,2.688,2.688,0,0,0,.959-.186,2.319,2.319,0,0,0,.5-.348,22.244,22.244,0,0,0,2.2-2.122,5.651,5.651,0,0,0,.593-.752,2.063,2.063,0,0,0,.372-1.174,3.124,3.124,0,0,0-1.446-2.087l-.3-.074c-.159.639-.315,1.274-.474,1.913a1.867,1.867,0,0,1-.276.7,1.834,1.834,0,0,1-.491.411q-1.378.909-2.758,1.817a2.554,2.554,0,0,1-.648.345,1.325,1.325,0,0,1-1.48-.57l-.261.017a3.5,3.5,0,0,0-1.3,1.131" transform="translate(-931.93 -1705.908)" fill="#fff9f4" stroke="#707070" stroke-linecap="round" stroke-width="1"/>
        <path id="Path_12620" data-name="Path 12620" d="M313.918,1960.247a.176.176,0,0,1-.011.039s-.576,1.729-1.482,1.646l-62.562.824a2.257,2.257,0,0,1-1.554-2.165,3.232,3.232,0,0,1,.154-.881c.094-.306,2.37-7.806,2.959-9.754q-.017-.172-.044-.343a26.958,26.958,0,0,1-2.567,1.6,7.88,7.88,0,0,1-6.876-.052q-1.306-.263-2.591-.613l.02-.1c-.676-.145-1.365-.237-2.05-.328l-3.028-.406-.018-.152c-.246.035-.494.057-.744.068a7.067,7.067,0,0,1,1.22,3.413l-.15.188c-1.674,2.329-3.615,3.246-6.207,4.474a15.775,15.775,0,0,0-2.609,1.346,24.063,24.063,0,0,1-2.7,2.206c-.057.105-.117.209-.18.309a2.744,2.744,0,0,1-.222.311l-2.657-.195a12.046,12.046,0,0,0-1.574-.044,7.9,7.9,0,0,0-4.1,1.624,20.938,20.938,0,0,0-2.85,2.643l.059.056a13.126,13.126,0,0,1-1.741,1.815l-.4.363-.006-.006a28.779,28.779,0,0,0-5.735,5.541v.489H342.146c.593-.042.87,0,2.783,0a9.841,9.841,0,0,0,7.01-4.444l.866-1.789.491-2c0-2.011-19.827-4.392-23.829-4.548a103.048,103.048,0,0,1-15.011-1.286l-.5-.051c-.015.093-.026.161-.035.2" transform="translate(-133.135 -1820.532)" fill="#e1e6e8"/>
        <path id="Path_12621" data-name="Path 12621" d="M244.128,573.924a1.9,1.9,0,0,1,1.2.624,1.941,1.941,0,0,1,.2,1.374c-.024.185-.052.37-.085.556-.063.381-.146.759-.246,1.132m-9.589-3.646c-.143-.206-.33-.341-.52-.261-.139.059-.137.257-.091.4a1.53,1.53,0,0,0,.476.708.388.388,0,0,0,.261.115C235.977,574.909,235.86,574.326,235.608,573.963Zm12.476,12.267c.043.124.089.246.139.369.326.789.8,1.513,1.154,2.291a3.658,3.658,0,0,1,.267,2.863,6.019,6.019,0,0,1-2.5,2.483c-2.672,1.718-5.913,3.033-6.376,5.346a72.523,72.523,0,0,0-1.037,11.115,50.669,50.669,0,0,1-.448,5.237m6.452-32.7a6.408,6.408,0,0,1-4.92.956m-7.2-15.961a5.2,5.2,0,0,0-3.172,3.187m2.665-5.287a13.632,13.632,0,0,0-4.713-3.6l-.33-.157m-1.624-5.3a4.917,4.917,0,0,1,1.239.283,18.318,18.318,0,0,1,5.924,3.989,8.153,8.153,0,0,1,2,3.839,6.613,6.613,0,0,1,.1.689M224.052,559.7a4.75,4.75,0,0,1,2.063,2.018,12.211,12.211,0,0,1,1.039,2.478c.9,2.859,1.481,5.974.6,8.83-.019.061-.037.122-.057.183m-5.885,5.139c-.152.233-.307.461-.47.683m2.785-10.485a15.115,15.115,0,0,1-1.352,8.063,14.707,14.707,0,0,1-.963,1.737m-4.769,5.633a4.61,4.61,0,0,0-.876-.005,3.855,3.855,0,0,0-1.346.348,2.962,2.962,0,0,0-1.622,1.895,3.324,3.324,0,0,0,.024,1.52,6.3,6.3,0,0,0,3.215,3.918,12.494,12.494,0,0,0,3.606,1.23c.457.092.919.17,1.378.239a6.77,6.77,0,0,0,2.061.085,2.52,2.52,0,0,0,1.737-1.017m-4.744-4.17a2.429,2.429,0,0,0-2.432.624m6.428-32.147a4.088,4.088,0,0,0-.507-.2,6.879,6.879,0,0,0-5.167.826c-1.746.922-3.311,2.2-5.163,2.889-1.059.395-2.189.589-3.23,1.03a14.592,14.592,0,0,0-2.724,1.667,25.967,25.967,0,0,0-5.528,4.826c-1.461,1.867-3.3,5.245-3.026,7.646.009.087.022.172.037.257m-.135,2.909a18.375,18.375,0,0,0,.9,13.537,10.83,10.83,0,0,0,2.233,3.224c3.269,3.1,10.8,1.869,13.641,5.328.043.054.085.106.126.161m.415,1.461c.011.031.024.061.033.091a5.248,5.248,0,0,1,.341,1.739c.041,2.139-1.354,3.711-1.63,6.054a6.289,6.289,0,0,0-.046.632m4.73-15.852c0,.222-.018.444-.043.667a7.917,7.917,0,0,1-2.124,4.585c-.043.044-.087.089-.131.133m23.043,10.784q.442.1.889.205c3.461.82,7.054,1.935,9.156,4.75,1.524,2.041,2,4.65,2.719,7.095a66.451,66.451,0,0,0,5,11.444M242.3,620.663a22.985,22.985,0,0,1-3.132-2.433c-1.489-1.352-9.578-8.645-12.876-9.172-3.791-.607-14.633,6-14.837,6.845-.983,4.063-3.935,49.719-3.165,53.582m59.147-43.349c2.061-.88,3.82-2.437,5.778-3.487a9.175,9.175,0,0,1,2.517-.95,3.674,3.674,0,0,1,1.448-.043,4.536,4.536,0,0,1,1.6.794,3.068,3.068,0,0,1,1.4,1.619,2.158,2.158,0,0,1-.548,1.861,4.42,4.42,0,0,1-.865.754c-.235.165-.483.315-.728.465m-.974-.911a2.244,2.244,0,0,0,.528,1.146c.035.05.07.1.1.152.085.13.163.263.235.4a4.692,4.692,0,0,1,.467,2.95,6.079,6.079,0,0,1-.265.989c-.107.309-.231.615-.356.919m-4.911-10.137a.872.872,0,0,0-.32-.606,1.39,1.39,0,0,0-.889-.317,4.366,4.366,0,0,0-1.593.495,9.449,9.449,0,0,1-2.174.624,9.221,9.221,0,0,0-1.055.193,2,2,0,0,0-.211.07l-.069.026a4.11,4.11,0,0,0-.891.554,22.419,22.419,0,0,0-3.393,3.193,6.52,6.52,0,0,0-.909,1.274,13.352,13.352,0,0,0-.644,1.833c-.561,1.67-1.6,3.157-2.193,4.806-.091.25-.17.5-.237.759-.211.811-.287,1.656-.461,2.472a6.962,6.962,0,0,1-.276.982m28.924-16.795c0,.074-.007.15-.015.224a35.114,35.114,0,0,1-1.176,6.32q-.678,2.7-1.38,5.393a48.056,48.056,0,0,1-3.291,9.674,2.966,2.966,0,0,1-.983,1.259,2.886,2.886,0,0,1-1.426.318,17.764,17.764,0,0,1-2.976-.148m9.893-23.571a109.073,109.073,0,0,0-16.332-2,1.557,1.557,0,0,0-.987.176,1.457,1.457,0,0,0-.463.75,10.832,10.832,0,0,0-.528,2.357m45.758,49.85c1.372-.255,2.609-1.211,4-1.133a5.655,5.655,0,0,1,1.339.3l3.941,1.243a1.243,1.243,0,0,1,.822.541.968.968,0,0,1-.057.789,3.163,3.163,0,0,1-2.269,1.622l-.076.017a22.4,22.4,0,0,1-2.8.229,11.548,11.548,0,0,0-4.337,1.233m2.328-.6a16.8,16.8,0,0,0-1.607,3.218,7.631,7.631,0,0,1-5.13,3.939m-3.311-7.611.056-.043q3.939-3.05,7.876-6.1a8.545,8.545,0,0,1,2.337-1.439,7.653,7.653,0,0,1,3.872-.048,34.358,34.358,0,0,1,5.711,1.544,2.146,2.146,0,0,1,.848.47,2.268,2.268,0,0,1,.193,2.115c-.024.1-.05.2-.074.3-.159.639-.315,1.274-.474,1.913a1.413,1.413,0,0,1-.767,1.109l-2.757,1.817a2.561,2.561,0,0,1-.648.344,1.285,1.285,0,0,1-1.315-2.106c.011-.013.022-.026.035-.039m2.73-4.358a4.3,4.3,0,0,0-.644,1.015m4.137.378a3.122,3.122,0,0,1,1.446,2.087,2.066,2.066,0,0,1-.372,1.174,5.7,5.7,0,0,1-.593.752,22.249,22.249,0,0,1-2.2,2.122,2.33,2.33,0,0,1-.5.348,2.7,2.7,0,0,1-.959.185,15.545,15.545,0,0,0-3.054.559,1.892,1.892,0,0,1-1.491.037.079.079,0,0,1-.024-.013,1.091,1.091,0,0,1-.389-1.163,1.365,1.365,0,0,1,.15-.4,3.5,3.5,0,0,1,1.3-1.132m7.9-1.248a.714.714,0,0,1,.469.822,1.993,1.993,0,0,1-.5.9c-.552.678-1.137,1.33-1.746,1.957-.087.089-.174.178-.263.267a7.33,7.33,0,0,1-.982.857,7.185,7.185,0,0,1-3.918,1,2.522,2.522,0,0,1-1.328-.213.969.969,0,0,1-.511-1.015.527.527,0,0,1,.044-.128m7.609-.833c.037.085.072.172.1.263a1.536,1.536,0,0,1-.12,1.524,1.923,1.923,0,0,1-.557.394,18.1,18.1,0,0,1-3.5,1.591,2.812,2.812,0,0,1-1.565.106,1.209,1.209,0,0,1-.922-1.144m-.391-.02a29.2,29.2,0,0,0-3.954,1.922l-.185.117a27.046,27.046,0,0,1-2.567,1.6,7.879,7.879,0,0,1-6.876-.052c-.128-.063-.254-.13-.378-.2m-1.433-9.6c-5.106-1.183-10.922-4.139-15.9-5.813a157.443,157.443,0,0,1-14.974-5.872m30.949,20.98c-.276-.08-.554-.148-.833-.208-.676-.144-1.365-.237-2.05-.328l-3.028-.406m.457,3.33a7.2,7.2,0,0,0-3.959-5.8c-.893-.431-1.867-.672-2.765-1.089a23.5,23.5,0,0,1-2.928-1.82c-1.3-.846-2.68-1.556-4.007-2.355a34.368,34.368,0,0,1-10.976-10.593q-.525-.8-1-1.626-.742-1.283-1.369-2.63c-1.748-3.759-2.817-7.845-4.981-11.376-.007-.013-.017-.026-.024-.039m11.554-17.291a2.083,2.083,0,0,1,.541.624,2.048,2.048,0,0,1,.226.609c.137.68-.072,1.387.031,2.07a22.2,22.2,0,0,1,.7,2.337,3.7,3.7,0,0,1-1.469,2.592,17,17,0,0,1-4.307,2.911q-.65.317-1.311.593c-1.919.8-4.172.635-5.678,2.25a15.143,15.143,0,0,0-1.493,1.915,66.885,66.885,0,0,0-3.35,6.2q-4.875,9.306-10.189,18.374c-2.976,5.078-6.946,9.4-10.591,14.024-1.926,2.443-4.083,3.654-5.6,5.233a7.354,7.354,0,0,0-1.015,1.3m22.3-54.421c-2.465,2.572-4.178,5.756-6.215,8.678a65.71,65.71,0,0,1-8.576,9.722m-4.348-26.671a33.313,33.313,0,0,1,.474,12.03m-2.333-8.554q2.508,10.625,5.015,21.252a4.215,4.215,0,0,1,.1,2.37,2.734,2.734,0,0,1-.6.933,8.134,8.134,0,0,1-.885.787q-2.536,2.036-5.072,4.074c-.011.007-.022.017-.033.026m4.187-5.439a30.679,30.679,0,0,0-4.122-.072,39.984,39.984,0,0,0-10.456,2.013,77.585,77.585,0,0,0-13.448,6.141c-.669.372-1.4.841-1.541,1.593m25.911-9.365c-.006.333-.022.646-.048.946a24.151,24.151,0,0,1-1.019,4.528c-.006.018-.009.037-.015.056m.578-.433c-.094.061-.189.124-.283.187s-.187.126-.28.191c-5.458,3.761-9.822,9.872-12.8,15.763m-12.056-11.706c-.015.32-.026.644-.035.97a93.4,93.4,0,0,0,2.076,20.235c.024.115.048.23.07.343.005.02.009.039.013.059m13.056-79.218a51.977,51.977,0,0,0-.6,9.022m6.111,3.083a30.638,30.638,0,0,0-4.619-1.378,9.073,9.073,0,0,0-4.267-.122c-2.13.583-3.657,2.4-5.043,4.117m82.606,62.036c-1.674,2.33-3.615,3.246-6.207,4.474a15.782,15.782,0,0,0-2.609,1.346,24.033,24.033,0,0,1-2.7,2.206,2.763,2.763,0,0,1-.939.3m1.6.4-1.063-.078-2.657-.195a12.1,12.1,0,0,0-1.574-.044,7.9,7.9,0,0,0-4.1,1.624,20.9,20.9,0,0,0-2.85,2.642l-.393.421m-1.691,1.807a28.779,28.779,0,0,0-5.735,5.541m12.554-7.859a15.57,15.57,0,0,1-.026,7.381m32.437-14.209c-3.654.491-7.046-2.226-10.732-2.263M254.656,709.06l-.478-.154a13.564,13.564,0,0,1-4.313-2.043c-1.421-1.124-2.426-2.763-4.013-3.635a10.219,10.219,0,0,0-2.745-.887l-1.656-.367-7.67-1.7m5.97.054c-1.313-1.307-2.5-2.75-3.828-4.033-.357-.346-.728-.682-1.113-1-.12-.1-.243-.2-.367-.293-1.985-1.535-4.585-2.552-7.006-1.9a11.419,11.419,0,0,0-2.448,1.1l-2.665,1.454-.094.052-9.226,5.033m9.408-4.952-.182-.082q-4.078-1.822-8.159-3.648a12.9,12.9,0,0,0-2.007-.767c-.128-.033-.254-.061-.383-.087-.059-.011-.12-.022-.181-.031-2.407-.391-10.076,6.394-11.111,8.837-.93,2.193-2.961,7.095-3.087,7.335m169.874-27.41c1.9-16.067,12.231,4.092,11.769,8.422-.4,3.778-.7,6.433-.824,7.231-.015.093-.026.161-.035.2a.174.174,0,0,1-.011.039s-.576,1.73-1.482,1.646l-62.562.824a2.257,2.257,0,0,1-1.554-2.165,3.237,3.237,0,0,1,.154-.882c.094-.306,2.37-7.806,2.959-9.754.091-.293.141-.459.141-.459m50-4.493c-.065.008-.643.019-1.613.03-7.245.083-36.35.226-36.834.189m49.082,14.5c-.478-.137-59.458.907-62.162.972l-.092,0m62.006-2.73q-.392-.614-.791-1.22a108.955,108.955,0,0,0-7.793-10.467m-27.78,1.252c.039.254.078.507.115.761q.683,4.533,1.05,9.113m25.63.194H366.5c-7.563.078-16.845.468-24.4.545m-13.17-3.5h-.4l-9.783.017q.236-2.3.474-4.595c.011-.109.022-.217.033-.326m9.093-.318q.253,2.017.507,4.032m-1.817-4.228q-2.6-.036-5.2-.074c-.1,0-.209,0-.313,0m40.095-1.294.017.033q1.972,3.759,3.726,7.626.225.494.444.991m-5.919-9.1c-1.3.1-16.185.237-18.417.059-.08-.006-.145-.013-.191-.02M406.1,700.669c-2.709-3.328-8.469-3.585-12.471-3.741a102.989,102.989,0,0,1-15.011-1.287m28.6-3.609-.3-.078c-8.98-2.348-18.582-1.983-27.741-3.57" transform="translate(-197.302 -556.079)" fill="none" stroke="#61132c" stroke-linecap="round" stroke-linejoin="round" stroke-width="1"/>
      </g>
    </g>
  </g>
</svg>
