<svg xmlns="http://www.w3.org/2000/svg" xmlns:xlink="http://www.w3.org/1999/xlink" width="66" height="66" viewBox="0 0 66 66">
  <defs>
    <clipPath id="clip-image_date">
      <rect width="66" height="66"/>
    </clipPath>
  </defs>
  <g id="image_date" clip-path="url(#clip-image_date)">
    <g id="Group_18063" data-name="Group 18063" transform="translate(-565 -717)">
      <circle id="Ellipse_12" data-name="Ellipse 12" cx="33" cy="33" r="33" transform="translate(565 717)" fill="#23c4a8"/>
      <g id="Group_17321" data-name="Group 17321" transform="translate(574.599 726.599)">
        <path id="Path_11865" data-name="Path 11865" d="M0,0H46.8V46.8H0Z" transform="translate(0)" fill="none"/>
        <path id="Path_11866" data-name="Path 11866" d="M20.151,36.2H6.9A3.9,3.9,0,0,1,3,32.3V8.9A3.9,3.9,0,0,1,6.9,5H30.3a3.9,3.9,0,0,1,3.9,3.9v7.8" transform="translate(2.85 4.75)" fill="none" stroke="#fff" stroke-linecap="round" stroke-linejoin="round" stroke-width="3"/>
        <ellipse id="Ellipse_8" data-name="Ellipse 8" cx="7.509" cy="8.087" rx="7.509" ry="8.087" transform="translate(27.778 26.843)" fill="none" stroke="#fff" stroke-linecap="round" stroke-linejoin="round" stroke-width="3"/>
        <path id="Path_11867" data-name="Path 11867" d="M15,3v7.8" transform="translate(14.251 2.85)" fill="none" stroke="#fff" stroke-linecap="round" stroke-linejoin="round" stroke-width="3"/>
        <path id="Path_11868" data-name="Path 11868" d="M7,3v7.8" transform="translate(6.65 2.85)" fill="none" stroke="#fff" stroke-linecap="round" stroke-linejoin="round" stroke-width="3"/>
        <path id="Path_11869" data-name="Path 11869" d="M3,11H34.2" transform="translate(2.85 10.45)" fill="none" stroke="#fff" stroke-linecap="round" stroke-linejoin="round" stroke-width="3"/>
        <path id="Path_11870" data-name="Path 11870" d="M18,16.5v2.933l1.95,1.95" transform="translate(17.101 15.672)" fill="none" stroke="#fff" stroke-linecap="round" stroke-linejoin="round" stroke-width="3"/>
      </g>
    </g>
  </g>
</svg>
