<svg xmlns="http://www.w3.org/2000/svg" xmlns:xlink="http://www.w3.org/1999/xlink" width="384" height="186" viewBox="0 0 384 186">
  <defs>
    <clipPath id="clip-path">
      <rect id="Rectangle_6895" data-name="Rectangle 6895" width="143" height="185" transform="translate(342 931)" fill="none" stroke="#707070" stroke-width="1"/>
    </clipPath>
    <clipPath id="clip-image_pregnant">
      <rect width="384" height="186"/>
    </clipPath>
  </defs>
  <g id="image_pregnant" clip-path="url(#clip-image_pregnant)">
    <g id="Group_19162" data-name="Group 19162">
      <g id="Mask_Group_56" data-name="Mask Group 56" transform="translate(-225 -931)" clip-path="url(#clip-path)">
        <g id="Group_19154" data-name="Group 19154" transform="translate(336.898 859.627)">
          <g id="Group_19153" data-name="Group 19153" transform="translate(-245.906 73.98)">
            <g id="Group_19152" data-name="Group 19152" transform="translate(0 0)">
              <path id="Path_12682" data-name="Path 12682" d="M179.755,270.584l-.505-.381a17.039,17.039,0,0,1,2.027-1.665l.022.031a9.218,9.218,0,0,0,4.171-3.774l.311-.269c.116-.22.225-.443.33-.669a5.4,5.4,0,0,0,.6-.361,13,13,0,0,0,1.922-1.753c.384-.4.767-.8,1.152-1.205a4.72,4.72,0,0,0,1.331-1.972,3.425,3.425,0,0,0-.837-2.622c-.04-.322-.083-.647-.122-.968l-.1-.006a1.968,1.968,0,0,0,.3-1.234c-.127-1.2-1.465-1.933-2.673-1.972a27.839,27.839,0,0,0-3.588.516,13.845,13.845,0,0,1-5.444-.925,8.408,8.408,0,0,0-7.508.271c-1.959.8-4.6,1.806-6.565,2.608-.217.008-.438.008-.656,0a80.975,80.975,0,0,1-8.279-6.512c-2.514-2.5-4.392-5.482-6.858-8.028-6.515-6.718-12.1-14.331-18.378-21.274-3.148-3.48-6.777-6.52-9.945-9.952l.193-.178a16.846,16.846,0,0,1-1.793-4.121q-.453-21.783-1.913-43.53V160.6l-.042-2.143a23.7,23.7,0,0,0-4.841-11.567,71.811,71.811,0,0,0-9.224-8.846,35.047,35.047,0,0,0-7.2-5.148,3.756,3.756,0,0,0-3.33-.353,4.153,4.153,0,0,0-1.5,1.832q-2.02,3.768-4.034,7.534c-.953,1.781-1.928,3.861-1.176,5.736l.5-.033a7.994,7.994,0,0,0,.339,1.922l-.352.107q.283,2.549.609,5.075a5.353,5.353,0,0,1-1.3-.947c-.006,0-.008,0-.011-.008a18.481,18.481,0,0,1-3.065-5.835,12.343,12.343,0,0,1-.592-5.14,16.583,16.583,0,0,1,1.187-4.1c1.194-3.009,2.595-5.931,3.994-8.85,1.83-3.813,3.73-7.722,6.845-10.579q.948-.863,1.962-1.623a34.8,34.8,0,0,1,9.811-4.958l2.292-.562c.031.011.065.022.1.037,3.021,1.14,5.964,3.725,8.408,5.82q5,4.28,9.995,8.558c4.483,3.839,9.089,7.748,14.613,9.82,2.244.842,4.92,1.31,6.907-.025,2.379-1.6,2.656-4.988,2.21-7.816a41.041,41.041,0,0,0-4.72-12.654v0a13.472,13.472,0,0,0-1.7-4.672,13.512,13.512,0,0,0,3.136.923,15.136,15.136,0,0,0,2.394.192,11.711,11.711,0,0,0,3.445,1.169,21.468,21.468,0,0,1,2.115.553,18.426,18.426,0,0,1,10.737,9.366c2.269,4.682,2.439,10.1,4.151,15.016.754,2.162,1.8,4.211,2.583,6.365,2.944,8.095,1.933,16.976,1.713,25.615l.094,0a6.882,6.882,0,0,1,.466,2.029,8.779,8.779,0,0,0-2.507-.313.845.845,0,0,0-.215.042l-.2-.632c-.778.249-1.56.5-2.339.743l.059.612q-2.278.221-4.556.438a5.981,5.981,0,0,0-4.79,2.585q-1.219,1.266-2.442,2.532a2.665,2.665,0,0,0-.717,1.034,1.622,1.622,0,0,0,.512,1.594,2.707,2.707,0,0,0,1.609.643l.347.481q-1.52,1.1-3.037,2.2a17.253,17.253,0,0,0-2.643,2.193,3.818,3.818,0,0,0-.861,1.344,1.8,1.8,0,0,0,.151,1.546,1.932,1.932,0,0,0,1.9.695c.1-.014.2-.035.294-.057a4.406,4.406,0,0,0,.065.514,5.166,5.166,0,0,0-.734,1.095,2.147,2.147,0,0,0-.11,1.708,2.236,2.236,0,0,0,2.263,1.157,6.92,6.92,0,0,0,2.317-.74c3.28-1.493,6.58-2.992,9.736-4.722q.1.258.186.52a51.642,51.642,0,0,1-4.917,3.909,6.33,6.33,0,0,0-1.708,1.5,2,2,0,0,0-.175,2.147,1.974,1.974,0,0,0,1.926.743,5.824,5.824,0,0,0,2.007-.809,110.87,110.87,0,0,0,10.988-6.71c.324-.234.649-.477.966-.728.133.485.249.977.352,1.467a8.384,8.384,0,0,1-1.423,2.066c-.982,1.085-2.14,2-3.11,3.089-.458.514-.9,1.22-.615,1.846a1.28,1.28,0,0,0,1.219.666,3.041,3.041,0,0,0,1.38-.479,21.029,21.029,0,0,0,2.261-1.57c1.036-.791,2.072-1.578,3.028-2.459.392-.361.77-.737,1.138-1.126.011.584.028,1.172.039,1.758a90.538,90.538,0,0,1,14.195,46.7h0c2.494,5.114,2.689,11.008,2.813,16.7q.378,17.409.472,34.828l.28,0a3.561,3.561,0,0,1-.1,1.9H98.068l-.147,0a549.662,549.662,0,0,1,5.535-69.089l-.395-.093.237-1.017c4.759,5.112,9.656,10.1,14.849,14.771a190.638,190.638,0,0,0,17.562,13.622c2.95,2.092,5.914,4.169,8.928,6.165a45.379,45.379,0,0,0,5.844,3.342l-.158.341a10.665,10.665,0,0,0,1.832,1.268c1.592,2.117,4.042,3.39,6.425,4.55q4.817,2.345,9.741,4.468a7.751,7.751,0,0,0,3.957.909,7.846,7.846,0,0,0,2.425-.878c.205-.1.411-.2.618-.308l1.284-1.067a4.861,4.861,0,0,0,3.15-1.456" transform="translate(171.238 -35.137)" fill="#fff2ca"/>
              <path id="Path_12683" data-name="Path 12683" d="M189.9,253.768a3.426,3.426,0,0,1,.838,2.622,4.723,4.723,0,0,1-1.332,1.972c-.384.4-.768.8-1.152,1.205a12.945,12.945,0,0,1-1.922,1.753,5.3,5.3,0,0,1-.6.361q-.156.34-.33.669l-.31.269a9.221,9.221,0,0,1-4.172,3.774l-.022-.031a17.042,17.042,0,0,0-2.027,1.665l.505.381a4.861,4.861,0,0,1-3.15,1.456l-1.284,1.067c-.205.1-.411.206-.618.308a7.835,7.835,0,0,1-2.425.878,7.751,7.751,0,0,1-3.957-.909q-4.919-2.121-9.741-4.468c-2.383-1.161-4.832-2.433-6.425-4.55a10.708,10.708,0,0,1-1.832-1.268l.158-.341a45.291,45.291,0,0,1-5.843-3.342c-3.015-2-5.979-4.073-8.928-6.165a190.654,190.654,0,0,1-17.563-13.622c-5.194-4.668-10.091-9.659-14.849-14.771l-1.287-1.388-1.268-1.121c-2.566-2.436-3.283-6.182-3.87-9.67-3.226-19.182-7.606-38.106-10.161-57.96q-.326-2.529-.61-5.075l.352-.107a7.929,7.929,0,0,1-.338-1.922l-.5.033c-.75-1.874.223-3.955,1.177-5.736q2.015-3.763,4.033-7.534a4.161,4.161,0,0,1,1.5-1.832,3.755,3.755,0,0,1,3.33.353,35.085,35.085,0,0,1,7.2,5.148,71.883,71.883,0,0,1,9.224,8.846,23.7,23.7,0,0,1,4.84,11.567l.042,2.143v.033q1.457,21.742,1.913,43.53a16.931,16.931,0,0,0,1.793,4.121l-.192.178c3.167,3.432,6.8,6.473,9.944,9.952,6.279,6.943,11.864,14.556,18.378,21.274,2.467,2.546,4.344,5.533,6.859,8.028a80.728,80.728,0,0,0,8.279,6.512c.217.009.437.009.655,0,1.967-.8,4.606-1.806,6.565-2.608a8.408,8.408,0,0,1,7.508-.271,13.849,13.849,0,0,0,5.445.925,27.839,27.839,0,0,1,3.588-.516c1.209.039,2.547.77,2.673,1.972a1.961,1.961,0,0,1-.3,1.234l.1.006c.04.321.082.646.122.968" transform="translate(171.617 -32.962)" fill="#fee8dc"/>
              <path id="Path_12684" data-name="Path 12684" d="M170.891,184.925c-.1-.491-.22-.982-.352-1.467-.317.251-.641.494-.966.728a111.113,111.113,0,0,1-10.988,6.709,5.8,5.8,0,0,1-2.007.811,1.974,1.974,0,0,1-1.926-.743,2,2,0,0,1,.175-2.149,6.329,6.329,0,0,1,1.708-1.5,51.816,51.816,0,0,0,4.917-3.909c-.06-.175-.122-.348-.186-.52-3.157,1.73-6.456,3.229-9.736,4.722a6.892,6.892,0,0,1-2.317.739,2.233,2.233,0,0,1-2.263-1.157,2.149,2.149,0,0,1,.109-1.707,5.136,5.136,0,0,1,.735-1.1,4.382,4.382,0,0,1-.066-.513c-.1.022-.194.042-.293.056a1.934,1.934,0,0,1-1.9-.694,1.8,1.8,0,0,1-.149-1.548,3.839,3.839,0,0,1,.861-1.344,17.316,17.316,0,0,1,2.643-2.193q1.52-1.1,3.037-2.2l-.348-.479a2.717,2.717,0,0,1-1.609-.643,1.625,1.625,0,0,1-.511-1.6,2.649,2.649,0,0,1,.717-1.032q1.219-1.266,2.442-2.532a5.989,5.989,0,0,1,4.79-2.586q2.278-.216,4.556-.437l-.059-.612c.778-.246,1.561-.494,2.339-.743l.2.632a.836.836,0,0,1,.214-.042,8.77,8.77,0,0,1,2.507.313,26.61,26.61,0,0,0,2.973.66c.774.094,1.561.077,2.331.2,2.927.448,5.245,2.752,6.788,5.278a5.059,5.059,0,0,1,.794,4.482,21.446,21.446,0,0,1-5.282,10.148q-.55.584-1.137,1.126c-.957.881-1.992,1.668-3.028,2.459a21.021,21.021,0,0,1-2.261,1.569,3.043,3.043,0,0,1-1.38.481,1.281,1.281,0,0,1-1.219-.667c-.28-.627.157-1.332.614-1.845.971-1.09,2.129-2,3.111-3.089a8.383,8.383,0,0,0,1.423-2.066" transform="translate(178.552 -28.915)" fill="#fee8dc"/>
              <path id="Path_12685" data-name="Path 12685" d="M124.857,86.753a10.079,10.079,0,0,1-2.416.28c-.367,1.626-.68,3.288-.951,4.987a41.321,41.321,0,0,0-.492,9.272c.19,2.777,1.994,9.645.2,13.679a3.371,3.371,0,0,1-.268.319,5.227,5.227,0,0,1-2.261,1.157,25.891,25.891,0,0,1-5.617,1.34,5.949,5.949,0,0,1-2.359-.19q-.432.335-.872.65l-.094-.13q-1.6.937-3.207,1.88c-.031-.013-.065-.026-.1-.037l-2.292.562a34.834,34.834,0,0,0-9.811,4.959l-.28-.367c7.469-5.061,5.405-38.447,14.853-56.571,3.621-6.946,7.8-13.4,13.775-18.469,5.8-4.925,14.274-8.064,21.794-6.825l.011-.076a21.909,21.909,0,0,1,6.289,1.183c4.891,1.1,9.213,4.318,12.405,8.239a52.447,52.447,0,0,1,8.277,13.379,31.827,31.827,0,0,1,2.653,8.149,11.865,11.865,0,0,1-.894,6.723l-.048-.022a14.422,14.422,0,0,1-2.529,1.823,16.077,16.077,0,0,0,.09-1.97l.369,0a12.627,12.627,0,0,0-1.115-5.039,5.667,5.667,0,0,0-1.3-1.933,4.419,4.419,0,0,0-2.886-1.056,6.9,6.9,0,0,0-3.023.737l-.133-.184a13.749,13.749,0,0,0-8.566,2.3c-2.58,1.555-4.858,3.559-7.347,5.256a36.623,36.623,0,0,1-21.782,6.272Z" transform="translate(172.659 -42.98)" fill="#f0c09b"/>
              <path id="Path_12686" data-name="Path 12686" d="M169.332,79.589a16.836,16.836,0,0,1-.319,1.945l.037.01c-.229,4.136-3.478,7.418-4.917,11.3a24.584,24.584,0,0,0-1.194,6.7l-.5-.039c-.921,6.557-5.259,11.019-9.959,15.259a8.625,8.625,0,0,1-3.471,1.985,9.424,9.424,0,0,1-2.547.341,15.015,15.015,0,0,1-2.394-.192,13.411,13.411,0,0,1-3.135-.923,13.516,13.516,0,0,1,1.7,4.672v0a41.041,41.041,0,0,1,4.72,12.654c.446,2.829.168,6.218-2.211,7.816-1.987,1.335-4.663.866-6.906.026-5.524-2.072-10.131-5.981-14.613-9.82q-5-4.282-9.995-8.559c-2.444-2.094-5.389-4.68-8.408-5.82q1.6-.94,3.206-1.88l.094.13q.44-.314.872-.65a5.956,5.956,0,0,0,2.36.19,25.818,25.818,0,0,0,5.616-1.341,5.219,5.219,0,0,0,2.261-1.156,3.26,3.26,0,0,0,.269-.32c1.8-4.033-.007-10.9-.2-13.678a41.311,41.311,0,0,1,.491-9.271c.271-1.7.584-3.362.951-4.988a10.178,10.178,0,0,0,2.416-.279l.068.272A36.6,36.6,0,0,0,145.419,77.7c2.49-1.695,4.768-3.7,7.347-5.255a13.745,13.745,0,0,1,8.568-2.3l.133.184a6.891,6.891,0,0,1,3.023-.737,4.416,4.416,0,0,1,2.884,1.056,5.692,5.692,0,0,1,1.3,1.933,12.645,12.645,0,0,1,1.115,5.038l-.37,0a16.086,16.086,0,0,1-.09,1.97" transform="translate(173.946 -39.92)" fill="#fee8dc"/>
              <path id="Path_12687" data-name="Path 12687" d="M144.97,43.342c-.169-.035-.341-.062-.514-.09-7.52-1.24-15.99,1.9-21.794,6.825-5.97,5.067-10.152,11.521-13.773,18.469-9.447,18.123-7.385,51.509-14.853,56.57m54.731-81.082a16.378,16.378,0,0,1,1.99.324c4.891,1.1,9.213,4.318,12.405,8.239a52.481,52.481,0,0,1,8.275,13.38,31.821,31.821,0,0,1,2.654,8.148,11.863,11.863,0,0,1-.9,6.723,8.49,8.49,0,0,1-.894,1.457M157.94,53.983a11.072,11.072,0,0,1,2.987,3.164c3.454,4.9,5.93,8.8,7.1,14.221M122.054,92.71a5.488,5.488,0,0,0,3.358,3.023m10.424-33.414c-7.361,6.974-11.263,15.208-13.4,24.715-.367,1.626-.68,3.288-.951,4.987a41.324,41.324,0,0,0-.491,9.272c.188,2.777,1.993,9.645.194,13.679a5.453,5.453,0,0,1-.813,1.323" transform="translate(172.659 -42.98)" fill="none" stroke="#733021" stroke-linecap="round" stroke-linejoin="round" stroke-width="1.519"/>
              <path id="Path_12688" data-name="Path 12688" d="M160.023,99.071c-.92,6.556-5.258,11.019-9.958,15.259a8.622,8.622,0,0,1-3.472,1.985,9.416,9.416,0,0,1-2.546.341,15.136,15.136,0,0,1-2.394-.192,13.38,13.38,0,0,1-3.135-.923,25.281,25.281,0,0,1-7-4.553c-1.758-1.618-4.406-4.68-5.245-7.237m19.4,2.34c1.829,2.111,4.361,3.194,6.978,1.84m7.658-21.717a4.244,4.244,0,0,1,3.808.951M143.99,84.449c1.974-1.23,6.45-1.586,8.57.306m3.517,7.479a5.083,5.083,0,0,0-.164,2.854c.234.671.551,1.394.74,2.086a2.686,2.686,0,0,1-.193,1.868,5.557,5.557,0,0,1-1.445,1.677m5.3-5.947a1.742,1.742,0,0,1-1.7-.254m-9.639-1.355a3.293,3.293,0,0,1-3.034-.835M166.1,73.306A7.832,7.832,0,0,1,167,77.193a16.083,16.083,0,0,1-.09,1.97,17.341,17.341,0,0,1-.319,1.945,12.821,12.821,0,0,1-.8,2.479" transform="translate(176.367 -39.493)" fill="none" stroke="#733021" stroke-linecap="round" stroke-linejoin="round" stroke-width="1.623"/>
              <path id="Path_12689" data-name="Path 12689" d="M145.35,120.59v0c.02.119.037.234.054.353m-60,37.552c0,.006.006.009.011.009m78.625-88.413a13.748,13.748,0,0,0-8.566,2.3c-2.58,1.555-4.858,3.56-7.348,5.256a36.611,36.611,0,0,1-21.783,6.272M175.425,276.7a4.414,4.414,0,0,0,1.18.07,4.855,4.855,0,0,0,3.15-1.456,4.166,4.166,0,0,0,.358-.42m1.782-12.081c2.241-.686,4.72-.68,6.766-1.823a3.829,3.829,0,0,0,1.406-1.29,1.966,1.966,0,0,0,.3-1.233c-.127-1.2-1.465-1.935-2.673-1.974a27.839,27.839,0,0,0-3.588.516,13.825,13.825,0,0,1-5.444-.925,8.407,8.407,0,0,0-7.508.271c-1.959.8-4.6,1.806-6.565,2.608a.484.484,0,0,1-.046.02m19.748,10.08a3.962,3.962,0,0,0,1.823-.474,5.585,5.585,0,0,0,.6-.361,13.068,13.068,0,0,0,1.922-1.754q.575-.605,1.151-1.2a4.708,4.708,0,0,0,1.332-1.974,3.426,3.426,0,0,0-.837-2.622.857.857,0,0,0-.328-.2M181.3,273.3a9.212,9.212,0,0,0,4.171-3.774m-33.346-.468c.011.013.02.028.031.039,1.591,2.117,4.042,3.391,6.423,4.55q4.818,2.347,9.742,4.468a7.741,7.741,0,0,0,3.957.91,7.876,7.876,0,0,0,2.425-.879c.205-.1.411-.2.618-.308.26-.129.522-.26.782-.392M103.456,230.7a549.662,549.662,0,0,0-5.535,69.091v.045m98.4-53.464c2.5,5.116,2.69,11.008,2.814,16.7q.378,17.411.472,34.828c0,.433.006.864.009,1.3M181.8,199.171c.107.167.217.333.322.5a90.538,90.538,0,0,1,14.195,46.7c.006.223.009.446.011.672q.033,2.519-.076,5.039m-17.569-57.994a4.964,4.964,0,0,1-.479,1.793,8.425,8.425,0,0,1-1.423,2.066c-.982,1.084-2.14,2-3.11,3.087-.458.514-.9,1.22-.615,1.846a1.28,1.28,0,0,0,1.219.666,3.041,3.041,0,0,0,1.38-.479,21.033,21.033,0,0,0,2.261-1.57c1.036-.791,2.072-1.578,3.028-2.459q.589-.542,1.137-1.126a21.441,21.441,0,0,0,5.282-10.148,5.064,5.064,0,0,0-.793-4.482c-1.544-2.525-3.862-4.829-6.789-5.278-.77-.118-1.558-.1-2.331-.194a26.3,26.3,0,0,1-2.971-.661,8.818,8.818,0,0,0-2.507-.313.884.884,0,0,0-.215.042c-.116.042-.212.116-.206.234m-2.28,16.786c-.167.156-.336.308-.505.46a51.642,51.642,0,0,1-4.917,3.909,6.331,6.331,0,0,0-1.708,1.5,2,2,0,0,0-.175,2.149,1.975,1.975,0,0,0,1.926.741,5.824,5.824,0,0,0,2.007-.809,110.87,110.87,0,0,0,10.988-6.71c.324-.234.649-.477.966-.728a10.557,10.557,0,0,0,1.659-1.589m-24.12,2.182c-.1.11-.192.223-.284.336a5.212,5.212,0,0,0-.735,1.095,2.152,2.152,0,0,0-.109,1.708,2.234,2.234,0,0,0,2.263,1.157,6.917,6.917,0,0,0,2.317-.739c3.28-1.494,6.58-2.993,9.736-4.723a54.034,54.034,0,0,0,6.237-3.935m-6.707-9.574a18.267,18.267,0,0,1-2.029,1.621q-3.42,2.475-6.842,4.956-1.52,1.1-3.037,2.2a17.252,17.252,0,0,0-2.643,2.193,3.819,3.819,0,0,0-.861,1.344,1.8,1.8,0,0,0,.149,1.547,1.933,1.933,0,0,0,1.9.695c.1-.015.2-.033.293-.057a7.665,7.665,0,0,0,1.68-.728c4.6-2.385,9.96-4.716,13.786-8.211m-.615-8.347-.615.059q-2.278.221-4.556.438a5.989,5.989,0,0,0-4.79,2.586q-1.219,1.266-2.442,2.531a2.665,2.665,0,0,0-.717,1.034,1.623,1.623,0,0,0,.511,1.594,2.718,2.718,0,0,0,1.609.644m-39.22,25.886c.262.3.531.593.8.886,3.168,3.432,6.8,6.473,9.945,9.952,6.277,6.944,11.864,14.556,18.378,21.274,2.466,2.547,4.344,5.533,6.858,8.028a80.855,80.855,0,0,0,8.279,6.512c.359.251.686.479.977.68M86.1,154.377q.283,2.549.609,5.075c2.554,19.854,6.935,38.777,10.162,57.96.586,3.489,1.3,7.234,3.87,9.67l1.267,1.121,1.288,1.389c4.759,5.111,9.656,10.1,14.849,14.77a190.445,190.445,0,0,0,17.562,13.622c2.95,2.092,5.914,4.169,8.928,6.165a45.3,45.3,0,0,0,5.844,3.342l.036.017m-64.9-115.126c-.751-1.874.223-3.954,1.176-5.736q2.015-3.763,4.034-7.533a4.134,4.134,0,0,1,1.5-1.832,3.752,3.752,0,0,1,3.33.352,35.052,35.052,0,0,1,7.2,5.149,71.8,71.8,0,0,1,9.224,8.845,23.7,23.7,0,0,1,4.841,11.568l.042,2.142v.033q1.455,21.742,1.913,43.53c.014.52.022,1.037.033,1.555m30.27-93.423a11.728,11.728,0,0,0,3.446,1.169,21.466,21.466,0,0,1,2.115.553,18.424,18.424,0,0,1,10.736,9.366c2.27,4.683,2.44,10.1,4.152,15.017.754,2.162,1.8,4.211,2.583,6.364,2.944,8.1,1.933,16.976,1.713,25.616-.011.375-.019.748-.026,1.123m-31.816-60.615a9.021,9.021,0,0,0-.634,6.156m2.853-3.135q.534.965,1.053,1.945m0,0a41.041,41.041,0,0,1,4.72,12.654c.446,2.829.169,6.218-2.21,7.816-1.987,1.335-4.663.866-6.907.026-5.524-2.072-10.131-5.982-14.613-9.821q-5-4.28-9.995-8.558c-2.444-2.094-5.388-4.68-8.408-5.82-.031-.014-.065-.026-.1-.037l-2.292.562a34.82,34.82,0,0,0-9.811,4.959q-1.012.758-1.962,1.622c-3.116,2.857-5.015,6.766-6.845,10.579-1.4,2.919-2.8,5.84-3.994,8.85a16.627,16.627,0,0,0-1.189,4.1,12.359,12.359,0,0,0,.593,5.139,18.481,18.481,0,0,0,3.065,5.835m.011.009a4.518,4.518,0,0,0,1.223,1.03m30.834,6.6a15.176,15.176,0,0,0,4.773-6.655,23,23,0,0,0,.575-6.795m-14.248-35.926a20.934,20.934,0,0,0,2.661-1.623c.294-.209.584-.426.872-.649a28.744,28.744,0,0,0,5.291-5.472" transform="translate(171.238 -39.87)" fill="none" stroke="#733021" stroke-linecap="round" stroke-linejoin="round" stroke-width="1.519"/>
            </g>
          </g>
        </g>
        <path id="Path_12690" data-name="Path 12690" d="M180.466,71.84c-2.572-.314-4.544,2.742-4.926,5.544a6.5,6.5,0,0,0-2.362-3.4c-1.443-1.1-3.312-1.66-4.995-.417a3.73,3.73,0,0,0-1.278,3.364c.349,3.8,3.189,6.713,6.154,8.774,1.04.722,2.843,1.954,3.491,1.95.772-.008,1.281-.942,1.731-1.421.583-.62,1.036-1.205,1.585-1.85a14.607,14.607,0,0,0,3.149-5.544,8.992,8.992,0,0,0,.289-4.562A3.2,3.2,0,0,0,180.466,71.84Z" transform="translate(406.178 890.802) rotate(45)" fill="#d74f4e" stroke="#732b1d" stroke-miterlimit="10" stroke-width="0.253"/>
      </g>
      <line id="Line_518" data-name="Line 518" x2="384" transform="translate(0 185)" fill="none" stroke="#732b1d" stroke-width="0.5"/>
    </g>
  </g>
</svg>
