<svg xmlns="http://www.w3.org/2000/svg" xmlns:xlink="http://www.w3.org/1999/xlink" width="188" height="91" viewBox="0 0 188 91">
  <defs>
    <clipPath id="clip-image_girl">
      <rect width="188" height="91"/>
    </clipPath>
  </defs>
  <g id="image_girl" clip-path="url(#clip-image_girl)">
    <g id="Group_18964" data-name="Group 18964" transform="translate(-12.034 -53.76)">
      <g id="Group_18653" data-name="Group 18653" transform="translate(13.034 54.76)">
        <path id="Path_12613" data-name="Path 12613" d="M51.521,118.912c.217.081.431.182.642.279a12.529,12.529,0,0,1,1.858,1l.06-.08.579.435-.061.082a4.342,4.342,0,0,0-.57-.233,7.61,7.61,0,0,0-2.052-.267,3.064,3.064,0,0,0-1.174.11,1.615,1.615,0,0,0-.358.184v-.072h.017c.012-.562.02-1.16.025-1.783l.093,0,.943.337Z" transform="translate(-12.985 -54.576)" fill="#fef1e9"/>
        <path id="Path_12614" data-name="Path 12614" d="M51.263,126.137a.785.785,0,0,1,.252.62.8.8,0,0,1-.609.624.333.333,0,0,1-.043.01,2.406,2.406,0,0,1-.875,0l-.283-.06q.211-.984.35-1.983l.12.017.569.286-.053.1a2.4,2.4,0,0,1,.572.386" transform="translate(-12.987 -54.556)" fill="#fef1e9"/>
        <path id="Path_12615" data-name="Path 12615" d="M50.2,123.982l.016.042c-.042.441-.093.882-.157,1.32q-.139,1-.351,1.983-.067.321-.144.639c-.02.085-.071.191-.157.179a.173.173,0,0,1-.1-.074,2.372,2.372,0,0,1-.255-.392,4.507,4.507,0,0,1-.41-1.514c-.02-.159-.036-.318-.052-.475-.04-.377-.078-.752-.115-1.129l-.435-.007a.657.657,0,0,0,.574-.282l.053-.219a1.278,1.278,0,0,0,.417.1,2.439,2.439,0,0,0,1.115-.175" transform="translate(-12.989 -54.556)" fill="#b5a3b8"/>
        <path id="Path_12616" data-name="Path 12616" d="M50.445,120.35v.073a3.974,3.974,0,0,0-.965,1.068l-.445.634-.114-.08c-.029-1.026-.045-2.12-.048-3.248-.011-3.022.066-6.274.22-9.023a2.077,2.077,0,0,1,.168-.847.709.709,0,0,1,.7-.417c.49.077.6.727.587,1.223-.052,2.585-.03,5.966-.058,8.834,0,.623-.013,1.221-.025,1.783Z" transform="translate(-12.988 -54.581)" fill="#b5a3b8"/>
        <path id="Path_12617" data-name="Path 12617" d="M177.982,87.411a11.989,11.989,0,0,1-.611-1.762c-.1-.344-.492-.818-.408-1.163A1.92,1.92,0,0,1,178,83.334c.218-.121.449-.227.672-.323,1.158-.5,2.073-.577,3.232-1.074.762-.329,1.952-.622,2.731-.878l.039-.013c.118-.039.227-.078.322-.116.5-.2.623,1.183.845,1.669q.455.989.907,1.977l.059-.027.951.983c.918-.215,2.114,2,2.417,3.094.323,1.16.983,2.047,1.1,3.246.392,4.19,3.167,8.408,4.04,11.78,1.056,4.071,3.694,7.776,3.478,11.977a5.894,5.894,0,0,1-1.927,4.489,6.787,6.787,0,0,1-1.98.933c-7.091,2.353-14.748,2.357-22,4.166-4.713,1.176-10.032.576-14.894.978l-.014.243a3.867,3.867,0,0,1-.537-.069l.038-.026.442-1.522a17.752,17.752,0,0,0-3.869-14.381,15.571,15.571,0,0,0-13.092-5.31,1.909,1.909,0,0,1-2.043-.011l-.073.109a15.7,15.7,0,0,1-2.993-2.585c.549-.244,1.1-.487,1.646-.732l-.023-.08a32.367,32.367,0,0,1,13.749-.589l.013-.083c.07-.119.141-.24.213-.359l.161.094c.974-1.119,3.1-3.181,3.689-4.543.269-.624.624-1.235.915-1.851a13.618,13.618,0,0,1,1.6-2.118c1.17-1.48,1.654-2.083,2.231-2.275a6.471,6.471,0,0,1,1.359-1.386c.462-.78,1.053-1.763,1.477-2.481a2.4,2.4,0,0,1,.582-.742c.253-.19,1.074-.012,1.344.154l-.129.157.387.711A25.967,25.967,0,0,0,169,89.185a2.979,2.979,0,0,0,1.115.417c.129-.215.257-.43.387-.646.132-.176.264-.353.392-.532l.14.1a2.069,2.069,0,0,1,.616,1.888,4.1,4.1,0,0,1-.847,1.574q-.856,1.143-1.709,2.286l-.305-.074a3.461,3.461,0,0,0-.275,1.922l.074.007a15.082,15.082,0,0,1-.493,2.5c-.216.835-.389,1.377-.582,2.218a15.294,15.294,0,0,1-.667,2.388,3.58,3.58,0,0,1-.639,1.069l-.011.035a123.067,123.067,0,0,0,16.284,4.319,9.165,9.165,0,0,0-.32-1.307l.09-.03q-1.818-5.361-3.639-10.722a20.276,20.276,0,0,1-1.129-6.423,3.1,3.1,0,0,0,.326-2.686Z" transform="translate(-12.798 -54.609)" fill="#d0e5e9"/>
        <path id="Path_12618" data-name="Path 12618" d="M177.256,81.112a12.752,12.752,0,0,0-4.031-5.451,16.591,16.591,0,0,1-1.481-1.2,2.96,2.96,0,0,1-.87-1.41,3.14,3.14,0,0,1,.965-2.789,10.624,10.624,0,0,1,1.872-1.435l.06-.039c.18-.118.359-.237.535-.36a15.226,15.226,0,0,0,3.621-3.538c.126-.172.249-.345.367-.521.157-.238.309-.478.454-.724a16.211,16.211,0,0,1,1.6-2.545,3.542,3.542,0,0,1,2.035-1.222,4.194,4.194,0,0,1,.738-.4,1.12,1.12,0,0,1,.913-.78.961.961,0,0,1,.612.154h.223v-.148a.762.762,0,0,1,1.12.027,1.054,1.054,0,0,1,.253.657l.107.077.077-.106c.231-.2.464.269.391.57-.321,1.33-1.394,2.331-2.037,3.539-1.126,2.114-.864,4.658-1.109,7.041-.174,1.713-.624,3.44-.3,5.133.284,1.507.93,3.118,1.18,4.672a2.4,2.4,0,0,0,.069.534c.007.07.013.138.017.207-.778.256-1.969.548-2.731.877-1.158.5-2.074.576-3.232,1.074-.223.1-.454.2-.672.323-.059-.1-.128-.212-.195-.335l.013-.007a12.565,12.565,0,0,0-.559-1.88" transform="translate(-12.798 -54.76)" fill="#fef1e9"/>
        <path id="Path_12619" data-name="Path 12619" d="M176.359,64.736c.272-.2.851-.63,1.163-.605a.559.559,0,0,1,.391.751l.013.01a15.245,15.245,0,0,1-3.62,3.539c-.176.122-.355.241-.536.359a25.693,25.693,0,0,1,1.434-3.406c.166-.271.275-.606.56-.746a.554.554,0,0,1,.595.1" transform="translate(-12.798 -54.76)" fill="#fef1e9"/>
        <path id="Path_12620" data-name="Path 12620" d="M164.8,85.652l.284-.345a22.941,22.941,0,0,0,3.127-4.585,7.983,7.983,0,0,1,.837-1.55c.295-.375.673-.676.988-1.036a7.179,7.179,0,0,0,1.344-3.09c.128-.19.247-.383.36-.583a16.591,16.591,0,0,0,1.481,1.2,12.76,12.76,0,0,1,4.031,5.451,2.22,2.22,0,0,1-.206.365l.1.028a1.434,1.434,0,0,1-.863.863c-.376.112-1.1.313-1.461.457a4.229,4.229,0,0,0-1.872,2.242,26.727,26.727,0,0,1-2.061,3.357c-.128.179-.26.357-.393.533l-.387.646A2.994,2.994,0,0,1,169,89.185a25.838,25.838,0,0,1-3.939-2.664l-.387-.712c.043-.052.085-.1.129-.157" transform="translate(-12.798 -54.693)" fill="#fef1e9"/>
        <path id="Path_12621" data-name="Path 12621" d="M111.881,87.05c.105-.175.221-.364.351-.567a3.17,3.17,0,0,1-2.139-.177,4.011,4.011,0,0,1-.444-.224l.022-.036a20.005,20.005,0,0,1,7.386-1.185c3.163-.045,6.66-1.028,9.466,1.073,2.741,2.052,4.144,5.487,5.209,8.623a39.043,39.043,0,0,0,1.638,4.393,15.745,15.745,0,0,0,5.47,6.278l.073-.11a1.909,1.909,0,0,0,2.043.012,15.569,15.569,0,0,1,13.092,5.31,17.752,17.752,0,0,1,3.869,14.381l-.442,1.522-.038.026a5.276,5.276,0,0,1-2.138.7,51.711,51.711,0,0,1-10.529.68c-3.409-.128-6.874-.59-10.2.174l-.058.152a11.9,11.9,0,0,0-4.1-1,4.41,4.41,0,0,0-3.859,1.88,7.791,7.791,0,0,0-1.569.972l0-.139a12.673,12.673,0,0,0-6.871-.73,1.3,1.3,0,0,0,.054-.309,3.486,3.486,0,0,0,.561-1.03q2.267-5.618,4.532-11.235.935-2.317,1.9-4.62.292-.7.589-1.4l.121,0c0-.083,0-.168,0-.251a14.375,14.375,0,0,0-2.369-.71,44.608,44.608,0,0,0-4.8-1.323c-1.592-.3-3.75-.691-5.3-.069l.143.218q-.273.686-.546,1.4c-1.528,4-3.008,8.549-4.306,12.622-1.475.041-3.25.195-5.074.378a1.714,1.714,0,0,1-.307-.289c-1.261-.956-2.852-1.333-4.141-2.241a11.833,11.833,0,0,1-3.136-3.555c-.745-1.225-1.388-2.535-2.127-3.775a2.871,2.871,0,0,1-.456.169c-.33.36-.656.677-.988,1.061l-.65-.076-.671-.078a12.647,12.647,0,0,1-5.014-1.633,27.049,27.049,0,0,1-3.474-2.293,3.889,3.889,0,0,1-.394-.342c-.424-.438-.387-.793-.044-1.521,1.038-2.191,1.636-4.559,2.487-6.829a13.7,13.7,0,0,1,3.9-6.033l.01-.125a6.751,6.751,0,0,1,1.654-1.353,7.108,7.108,0,0,1,.617.946l-.136.074a2.79,2.79,0,0,0,2.617,1.585,5.233,5.233,0,0,0,3.058-1.234c.336-.259.651-.539.961-.827.111.183.226.365.344.543q-.048,1.364-.092,2.725a4.159,4.159,0,0,0,.767,3.149,3.326,3.326,0,0,0,1.708.8,8.765,8.765,0,0,0,9.8-5.721c.579-1.823.386-3.259.7-5.146a8.251,8.251,0,0,1,1.266-3.66" transform="translate(-12.885 -54.588)" fill="#fff"/>
        <path id="Path_12622" data-name="Path 12622" d="M126.555,128.954a4.413,4.413,0,0,1,3.859-1.88,11.943,11.943,0,0,1,4.1,1l.344.132,4.944,1.918c3.593,1.394,7.394,2.815,11.2,2.231l.022.153a6.536,6.536,0,0,0,1.3-.288q2.439,2.841,5.069,5.515l-.711.112-.478.075a29.451,29.451,0,0,1-13.186-3.83c-2.146-1.226-4.213-2.754-6.644-3.2-2.288-.418-5.048.55-5.841,2.667-.1.138-.205.275-.309.413a1.731,1.731,0,0,1-.675.626.7.7,0,0,1-.381.038l.006-.043c-3.283-6.019-12.811-2.722-17.652-.832a57.823,57.823,0,0,0-12.394,6.682c-.139.1-.279.2-.417.3a4.3,4.3,0,0,1,.42-2.614l-.11-.1a12.458,12.458,0,0,1,1.181-1.151l.166.307,7.212-3.911c1.452-.787,2.911-1.578,4.412-2.267h0a26.384,26.384,0,0,1,3.968-1.492,17.91,17.91,0,0,1,2.155-.46,12.682,12.682,0,0,1,6.871.731l0,.138a7.836,7.836,0,0,1,1.569-.972" transform="translate(-12.875 -54.51)" fill="#fff"/>
        <path id="Path_12623" data-name="Path 12623" d="M99.134,140.66c-.007-.071-.01-.141-.01-.212a57.748,57.748,0,0,1,12.393-6.682c4.841-1.891,14.37-5.188,17.652.832l-.005.042a.7.7,0,0,0,.381-.038,1.729,1.729,0,0,0,.675-.625c.1-.139.207-.275.309-.414.793-2.117,3.553-3.085,5.84-2.667,2.432.445,4.5,1.973,6.645,3.2a29.444,29.444,0,0,0,13.186,3.83l.477-.076a3.683,3.683,0,0,0,.5.87l-.092.048c.342.293.72.6.758.79A32.392,32.392,0,0,1,146.6,138.15c-2.567-.866-4.663-2.651-6.917-4.15a7.221,7.221,0,0,0-5.337-1.285,3.821,3.821,0,0,0-2.705,2.1l.007.01q-.572.419-1.125.867l.076.093a2.014,2.014,0,0,1-1.375.508.728.728,0,0,1-.709.1c-.428-.181-.547-.7-.783-1.114a.015.015,0,0,0-.007-.012,7.3,7.3,0,0,0-5.314-2.756c-2.334-.151-4.662.779-6.852,1.455a57.981,57.981,0,0,0-13.155,6.1c-1.008.621-4,3.013-3.3.6Z" transform="translate(-12.874 -54.51)" fill="#fff"/>
        <path id="Path_12624" data-name="Path 12624" d="M83.557,128.861c-.292-.026-.585-.048-.876-.068a49.967,49.967,0,0,0-6.689-.149l-.01-.17c-.008-.413.023-.825.056-1.237l.009-.1c.025-.291.048-.583.073-.874l.153-1.888a2.076,2.076,0,0,1,.136-.691c.171-.375.545-.617.769-.962.265-.406.3-.927.567-1.333a1.87,1.87,0,0,1,1.591-.742,5.078,5.078,0,0,1,1.766.441,27.964,27.964,0,0,1,3.185,1.535c.572.31,1.138.628,1.7.936v0c.3.172.6.344.9.517.172.1.435.176.531.006,3.459,0,7.088-.5,10.518-.783,1.741-.143,3.738-.367,5.683-.559,1.823-.183,3.6-.338,5.074-.378,1.3-4.073,2.777-8.622,4.305-12.622q.273-.712.546-1.4l-.143-.218c1.553-.621,3.711-.227,5.3.07a44.608,44.608,0,0,1,4.8,1.323,14.278,14.278,0,0,1,2.369.71c0,.083,0,.167,0,.25l-.12,0q-.3.7-.59,1.4-.969,2.3-1.9,4.62-2.267,5.616-4.531,11.235a3.49,3.49,0,0,1-.562,1.03,1.192,1.192,0,0,1-.054.308,17.91,17.91,0,0,0-2.155.46,26.384,26.384,0,0,0-3.968,1.492h0l-.346-.245a31.437,31.437,0,0,1-5.9.072l-10.64-.162-.02.188q-1.326-.568-2.688-1.035a2.258,2.258,0,0,0-1.3-.167c-.355.093-.675.356-1.042.332-.246-.018-.5-.163-.725-.061a.5.5,0,0,0-.154.117l-.087-.074a13.328,13.328,0,0,1-2.314-.265l.012-.056a8.648,8.648,0,0,0-3.235-.792" transform="translate(-12.925 -54.51)" fill="#fef1e9"/>
        <path id="Path_12625" data-name="Path 12625" d="M89.419,92.873a7.691,7.691,0,0,0-.876-.7,15.1,15.1,0,0,0-2.591-1.325l-.017-.169c-.55-.195-1.169-.454-1.358-1.006a2.34,2.34,0,0,1,.072-1.221,6.15,6.15,0,0,0-.082-2.823l-.188.035a5.29,5.29,0,0,0-1.22-2.572l.065-.072a8.384,8.384,0,0,1-.771-.772,6.417,6.417,0,0,1-1.3-2.815,18.163,18.163,0,0,1-.321-2.945,1.282,1.282,0,0,1-.169-.176l.195-.093a7.136,7.136,0,0,0,2.727-.1c.46-.139.887-.369,1.353-.487a5.914,5.914,0,0,1,3.207.393l0,.013a4.456,4.456,0,0,1,.719.256c.585.262,1.134.6,1.73.841a5,5,0,0,0,1.039.284l-.023.144a2.714,2.714,0,0,0,1.241,1.27,5.207,5.207,0,0,0,1.726.511c.134.019.271.035.406.055h0a2.707,2.707,0,0,1,1.15.363c.338.225.573.576.9.816a9.888,9.888,0,0,0,1.148.57c.038.021.075.042.113.066.316.2.575.471.886.675a1.143,1.143,0,0,0,1.054.179,1.508,1.508,0,0,0,.627-.71c.287-.515.572-1.032.859-1.547l.145.081a1.62,1.62,0,0,1,.93-.758,1.916,1.916,0,0,1,1.817.5,3.112,3.112,0,0,1,.855,1.744,3.927,3.927,0,0,1,.048.733l.3,0c.266-.1.534-.209.8-.327l.009.019q.276.739.553,1.478l-.021.01a8.175,8.175,0,0,0,2,2.449,4.064,4.064,0,0,0,.5.345,4.194,4.194,0,0,0,.444.224,3.17,3.17,0,0,0,2.139.177q-.194.3-.351.567a8.251,8.251,0,0,0-1.266,3.66c-.317,1.887-.123,3.323-.7,5.146a8.765,8.765,0,0,1-9.8,5.721,3.33,3.33,0,0,1-1.709-.8,4.159,4.159,0,0,1-.766-3.149q.043-1.362.091-2.725c-.118-.178-.233-.36-.343-.543-.31.288-.626.568-.962.827a5.23,5.23,0,0,1-3.057,1.234,2.793,2.793,0,0,1-2.618-1.585l.137-.074a7.209,7.209,0,0,0-.617-.946,7.624,7.624,0,0,0-.851-.945m14.709-7.5a18,18,0,0,0,.251-2.26,1.973,1.973,0,0,0-.265-1.081.959.959,0,0,0-.83-.459,1.292,1.292,0,0,0-1.107,1.614c.124.422.461.557.614.969a6.424,6.424,0,0,1-.123,2.695c-.057.419.518.923.858.328a4.559,4.559,0,0,0,.6-1.806M89.743,86.6c.224.031.322-.137.281-.32a.947.947,0,0,0-.437-.576.23.23,0,0,0-.333.267,1.745,1.745,0,0,0,.29.484.316.316,0,0,0,.2.145" transform="translate(-12.93 -54.677)" fill="#fef1e9"/>
        <path id="Path_12626" data-name="Path 12626" d="M94.242,59.966a3.739,3.739,0,0,1,2.942-5.189,3.85,3.85,0,0,1,3.685,1.86,3.3,3.3,0,0,1-.649,3.985l-.04-.024c-.138.225-.276.449-.416.675-.289.47-.639.982-1.181,1.09a3.313,3.313,0,0,0,.845.57,8.006,8.006,0,0,1,2.43,2.111l-.062.082c1.1.85,2.552,1.617,3.412,2.359a24.191,24.191,0,0,1,2.391,2.14,8.986,8.986,0,0,1,2.1,5.508c.086,1.637-.084,4.362-1.334,5.593l-.092-.071a3.756,3.756,0,0,1-.851.707,6.272,6.272,0,0,1-.81.419c-.264.118-.531.223-.8.328l-.3-.005a3.774,3.774,0,0,0-.048-.733,3.114,3.114,0,0,0-.854-1.743,1.916,1.916,0,0,0-1.817-.5,1.613,1.613,0,0,0-.93.758l-.146-.082q-.429.774-.858,1.547a1.5,1.5,0,0,1-.627.71,1.143,1.143,0,0,1-1.054-.179c-.311-.2-.57-.478-.886-.675-.038-.023-.076-.045-.114-.065a10.056,10.056,0,0,1-1.148-.571c-.327-.24-.563-.591-.9-.816a2.692,2.692,0,0,0-1.15-.362h0c-.136-.021-.272-.037-.406-.056a5.2,5.2,0,0,1-1.726-.51,2.716,2.716,0,0,1-1.241-1.271l.023-.144a4.936,4.936,0,0,1-1.039-.284c-.6-.235-1.145-.579-1.73-.841a4.589,4.589,0,0,0-.719-.256l0-.013a5.934,5.934,0,0,0-3.207-.393c-.466.118-.894.348-1.354.488a7.171,7.171,0,0,1-2.726.105l-.195.093a1.691,1.691,0,0,1-.243-.428,3.387,3.387,0,0,1-.175-.7c-2.157-2.907-.362-5.939,2-8.08a50.158,50.158,0,0,1,4.28-3.2c1.3-.949,4.576-2.367,6.376-2.008l.328-.1a2.915,2.915,0,0,0,.892.08.642.642,0,0,0,.4-.129c.208-.188.13-.526.033-.789l-.352-.978Z" transform="translate(-12.933 -54.76)" fill="#ffdc9d"/>
        <path id="Path_12627" data-name="Path 12627" d="M104.378,83.114a18,18,0,0,1-.25,2.26,4.561,4.561,0,0,1-.6,1.806c-.34.6-.915.091-.858-.328a6.408,6.408,0,0,0,.123-2.695c-.152-.411-.49-.547-.614-.969a1.292,1.292,0,0,1,1.108-1.614.959.959,0,0,1,.829.459,1.964,1.964,0,0,1,.265,1.081" transform="translate(-12.919 -54.679)" fill="#fff"/>
        <path id="Path_12628" data-name="Path 12628" d="M77.26,133.795a.917.917,0,0,1,.386-.534.25.25,0,0,0,.027,0h.012c0,.124.007.249.016.371a1.742,1.742,0,0,0,.192.818.722.722,0,0,0,.166.183c.038.213.074.425.11.638a.966.966,0,0,0-.16.436,1.04,1.04,0,0,0,1.118.336l.014.045a.855.855,0,0,0,1.087-.029.344.344,0,0,1,.152-.1.308.308,0,0,1,.231.089,1.779,1.779,0,0,0,1.743.155,1.439,1.439,0,0,1,.379-.152,1.256,1.256,0,0,1,.717.214,1.633,1.633,0,0,0,1.777-.094c.132-.122.249-.283.425-.323.209-.045.406.1.6.187a2.805,2.805,0,0,0,1.927-.572l-.074-.04a1.113,1.113,0,0,0,.247-.247,5.9,5.9,0,0,0,.457.383c1.724,1.309,4.813.58,6.657-.034.428-.141.786-.061,1.326-.211l-.048-.237a1.267,1.267,0,0,0,1.011-.967l.1.021a1.644,1.644,0,0,0-.235-1.228l.086-.048.463.194a16.911,16.911,0,0,1,3.671.412c.392.087.847.256.934.647.092.421-.311.777-.688.982a15.782,15.782,0,0,1-5.665,1.787,74.425,74.425,0,0,1-14.318.61c-1.659-.067-3.322-.169-4.98-.271-.983-.059-2.469-.215-2.718-1.4-.061-.285.164-.545.384-.734a6.138,6.138,0,0,1,2.433-1.285Z" transform="translate(-12.942 -54.51)" fill="#fff"/>
        <path id="Path_12629" data-name="Path 12629" d="M88.355,135.17a2.533,2.533,0,0,1-.786-1.228,2.435,2.435,0,0,1-.061-.584c0-.126,0-.252.014-.377.007-.083.013-.164.021-.246.037-.451.075-.9.113-1.351a2.488,2.488,0,0,1,.063-.4.7.7,0,0,1,.407-.54c.24-.082.525.031.748-.092a1.447,1.447,0,0,0,.307-.308.519.519,0,0,1,.154-.118c.224-.1.479.044.725.061.367.025.687-.239,1.042-.332a2.267,2.267,0,0,1,1.3.168q1.362.465,2.688,1.034c.293.127.586.256.877.39a3.084,3.084,0,0,1,.64.364,3.122,3.122,0,0,1,.48.514,5.316,5.316,0,0,1,.539.768,1.642,1.642,0,0,1,.234,1.228l-.1-.022a1.27,1.27,0,0,1-1.012.968l.048.237c-.54.15-.9.07-1.325.211-1.844.614-4.933,1.343-6.658.034-.155-.12-.311-.246-.456-.383m5.378-3.741h.008a.305.305,0,0,0-.33-.4,1.11,1.11,0,0,0,.186.275.129.129,0,0,0,.136.121m-3.241.327a.267.267,0,0,0,.234.217.294.294,0,0,0-.087-.339.139.139,0,0,0-.147.122m5.338,1.582c.062.1.241-.074.138-.138-.074-.061-.2.061-.138.136Zm-6.144.758c.022-.064.038-.146-.013-.189s-.137.057-.079.078c-.01.053.034.123.092.111" transform="translate(-12.934 -54.51)" fill="#d3a06f"/>
        <path id="Path_12630" data-name="Path 12630" d="M91.513,114.408a5.527,5.527,0,0,1-.863,1.163q-2.874,3.237-5.752,6.472a3.766,3.766,0,0,0-.588.533l-.023.042a28.059,28.059,0,0,0-3.186-1.535,5.045,5.045,0,0,0-1.766-.441,1.862,1.862,0,0,0-1.59.742c-.264.406-.3.927-.568,1.333-.224.345-.6.586-.768.962a2.043,2.043,0,0,0-.137.691q-.077.942-.153,1.887c-.025.291-.048.584-.073.875,0,.035,0,.07-.008.1a1.381,1.381,0,0,1-.77-.039l-.019-.134q-7.682,1.125-15.416,1.806l0-.033a20.147,20.147,0,0,0-2.056.03,2.992,2.992,0,0,1-1.516.469,33.555,33.555,0,0,1-3.7.208,2.209,2.209,0,0,1-1.944-.691l-.384-.077a1.417,1.417,0,0,0,.506-.476,1.034,1.034,0,0,0,.162-.741l-.04-.167.044-.01a.8.8,0,0,0,.608-.625.788.788,0,0,0-.252-.62,2.339,2.339,0,0,0-.571-.385l.052-.1c-.189-.1-.38-.191-.569-.285l-.119-.018c.064-.438.115-.879.157-1.319l-.016-.043a2.439,2.439,0,0,1-1.115.175,1.3,1.3,0,0,1-.417-.1.653.653,0,0,1-.306-.274c-.183-.345.05-.757.274-1.078.133-.192.269-.384.4-.576l.445-.635a3.972,3.972,0,0,1,.965-1.068,1.6,1.6,0,0,1,.358-.185,3.084,3.084,0,0,1,1.174-.109,7.6,7.6,0,0,1,2.052.266,4.484,4.484,0,0,1,.57.233,27.052,27.052,0,0,0,2.909,1.636l.023-.028a5.037,5.037,0,0,0,1.336.79l-.039-.347a29.127,29.127,0,0,0,6.4-1.428c.63-.218,1.253-.457,1.886-.666.654-.216,1.316-.4,1.976-.582l2.475-.686a11.235,11.235,0,0,1,3.286-.56l1.046-1.043a32.087,32.087,0,0,0,1.91-2.65,44.113,44.113,0,0,1,4.244-5.269l.09.059.115-.174a3.912,3.912,0,0,0,.395.342,27.038,27.038,0,0,0,3.473,2.293,12.652,12.652,0,0,0,5.014,1.633l.671.078a3.541,3.541,0,0,1-.3.383" transform="translate(-12.975 -54.561)" fill="#fef1e9"/>
        <path id="Path_12631" data-name="Path 12631" d="M75.992,128.644a50.132,50.132,0,0,1,6.689.148c.291.021.584.043.876.069a8.666,8.666,0,0,1,3.235.791l-.012.057a13.425,13.425,0,0,0,2.314.265l.087.074a1.451,1.451,0,0,1-.307.309c-.222.122-.508.01-.748.091a.7.7,0,0,0-.407.54l-.092-.023a2.249,2.249,0,0,0-2.081.076c-.145.084-.307.189-.467.136a.684.684,0,0,1-.208-.141,1.1,1.1,0,0,0-1.187-.107,1,1,0,0,1-.325.152.913.913,0,0,1-.477-.138,1.6,1.6,0,0,0-1.5.135,1.882,1.882,0,0,1-.515.319,1.139,1.139,0,0,1-.408.018,3.5,3.5,0,0,0-1.174.021,1.031,1.031,0,0,0-.793.782.723.723,0,0,0-.713.489,1.507,1.507,0,0,0-.09.551h-.012a.268.268,0,0,1-.028,0c-.906.085-3.068.221-3.933.408l-6.576,1.417a3.518,3.518,0,0,1-1.018.118,3.952,3.952,0,0,1-1.144-.344,27.276,27.276,0,0,0-5.758-1.571l.012-.089a10.719,10.719,0,0,1-3.541-1.361l0,.009a2.047,2.047,0,0,1-1.251-.125,23.11,23.11,0,0,0-4.166-.444,14.132,14.132,0,0,1-4.385-1.143,5.966,5.966,0,0,1,1.816-.792,1.26,1.26,0,0,0,.274-.44,3.564,3.564,0,0,0,2.263-.129l.384.077a2.209,2.209,0,0,0,1.944.691,33.309,33.309,0,0,0,3.7-.208,2.994,2.994,0,0,0,1.516-.468,20.147,20.147,0,0,1,2.056-.031l0,.034q7.731-.681,15.416-1.806l.019.134a1.39,1.39,0,0,0,.77.039c-.034.412-.064.823-.057,1.237Z" transform="translate(-12.98 -54.51)" fill="#fff"/>
        <path id="Path_12632" data-name="Path 12632" d="M79.127,136.04a1.04,1.04,0,0,1-1.118-.336.96.96,0,0,1,.161-.437,1.12,1.12,0,0,1,.3-.3,1.666,1.666,0,0,1,1.078-.242.652.652,0,0,0,.431-.051c.189-.131.173-.438.355-.579.228-.176.548.038.836.042.418.008.812-.436,1.192-.263.169.076.31.266.489.223a.484.484,0,0,0,.2-.147,1.91,1.91,0,0,1,2.241-.3.531.531,0,0,0,.278.1c.139-.006.238-.13.339-.229a1.231,1.231,0,0,1,1.465-.164h.128a2.487,2.487,0,0,0,.061.584,2.54,2.54,0,0,0,.786,1.228,1.157,1.157,0,0,1-.247.247l.074.039a2.792,2.792,0,0,1-1.927.572c-.2-.084-.393-.231-.6-.186-.176.039-.293.2-.425.323a1.631,1.631,0,0,1-1.777.093,1.271,1.271,0,0,0-.717-.214,1.491,1.491,0,0,0-.379.153,1.777,1.777,0,0,1-1.743-.156.311.311,0,0,0-.231-.088.328.328,0,0,0-.151.1.855.855,0,0,1-1.087.029Z" transform="translate(-12.946 -54.51)" fill="#d3a06f"/>
        <path id="Path_12633" data-name="Path 12633" d="M78.059,134.63a.741.741,0,0,1-.166-.183,1.742,1.742,0,0,1-.192-.818c-.009-.122-.017-.248-.016-.371a1.516,1.516,0,0,1,.09-.552.724.724,0,0,1,.713-.489,1.033,1.033,0,0,1,.793-.781,3.507,3.507,0,0,1,1.175-.022,1.112,1.112,0,0,0,.407-.017,1.906,1.906,0,0,0,.515-.319,1.592,1.592,0,0,1,1.5-.135.919.919,0,0,0,.478.138,1.023,1.023,0,0,0,.324-.153,1.1,1.1,0,0,1,1.188.108.672.672,0,0,0,.208.141.608.608,0,0,0,.467-.137,2.246,2.246,0,0,1,2.081-.075l.091.023a2.485,2.485,0,0,0-.062.4l-.114,1.351c-.007.082-.013.163-.02.246-.009.125-.015.251-.015.377h-.128a1.231,1.231,0,0,0-1.465.164c-.1.1-.2.223-.339.229a.531.531,0,0,1-.278-.1,1.91,1.91,0,0,0-2.241.3.484.484,0,0,1-.2.147c-.179.043-.32-.147-.489-.223-.379-.173-.774.271-1.191.263-.289,0-.609-.218-.837-.042-.182.141-.166.448-.355.579a.651.651,0,0,1-.431.051,1.666,1.666,0,0,0-1.078.242,1.12,1.12,0,0,0-.3.3c-.037-.212-.073-.425-.111-.637" transform="translate(-12.947 -54.51)" fill="#d3a06f"/>
        <path id="Path_12634" data-name="Path 12634" d="M62.246,141.542l-.06-.1a12.526,12.526,0,0,1,1.445-.751c1.24-.687,3.347-1.935,4.549-2.442a5.478,5.478,0,0,1,.994-.341,5.606,5.606,0,0,1,1.43-.063,41.316,41.316,0,0,1,5.2.579c.1.018.218.05.253.146a.271.271,0,0,1-.1.272,21.516,21.516,0,0,1-3.794,2.66c-1.034.62-2.489,2.027-3.746,2.006a13.4,13.4,0,0,1-1.815-.257c-1.062-.166-2.11-.4-3.166-.6a3.39,3.39,0,0,1-1.483-.483c-.224-.186-.01-.432.285-.627" transform="translate(-12.967 -54.51)" fill="#7b99ae"/>
        <path id="Path_12635" data-name="Path 12635" d="M37.451,132.712l.332-.051,22.335,4.932L38.2,139.32l-8.089-2.056c-3.577-.91-7.158-1.806-10.733-2.727a2.812,2.812,0,0,1-2.417-2.692c-.046-.582-.144-1.164-.221-1.742-.242-1.829-.5-3.657-.755-5.484q-.948-6.722-1.956-13.434c-.3-1.981-.7-3.829-.982-6.1,0,0-.236-1.189,1.4-1.186,1.934,0,16.737-.649,16.737-.649a2.549,2.549,0,0,1,2.051,2.052Zm.741,4.818.259-.041c2.348-.457,5.786-.486,8.15-.858a7.756,7.756,0,0,0,1.482-.191c-.818-.422-8.824-1.729-10.15-2.148l-.233.037Z" transform="translate(-13.034 -54.51)" fill="#f2f1ee"/>
        <path id="Path_12636" data-name="Path 12636" d="M50.741,128.3a1.417,1.417,0,0,1-.506.476,3.564,3.564,0,0,1-2.263.129,1.306,1.306,0,0,1-.144-.056,1.066,1.066,0,0,1-.626-.715l.031-.035a2.483,2.483,0,0,1-.322-.318l.92.1a1.885,1.885,0,0,0,.948-.059l.271-.14a2.349,2.349,0,0,0,.255.392.178.178,0,0,0,.1.074c.086.011.137-.1.157-.179.051-.213.1-.425.144-.639l.284.06a2.445,2.445,0,0,0,.874,0l.04.167a1.034,1.034,0,0,1-.162.741" transform="translate(-12.99 -54.51)" fill="#fef1e9"/>
        <path id="Path_12637" data-name="Path 12637" d="M45.6,125.911a1.041,1.041,0,0,1-.038-.528,3.412,3.412,0,0,0,2.72.783l.352,0a4.512,4.512,0,0,0,.41,1.515l-.27.14a1.889,1.889,0,0,1-.949.059c-.307-.032-.613-.065-.92-.1-.064,0-.129-.013-.193-.02a2.845,2.845,0,0,1-1.038-.246.965.965,0,0,1-.557-.85,1.242,1.242,0,0,1,.349-.7Z" transform="translate(-13.034 -54.555)" fill="#fef1e9"/>
        <path id="Path_12638" data-name="Path 12638" d="M45.982,121.96c-.028-.049-.054-.1-.081-.147a1.974,1.974,0,0,1-.344-1.125c.067-.584.626-.974,1.158-1.228a8.218,8.218,0,0,1,2.054-.662h.1c0,1.126.019,2.222.048,3.247l.114.08c-.134.193-.269.385-.4.576-.224.321-.457.734-.274,1.078a.653.653,0,0,0,.306.274l-.053.218a.656.656,0,0,1-.574.283.94.94,0,0,1-.479-.132,2.3,2.3,0,0,1-.729-.914l-.847-1.548" transform="translate(-13.034 -54.567)" fill="#fef1e9"/>
        <path id="Path_12639" data-name="Path 12639" d="M45.568,125.383c-.06-.047-.118-.093-.175-.141a1.924,1.924,0,0,1-.717-1.025,1.508,1.508,0,0,1,.306-1.168,3.583,3.583,0,0,1,.867-.793c.043-.1.089-.2.134-.295l.847,1.548a2.283,2.283,0,0,0,.729.912.93.93,0,0,0,.478.133l.435.007c.038.377.076.752.115,1.129.016.157.032.316.053.474l-.352,0a3.4,3.4,0,0,1-2.72-.783" transform="translate(-13.034 -54.561)" fill="#fef1e9"/>
        <path id="Path_12640" data-name="Path 12640" d="M48.082,136.44a7.734,7.734,0,0,1-1.481.192c-2.363.372-5.8.4-8.149.858l-.261.04-.491-3.2.234-.037c1.326.42,9.332,1.727,10.148,2.148" transform="translate(-13.034 -54.51)" fill="#f2f1ee"/>
        <path id="Path_12641" data-name="Path 12641" d="M127.866,135.5a.016.016,0,0,1,.008.012m-15.761-4.286h0M95.086,79.46h0m36.7,55.581a3.829,3.829,0,0,1,2.709-2.106,7.219,7.219,0,0,1,5.344,1.289c2.257,1.5,4.355,3.293,6.925,4.162a32.39,32.39,0,0,0,11.26,1.412c-.038-.19-.418-.5-.76-.792a2.03,2.03,0,0,1-.553-.6m-27.654-1.918a1.982,1.982,0,0,0,1.686-.477m-31.53,4.892c-.706,2.425,2.289.026,3.3-.6a58.025,58.025,0,0,1,13.171-6.116c2.193-.679,4.524-1.611,6.863-1.459a7.31,7.31,0,0,1,5.32,2.764m.008.012c.068.1.131.2.192.3M64.6,141.714l2.671.6a1.985,1.985,0,0,0,1.853-.328c.85-.49,3.4-2.084,4.251-2.574m-9.868,1.63c.061-.032.121-.067.187-.1,1.241-.689,3.351-1.94,4.554-2.449a5.482,5.482,0,0,1,1-.343,5.558,5.558,0,0,1,1.432-.062,41.31,41.31,0,0,1,5.211.581c.1.017.218.049.254.145a.273.273,0,0,1-.1.273,21.475,21.475,0,0,1-3.8,2.667c-1.035.622-2.492,2.033-3.752,2.013a13.266,13.266,0,0,1-1.816-.259c-1.062-.165-2.113-.4-3.17-.6a3.4,3.4,0,0,1-1.485-.484c-.224-.187-.01-.433.285-.629a2.636,2.636,0,0,1,.394-.211m-24.219-3.854c2.351-.458,5.793-.487,8.16-.86a7.757,7.757,0,0,0,1.484-.192c-.819-.423-8.835-1.734-10.162-2.154m-.151-1.636,22.363,4.945-21.947,1.733-8.1-2.062c-3.582-.913-7.168-1.811-10.748-2.735a2.82,2.82,0,0,1-2.42-2.7c-.045-.584-.144-1.167-.22-1.747q-.365-2.751-.757-5.5-.948-6.739-1.957-13.471c-.3-1.987-.7-3.84-.983-6.113,0,0-.236-1.192,1.4-1.189,1.937,0,16.759-.651,16.759-.651a2.556,2.556,0,0,1,2.055,2.058l4.223,27.483.249,1.622.493,3.21.09.585M176.543,64.783l.024-.019c.273-.2.852-.632,1.164-.607a.56.56,0,0,1,.391.753m-4.159,3.947.011-.028a25.98,25.98,0,0,1,1.436-3.416c.166-.272.275-.608.561-.747a.556.556,0,0,1,.6.1.326.326,0,0,1,.1.265m9.975-5.652c.232-.2.466.27.393.572-.322,1.334-1.395,2.338-2.04,3.549-1.128,2.12-.866,4.671-1.109,7.062-.176,1.717-.626,3.449-.3,5.146.282,1.511.93,3.127,1.18,4.685.03.179.052.358.069.535.006.07.013.139.017.208v.013m.234-22.427a.762.762,0,0,1,1.122.028,1.06,1.06,0,0,1,.254.658,1.493,1.493,0,0,1-.075.552,3.673,3.673,0,0,1-.667,1.086m-2.4-1.473c0-.024.013-.049.02-.074a1.123,1.123,0,0,1,.914-.782.961.961,0,0,1,.613.154.873.873,0,0,1,.392.554c.089.442-.1.8-.651,1.456m-6.581,22.193a12.384,12.384,0,0,0-.56-1.885,12.776,12.776,0,0,0-4.035-5.466,16.448,16.448,0,0,1-1.484-1.2,2.981,2.981,0,0,1-.871-1.414,3.157,3.157,0,0,1,.967-2.8,10.532,10.532,0,0,1,1.875-1.438l.058-.04c.181-.118.36-.238.538-.36a15.253,15.253,0,0,0,3.624-3.549c.127-.172.249-.346.368-.522.157-.238.31-.478.454-.725a16.317,16.317,0,0,1,1.6-2.552,3.547,3.547,0,0,1,2.039-1.226,2.356,2.356,0,0,1,.583-.016m-3.163,27.286a10.874,10.874,0,0,1,5.352-1.884m-7.092,2.414c-.029-.064-.058-.128-.085-.191a12.168,12.168,0,0,1-.613-1.768c-.1-.344-.491-.819-.407-1.165a1.926,1.926,0,0,1,1.033-1.156c.218-.12.452-.228.674-.324,1.159-.5,2.076-.578,3.235-1.077.764-.329,1.957-.623,2.735-.879l.039-.013c.118-.039.227-.079.321-.117.5-.2.624,1.186.848,1.674q.454.993.906,1.984c.029.063.059.127.089.19m-4.384,23.216c-.066-.2-.135-.4-.2-.6q-1.82-5.376-3.643-10.751a20.314,20.314,0,0,1-1.132-6.441c.044-.561.178-.963.434-1.109M158.173,126.4c4.868-.4,10.194.2,14.913-.981,7.257-1.813,14.923-1.818,22.024-4.178a6.751,6.751,0,0,0,1.983-.935,5.913,5.913,0,0,0,1.929-4.5c.216-4.213-2.425-7.928-3.482-12.012-.874-3.38-3.654-7.611-4.044-11.812-.112-1.2-.775-2.093-1.1-3.255-.3-1.093-1.5-3.318-2.419-3.1a.61.61,0,0,0-.172.073M163.23,124.417a29.251,29.251,0,0,0,4.2-2.377,9.846,9.846,0,0,0,3.18-3.575m-.079-29.187q.087-.111.174-.226c.132-.177.265-.355.393-.535a26.615,26.615,0,0,0,2.063-3.366,4.24,4.24,0,0,1,1.875-2.248c.365-.144,1.085-.346,1.463-.458a1.432,1.432,0,0,0,.864-.865m-5.7-6.769c-.023.1-.045.194-.071.292a7.186,7.186,0,0,1-1.347,3.1c-.314.36-.692.662-.989,1.039a8.021,8.021,0,0,0-.837,1.553,23.016,23.016,0,0,1-3.13,4.6q-.144.173-.285.346c-.044.053-.086.105-.13.157l.388.714a25.877,25.877,0,0,0,3.945,2.671,2.985,2.985,0,0,0,1.115.419,1.318,1.318,0,0,0,.406-.022M162.4,91.106a7.469,7.469,0,0,0,4.489,2.955m1.909,1.967c0,.072-.01.145-.015.217a14.883,14.883,0,0,1-.495,2.507c-.215.837-.387,1.38-.582,2.223a15.534,15.534,0,0,1-.667,2.395,3.628,3.628,0,0,1-.641,1.073m4.833-15.822a2.07,2.07,0,0,1,.616,1.892A4.09,4.09,0,0,1,171,92.092l-1.71,2.292M161.41,89.12c.058-.1.118-.2.179-.3.464-.782,1.055-1.767,1.48-2.488a2.4,2.4,0,0,1,.583-.744c.252-.19,1.074-.012,1.346.154v0m-13.216,15.284c.974-1.122,3.106-3.19,3.693-4.556.27-.626.626-1.238.917-1.856a13.661,13.661,0,0,1,1.6-2.125c1.17-1.484,1.656-2.088,2.234-2.28a1.247,1.247,0,0,1,.2-.05m-5.358,11.618c3.591-.138,7.047,1.213,10.44,2.4.292.1.587.2.882.3a123.424,123.424,0,0,0,16.3,4.331c.922.18,1.845.345,2.771.5m-49.248-6.863q.683-.266,1.408-.484a32.349,32.349,0,0,1,13.768-.591c.8.126,1.583.279,2.332.452m-19,26.307c3.329-.766,6.8-.3,10.213-.175a51.622,51.622,0,0,0,10.542-.681,5.268,5.268,0,0,0,2.14-.7l.039-.026.443-1.526a17.829,17.829,0,0,0-3.874-14.421,15.576,15.576,0,0,0-13.109-5.325c-.229.023-.461.052-.689.089M126.9,130.772a8.66,8.66,0,0,1,2.7,3.918m.953-.485a3.512,3.512,0,0,1,.127-.419c.794-2.123,3.559-3.094,5.848-2.674,2.435.446,4.5,1.979,6.652,3.209a29.46,29.46,0,0,0,13.2,3.841l.477-.076.713-.112q-2.633-2.678-5.075-5.53c-.011-.012-.022-.023-.032-.035m-25.825-3.143.058-.1a4.416,4.416,0,0,1,3.864-1.885,11.932,11.932,0,0,1,4.1,1.007l.344.133,4.95,1.923c3.6,1.4,7.4,2.822,11.215,2.236l.036-.006m-50.935,4.955.2-.107L107.7,133.5c1.453-.789,2.914-1.581,4.417-2.273m0,0a26.393,26.393,0,0,1,3.973-1.5,17.715,17.715,0,0,1,2.158-.46,12.674,12.674,0,0,1,6.881.732m-25.89,8.367a4.321,4.321,0,0,0-.421,2.622c.138-.1.278-.2.418-.3a57.912,57.912,0,0,1,12.41-6.7c4.847-1.9,14.387-5.2,17.674.835m-34.108-3.936,10.654.162a31.345,31.345,0,0,0,5.9-.072,15.29,15.29,0,0,0,1.612-.356m-27.694-1c.391.118.789.218,1.19.3a13.325,13.325,0,0,0,2.317.266m8.214,5.16a3.218,3.218,0,0,1-.5.19c-.541.15-.9.07-1.328.212-1.846.616-4.939,1.347-6.664.033a5.725,5.725,0,0,1-.459-.383,2.554,2.554,0,0,1-.787-1.232,2.489,2.489,0,0,1-.061-.585c0-.127.006-.253.015-.378.007-.083.013-.164.02-.247q.057-.678.113-1.356a2.6,2.6,0,0,1,.063-.4.7.7,0,0,1,.408-.542c.241-.082.527.03.749-.092a1.473,1.473,0,0,0,.307-.309.5.5,0,0,1,.155-.118c.224-.1.479.043.725.061.367.025.688-.24,1.043-.333a2.265,2.265,0,0,1,1.3.167q1.364.466,2.691,1.038c.294.127.587.257.878.391a3.038,3.038,0,0,1,.643.365,3.159,3.159,0,0,1,.48.514,5.473,5.473,0,0,1,.539.771,1.644,1.644,0,0,1,.234,1.231v0m-18.737,1.962a.857.857,0,0,0,1.089-.029.338.338,0,0,1,.151-.1.316.316,0,0,1,.231.089,1.779,1.779,0,0,0,1.745.156,1.492,1.492,0,0,1,.379-.153,1.261,1.261,0,0,1,.719.215,1.63,1.63,0,0,0,1.778-.093c.132-.122.249-.285.426-.324.209-.045.407.1.6.187a2.8,2.8,0,0,0,1.929-.574.294.294,0,0,0,.024-.026m-11-1.645a6.155,6.155,0,0,0-2.436,1.289c-.22.19-.446.451-.384.737.249,1.187,1.736,1.344,2.721,1.4,1.66.1,3.325.2,4.987.271a74.4,74.4,0,0,0,14.335-.611,15.824,15.824,0,0,0,5.672-1.792c.378-.206.782-.564.689-.985-.086-.393-.543-.563-.935-.65a16.909,16.909,0,0,0-3.676-.413c-.1,0-.191,0-.287,0m-2.056.295v0c-.059-.076.064-.2.138-.137.1.064-.076.241-.138.139m-2.85.747a.065.065,0,1,0-.059-.056m-3.331-.04,0,0m0,0c-.059-.022.029-.121.079-.078s.034.125.012.19C89.725,134.331,89.681,134.262,89.692,134.209Zm0,0a.064.064,0,0,1,.03-.046m4.138-2.5a.1.1,0,0,1-.025-.021.77.77,0,0,1-.135-.12,1.091,1.091,0,0,1-.187-.276.307.307,0,0,1,.332.4h-.01a.127.127,0,0,1-.135-.12.124.124,0,0,1,0-.027m-3.111.514a.082.082,0,0,1,0-.038m0,0a.136.136,0,0,1,.146-.122.3.3,0,0,1,.088.34A.27.27,0,0,1,90.591,131.973Zm0,0a.231.231,0,0,1,.01-.127m-12.5,4.309a.793.793,0,0,1-.006-.223.969.969,0,0,1,.16-.438,1.126,1.126,0,0,1,.3-.306,1.66,1.66,0,0,1,1.079-.243.658.658,0,0,0,.432-.051c.189-.131.173-.439.355-.581.228-.176.549.038.837.042.42.007.813-.437,1.194-.264.169.075.311.267.49.223a.468.468,0,0,0,.2-.147,1.913,1.913,0,0,1,2.245-.3.515.515,0,0,0,.278.1c.139-.005.237-.129.338-.229a1.231,1.231,0,0,1,1.467-.164M78.7,134.943a.536.536,0,0,1-.56-.087.766.766,0,0,1-.166-.185,1.745,1.745,0,0,1-.192-.819c-.009-.123-.018-.249-.016-.372a1.519,1.519,0,0,1,.09-.554.724.724,0,0,1,.714-.49,1.032,1.032,0,0,1,.794-.783,3.475,3.475,0,0,1,1.175-.022,1.116,1.116,0,0,0,.409-.018,1.9,1.9,0,0,0,.516-.319,1.594,1.594,0,0,1,1.506-.136.921.921,0,0,0,.477.139,1.009,1.009,0,0,0,.325-.153,1.1,1.1,0,0,1,1.189.108.716.716,0,0,0,.208.141c.16.052.322-.053.468-.137a2.249,2.249,0,0,1,2.084-.076m-39.789-1.671c-.063.013-.127.029-.19.045a5.994,5.994,0,0,0-1.818.794,14.163,14.163,0,0,0,4.39,1.147,23.106,23.106,0,0,1,4.171.444,2.048,2.048,0,0,0,1.253.126m2.942,1.392c.186.008.386.026.6.052a27.262,27.262,0,0,1,5.765,1.576,3.95,3.95,0,0,0,1.145.344,3.494,3.494,0,0,0,1.02-.118q3.291-.708,6.583-1.421c.866-.187,3.031-.324,3.939-.409l.028,0m5.3-4.886a.964.964,0,0,1,.591.475.639.639,0,0,1,.007.623m-3.192-.781a.81.81,0,0,1,.6,1.1m-3.19-.78a.811.811,0,0,1,.6,1.1m-3.191-.781a.811.811,0,0,1,.6,1.1m-3.191-.782a.811.811,0,0,1,.6,1.1m-3.19-.781a.813.813,0,0,1,.6,1.1M67.5,130.5a.813.813,0,0,1,.6,1.1m-3.191-.781a.809.809,0,0,1,.6,1.1m-3.189-.782a.811.811,0,0,1,.6,1.1m-3.191-.781a.811.811,0,0,1,.6,1.1m-3.191-.782a.812.812,0,0,1,.6,1.1m1.411-3.721.752-.065q7.741-.683,15.436-1.811l.459-.067m-25.121,1.86a2.209,2.209,0,0,0,1.947.694,33.529,33.529,0,0,0,3.7-.209,3,3,0,0,0,1.518-.47.65.65,0,0,0,.052-.039m-5.437-4.965a4.5,4.5,0,0,0,1.739,2.3m-3.29-7.453a2.923,2.923,0,0,1,.675.17c.217.082.432.183.643.281a12.483,12.483,0,0,1,1.86,1m-6.829,7.965a1.074,1.074,0,0,0,.627.716,1.216,1.216,0,0,0,.145.057,3.576,3.576,0,0,0,2.266-.13,1.411,1.411,0,0,0,.507-.477,1.036,1.036,0,0,0,.162-.742m-.916-.172a2.4,2.4,0,0,0,.875,0,.232.232,0,0,0,.044-.01.8.8,0,0,0,.609-.626.79.79,0,0,0-.251-.622,2.367,2.367,0,0,0-.573-.386m-5.226.209a1.244,1.244,0,0,0-.349.706.967.967,0,0,0,.558.852,2.835,2.835,0,0,0,1.038.247l.193.02c.307.033.615.067.922.1a1.874,1.874,0,0,0,.949-.06m-.307-3.267q.056.567.115,1.132c.016.158.031.317.052.476a4.584,4.584,0,0,0,.411,1.519,2.355,2.355,0,0,0,.256.392.168.168,0,0,0,.1.074c.086.012.138-.094.158-.18.05-.213.1-.426.143-.641.142-.658.258-1.322.352-1.989.063-.439.114-.881.156-1.324m-4.316-1.811-.053.038a3.648,3.648,0,0,0-.868.8,1.516,1.516,0,0,0-.306,1.172,1.929,1.929,0,0,0,.719,1.027c.057.048.114.1.175.141a3.4,3.4,0,0,0,2.723.785m-.573-5.652a4.129,4.129,0,0,1,1.049,1.521m.005-3.259a8.251,8.251,0,0,0-2.057.666c-.532.254-1.091.645-1.159,1.231A1.98,1.98,0,0,0,45.943,122l.082.149q.422.775.848,1.552a2.3,2.3,0,0,0,.73.916.936.936,0,0,0,.478.132.656.656,0,0,0,.576-.283m.311-2.233c-.03-1.029-.046-2.126-.048-3.257-.013-3.03.065-6.292.219-9.048a2.122,2.122,0,0,1,.167-.849.714.714,0,0,1,.7-.418c.491.077.6.729.588,1.226-.052,2.592-.03,5.983-.058,8.86,0,.624-.013,1.223-.025,1.787m8.29,2.345a.827.827,0,0,0,.087-.01,29.169,29.169,0,0,0,6.41-1.431c.631-.219,1.255-.458,1.889-.669.655-.216,1.317-.4,1.978-.584l2.478-.687a11.229,11.229,0,0,1,3.291-.562,4.816,4.816,0,0,1,.867.1m-18.235,3.414a27.172,27.172,0,0,1-2.913-1.641,4.427,4.427,0,0,0-.571-.234,7.605,7.605,0,0,0-2.054-.267,3.042,3.042,0,0,0-1.175.109,1.605,1.605,0,0,0-.359.186,4.015,4.015,0,0,0-.966,1.071c-.147.212-.3.424-.446.636-.133.193-.27.385-.4.579-.224.322-.458.735-.273,1.081a.643.643,0,0,0,.306.274,1.266,1.266,0,0,0,.418.1,2.434,2.434,0,0,0,1.115-.175,6.571,6.571,0,0,0,2.127-1.629m22.75-3.762a9.071,9.071,0,0,0,.859-.9,31.989,31.989,0,0,0,1.912-2.656,44.336,44.336,0,0,1,4.249-5.285m2.5,12.683c.118-.132.236-.266.352-.4q2.881-3.246,5.759-6.491a5.475,5.475,0,0,0,.864-1.165c.016-.034.032-.067.047-.1m21.868-6.21c1.554-.623,3.715-.228,5.309.07a44.547,44.547,0,0,1,4.805,1.327,14.252,14.252,0,0,1,2.372.712,1.345,1.345,0,0,1,.847.939m-.966-.691q-.3.7-.59,1.4-.972,2.309-1.906,4.633-2.268,5.632-4.536,11.267a3.48,3.48,0,0,1-.564,1.033,1.389,1.389,0,0,1-.183.176m-31.042-4.868c.145,0,.292,0,.439,0,3.463,0,7.1-.5,10.53-.785,1.743-.143,3.745-.368,5.691-.561,1.824-.184,3.6-.338,5.079-.379l.048,0m-32.8,6.139c-.007-.414.023-.827.057-1.24,0-.035.005-.07.008-.105.025-.292.048-.585.073-.876q.077-.948.153-1.892a2.063,2.063,0,0,1,.138-.694c.169-.376.544-.619.768-.964.265-.407.3-.93.568-1.337a1.866,1.866,0,0,1,1.593-.744,5.044,5.044,0,0,1,1.768.441,28.081,28.081,0,0,1,3.19,1.54c.573.311,1.139.629,1.7.938m22.31.128q.162-.519.331-1.049c.031-.093.061-.189.09-.283,1.3-4.084,2.782-8.646,4.311-12.657.181-.475.363-.945.546-1.4m-3.877-22.35a20,20,0,0,1,7.4-1.188c3.168-.045,6.669-1.032,9.478,1.076,2.746,2.057,4.149,5.5,5.216,8.647a39,39,0,0,0,1.641,4.405A15.77,15.77,0,0,0,139,105.37c.046.032.094.063.139.093m-13.657,6.816c.8.295,1.8.57,2.3-.312a13.436,13.436,0,0,0,.935-3.6c.57-2.688.911-5.419,1.511-8.1M114.6,94.715a56.129,56.129,0,0,0-1.477,7.387c-.313,1.975-1.721,6.5,0,7.579M91,109.408a12.4,12.4,0,0,1,3,3.627c.741,1.243,1.385,2.557,2.132,3.786a11.854,11.854,0,0,0,3.138,3.565c1.292.911,2.885,1.289,4.148,2.247.061.046.122.094.182.144M88.7,95.411a13.751,13.751,0,0,0-3.908,6.05c-.852,2.276-1.451,4.65-2.489,6.848-.344.729-.38,1.086.043,1.525a3.8,3.8,0,0,0,.4.342,27.077,27.077,0,0,0,3.477,2.3,12.637,12.637,0,0,0,5.02,1.637l.673.079.651.076c.331-.385.658-.7.99-1.064.072-.079.144-.16.217-.246m4.081-18.345c0,.134-.01.271-.015.405q-.048,1.367-.091,2.733a4.175,4.175,0,0,0,.767,3.158,3.33,3.33,0,0,0,1.711.8,8.773,8.773,0,0,0,9.811-5.736c.581-1.828.386-3.268.7-5.161a8.246,8.246,0,0,1,1.268-3.669c.1-.175.221-.365.349-.57l.067-.1M107.1,83c.05.123.108.247.172.37a8.2,8.2,0,0,0,2,2.456,4.069,4.069,0,0,0,.5.346,4.2,4.2,0,0,0,.445.225,3.17,3.17,0,0,0,2.142.176c.018,0,.035-.01.054-.016m-32.9-9.682a5.123,5.123,0,0,0-.2,4.055M95.1,61.877c1.081-.6,2.518.093,3.9.88m3.71-3.366a2.009,2.009,0,0,1-.518,1.722,3.027,3.027,0,0,1-1.614.873M94.444,60.23c-.036-.084-.068-.167-.1-.25a3.75,3.75,0,0,1,2.946-5.2,3.852,3.852,0,0,1,3.689,1.865,3.312,3.312,0,0,1-.65,4m.482,3.442a5.307,5.307,0,0,0,1.1,1.074c1.1.852,2.555,1.622,3.416,2.366a24.363,24.363,0,0,1,2.394,2.146,9.02,9.02,0,0,1,2.1,5.523c.087,1.642-.085,4.375-1.337,5.61m-.533,1.184a3.387,3.387,0,0,1,2.251,1.8m-8.372-3.452a1.545,1.545,0,0,1,.149-.382,1.612,1.612,0,0,1,.931-.76,1.917,1.917,0,0,1,1.819.5,3.124,3.124,0,0,1,.855,1.748,3.876,3.876,0,0,1,.048.736,4.889,4.889,0,0,1-1.185,3.147M103.4,81.65a1.3,1.3,0,0,0-1.11,1.619c.124.423.462.559.615.972a6.452,6.452,0,0,1-.123,2.7c-.057.42.52.925.859.328a4.589,4.589,0,0,0,.6-1.811,17.872,17.872,0,0,0,.25-2.265,1.978,1.978,0,0,0-.265-1.085A.958.958,0,0,0,103.4,81.65Zm-6.582-.7a1.531,1.531,0,0,0,1.123.284c.117-.005.232-.012.349-.022a7.551,7.551,0,0,0,1.1-.179m-6.445-2a2.088,2.088,0,0,0,1.254.427,6.417,6.417,0,0,0,.889,0m0,0a15.226,15.226,0,0,0,2.109-.336m-10.1-3.1a2.573,2.573,0,0,1,1.147.065,4.364,4.364,0,0,1,.72.257c.586.263,1.135.607,1.732.843a4.934,4.934,0,0,0,1.04.284,5.182,5.182,0,0,0,2.329-.138M85.13,75.329a4.714,4.714,0,0,1,2.124-2.461m-3.841,2.187a5.986,5.986,0,0,1,2.129-5.491M81.81,75.157a6.1,6.1,0,0,1-.5-3.424m-.89,3.622c-.031-.04-.062-.079-.091-.118-2.159-2.916-.362-5.957,2-8.1a50.217,50.217,0,0,1,4.284-3.206c1.3-.951,4.583-2.374,6.385-2.014m-2.19,32.939c.011.034.023.066.036.1A2.8,2.8,0,0,0,93.47,96.54,5.219,5.219,0,0,0,96.53,95.3c.336-.26.653-.54.963-.828.512-.474,1-.969,1.533-1.424m-9.63-.076c.039,0,.079.006.119.007a2.267,2.267,0,0,0,2.217-1.163m-5.509-8.752c.761-1.333,2.253-.977,3.592-.755m-.465,3.744a.231.231,0,0,1,.333-.269.945.945,0,0,1,.438.579c.041.184-.057.351-.28.321a.316.316,0,0,1-.2-.146A1.731,1.731,0,0,1,89.35,86.056Zm-4.693-.343a6.162,6.162,0,0,1,.082,2.831,2.35,2.35,0,0,0-.072,1.224c.19.553.809.812,1.36,1.008M80.912,76.383l.008.163a18.242,18.242,0,0,0,.321,2.953,6.441,6.441,0,0,0,1.3,2.822,8.412,8.412,0,0,0,.772.775l.112.1" transform="translate(-13.034 -54.76)" fill="none" stroke="#420600" stroke-linecap="round" stroke-linejoin="round" stroke-width="0.758"/>
      </g>
    </g>
  </g>
</svg>
