<svg xmlns="http://www.w3.org/2000/svg" xmlns:xlink="http://www.w3.org/1999/xlink" width="205" height="167" viewBox="0 0 205 167">
  <defs>
    <clipPath id="clip-image_nothing">
      <rect width="205" height="167"/>
    </clipPath>
  </defs>
  <g id="image_nothing" clip-path="url(#clip-image_nothing)">
    <g id="Group_18080" data-name="Group 18080" transform="translate(-580 -476)">
      <g id="Group_18046" data-name="Group 18046" transform="translate(39.911 8.049)">
        <path id="Path_12563" data-name="Path 12563" d="M77.617,79.057c-.082,3.785.405,23.371.461,27.157l29.345-.308.922-27.156Z" transform="translate(479.595 398.76)" fill="#fff"/>
        <path id="Path_12564" data-name="Path 12564" d="M77.617,79.057c-.082,3.785.405,23.371.461,27.157l29.345-.308.922-27.156Z" transform="translate(479.595 398.76)" fill="none" stroke="#8eaeda" stroke-linecap="round" stroke-linejoin="round" stroke-width="0.903"/>
        <path id="Path_12565" data-name="Path 12565" d="M116.295,108.972c-.737,3.713-3.648,23.09-4.247,26.826L141,140.562l5.609-26.587Z" transform="translate(480.409 399.2)" fill="#8eaeda"/>
        <path id="Path_12567" data-name="Path 12567" d="M77.617,113.109c-.082,3.786.405,23.371.461,27.156l29.345-.306.922-27.156Z" transform="translate(479.595 399.27)" fill="#8eaeda"/>
        <path id="Path_12570" data-name="Path 12570" d="M230.158,79.731c-.061,3.786.53,23.369.606,27.154l29.343-.464.776-27.161Z" transform="translate(483.205 398.771)" fill="#fff"/>
        <path id="Path_12571" data-name="Path 12571" d="M230.158,79.731c-.061,3.786.53,23.369.606,27.154l29.343-.464.776-27.161Z" transform="translate(483.205 398.771)" fill="none" stroke="#8eaeda" stroke-linecap="round" stroke-linejoin="round" stroke-width="0.903"/>
        <path id="Path_12572" data-name="Path 12572" d="M153.608,114.872c-.061,3.785.53,23.369.607,27.154l30.52-.02-.4-27.6Z" transform="translate(481.393 399.295)" fill="#fff"/>
        <path id="Path_12573" data-name="Path 12573" d="M153.608,114.872c-.061,3.785.53,23.369.607,27.154l30.52-.02-.4-27.6Z" transform="translate(481.393 399.295)" fill="none" stroke="#8eaeda" stroke-linecap="round" stroke-linejoin="round" stroke-width="0.903"/>
        <path id="Path_12574" data-name="Path 12574" d="M152.33,76.19c-.062,3.785.53,23.369.606,27.153l29.343-.463.776-27.161Z" transform="translate(481.362 398.692)" fill="#fff"/>
        <path id="Path_12575" data-name="Path 12575" d="M152.33,76.19c-.062,3.785.53,23.369.606,27.153l29.343-.463.776-27.161Z" transform="translate(481.362 398.692)" fill="none" stroke="#8eaeda" stroke-linecap="round" stroke-linejoin="round" stroke-width="0.903"/>
        <path id="Path_12576" data-name="Path 12576" d="M191.073,114.933c-.061,3.786.53,23.369.607,27.154l30.277-.153-.158-27.472Z" transform="translate(482.28 399.296)" fill="#fff"/>
        <path id="Path_12577" data-name="Path 12577" d="M191.073,114.933c-.061,3.786.53,23.369.607,27.154l30.277-.153-.158-27.472Z" transform="translate(482.28 399.296)" fill="none" stroke="#8eaeda" stroke-linecap="round" stroke-linejoin="round" stroke-width="0.903"/>
        <path id="Path_12578" data-name="Path 12578" d="M125,109.015a30.656,30.656,0,0,0-.345,4.838c3.082.248,6.2,1.091,9.285,1.339a.208.208,0,0,0,.259-.26c.06-1.9,1.091-4.509,1.15-6.409-3.426-.77-6.9-1.149-10.349-1.641" transform="translate(480.708 399.2)" fill="#fff"/>
        <path id="Path_12579" data-name="Path 12579" d="M125,109.015a30.656,30.656,0,0,0-.345,4.838c3.082.248,6.2,1.091,9.285,1.339a.208.208,0,0,0,.259-.26c.06-1.9,1.091-4.509,1.15-6.409-3.426-.77-6.9-1.149-10.349-1.641" transform="translate(480.708 399.2)" fill="none" stroke="#8eaeda" stroke-linecap="round" stroke-linejoin="round" stroke-width="0.903"/>
        <path id="Path_12580" data-name="Path 12580" d="M87.226,109.746c3.528-.124,7.177.149,10.7-.1.011,2.238.122,4.955.133,7.193l-.792.073q-4.983.523-10,.643a.581.581,0,0,1-.679-.762q.034-2.334.209-4.666" transform="translate(479.809 399.247)" fill="#fff"/>
        <path id="Path_12581" data-name="Path 12581" d="M87.226,109.746c3.528-.124,7.177.149,10.7-.1.011,2.238.122,4.955.133,7.193l-.792.073q-4.983.523-10,.643a.581.581,0,0,1-.679-.762q.034-2.334.209-4.666" transform="translate(479.809 399.247)" fill="none" stroke="#8eaeda" stroke-linecap="round" stroke-linejoin="round" stroke-width="0.903"/>
        <path id="Path_12584" data-name="Path 12584" d="M240.538,75.9a32.216,32.216,0,0,0-.713,6.12.306.306,0,0,0,.038.189.312.312,0,0,0,.247.089l9.65.514a.415.415,0,0,0,.285-.054.411.411,0,0,0,.111-.3q.244-2.911.487-5.821a.548.548,0,0,0-.637-.733l-7.241-.225" transform="translate(483.435 398.691)" fill="#8eaeda"/>
        <path id="Path_12585" data-name="Path 12585" d="M197.914,130.4c3.91,0,5.185.106,9.1.106m-9.1-3.38c4.443,0,11.421-.212,15.864-.212M197.846,123.6c5.422,0,11.046-.33,16.468-.33" transform="translate(482.442 399.481)" fill="none" stroke="#8eaeda" stroke-linecap="round" stroke-linejoin="round" stroke-width="0.903"/>
        <path id="Path_12586" data-name="Path 12586" d="M74.476,101.142a6.664,6.664,0,0,1,3.619-6.825,2.734,2.734,0,0,1,1.669-.292,2.96,2.96,0,0,1,1.775,1.8,14.879,14.879,0,0,1,1.339,4.344,13.07,13.07,0,0,0,.534,2.824,2.807,2.807,0,0,0,2.014,1.874,3.308,3.308,0,0,0,2.331-.762,9.437,9.437,0,0,0,3.92-7.318,1.3,1.3,0,0,0-1.585-1.31c-2.068.464-1.991,4.666-1.03,5.943a2.622,2.622,0,0,0,2.665.909,5,5,0,0,0,2.526-1.524c.46-.477.91-1.771,1.636-1.9,1.161-.2.411,1.406,1.248,1.763,1.553.659,3.282-.4,4.518-1.548" transform="translate(479.52 392.976)" fill="none" stroke="#8eaeda" stroke-linecap="round" stroke-linejoin="round" stroke-width="0.903"/>
        <path id="Path_12587" data-name="Path 12587" d="M207.605,137.166a.28.28,0,0,0,.024.028,24.6,24.6,0,0,1,2.611,3.338,16.144,16.144,0,0,1,4.181,6.292c1.1,2.737,1.753,5.628,2.721,8.411,2.877,8.28,8.472,15.488,10.727,23.957a64.493,64.493,0,0,1,1.616,11.3q.432,5.168.86,10.338a26.17,26.17,0,0,1-.053,7.05,10.118,10.118,0,0,1-1.7,4.064,7.119,7.119,0,0,1-1.9,1.807,8.785,8.785,0,0,1-6.8.817,23.113,23.113,0,0,1-5.891-2.623l-.487-.281q-7.778-4.51-15.314-9.417c.13.512.26,1.027.39,1.54l-.181.067q1.511,3.972,3.019,7.938c.019.117.043.232.073.349H180.206l-.466.193a16.446,16.446,0,0,0-5.747-2.355c-4.713-.8-9.58-.268-14.245-1.388l.026-.1c.609-1.912.286-3.538.262-5.545q-.118-10.206-.485-20.407c-.234-6.5-.536-13.084.639-19.474.111-.283.221-.563.33-.844.028.047.057.094.09.141.807,1.186,1.988,2.072,2.859,3.214.438.577.8,1.215,1.266,1.765a10.881,10.881,0,0,0,1.889,1.618q3.334,2.44,6.666,4.882l.116-.157a4.2,4.2,0,0,1,1.026.6,4.034,4.034,0,0,0-.012,1.25l-.284.046a5.022,5.022,0,0,1-.375.864,5.186,5.186,0,0,1-.528.776.8.8,0,0,0-.219.38.663.663,0,0,0,.049.307,3.756,3.756,0,0,0,.794,1.333,7.588,7.588,0,0,0,1.758,1.28l4.148,2.446a3.975,3.975,0,0,0,.815.525c.077-.1.152-.209.221-.317a7.582,7.582,0,0,0,1.175-2.962l-.076-.164c.087-.041.172-.081.259-.124.124-.063.25-.13.371-.2a4.975,4.975,0,0,0,2.745-4.752l.111-.011a19.115,19.115,0,0,0,1.314-2.36,7.769,7.769,0,0,0,.354-.849,1.83,1.83,0,0,0,.115-.6.677.677,0,0,0-.008-.111,1.761,1.761,0,0,0-.6-.956,21.258,21.258,0,0,0-4.067-3.17,1.836,1.836,0,0,0-.678-.287.786.786,0,0,0-.316.017l-4.413-3.732a7.186,7.186,0,0,1-1.231-1.225,6.935,6.935,0,0,1-.675-1.272,37.607,37.607,0,0,1-2.067-5.52c-.882-3.3-.978-6.753-1.455-10.136a10.161,10.161,0,0,0-1.154-3.825l.264-.108a25.093,25.093,0,0,0,5.061-12.138l-.172-.024q-.547-2.357-1.09-4.716a9.378,9.378,0,0,1-.284-1.7l.158,0a.993.993,0,0,1,1.161-.008c.044.028.085.057.126.089a3.227,3.227,0,0,1,.685.842q1.651,2.567,3.3,5.13c.485.049.971.079,1.456.092,3.861-.462,7.783.587,11.42,2,3.828,1.495,7.5,3.408,11.459,4.529a6.508,6.508,0,0,1,3.558,2.224" transform="translate(481.525 398.92)" fill="#fcfdfd"/>
        <path id="Path_12588" data-name="Path 12588" d="M197.137,225.659c.075.059.146.122.219.183,1.009.849,2.1,1.973,1.869,3.269a2.072,2.072,0,0,1-2.642,1.4c-.31.155-.624.308-.937.463a.813.813,0,0,1-.2.439,1.237,1.237,0,0,1-.724.312c-3.3.553-6.326-1.594-9.537-2.668a9.13,9.13,0,0,1-1.212.209,2.872,2.872,0,0,1,.428.5,1.664,1.664,0,0,1,.035,1.964c-.654.764-1.879.46-2.811.09q-5.733-2.274-11.376-4.765-1.771-.549-3.537-1.095l0,0c-3.956-.746-7.969-1.563-11.457-3.559-1.925-1.1-3.643-2.54-5.6-3.577a23.361,23.361,0,0,0-4.948-1.836c-.728-.2-1.461-.374-2.193-.547a11.731,11.731,0,0,1-1.262-.987,12.021,12.021,0,0,1,1.243-3.644,31.717,31.717,0,0,1,3.271-4.783,12.521,12.521,0,0,1,2.432-2.583l.421-.148a1.281,1.281,0,0,0-.061-.157l.341-.011c3.726-.44,7.241,1.581,10.87,2.535.138.036.278.072.417.1,4.665,1.12,9.533.59,14.245,1.388a16.467,16.467,0,0,1,5.747,2.357c.223.136.444.274.667.414,1.556.989,3.059,2.079,4.584,3.011,4.08,2.492,8.1,5.018,11.952,7.861a3.327,3.327,0,0,1,1.527,1.892c.122.685.015,1.562-1.014,1.692l.013.039-.763.246" transform="translate(481.098 400.752)" fill="#fff3ea"/>
        <path id="Path_12589" data-name="Path 12589" d="M180.5,168.111c.018-.559.04-1.118.06-1.676a1,1,0,0,1,.116-.522.569.569,0,0,1,.34-.23.81.81,0,0,1,.317-.017,1.861,1.861,0,0,1,.678.287,21.261,21.261,0,0,1,4.067,3.17,1.757,1.757,0,0,1,.6.957.574.574,0,0,1,.009.11,1.824,1.824,0,0,1-.115.6,7.854,7.854,0,0,1-.353.849A19.268,19.268,0,0,1,184.9,174l-.111.01a4.861,4.861,0,0,0-3.122-4.037,7.035,7.035,0,0,0-2.076-.528,9.987,9.987,0,0,0,.7-1.339Z" transform="translate(482.01 400.201)" fill="#94bfc6"/>
        <path id="Path_12590" data-name="Path 12590" d="M179.726,169.362a7.034,7.034,0,0,1,2.076.528,4.863,4.863,0,0,1,3.122,4.037,4.977,4.977,0,0,1-2.745,4.752c-.122.069-.247.134-.371.2-.087.042-.173.083-.26.123a4.5,4.5,0,0,1-1.661.432,4.433,4.433,0,0,1-2.56-.787,31.66,31.66,0,0,1-2.666-3.377l-.368.047a2.482,2.482,0,0,1-.094-.257c.2-.16.4-.319.594-.476l.017-.6a4.19,4.19,0,0,0-.73-.744,4.486,4.486,0,0,1,1.639-2.832,5.637,5.637,0,0,1,4.005-1.04" transform="translate(481.879 400.258)" fill="#fff"/>
        <path id="Path_12591" data-name="Path 12591" d="M177.362,178.519a4.424,4.424,0,0,0,2.56.786,4.484,4.484,0,0,0,1.661-.431l.077.164A7.614,7.614,0,0,1,180.483,182c-.071.109-.145.213-.221.317a4.02,4.02,0,0,1-.816-.524q-2.073-1.225-4.147-2.447a7.573,7.573,0,0,1-1.759-1.28,3.762,3.762,0,0,1-.794-1.333.677.677,0,0,1-.049-.307.8.8,0,0,1,.22-.38,5.179,5.179,0,0,0,.527-.776l.234.108.556-.444c.028.087.057.174.093.257l.369-.047a31.658,31.658,0,0,0,2.666,3.377" transform="translate(481.846 400.362)" fill="#94bfc6"/>
        <path id="Path_12592" data-name="Path 12592" d="M155.108,138.147c-.675-.2-.947-.421-1.69-.711q-1.2-.465-2.392-.944a68.753,68.753,0,0,1-6.385-2.889,4.065,4.065,0,0,1-1.487-1.123,1.462,1.462,0,0,1-.05-1.742c.543-.636,1.552-.444,2.351-.2q2.027.629,4.058,1.259l.892.277c4.582,1.418,9.237,2.876,13.209,5.555q.224-.434.435-.874c.915-4.295.732-8.749.7-13.148a6.389,6.389,0,0,1,.66-3.493c.245-.388.909-.474,1.367-.512.749-.057,1.067.053,1.215,1.144.175,1.261.315,2.528.375,3.8.026.555.037,1.11.028,1.667a74.243,74.243,0,0,0,.924,11.333l.032-.005a16.732,16.732,0,0,0,.664,2.394A4.655,4.655,0,0,1,170.9,141a10.142,10.142,0,0,1,1.154,3.826c.477,3.382.573,6.833,1.455,10.136a37.6,37.6,0,0,0,2.067,5.519,6.934,6.934,0,0,0,.675,1.272,7.15,7.15,0,0,0,1.231,1.225l4.413,3.732a.565.565,0,0,0-.341.23.985.985,0,0,0-.115.522q-.032.836-.062,1.676l-.2-.006a9.873,9.873,0,0,1-.7,1.339,5.634,5.634,0,0,0-4,1.04,4.487,4.487,0,0,0-1.64,2.832,4.191,4.191,0,0,0-1.026-.6l-.116.157q-3.334-2.443-6.666-4.882a10.919,10.919,0,0,1-1.889-1.617c-.47-.551-.828-1.189-1.266-1.765-.871-1.142-2.053-2.029-2.859-3.215-.033-.047-.062-.093-.09-.14-.044-.066-.087-.134-.125-.2a12.126,12.126,0,0,1-1.344-4.421,48.927,48.927,0,0,1-.521-9.221l.185-.068c-.073-.189-.152-.378-.237-.563a23.208,23.208,0,0,0-2.621-1.288,8.211,8.211,0,0,0-3.405-.055,2.238,2.238,0,0,0-.7.166,3.1,3.1,0,0,0-.7.567,4.118,4.118,0,0,1-3.378,1.006,1.788,1.788,0,0,1-.819-.342l-.218.266a5.155,5.155,0,0,1-2.493.861c-.408-.144-.89-.28-.98-.7a1.485,1.485,0,0,1,.218-.914,10.936,10.936,0,0,1,5.8-6.384q1.3-.736,2.6-1.471c.364-.207.726-.412,1.09-.616a5.133,5.133,0,0,1,1.848-.748" transform="translate(481.137 399.307)" fill="#fff3ea"/>
        <path id="Path_12593" data-name="Path 12593" d="M146.91,91.718a5.966,5.966,0,0,1-1.02,3.213,12.509,12.509,0,0,0-.842,1.235c-.758,1.469-.225,3.265-.436,4.9l.164.021a11.532,11.532,0,0,1-.688,2.775.625.625,0,0,1-.211.321.552.552,0,0,1-.332.068,1.679,1.679,0,0,1-.973-.384,1.755,1.755,0,0,1-.678-1.386c.015-.583.284-1.285-.156-1.67l.12-.187c-.264-.927-.381-4.027-.839-6.089-.39-1.758-1.055-4.17-.026-6.506l-.045-.019a25.7,25.7,0,0,1,1.7-4.88,12.855,12.855,0,0,0,1.884-3.111c1.6-3.387,4.508-4.327,7.993-5.7l.122.16a13.171,13.171,0,0,1,4.339-2.229l-.038-.126a6.059,6.059,0,0,1,1.171-.1c.767.016,1.52.209,2.284.246a5.8,5.8,0,0,0,2.811-.569c1.515.1,3.089-.349,4.558-.159a5.5,5.5,0,0,1,1.921.953c1.118.863,1.921,2.17,3.23,2.7a14.364,14.364,0,0,0,2.364.487,6.017,6.017,0,0,1,4.53,5.25l.337-.024a28.68,28.68,0,0,1,.375,5.855h0a15.234,15.234,0,0,1,.562,4.383,7.03,7.03,0,0,1-.27,1.971c-.187.593-.5,1.144-.729,1.722a14.1,14.1,0,0,0-.588,5.746h.132q0,1.33-.008,2.659a5.753,5.753,0,0,1-.228,1.935.272.272,0,0,0-.17.065,3.413,3.413,0,0,1-.726-2.32,56.126,56.126,0,0,1,.487-10.632l.239.006a6.134,6.134,0,0,0-.836-3.832,9.887,9.887,0,0,0-2.2-1.845,3.922,3.922,0,0,1-1.537-1.943l-.053.015a24.684,24.684,0,0,1-.656-3.714,4.554,4.554,0,0,1-3.083-1.01c-.662-.547-1.252-1.321-2.108-1.393a.919.919,0,0,0-.13,0,1.521,1.521,0,0,0-1.406,1.14,9.37,9.37,0,0,1-2.133.619,18.625,18.625,0,0,1-2.8.437c-.13.006-.258.01-.388.012-.436.011-.87.011-1.305.057a5.788,5.788,0,0,0-2.972,1.238l-.266-.232a6.265,6.265,0,0,0-5.208,2.42c-.458.6-.8,1.284-1.286,1.865a5,5,0,0,1-1.789,1.354,34.458,34.458,0,0,1-2.165,4.232" transform="translate(481.081 398.598)" fill="#ffe9cf"/>
        <path id="Path_12594" data-name="Path 12594" d="M161.932,80.631c.129,0,.257-.006.387-.013a18.754,18.754,0,0,0,2.8-.436,9.43,9.43,0,0,0,2.134-.619l.1-.049a3.4,3.4,0,0,0,1.3-1.091.917.917,0,0,1,.13,0c.856.073,1.446.847,2.108,1.392a4.55,4.55,0,0,0,3.084,1.01,24.529,24.529,0,0,0,.655,3.714l.053-.014a3.919,3.919,0,0,0,1.538,1.943,9.855,9.855,0,0,1,2.2,1.845,6.124,6.124,0,0,1,.836,3.832l-.239-.007a56.307,56.307,0,0,0-.487,10.633,3.42,3.42,0,0,0,.726,2.32c.035.032.071.063.109.1a1.549,1.549,0,0,0,.062-.162.227.227,0,0,1,.153.034.689.689,0,0,1,.239.488,24,24,0,0,1-.072,6.583,7.058,7.058,0,0,1-.428,2.07,2.383,2.383,0,0,1-1.48,1.42l-.1.3c-.257-.09-.517-.177-.775-.264a17.855,17.855,0,0,1-1.089,3.332,12.98,12.98,0,0,1-1.629,2.7c-.069-.055-.139-.108-.207-.164.024.112.049.221.073.331A10.658,10.658,0,0,1,169,125.417l-.541.05c-.059-1.269-.2-2.536-.375-3.8-.149-1.091-.467-1.2-1.216-1.144-.458.039-1.122.124-1.367.512a6.391,6.391,0,0,0-.66,3.493c.03,4.4.213,8.854-.7,13.148q-.21.44-.434.874c-3.973-2.679-8.628-4.137-13.21-5.555l-.892-.277.111-.357a4.723,4.723,0,0,1-.673-.989l-.067.034a10.278,10.278,0,0,1-1.164-3.85c-.141-1.076-.192-2.178-.264-3.255a62.87,62.87,0,0,0-1.312-9.215,3.608,3.608,0,0,1-.99-.44,2.932,2.932,0,0,1-2.915-.382,6.382,6.382,0,0,1-1.919-2.644,11.933,11.933,0,0,1-1.155-6.006,3.684,3.684,0,0,1,.5-1.664,1.717,1.717,0,0,1,1.459-.831,2.377,2.377,0,0,1,1.335.657l.057-.069a1.673,1.673,0,0,0,.973.385.562.562,0,0,0,.333-.068.647.647,0,0,0,.211-.321,11.6,11.6,0,0,0,.687-2.775l-.164-.021c.211-1.633-.321-3.429.437-4.9a12.741,12.741,0,0,1,.841-1.235,5.963,5.963,0,0,0,1.02-3.212,34.457,34.457,0,0,0,2.165-4.231,5,5,0,0,0,1.789-1.355c.483-.581.828-1.263,1.286-1.865a6.268,6.268,0,0,1,5.208-2.419l.266.231a5.787,5.787,0,0,1,2.973-1.237c.434-.047.868-.047,1.305-.057m10.182,17.381a1.925,1.925,0,0,0,.07-1.131c-.038-.264-.292-.585-.562-.3a1.953,1.953,0,0,0-.115,1.471.463.463,0,0,0,.1.193c.245.251.409-.03.509-.236m-15.725.175a1.9,1.9,0,0,0-.117-1.127c-.081-.254-.384-.53-.6-.2a1.939,1.939,0,0,0,.13,1.469.437.437,0,0,0,.128.173c.281.209.4-.1.462-.315" transform="translate(481.051 398.752)" fill="#fff3ea"/>
        <path id="Path_12595" data-name="Path 12595" d="M173.433,120.916c.047-.055.091-.11.134-.168q1,.787,1.988,1.588l-.03.039a1.208,1.208,0,0,0-.125-.09.992.992,0,0,0-1.161.009l-.158,0a9.382,9.382,0,0,0,.284,1.694q.547,2.357,1.09,4.716l.172.024a25.084,25.084,0,0,1-5.061,12.138l-.264.108a4.655,4.655,0,0,0-.879-1.067,16.6,16.6,0,0,1-.664-2.394l-.032.005a74.243,74.243,0,0,1-.924-11.333c.009-.557,0-1.112-.028-1.667l.541-.051a10.663,10.663,0,0,0,5.117-3.555" transform="translate(481.73 399.414)" fill="#fff3ea"/>
        <path id="Path_12596" data-name="Path 12596" d="M174.813,173.892l-.017.6-.594.475a3.529,3.529,0,0,1-.132-.574,4.035,4.035,0,0,1,.013-1.25,4.19,4.19,0,0,1,.73.744" transform="translate(481.878 400.35)" fill="#fff"/>
        <path id="Path_12597" data-name="Path 12597" d="M174.216,174.945c-.185.149-.371.3-.556.445l-.234-.108a4.975,4.975,0,0,0,.375-.864l.284-.047a3.518,3.518,0,0,0,.132.575" transform="translate(481.864 400.374)" fill="#fcfdfd"/>
        <path id="Path_12598" data-name="Path 12598" d="M142.523,217.181a12.209,12.209,0,0,0,1.262.987c.733.172,1.465.351,2.193.546a1.618,1.618,0,0,1-.306.872l-.4-.147a4.2,4.2,0,0,1-3.124,1.646,11.033,11.033,0,0,1-3.832-.542q-3.386-.922-6.684-2.137-1.976-.4-3.98-.634a42.617,42.617,0,0,1-16.931-1.508c-2.145-.64-4.24-1.45-6.418-1.96-2.994-.7-6.108-.825-9.064-1.669a14.431,14.431,0,0,1-2.382-.9,9,9,0,0,1-4.64-4.558,11.447,11.447,0,0,1-.507-5.186,33.358,33.358,0,0,1,4.942-14.848c1.144-1.83,2.467-3.549,3.522-5.432,1.746-3.115,2.712-6.6,4.2-9.846.9-1.961,2-3.83,3.09-5.692q7.483-12.779,14.971-25.559l.148.087a21.655,21.655,0,0,1,3.812-4.36l-.055-.081a17.075,17.075,0,0,1,5.859-2.365c3-.7,6.137-1.044,8.915-2.381,1.109-.536,2.14-1.217,3.228-1.79a36.468,36.468,0,0,1,7.388-2.617l.013.022c.428-.212.854-.424,1.282-.64a10.283,10.283,0,0,0,1.164,3.851l.067-.034a4.751,4.751,0,0,0,.673.989l-.111.357q-2.029-.632-4.058-1.259c-.8-.248-1.808-.441-2.351.2a1.461,1.461,0,0,0,.051,1.741,4.057,4.057,0,0,0,1.487,1.124,68.509,68.509,0,0,0,6.386,2.889c.109.27.217.538.326.806l-.128.053c.225.563.454,1.127.679,1.69l.266.47q-1.3.733-2.6,1.471a10.928,10.928,0,0,0-5.8,6.384,1.484,1.484,0,0,0-.217.914c.089.423.57.559.979.7a5.162,5.162,0,0,0,2.494-.861l.217-.266a1.792,1.792,0,0,0,.82.342,4.114,4.114,0,0,0,3.377-1.006,3.072,3.072,0,0,1,.7-.567,2.244,2.244,0,0,1,.7-.166,8.207,8.207,0,0,1,3.4.055,23.215,23.215,0,0,1,2.621,1.288c.085.185.164.374.236.563l-.185.068a48.929,48.929,0,0,0,.522,9.221,12.131,12.131,0,0,0,1.343,4.421q-.112.523-.2,1.046c-1.175,6.39-.872,12.971-.639,19.474q.369,10.2.486,20.407c.023,2.008.347,3.634-.262,5.545l-.026.1c-.138-.032-.279-.068-.418-.1-3.628-.955-7.143-2.974-10.87-2.534l-.34.011a1.593,1.593,0,0,1,.061.156l-.422.149a12.522,12.522,0,0,0-2.432,2.583,31.831,31.831,0,0,0-3.27,4.782,12,12,0,0,0-1.244,3.645M130.048,174a4.506,4.506,0,0,0-.626.289l.034.063c-3.238,3.553-4.48,8.434-5.662,13.093-.73,2.881-1.6,5.949-3.8,7.92-.024.166-.041.334-.051.5q2.465.81,4.944,1.575c1.726.534,3.457,1.054,5.22,1.459,1.159.263,2.353.487,3.5.818.1-.3.207-.6.309-.906A121.944,121.944,0,0,0,130.048,174" transform="translate(479.834 399.019)" fill="#fcfdfd"/>
        <path id="Path_12599" data-name="Path 12599" d="M151.163,136.929c-.109-.268-.217-.536-.326-.806q1.192.481,2.391.944c.743.289,1.016.508,1.691.711a5.119,5.119,0,0,0-1.849.748q-.545.307-1.089.616l-.266-.47-.68-1.69Z" transform="translate(481.329 399.709)" fill="#fcfdfd"/>
        <path id="Path_12600" data-name="Path 12600" d="M168.567,228.141l0,0m41.315-90.174a.2.2,0,0,0,.024.027m-26.457-8.742q.84.023,1.68-.027m15.171,74.06.4,1.044q1.511,3.951,3.019,7.9c.013.039.028.076.043.114m-140.919-.008H93.486m137.639,0,30.593.434m-79.228-.193h33.315m-65.056-6.159c3.725-.437,7.241,1.572,10.869,2.522.138.037.278.072.417.1,4.665,1.115,9.532.586,14.244,1.382a16.491,16.491,0,0,1,5.746,2.345c.223.135.444.273.666.412,1.556.984,3.059,2.069,4.583,3,4.079,2.479,8.1,4.993,11.951,7.822a3.314,3.314,0,0,1,1.526,1.883c.121.681.015,1.554-1.013,1.684a2.713,2.713,0,0,1-.724-.017m-1.28,4.679a1.6,1.6,0,0,0,.7.451,2.074,2.074,0,0,0,2.642-1.393c.23-1.29-.86-2.41-1.869-3.253-.073-.062-.144-.123-.219-.182A74.171,74.171,0,0,0,178.9,215.6m6.849,15.265a12.367,12.367,0,0,1,1.291.362c3.21,1.068,6.231,3.206,9.536,2.655a1.241,1.241,0,0,0,.724-.311.8.8,0,0,0,.2-.435,1.6,1.6,0,0,0-.057-.633c-.46-1.635-2.131-2.575-3.628-3.4-4.32-2.367-11.2-6.626-16.187-9.042M171,228.745q.553.246,1.1.487,5.643,2.478,11.375,4.741c.933.368,2.157.671,2.811-.088a1.651,1.651,0,0,0-.035-1.955,2.856,2.856,0,0,0-.428-.492,7.23,7.23,0,0,0-1.194-.831q-2.724-1.634-5.45-3.268a39.336,39.336,0,0,0-7.161-3.655m-28.211-5.144.552.129c.732.171,1.465.349,2.193.543a23.379,23.379,0,0,1,4.948,1.828c1.961,1.033,3.679,2.463,5.6,3.559,3.488,1.987,7.5,2.8,11.456,3.542m0,0c.145.025.29.053.434.08m34.5-49.237c.619.184,1.278-.233,1.916-.127a2.752,2.752,0,0,1,1.367.962c4.292,4.329,11.975,3.3,16.581,7.3m-24.131-17.8a50.886,50.886,0,0,1,4.9-20.649m-13.147,46.378c.124,1.087.084,1.354.666,1.756q4.376,3.028,8.838,5.922,7.533,4.882,15.312,9.37l.487.28a23.167,23.167,0,0,0,5.89,2.61,8.825,8.825,0,0,0,6.794-.812,7.092,7.092,0,0,0,1.9-1.8,10.038,10.038,0,0,0,1.7-4.043,25.923,25.923,0,0,0,.053-7.016q-.43-5.144-.86-10.286a63.88,63.88,0,0,0-1.615-11.249c-2.255-8.427-7.85-15.6-10.726-23.838-.968-2.77-1.623-5.647-2.721-8.37a16.06,16.06,0,0,0-4.181-6.26,10.447,10.447,0,0,0-.962-.738m-18.842,50.883c2.966-2.664,4.426-6.584,5.465-10.42m-8.955-8.773a2.583,2.583,0,0,1,.224-.47,2.314,2.314,0,0,1,.935-.984.455.455,0,0,1,.2-.029,3.431,3.431,0,0,1,1.429.584,79.993,79.993,0,0,1,9.912,7.062m-17.665,2.377a7.524,7.524,0,0,1-1.175,2.947c-.07.109-.144.212-.221.315a9.7,9.7,0,0,0-.807,1.221,2.2,2.2,0,0,0-.2,1.779,3.117,3.117,0,0,0,1.241,1.283q3.427,2.37,6.85,4.741m-6.717-22.56c.01-.269.019-.537.03-.806.019-.556.041-1.113.061-1.667a.987.987,0,0,1,.116-.52.565.565,0,0,1,.341-.229.809.809,0,0,1,.316-.017,1.858,1.858,0,0,1,.678.286,21.244,21.244,0,0,1,4.066,3.155,1.747,1.747,0,0,1,.6.952.569.569,0,0,1,.009.11,1.808,1.808,0,0,1-.115.6,7.625,7.625,0,0,1-.354.844,19.016,19.016,0,0,1-1.313,2.349m-10.307,2.146a3.211,3.211,0,0,1-.432-.754,2.631,2.631,0,0,1-.093-.256,3.394,3.394,0,0,1-.132-.571,4,4,0,0,1,.012-1.244,4.459,4.459,0,0,1,1.639-2.818,5.658,5.658,0,0,1,4-1.035,7.022,7.022,0,0,1,2.076.525,4.837,4.837,0,0,1,3.121,4.017,4.944,4.944,0,0,1-2.745,4.728c-.121.068-.247.133-.371.2-.087.042-.172.082-.259.122a4.5,4.5,0,0,1-1.661.429,4.436,4.436,0,0,1-2.558-.782,7.471,7.471,0,0,1-.92-.7m-2.623-3.4a4.974,4.974,0,0,1-.375.859,5.159,5.159,0,0,1-.528.772.8.8,0,0,0-.219.378.657.657,0,0,0,.049.305,3.725,3.725,0,0,0,.794,1.327,7.587,7.587,0,0,0,1.758,1.274q2.076,1.218,4.148,2.435l.134.078m-19.491-20.982a.523.523,0,0,0-.01.055q-.112.52-.2,1.041c-1.175,6.358-.873,12.907-.639,19.378q.367,10.149.485,20.307c.024,2,.347,3.616-.262,5.517m-36.524-49.374a121.3,121.3,0,0,1,8.958,39.843c.017.278.03.554.043.832m-14.169-4.086c.071-.057.138-.117.207-.176,2.2-1.961,3.072-5.014,3.8-7.881,1.182-4.635,2.423-9.492,5.661-13.029m.143,40.474a18.94,18.94,0,0,1,5.628-11.5m16.032,1.589c-.895-1.365-2.687-.717-4.05-1.005-.818-.174-1.639-.328-2.461-.484-2.368-.449-3.541-1.111-5.908-1.56m3.591,17.012a8.5,8.5,0,0,1,.09-1.915,11.929,11.929,0,0,1,1.243-3.627,31.6,31.6,0,0,1,3.271-4.758,12.485,12.485,0,0,1,2.431-2.571M130.659,218.32c.517.2,1.038.4,1.56.586q3.292,1.209,6.683,2.126a11.084,11.084,0,0,0,3.833.539,4.208,4.208,0,0,0,3.123-1.638c.044-.067.087-.135.127-.2m-35.7-26.753q5.09,1.837,10.238,3.506,2.466.806,4.943,1.568c1.727.531,3.458,1.049,5.221,1.452,1.158.262,2.352.484,3.5.814a10.08,10.08,0,0,1,3.283,1.513m-17.963-61.148c-.16.272-.319.544-.479.815q-7.486,12.717-14.968,25.433c-1.092,1.854-2.187,3.713-3.09,5.664-1.493,3.228-2.459,6.7-4.205,9.8-1.053,1.875-2.378,3.584-3.52,5.406A33.08,33.08,0,0,0,88.3,202.568a11.309,11.309,0,0,0,.507,5.161,8.986,8.986,0,0,0,4.638,4.536,14.5,14.5,0,0,0,2.382.9c2.955.84,6.071.965,9.064,1.661,2.177.508,4.273,1.313,6.417,1.95a42.817,42.817,0,0,0,16.93,1.5c.049,0,.1-.008.144-.015m54.46-88.919c.2-.034.407-.061.609-.086,3.86-.459,7.782.584,11.418,1.995,3.828,1.487,7.5,3.392,11.458,4.507a6.524,6.524,0,0,1,3.557,2.213m.024.027c.164.186.332.39.507.611m-34.759,12.709c2.18-3.212,4.395-6.5,5.455-10.223.31-1.1.519-2.224.726-3.347q.39-2.11.781-4.225M152,149.859q1.024,2.828,2.294,5.561c.152.328.407.711.767.658.279-.043.439-.335.556-.593q1.121-2.478,2.242-4.959m-10.79-13.115a10.462,10.462,0,0,0,1.569,5.457m4.484-4.769c.225.561.454,1.121.679,1.683m-32.951-.646a8.944,8.944,0,0,1,2.084-1.974,17.125,17.125,0,0,1,5.86-2.353c3-.692,6.135-1.039,8.913-2.369,1.11-.533,2.14-1.211,3.228-1.781a36.589,36.589,0,0,1,7.388-2.6m12.5,21.074a48.451,48.451,0,0,0,.521,9.175,12.03,12.03,0,0,0,1.344,4.4c.038.068.081.135.125.2.028.046.057.093.09.139.807,1.18,1.988,2.063,2.859,3.2.438.573.8,1.208,1.266,1.756a10.906,10.906,0,0,0,1.889,1.609q3.334,2.428,6.665,4.858l.818.6m-4.6-34.489c.038.033.077.064.113.1a4.636,4.636,0,0,1,.879,1.062,10.075,10.075,0,0,1,1.154,3.807c.477,3.365.573,6.8,1.455,10.086a37.3,37.3,0,0,0,2.067,5.491,6.889,6.889,0,0,0,.675,1.266,7.133,7.133,0,0,0,1.23,1.219l4.412,3.713.006,0m-5.572-38.573c-.03.267-.063.535-.1.8a24.9,24.9,0,0,1-5.06,12.078m3.672-18.484a1,1,0,0,1,1.161-.009,1.341,1.341,0,0,1,.126.09,3.21,3.21,0,0,1,.685.837q1.651,2.554,3.3,5.106c.125.192.251.385.375.577m-5.787-7.215a3.785,3.785,0,0,0-.017.619,9.3,9.3,0,0,0,.284,1.686q.547,2.345,1.09,4.693m-11.677-3.677a7.273,7.273,0,0,1-3.864-.117,20.428,20.428,0,0,1-3.549-1.485q-.98-.482-1.96-.968m22.663-13.308a41.706,41.706,0,0,1-.781,5.63,17.737,17.737,0,0,1-1.09,3.315,12.869,12.869,0,0,1-1.629,2.69c-.042.057-.087.112-.134.167a10.659,10.659,0,0,1-5.115,3.537m-23.336-12.662q.31,1.187.572,2.387a62.125,62.125,0,0,1,1.311,9.17c.073,1.072.124,2.168.264,3.239a10.216,10.216,0,0,0,1.165,3.831m15.763,14.436q-2.038-.981-4.077-1.957a9.814,9.814,0,0,0-3.664-1.2,18.282,18.282,0,0,0-4,.656,8.156,8.156,0,0,0-2.172.508,5.161,5.161,0,0,0-1.365,1.07,22.887,22.887,0,0,0-2.09,2.431,1.3,1.3,0,0,0-.337.78.749.749,0,0,0,.3.552,1.8,1.8,0,0,0,.82.341,4.131,4.131,0,0,0,3.377-1,3.1,3.1,0,0,1,.7-.565,2.246,2.246,0,0,1,.7-.165,8.248,8.248,0,0,1,3.4.055,23.254,23.254,0,0,1,2.621,1.282,4.938,4.938,0,0,0,.566.216,3.291,3.291,0,0,1,.986.376,2.2,2.2,0,0,1,.623.856,17.057,17.057,0,0,1,1.684,8.83,6.736,6.736,0,0,0,.185,3.337m2.374-20a40.986,40.986,0,0,1-7.362-2.494,5.487,5.487,0,0,0-2.8-.727l-.019,0a5.139,5.139,0,0,0-1.848.745c-.364.2-.726.408-1.09.613q-1.3.729-2.6,1.464a10.9,10.9,0,0,0-5.8,6.352,1.478,1.478,0,0,0-.217.909c.09.421.571.556.98.7a5.178,5.178,0,0,0,2.493-.857m19.355-9.337a4.157,4.157,0,0,1-2.7-1.058l-.064-.042c-3.972-2.666-8.627-4.117-13.208-5.529-.3-.091-.594-.183-.893-.275q-2.027-.629-4.058-1.252c-.8-.247-1.807-.438-2.35.194a1.451,1.451,0,0,0,.051,1.733,4.063,4.063,0,0,0,1.486,1.117,68.792,68.792,0,0,0,6.385,2.875q1.192.479,2.391.939c.742.288,1.016.506,1.69.707.047.015.1.03.146.043m8.664-.85c.044-.191.089-.382.13-.572.915-4.274.732-8.706.7-13.084a6.332,6.332,0,0,1,.66-3.476c.245-.387.909-.472,1.367-.51.749-.057,1.067.053,1.215,1.138.175,1.254.315,2.516.375,3.778.026.552.037,1.1.028,1.659a73.516,73.516,0,0,0,.924,11.276c.041.3.081.593.122.889M181,105.253a.159.159,0,0,1,.063-.168.272.272,0,0,1,.17-.065.232.232,0,0,1,.154.034.684.684,0,0,1,.239.484,23.766,23.766,0,0,1-.073,6.55,6.935,6.935,0,0,1-.428,2.061,2.382,2.382,0,0,1-1.479,1.413m-30.9-23.956v.014a5.917,5.917,0,0,1-1.02,3.2,12.564,12.564,0,0,0-.841,1.229c-.758,1.462-.225,3.25-.436,4.875a4.155,4.155,0,0,1-.221.918M159.2,81.8a6.282,6.282,0,0,0-5.208,2.408c-.458.6-.8,1.278-1.286,1.856a5.044,5.044,0,0,1-3.551,1.781m15.175-6.8c-.191-.108-.387-.208-.588-.3a10.257,10.257,0,0,0-6.057-.831m10.424-8.554a5.439,5.439,0,0,1,1.509.19,5.51,5.51,0,0,1,1.92.948c1.118.859,1.92,2.16,3.23,2.689a14.431,14.431,0,0,0,2.363.484,6,6,0,0,1,4.531,5.224,5.071,5.071,0,0,1,.01.727m-25.147-8.858a15.2,15.2,0,0,1,2.27-.639,6.007,6.007,0,0,1,1.171-.1c.766.017,1.52.208,2.284.245a5.818,5.818,0,0,0,2.81-.567c.073-.034.145-.072.218-.11M143.817,83.653a3.62,3.62,0,0,0,.676-.58,12.827,12.827,0,0,0,1.884-3.095c1.595-3.37,4.507-4.306,7.992-5.673M143.7,100.481c-.264-.923-.381-4.007-.839-6.059-.389-1.75-1.053-4.149-.026-6.474a6.157,6.157,0,0,1,.684-1.185m37.823,13.685a13.959,13.959,0,0,1,.588-5.716c.232-.576.54-1.124.728-1.714a6.927,6.927,0,0,0,.271-1.961,15.119,15.119,0,0,0-.562-4.36,14.694,14.694,0,0,0-.565-1.644m-5.373-.779a2.433,2.433,0,0,0,.067.348,3.9,3.9,0,0,0,1.537,1.933,9.88,9.88,0,0,1,2.2,1.837,6.075,6.075,0,0,1,.836,3.812c0,.055,0,.108,0,.163M169.029,79.858a1.368,1.368,0,0,1,.03-.178,1.517,1.517,0,0,1,1.406-1.133.921.921,0,0,1,.13,0c.856.071,1.445.842,2.108,1.386a4.568,4.568,0,0,0,3.082,1.005,4,4,0,0,0,.456-.045m-9.546-.78c-1.482-1.689-2.18-1.965-.856-3.777m-.294,36.121a28.416,28.416,0,0,1,3.255-.347m-1.023-15.739a2.846,2.846,0,0,0,.658,2.38c.282.237.656.372.871.668a1.554,1.554,0,0,1,.2,1.022,5.631,5.631,0,0,1-.385,1.693m2.857-11.309a5.911,5.911,0,0,1,5.969,1.671m-23.662.2a5.057,5.057,0,0,1,3.07-1.83,7.359,7.359,0,0,1,3.614.275m12.456,5.474c.27-.286.524.034.562.3a1.907,1.907,0,0,1-.071,1.125c-.1.205-.264.484-.509.235a.452.452,0,0,1-.1-.192A1.93,1.93,0,0,1,173.428,96.617Zm-15.95.275c.219-.328.521-.053.6.2a1.888,1.888,0,0,1,.118,1.122c-.064.218-.181.52-.463.312a.439.439,0,0,1-.127-.171A1.917,1.917,0,0,1,157.477,96.891Zm-13.156,11.993a2.126,2.126,0,0,1,1.429.8m-1.246-5.782c-.049-.043-.1-.082-.152-.125a2.386,2.386,0,0,0-1.335-.653,1.712,1.712,0,0,0-1.458.827,3.64,3.64,0,0,0-.5,1.656,11.824,11.824,0,0,0,1.154,5.977,6.352,6.352,0,0,0,1.918,2.63,2.944,2.944,0,0,0,2.914.381,2.015,2.015,0,0,0,.189-.1" transform="translate(479.244 398.594)" fill="none" stroke="#363636" stroke-linecap="round" stroke-linejoin="round" stroke-width="1"/>
      </g>
    </g>
  </g>
</svg>
