<svg xmlns="http://www.w3.org/2000/svg" xmlns:xlink="http://www.w3.org/1999/xlink" width="166" height="148" viewBox="0 0 166 148">
  <defs>
    <clipPath id="clip-path">
      <rect id="Rectangle_6790" data-name="Rectangle 6790" width="240.133" height="192.106" fill="none"/>
    </clipPath>
    <clipPath id="clip-image_reserve">
      <rect width="166" height="148"/>
    </clipPath>
  </defs>
  <g id="image_reserve" clip-path="url(#clip-image_reserve)">
    <g id="Group_18068" data-name="Group 18068" transform="translate(-40 -43.105)">
      <g id="Group_17872" data-name="Group 17872">
        <g id="Group_17871" data-name="Group 17871" clip-path="url(#clip-path)">
          <path id="Path_12505" data-name="Path 12505" d="M201.592,147.988a1.307,1.307,0,0,0-.064-.411l-.329-.061a2.589,2.589,0,0,0-1.183-1.028,1.154,1.154,0,0,0-.666-.109,1.452,1.452,0,0,0-.346.128c-.374.174-.747.35-1.121.525l-.1-.01a1.742,1.742,0,0,0-.1.323v.006c.717.038,1.432.1,2.145.187a5.111,5.111,0,0,1,1.765.45m-.238,12.588a5.7,5.7,0,0,1-1.258-1.1,5.7,5.7,0,0,0-2.029-1.7,5.09,5.09,0,0,0-1.762-.229,42.76,42.76,0,0,1-7.881-.626l-.37-.052a5.087,5.087,0,0,0,.384-.98l-.008,0a8.049,8.049,0,0,0-.146-4.891,15.429,15.429,0,0,0-2.4-4.342.4.4,0,0,0-.028-.037l.269-.2c.5-.146,1.006-.289,1.509-.434q3.688-1.059,7.379-2.118a8.723,8.723,0,0,1,4.9-.434c.063.02.127.04.188.063a6.426,6.426,0,0,1,2.026,1.257,3.469,3.469,0,0,1,.494,3.6l-.407.085a6.476,6.476,0,0,1,1.115,1.537,5.91,5.91,0,0,1,.67,1.473,2.179,2.179,0,0,1-.131,1.581l-.276-.06c-.023.12-.052.24-.086.358a4.23,4.23,0,0,1,.369.855,6.421,6.421,0,0,1,.184,1.167q.1,1.079.2,2.157a1.108,1.108,0,0,1-.224.977.715.715,0,0,1-.837-.009,1.032,1.032,0,0,1-.214-.2,1.929,1.929,0,0,1-.3-.521,7.735,7.735,0,0,0-1.139-2.593,4.1,4.1,0,0,0-2.854-.855l-.2.276a16.133,16.133,0,0,1,3.665,3.872,5.323,5.323,0,0,1,.446.782,1.985,1.985,0,0,1,.167,1.41.437.437,0,0,1-.105.2.454.454,0,0,1-.377.073,2.409,2.409,0,0,1-.932-.336" fill="#fee8dc"/>
          <path id="Path_12506" data-name="Path 12506" d="M183.546,165.027c-1.912-.031-3.826-.086-5.737-.15a70.275,70.275,0,0,1-15.159-1.645l.052-.205a13.435,13.435,0,0,0-1.43-.764c6.9-.72,14.1-2.015,18.548-4.337l-.007-.029c.637-.16,1.313-.188,1.959-.3a5.325,5.325,0,0,0,.581-.134,12.479,12.479,0,0,1,4.1-.167,2.092,2.092,0,0,0,1.038-.032,1.679,1.679,0,0,0,.826-1.037c.042-.112.08-.223.115-.335l.008,0a5.022,5.022,0,0,1-.384.98l.371.052a42.749,42.749,0,0,0,7.88.625,5.1,5.1,0,0,1,1.763.23,5.726,5.726,0,0,1,2.029,1.7,5.67,5.67,0,0,0,1.257,1.1v.723h.045a2.418,2.418,0,0,1-1.229,2.471,6.7,6.7,0,0,1-2.827.76,111.245,111.245,0,0,1-13.8.5" fill="#fff"/>
          <path id="Path_12507" data-name="Path 12507" d="M140.279,169.68q-1.3-.225-2.607-.438-1.086-.179-2.172-.346a29.84,29.84,0,0,1,1.132-6.473l.107-.308c1.224.672,3.49.935,5.776,1.038a180.626,180.626,0,0,0,18.756-.89,13.339,13.339,0,0,1,1.43.764l-.051.205a70.275,70.275,0,0,0,15.159,1.645c1.91.064,3.824.119,5.736.15q.341,3.362.682,6.723-.513.137-1.031.261a50.378,50.378,0,0,1-5.832,1.031,76.116,76.116,0,0,1-17.577-.206c-6.546-.748-13.016-2.034-19.508-3.156" fill="#fff"/>
          <path id="Path_12508" data-name="Path 12508" d="M137.672,169.242q1.3.213,2.607.438a8.367,8.367,0,0,0,.588.872l-.009.017c5.394,3.183,11.785,4.36,18.017,5.263a44.681,44.681,0,0,0,9.891.632,17.577,17.577,0,0,0,7.97-2.451l-.051-.078a2.785,2.785,0,0,0,.679-.893,50.378,50.378,0,0,0,5.832-1.031,2.686,2.686,0,0,0,.155.731,2.566,2.566,0,0,0,.17.388c2.178,5.1,2.446,10.846,2.648,16.424H128.563a167.272,167.272,0,0,1,8.444-19.853,2.012,2.012,0,0,1,.665-.459" fill="#ed7344"/>
          <path id="Path_12509" data-name="Path 12509" d="M177.365,173.042a2.774,2.774,0,0,1-.68.893l.052.079a17.593,17.593,0,0,1-7.97,2.451,44.682,44.682,0,0,1-9.891-.633c-6.233-.9-12.623-2.079-18.018-5.263l.009-.016a8.372,8.372,0,0,1-.587-.873c6.492,1.122,12.962,2.408,19.507,3.156a76.126,76.126,0,0,0,17.578.206" fill="#fee8dc"/>
          <path id="Path_12510" data-name="Path 12510" d="M152.426,146.514c0-.017-.008-.034-.012-.05-.069-.22-.139-.439-.208-.66l-.008,0c-.932-1.653-1.235-3.616-2.042-5.338-.281-.6-.553-1.21-.847-1.812l.049-.023c.007-1.669-.054-3.513-1.188-4.737a10.712,10.712,0,0,0-1.812-1.348c-.27-.189-.591-.391-.932-.6-.713-.435-1.507-.9-2.065-1.3a3.99,3.99,0,0,0-2.2-1.059.659.659,0,0,0-.463.128.938.938,0,0,0-.177,1,7.081,7.081,0,0,0,1.746,2.167,3.464,3.464,0,0,0-.075.452l-.505-.132c-1.307-.345-2.679-.865-3.934-.361-.393.157-.736.489-.548.87.062.124.055.463.17.542a9.082,9.082,0,0,0,2.985,1.214,1.254,1.254,0,0,0,.012.477q-1.134-.038-2.269-.042a1.521,1.521,0,0,0-1.341.459,1.03,1.03,0,0,0,.307,1.287,3.026,3.026,0,0,0,1.335.522c.957.2,1.913.409,2.869.612l.386.124a1.2,1.2,0,0,0,.266,1.039,8.2,8.2,0,0,0,2.145,1.47,6.14,6.14,0,0,1,2.571,3.417l-.022.006a5.637,5.637,0,0,0,.286,1.2l0,.093a38.113,38.113,0,0,1,5.515.384m-2.308-42.907a6.948,6.948,0,0,0,2.654,2.03l0,0a21.591,21.591,0,0,0,18.091,2.4,12.6,12.6,0,0,0,6.473-4.3l-.295-.1a4.524,4.524,0,0,1,.488-.243,4.677,4.677,0,0,1,1.248-.336c2.031.71,5.593,2,7.572,2.689a14.539,14.539,0,0,1,4.4,2.114c2.587,2.067,3.433,5.569,4.122,8.806q1.524,7.168,3.05,14.337c.641,3.005,1.806,8.851,2.24,12.063l-.057.007v.42c-.062-.023-.125-.043-.188-.063a8.735,8.735,0,0,0-4.9.434q-3.69,1.057-7.379,2.119c-.5.145-1.006.288-1.509.434l-.269.2a.276.276,0,0,1,.028.037,15.388,15.388,0,0,1,2.4,4.341,8.06,8.06,0,0,1,.147,4.892c-.036.112-.074.223-.116.334a1.683,1.683,0,0,1-.826,1.038,2.1,2.1,0,0,1-1.038.032,12.453,12.453,0,0,0-4.1.166c-.2.039-.388.085-.58.135-.646.114-1.323.143-1.96.3l.007.03c-4.448,2.322-11.65,3.617-18.548,4.337a180.955,180.955,0,0,1-18.756.89c-2.286-.1-4.553-.366-5.776-1.038a2.565,2.565,0,0,1-.459-.314,9.509,9.509,0,0,1-2.289-3.4,34.372,34.372,0,0,1-1.849-5.933,113.576,113.576,0,0,1-2.228-12.417q-.089-.716-.167-1.43l-.048.005a19.785,19.785,0,0,1-.347-3.115l.135,0a206.139,206.139,0,0,1,.9-20.789c0-.029,0-.056.007-.086.328-3.432,1-7.26,3.826-9.217,2.2-1.52,5.084-1.452,7.754-1.327l.2.009q1.586.077,3.173.152l1.719-.15a10.785,10.785,0,0,0,2.388-.359c.106-.053.214-.1.322-.156Z" fill="#fff"/>
          <path id="Path_12511" data-name="Path 12511" d="M148.17,133.9c1.134,1.224,1.2,3.068,1.189,4.736l-.05.023c-.057-.12-.115-.239-.176-.356a12.794,12.794,0,0,0-1.7-2.67,6.309,6.309,0,0,0-3.024-1.671q-.481-.15-.967-.286a6.3,6.3,0,0,1-1.167-.79,7.063,7.063,0,0,1-1.746-2.167.938.938,0,0,1,.176-1,.669.669,0,0,1,.463-.128,3.994,3.994,0,0,1,2.2,1.059c.559.4,1.352.863,2.065,1.3.341.209.662.41.933.6a10.669,10.669,0,0,1,1.811,1.349" fill="#feece2"/>
          <path id="Path_12512" data-name="Path 12512" d="M153.341,96.327a9.583,9.583,0,0,1-2.729,6.728l.057.143c-.3.119-.6.247-.9.384-.108.051-.217.1-.323.156a10.785,10.785,0,0,1-2.388.359l-1.719.15q-1.586-.078-3.173-.152l.006-.133.912-1c1.6-2.686,2.514-8.695,2.434-11.329v0c.012-.133.02-.265.023-.4.581.773,1.208,1.519,1.807,2.245,1.527,1.856,3.6,2.077,5.7,1.565a4.06,4.06,0,0,0,.228,1.291Z" fill="#fbe69f"/>
          <path id="Path_12513" data-name="Path 12513" d="M152.772,105.638a6.958,6.958,0,0,1-2.654-2.03l-.346-.025q.442-.206.9-.384l-.057-.144a9.579,9.579,0,0,0,2.728-6.727h-.06a4.05,4.05,0,0,1-.229-1.29c-2.1.512-4.173.291-5.7-1.565-.6-.727-1.227-1.472-1.807-2.245-1.558-2.073-2.774-4.343-2.16-6.973l.06,0a24.557,24.557,0,0,0-.822-4.266,9.134,9.134,0,0,1,.006-5.641,7.863,7.863,0,0,1,.063-.906c.359-2.951,2.226-6.828,5.313-7.217l.437.039c.492-.2.987-.4,1.481-.591l-.064-.161c.549-.56,1.5-.281,2.178.1,2.448,1.38,4.277,3.6,6.237,5.616,1.909,1.96,4.136,3.826,6.812,4.331a7.216,7.216,0,0,1,1.114.9,1.61,1.61,0,0,0,.975.389,2.1,2.1,0,0,1,3.172-.671,3.712,3.712,0,0,1,1.206,3.747c-.393,1.946-1.707,4.235-3.8,4.642a10.876,10.876,0,0,0-.292,1.8,28.073,28.073,0,0,1,.321,8.456,11.5,11.5,0,0,1-3.273,6.917,6.1,6.1,0,0,0,3.642,1.182h0c2.869.642,5.9-.256,8.7-1.012l.045.166a3.091,3.091,0,0,0,.63,1.312,4.524,4.524,0,0,0-.488.243l.295.1a12.6,12.6,0,0,1-6.473,4.3,21.591,21.591,0,0,1-18.091-2.4ZM150.991,77.57c.051-.159.191-.85-.178-.73-.18.057-.274.3-.307.513a1.073,1.073,0,0,0-.009.267.262.262,0,0,0,.218.243c.151.007.236-.169.276-.293M144.225,80.5c.034-.142.118-.764-.166-.664-.14.05-.205.262-.221.458a1.056,1.056,0,0,0,0,.241c.015.1.081.216.179.224.119.009.177-.148.205-.259" fill="#fee8dc"/>
          <path id="Path_12514" data-name="Path 12514" d="M165.087,75.56c-2.676-.5-4.9-2.371-6.812-4.331-1.96-2.012-3.789-4.236-6.237-5.616-.683-.384-1.63-.664-2.179-.1l.065.16c-.494.2-.989.394-1.481.591l-.437-.038c-3.087.389-4.954,4.266-5.313,7.216a2.653,2.653,0,0,1-.3-.365l-.045.031a4.4,4.4,0,0,1-.824-3.41c.574-4.1,2.406-6.343,7.479-7.92l.266.146a8.287,8.287,0,0,1,1.924-.779l-.055-.211c3.332-1.968,7.975-1.9,11.688-1.284a12.812,12.812,0,0,1,7.568,4.376,26.657,26.657,0,0,1,6.837,14.323c.355,2.168.148,19.742,1.451,22.138l-.084.057a2.665,2.665,0,0,1-1.669,1.338l0,.014c-.026.008-.053.014-.079.021-2.8.757-5.831,1.655-8.7,1.013h0a6.119,6.119,0,0,1-3.643-1.182,11.5,11.5,0,0,0,3.274-6.918,28.109,28.109,0,0,0-.321-8.456,10.848,10.848,0,0,1,.292-1.8c2.091-.408,3.4-2.7,3.8-4.643a3.712,3.712,0,0,0-1.206-3.747,2.1,2.1,0,0,0-3.173.671,1.612,1.612,0,0,1-.975-.389,7.221,7.221,0,0,0-1.113-.9" fill="#fbe69f"/>
          <path id="Path_12515" data-name="Path 12515" d="M141.318,135.98l.013-.284c-.321-.073-.645-.147-.966-.227a9.075,9.075,0,0,1-2.985-1.215c-.116-.078-.109-.418-.17-.542-.189-.381.155-.712.547-.87,1.255-.5,2.627.017,3.934.361l.506.133c.414.111.827.222,1.241.338q.486.137.968.286a6.322,6.322,0,0,1,3.024,1.671,12.835,12.835,0,0,1,1.7,2.67c.06.117.12.236.176.356.293.6.567,1.214.847,1.813.808,1.721,1.11,3.685,2.043,5.338l.006,0c.07.221.141.44.21.66,0,.016.008.033.011.05a38.253,38.253,0,0,0-5.516-.385v-.092a5.462,5.462,0,0,1-.286-1.2l.021-.006a6.136,6.136,0,0,0-2.571-3.417,8.162,8.162,0,0,1-2.144-1.471,1.206,1.206,0,0,1-.267-1.039l-.386-.123c-.957-.2-1.912-.409-2.869-.612a3.034,3.034,0,0,1-1.334-.522,1.031,1.031,0,0,1-.308-1.287,1.515,1.515,0,0,1,1.341-.459c.758,0,1.513.017,2.269.042q.472.014.942.034" fill="#fee8dc"/>
          <path id="Path_12516" data-name="Path 12516" d="M141.332,135.7l-.014.284c-.313-.014-.626-.025-.942-.034a1.3,1.3,0,0,1-.012-.477c.323.081.647.154.968.227" fill="#fee8dc"/>
          <path id="Path_12517" data-name="Path 12517" d="M78.1,155.571c7.541,4.391,15.233,8.834,23.742,10.762,3.055.692,6.189,1.051,9.19,1.955.676.205,1.374.434,2.079.647.037.252.075.5.111.757a81.254,81.254,0,0,1,4.255,18.476,5.958,5.958,0,0,0-.037.875H56.023c-1.608-10.133,2.868-20.362,2.216-30.61l.085-.011c-.037-.294-.078-.585-.128-.875a122.711,122.711,0,0,0,19.693-2.261c.067.1.138.193.215.285" fill="#c7ddcb"/>
          <path id="Path_12518" data-name="Path 12518" d="M109.835,136.951a3.009,3.009,0,0,1,1.793-1.753,12.481,12.481,0,0,1,6.6-.864,33.126,33.126,0,0,1,6.527,1.619,9.1,9.1,0,0,1,1.63.655,7.784,7.784,0,0,1,2.247,2.126l-.1.079a5.587,5.587,0,0,1,.67,1.267,84.927,84.927,0,0,1-6.443,24.757,8.94,8.94,0,0,1-2.93,4.056c-1.974,1.244-4.381.74-6.709.041-.705-.213-1.4-.442-2.078-.646-3-.9-6.136-1.264-9.191-1.956-8.509-1.927-16.2-6.371-23.742-10.762a3.262,3.262,0,0,1-.214-.285,121.908,121.908,0,0,0,20.459-5.933l.025-.245q.744.077,1.48.2l0,.024a28.279,28.279,0,0,0,8.143.729l.006.13a10.722,10.722,0,0,0,1.791.066l.01.005a13.569,13.569,0,0,0,.607-6.254c-.119-1.382-.3-2.774-.356-4.158a15.466,15.466,0,0,1,.036-2.054,8.041,8.041,0,0,1-.339-.809Z" fill="#fee8dc"/>
          <path id="Path_12519" data-name="Path 12519" d="M99.854,149.3q-.736-.12-1.48-.2l-.026.246a121.908,121.908,0,0,1-20.459,5.933,122.6,122.6,0,0,1-19.693,2.26q-5,.166-10-.078a3.793,3.793,0,0,1-2.633-.827,8.213,8.213,0,0,1-1.46-2.31c-1.808-6.648-1.842-12.936-1.444-19.816l0-.1a20.247,20.247,0,0,1,3,.157,2.644,2.644,0,0,0,0,.511,8.363,8.363,0,0,0-.934.241,2.377,2.377,0,0,0-1.218.736,1,1,0,0,0,.039,1.312,1.456,1.456,0,0,0,.654.27c2.274.516,5.061.933,7.061,1.21l.6.795a64.978,64.978,0,0,1,10.032-.023c2.834.122,5.67.142,8.507.168,1.789.015,3.579.035,5.368.085,3.491.1,6.969.477,10.459.525a72.556,72.556,0,0,0,10.693-1.027,10.765,10.765,0,0,1,5.165-.211c2.231.555,4.955-.546,7.1.249a3.675,3.675,0,0,1,.832.43h.028c.054,1.384.238,2.776.356,4.157a13.569,13.569,0,0,1-.606,6.254l-.011-.005a10.6,10.6,0,0,1-1.79-.066l-.007-.13a28.311,28.311,0,0,1-8.142-.728Z" fill="#fee8dc"/>
          <path id="Path_12520" data-name="Path 12520" d="M94.469,58.909l.366-.04a6.833,6.833,0,0,1,.575,1.316,2.081,2.081,0,0,0,.858,1.118,2.548,2.548,0,0,0,2.08-.181l1.443-.565.309.269a3.533,3.533,0,0,0,.892-1.132l-.009-.007a10.73,10.73,0,0,0,1.609-2.743,9.376,9.376,0,0,0,2.355-1.346A8.4,8.4,0,0,0,106.35,54a13.06,13.06,0,0,1,3.285-2.532l.023-.22.222.023a10.831,10.831,0,0,0,2.816-.05l.044.248,1.672,1.366a6.979,6.979,0,0,1,2.122,1.1c1.733,1.209,3.407,2.781,3.9,4.819l-.14.035q.048,1.478.1,2.951a.508.508,0,0,0,.094.341.318.318,0,0,0,.32.071,7.483,7.483,0,0,1,.036,3.365l.1.04q-.444,1.118-.89,2.235-.344.87-.693,1.74a33.2,33.2,0,0,0-1.907,5.814l.134.027a7.971,7.971,0,0,1-1.148,5.071,15.816,15.816,0,0,1-1.956,2.378q-1.152,1.232-2.307,2.462c-1.536,1.637-3.259,2.448-5.379,1.79-.073.141-.148.283-.222.423a4.725,4.725,0,0,0-1.98,3.621,4.979,4.979,0,0,0,1.352,3.636l.007,0c.118.205.229.415.331.629a13.369,13.369,0,0,1-3.672,2.475c-7.4,3.7-13.6,3.685-20.809-1.4-2.344-1.653-4.381-4.037-4.8-6.86l.149-.025a6.58,6.58,0,0,0,.653-.394,7.131,7.131,0,0,0,1.485-1.332l-.014-.013a11.989,11.989,0,0,0,1.27-1.788c2.917-4.693,5.357-8.653,6.23-14.11l-.128-.071c.469-.834.934-1.669,1.4-2.5a7.339,7.339,0,0,0,1.038-2.25l.452.068a8.773,8.773,0,0,0,.76-.852,16.346,16.346,0,0,1-.826-2.207A8.51,8.51,0,0,1,89.8,59.9a3.214,3.214,0,0,1,2.349-2.121,2.269,2.269,0,0,1,2.316,1.127m17.354,6.624c.088-.153.392-.833-.017-.795-.2.02-.35.243-.434.46a1.212,1.212,0,0,0-.069.273.275.275,0,0,0,.168.3c.154.042.282-.122.352-.239" fill="#fee8dc"/>
          <path id="Path_12521" data-name="Path 12521" d="M86.193,70.314A40.137,40.137,0,0,1,86.7,57.651l-.256-.067a6.631,6.631,0,0,1,.615-1.33,13.421,13.421,0,0,1,2.157-5.036c2.938-4.619,8.75-6.911,14.216-6.551,1.18.077,2.351.264,3.522.449,4.352.691,8.815,1.421,12.666,3.543l-.1.182c.591.764,1.738.8,2.51,1.386a2.161,2.161,0,0,1,.546.616,5.927,5.927,0,0,1,2.1,1.917,4.364,4.364,0,0,1,.608,3.486,7.492,7.492,0,0,1-1.392,2.416l-.46.608-.062-.046a13.765,13.765,0,0,0-2.156,2.538,1.068,1.068,0,0,1-.307.346.407.407,0,0,1-.109.048.318.318,0,0,1-.32-.071.508.508,0,0,1-.094-.341q-.048-1.474-.1-2.951l.14-.036c-.494-2.037-2.168-3.609-3.9-4.818a6.986,6.986,0,0,0-2.121-1.1l-1.673-1.366-.044-.249a10.786,10.786,0,0,1-2.816.051l-.222-.023-.023.219A13.041,13.041,0,0,0,106.351,54a8.474,8.474,0,0,1-1.4,1.594,9.376,9.376,0,0,1-2.355,1.346,10.747,10.747,0,0,1-1.609,2.743l.009.007a3.519,3.519,0,0,1-.892,1.131l-.309-.268-1.442.565a2.547,2.547,0,0,1-2.081.18,2.084,2.084,0,0,1-.858-1.117,6.833,6.833,0,0,0-.575-1.316l-.365.04a2.271,2.271,0,0,0-2.317-1.127A3.207,3.207,0,0,0,89.805,59.9a8.511,8.511,0,0,0-.326,4.213,16.257,16.257,0,0,0,.827,2.207,8.9,8.9,0,0,1-.761.852l-.452-.068a7.358,7.358,0,0,1-1.037,2.25q-.7,1.252-1.4,2.5c-.04.071-.078.142-.118.213a4.732,4.732,0,0,1-.346-1.759Z" fill="#fbe69f"/>
          <path id="Path_12522" data-name="Path 12522" d="M129.9,140.052a1.086,1.086,0,0,1-.511.685,5.982,5.982,0,0,0-.2-.657,5.608,5.608,0,0,0-.67-1.267l.1-.079a7.755,7.755,0,0,0-2.247-2.125,9.022,9.022,0,0,0-1.629-.656,33.126,33.126,0,0,0-6.527-1.619,12.486,12.486,0,0,0-6.6.864,3.015,3.015,0,0,0-1.793,1.753l-.088.031a8.287,8.287,0,0,0,.34.809,15.3,15.3,0,0,0-.037,2.054l-.028,0a3.743,3.743,0,0,0-.832-.431c-2.146-.794-4.87.307-7.1-.248a10.751,10.751,0,0,0-5.165.211,72.556,72.556,0,0,1-10.693,1.027c-3.491-.048-6.968-.428-10.459-.525-1.789-.05-3.579-.07-5.368-.085q-.408-.681-.813-1.363l.02-.015q-.512-.7-.969-1.44c-.5-.809-.953-1.647-1.47-2.443a26.476,26.476,0,0,0-6.246-6.381l.182-.294a4.135,4.135,0,0,1-.2-.937h-.091q-.045-2.079-.225-4.151c-.142-1.65-.347-3.3-.614-4.928l-.249.041a23.425,23.425,0,0,0-13.833-.1,6.167,6.167,0,0,0-.96.362c.013-.1.026-.2.042-.294l-.048-.008c.682-5.178,1.383-10.4,3.141-15.316.87-2.434,2.12-4.917,4.355-6.217A13.017,13.017,0,0,1,55.4,95.181q10.089-2.923,20.178-5.85c.6-.174,1.725-.534,2.236-.156a6.777,6.777,0,0,1-.653.394l-.15.025c.416,2.823,2.453,5.207,4.8,6.859,7.214,5.09,13.413,5.1,20.809,1.4a13.345,13.345,0,0,0,3.672-2.474c-.1-.214-.213-.424-.331-.629-.083-.143-.168-.281-.259-.417,1.109.041,2.376,1.019,3.359,1.551,4.854,2.628,9.872,6.366,14.726,9a13.755,13.755,0,0,1,3.731,2.591c1.327,1.448,2.321,4.627,2.6,7.348.091-.07.186-.133.281-.193,0,.03,0,.057-.007.086a205.844,205.844,0,0,0-.9,20.789l-.135,0a19.669,19.669,0,0,0,.347,3.115l.047-.005c.053.476.108.953.168,1.43Z" fill="#c7ddcb"/>
          <path id="Path_12523" data-name="Path 12523" d="M60.821,126.924h.091a4.071,4.071,0,0,0,.2.937l-.182.294c-1.083-.838-2.2-1.637-3.311-2.429a13.5,13.5,0,0,0-5.043-2.61,13.144,13.144,0,0,0-3.329-.081,3.358,3.358,0,0,0-1.51.339,1.162,1.162,0,0,0-.588,1.312c.24.644,1.085.745,1.769.8a10.975,10.975,0,0,1,5.718,2.247,1.927,1.927,0,0,0-.464.468,21.91,21.91,0,0,0-7.963-1.176,11.108,11.108,0,0,0-2.125.151v-.159a7.264,7.264,0,0,1,.157-1.255,7.585,7.585,0,0,1,.434-1.374l.108.044a6.194,6.194,0,0,1,.974-1.65l-.043-.065a7.589,7.589,0,0,1,3.333-1.04,33.558,33.558,0,0,1,10.955.9h0c.2.064.4.126.6.189q.178,2.071.225,4.151" fill="#feece2"/>
          <path id="Path_12524" data-name="Path 12524" d="M59.982,117.845c.267,1.633.472,3.279.614,4.928-.2-.063-.4-.125-.594-.189h0a33.525,33.525,0,0,0-10.954-.9,7.605,7.605,0,0,0-3.334,1.039l.043.065a6.252,6.252,0,0,0-.974,1.65l-.108-.043a7.548,7.548,0,0,0-.433,1.373,2.313,2.313,0,0,1-.388-.433l-.393.085c-.466-.2-.534-.883-.491-1.415a27.441,27.441,0,0,1,.607-3.9,3.353,3.353,0,0,1,.473-1.237,2.351,2.351,0,0,1,.9-.72,6.313,6.313,0,0,1,.96-.363,23.421,23.421,0,0,1,13.834.1Z" fill="#c7ddcb"/>
          <path id="Path_12525" data-name="Path 12525" d="M46.442,134.693l.031.276c-.27.028-.54.067-.807.119a2.644,2.644,0,0,1,0-.511q.39.051.779.116" fill="#fee8dc"/>
          <path id="Path_12526" data-name="Path 12526" d="M54.168,128.2a1.906,1.906,0,0,1,.464-.467,10.968,10.968,0,0,0-5.718-2.248c-.683-.059-1.529-.16-1.768-.8a1.159,1.159,0,0,1,.588-1.312,3.367,3.367,0,0,1,1.509-.339,13.1,13.1,0,0,1,3.329.082,13.487,13.487,0,0,1,5.044,2.609c1.109.792,2.227,1.591,3.31,2.429a26.476,26.476,0,0,1,6.246,6.381c.517.8.968,1.634,1.47,2.443q.456.738.969,1.44l-.02.015q.4.681.813,1.363c-2.837-.026-5.673-.046-8.507-.168a64.978,64.978,0,0,0-10.032.023c-.2-.266-.4-.53-.6-.795-2-.277-4.787-.694-7.061-1.21a1.467,1.467,0,0,1-.654-.27,1,1,0,0,1-.039-1.312,2.371,2.371,0,0,1,1.218-.736,8.1,8.1,0,0,1,.934-.241c.267-.052.537-.09.807-.118l-.031-.277c-.259-.043-.519-.081-.779-.116a20.113,20.113,0,0,0-3-.157h-.032a1.576,1.576,0,0,1-.939-.165,1.019,1.019,0,0,1-.151-1.364,2.554,2.554,0,0,1,1.23-.854c.135-.054.269-.107.405-.156a12.578,12.578,0,0,1,6.279-.613,2.442,2.442,0,0,1,.261-.472,17.8,17.8,0,0,0-6.457-.555c-.063,0-.125,0-.187.008a1.723,1.723,0,0,1-1.16-.228c-.624-.494-.26-1.54.355-2.045a4.015,4.015,0,0,1,1.818-.8,11.183,11.183,0,0,1,2.125-.151,21.908,21.908,0,0,1,7.962,1.176" fill="#fee8dc"/>
        </g>
      </g>
      <g id="Group_17874" data-name="Group 17874">
        <g id="Group_18086" data-name="Group 18086">
          <path id="Path_12527" data-name="Path 12527" d="M145.522,91.627v0m22.632,11.3h0c.14,0,.279-.006.419-.016M60,122.584h0m-5.37,5.152h0M181.858,179.3a5.726,5.726,0,0,0,1.737-1.244m-13.389,4.76A9.069,9.069,0,0,0,176.159,181m-19.352.406a28.627,28.627,0,0,0,7.29,1.534m-30.74,1.813a4.3,4.3,0,0,0,2.63.863,28.086,28.086,0,0,0,7.234.076,9.468,9.468,0,0,0,6.184-3.434m28.949-7.525a18.44,18.44,0,0,1,2.9,7m-4.671-5.969a46.078,46.078,0,0,1,2.875,6.1m-14.934-2.685a1.379,1.379,0,1,0,1.265-.269m2.137-.878c.732.682.615,1.854.436,2.837a42.869,42.869,0,0,0-1.011,8.5q-.067-.267-.135-.537m-11.459-11.65a20.764,20.764,0,0,1-1.729,6.824c-.032.073-.081.157-.16.157s-.091-.16-.014-.138m-2.1-1.864q.848-2.773,1.694-5.547M137.5,175.5q6.03,2.553,12.2,4.766M139.629,169.8c.4.27.814.527,1.229.772,5.394,3.183,11.785,4.36,18.017,5.262a44.682,44.682,0,0,0,9.891.633,17.585,17.585,0,0,0,7.97-2.451,12.866,12.866,0,0,0,1.231-.878m-49.534,16.792c.043-.125.085-.25.13-.373a167.2,167.2,0,0,1,8.444-19.853c.059-.122.119-.242.181-.363m45.884,2.806q.143.3.279.6c.057.128.115.258.17.387,2.179,5.1,2.446,10.846,2.649,16.425,0,.063,0,.128.005.191m-49.542-27.323A29.789,29.789,0,0,0,135.5,168.9q1.086.166,2.171.345,1.305.213,2.607.438c6.493,1.123,12.963,2.408,19.508,3.156a76.125,76.125,0,0,0,17.578.206,50.416,50.416,0,0,0,5.832-1.031q.516-.125,1.031-.261-.34-3.361-.682-6.723c0-.023-.005-.048-.008-.071m-22.521-2.184q.813.25,1.633.461a70.4,70.4,0,0,0,15.159,1.645c1.911.063,3.824.118,5.737.149a111.05,111.05,0,0,0,13.8-.5,6.694,6.694,0,0,0,2.826-.759,2.42,2.42,0,0,0,1.23-2.471m-3.516-14.268c.374-.175.747-.351,1.121-.525a1.452,1.452,0,0,1,.346-.128,1.154,1.154,0,0,1,.666.109,2.589,2.589,0,0,1,1.183,1.028m-3.725,6.357c.348.223.685.459,1.016.707a16.133,16.133,0,0,1,3.665,3.872,5.323,5.323,0,0,1,.446.782,1.985,1.985,0,0,1,.167,1.41.437.437,0,0,1-.105.2.452.452,0,0,1-.376.073,2.408,2.408,0,0,1-.933-.336,5.669,5.669,0,0,1-1.257-1.1,5.713,5.713,0,0,0-2.03-1.7,5.09,5.09,0,0,0-1.762-.229,42.76,42.76,0,0,1-7.881-.626m10.176-5.963a5.388,5.388,0,0,1,3.537.614,4.576,4.576,0,0,1,1.122,1.33c.087.136.17.277.247.419a4.254,4.254,0,0,1,.369.855,6.435,6.435,0,0,1,.184,1.167q.1,1.079.2,2.157a1.11,1.11,0,0,1-.224.978.716.716,0,0,1-.837-.01,1.032,1.032,0,0,1-.214-.2,1.9,1.9,0,0,1-.3-.521,7.775,7.775,0,0,0-1.139-2.593,4.1,4.1,0,0,0-2.855-.855m-1.5-6.974c.165.006.329.013.494.021q1.075.059,2.145.187a5.111,5.111,0,0,1,1.765.45l.121.068a2.906,2.906,0,0,1,.5.379,6.508,6.508,0,0,1,1.116,1.537,5.943,5.943,0,0,1,.669,1.473,2.174,2.174,0,0,1-.131,1.581m-17.743-6.61,1.509-.434q3.688-1.059,7.379-2.118a8.723,8.723,0,0,1,4.9-.434c.063.02.127.04.188.063a6.426,6.426,0,0,1,2.026,1.257,3.469,3.469,0,0,1,.494,3.6m-14.008-31.523a194.555,194.555,0,0,1-.507,21.317,27.012,27.012,0,0,0-.147,7.2m-42.934-24.491a28.727,28.727,0,0,1,.187,10.571m-.308,14.816c.67-.068,1.339-.1,2.007-.113a38.283,38.283,0,0,1,5.516.385,103.389,103.389,0,0,0,10.394,1.239c7.2.2,14.355-2.187,21.524-1.469m-2.916,11.4c.115-.033.229-.065.343-.1.193-.049.386-.1.58-.134a12.485,12.485,0,0,1,4.1-.167,2.081,2.081,0,0,0,1.038-.032,1.679,1.679,0,0,0,.826-1.037c.041-.111.08-.222.115-.335a8.049,8.049,0,0,0-.146-4.891,15.429,15.429,0,0,0-2.4-4.342.292.292,0,0,0-.028-.036c-.059-.081-.12-.161-.18-.24m-56.083-9.247c.048.5.1.992.154,1.488q.08.714.167,1.43a113.58,113.58,0,0,0,2.229,12.417,34.389,34.389,0,0,0,1.849,5.932,9.511,9.511,0,0,0,2.288,3.4,2.6,2.6,0,0,0,.459.313c1.224.673,3.491.935,5.777,1.038a180.635,180.635,0,0,0,18.756-.89c6.9-.719,14.1-2.014,18.548-4.336M141.332,135.7c-.321-.073-.645-.147-.968-.227a9.084,9.084,0,0,1-2.985-1.215c-.114-.078-.108-.418-.169-.542-.188-.381.154-.712.547-.87,1.255-.5,2.627.017,3.934.361l.505.133c.415.111.829.222,1.243.338q.486.137.967.286a6.317,6.317,0,0,1,3.024,1.671,12.794,12.794,0,0,1,1.7,2.67c.061.117.119.236.176.357.294.6.567,1.213.848,1.812.807,1.721,1.109,3.685,2.042,5.338-.015-.027-.028-.053-.042-.079m-8.613-12c-.036-.017-.07-.034-.105-.054a6.3,6.3,0,0,1-1.167-.79,7.051,7.051,0,0,1-1.746-2.167.938.938,0,0,1,.176-1,.669.669,0,0,1,.463-.128,3.994,3.994,0,0,1,2.2,1.059c.559.4,1.352.863,2.065,1.3.341.209.662.41.933.6a10.669,10.669,0,0,1,1.811,1.349c1.134,1.224,1.2,3.068,1.189,4.736m-8.081.15c-.957-.2-1.913-.409-2.869-.612a3.017,3.017,0,0,1-1.335-.522,1.031,1.031,0,0,1-.308-1.287,1.517,1.517,0,0,1,1.342-.459q1.134,0,2.268.042c.316.009.629.02.942.034.265.01.531.023.8.037a7.9,7.9,0,0,1,3.093.6,8.314,8.314,0,0,1,2.724,2.613m-1.23,5.8c-.016-.068-.036-.135-.056-.2a6.131,6.131,0,0,0-2.571-3.417,8.216,8.216,0,0,1-2.145-1.471,1.2,1.2,0,0,1-.266-1.039.558.558,0,0,1,.238-.3,1.013,1.013,0,0,1,.633-.08c2.3.251,4.186,1.864,5.912,3.4m3.066-37.175q.614.468,1.262.883a21.591,21.591,0,0,0,18.091,2.4,12.6,12.6,0,0,0,6.473-4.3M113.01,169.093c.072.2.145.4.216.6a81.315,81.315,0,0,1,4.255,18.477c.007.067.014.131.022.2M58.239,158.432c.651,10.249-3.824,20.477-2.216,30.611.008.048.015.094.023.143m49.613-94.849a.206.206,0,0,1,.035,0c1.108.041,2.376,1.019,3.358,1.551,4.854,2.628,9.873,6.366,14.727,8.994a13.808,13.808,0,0,1,3.731,2.591c1.327,1.448,2.32,4.628,2.6,7.349.051.505.079,1,.079,1.455m-19.717,3.968q-.407,4.126-.816,8.257a27.823,27.823,0,0,0,.105,9.1m.074-.651a3.015,3.015,0,0,1,1.793-1.753,12.477,12.477,0,0,1,6.6-.865,33.217,33.217,0,0,1,6.527,1.62,9.019,9.019,0,0,1,1.629.655,7.781,7.781,0,0,1,2.247,2.125c.158.2.311.406.464.61m-19.706,11.768a7.288,7.288,0,0,0,.413-.854,13.57,13.57,0,0,0,.607-6.254c-.118-1.382-.3-2.774-.356-4.158a15.313,15.313,0,0,1,.037-2.055c.031-.351.075-.7.14-1.054M78.054,155.542c.017.009.033.018.05.029,7.54,4.391,15.233,8.834,23.741,10.762,3.056.691,6.19,1.051,9.191,1.955.676.2,1.374.434,2.079.647,2.327.7,4.734,1.2,6.708-.042a8.93,8.93,0,0,0,2.93-4.055,84.9,84.9,0,0,0,6.443-24.757c.005-.072.01-.143.014-.213m-29.36,9.46a28.269,28.269,0,0,0,8.142.729c.187-.011.372-.024.558-.037M50.911,139.775c.318-.046.635-.088.954-.123a64.978,64.978,0,0,1,10.032-.024c2.834.122,5.67.142,8.507.169,1.789.015,3.579.035,5.368.084,3.491.1,6.968.477,10.459.525a72.541,72.541,0,0,0,10.692-1.026,10.763,10.763,0,0,1,5.166-.212c2.23.556,4.954-.546,7.1.249a3.743,3.743,0,0,1,.832.431m-67.361-5.333c-.4,6.88-.365,13.168,1.444,19.817a8.227,8.227,0,0,0,1.46,2.31,3.792,3.792,0,0,0,2.633.826q5,.244,10,.078a122.61,122.61,0,0,0,19.693-2.26,121.908,121.908,0,0,0,20.459-5.933m54.935-53.761a6.509,6.509,0,0,1,.058.736,9.58,9.58,0,0,1-2.729,6.727m-5.1-11.731c.006.1.011.2.014.3m0,0c.08,2.634-.834,8.643-2.434,11.329a3.733,3.733,0,0,1-.816,1m25.149-17.794c.015.067.029.135.043.205a28.106,28.106,0,0,1,.321,8.456,11.5,11.5,0,0,1-3.274,6.917l-.055.055m3.256-21.037a3.579,3.579,0,0,1,1.235-1.305m-1.781-2.593.009-.014a2.1,2.1,0,0,1,3.173-.672,3.714,3.714,0,0,1,1.2,3.748c-.393,1.946-1.706,4.235-3.8,4.642l-.01,0m-16.6-23.641c3.333-1.968,7.975-1.9,11.688-1.284a12.816,12.816,0,0,1,7.569,4.377,26.654,26.654,0,0,1,6.837,14.322c.355,2.169.148,19.743,1.45,22.138a.9.9,0,0,0,.064.1M149.859,65.51c.549-.56,1.5-.281,2.179.1,2.448,1.379,4.277,3.6,6.237,5.616,1.909,1.96,4.136,3.826,6.812,4.331l.217.038M148.17,66.206l-.165.017c-3.086.389-4.954,4.266-5.312,7.217a8.1,8.1,0,0,0-.064.906c0,.077,0,.153,0,.227m6.378-12.8c-5.073,1.578-6.9,3.822-7.479,7.921a4.394,4.394,0,0,0,.824,3.409c.056.083.116.167.177.252m5.572.211a3.414,3.414,0,0,1,1.679-1.049,3.543,3.543,0,0,1,2.8.074m-10.052,4.573c.2-.525.911-1.414,1.86-1.1m-1,8.189c-.614,2.63.6,4.9,2.159,6.973.581.773,1.208,1.518,1.807,2.245,1.527,1.856,3.6,2.076,5.7,1.565a22.923,22.923,0,0,0,6.692-3.332m-13.1-3.26a3.737,3.737,0,0,0,2.519-.39,6.441,6.441,0,0,0,3.542-2.866m-6.518-6a2.168,2.168,0,0,1-.393,2.294,1.789,1.789,0,0,0-.3.544,1.232,1.232,0,0,0,.295.969,4.892,4.892,0,0,0,.711.807m-2.656-3.517a1.117,1.117,0,0,0,0,.241c.016.1.082.216.18.224.118.009.177-.148.205-.259.033-.143.117-.764-.167-.664C143.92,79.88,143.855,80.093,143.838,80.289Zm6.669-2.937a1.029,1.029,0,0,0-.009.267.26.26,0,0,0,.218.244c.151.006.236-.17.276-.293.051-.159.191-.85-.178-.73C150.634,76.9,150.539,77.135,150.507,77.352Zm28.171,25.67.1.035c2.031.71,5.593,2,7.571,2.689a14.509,14.509,0,0,1,4.4,2.114c2.587,2.066,3.433,5.568,4.121,8.806L197.919,131c.641,3,1.8,8.85,2.239,12.063.013.1.025.191.037.282M167.222,102.66a7.741,7.741,0,0,0,.932.267m0,0c2.87.642,5.9-.256,8.7-1.012l.08-.022c.221-.06.444-.118.663-.176m-27.924,1.965c-.075.019-.15.039-.225.057a10.785,10.785,0,0,1-2.388.359l-1.719.149-3.173-.151-.2-.01c-2.671-.125-5.556-.193-7.754,1.327-2.831,1.958-3.5,5.785-3.826,9.218,0,.029,0,.056-.007.086a205.831,205.831,0,0,0-.9,20.789M57.4,107.483a65.053,65.053,0,0,1,2.579,10.362q.4,2.449.614,4.929.178,2.07.225,4.151l.009.565m-5.753.61c-.144-.126-.292-.246-.443-.363m0,0a10.977,10.977,0,0,0-5.718-2.248c-.683-.058-1.529-.16-1.768-.8a1.159,1.159,0,0,1,.588-1.312,3.368,3.368,0,0,1,1.509-.34,13.144,13.144,0,0,1,3.329.082,13.5,13.5,0,0,1,5.044,2.61c1.109.791,2.227,1.591,3.31,2.429a26.49,26.49,0,0,1,6.246,6.38c.517.8.968,1.635,1.469,2.443.3.492.629.973.97,1.44.307.423.629.837.966,1.238M56.2,129.249a11.021,11.021,0,0,0-2.028-1.044,21.908,21.908,0,0,0-7.962-1.176,11.032,11.032,0,0,0-2.126.151,4.024,4.024,0,0,0-1.818.8c-.614.505-.978,1.551-.355,2.045a1.726,1.726,0,0,0,1.161.227l.187-.008a17.775,17.775,0,0,1,6.457.556,7.916,7.916,0,0,1,1.284.566m3.42,1.131c-1.657-.339-3.253-.947-4.923-1.219-.014,0-.028-.005-.042-.006a12.57,12.57,0,0,0-6.28.613c-.135.049-.27.1-.4.155a2.563,2.563,0,0,0-1.23.854,1.019,1.019,0,0,0,.151,1.364,1.568,1.568,0,0,0,.939.165h.032a20.094,20.094,0,0,1,3,.158c.261.034.52.073.78.116m7.454,1.52c-1.512-.4-3.236-.764-4.875-1.107a8.479,8.479,0,0,0-2.548-.137c-.27.028-.541.067-.808.119a8.132,8.132,0,0,0-.933.24,2.368,2.368,0,0,0-1.218.737,1,1,0,0,0,.039,1.312,1.467,1.467,0,0,0,.654.27c2.273.515,5.061.932,7.061,1.21l1.116.154m-7.45-21.167c.682-5.178,1.383-10.4,3.141-15.316.87-2.434,2.12-4.917,4.355-6.217a13.067,13.067,0,0,1,2.965-1.13l20.178-5.849c.6-.175,1.725-.534,2.236-.156l.008.006m-32.886,34.23a3.777,3.777,0,0,1,.778-.691,7.589,7.589,0,0,1,3.333-1.04,33.558,33.558,0,0,1,10.955.9m0,0,.223.06m-16.688,2.8a.614.614,0,0,1-.082-.029c-.466-.2-.534-.883-.49-1.415a27.461,27.461,0,0,1,.606-3.9,3.372,3.372,0,0,1,.474-1.237,2.353,2.353,0,0,1,.9-.72,6.129,6.129,0,0,1,.96-.362,23.418,23.418,0,0,1,13.833.1M97.465,78.981c1.568,1.5,2.752,3.373,4.369,4.827a16.063,16.063,0,0,0,4.445,3.084c.174.072.347.134.517.187,2.12.657,3.843-.153,5.379-1.79q1.152-1.233,2.307-2.462a15.817,15.817,0,0,0,1.955-2.379,7.962,7.962,0,0,0,1.149-5.071M76.968,89.287c.011.1.023.206.038.307.416,2.823,2.453,5.207,4.8,6.86,7.214,5.09,13.413,5.1,20.809,1.4a13.4,13.4,0,0,0,3.672-2.474.861.861,0,0,0,.154-.308m-.492-.319a4.973,4.973,0,0,1-1.352-3.636,4.72,4.72,0,0,1,1.98-3.621,2.379,2.379,0,0,1,.508-.23m12.1-20.822a6.814,6.814,0,0,1,.873,1.347c.042.08.079.16.115.242m-32.4,1.72c.1-.13.2-.263.293-.4a7.36,7.36,0,0,0,1.038-2.25M78.429,88.574a4.646,4.646,0,0,0,.851-.744,11.9,11.9,0,0,0,1.269-1.787c2.918-4.693,5.358-8.654,6.231-14.111M86.7,57.652a40.107,40.107,0,0,0-.509,12.663c.018.143.036.287.056.432m33.81-21.839c-.145-.084-.291-.168-.437-.248-3.851-2.122-8.315-2.852-12.667-3.544-1.17-.185-2.341-.372-3.522-.449-5.465-.359-11.277,1.933-14.216,6.552a13.42,13.42,0,0,0-2.156,5.036c0,.038-.009.077-.014.116m33.59,5.2c.065.194.12.39.168.588a7.478,7.478,0,0,1,.037,3.364M121.885,50.5a7.292,7.292,0,0,1,.693.341,5.922,5.922,0,0,1,2.106,1.917,4.368,4.368,0,0,1,.608,3.486,7.5,7.5,0,0,1-1.392,2.415l-.46.608q-.654.864-1.306,1.724M114.4,52.836l.01,0a6.977,6.977,0,0,1,2.121,1.1c1.733,1.208,3.408,2.781,3.9,4.818.02.085.038.17.055.256m-18.2-7.792a4.084,4.084,0,0,1,3.327-.6c1.35.183,2.687.483,4.041.631l.222.023a10.787,10.787,0,0,0,2.816-.051,7,7,0,0,0,1.433-.387m-13.137,8.857a3.624,3.624,0,0,1-2.556,1.926m8.158-7.964c-.081.116-.162.233-.244.348a8.5,8.5,0,0,1-1.4,1.594,9.455,9.455,0,0,1-2.355,1.346,14.729,14.729,0,0,0-2.885,1.464m8.311,14.724a3.929,3.929,0,0,0,1.067,1.586c1.307,1.314,3.849,4.123,5.23,3.826m2.956-11.386a4.883,4.883,0,0,0,.452,2.642,5.817,5.817,0,0,1,.527.855,1.782,1.782,0,0,1-.325,1.651,5.257,5.257,0,0,1-1.328,1.136m-5.218-13.305a5.876,5.876,0,0,1,4.273,1.37m-4.28,3.69a1.167,1.167,0,0,0-.069.274.275.275,0,0,0,.168.3c.154.041.282-.122.352-.24.088-.152.392-.833-.017-.794C111.607,64.759,111.455,64.981,111.372,65.2ZM92.4,62.66a4.381,4.381,0,0,1,1.083,1.3m1.156-4.532a1.65,1.65,0,0,0-.167-.52,2.27,2.27,0,0,0-2.316-1.126A3.209,3.209,0,0,0,89.8,59.9a8.525,8.525,0,0,0-.326,4.214,16.391,16.391,0,0,0,.827,2.207,4.664,4.664,0,0,0,3.221,2.867M43.273,130.684q-.094.479-.188.958m1.585-7.25a7.615,7.615,0,0,0-.434,1.374,7.264,7.264,0,0,0-.157,1.255" fill="none" stroke="#5e251f" stroke-linecap="round" stroke-linejoin="round" stroke-width="0.941"/>
        </g>
      </g>
    </g>
  </g>
</svg>
