<svg xmlns="http://www.w3.org/2000/svg" xmlns:xlink="http://www.w3.org/1999/xlink" width="384" height="165" viewBox="0 0 384 165">
  <defs>
    <clipPath id="clip-image_mom">
      <rect width="384" height="165"/>
    </clipPath>
  </defs>
  <g id="image_mom" clip-path="url(#clip-image_mom)">
    <g id="Group_19151" data-name="Group 19151" transform="translate(13.938 -71.975)">
      <g id="Group_18811" data-name="Group 18811" transform="translate(82.359 74.129)">
        <g id="Group_18817" data-name="Group 18817">
          <path id="Path_12647" data-name="Path 12647" d="M241.582,167.344a4.2,4.2,0,0,1-1.79,1.545l-.009.041a48.933,48.933,0,0,0-11.544-1.021c-1.644,0-3.332.016-5,.152l0-.123a5.268,5.268,0,0,0-.02-1.711h-.109v-.122l-.045-.61a2.483,2.483,0,0,1-.311-.429,36.85,36.85,0,0,1-5.945,1.463c-2,.32-4.2.431-5.888-.692a6.226,6.226,0,0,1-2.181-2.86,14.143,14.143,0,0,1-.5-1.391l-.021.007q-.438-1.321-.873-2.636c-.179-.547-.336-1.218.054-1.64a1.414,1.414,0,0,1,.547-.323,4.8,4.8,0,0,1,1.357-.288l.014-.046c2.45.678,6.535-3.115,7.926-5.358-2.26.628-7.908,1.268-10.254.2l-.442-.29a1.356,1.356,0,0,1-.912-.409,3.707,3.707,0,0,1-.671-1.034,12.473,12.473,0,0,1-.894-2.09c-.213-.737-.291-1.511-.481-2.254a14.119,14.119,0,0,0-1.878-3.875l-.338-.018a3.854,3.854,0,0,1-1.435-1.835,3.69,3.69,0,0,1-.563-2.4c.215-.94,1.1-1.539,1.8-2.2a7.388,7.388,0,0,0,2.255-4.464l-.238-.063a8.906,8.906,0,0,0,.2-2.072q.056-3.477-.117-6.957c-.015-.289-.03-.574-.048-.86l-.1.007a29.539,29.539,0,0,1,1.445-13.218l.258.036a6.827,6.827,0,0,1,4.4-4.875l.007-.041a9.159,9.159,0,0,1,4.48,1.892,5.425,5.425,0,0,1,2.862,2.663,28.917,28.917,0,0,1,1.543,4.1,10.532,10.532,0,0,0,1.254,2.55,34.466,34.466,0,0,0,5.2,8.213,82.9,82.9,0,0,0,5.791,6.755,75.06,75.06,0,0,0,13.706,10.68c2.45,1.551,5.047,3.23,6.086,5.936.329,1.638.562,3.294.769,4.952.107.853.209,1.708.3,2.565a56.969,56.969,0,0,1,.3,10.008,10.9,10.9,0,0,0-1.711.558,23.628,23.628,0,0,0-8.243,3.875M213.48,138.7a2.373,2.373,0,0,0-.117-.964.958.958,0,0,0-.383-.547c-.318-.182-.47-.077-.533.142a3.958,3.958,0,0,0,.1,1.361c.114.669.871.746.934.007" transform="translate(-94.518 -77.088)" fill="#feeadf"/>
          <path id="Path_12648" data-name="Path 12648" d="M217.3,228.656a27.834,27.834,0,0,0-28.6-21.488l-1.271.422q-.766.918-1.5,1.858l-.286-.225a5.046,5.046,0,0,1-.776-1c-.274-2.355,1.434-4.7,3.047-6.59l9.258-10.875q-.425-1.073-.85-2.146l.334-.227a11.106,11.106,0,0,0-2.865-2.94c.1-.218.205-.431.317-.642l-.226-.121a44.8,44.8,0,0,1,2.372-4.934c.107-.188.213-.376.323-.562a9.112,9.112,0,0,0,1.229-.409,27.039,27.039,0,0,0,3.318-1.591,2.013,2.013,0,0,0,.928-.843,1.791,1.791,0,0,0-.188-1.461c.229-.141.46-.286.689-.431a12.122,12.122,0,0,1,4.494-4.392l.039.043.15-.129a6.226,6.226,0,0,0,2.181,2.86c1.686,1.123,3.89,1.012,5.888.692a36.94,36.94,0,0,0,5.945-1.462,2.524,2.524,0,0,0,.311.428l.045.61v.123h.109a5.288,5.288,0,0,1,.021,1.71l0,.123c1.665-.136,3.352-.157,5-.151a48.882,48.882,0,0,1,11.543,1.021l.01-.041a4.189,4.189,0,0,0,1.789-1.545,23.641,23.641,0,0,1,8.244-3.875,10.856,10.856,0,0,1,1.71-.557c0,.052-.006.107-.011.159A29.037,29.037,0,0,1,247.2,180.92a25.275,25.275,0,0,0,8.244.064l.027.086c.2-.057.392-.118.588-.182a18.3,18.3,0,0,0,8.9,1.459c.073,0,.145-.009.214-.018a27.409,27.409,0,0,1,1.082,2.974,1.463,1.463,0,0,1,.088.63.577.577,0,0,1-.205.363c.328,3.927-.654,7.9-1.627,11.751-3.878,15.3-7.826,30.8-15.434,44.624q-1.052,1.058-2.1,2.114H201.7c2.152-2.3,4.823-4.072,7.073-6.283,2.639-2.593,4.716-5.8,7.754-7.906l.272.039a5.3,5.3,0,0,0,.511-1.978" transform="translate(-93.012 -84.085)" fill="#fadfdf"/>
          <path id="Path_12649" data-name="Path 12649" d="M218,108.292a28.98,28.98,0,0,0-1.542-4.1,5.423,5.423,0,0,0-2.863-2.663,9.155,9.155,0,0,0-4.48-1.892l-.007.041a6.827,6.827,0,0,0-4.4,4.875l-.258-.036a29.539,29.539,0,0,0-1.445,13.218l.1-.007c.018.286.032.572.048.86l-.028,0a10.035,10.035,0,0,1-2.668-2.961l-.227.078c-1.594-4.687-3.039-9.729-1.486-14.393a20.354,20.354,0,0,1,3.513-5.953A53.288,53.288,0,0,1,234.54,75.555c9.23-1.724,19.955-2.7,27.663,2l-.006.027a13.34,13.34,0,0,1,4.747,2.035c6.4,1.842,10.367,9.053,12.714,14.844,7.665,18.9,14.686,43.479,7.311,63.49-1.748,4.748-4.571,10.414-9.127,13.041l.213.53a13.714,13.714,0,0,1-3.423.86,32.3,32.3,0,0,1-7.065-.136q-.508.082-1.02.129a.374.374,0,0,0-.023-.056c-.064.025-.127.052-.191.074a18.3,18.3,0,0,1-8.9-1.458c-.2.064-.391.125-.588.181l-.027-.086a25.25,25.25,0,0,1-8.244-.064,29.033,29.033,0,0,0,2.815-10.852c0-.052.006-.107.011-.159a57.055,57.055,0,0,0-.3-10.008c-.089-.858-.191-1.712-.3-2.565-.206-1.659-.44-3.315-.769-4.952-1.039-2.707-3.636-4.385-6.086-5.936a75.091,75.091,0,0,1-13.706-10.68,82.894,82.894,0,0,1-5.791-6.755,34.453,34.453,0,0,1-5.2-8.214A10.51,10.51,0,0,1,218,108.292" transform="translate(-94.388 -74.129)" fill="#ffedc8"/>
          <path id="Path_12650" data-name="Path 12650" d="M214.705,232.973a5.3,5.3,0,0,1-.511,1.978l-.271-.039c-3.038,2.11-5.115,5.313-7.754,7.906-2.25,2.211-4.92,3.979-7.073,6.283H159.842v-.437c4.033-6.472,8.409-12.721,12.648-19.057,3.562-5.322,6.894-10.8,10.846-15.842q.731-.94,1.5-1.858l1.271-.422a27.834,27.834,0,0,1,28.6,21.488" transform="translate(-90.413 -88.402)" fill="#feeadf"/>
          <path id="Path_12652" data-name="Path 12652" d="M181.4,151.108l.012-.084.049.007a2.53,2.53,0,0,0,1.8-.613c.413-.329.529-1.027.765-1.556l-.216-.1c2.182-5.288.238-12.567-3.623-16.909h0c1.7.705,3.89,1.459,5.272,2.763l.157-.163c5.024,4.848,9.89,15.522,13.065,22.5A13.972,13.972,0,0,1,200,160.865a41.18,41.18,0,0,1-.092,4.757,11.249,11.249,0,0,0,1.193,4.9c.066.132.136.268.2.406a1.782,1.782,0,0,1,.188,1.461,2.012,2.012,0,0,1-.927.844,27.311,27.311,0,0,1-3.319,1.591,8.944,8.944,0,0,1-1.229.408,4.217,4.217,0,0,1-.452.086,3.192,3.192,0,0,1-1.032-.011,5.556,5.556,0,0,1-2.547-1.558c-.1-.087-.194-.175-.29-.262q-1.126-.04-2.244-.179a11.288,11.288,0,0,0-2.55.833c-.333.141-.667.288-1,.426-1.481.626-3.189,1.121-4.673.558l.025-.07a17.221,17.221,0,0,1-1.853-1.007c.3-.581.569-1.168.815-1.756a14.7,14.7,0,0,0,.769-10.246,2.749,2.749,0,0,0,.211-.973c.025-.557-.064-1.111-.073-1.669a15.174,15.174,0,0,1,.145-1.835,49.458,49.458,0,0,0,.132-6.458" transform="translate(-92.446 -80.129)" fill="#fff"/>
          <path id="Path_12653" data-name="Path 12653" d="M172.419,127.973a6.249,6.249,0,0,1,1.681.942c.061.184.117.367.166.553a13.758,13.758,0,0,1,1.216,1.214c3.86,4.341,5.8,11.621,3.622,16.909l.216.1c-.236.528-.351,1.227-.764,1.556a2.535,2.535,0,0,1-1.8.613l-.05-.007a.424.424,0,0,1-.215-.084.545.545,0,0,1-.148-.338,13.729,13.729,0,0,1-.191-3.09l.152.007a15.572,15.572,0,0,0-.323-6.622,8.616,8.616,0,0,0-.821-1.581,5.306,5.306,0,0,0-3.355-2.386c-.148,3.952-3.124,7.182-6.354,9.518a27.942,27.942,0,0,1-7.844-.78,13.238,13.238,0,0,1-1.388.354c-1.318.145-2.348.127-3.756.245a7.45,7.45,0,0,1-4.415-.8q-.8.449-1.61.883c-2.266,1.213-4.922,3.1-7.595,3.065a17.993,17.993,0,0,1-3.6.313c-.979-4.212-1.6-8.6-.76-12.839a19.353,19.353,0,0,1,8.151-12.145l.022.034a13.666,13.666,0,0,1,6.272-2.432v-.007c3.738-1.15,7.767-.345,11.594.47a20.875,20.875,0,0,1,4.866,1.456,7.3,7.3,0,0,1,3.309,3l.08-.04a3.536,3.536,0,0,0,1.715,1.453c.625.22,1.3.263,1.93.472" transform="translate(-87.736 -78.958)" fill="#fcd7bf"/>
          <path id="Path_12654" data-name="Path 12654" d="M165.585,147.039c3.23-2.337,6.206-5.567,6.354-9.519a5.312,5.312,0,0,1,3.355,2.387,8.643,8.643,0,0,1,.821,1.581,15.587,15.587,0,0,1,.323,6.622l-.152-.007a13.68,13.68,0,0,0,.191,3.09.551.551,0,0,0,.147.338.43.43,0,0,0,.216.084l-.012.083a49.471,49.471,0,0,1-.132,6.459,15.174,15.174,0,0,0-.145,1.835c.009.557.1,1.111.073,1.669a2.738,2.738,0,0,1-.211.973,14.7,14.7,0,0,1-.769,10.246c-.246.587-.515,1.175-.815,1.755a20.174,20.174,0,0,1-6.6,7.565l-.145.129c-1.4,1.89-5.2,3.657-7.779,3.754a27.733,27.733,0,0,1-7.6-1.13,38.652,38.652,0,0,1-4.743-1.518l.068-.129a14.5,14.5,0,0,1-2.506-1.649c-1.109-7.772-4.907-15.067-7.565-22.546a81.394,81.394,0,0,1-2.527-8.57c-.018-.077-.037-.154-.055-.231a17.928,17.928,0,0,0,3.6-.314c2.672.039,5.329-1.85,7.595-3.065q.809-.431,1.61-.883a7.448,7.448,0,0,0,4.414.806c1.409-.118,2.439-.1,3.757-.245a13.473,13.473,0,0,0,1.388-.354,27.973,27.973,0,0,0,7.844.78m2.817,25.535c-.013.084-.846-.148-2.146-.127-2.148.034-4.28-.317-6.433-.138-.422.036-3.823-.013-3.952-.4a12.169,12.169,0,0,0,1.311,2.373,24.559,24.559,0,0,0,1.942,3.09,4.933,4.933,0,0,0,5.126,1.266c1.582-.529,3.827-4.211,4.151-6.059" transform="translate(-87.87 -80.718)" fill="#feeadf"/>
          <path id="Path_12655" data-name="Path 12655" d="M168.634,176.435c1.3-.021,2.132.211,2.145.127-.324,1.849-2.57,5.53-4.151,6.058a4.93,4.93,0,0,1-5.126-1.265,24.623,24.623,0,0,1-1.942-3.09,12.217,12.217,0,0,1-1.311-2.373c.129.39,3.53.44,3.953.4,2.151-.179,4.284.172,6.433.138" transform="translate(-90.247 -84.706)" fill="#ecacb0"/>
          <path id="Path_12656" data-name="Path 12656" d="M114.882,213.917l.1-.188a55.823,55.823,0,0,1-.7-9.491,11.443,11.443,0,0,1,.34-3.45q.028-.824-.015-1.647,7.945-1.78,15.891-3.562c3.039-.68,6.154-1.392,8.763-3.1a3.309,3.309,0,0,0,1.2-1.175,3.549,3.549,0,0,0,.261-1.711,31.159,31.159,0,0,0-.306-3.632,14.511,14.511,0,0,0,2.506,1.649l-.068.13a38.59,38.59,0,0,0,4.744,1.517,27.721,27.721,0,0,0,7.6,1.13c2.582-.1,6.382-1.865,7.779-3.754l.145-.129a20.159,20.159,0,0,0,6.6-7.565,16.842,16.842,0,0,0,1.854,1.007l-.025.071c1.483.563,3.192.068,4.673-.558.329-.138.662-.286,1-.427.034.1.07.2.109.3l-.064.022a15.8,15.8,0,0,1-.238,3.23,2.319,2.319,0,0,1-.009,1.37l0,.308c-.168,0-.335,0-.505.014a7.364,7.364,0,0,0-2.475.519c-2.119.892-3.564,3.049-5.762,3.723l-.44-.044a11.278,11.278,0,0,0-.81.9,10.444,10.444,0,0,1-.114,1.506l.016.037c-.061.025-.123.052-.184.079a28.848,28.848,0,0,0-9.013,6.976c-2.616,2.79-5.018,5.791-7.862,8.348-2.756,2.477-5.9,4.514-8.484,7.173-2.7,2.789-5.19,6.48-8.355,8.735l-.056-.006c-.083.651-.177,1.3-.274,1.946a23.009,23.009,0,0,1-2.482,8.289,9.116,9.116,0,0,1-6.886,4.75,8.717,8.717,0,0,1-2.652-.268c-.379-.092-.754-.2-1.121-.329a23.1,23.1,0,0,1-8.727-5.694,58.382,58.382,0,0,1-5.523-6.572l.025-.02q-1.28-1.737-2.443-3.555a56.433,56.433,0,0,1-8.047,2.436c-1.487.372-3.1.735-4.512.125a2.544,2.544,0,0,1-1.635-2.282,3.26,3.26,0,0,1,.539-1.49c.03-.047.059-.1.091-.145a10.49,10.49,0,0,1,3.806-3.634c.123-.068.25-.134.382-.193l-.134-.322a7.655,7.655,0,0,0,1.867-4.224,1.236,1.236,0,0,0-.508-1.143,1.286,1.286,0,0,0-.6-.107c-.083,0-.168,0-.252.007l-.022-.332a1.722,1.722,0,0,0-.329-2.491,2,2,0,0,0-.227-.151,4.435,4.435,0,0,0,.047-.644c.236-.2.474-.4.72-.594l-.053-.066a2.521,2.521,0,0,0-1.075-1.277,9.47,9.47,0,0,0-1.472-.748,33.808,33.808,0,0,1-3.668-1.876,2.775,2.775,0,0,1-1.459-1.531,1.974,1.974,0,0,1,1.688-2.155,4.476,4.476,0,0,1,2.189.232c.267.083.53.177.791.272A64.006,64.006,0,0,1,100.6,202.5a21.921,21.921,0,0,1,7.271,6.222,8.74,8.74,0,0,1,1.867,1.928,33.3,33.3,0,0,0,5.142,3.271" transform="translate(-82.771 -85.023)" fill="#feeadf"/>
          <path id="Path_12657" data-name="Path 12657" d="M178.543,209.778a5.079,5.079,0,0,0,.776,1l.286.225c-3.952,5.043-7.284,10.521-10.845,15.842-4.24,6.336-8.616,12.585-12.649,19.057v.438h-32.09a17.871,17.871,0,0,1,1.151-7.422,4.79,4.79,0,0,1-.572-1.366,8.718,8.718,0,0,0,2.652.268,9.118,9.118,0,0,0,6.886-4.75,23.014,23.014,0,0,0,2.482-8.289c.1-.646.191-1.295.274-1.946l.057.007c3.164-2.254,5.651-5.945,8.354-8.736,2.582-2.659,5.728-4.7,8.484-7.173,2.845-2.556,5.246-5.557,7.862-8.348a28.845,28.845,0,0,1,9.013-6.975c.061-.027.123-.055.184-.08l-.016-.036a10.444,10.444,0,0,0,.114-1.506,11.128,11.128,0,0,1,.81-.9l.44.043c2.2-.674,3.642-2.831,5.762-3.722a7.391,7.391,0,0,1,2.475-.52c.17-.009.338-.013.505-.013A11.3,11.3,0,0,1,187.467,187a11.092,11.092,0,0,1,2.865,2.94l-.334.227q.425,1.075.85,2.146l-9.258,10.875c-1.613,1.892-3.321,4.235-3.047,6.59" transform="translate(-86.682 -85.641)" fill="#fff"/>
          <path id="Path_12658" data-name="Path 12658" d="M146.3,117.895c1.488-.406,2.98-.778,4.455-1.139a14.422,14.422,0,0,1,10.219,1.379c2.876,1.491,6.78,3.965,7.4,7.45.42.957.894,1.915,1.214,2.89a6.245,6.245,0,0,0-1.681-.941c-.629-.209-1.3-.252-1.931-.472a3.532,3.532,0,0,1-1.714-1.454l-.08.041a7.293,7.293,0,0,0-3.31-3A20.82,20.82,0,0,0,156,121.193c-3.826-.815-7.855-1.62-11.593-.47v.006a13.672,13.672,0,0,0-6.272,2.432l-.022-.034a19.357,19.357,0,0,0-8.151,12.145c-.841,4.237-.22,8.627.76,12.84.018.077.037.154.055.231a81.394,81.394,0,0,0,2.527,8.57c2.659,7.479,6.456,14.774,7.565,22.546a31.326,31.326,0,0,1,.306,3.632,3.552,3.552,0,0,1-.261,1.711,3.3,3.3,0,0,1-1.2,1.175c-2.608,1.706-5.723,2.418-8.763,3.1q-7.945,1.782-15.891,3.561.044.824.016,1.647a11.453,11.453,0,0,0-.341,3.451,55.732,55.732,0,0,0,.7,9.491l-.1.188a33.228,33.228,0,0,1-5.142-3.271,8.8,8.8,0,0,0-1.867-1.928,21.915,21.915,0,0,0-7.27-6.221,63.991,63.991,0,0,0-9.573-4.065c-.261-.095-.524-.188-.792-.272v-2.34l-.055-.013c2.436-9.263,9.58-19.191,15.453-26.937,2.586-3.408,5.315-6.7,7.808-10.181a114.967,114.967,0,0,0,7.474-12.063q1.218-2.233,2.362-4.5c.689-1.361,1.367-2.74,2.114-4.072a26.845,26.845,0,0,1,2.521-3.808,22.015,22.015,0,0,1,4.866-4.4,34.844,34.844,0,0,1,7.606-3.736c1.785-.649,3.623-1.205,5.467-1.706" transform="translate(-83.219 -78.519)" fill="#fff"/>
          <path id="Path_12659" data-name="Path 12659" d="M88.906,222.754a3.859,3.859,0,0,1-1.874-1.622,3.225,3.225,0,0,1,.218-2.829,7.65,7.65,0,0,1,.658-1.091c1.438-2.007,3.591-3.722,6.041-3.84.083,0,.168-.007.252-.007a1.285,1.285,0,0,1,.6.107,1.236,1.236,0,0,1,.508,1.143,7.654,7.654,0,0,1-1.867,4.224l.134.322c-.132.059-.259.125-.381.193a10.492,10.492,0,0,0-3.806,3.634c-.159-.075-.32-.152-.481-.234" transform="translate(-82.82 -88.601)" fill="#feeadf"/>
          <path id="Path_12660" data-name="Path 12660" d="M93.728,207.172a2.529,2.529,0,0,1,1.075,1.277l.052.066c-.245.19-.483.39-.719.594a4.494,4.494,0,0,0-.425-1.915Z" transform="translate(-83.539 -87.958)" fill="#feeadf"/>
          <path id="Path_12661" data-name="Path 12661" d="M93.21,210.009a1.892,1.892,0,0,1,.227.152,1.721,1.721,0,0,1,.329,2.49l.022.332c-2.45.117-4.6,1.832-6.04,3.841a7.591,7.591,0,0,0-.658,1.09,5.611,5.611,0,0,1-.286-.85,2.616,2.616,0,0,1-1.547-2.336,2.556,2.556,0,0,1,.01-.352,4.618,4.618,0,0,1,1.834-3.028,7.864,7.864,0,0,1,3.6-1.638,3.753,3.753,0,0,1,2.513.3" transform="translate(-82.66 -88.213)" fill="#feeadf"/>
          <path id="Path_12662" data-name="Path 12662" d="M84.883,214.376a1.672,1.672,0,0,1-1.563-.649,4.077,4.077,0,0,1-.942-2.375,7.855,7.855,0,0,1,.281-2.574,3.739,3.739,0,0,1,.443-1.134,3.29,3.29,0,0,1,1.186-1.013,2.1,2.1,0,0,1,2.161-.2,2.443,2.443,0,0,1,.672,2.137c0,.172-.01.342-.012.513a6.91,6.91,0,0,0,.406,1.391,7.655,7.655,0,0,0-.717.517,4.627,4.627,0,0,0-1.835,3.029,2.545,2.545,0,0,0-.009.351Z" transform="translate(-82.359 -87.857)" fill="#feeadf"/>
          <path id="Path_12663" data-name="Path 12663" d="M139.52,113.184a2.389,2.389,0,0,1,.125-.268m0,0a6.4,6.4,0,0,1,3.264-2.518,1.9,1.9,0,0,1,.721-.107,1.586,1.586,0,0,1,1.177.841,3.937,3.937,0,0,1,.4,1.443M132.055,116.8a24.424,24.424,0,0,1,4.133-4.31,4.49,4.49,0,0,1,1.121-.787,1.565,1.565,0,0,1,2.248.921,2.466,2.466,0,0,1,.09.279m0,0a4.914,4.914,0,0,1,.141,1.077.925.925,0,0,1-.043.392m0,0a.36.36,0,0,1-.1.136m-15.66,9.79c.04-.141.082-.281.126-.422a13.125,13.125,0,0,1,4.828-6.606,3.469,3.469,0,0,1,1.961-.794,1.675,1.675,0,0,1,1.044.388,1.16,1.16,0,0,1,.447.862m-12.133,17.41a6.227,6.227,0,0,1-.3-.6,10.112,10.112,0,0,1-.272-6.76,5.148,5.148,0,0,1,1.053-2.15,2.288,2.288,0,0,1,2.167-.77,1.827,1.827,0,0,1,.685.348,3.367,3.367,0,0,1,1.071,1.849M255.29,174.832c.089.5.151,1.005.194,1.509.328,3.927-.654,7.9-1.627,11.75-3.878,15.3-7.826,30.8-15.435,44.624-.04.077-.083.152-.125.227m-9.955-58.182c3.158,5.521,3.382,12.356,1.846,18.529a55.952,55.952,0,0,1-6.457,14.674q-.759,1.293-1.54,2.568m-31.256,24.415c.036-.039.072-.078.109-.116,2.152-2.3,4.823-4.072,7.073-6.283,2.639-2.592,4.716-5.8,7.754-7.905m-54.081,13.751c4.033-6.472,8.409-12.721,12.648-19.056,3.562-5.322,6.894-10.8,10.845-15.843q.733-.938,1.5-1.858l1.27-.422a27.834,27.834,0,0,1,28.6,21.488q.242,1.015.4,2.047m-85.972,5.938q-.116.362-.232.721a17.873,17.873,0,0,0-1.15,7.422c0,.019,0,.039.007.057m48.168-57.262c2.2-.673,3.642-2.831,5.762-3.722a7.358,7.358,0,0,1,2.474-.519c.17-.01.339-.014.506-.014a11.3,11.3,0,0,1,6.529,2.121,11.106,11.106,0,0,1,2.865,2.94,10.765,10.765,0,0,1,.579.989M132.629,211.33c3.165-2.254,5.651-5.945,8.355-8.736,2.582-2.658,5.728-4.7,8.484-7.172,2.844-2.556,5.246-5.557,7.862-8.348a28.835,28.835,0,0,1,9.013-6.976c.061-.027.122-.054.184-.079,2-.862,4.165-1.409,5.918-2.7m4-4.77q.1-.429.177-.865a15.738,15.738,0,0,0,.237-3.23m-10.368,8.3a10.647,10.647,0,0,1,.132,1.712,10.444,10.444,0,0,1-.114,1.506m-51.937,22.852a55.731,55.731,0,0,1-.7-9.491,11.452,11.452,0,0,1,.34-3.451,4.687,4.687,0,0,1,.488-1.084m-10.941,23.1c.381.513.76,1.025,1.143,1.538a58.38,58.38,0,0,0,5.523,6.572,23.1,23.1,0,0,0,8.727,5.694c.367.125.742.236,1.121.329a8.715,8.715,0,0,0,2.651.268,9.116,9.116,0,0,0,6.887-4.75,23.009,23.009,0,0,0,2.482-8.289q.147-.97.274-1.946a59.308,59.308,0,0,0,.37-13.711,8.95,8.95,0,0,0-.779-3.2m-22.841,5.331,0,0a33.237,33.237,0,0,0,5.142,3.271l1.141.606c1.944,1.023,3.984,1.862,5.877,2.976a12.774,12.774,0,0,1,4.763,4.446m-32.627-16.43a2.526,2.526,0,0,0-1.075-1.277,9.472,9.472,0,0,0-1.472-.748,33.8,33.8,0,0,1-3.668-1.876,2.775,2.775,0,0,1-1.459-1.531,1.973,1.973,0,0,1,1.688-2.155,4.481,4.481,0,0,1,2.188.231c.268.084.531.177.792.272a64.045,64.045,0,0,1,9.573,4.065,21.909,21.909,0,0,1,7.27,6.222c.148.206.29.417.429.633m-15.1-3.029c.056-.049.114-.1.17-.147.236-.2.474-.4.719-.594q.695-.552,1.436-1.039m-10.229,7A1.668,1.668,0,0,1,83.321,200a4.076,4.076,0,0,1-.942-2.375,7.852,7.852,0,0,1,.281-2.574,3.73,3.73,0,0,1,.443-1.134,3.292,3.292,0,0,1,1.186-1.014,2.1,2.1,0,0,1,2.162-.194,2.443,2.443,0,0,1,.671,2.136c0,.173-.009.343-.012.513q-.009.47-.021.939m-.3,6.769a1.718,1.718,0,0,1-.29-.083,2.616,2.616,0,0,1-1.547-2.337,2.7,2.7,0,0,1,.009-.351,4.627,4.627,0,0,1,1.835-3.029,7.867,7.867,0,0,1,3.6-1.637,3.753,3.753,0,0,1,2.513.3,1.884,1.884,0,0,1,.227.151,1.723,1.723,0,0,1,.329,2.491m-4.519,9.956a.141.141,0,0,0-.021-.009c-.159-.075-.319-.152-.48-.234a3.859,3.859,0,0,1-1.874-1.622,3.225,3.225,0,0,1,.218-2.829,7.648,7.648,0,0,1,.658-1.091c1.438-2.007,3.59-3.722,6.04-3.84.084,0,.168-.007.252-.007a1.287,1.287,0,0,1,.6.107,1.236,1.236,0,0,1,.508,1.143,7.655,7.655,0,0,1-1.867,4.224m10.362,5.135c-.281.129-.567.252-.853.37a56.3,56.3,0,0,1-8.046,2.435c-1.488.373-3.106.736-4.512.125a2.544,2.544,0,0,1-1.635-2.282,3.26,3.26,0,0,1,.539-1.49c.03-.048.059-.1.09-.145a10.5,10.5,0,0,1,3.806-3.634c.123-.068.25-.134.382-.193a1.78,1.78,0,0,1,1.347-.138,1.566,1.566,0,0,1,.887,1.443,4.249,4.249,0,0,1-.438,1.729c-.313.753-.653,1.495-1.013,2.225m89.34-35.219a44.718,44.718,0,0,1,2.372-4.934c.107-.188.213-.377.322-.563.016-.028.029-.052.046-.08m5.884-4.575c.016-.027.031-.055.047-.079a12.109,12.109,0,0,1,4.494-4.392m14.558,3.041v1.134M89.4,186.5c.109-.529.231-1.056.375-1.59,2.435-9.262,9.579-19.191,15.452-26.937,2.586-3.407,5.315-6.7,7.808-10.181a114.724,114.724,0,0,0,7.474-12.063q1.219-2.233,2.362-4.5c.69-1.361,1.368-2.74,2.115-4.072a26.815,26.815,0,0,1,2.52-3.808,22.015,22.015,0,0,1,4.866-4.4,34.864,34.864,0,0,1,7.606-3.736c1.786-.649,3.623-1.2,5.467-1.706,1.488-.406,2.981-.778,4.455-1.139a14.42,14.42,0,0,1,10.22,1.38c2.876,1.49,6.78,3.965,7.394,7.449,0,.009,0,.016.005.025M138.9,117.755a17.364,17.364,0,0,0-1.644.984,19.357,19.357,0,0,0-8.151,12.145c-.841,4.237-.22,8.627.76,12.84.019.077.037.154.055.231a81.609,81.609,0,0,0,2.527,8.57C135.1,160,138.9,167.3,140.011,175.07a31.142,31.142,0,0,1,.306,3.632,3.539,3.539,0,0,1-.262,1.711,3.3,3.3,0,0,1-1.2,1.175c-2.608,1.706-5.723,2.418-8.763,3.1q-7.946,1.784-15.891,3.562-2.237.5-4.471,1a10.347,10.347,0,0,0-3.97,1.49m72.291-26.454q1.78,1.6,3.557,3.2c.1.086.193.175.29.261a5.548,5.548,0,0,0,2.547,1.558,3.217,3.217,0,0,0,1.032.012c.15-.021.3-.05.451-.086a9.082,9.082,0,0,0,1.23-.409,27.165,27.165,0,0,0,3.318-1.59,2.019,2.019,0,0,0,.928-.844,1.785,1.785,0,0,0-.189-1.461c-.063-.139-.133-.275-.2-.407a11.25,11.25,0,0,1-1.194-4.9,41.166,41.166,0,0,0,.093-4.756,13.981,13.981,0,0,0-1.315-3.909c-3.177-6.982-8.042-17.657-13.066-22.5-.317-.309-.635-.591-.955-.849M170.9,169.02a2.636,2.636,0,0,0,.25.1c1.483.563,3.191.068,4.672-.558.33-.138.663-.286,1-.427a11.323,11.323,0,0,1,2.549-.832,5.073,5.073,0,0,1,1.319-.059M170.45,134.223c.055.234.107.458.154.676a15.572,15.572,0,0,1,.323,6.622m-3.039-17.673a11.7,11.7,0,0,1,1,.791,13.757,13.757,0,0,1,1.216,1.214c3.86,4.341,5.8,11.621,3.622,16.909a10.3,10.3,0,0,1-.739,1.453m-29.439-27.881c3.738-1.15,7.767-.345,11.594.47a20.876,20.876,0,0,1,4.866,1.456,7.291,7.291,0,0,1,3.309,3,5.065,5.065,0,0,1,.234.5M148.893,135.7q-3.044,1.987-6.222,3.763-.8.449-1.61.882c-2.266,1.214-4.922,3.1-7.595,3.065-.136,0-.276-.007-.412-.021m29.666,32.222a20.167,20.167,0,0,0,6.6-7.565c.3-.581.57-1.168.815-1.755a14.7,14.7,0,0,0,.769-10.246c-.055-.166-.113-.331-.177-.5m-30.049,20.415a9.772,9.772,0,0,0,1.773.885,38.745,38.745,0,0,0,4.744,1.517,27.721,27.721,0,0,0,7.6,1.13c2.582-.1,6.381-1.865,7.779-3.754m-2.007-43.147c-2.35,3.171-4.508,5.873-8.337,7.075a13.473,13.473,0,0,1-1.388.354,16.494,16.494,0,0,1-1.958.261m17.451-10.943a8.2,8.2,0,0,1,.093,1.59c-.148,3.952-3.124,7.181-6.354,9.518l-.394.279m4.065,3.582a4.14,4.14,0,0,1,4.627.095m-22.205.2c1.727-1.789,4.288-2.282,6.021-.914m10.7,22.291c-.324,1.849-2.57,5.53-4.151,6.059a4.934,4.934,0,0,1-5.127-1.266,24.767,24.767,0,0,1-1.942-3.09,12.191,12.191,0,0,1-1.311-2.373c.129.391,3.53.441,3.952.4,2.153-.179,4.285.172,6.433.138C162.046,165.838,162.878,166.069,162.891,165.985Zm-2.238-12.211a2.755,2.755,0,0,0,.2,1.549,10.327,10.327,0,0,0,.665.819,2.458,2.458,0,0,1,.376,1.731,6.263,6.263,0,0,1-.54,1.721m6.139-6.313a4.08,4.08,0,0,0-1.96-.012c.122-.268.4-.333.671-.44a2.012,2.012,0,0,1,.9-.095.671.671,0,0,1,.471.185m-18.625-.384a3.405,3.405,0,0,1,3.344.474c-1.035.025-2.614-.48-3.494.123m52.774-51.6a.059.059,0,0,0-.013-.009,9.162,9.162,0,0,0-4.48-1.892,9.314,9.314,0,0,0-5.8,1.039m41.377,42.161a4.934,4.934,0,0,1,3.514-.727m-8.03,23.274q.621-.524,1.274-1a23.612,23.612,0,0,1,8.243-3.875l.046-.012M201.8,168.14a17.417,17.417,0,0,1,9.285-3.038c1.665-.135,3.352-.156,5-.151a48.933,48.933,0,0,1,11.544,1.021,22.381,22.381,0,0,1,3.435,1.136m-29.519,58.57c2.248.406,4.415-.9,6.329-2.148q3.863-2.524,7.727-5.048m-41.171-19.324a4.2,4.2,0,0,1-.2-.892c-.275-2.354,1.434-4.7,3.047-6.59q4.626-5.437,9.258-10.875.866-1.013,1.728-2.028c3.069-3.6,6.365-7.366,10.852-8.869M188.47,116.48c-.089-.256-.177-.513-.263-.772-1.595-4.686-3.039-9.729-1.486-14.393a20.331,20.331,0,0,1,3.513-5.953,53.288,53.288,0,0,1,32.277-19.807c9.23-1.724,19.955-2.7,27.663,2m3.927,94.923c.068-.027.135-.055.2-.084s.127-.049.191-.074c4.341-1.792,6.3-3.87,9.444-7.536m-22.224,7.03a23.081,23.081,0,0,0,3.106-.7c.2-.056.392-.118.588-.182a24.308,24.308,0,0,0,12.509-9.332m-4.462-82.307a10.792,10.792,0,0,1,1.459.32c6.4,1.841,10.367,9.053,12.714,14.844,7.665,18.9,14.686,43.479,7.311,63.49-1.748,4.748-4.571,10.414-9.127,13.041m-58.552-70.6a54.513,54.513,0,0,1,26.162-13.667m-1.113,61.368a6.78,6.78,0,0,0,5.467,1.935m-5.326-21.248a57.473,57.473,0,0,1,4.864,10.8q.251.858.452,1.728c.086.37.168.744.243,1.116.329,1.638.563,3.294.769,4.953.107.853.209,1.708.3,2.565a56.968,56.968,0,0,1,.3,10.008c0,.052-.006.107-.011.159a29.033,29.033,0,0,1-2.815,10.852q-.333.664-.71,1.3M206.386,108.08a15.831,15.831,0,0,0,.837,2.763,34.471,34.471,0,0,0,5.2,8.214,82.9,82.9,0,0,0,5.791,6.755,75.017,75.017,0,0,0,13.706,10.679c2.45,1.552,5.047,3.23,6.086,5.936a7.007,7.007,0,0,1,.419,1.718M195.7,157.254c.116.454.243.917.385,1.375a14.126,14.126,0,0,0,.5,1.39,6.233,6.233,0,0,0,2.181,2.861c1.686,1.123,3.889,1.012,5.888.692a37.039,37.039,0,0,0,5.945-1.463q1.651-.555,3.246-1.263m-21.427-56.327a29.543,29.543,0,0,0-1.445,13.219m6,35.9a1.761,1.761,0,0,0,.191.064c2.45.678,6.535-3.115,7.926-5.358-2.26.628-7.908,1.268-10.254.2m4.3-25.283c1.749-.474,7.729,2.747,9.615,6.206m-17.468-1.785a7.39,7.39,0,0,1-2.255,4.464c-.7.66-1.589,1.259-1.8,2.2a3.7,3.7,0,0,0,.563,2.4,3.85,3.85,0,0,0,1.435,1.835m11.065-4.2c.064-.22.215-.324.533-.142a.952.952,0,0,1,.383.547,2.373,2.373,0,0,1,.117.964c-.063.739-.82.662-.934-.007A3.958,3.958,0,0,1,200.289,134.377Z" transform="translate(-82.359 -74.129)" fill="none" stroke="#732b1d" stroke-linecap="round" stroke-linejoin="round" stroke-width="2.007"/>
          <path id="Path_12665" data-name="Path 12665" d="M146.293,117.4v0l0,0m.1,1.465v0" transform="translate(-89.005 -78.627)" fill="none" stroke="#732b1d" stroke-linecap="round" stroke-linejoin="round" stroke-width="2.007"/>
        </g>
      </g>
    </g>
    <line id="Line_517" data-name="Line 517" x2="384" transform="translate(0 164)" fill="none" stroke="#732b1d" stroke-width="0.5"/>
  </g>
</svg>
