<svg xmlns="http://www.w3.org/2000/svg" xmlns:xlink="http://www.w3.org/1999/xlink" width="1088" height="110" viewBox="0 0 1088 110">
  <defs>
    <clipPath id="clip-path">
      <rect id="Rectangle_6957" data-name="Rectangle 6957" width="1088" height="110" transform="translate(139 369)" fill="#fdfcfb"/>
    </clipPath>
    <clipPath id="clip-path-2">
      <rect id="Rectangle_6951" data-name="Rectangle 6951" width="450.24" height="270.144" fill="none"/>
    </clipPath>
    <clipPath id="clip-path-3">
      <rect id="Rectangle_6952" data-name="Rectangle 6952" width="450.239" height="270.144" fill="none"/>
    </clipPath>
    <clipPath id="clip-image_threePeople">
      <rect width="1088" height="110"/>
    </clipPath>
  </defs>
  <g id="image_threePeople" clip-path="url(#clip-image_threePeople)">
    <g id="Mask_Group_47" data-name="Mask Group 47" transform="translate(-139 -369)" clip-path="url(#clip-path)">
      <g id="Group_19426" data-name="Group 19426" transform="translate(457.88 237.058)">
        <path id="Path_12801" data-name="Path 12801" d="M0,0H1088.12V270.144H0Z" transform="translate(-319)" fill="#f9fcfc"/>
        <path id="Path_12803" data-name="Path 12803" d="M0,0H1088.12V46.826H0Z" transform="translate(-319 223.318)" fill="#f5e6dc"/>
        <g id="Group_19415" data-name="Group 19415">
          <g id="Group_19414" data-name="Group 19414" clip-path="url(#clip-path-2)">
            <path id="Path_12749" data-name="Path 12749" d="M96.384,172.395c9.352-2.839,19.309-2.726,29.081-2.588m-24.889,12.976a19.734,19.734,0,0,1,7.907-.982.473.473,0,0,1,.544.472,33.5,33.5,0,0,1,.333,10.023c-.092.781-.344,1.719-1.1,1.927m21.469-12.217a24.346,24.346,0,0,0-7.5.784.887.887,0,0,0-.565.324.9.9,0,0,0-.085.47q0,3.5,0,7.014a3.494,3.494,0,0,0,.362,1.9,2.959,2.959,0,0,0,1.435,1.039,9.663,9.663,0,0,0,5.462.554m-13.761.366q.11,5.543.218,11.085M94.876,172.73V175.9m32.984-8.748c3.5,7.167,4.335,15.338,4.479,23.315s-.34,16,.763,23.9M95.5,170.181c1.83-1.569,4.387-1.894,6.784-2.137q12-1.212,24.051-1.824m-36.439-6.843q.13,6.571-.325,13.134m-7.8-12a77.811,77.811,0,0,0,.511,12.889m10.5-14.681a24.2,24.2,0,0,1,1.449,7.447m33.972-38.684a183.2,183.2,0,0,1-.9,35.5m-4.191-82.312a108.805,108.805,0,0,1,4.9,16.315M125.941,71.21c.617.693.248,1.775-.149,2.615l-2.42,5.111m-.617-8.752a9.248,9.248,0,0,1,2.024-1.875,1.2,1.2,0,0,1,1.024-.28.866.866,0,0,1,.479.947,2.519,2.519,0,0,1-.49,1.029l-1.4,2.069m-3.794-3.069a14.132,14.132,0,0,1,2.516-2.733,1.917,1.917,0,0,1,1.207-.565c.454.012.9.49.713.9m-7.443,2.91a29.768,29.768,0,0,1,4.369-4.5,1.253,1.253,0,0,1,.627-.34.447.447,0,0,1,.517.379M119.554,96.4l-.91-9.032a23.29,23.29,0,0,0-1-5.491c-.67-1.888-1.828-3.607-2.226-5.57a7.6,7.6,0,0,1,1.111-5.655m3.875,43.068a11.334,11.334,0,0,1,5.464,6.652M88.3,124.813a15.071,15.071,0,0,1,3.546,8.91m.379,14.579a53.067,53.067,0,0,0,.576-9.524m-.246,16.7q.248-1.566.5-3.128a3.309,3.309,0,0,0-.387-2.771m-9.575,9.408a14.916,14.916,0,0,0,5.575-.243,6.458,6.458,0,0,0,1.952-.551,2.182,2.182,0,0,0,1.207-1.546m-9.537-5.325a14.563,14.563,0,0,0,8.194-.669m-9.223.056a3.235,3.235,0,0,0-.608,1.267,6.476,6.476,0,0,0-.109,1.43l0,3.681c0,.79.1,1.747.81,2.087m16.306-41.793c-3.381,2.127-8.076,1.949-10.845,4.829-2.426,2.524-2.448,6.412-2.845,9.89-.674,5.924-2.843,11.88-1.552,17.7m48.233-43.481.1,9.251a18.617,18.617,0,0,1-.251,4.026c-.436,2.071-1.584,4.055-1.349,6.158m.646-27.036a15.694,15.694,0,0,1,.566,6.026m-9.611-7.058a7.619,7.619,0,0,1,7.828-.124m-12.37,14.854a7.44,7.44,0,0,0,2.019-4.385,16.452,16.452,0,0,1,.2-2.12M101.169,116.4a25.373,25.373,0,0,0,14.056-1.965m-15.4-1.263c1.192-1.181,3.146-.771,4.809-.549a15.275,15.275,0,0,0,7.157-.767,7.431,7.431,0,0,1,1.842-.53,1.907,1.907,0,0,1,1.719.654m-16.484,4.056q-.123-1.163-.247-2.326m-4.673-10.52c-.367.193-.309.729-.2,1.128.343,1.228.946,2.69,2.214,2.824M117.11,100.2c.107-.348.66-.337.889-.054a1.539,1.539,0,0,1,.209,1.047c-.063,1.518-.285,3.306-1.619,4.031m-13.862,5.642c2.642-.529,4.735.622,6.584.146a6.03,6.03,0,0,0,2.3-1.426m2.906-2.528a3.387,3.387,0,0,0-.536,2.364m.771-20.462a14.011,14.011,0,0,1,1.591,5.2,28.012,28.012,0,0,1-.544,7.318l-.522,3.2M103.749,82.873l3.718-.01a8.2,8.2,0,0,1,1.949.152c1.974.48,3.274,2.309,4.393,4.006M93.338,91.8a8.974,8.974,0,0,1,7.908-7.971m-5.857,19.181a9.829,9.829,0,0,0,2.412,4.8,53.973,53.973,0,0,1,3.481,4.18m-8.39-17.829a7.735,7.735,0,0,0,1.418,6.561" transform="translate(9.955 7.994)" fill="none" stroke="#ba9489" stroke-linecap="round" stroke-linejoin="round" stroke-width="0.801"/>
            <path id="Path_12750" data-name="Path 12750" d="M352.353,35.877v.98m.978,24.1v1.1m11.747-12.6h.857m-25.574.98h.979m11.278-.215a54.1,54.1,0,0,0,5.227-3.719m-5.37-6.712c.045,4.042-.039,6.124.181,10.16m16.406-.339A16.016,16.016,0,1,1,353.044,33.6,16.017,16.017,0,0,1,369.061,49.613Zm-1.362,0a14.655,14.655,0,1,1-14.655-14.655A14.654,14.654,0,0,1,367.7,49.613Zm23.519,45.873v15.021M380.568,95.213h8.878m-10.107.273v15.157m-2.731-18.162v17.48m-12.017-18.3h11.744M363.5,91.8v1.5m9.561.41V110.1m-10.789-16.66h9.286m-10.79.136v16.388M356.943,94.12V110.78m-1.5-17.884a1.705,1.705,0,0,1,1.222.278m-2.178-.146v17.48m-10.107-17.48h8.467m-9.97.683v15.7m-5.569-5.853a2.056,2.056,0,0,0-.086,2.058m-7.455-3.307h7.921m-9.823,2.183a3.147,3.147,0,0,1,.385-2.055m9.574,7.382v1.229m-.273-4.234v1.366m-9.013-2.321h9.149m-10.761,2.588a3.268,3.268,0,0,1,.342-2.338m-.633,3.438a5.047,5.047,0,0,0,.1,1.78m11.223-2.054h-9.97m-5.461-16.115V110.1m-2.325-17.623a3.223,3.223,0,0,1,1.911-.253m-3,.806v16.934m-3.526-17.42a3.557,3.557,0,0,1,2.58-.089m-2.6,1.258v16.524M311.9,99.861a3.447,3.447,0,0,0,.207,2.061m-.5,2.034a2.86,2.86,0,0,0-.035,1.78m.3,2.724v2.321m-15.152-1.909a2.506,2.506,0,0,0,.257,2.325m.965-4.376h13.792m-15.294-2.184a2.51,2.51,0,0,0,.018,2.311m1.621-4.087h13.655m-13.792-4.37h14.2m-15.4.383a8.037,8.037,0,0,0,.078,4.131m108.744,8.948v2.817m-112.956-3.329H402.5M293.384,114h110.65m-112.7-2.049v1.537" transform="translate(36.009 4.153)" fill="none" stroke="#d4c0b7" stroke-linecap="round" stroke-linejoin="round" stroke-width="0.534"/>
          </g>
        </g>
        <g id="Group_19417" data-name="Group 19417">
          <g id="Group_19416" data-name="Group 19416" clip-path="url(#clip-path-3)">
            <path id="Path_12751" data-name="Path 12751" d="M267.877,52.961a35.719,35.719,0,0,0-3.692,9.151,69.649,69.649,0,0,0,12.575.065,23.06,23.06,0,0,0-3.619-9.107m-3.072-3.763c-.93.133-1.765,1.644-1.989,2.565a.772.772,0,0,0,0,.483c.127.3.525.339.847.337l3.775-.031a3.414,3.414,0,0,0-1.9-3.42M270.44,2.719c0,15.085-.348,30.43-.348,45.516M170.4,52.961a35.8,35.8,0,0,0-3.69,9.151,69.637,69.637,0,0,0,12.574.065,23.06,23.06,0,0,0-3.619-9.107M172.6,49.307c-.93.133-1.765,1.644-1.988,2.565a.764.764,0,0,0,0,.483c.127.3.524.339.848.337l3.772-.031a3.411,3.411,0,0,0-1.9-3.42m-.358-46.522c0,15.085-.348,30.43-.348,45.516m46.149,4.726a35.72,35.72,0,0,0-3.692,9.151,69.65,69.65,0,0,0,12.575.065,23.059,23.059,0,0,0-3.618-9.107m-3.073-3.763c-.93.133-1.764,1.644-1.988,2.565a.773.773,0,0,0,0,.483c.128.3.525.339.848.337l3.774-.031a3.415,3.415,0,0,0-1.9-3.42m-.36-46.522c0,15.085-.348,30.43-.348,45.516m28.309,106.211h40.535m-87.564,0h40.878m-88.258,0H158.4m13.983,0H193.84M293.866,58.053V158.659m-3.16-100.606V154.1M247.538,58.053V154.1m-3.16-96.043V154.1M199.456,58.053V154.1M196.3,58.053V154.1M153.129,58.053V154.1M149.97,57V158.659M296.324,35.943V55.161m.349,104.9H145.056v1.949m0,.858H296.673v-2.182M145.056,56.564h22.17m11.81,0h36.706m11.232,0h37.4m12.5,0h19.8M144.705,36.644V54.108m.351-19.218H294.218M165.3,141.081a6.093,6.093,0,0,1,.972-3.093c.106-.165.269-.347.482-.322.233.028.325.276.362.48a18.942,18.942,0,0,1,.2,4.608m-4.018-.048a7.906,7.906,0,0,1,1.176-4.919q.281,2.012.562,4.026m1.372,3.061a5.511,5.511,0,0,1,2.062-3.334c.445.017.522.565.448.951-.371,1.919-.22,3.358-1.083,5.153m-5.687.291q-.145-1.908-.289-3.815a3.5,3.5,0,0,1,.647-2.867l1.77,4.355m-.217,2.516a29.221,29.221,0,0,1,1.062-5.927c.157-.551.473-1.207,1.121-1.252a20.58,20.58,0,0,1-.138,6.915m4.431.627a26.334,26.334,0,0,1-1.582,9.9m-8.78-10.247c2.685,0,7.269-.017,9.954-.017m-10.585.181a57.9,57.9,0,0,0,1.092,10.661" transform="translate(17.886 0.336)" fill="none" stroke="#d4c0b7" stroke-linecap="round" stroke-linejoin="round" stroke-width="0.618"/>
          </g>
        </g>
        <g id="Group_19419" data-name="Group 19419">
          <g id="Group_19418" data-name="Group 19418" clip-path="url(#clip-path-2)">
            <path id="Path_12752" data-name="Path 12752" d="M106.653,55.2h2.684l1.639-.075H114.4m-12.3-.074h2.385M97.038,54.9h2.981M10.238,216.334h13.58m-13.58-5.151H22.881M9.3,206.969h18.73M16.326,53.377h7.492m-7.961.936V80.068m4.682-26.223v28.1m4.683-29.033h4.215m-4.215.937V80.537m6.556-28.1h4.214M31.31,54.782V81m7.024-28.1h4.215M37.865,55.25V81M19.894,95.531c5.775,0,13.133-.01,18.908-.01M19.135,98.33v24.351M24.754,98.33v22.478m4.215-23.414v22.945m5.619-22.945v25.287M38.8,97.394V119.4m-18.5,24.77c-.612-.416-3.236-.2-3.587.452a4.015,4.015,0,0,0-.264,2.175l1.8,27.844m3.688-30.891c0,9.054.467,21.384.467,30.437m.937-31.374h6.088m2.342-.467h4.214m-4.214,2.235v30.074m5.151-40.27H42.08m-5.151,2.342v40.738m34.406-37.91V141m14.294-.52V148.9m-5.62-9.366v4.215M63.62,138.134H88.907m-29.5-.937v6.088M51.445,137.2h5.619m75.86-92.717V66.957m-5.151-22.478v20.6M123.09,42.139h12.175m-14.517-.469V77.727m-4.682-21.072V78.664m-5.619-21.072V79.6M105.3,57.123V81m-4.214-24.35c0,8.585-.078,15.715-.078,24.3M96.4,56.655V81.941m-4.6-26.8h3.824m-3.907,1.513V81M87.034,58.528V78.664m-5.84-21.923c1.4-1,4-.6,5,0M75.529,54.556c.847-.772,2.317-.273,2.942.689a6.006,6.006,0,0,1,.639,3.326q-.024,11.092-.046,22.183m-7.912-27.3a2.014,2.014,0,0,1,2.542.918,5.819,5.819,0,0,1,.575,2.9q.273,12.138.051,24.28M69.708,51.035v29.5M65.493,49.631h3.278m-4.682,2.34V78.664M57.533,51.035V77.727M51.445,48.694h4.834m2.42,0h3.984M98.92,101.619q-.531,8.66-1.063,17.319m-2.431-19.2q-.779,11.717-1.558,23.434M90.746,98.8q-1.439,15.216-2.878,30.432M86.131,99.271q-1.584,15.051-4.335,29.95m1-32.457c4.683,0,9.858.631,14.542.631M81.1,97.419q-2.408,15.207-4.818,30.416M73.923,93.648v32.31M65.493,94.117c0,11.707-.108,20.755-.108,32.462m-13-35.741c6.711,0,14.778.794,21.49.794M58,94.1v31.863M15.389,177H42.08m-26.691,3.746H40.675m102.551-146.1v154.53M13.047,33.241H142.881M15.857,82.877H40.675M14.92,86.623H39.738M12.111,127.831h28.1m-25.755-4.683H38.8m15.921,10.3H91.249m-41.208-3.278H87.97M136.2,86.623h2.81M134.8,83.814h4.683M50.509,86.156H105.3m-54.318-2.81h65.556m-67.9-40.271V177.936M45.358,42.606V186.834M139.948,39.329V97.394M13.516,37.456h126.24" transform="translate(1.15 4.109)" fill="none" stroke="#d4c0b7" stroke-linecap="round" stroke-linejoin="round" stroke-width="0.534"/>
            <path id="Path_12753" data-name="Path 12753" d="M101.374,208.569c-12.249,1.771-24.211,2.44-36.454,4.2a2.833,2.833,0,0,1-1.813.154l-.033.108c-4.448-1.366-14.816-4.283-18.766-5.463q-5.767-1.721-11.532-3.446l9.838-.918,0-.021a29.829,29.829,0,0,1,2.926-.778l.007-.093c1.924.124,3.82.237,5.661.33a2.655,2.655,0,0,0,.729.37,1.91,1.91,0,0,0,.318,1.164,2.868,2.868,0,0,0,1.921,1.122,8.368,8.368,0,0,0,2.279-.015q2.309-.221,4.619-.445c.726-.069,1.591-.237,1.867-.915l-.066-.339a4.782,4.782,0,0,0,3.263-1.979l-.07-.387c.42-.075.84-.163,1.257-.246a4.693,4.693,0,0,0,1.187-.352,2.164,2.164,0,0,0,.492.555l.487-.113a2.266,2.266,0,0,0,1.473.688l.2-.052a3.542,3.542,0,0,0,.162.5,2.828,2.828,0,0,0,1.561,1.6,2.028,2.028,0,0,0,2.131-.42l.5-.351a8.186,8.186,0,0,0,.793,1.155,2.881,2.881,0,0,0,.861.8c.862.456,1.927.034,2.891.2l.069-.183a3.549,3.549,0,0,0,1.76.16.429.429,0,0,0,.282-.138,1.309,1.309,0,0,0,.444.528,2.363,2.363,0,0,0,2.512.149,4.642,4.642,0,0,0,1.276-1.263c.309-.4.618-.8.93-1.2a5.064,5.064,0,0,0,3.209.957l.009-.1a15.887,15.887,0,0,0,2.173.074h0c1.324-.038,2.66-.2,3.972-.372l18.72-2.389,0,.009c.393-.115.787-.228,1.176-.346l-.009-.029a3.5,3.5,0,0,0,1.813-1.057,2.574,2.574,0,0,0,.528.576l-.012.039q7.38,2.144,14.834,4.022l-.066.327a29.059,29.059,0,0,1-3.355.519v-.8q-3.507-.406-7.009-.808a43.286,43.286,0,0,0-10.383-.354,14.591,14.591,0,0,0-9.188,4.406l.327.183.052.264c-.1.021-.2.039-.3.057a7,7,0,0,1-2.446.147" transform="translate(4.051 24.719)" fill="#fff"/>
            <path id="Path_12754" data-name="Path 12754" d="M122.518,204.306v.8a93.09,93.09,0,0,1-11.7-.018,31.465,31.465,0,0,0-14.548,2.647l-.327-.183a14.583,14.583,0,0,1,9.188-4.407,43.336,43.336,0,0,1,10.382.354q3.5.406,7.009.808" transform="translate(11.858 25.085)" fill="#fff"/>
            <path id="Path_12755" data-name="Path 12755" d="M74.261,195.2a12.35,12.35,0,0,1,1.239-.036,3.978,3.978,0,0,1,3.02.144c.984.388,1.893.961,2.9,1.285a16.824,16.824,0,0,1,1.891.584,9.526,9.526,0,0,1,1.345.844,16.456,16.456,0,0,0,1.507.916l.088-.171a3.469,3.469,0,0,0,1.257.5l.072-.411,1.144-.351q5.746-1.775,11.49-3.545c.133-.042.264-.081.4-.124l0-.024a3.469,3.469,0,0,1-.379-.837l-.194.057c-.573-.847-1.147-1.7-1.715-2.549q-.44-.657-.873-1.317l.108-.072a17.234,17.234,0,0,1-.88-1.729,22.7,22.7,0,0,1,6.249-5.355,5.071,5.071,0,0,1,1.84-.813l.81-.1c.169.216.336.438.51.666,1.243,1.63,2.627,3.509,3.821,5.061a35.2,35.2,0,0,1,3.767,5.589,11.877,11.877,0,0,1,1.4,6.51,4.025,4.025,0,0,1-.883,2.27,3.5,3.5,0,0,1-1.812,1.056l.009.03q-.587.175-1.178.345l0-.009q-9.361,1.193-18.721,2.39c-1.311.167-2.647.333-3.971.372h0a15.728,15.728,0,0,1-2.173-.075l-.009.1a5.081,5.081,0,0,1-3.209-.957c-.311.4-.621.8-.93,1.2a4.628,4.628,0,0,1-1.275,1.264,2.363,2.363,0,0,1-2.512-.149,1.3,1.3,0,0,1-.444-.529.42.42,0,0,1-.283.138,3.544,3.544,0,0,1-1.758-.158l-.07.183c-.963-.172-2.028.252-2.89-.2a2.886,2.886,0,0,1-.862-.8,8.285,8.285,0,0,1-.792-1.156l-.5.352a2.03,2.03,0,0,1-2.131.42,2.825,2.825,0,0,1-1.561-1.6,3.811,3.811,0,0,1-.163-.5,5.149,5.149,0,0,1-.1-1.765l.14-.009c-.015-.258-.018-.516-.009-.774a1.615,1.615,0,0,0,1.081-.537,1.786,1.786,0,0,0-.469-2.378l.052-.066a2.505,2.505,0,0,1,1.365-1.275l.009.011a22.276,22.276,0,0,1,2.555-1.726,4.045,4.045,0,0,1,1.362-.615,1.378,1.378,0,0,1,1.33.426" transform="translate(8.258 22.508)" fill="#fbf1e7"/>
            <path id="Path_12756" data-name="Path 12756" d="M94.172,186.467c-.258,4.479-.585,9.4-1.381,12.5a6.646,6.646,0,0,1-.185,1.731.372.372,0,0,1-.055.138l-1.143.352-.072.411a3.468,3.468,0,0,1-1.258-.5l-.087.171a16.068,16.068,0,0,1-1.507-.916,9.48,9.48,0,0,0-1.345-.843,16.605,16.605,0,0,0-1.891-.585c-1.006-.325-1.915-.9-2.9-1.285a3.975,3.975,0,0,0-3.019-.144,12.327,12.327,0,0,0-1.239.036,1.382,1.382,0,0,0-1.33-.426,4.04,4.04,0,0,0-1.363.615,22.03,22.03,0,0,0-2.554,1.727l-.009-.012a2.508,2.508,0,0,0-1.366,1.275l-.051.066a5.785,5.785,0,0,0-2.491-.946c-.255-.056-.51-.117-.763-.183-.045-.167-.087-.333-.131-.5a3.667,3.667,0,0,0-2.83-1.717l-.082-.009q.4-3.578.8-7.155c.051-.456.051-1.021-.345-1.252a.829.829,0,0,0-1.024.315,2.442,2.442,0,0,0-.339,1.111q-.517,3.715-1.293,7.39l-.009.018q-1.082-.474-2.122-1.027-1.325-.7-2.582-1.519a4.471,4.471,0,0,0-1.866-.864c-.715-.079-1.336.417-2.035.582a3.5,3.5,0,0,0-1.693,1.2l-.036-.03a1.49,1.49,0,0,1-.165-.8q-.428-3.763-1.027-7.509a.528.528,0,0,1-.011-.07c-.012-.069-.03-.183-.052-.336a7.444,7.444,0,0,0-2.816,2.911c-.713,1.192-1.281,2.471-2.076,3.611a1.06,1.06,0,0,1-.352.354,1.078,1.078,0,0,1-.993-.2,19.962,19.962,0,0,1-2.254-1.548l0,0a2.521,2.521,0,0,1-.936-.7q1.512-1.648,2.951-3.36l.009-.006c-1.826-2.929-5.208-5.574-8.216-7.378l-.489.027a3.33,3.33,0,0,1-.181-.724l-.117-.027c.546-2.1,2.963-3.212,3.947-4.209,3.545-3.59,6.009-8.227,9.989-11.325a4.689,4.689,0,0,1,2.584-1.171,9.288,9.288,0,0,1,2.834-.266l.192-.19c.136.145.276.285.424.42l.138-.144a15.716,15.716,0,0,0,4.124.8,15.383,15.383,0,0,0,2.785-.078,4.3,4.3,0,0,0,1.444-.37,1.889,1.889,0,0,0,.348-.21l.07-.009a13.565,13.565,0,0,1,.108,2.1l.1.052A9.386,9.386,0,0,0,64,168.53a.294.294,0,0,0-.015.083,5.4,5.4,0,0,0,2.11,4.915,8.984,8.984,0,0,0,6.03,1.584,12.668,12.668,0,0,0,7.231-2.683,10.446,10.446,0,0,0,3.7-5.98,2.276,2.276,0,0,0,.1-.237,5.674,5.674,0,0,0,.324-1.9c0-.083,0-.171-.009-.255l.28-.015,7.933.442a15.249,15.249,0,0,1,3.074.381c3.674.975,6.039,4.445,8.069,7.66q2.471,3.913,4.944,7.826c.663,1.047,3.142,2.9,2.466,4.5l-.324.249c-.174-.228-.343-.451-.51-.666l-.811.1a5.058,5.058,0,0,0-1.839.813A22.7,22.7,0,0,0,100.5,190.7a17,17,0,0,0,.88,1.729l-.108.072q.431.662.873,1.318a5.421,5.421,0,0,1-.9.167l-.027-.2c-.706.3-1.789,1.345-2.275,1.092a1.629,1.629,0,0,1-.576-.651c-1.167-1.925-1.918-4.506-3.067-6.567l-.2.108c-.309-.436-.625-.865-.934-1.3" transform="translate(4.43 20.181)" fill="#eaccaf"/>
            <path id="Path_12757" data-name="Path 12757" d="M54.377,139.036l-.021.063a7.125,7.125,0,0,0,.567,3.152,3.515,3.515,0,0,1-2.035-.8l-.045.057a14.113,14.113,0,0,0,.916,4.127,8.1,8.1,0,0,0,.627,1.218l-.2.133a9.645,9.645,0,0,1-.27,2.611,4.743,4.743,0,0,1-.679,1.462.936.936,0,0,1-.54-.48l-.237-.018c-.036.408-.054.819-.054,1.23a14.993,14.993,0,0,0,.156,2.161l.285-.042a3.388,3.388,0,0,0,2.539,1.413c.039.088.078.174.117.264.336.745.715,1.478,1.087,2.2a9.338,9.338,0,0,0,4.838,4.253c.039.225.079.447.118.67a16.649,16.649,0,0,1,1.471,5.09l-.07.009a1.828,1.828,0,0,1-.348.21,4.3,4.3,0,0,1-1.444.37,15.485,15.485,0,0,1-2.785.079,15.764,15.764,0,0,1-4.124-.8l-.138.144c-.147-.135-.289-.275-.424-.419-2.38-2.54-3.082-6.181-3.346-9.611-.384-4.944-.934-9.927-.478-14.885.219-2.4.661-6.849,3.461-8a2.623,2.623,0,0,1,.562-.492,6.531,6.531,0,0,1,1.839-.827l-.063-.306c2.155-3.394,7.471-3.554,11.007-2.915,4.989.9,9.047,4.794,11.587,9,4.136,6.852,5.276,15.157,5.337,23.021a8.422,8.422,0,0,1-.172,2.167,4.239,4.239,0,0,1-1.861,2.521l.078.2a2.949,2.949,0,0,1-.44.14.2.2,0,0,1-.043.012,5.41,5.41,0,0,1-1.543.039,13.84,13.84,0,0,1-1.642-.19,4.05,4.05,0,0,1-1.984-.885,10.054,10.054,0,0,0,2.681-5.751,23.464,23.464,0,0,0-.375-7.219,28.72,28.72,0,0,0-3.049-9.581l0-.006a4.6,4.6,0,0,0-1.02-1.591,8.222,8.222,0,0,1-1.2-2.078c-.363-.171-.724-.348-1.075-.537l-.162.324a34.3,34.3,0,0,1-7.365-.275c-.3-.129-.6-.276-.919-.438a13.987,13.987,0,0,1-6.3-.33c.09.1.18.207.27.309a8.048,8.048,0,0,1-3.085-.165" transform="translate(6.141 16.075)" fill="#e1a775"/>
            <path id="Path_12758" data-name="Path 12758" d="M81,169.584a10.445,10.445,0,0,1-3.7,5.979,12.664,12.664,0,0,1-7.23,2.683,8.982,8.982,0,0,1-6.03-1.584,5.4,5.4,0,0,1-2.11-4.913.26.26,0,0,1,.015-.084,9.386,9.386,0,0,1,.928-2.687l-.1-.051a13.7,13.7,0,0,0-.108-2.1,16.617,16.617,0,0,0-1.472-5.091c-.038-.222-.078-.444-.117-.67a9.338,9.338,0,0,1-4.838-4.253c-.372-.72-.751-1.453-1.087-2.2-.039-.09-.078-.176-.117-.264A11.761,11.761,0,0,1,54,150.59c-.352-.156-.7-.316-1.047-.474-.025-.009-.046-.021-.07-.03a4.743,4.743,0,0,0,.679-1.462,9.645,9.645,0,0,0,.27-2.611l.2-.131a8.109,8.109,0,0,1-.627-1.219,14.105,14.105,0,0,1-.916-4.127l.045-.057a3.515,3.515,0,0,0,2.035.8,7.091,7.091,0,0,1-.567-3.152l.021-.063a8.048,8.048,0,0,0,3.085.165c-.09-.1-.18-.2-.27-.309a13.971,13.971,0,0,0,6.3.33c.316.162.616.309.918.438a34.382,34.382,0,0,0,7.366.276l.162-.325c.352.189.711.366,1.075.537a8.251,8.251,0,0,0,1.2,2.078,4.587,4.587,0,0,1,1.021,1.591l0,.006a28.737,28.737,0,0,1,3.049,9.581,23.464,23.464,0,0,1,.375,7.219,10.054,10.054,0,0,1-2.681,5.751,4.05,4.05,0,0,0,1.984.885,13.834,13.834,0,0,0,1.642.19,5.411,5.411,0,0,0,1.543-.039.2.2,0,0,0,.043-.012,3.565,3.565,0,0,0,.579,1.021,5.679,5.679,0,0,1-.324,1.9,2.379,2.379,0,0,1-.1.237M68.993,142.467c.138-.144-.255-.582-.415-.654a.127.127,0,0,0-.135.009.139.139,0,0,0-.042.111c-.007.2.255.894.591.534m-9.437,3.089c.138-.147-.258-.585-.415-.657a.126.126,0,0,0-.135.009.148.148,0,0,0-.045.115c-.006.2.255.891.594.534" transform="translate(6.489 17.047)" fill="#fbf1e7"/>
            <path id="Path_12759" data-name="Path 12759" d="M63.595,199.975a2.2,2.2,0,0,0,.1,1h.016a10.773,10.773,0,0,0,.156,1.792.37.37,0,0,0,.1.239c.178.147.411-.09.513-.293.363-.718.729-1.433,1.093-2.149-.666-.18-1.33-.375-1.984-.589m6.036-2.3c.252.066.507.126.763.183a5.8,5.8,0,0,1,2.491.945,1.789,1.789,0,0,1,.469,2.378,1.608,1.608,0,0,1-1.081.537,4.806,4.806,0,0,1-1.294-.042c-.164-.024-.333-.048-.5-.075l-.027.171a1.313,1.313,0,0,1-.625,1.282,1.533,1.533,0,0,1-.231.135,4.673,4.673,0,0,1-1.185.352c-.417.084-.837.171-1.257.246a15.5,15.5,0,0,1-3.3.325,17.66,17.66,0,0,1-4.647-.937c-1.87-.58-3.719-1.234-5.535-1.966a4.67,4.67,0,0,1-.528-.243l-.151.378a1.875,1.875,0,0,0,.255,2.594,3.027,3.027,0,0,0,.427.333l-.271.357a1.5,1.5,0,0,0-.381.952,2.655,2.655,0,0,1-.729-.37c-1.84-.093-3.737-.207-5.661-.33-4.626-.293-9.387-.63-13.792-.849a19.023,19.023,0,0,1-4.284-.539,17.337,17.337,0,0,1-3.307-1.435,2.754,2.754,0,0,1-.9-.643,2.865,2.865,0,0,1-.273-2.308c.435-2.654.915-5.409,2.485-7.591a17.329,17.329,0,0,1,1.7-1.939Q33,184.7,37.745,179.816l.113-.072a3.013,3.013,0,0,1-.249-.522l.49-.027c3.008,1.8,6.39,4.448,8.215,7.378l-.009.007q-1.436,1.711-2.951,3.358-1.17,1.279-2.389,2.512c-.06.124-.117.249-.171.375,4.3.792,8.653,1.819,12.769,2.035l.006-.027a.364.364,0,0,0,.057.016,4.817,4.817,0,0,1,.451-.6,3.5,3.5,0,0,1,1.692-1.2c.7-.165,1.321-.661,2.036-.583a4.46,4.46,0,0,1,1.866.865q1.257.819,2.582,1.519,1.04.553,2.121,1.026,1.018.45,2.065.828a32.357,32.357,0,0,0,3.191.973" transform="translate(2.963 22.149)" fill="#fbf1e7"/>
            <path id="Path_12760" data-name="Path 12760" d="M65.558,201.167l-.487.115a2.19,2.19,0,0,1-.492-.556,1.654,1.654,0,0,0,.231-.135,1.314,1.314,0,0,0,.624-1.282l.028-.171c.164.027.333.052.5.075a4.8,4.8,0,0,0,1.293.042q-.013.388.009.775l-.14.009a5.116,5.116,0,0,0,.1,1.764l-.194.052a2.269,2.269,0,0,1-1.474-.688" transform="translate(7.982 24.614)" fill="#fbf1e7"/>
            <path id="Path_12761" data-name="Path 12761" d="M64.827,195.387c.045.169.087.334.133.5a32.564,32.564,0,0,1-3.191-.972l.009-.027c.045-.409.09-.82.138-1.228l.081.009a3.662,3.662,0,0,1,2.83,1.717" transform="translate(7.635 23.937)" fill="#fbf1e7"/>
            <path id="Path_12762" data-name="Path 12762" d="M62.6,186.188c.4.231.4.8.345,1.252q-.4,3.58-.8,7.156c-.048.408-.093.819-.138,1.227L62,195.85c-.7-.252-1.387-.528-2.065-.828L59.94,195q.779-3.669,1.293-7.39a2.438,2.438,0,0,1,.339-1.11.828.828,0,0,1,1.024-.316" transform="translate(7.408 23.003)" fill="#fbf1e7"/>
            <path id="Path_12763" data-name="Path 12763" d="M64.008,201.392l.069.388a4.776,4.776,0,0,1-3.262,1.978c-.12.021-.237.036-.355.052a14.085,14.085,0,0,1-4.529-.478q-1.584-.342-3.17-.688a6.734,6.734,0,0,1-2.233-.769,3.024,3.024,0,0,1-.427-.333,1.875,1.875,0,0,1-.255-2.594l.151-.378a4.579,4.579,0,0,0,.528.243c1.816.733,3.665,1.387,5.535,1.966a17.651,17.651,0,0,0,4.646.937,15.5,15.5,0,0,0,3.3-.325" transform="translate(6.109 24.543)" fill="#fbf1e7"/>
            <path id="Path_12764" data-name="Path 12764" d="M59.358,198.689h-.015a2.218,2.218,0,0,1-.106-1c.655.214,1.318.409,1.984.589-.363.717-.729,1.431-1.092,2.149-.1.2-.337.44-.513.294a.371.371,0,0,1-.1-.24,10.883,10.883,0,0,1-.156-1.792" transform="translate(7.32 24.434)" fill="#fff"/>
            <path id="Path_12765" data-name="Path 12765" d="M49.827,202.821a1.5,1.5,0,0,1,.381-.952l.271-.357a6.734,6.734,0,0,0,2.233.769q1.586.347,3.17.688a14.085,14.085,0,0,0,4.529.478c.118-.016.235-.03.355-.052l.065.339c-.275.679-1.14.846-1.866.916l-4.62.444a8.4,8.4,0,0,1-2.278.016,2.87,2.87,0,0,1-1.921-1.124,1.908,1.908,0,0,1-.318-1.164" transform="translate(6.158 24.907)" fill="#fbf1e7"/>
            <path id="Path_12766" data-name="Path 12766" d="M54.051,149.251a11.761,11.761,0,0,0,1.033,3.761,3.384,3.384,0,0,1-2.539-1.413l-.285.042a14.994,14.994,0,0,1-.156-2.161h.138a3.379,3.379,0,0,0,.693-.733c.025.009.045.021.07.03.351.158.7.318,1.047.474" transform="translate(6.44 18.385)" fill="#fbf1e7"/>
            <path id="Path_12767" data-name="Path 12767" d="M52.394,148.321a.933.933,0,0,0,.54.48,3.406,3.406,0,0,1-.693.733H52.1c0-.411.018-.822.054-1.23Z" transform="translate(6.44 18.33)" fill="#ecc1a1"/>
          </g>
        </g>
        <g id="Group_19421" data-name="Group 19421">
          <g id="Group_19420" data-name="Group 19420" clip-path="url(#clip-path-3)">
            <path id="Path_12768" data-name="Path 12768" d="M81.041,143.817l0,.007M68.1,172.635a.266.266,0,0,0-.015.084m28.351,40.1h0m27.123-5.409h34.59m-155.458.813h23.28m81.49,8.342a14.586,14.586,0,0,1,9.188-4.407,43.345,43.345,0,0,1,10.383.354q3.5.406,7.009.808m-11.811-4.187.4.117q7.379,2.142,14.834,4.021m-29.674,3.476a31.47,31.47,0,0,1,14.55-2.647,93.09,93.09,0,0,0,11.7.018,29.1,29.1,0,0,0,3.355-.519m-39.36.548,7.246,2m-37.028,5.321.382-.054c12.243-1.76,24.2-2.428,36.454-4.2l.192-.027m-38.21,4.574-.282-.088c-4.448-1.365-14.816-4.283-18.766-5.463q-5.767-1.719-11.533-3.445l9.839-.919,1.27-.117m17.61-10.923a7.091,7.091,0,0,1,.724-.066,7.474,7.474,0,0,1,.793,0m-.382,5.8c-.006.167-.009.339,0,.507a10.764,10.764,0,0,0,.156,1.792.375.375,0,0,0,.1.24c.178.147.411-.09.513-.294.363-.718.729-1.431,1.093-2.149.006-.009.009-.02.015-.029m-1.21-4.678q.779-3.669,1.294-7.39a2.442,2.442,0,0,1,.339-1.11.829.829,0,0,1,1.022-.316c.4.231.4.8.346,1.252q-.4,3.58-.8,7.156c-.048.408-.093.819-.138,1.228m.219-1.219a3.664,3.664,0,0,1,2.83,1.717,2.413,2.413,0,0,1,.231.492M56.034,210.7a1.5,1.5,0,0,0-.381.952,1.913,1.913,0,0,0,.318,1.165,2.873,2.873,0,0,0,1.921,1.122,8.413,8.413,0,0,0,2.279-.016q2.309-.219,4.619-.444c.726-.069,1.591-.237,1.866-.916m-11.034-5.147a1.874,1.874,0,0,0,.255,2.593,3.025,3.025,0,0,0,.427.333,6.734,6.734,0,0,0,2.233.769q1.586.347,3.17.688a14.053,14.053,0,0,0,4.529.478c.118-.016.235-.03.355-.052a4.772,4.772,0,0,0,3.262-1.978c.048-.081.1-.162.142-.246m-14.483-6.793a6.127,6.127,0,0,0-.564,1.882,1.947,1.947,0,0,0,.54,1.751,1.742,1.742,0,0,0,.285.2,4.79,4.79,0,0,0,.528.244c1.816.731,3.665,1.387,5.535,1.965a17.661,17.661,0,0,0,4.646.937,15.5,15.5,0,0,0,3.3-.325c.42-.074.84-.162,1.257-.246a4.671,4.671,0,0,0,1.185-.351,1.828,1.828,0,0,0,.231-.135,1.314,1.314,0,0,0,.625-1.282m-13.111-4.322a44.794,44.794,0,0,0,6.253,2.525c.654.212,1.317.408,1.984.588.042.012.083.025.126.034a45.516,45.516,0,0,0,4.775,1.006c.165.027.334.051.5.074a4.8,4.8,0,0,0,1.294.043,1.62,1.62,0,0,0,1.081-.537,1.788,1.788,0,0,0-.469-2.378,5.784,5.784,0,0,0-2.492-.946c-.255-.056-.51-.117-.762-.183a32.654,32.654,0,0,1-3.191-.972q-1.048-.379-2.065-.829-1.08-.472-2.121-1.026-1.325-.7-2.582-1.519a4.469,4.469,0,0,0-1.867-.864c-.713-.079-1.335.417-2.035.582a3.5,3.5,0,0,0-1.692,1.2,4.9,4.9,0,0,0-.451.6,5.037,5.037,0,0,0-.591,1.225m17.211,7.114a2.1,2.1,0,0,0,.329.444,2.26,2.26,0,0,0,1.474.688m3.34-2.488a2.217,2.217,0,0,0,.736,1m-3.987-.333a5.149,5.149,0,0,0,.106,1.765,3.643,3.643,0,0,0,.162.5,2.828,2.828,0,0,0,1.561,1.6,2.032,2.032,0,0,0,2.131-.42m3.479-10.356a.072.072,0,0,0-.021-.024,1.377,1.377,0,0,0-1.329-.426,4.041,4.041,0,0,0-1.363.615,22.162,22.162,0,0,0-2.554,1.726,9.026,9.026,0,0,0-.838.781m7.262-2.7a.442.442,0,0,1,.063-.027,3.975,3.975,0,0,1,3.019.144c.984.388,1.894.961,2.9,1.285a16.9,16.9,0,0,1,1.891.584,9.579,9.579,0,0,1,1.344.844,16.322,16.322,0,0,0,1.508.916m-13.052-1.1a9.061,9.061,0,0,1-1.345,2.983,5.2,5.2,0,0,0-.909,3.1,3.56,3.56,0,0,0,.444,1.3,8.352,8.352,0,0,0,.792,1.156,2.913,2.913,0,0,0,.862.8c.862.456,1.927.033,2.891.2m.957-7.979a49.169,49.169,0,0,0-2.362,5.721,1.407,1.407,0,0,0-.1.855,1.214,1.214,0,0,0,.366.507,3.5,3.5,0,0,0,1.209.712,3.549,3.549,0,0,0,1.76.158.424.424,0,0,0,.282-.138.152.152,0,0,0,.033-.083m2.327-5.974-2.207,4.989a1.568,1.568,0,0,0-.2.919.636.636,0,0,0,.045.149,1.3,1.3,0,0,0,.444.529,2.363,2.363,0,0,0,2.512.149,4.647,4.647,0,0,0,1.276-1.264c.309-.4.618-.8.93-1.2.1-.133.207-.265.309-.4m1.065.919a11.127,11.127,0,0,0,1.843.342,15.735,15.735,0,0,0,2.174.075m0,0c1.324-.039,2.66-.2,3.971-.372q9.361-1.193,18.721-2.39M95.5,205.292l1.144-.351q5.746-1.775,11.49-3.545c.133-.042.264-.081.4-.124a20.47,20.47,0,0,1,6.223-1.182m-11.4-3.04A9.635,9.635,0,0,1,104.6,194.8a22.682,22.682,0,0,1,6.249-5.355,5.058,5.058,0,0,1,1.839-.813l.81-.1c.169.216.337.438.511.666,1.243,1.63,2.626,3.509,3.82,5.061a35.2,35.2,0,0,1,3.767,5.589,11.867,11.867,0,0,1,1.4,6.51,4.025,4.025,0,0,1-.883,2.27,3.486,3.486,0,0,1-1.812,1.056m-15.635-14.143c.234.354.467.708.7,1.06q.433.661.874,1.317.851,1.279,1.713,2.548M98.8,182.928c-.222,1.933-.361,4.694-.528,7.645-.258,4.479-.585,9.394-1.381,12.5-.057.237-.12.458-.187.672m8.945-5.931a.82.82,0,0,0-.327.079c-.706.3-1.789,1.345-2.275,1.092a1.617,1.617,0,0,1-.576-.652c-1.167-1.924-1.918-4.5-3.067-6.567a10.709,10.709,0,0,0-.765-1.2M87.848,168.148l7.933.44a15.33,15.33,0,0,1,3.074.382c3.673.975,6.039,4.445,8.067,7.66l4.944,7.825c.664,1.048,3.143,2.9,2.467,4.5M68.272,171.993a4.07,4.07,0,0,0-.172.642m-.015.084a5.4,5.4,0,0,0,2.11,4.914,8.977,8.977,0,0,0,6.03,1.585,12.664,12.664,0,0,0,7.23-2.683,10.448,10.448,0,0,0,3.7-5.98c.045-.216.081-.435.108-.654M35.323,197.938a49.71,49.71,0,0,1,8.1.961c4.3.793,8.653,1.819,12.769,2.036M40.375,185.89q-4.738,4.881-9.476,9.758a17.33,17.33,0,0,0-1.7,1.939c-1.571,2.182-2.051,4.937-2.485,7.591a2.865,2.865,0,0,0,.273,2.308,2.729,2.729,0,0,0,.9.643,17.309,17.309,0,0,0,3.308,1.435,19.02,19.02,0,0,0,4.283.54c4.407.219,9.167.555,13.793.849,1.924.122,3.82.237,5.661.33l.588.029m-6.576-18.661q-1.436,1.711-2.951,3.358-1.17,1.279-2.389,2.512c-.078.082-.156.163-.237.244m10.761-13.487a47.31,47.31,0,0,1,1.3,6.3c.021.153.039.267.051.336,0,.024.007.045.012.069q.595,3.747,1.027,7.51c.018.135.033.271.047.406M46.7,196.537c.075.06.147.12.222.174a19.864,19.864,0,0,0,2.254,1.548.814.814,0,0,0,1.345-.158c.8-1.14,1.362-2.419,2.076-3.611a7.444,7.444,0,0,1,2.816-2.911.473.473,0,0,1,.057-.03m-14.744-6.28c3.008,1.8,6.39,4.448,8.215,7.379.163.252.31.51.445.769a5.626,5.626,0,0,1,.751,2.476M39.828,185.432a3.34,3.34,0,0,1,.115-.885c.546-2.1,2.963-3.212,3.947-4.209,3.545-3.59,6.009-8.227,9.989-11.325a4.677,4.677,0,0,1,2.584-1.171,2.512,2.512,0,0,1,.366.016M60.164,139.1a7.1,7.1,0,0,0,.567,3.152,6.789,6.789,0,0,0,.67,1.23,7.054,7.054,0,0,0,.591.751m21.575,23.112c.07-.027.138-.054.2-.084a4.5,4.5,0,0,0,2.3-2.342m-21.089,1.237a4.115,4.115,0,0,0,3.416,1.861c.117,0,.235,0,.352-.015M61.1,165.785a6.12,6.12,0,0,0,3.076,2.678c.129.054.262.1.4.144m-6.3-18.153c0,.036-.006.069-.009.1-.036.409-.054.82-.054,1.23a14.995,14.995,0,0,0,2.071,7.607m-1.149-4.8a4.444,4.444,0,0,0,2.176.988M67,162.025c.124.219.24.447.351.681a16.626,16.626,0,0,1,1.472,5.091,13.706,13.706,0,0,1,.108,2.1M60.14,151.312c0,.084.009.167.018.248a11.767,11.767,0,0,0,1.033,3.762c.039.087.078.174.117.264.336.744.715,1.476,1.087,2.2a9.335,9.335,0,0,0,4.838,4.254c4.53,1.861,10.56.831,13.541-4.2M80.335,142.7c.252.363.487.738.706,1.119m0,.007a28.72,28.72,0,0,1,3.049,9.581,23.493,23.493,0,0,1,.375,7.218,10.064,10.064,0,0,1-2.681,5.752,7.242,7.242,0,0,1-.594.537m-6.408-29.434a11.638,11.638,0,0,0,2.962,2.135c.352.189.711.365,1.075.537.507.237,1.02.465,1.527.688m-18.885-7.571c2.155-3.4,7.471-3.554,11.007-2.915,4.989.9,9.047,4.793,11.587,9,4.136,6.853,5.276,15.158,5.336,23.023a8.425,8.425,0,0,1-.171,2.167,4.242,4.242,0,0,1-1.861,2.521M59.825,134.683a3.686,3.686,0,0,0-.7.207c-2.8,1.151-3.242,5.6-3.461,8-.456,4.958.093,9.94.476,14.884.265,3.431.967,7.072,3.347,9.611.135.144.276.285.424.42a9.247,9.247,0,0,0,1.044.844m-2.3-27.144a14.105,14.105,0,0,0,.916,4.127,7.906,7.906,0,0,0,.627,1.219,6.487,6.487,0,0,0,1.966,2.06m5.666-10.479c.546.293,1.024.558,1.474.789.315.163.616.309.918.438a9.2,9.2,0,0,0,4.749.583m-13.388-3.218c.453.63.916,1.27,1.42,1.866.09.106.18.208.27.31a7.48,7.48,0,0,0,6.546,2.631m-8.455,1.826c-.051-.009-.009-.075.009-.12a.309.309,0,0,1,.03-.057,3.411,3.411,0,0,1,3.175-1.5m6.117,13.28c1.352-.21,1.343-.244,1.849-.337m-4.229-10.028a1.687,1.687,0,0,1,.291.88,1.184,1.184,0,0,1-.045.681c-.075.147-.207.258-.273.406a.707.707,0,0,0,.084.639,2.015,2.015,0,0,0,.465.478m5.721-5.073a.141.141,0,0,1,.042-.111.132.132,0,0,1,.135-.009c.16.072.553.51.415.655C74.812,143.8,74.551,143.109,74.557,142.9Zm-9.44,3.089a.152.152,0,0,1,.045-.115.131.131,0,0,1,.135-.009c.156.073.553.511.415.657C65.372,146.884,65.111,146.2,65.117,145.993Z" transform="translate(0.333 16.075)" fill="none" stroke="#6f3018" stroke-linecap="round" stroke-linejoin="round" stroke-width="0.87"/>
          </g>
        </g>
        <g id="Group_19423" data-name="Group 19423">
          <g id="Group_19422" data-name="Group 19422" clip-path="url(#clip-path-2)">
            <path id="Path_12769" data-name="Path 12769" d="M251.292,201.7a2.333,2.333,0,0,1-.733.562,4.108,4.108,0,0,1-1.453.291q-1.4.1-2.791.135c-1,.027-2.008.03-3.011.006a2.582,2.582,0,0,1-.246-.131,1.652,1.652,0,0,0,.169-1.1,8.817,8.817,0,0,0-2.473-4.956,19.944,19.944,0,0,0-4.493-3.374,7.734,7.734,0,0,0-2.591-1.092l-.066-.009a8.347,8.347,0,0,0-2.53.138l-4.3.675c-.639.1-1.378.27-1.647.858l.029.772q-4.728.192-9.455.381l0-.09q-.937-1.144-1.867-2.288l.021-.216a8.927,8.927,0,0,1-2.374-3.04c-.82-1.733-1.075-3.708-1.724-5.5-.183-.609-.369-1.218-.552-1.828,0-.015-.009-.027-.012-.042a2.537,2.537,0,0,0-.375-.831c-.336-.435-.934-.648-1.248-1.081l-.045.048a23.776,23.776,0,0,1-2.056-2.065c.261.012.478-.216.634-.433a7.836,7.836,0,0,0,1.083-2.116,13.358,13.358,0,0,0,1.155-7.138l-.1-.3a10.167,10.167,0,0,0,1.338-.544l.009.009c.244-.24.447-.531.67-.8a1.906,1.906,0,0,1,.138-.149,8.562,8.562,0,0,0,3.32-.271l.009.027a34.979,34.979,0,0,1,4.931-1.5,7.715,7.715,0,0,1,2.884-.052,7.269,7.269,0,0,1,2.41,1.187,55.731,55.731,0,0,1,8.467,7.656q8.127,8.429,16.257,16.854c.924.961,2.845,1.706,3.307,3.672l-.149.018a7.3,7.3,0,0,1,.645,1.879l-.113.021c-.036.785-.07,1.572-.106,2.358a8.542,8.542,0,0,1-.306,2.243,3.267,3.267,0,0,1-.652,1.158" transform="translate(25.395 20.337)" fill="#fbe2cb"/>
            <path id="Path_12770" data-name="Path 12770" d="M246.671,198.9c1,.024,2.008.021,3.01-.006,1.069,1.279,2.056,2.512,3.125,3.788a5.477,5.477,0,0,1,.319,1.837h.027c-.007.192-.009.384-.012.579q-17.078.762-34.173-.027a9.4,9.4,0,0,1-1.9-.09,10.671,10.671,0,0,0-1.589.244l-.009-.043c-11.754.688-24.108.912-35.878.585l-1.363.057c0-.357.018-.946.018-1.3l.133-.009a3.006,3.006,0,0,1,.234-1.379l.09.039a12.683,12.683,0,0,1,2.771-3.076l-.045-.057c.207-.171.42-.33.636-.483a3.044,3.044,0,0,0,1.357-.045,3.716,3.716,0,0,0,2.593-.406c.822-.474,1.476-1.27,2.4-1.5l.047.131q.617-.229,1.225-.48a31.343,31.343,0,0,1,4.547,2.953,2.479,2.479,0,0,0,1.178.621c.447.054.966-.261.951-.711a1.217,1.217,0,0,0-.557-.8,31.1,31.1,0,0,1-3.629-3.515,3.381,3.381,0,0,0,.543-.6,24.716,24.716,0,0,1,4.884,3.464,1.9,1.9,0,0,0,1.126.612v.042a3.3,3.3,0,0,0,.981-.2,1.74,1.74,0,0,0,1.549,1.237l.078-.3c.348.09.693.18,1.045.264a1.173,1.173,0,0,0,.7.417,2.854,2.854,0,0,0,1.113-.07,10.236,10.236,0,0,0,1.363.106,4.435,4.435,0,0,0,2.839.054,12.39,12.39,0,0,1,2.873-.558,13.157,13.157,0,0,0,1.615.036,5.135,5.135,0,0,0,2.04-.907l-.024-.045a7.727,7.727,0,0,1,1.567-.627c6.633.481,14.507,1.576,21.215.937l-.015-.172c.285-.1.573-.194.858-.291a2.227,2.227,0,0,0,.738.718,3.065,3.065,0,0,0,2.083.585l-.012-.28q2.031-.469,4.062-.934a1.832,1.832,0,0,0,.921-.408c.117.006.237.009.354.009" transform="translate(22.029 24.128)" fill="#fff"/>
            <path id="Path_12771" data-name="Path 12771" d="M240.9,199.544c-.018.024-.036.048-.054.069a.5.5,0,0,1-.054.055,1.837,1.837,0,0,1-.921.408q-2.031.463-4.062.934l.012.279a3.059,3.059,0,0,1-2.083-.585,2.245,2.245,0,0,1-.738-.717,10.787,10.787,0,0,1-.706-1.333,20.76,20.76,0,0,0-5.178-6.136,13.008,13.008,0,0,0-3.209-1.4l-.216.307-.7.027-.03-.772c.271-.588,1.009-.76,1.648-.858l4.3-.675a8.38,8.38,0,0,1,2.53-.138l.066.009a7.732,7.732,0,0,1,2.59,1.093,19.882,19.882,0,0,1,4.493,3.373,8.829,8.829,0,0,1,2.474,4.956,1.65,1.65,0,0,1-.169,1.1" transform="translate(27.558 23.355)" fill="#fbe2cb"/>
            <path id="Path_12772" data-name="Path 12772" d="M197.393,194.347a4.426,4.426,0,0,1,.955,2.288l.131.078c.246-.339.522-.661.792-.975.307-.354.612-.711.919-1.065l-.117-.1a11.869,11.869,0,0,1-2.681-.225m15.584,5.61L213,200a5.135,5.135,0,0,1-2.04.907,13.152,13.152,0,0,1-1.615-.036,12.332,12.332,0,0,0-2.873.558,4.442,4.442,0,0,1-2.839-.054,10.426,10.426,0,0,1-1.363-.106,17.9,17.9,0,0,1-1.812-.348c-.352-.084-.7-.174-1.045-.264l-.079.3a1.74,1.74,0,0,1-1.548-1.237,2.314,2.314,0,0,1-.142-1.147.079.079,0,0,1,.007-.027l-.063-.011q-.293-.361-.585-.727l-.021.016-2.36-2.7c-.546-.624-1.122-1.5-.693-2.211a2.005,2.005,0,0,1,1.411-.727l.255-.054c2.44-.54,4.358-1.567,6.567-1.7a6.886,6.886,0,0,1,.939,0,7.513,7.513,0,0,1,1.51.246,53.965,53.965,0,0,0,7.8,1.489,3.044,3.044,0,0,0,1.378.189l-.029-.325a3.941,3.941,0,0,1,1.662-.311c.574-.025,1.151-.045,1.724-.07q4.728-.189,9.455-.381l.7-.027.216-.307a13.007,13.007,0,0,1,3.209,1.4,20.76,20.76,0,0,1,5.178,6.136,10.786,10.786,0,0,0,.706,1.333c-.285.1-.574.192-.858.291l.015.171c-6.709.639-14.582-.456-21.216-.936a7.679,7.679,0,0,0-1.566.627" transform="translate(23.951 23.536)" fill="#fbf1e7"/>
            <path id="Path_12773" data-name="Path 12773" d="M183.5,184.494a9.345,9.345,0,0,1,.174,2.179,5.879,5.879,0,0,1,2.579,2.684,8.534,8.534,0,0,1,.742,2.371l-.1.015a17.579,17.579,0,0,1-1.03,7.754,7.155,7.155,0,0,1-1.62,2.746l.1.106a8.353,8.353,0,0,1-2.431,1.435,10.594,10.594,0,0,1-1.434.438,14.557,14.557,0,0,1-2.453.327,31.24,31.24,0,0,1-3.227-.016,6.231,6.231,0,0,1-2.272-.4l-.033.069a5.175,5.175,0,0,1-.813-.513,12.423,12.423,0,0,1-3.717-5.648,12.159,12.159,0,0,1-.422-1.54,14.962,14.962,0,0,1-.2-3.994c.133-2.006.508-4.028.645-6.037.037-.528.061-1.056.079-1.584.169-5.178-.465-10.461.14-15.527a18.9,18.9,0,0,1,1.778-6.012,8.989,8.989,0,0,1,1.489-2.275,5.88,5.88,0,0,1,1.972-1.363,4.954,4.954,0,0,1,1.453-1.471l0,0a7.443,7.443,0,0,1,4.052-2.962,16.739,16.739,0,0,1,5.064-.655,20.3,20.3,0,0,1,7.4,1.078,24.764,24.764,0,0,1,6.534,4.175,31.585,31.585,0,0,1,2.7,2.374l.075-.072c.485.31.966.628,1.437.955l-.06.084a14.739,14.739,0,0,0,7.519,3.958,17.173,17.173,0,0,0,6.167-.131l.025.149a1.826,1.826,0,0,0-.711.49,1.906,1.906,0,0,0-.138.149c-.222.264-.427.556-.67.8l-.009-.009a10.019,10.019,0,0,1-1.338.544c-2.011.672-4.815,1.078-6.574.309l0-.024a4.616,4.616,0,0,0-1.431.512c.366.979.736,1.961,1.165,2.906a24.853,24.853,0,0,0,4.076,6.285,23.767,23.767,0,0,0,2.055,2.065l.046-.048c.315.433.912.646,1.248,1.081a2.56,2.56,0,0,1,.375.831c0,.015.009.027.011.042.183.61.37,1.219.553,1.828.648,1.79.9,3.764,1.722,5.5a8.944,8.944,0,0,0,2.374,3.04l-.02.216q.932,1.144,1.866,2.288l0,.09-1.722.068a3.962,3.962,0,0,0-1.663.312l.029.325a3.032,3.032,0,0,1-1.378-.19,53.877,53.877,0,0,1-7.8-1.489,7.674,7.674,0,0,0-1.51-.246l.79-.257c1.308-2.342,2.935-5.014,4.244-7.354a4.159,4.159,0,0,0,.754-2.417c-.034-.294-.294-.654-.549-.5a.467.467,0,0,0-.147.156,69.287,69.287,0,0,0-5.267,8.32l-.357-.18a5.036,5.036,0,0,1-1-1.74l-.131.045a12.337,12.337,0,0,1-1.516-5.028l-.075-.02a17.5,17.5,0,0,0-.372-10.011,17.915,17.915,0,0,0-.991-2.9,7.157,7.157,0,0,1-.579-2.764,2.394,2.394,0,0,0,.663-1.6,5.158,5.158,0,0,0-.571-2.279,5.824,5.824,0,0,0-2.4-2.963,1.452,1.452,0,0,0-.793-.2,1.207,1.207,0,0,0-.918.7,2.567,2.567,0,0,0-.216,1.174,6.625,6.625,0,0,0,.11,1.191l.244.018a4.629,4.629,0,0,1-.535,1.555,4.455,4.455,0,0,1-2.392,2.51,3.558,3.558,0,0,1-1.392.083,9.163,9.163,0,0,1-7.478,1.222c-.149-.043-.3-.088-.447-.136a6.707,6.707,0,0,0-2.251,2.234,4.631,4.631,0,0,0-1.3,4.287,25.667,25.667,0,0,0,1.449,4.46,14.6,14.6,0,0,1,.562,2.042" transform="translate(20.678 19.111)" fill="#db8975"/>
            <path id="Path_12774" data-name="Path 12774" d="M207.757,175a7.836,7.836,0,0,1-1.083,2.116c-.156.217-.373.445-.634.433a24.872,24.872,0,0,1-4.076-6.285c-.429-.945-.8-1.927-1.164-2.906a4.579,4.579,0,0,1,1.431-.513l0,.025c1.758.769,4.562.363,6.573-.309l.1.3A13.358,13.358,0,0,1,207.757,175" transform="translate(24.819 20.71)" fill="#fbf1e7"/>
            <path id="Path_12775" data-name="Path 12775" d="M207.967,181.565a4.154,4.154,0,0,1-.754,2.416c-1.308,2.342-2.935,5.013-4.244,7.354l-.789.258a7.292,7.292,0,0,0-.94,0v-.46c.24-.539.492-1.071.763-1.6a69.333,69.333,0,0,1,5.267-8.32.467.467,0,0,1,.147-.156c.255-.149.517.21.549.5" transform="translate(24.873 22.375)" fill="#fff"/>
            <path id="Path_12776" data-name="Path 12776" d="M183.317,182.279q.883.6,1.771,1.192a10.189,10.189,0,0,0,3.449,1.728c1.924,1.084,4.409,1.069,6.543.994,2.426-.084,5.1-.384,6.054-3.008.073-.2.138-.4.2-.594l.075.021a12.32,12.32,0,0,0,1.516,5.027l.131-.045a5.039,5.039,0,0,0,1,1.742l.357.18c-.27.525-.521,1.056-.762,1.6v.46c-2.209.129-4.127,1.155-6.567,1.7l-.054-.273a1.065,1.065,0,0,0-.036-.126l-.118.033a3.993,3.993,0,0,0-2.455-1.485c-.252.039-.492.131-.742.171-.42.063-.843-.027-1.266-.006a4.846,4.846,0,0,0-1.18.261,6.134,6.134,0,0,0-1.749.763,4.293,4.293,0,0,0-1.715,1l.018.045a2.242,2.242,0,0,0-.693.555c-.485.528-.975,1.057-1.464,1.585-.52.129-1.036.266-1.549.417a17.575,17.575,0,0,0,1.029-7.753l.1-.016a8.5,8.5,0,0,0-.742-2.371,5.874,5.874,0,0,0-2.578-2.683,9.354,9.354,0,0,0-.174-2.18c.531.357,1.062.715,1.6,1.072" transform="translate(22.461 22.397)" fill="#fbe2cb"/>
            <path id="Path_12777" data-name="Path 12777" d="M199.793,194.24l-.918,1.065c-.271.316-.547.637-.793.976l-.131-.079a4.417,4.417,0,0,0-.955-2.288,11.945,11.945,0,0,0,2.681.226Z" transform="translate(24.349 23.968)" fill="#fbf1e7"/>
            <path id="Path_12778" data-name="Path 12778" d="M199.619,169.267a7.168,7.168,0,0,0,.58,2.765,17.866,17.866,0,0,1,.991,2.9,17.5,17.5,0,0,1,.372,10.011c-.061.2-.126.4-.2.594-.951,2.622-3.628,2.922-6.054,3.007-2.134.075-4.619.09-6.543-.993a10.191,10.191,0,0,1-3.449-1.729q-.887-.593-1.771-1.191c-.535-.357-1.065-.715-1.6-1.072a14.588,14.588,0,0,0-.562-2.04,25.708,25.708,0,0,1-1.449-4.461,4.63,4.63,0,0,1,1.3-4.287,6.721,6.721,0,0,1,2.252-2.234c.149.048.3.093.447.136a9.16,9.16,0,0,0,7.476-1.222,3.562,3.562,0,0,0,1.393-.083,4.455,4.455,0,0,0,2.392-2.51,4.623,4.623,0,0,0,.535-1.554l-.244-.019a6.617,6.617,0,0,1-.111-1.191,2.568,2.568,0,0,1,.217-1.174,1.205,1.205,0,0,1,.918-.7,1.445,1.445,0,0,1,.792.2,5.82,5.82,0,0,1,2.4,2.963,5.173,5.173,0,0,1,.571,2.279,2.388,2.388,0,0,1-.664,1.6m-7.8,10.893c.138.1.325-.12.255-.276a.48.48,0,0,0-.429-.225.353.353,0,0,0-.249.045.145.145,0,0,0-.02.221Zm-4.887,5.039c.48-.021-.312-.546-.544-.316a.221.221,0,0,0-.051.088c-.033.144.46.234.594.228" transform="translate(22.232 20.05)" fill="#fbf1e7"/>
            <path id="Path_12779" data-name="Path 12779" d="M181.811,200.169a3.056,3.056,0,0,1-1.489-.742l-.021-.054a8.319,8.319,0,0,0,2.431-1.435l-.1-.1a7.151,7.151,0,0,0,1.62-2.747q.77-.224,1.549-.417c.489-.528.979-1.056,1.464-1.585a2.258,2.258,0,0,1,.693-.555l-.018-.045a4.293,4.293,0,0,1,1.715-1,6.133,6.133,0,0,1,1.749-.763,4.952,4.952,0,0,1,1.18-.261c.424-.021.846.069,1.266.006.249-.038.49-.131.742-.171a4,4,0,0,1,2.455,1.485l.118-.033a1.064,1.064,0,0,1,.036.126l.054.273-.255.054a2.009,2.009,0,0,0-1.411.727c-.429.711.147,1.588.693,2.212l2.36,2.7.021-.015c.194.243.39.485.585.726l.063.012a.079.079,0,0,0-.007.027,2.311,2.311,0,0,0,.142,1.146,3.31,3.31,0,0,1-.982.2v-.042a1.9,1.9,0,0,1-1.125-.612,24.716,24.716,0,0,0-4.884-3.464,3.422,3.422,0,0,1-.543.6,31.173,31.173,0,0,0,3.628,3.515,1.215,1.215,0,0,1,.558.8c.016.451-.5.765-.952.711a2.471,2.471,0,0,1-1.176-.621,31.342,31.342,0,0,0-4.547-2.953q-.608.251-1.225.48l-.048-.131c-.918.23-1.572,1.026-2.394,1.5a3.719,3.719,0,0,1-2.594.406,3.038,3.038,0,0,1-1.356.045" transform="translate(22.285 23.52)" fill="#fbf1e7"/>
            <path id="Path_12780" data-name="Path 12780" d="M165.31,199.3c-.964-.261-1.6-.711-1.494-1.458a2.235,2.235,0,0,1,.63-1.108,24.694,24.694,0,0,1,3.364-3.191,1.47,1.47,0,0,0,.583-.276,12.418,12.418,0,0,0,3.716,5.649l-.126.249q-.64.14-1.267.342l0,.036a20.493,20.493,0,0,1-4.931-.135c-.169-.03-.327-.066-.478-.108" transform="translate(20.246 23.888)" fill="#fbf1e7"/>
            <path id="Path_12781" data-name="Path 12781" d="M158.99,201.126l0,.142a21.372,21.372,0,0,1-6-.147,2.954,2.954,0,0,1-.943-.28,1.132,1.132,0,0,1-.311-.234,2.311,2.311,0,0,1-.355-1.822c.249-2.776.592-5.765,2.465-7.834a12.5,12.5,0,0,1,2.665-2.065,129.218,129.218,0,0,1,13.11-7.342l.409.015c-.018.528-.043,1.056-.079,1.585-.138,2.008-.512,4.03-.645,6.036l-.072,0a9.121,9.121,0,0,0-5.982,2.216,13.912,13.912,0,0,0-3.753,5.258c-.609,1.417-.969,3.251.111,4.349.034.033.066.066.1.1-.239.015-.483.024-.726.027" transform="translate(18.708 22.439)" fill="#fbe2cb"/>
            <path id="Path_12782" data-name="Path 12782" d="M158.884,200.26l-.1-.1c-1.081-1.1-.72-2.933-.111-4.349a13.918,13.918,0,0,1,3.752-5.258,9.123,9.123,0,0,1,5.982-2.216l.073,0a14.915,14.915,0,0,0,.194,3.994,12.165,12.165,0,0,0,.424,1.54,1.474,1.474,0,0,1-.582.276,24.7,24.7,0,0,0-3.365,3.19,2.245,2.245,0,0,0-.63,1.108c-.106.747.531,1.2,1.494,1.458.151.043.309.079.478.109l-.075.387a1.368,1.368,0,0,1-1.29.925,8.287,8.287,0,0,1-1.688-.21c-1.561-.222-3.41.178-4.556-.858" transform="translate(19.54 23.278)" fill="#fbe2cb"/>
            <path id="Path_12783" data-name="Path 12783" d="M177.738,158.238l0,0M259.1,203.1c3.224,0,5.907-.27,9.13-.27m-123.912,1.209h7.248m70.485,6c.369.018.74.036,1.11.052q17.073.787,34.173.027c0-.2.006-.388.012-.58s.006-.37.009-.553M220.568,209v.939m-38.127-.4c0,.357-.018.945-.018,1.3l1.363-.057c11.77.328,24.124.1,35.878-.585m34.2-6.3s.006.009.012.012c1.069,1.279,2.055,2.512,3.124,3.788l.082.1m-35.17.228q16.982.064,33.965.124m-36.388-.772a1.79,1.79,0,0,1,1.347-.246m-1.909-1.128a2.454,2.454,0,0,1,2.036-.327m-37.26,3.649c11.01-.327,24.175-.846,35.186-1.176m-33.219-3.035a12.683,12.683,0,0,0-2.771,3.076m58.246-14.911a.091.091,0,0,1,.018-.03c.309-.582,1.444-.778,2.053-1.027a8.187,8.187,0,0,1,1.961-.44c1.236-.172,2.476-.346,3.712-.517m-18.772-15.8a8.68,8.68,0,0,0,.436,3.99,89.192,89.192,0,0,0,5.21,14c.072.153.2.333.364.291s-.034-.361-.088-.2m-15.71-25.825c.3-.082.618-.181.945-.289a35.067,35.067,0,0,1,4.931-1.5,7.722,7.722,0,0,1,2.885-.052,7.28,7.28,0,0,1,2.41,1.187,55.784,55.784,0,0,1,8.467,7.656q8.127,8.429,16.256,16.854c.925.961,2.846,1.706,3.308,3.671m-50.316-25.78c1.76.769,4.563.363,6.574-.31a10.024,10.024,0,0,0,1.338-.543m.42,14.723a3.889,3.889,0,0,1,.51.222c.231.113.456.231.7.321a1.415,1.415,0,0,0,1.273-.048,1.877,1.877,0,0,0,.579-1.507q.14-2.044.276-4.091c.187-2.783.345-5.707-.849-8.225m-4.139-.549a13.369,13.369,0,0,1-1.155,7.138c-.1.2-.2.408-.3.609m-9.491-14a14.732,14.732,0,0,0,7.519,3.96,17.172,17.172,0,0,0,6.167-.133.607.607,0,0,0,.079-.011M185.641,173.7l-.006.007a4.629,4.629,0,0,0-1.3,4.285,25.558,25.558,0,0,0,1.451,4.461,14.6,14.6,0,0,1,.561,2.042,9.345,9.345,0,0,1,.174,2.179c-.006.187-.021.37-.042.555a5.817,5.817,0,0,1-2.291,4.13m32.226-8.251a8.613,8.613,0,0,1,.9,1.839c.648,1.789.9,3.764,1.722,5.5a8.937,8.937,0,0,0,2.375,3.042,8.832,8.832,0,0,0,.72.534m-13.853.381c.24-.539.492-1.071.763-1.6a69.2,69.2,0,0,1,5.267-8.32.467.467,0,0,1,.147-.156c.255-.149.516.21.549.5a4.154,4.154,0,0,1-.754,2.416c-1.309,2.342-2.935,5.013-4.244,7.354m-3.974-8.7a12.342,12.342,0,0,0,1.516,5.028M250.46,203.91h.048c.117.006.237.009.354.009,1,.025,2.008.021,3.011-.006q1.4-.037,2.791-.135a4.11,4.11,0,0,0,1.453-.292,2.314,2.314,0,0,0,.733-.561,3.248,3.248,0,0,0,.651-1.158,8.5,8.5,0,0,0,.307-2.243c.036-.787.069-1.573.1-2.36m-27.23-2.242c.271-.589,1.009-.76,1.648-.858l4.3-.675a8.344,8.344,0,0,1,2.53-.138l.066.009a7.729,7.729,0,0,1,2.59,1.092,19.919,19.919,0,0,1,4.493,3.374,8.826,8.826,0,0,1,2.474,4.956,1.652,1.652,0,0,1-.169,1.1c-.018.024-.036.047-.054.069a.409.409,0,0,1-.054.054,1.818,1.818,0,0,1-.921.408q-2.031.465-4.062.934m-11.9-9.89a13.008,13.008,0,0,1,3.209,1.4,20.77,20.77,0,0,1,5.178,6.135,10.627,10.627,0,0,0,.706,1.333,2.249,2.249,0,0,0,.738.718,1.511,1.511,0,0,0,.366.153m-23.52-1.372.357.027c6.634.481,14.507,1.576,21.215.937.264-.025.526-.052.783-.081m-22.784-8.153a3.965,3.965,0,0,1,1.663-.312l1.723-.068q4.728-.189,9.455-.382l.7-.027m-14.675.943-.21-.018a53.877,53.877,0,0,1-7.8-1.489,7.674,7.674,0,0,0-1.51-.246,6.9,6.9,0,0,0-.939,0c-2.209.129-4.127,1.156-6.567,1.7l-.255.055a2.006,2.006,0,0,0-1.411.726c-.429.711.147,1.588.694,2.212l2.358,2.7m7.483.783a10.068,10.068,0,0,0-1.063,2.221.473.473,0,0,0-.018.37.457.457,0,0,0,.214.165.24.24,0,0,0,.036.015,4.427,4.427,0,0,0,2.839.054,12.391,12.391,0,0,1,2.873-.558,13.156,13.156,0,0,0,1.615.036,5.121,5.121,0,0,0,2.042-.906m-10.362-3.333a9.063,9.063,0,0,0-2.18,3.134,1.426,1.426,0,0,0-.146.8.786.786,0,0,0,.144.316,1.173,1.173,0,0,0,.7.417,2.875,2.875,0,0,0,1.113-.069l.061-.012m-1.738-7.057c-.135.156-.27.312-.4.469-.306.354-.612.711-.918,1.066-.271.315-.547.636-.793.975a4.236,4.236,0,0,0-.828,1.834.077.077,0,0,0-.006.027,2.32,2.32,0,0,0,.14,1.146,1.741,1.741,0,0,0,1.549,1.237h0m-2.956-6.835c.3.081.645.16,1.011.226a12,12,0,0,0,2.681.225m-2.74-.288a.778.778,0,0,1,.06.063,4.409,4.409,0,0,1,.955,2.287m-7.171-4.3q1.112.576,2.221,1.147m-5.773-1.7a2.527,2.527,0,0,1,.37-.318,6.131,6.131,0,0,1,1.749-.762,4.9,4.9,0,0,1,1.18-.262,12.55,12.55,0,0,0,1.267.006c.248-.038.489-.131.742-.171a4,4,0,0,1,2.455,1.486m-11.439,3.1c.066-.069.129-.14.192-.21q.733-.792,1.465-1.584a2.22,2.22,0,0,1,.693-.556.762.762,0,0,1,.489-.056m3.816,3.235c.063.034.128.07.191.106a24.715,24.715,0,0,1,4.884,3.464,1.892,1.892,0,0,0,1.126.612.759.759,0,0,0,.264-.048m-9.59-2.125c.1.051.192.1.284.153a31.262,31.262,0,0,1,4.548,2.954,2.49,2.49,0,0,0,1.176.621c.447.054.966-.262.952-.712a1.223,1.223,0,0,0-.558-.8,31.1,31.1,0,0,1-3.629-3.515q-.73-.824-1.393-1.7m-7.929,5.235a3.489,3.489,0,0,0,.573.167,3.716,3.716,0,0,0,2.593-.406c.822-.474,1.476-1.27,2.4-1.5M174.274,204.2c-.225.034-.63.079-1.146.117a20.493,20.493,0,0,1-4.931-.135c-.169-.029-.327-.066-.478-.108-.964-.261-1.6-.711-1.494-1.458a2.24,2.24,0,0,1,.63-1.108,24.692,24.692,0,0,1,3.364-3.191l.16-.126m-.267-5.688a9.122,9.122,0,0,0-5.982,2.215,13.913,13.913,0,0,0-3.752,5.26c-.61,1.416-.97,3.251.111,4.348l.1.1c1.146,1.035,3,.636,4.556.858a8.346,8.346,0,0,0,1.687.21,1.371,1.371,0,0,0,1.291-.925m2.378-19.7a129.251,129.251,0,0,0-13.111,7.343,12.467,12.467,0,0,0-2.665,2.065c-1.873,2.067-2.216,5.057-2.464,7.834a2.3,2.3,0,0,0,.354,1.821,1.125,1.125,0,0,0,.312.235,2.947,2.947,0,0,0,.942.279,21.332,21.332,0,0,0,6,.147M201.1,187.3c.5-.442.372-.535.88-.975m-12.5,4.448a4.628,4.628,0,0,1,.258.972,17.572,17.572,0,0,1-1.03,7.753,7.152,7.152,0,0,1-1.62,2.747m10.43-31.343a4.005,4.005,0,0,0,2.218-3m-14.114,3.188a5.328,5.328,0,0,1,2.266.39c.151.048.3.093.447.135a9.162,9.162,0,0,0,7.478-1.221,8.546,8.546,0,0,0,1.191-.957m-18.169-6.946a10.78,10.78,0,0,0,3.633,7.6m19.375-3.579a1.687,1.687,0,0,0,.2,1.9m-2.152-2.18a6.526,6.526,0,0,1-.111-1.191,2.567,2.567,0,0,1,.216-1.174,1.211,1.211,0,0,1,.918-.7,1.462,1.462,0,0,1,.793.2,5.821,5.821,0,0,1,2.4,2.963,5.171,5.171,0,0,1,.57,2.278,2.4,2.4,0,0,1-.663,1.6,1.731,1.731,0,0,1-.481.336m-25.792-12.307a7.441,7.441,0,0,1,4.052-2.962,16.7,16.7,0,0,1,5.064-.655,20.3,20.3,0,0,1,7.4,1.078,24.764,24.764,0,0,1,6.534,4.175,31.587,31.587,0,0,1,2.7,2.374c.1.1.192.192.282.289m3.3,5.567c.244.612.478,1.234.711,1.855.366.979.736,1.961,1.165,2.906a24.872,24.872,0,0,0,4.076,6.285,23.622,23.622,0,0,0,2.056,2.065l.006.006M176.57,159.595c-.1.036-.192.072-.285.115a5.864,5.864,0,0,0-1.972,1.363,8.95,8.95,0,0,0-1.489,2.275,18.862,18.862,0,0,0-1.776,6.011c-.607,5.067.027,10.351-.142,15.528-.018.528-.042,1.056-.078,1.584-.138,2.008-.513,4.031-.646,6.036a14.967,14.967,0,0,0,.2,4,11.983,11.983,0,0,0,.424,1.54,12.412,12.412,0,0,0,3.716,5.648,5.26,5.26,0,0,0,.813.513,3.873,3.873,0,0,0,.981.363m-2.367-6.2a13.936,13.936,0,0,0,3.865,4.791,8.01,8.01,0,0,0,3.053,1.389,6.174,6.174,0,0,0,2.8-.015m8.642-16.632a5.412,5.412,0,0,0,.855.585c1.924,1.083,4.409,1.069,6.544.993,2.425-.084,5.1-.384,6.054-3.008q.108-.3.2-.594a17.493,17.493,0,0,0-.372-10.01q-.239-.811-.526-1.6M190.734,185.91a.225.225,0,0,1,.052-.088c.23-.231,1.024.294.543.316C191.194,186.144,190.7,186.054,190.734,185.91Zm-2.872-.079a1.127,1.127,0,0,1,.078-.267,1.361,1.361,0,0,1,.535-.645m2.57-4.919c0-1.433,1.119-1.7,1.947-2.342m-.564,6.718a1.7,1.7,0,0,1,1.465.888,3.709,3.709,0,0,0,.3.583,1.18,1.18,0,0,0,.889.4,3.492,3.492,0,0,0,1-.149m-.306-5.238a.147.147,0,0,1,.021-.222.355.355,0,0,1,.248-.045.483.483,0,0,1,.429.226c.07.156-.117.378-.255.275Z" transform="translate(17.837 19.111)" fill="none" stroke="#6f3018" stroke-linecap="round" stroke-linejoin="round" stroke-width="0.829"/>
            <path id="Path_12784" data-name="Path 12784" d="M349.729,201.957a19.609,19.609,0,0,1-2.239,1.09,4.144,4.144,0,0,1-1.582.393,1.646,1.646,0,0,1-1.344-.648,1.742,1.742,0,0,1-.262-.312c-.558.351-1.266.7-1.834.369a1.25,1.25,0,0,1-.49-1.311,2.771,2.771,0,0,1,.357-.864,3.953,3.953,0,0,1-.33-.393q-1.178.922-2.331,1.888a2.866,2.866,0,0,1-1.1.672,1.269,1.269,0,0,1-.4.027h0a.871.871,0,0,1-.714-.456,1.374,1.374,0,0,1,.348-1.311,18.766,18.766,0,0,1,2.17-2.419c.165-.162.334-.321.5-.478q.919-.86,1.87-1.681l-.009-.009a9.325,9.325,0,0,1,4.119-4.206,13.948,13.948,0,0,1,2.671-.978,28.441,28.441,0,0,1,11.224-.757l.056-.429a9.316,9.316,0,0,0,1.844.775,25.456,25.456,0,0,0,5.334-.169l-.018-.156a24.622,24.622,0,0,1-2.594-3.434c-.045-.237-.074-.471-.1-.709a12.994,12.994,0,0,0,2.419-1.236c2.888-1.783,9.216-5.944,10.861-8.735.083.216.162.433.234.654l.246,0c2.333,3.364,4.157,7.047,6.406,10.463,1.7,2.588,3.987,7.627,3.935,11.436-.033,2.53-1.1,4.521-4.049,4.89a2.622,2.622,0,0,1-.753.462,15.726,15.726,0,0,0-2.861-.966,25.661,25.661,0,0,0-5.46-.612,2.3,2.3,0,0,1-.348-.293,28.509,28.509,0,0,0-6-.6l-.474-.315c-2.23-.273-5.874-1.828-7.957-2.333l-1.237-.156a18.851,18.851,0,0,1-3.184,1.783,19.215,19.215,0,0,1-6.246,1.579,1.765,1.765,0,0,1-.67-.51" transform="translate(41.701 21.813)" fill="#fbf1e7"/>
            <path id="Path_12785" data-name="Path 12785" d="M335.207,206.74a1.938,1.938,0,0,1-.975-.142,3.283,3.283,0,0,1-.769-.458l.069-.088q-.72-.792-1.437-1.582l-.3.007c-.228-.217-.453-.433-.678-.648.494-.226.987-.469,1.473-.711l5.358-2.654q.324.293.669.549l-.074.1a2.649,2.649,0,0,1,.756.772,7.19,7.19,0,0,0,1.291.124l.036.176a40.216,40.216,0,0,0,10.808-.8c3.692-.783,7.519-2.089,11.136-1.017l.016-.03a16.6,16.6,0,0,1,4.587,3.83,5.911,5.911,0,0,1,1.167-1.612l-.142-.138a5.715,5.715,0,0,1,3.206-2.116,14.624,14.624,0,0,1,3.89-.406c.442,0,.883,0,1.327.012a25.587,25.587,0,0,1,5.46.612,15.613,15.613,0,0,1,2.861.966,12.126,12.126,0,0,1,2.615,1.6,1.94,1.94,0,0,1,.4,1.444,2.683,2.683,0,0,1-.424,1.072l-.1-.057a59.128,59.128,0,0,1-12.538.057c-1.69-.174-3.538-.384-4.964.54l-.042-.061a6.957,6.957,0,0,1-1.318.729v.034a28.63,28.63,0,0,1-3.287-.045v-.021a3.036,3.036,0,0,1-1.907-.817l-.117.147a5.823,5.823,0,0,0-3.484-1.062,21.28,21.28,0,0,0-3.873.474,58.381,58.381,0,0,1-5.993.724c-1.169.081-2.336.122-3.507.167q-5.6.212-11.2.426Z" transform="translate(40.926 24.707)" fill="#fff"/>
            <path id="Path_12786" data-name="Path 12786" d="M333.45,178.958c1.176,1.122,2.947,1.915,4.349,1.467a10.488,10.488,0,0,0,4.4-3.281c2.4-2.694,4.784-8.056,4.542-12.588l-.169.009c-.14-.621-.285-1.237-.426-1.855.024-.072.051-.145.075-.217a8.529,8.529,0,0,0,.333-3.046c-.03-.813-.42-1.207-.907-1.264a2.227,2.227,0,0,0,.343-.636c.9-.12,1.8-.2,2.7-.253l0-.056c5.61-.339,11.511-.519,16.432,2.161a26.009,26.009,0,0,1,4.127,2.942,78.791,78.791,0,0,1,7.807,7.48c1.729,1.9,6.016,6.937,5.77,8.173a2.841,2.841,0,0,1-.37.887c-1.645,2.791-7.972,6.952-10.86,8.734a13.07,13.07,0,0,1-2.419,1.237,6.5,6.5,0,0,1-.97.27,2.621,2.621,0,0,0,1.015.474l.057-.009a.074.074,0,0,1,0-.027,24.78,24.78,0,0,0,2.593,3.435l.018.155a25.376,25.376,0,0,1-5.334.169,9.4,9.4,0,0,1-1.843-.774l-.057.429a28.414,28.414,0,0,0-11.222.756,14.036,14.036,0,0,0-2.672.979,9.323,9.323,0,0,0-4.118,4.206l.009.009q-.954.819-1.87,1.681c-.169.155-.337.315-.5.476l-.207-.219a9.609,9.609,0,0,0-2.782-1.455l-.079.042c-.147-.267-.315-.528-.489-.781a4.265,4.265,0,0,0-.948-1.038,4.778,4.778,0,0,0-3.185-.543,5.993,5.993,0,0,1-3.238-.316l-.1.115-.585-.513q-3.13-2.747-6.264-5.493a2.64,2.64,0,0,0-1.126-.684.89.89,0,0,0-1.063.558l-.048.027a4.483,4.483,0,0,0,.763,1.009l.006.006a47.522,47.522,0,0,1,4.47,3.611l.045-.039c.138.162.276.327.415.489l-.039.262a3.535,3.535,0,0,0-.822-.036,6.321,6.321,0,0,0-1.867.537l-2.566,1.036.012.063v0a4.477,4.477,0,0,1-1.915-.1l-.057.2c-2.017-.165-4.044-.228-6.066-.192l-.1.09c-.07-.078-.138-.153-.21-.228-.007-3.665,0-7.327.006-10.992q0-3.1,0-6.192c0-1.029-.018-2.058-.015-3.085a5.789,5.789,0,0,0-.111-1.663c-.609-1.525-3.148-1.174-4.445-1.194l-9.123-.154a5.437,5.437,0,0,0,.3-.924q2.975-3.881,6.149-7.607c2.081-2.437,4.394-4.934,7.478-5.808l.1.07a8.254,8.254,0,0,1,2.173-1.585c.316-.16.643-.3.961-.453a37.326,37.326,0,0,0,.738,4.433c.124.925.127,1.889.337,2.789l-.043.009c-.558,3.031,4.29,11.953,10.13,12.949a5.987,5.987,0,0,0,1.846.018,5.207,5.207,0,0,0,.742.864" transform="translate(37.394 19.411)" fill="#e3cdbc"/>
            <path id="Path_12787" data-name="Path 12787" d="M366.826,199.111a28.505,28.505,0,0,1,6,.6,2.309,2.309,0,0,0,.348.294c-.445-.012-.885-.015-1.327-.012a14.619,14.619,0,0,0-3.89.406,5.717,5.717,0,0,0-3.206,2.116l.141.138a5.959,5.959,0,0,0-1.167,1.612,16.6,16.6,0,0,0-4.586-3.83l-.147-.084.739-.036a2.23,2.23,0,0,1,1.687-.787,40.687,40.687,0,0,1,5.406-.417" transform="translate(44.372 24.61)" fill="#fff"/>
            <path id="Path_12788" data-name="Path 12788" d="M366.9,199.1c.16.106.318.21.474.316a40.5,40.5,0,0,0-5.406.417,2.228,2.228,0,0,0-1.687.787l-.739.036a16.611,16.611,0,0,0-4.754-1.765,2.029,2.029,0,0,1-.267-.5,18.848,18.848,0,0,0,3.184-1.783l1.237.156c2.083.5,5.727,2.06,7.957,2.333" transform="translate(43.82 24.302)" fill="#fff"/>
            <path id="Path_12789" data-name="Path 12789" d="M362.054,186.062a.074.074,0,0,0,0,.027L362,186.1a2.621,2.621,0,0,1-1.015-.474,6.5,6.5,0,0,0,.97-.27c.024.237.054.471.1.708" transform="translate(44.618 22.91)" fill="#e3cdbc"/>
            <path id="Path_12790" data-name="Path 12790" d="M337.869,201.289c-.231-.171-.453-.354-.67-.549.33-.162.664-.327.994-.492h0a1.269,1.269,0,0,0,.4-.027,2.88,2.88,0,0,0,1.1-.672q1.153-.964,2.333-1.889a3.683,3.683,0,0,0,.329.393,2.738,2.738,0,0,0-.356.865,1.247,1.247,0,0,0,.489,1.311c.567.334,1.275-.018,1.834-.37a1.75,1.75,0,0,0,.262.312,1.64,1.64,0,0,0,1.344.648,4.1,4.1,0,0,0,1.582-.393,19.415,19.415,0,0,0,2.239-1.089,1.789,1.789,0,0,0,.67.51,19.272,19.272,0,0,0,6.246-1.579,2.02,2.02,0,0,0,.267.494,16.611,16.611,0,0,1,4.754,1.765l.147.084-.015.03c-3.617-1.072-7.444.234-11.136,1.017a40.178,40.178,0,0,1-10.809.8l-.036-.176a7.2,7.2,0,0,1-1.291-.124,2.647,2.647,0,0,0-.756-.772Z" transform="translate(41.678 24.431)" fill="#fff"/>
            <path id="Path_12791" data-name="Path 12791" d="M327.24,141.5a6.173,6.173,0,0,1,2.078-.846,10.807,10.807,0,0,1,2.857-.174l.024.167a9.345,9.345,0,0,1,8.507,2.279,13.224,13.224,0,0,1,2.717,2.854,11.721,11.721,0,0,1,1.74,6.109,34.693,34.693,0,0,1-.576,6.4l.081.024c-.113.384-.171.789-.291,1.173-.012.039-.027.082-.042.12a2.249,2.249,0,0,1-.343.637,1.783,1.783,0,0,0-1.62.954l.024.052a2.254,2.254,0,0,1-1.033.32,1.481,1.481,0,0,1-.909-.372l-.255.007a5.323,5.323,0,0,1-2.681-1.381,7.017,7.017,0,0,1-3.026-.784c-.5-.072-1-.153-1.467-.252l-.009.069a6.306,6.306,0,0,1-6.565-1.731l-.063.06a7.778,7.778,0,0,1-1.069-2.9,13.311,13.311,0,0,0-2.773.426l-.372-.033a19.03,19.03,0,0,0-1.255,2.911,3.921,3.921,0,0,0-.012,1.038,8.347,8.347,0,0,1-1.144.718,2.67,2.67,0,0,1-1.1.273,1.646,1.646,0,0,1-.808-.165,5.281,5.281,0,0,1-1.83-2.383,5.406,5.406,0,0,1,.2-2.311,8,8,0,0,1,.228-3.143l.16.045c1.128-1.615,1.41-3.678,2.353-5.406,1.462-2.675,5.655-4.779,8.27-4.755" transform="translate(39.054 17.36)" fill="#edc9b3"/>
            <path id="Path_12792" data-name="Path 12792" d="M318.043,158.312a4.178,4.178,0,0,0,.393-.219,2.644,2.644,0,0,0,1.1-.273,8.3,8.3,0,0,0,1.144-.717,3.881,3.881,0,0,1,.011-1.039,19.253,19.253,0,0,1,1.255-2.911l.372.034a13.31,13.31,0,0,1,2.774-.427,7.737,7.737,0,0,0,1.069,2.9l.063-.06a6.3,6.3,0,0,0,6.564,1.731l.009-.069c.472.1.964.18,1.469.252a6.991,6.991,0,0,0,3.025.783,5.328,5.328,0,0,0,2.681,1.381l.255-.006a1.486,1.486,0,0,0,.909.372,2.251,2.251,0,0,0,1.033-.321l-.024-.051a1.788,1.788,0,0,1,1.621-.955c.485.057.876.451.906,1.264a8.526,8.526,0,0,1-.333,3.046c-.025.073-.052.145-.075.217.142.618.285,1.234.426,1.855l.169-.009c.243,4.533-2.143,9.893-4.542,12.589a10.507,10.507,0,0,1-4.4,3.281c-1.4.447-3.173-.346-4.349-1.469-.111-.306-.225-.609-.339-.916l0-.018c-.133.027-.264.052-.4.07a5.988,5.988,0,0,1-1.846-.018c-5.84-1-10.688-9.918-10.13-12.949l.043-.009c-.21-.9-.213-1.864-.336-2.788a36.9,36.9,0,0,1-.738-4.434c.078-.036.155-.072.23-.115m12.988,5.709c.307.379.58-.06.244-.585-.144-.228-.312-.239-.357.088a.74.74,0,0,0,.113.5m-9.13.6c.306.379.576-.06.243-.585-.144-.228-.311-.24-.357.09a.745.745,0,0,0,.115.5" transform="translate(39.282 18.881)" fill="#fbf1e7"/>
            <path id="Path_12793" data-name="Path 12793" d="M332.561,204.465c-.5.228-1,.438-1.516.616a14.674,14.674,0,0,1-2.39.6,35.27,35.27,0,0,1-7.146.21l.006-.316a2.922,2.922,0,0,1-1.975-.849l-.02.016c-.021-.027-.043-.054-.066-.081l.135-.111a.655.655,0,0,0,.792-.406l.145.012a5.483,5.483,0,0,1,.354-1.552l.333-.829a15.34,15.34,0,0,0,4.01,1.639,6.977,6.977,0,0,0,5.563-.876l.011-.639a3.488,3.488,0,0,0,.706.078,3.073,3.073,0,0,0,2.467-1.245l.051-.553c.262.03.522.048.784.061a3.612,3.612,0,0,0,1.552-.187,2.112,2.112,0,0,0,1.275-1.849l.042-.1a6.2,6.2,0,0,0,1.267.391.246.246,0,0,0,.158,0c.129-.061.075-.255,0-.375a4.826,4.826,0,0,0-.9-1.029l.1-.28,1.029.379c.165.06.382.1.487-.036a.386.386,0,0,0,.039-.273,5.4,5.4,0,0,0-.729-2.09l.077-.042a9.577,9.577,0,0,1,2.783,1.456l.207.219a18.861,18.861,0,0,0-2.171,2.419,1.375,1.375,0,0,0-.347,1.311.871.871,0,0,0,.713.456c-.329.165-.663.33-.993.492l-5.357,2.654c-.487.243-.979.487-1.474.711" transform="translate(39.485 24.071)" fill="#fff"/>
            <path id="Path_12794" data-name="Path 12794" d="M329.938,192.558l.1-.115a5.986,5.986,0,0,0,3.239.316,4.769,4.769,0,0,1,3.184.544,4.2,4.2,0,0,1,.948,1.038c.174.252.343.513.49.78a5.4,5.4,0,0,1,.729,2.09.391.391,0,0,1-.039.273c-.1.14-.321.1-.486.036l-1.029-.379c-.084-.033-.169-.063-.252-.093l-.382-.018a1.6,1.6,0,0,0-.09-.546,2.354,2.354,0,0,0-.726-1.047,6.175,6.175,0,0,0-1.78-.937q-1.9-.742-3.807-1.494l.016-.039c-.235-.309-.469-.615-.7-.921l.585.513" transform="translate(40.708 23.737)" fill="#fbf1e7"/>
            <path id="Path_12795" data-name="Path 12795" d="M320.556,201.281c-.487-.093-.975-.171-1.471-.225l-.763.243a13.023,13.023,0,0,1-1.467.408,4.773,4.773,0,0,1-1.2.1l-.081.288q-.388-.111-.783-.192-.059-4.353-.061-8.707c.072.074.142.149.21.228l.1-.091c2.024-.036,4.049.027,6.066.192l.057-.2a4.477,4.477,0,0,0,1.915.106v0l-.011-.063,2.566-1.035a6.317,6.317,0,0,1,1.866-.538,3.664,3.664,0,0,1,.822.036,8.952,8.952,0,0,1,1.952.6c.525.207,1.051.415,1.575.618q1.9.752,3.807,1.5a6.171,6.171,0,0,1,1.78.936,2.36,2.36,0,0,1,.726,1.047,1.876,1.876,0,0,1-.213.7l.294.018a1.4,1.4,0,0,0,.009-.167l.382.018c.083.029.167.06.252.093l-.1.279a4.827,4.827,0,0,1,.9,1.029c.078.12.131.316,0,.375a.232.232,0,0,1-.158,0,6.2,6.2,0,0,1-1.267-.39l-.042.1a2.111,2.111,0,0,1-1.275,1.848,3.617,3.617,0,0,1-1.553.187c-.261-.012-.521-.03-.783-.06l-.051.552a3.077,3.077,0,0,1-2.467,1.246,3.481,3.481,0,0,1-.706-.079l-.012.639a6.969,6.969,0,0,1-5.562.876,15.375,15.375,0,0,1-4.01-1.638c-.426-.235-.846-.481-1.263-.724Z" transform="translate(38.9 23.704)" fill="#fbf1e7"/>
            <path id="Path_12796" data-name="Path 12796" d="M329.793,175.735c.113.306.227.609.338.916a5.059,5.059,0,0,1-.74-.865c.134-.018.266-.042.4-.069Z" transform="translate(40.713 21.719)" fill="#fbf1e7"/>
            <path id="Path_12797" data-name="Path 12797" d="M327.07,191.721l-.045.039a47.522,47.522,0,0,0-4.47-3.611l-.006-.006a4.483,4.483,0,0,1-.763-1.009l.048-.027a.89.89,0,0,1,1.063-.558,2.64,2.64,0,0,1,1.126.684q3.128,2.747,6.264,5.493c.23.306.465.612.7.921l-.015.039q-.789-.307-1.576-.619a8.921,8.921,0,0,0-1.951-.6l.039-.262c-.138-.162-.276-.327-.415-.489" transform="translate(39.773 23.055)" fill="#8471af"/>
            <path id="Path_12798" data-name="Path 12798" d="M320.534,204.381c.264.054.525.117.783.192l.081-.288a4.839,4.839,0,0,0,1.2-.1l.113.522a12.8,12.8,0,0,1,3.067,2.8c.025.027.045.054.066.081l.021-.016a2.92,2.92,0,0,0,1.975.849l-.007.316a35.282,35.282,0,0,0,7.147-.21,6.388,6.388,0,0,1-1.558.672l.007.025a70.547,70.547,0,0,1-11.112,2.23l-.024-.151a7.034,7.034,0,0,1-1.1.084l-.726.165c-5.838-.075-44.853-.364-49.059-.427-.964-.015-2.155-.2-2.57-1l-.027.018a2.443,2.443,0,0,1-.156-.339,5.78,5.78,0,0,1-.282-1.435l-.14,0c.27-11.133.282-20.687.357-32.072a7.037,7.037,0,0,1-.039-2.834l-.007,0c.637-2.494,4.722-1.624,6.544-1.594q15.844.261,31.688.526l9.122.153c1.3.021,3.836-.33,4.445,1.194a5.789,5.789,0,0,1,.111,1.663c0,1.027.012,2.056.015,3.085q.01,3.1,0,6.193c0,3.664-.012,7.326-.006,10.991.006,2.9.02,5.806.06,8.708" transform="translate(33.155 21.222)" fill="#f1f0ee"/>
            <path id="Path_12799" data-name="Path 12799" d="M321.561,201.122l-.334.828a5.572,5.572,0,0,0-.354,1.552l-.144-.011a.654.654,0,0,1-.792.4l-.135.111a12.877,12.877,0,0,0-3.069-2.8l-.113-.521a13.274,13.274,0,0,0,1.467-.409l.763-.243c.5.054.984.131,1.471.225l-.025.138c.418.244.838.49,1.264.724" transform="translate(39.134 24.724)" fill="#fff"/>
          </g>
        </g>
        <g id="Group_19425" data-name="Group 19425">
          <g id="Group_19424" data-name="Group 19424" clip-path="url(#clip-path-3)">
            <path id="Path_12800" data-name="Path 12800" d="M330.582,193.837l.006.006m-73.773,10.574h12.478m129.531.657H415.5m-91.762,10.242a70.418,70.418,0,0,0,11.112-2.23l.239-.069m-64.931.7a1.354,1.354,0,0,0,.1.27c.415.8,1.606.985,2.57,1,4.206.063,43.22.352,49.059.426.14,0,.261,0,.363.007m-52.315-37.973c.009-.043.018-.084.029-.127.637-2.493,4.722-1.624,6.544-1.593l31.688.525,9.122.154c1.3.02,3.836-.33,4.445,1.194a5.789,5.789,0,0,1,.111,1.663c0,1.026.012,2.056.015,3.085q.01,3.1,0,6.192c0,3.665-.012,7.327-.006,10.992.006,2.9.02,5.8.06,8.708q.032,2.535.09,5.072m-52.015-34.791q0,.824-.011,1.636c-.075,11.385-.088,20.939-.357,32.072v.042m80.16-2.746a40.223,40.223,0,0,0,10.809-.8c3.692-.783,7.519-2.089,11.136-1.017m-24.028.74a2.638,2.638,0,0,1,.757.772l.009.015m-4.6,3.767a3.676,3.676,0,0,1,1.044-.973q1.878-1.337,3.755-2.678m-4.3,4.824q5.6-.216,11.2-.426c1.171-.045,2.338-.087,3.506-.169a58.088,58.088,0,0,0,5.994-.722,21.277,21.277,0,0,1,3.872-.474,5.824,5.824,0,0,1,3.485,1.062c.051.039.1.081.153.124m-31.327-1.76q.72.789,1.437,1.582m-14.467-2.227c0-.1.009-.2.018-.307a5.494,5.494,0,0,1,.354-1.552m-4.493-.74a12.822,12.822,0,0,1,3.067,2.8c.025.027.045.054.066.081l.036.046m19.646-10.04a9.609,9.609,0,0,1,2.782,1.455m-20.474,9.69a35.365,35.365,0,0,0,7.147-.21,14.663,14.663,0,0,0,2.389-.6,15.832,15.832,0,0,0,1.516-.615c.5-.226.988-.469,1.474-.711q2.68-1.33,5.358-2.654c.329-.162.663-.327.993-.492h0c.045-.024.093-.045.138-.07m24.094.316a2.234,2.234,0,0,1,1.686-.787,40.5,40.5,0,0,1,5.406-.417,28.5,28.5,0,0,1,6,.6c.178.036.352.075.528.115m-8.6,2.689a5.715,5.715,0,0,1,3.206-2.116,14.578,14.578,0,0,1,3.89-.406c.442,0,.883,0,1.327.012a25.587,25.587,0,0,1,5.46.612,15.643,15.643,0,0,1,2.861.966,12.128,12.128,0,0,1,2.615,1.6c.192.153.379.312.558.481m-18.088.879c2.671-1.821,6.16-1.771,9.389-1.579,2.875.174,5.889.451,8.284,2.044m-17.763,1.231c1.426-.925,3.274-.715,4.964-.54a59.2,59.2,0,0,0,12.538-.057m-23.01,1.183c.288.027.573.051.861.072a28.915,28.915,0,0,0,3.288.045c.138,0,.279-.009.417-.018M366.129,205.7c.249.038.5.083.742.131a16.631,16.631,0,0,1,4.755,1.765c.051.03.1.057.146.084a16.584,16.584,0,0,1,4.587,3.83c.1.113.19.23.283.351m-54.069-3.743c.079.009.16.018.237.024a4.785,4.785,0,0,0,1.2-.1,13.1,13.1,0,0,0,1.467-.409l.762-.243m-4.048-7.726c2.022-.036,4.048.027,6.066.192m15.8,4.16a6.282,6.282,0,0,0,2.617,1.18.242.242,0,0,0,.16,0c.129-.061.074-.256,0-.375a4.827,4.827,0,0,0-.9-1.03M339,198.819a5.993,5.993,0,0,0,3.238.316,4.767,4.767,0,0,1,3.184.543,4.247,4.247,0,0,1,.949,1.038c.174.253.342.513.489.781a5.4,5.4,0,0,1,.729,2.089.378.378,0,0,1-.039.273c-.1.142-.32.1-.485.036l-1.03-.378c-.083-.034-.167-.063-.252-.093m-18.1,4.337c.417.244.837.49,1.264.724a15.4,15.4,0,0,0,4.01,1.639,6.979,6.979,0,0,0,5.562-.876m-3.821-1.862c.9.3,1.792.594,2.69.894a10.142,10.142,0,0,0,1.144.328,3.55,3.55,0,0,0,.7.078,3.071,3.071,0,0,0,2.467-1.246m-5.937-2.617a13.981,13.981,0,0,0,5.989,2.065c.261.03.522.048.783.06a3.6,3.6,0,0,0,1.552-.185,2.111,2.111,0,0,0,1.275-1.849m-15.152-5.21,2.566-1.036a6.321,6.321,0,0,1,1.867-.537,3.535,3.535,0,0,1,.822.036,8.92,8.92,0,0,1,1.951.6q.789.312,1.576.619,1.9.752,3.806,1.494a6.146,6.146,0,0,1,1.78.937,2.35,2.35,0,0,1,.727,1.047,1.642,1.642,0,0,1,.09.546c0,.057,0,.111-.009.169l-.294-.018a32.735,32.735,0,0,1-8.462-1.672m-6.774-9.083a.89.89,0,0,1,1.063-.558,2.63,2.63,0,0,1,1.125.684q3.13,2.747,6.265,5.493c.194.171.39.342.584.513.046.038.088.078.133.117m-8.449-5.208a47.674,47.674,0,0,1,4.47,3.611m36.86-2.113.291.027a25.378,25.378,0,0,0,5.334-.169c4.8-.585,9.6-2,14.381-1.338m-31.98,13.087c.138-.009.276-.018.415-.029a19.238,19.238,0,0,0,6.246-1.58,18.976,18.976,0,0,0,3.185-1.782l1.236.156c2.083.5,5.727,2.058,7.957,2.331.07.012.138.018.2.025M352.3,200.963a9.312,9.312,0,0,1,4.118-4.206,14.054,14.054,0,0,1,2.671-.979,28.422,28.422,0,0,1,11.224-.756c.093.009.183.024.276.036m-16.107,12.108c.015.027.03.052.045.075a1.644,1.644,0,0,0,1.345.648,4.124,4.124,0,0,0,1.581-.393,19.333,19.333,0,0,0,2.239-1.09q.684-.383,1.333-.819m-8.425-.927c-.1.149-.208.306-.3.462a2.719,2.719,0,0,0-.357.864,1.249,1.249,0,0,0,.489,1.312c.567.333,1.276-.018,1.834-.37q2.585-1.63,5.061-3.427m-2.947-5.752q-2.1,1.517-4.07,3.221c-.637.546-1.258,1.107-1.871,1.681-.167.155-.336.315-.5.476a18.925,18.925,0,0,0-2.17,2.419,1.375,1.375,0,0,0-.348,1.312.874.874,0,0,0,.715.456m0,0a1.264,1.264,0,0,0,.4-.027,2.868,2.868,0,0,0,1.1-.673q1.153-.962,2.333-1.888,2.675-2.107,5.481-4.031m31.144-19.117c2.333,3.365,4.157,7.048,6.406,10.464,1.706,2.588,3.987,7.627,3.935,11.436-.033,2.53-1.1,4.52-4.048,4.89-.106.011-.21.024-.321.033M374.9,191.562a.4.4,0,0,0,.034.047,24.527,24.527,0,0,0,2.593,3.434m-3.992-3.82c.111-.016.219-.03.33-.052a6.543,6.543,0,0,0,.97-.27,13.071,13.071,0,0,0,2.419-1.237c2.888-1.783,9.215-5.943,10.86-8.735a2.855,2.855,0,0,0,.37-.885c.246-1.236-4.04-6.27-5.77-8.173a78.914,78.914,0,0,0-7.807-7.48,26.006,26.006,0,0,0-4.127-2.942c-4.92-2.681-10.821-2.5-16.432-2.161-.174.009-.348.018-.519.029m16.956,27.934a7.273,7.273,0,0,1,2.149,2.7.278.278,0,0,1,.027.052m-64.568-14.537c.036-.045.069-.09.1-.135q2.976-3.881,6.151-7.607c2.08-2.437,4.394-4.935,7.478-5.808m16.2,18.178c.012.018.021.034.036.052a5.155,5.155,0,0,0,.742.864c1.176,1.122,2.947,1.915,4.349,1.467a10.5,10.5,0,0,0,4.4-3.281c2.4-2.7,4.784-8.056,4.542-12.588a10.006,10.006,0,0,0-.229-1.688m-17.589,10.875a5.463,5.463,0,0,1,2.737-.093m-10.932-8.525c-.558,3.031,4.289,11.953,10.13,12.949a5.987,5.987,0,0,0,1.846.018c.135-.018.267-.043.4-.07,3.89-.8,7.424-5.057,8.927-8.293m2.029-7.738a1.622,1.622,0,0,1,.546-.7m-.579-2.155a1.787,1.787,0,0,1,1.62-.955c.487.057.876.451.907,1.264a8.5,8.5,0,0,1-.334,3.046c-.024.072-.051.144-.074.217A3.98,3.98,0,0,1,350,166.9m-6.413-8.861a5.2,5.2,0,0,0,1.239,1.776,5.324,5.324,0,0,0,2.68,1.381m-10.057-20.21c.678-.122,1.365-.246,2.058-.342a11.048,11.048,0,0,1,5.211.282,11.167,11.167,0,0,1,3.3,2,13.231,13.231,0,0,1,2.717,2.855,11.714,11.714,0,0,1,1.74,6.108,34.689,34.689,0,0,1-.576,6.4m-27.969-6.625c1.128-1.615,1.41-3.676,2.353-5.406,1.462-2.674,5.655-4.779,8.27-4.755a4.258,4.258,0,0,1,.639.055M324.059,153.5a4.329,4.329,0,0,0-.517,1.252,5.407,5.407,0,0,0-.2,2.311,5.275,5.275,0,0,0,1.83,2.383c.147.133.285.258.415.384l.018.018m4-5.442c-.027.066-.07.156-.117.264a19.026,19.026,0,0,0-1.255,2.911,3.928,3.928,0,0,0-.012,1.039,1.122,1.122,0,0,0,.285.594m8.128-3.263c.108,1.7,1.69,2.41,3.7,2.824.471.1.963.181,1.467.253l.3.042m-10.064-6.519a7.988,7.988,0,0,1,.588,1.726,7.782,7.782,0,0,0,1.069,2.9,4.78,4.78,0,0,0,2.243,1.588m.724,2.629a7.5,7.5,0,0,1,4.187-.909m-13.485.645a8.177,8.177,0,0,1,3.587.718m2.362,3.322a4.18,4.18,0,0,1,.661,2.125c-.075.675-.792,1.3-.4,2a1.56,1.56,0,0,0,.558.5m4.325-4.754c.046-.327.213-.316.357-.088.337.526.063.964-.243.585A.742.742,0,0,1,338.457,165.042Zm-9.13.6c.045-.33.214-.318.357-.09.333.525.063.963-.243.585A.732.732,0,0,1,329.327,165.642Z" transform="translate(31.742 17.362)" fill="none" stroke="#6f3018" stroke-linecap="round" stroke-linejoin="round" stroke-width="0.87"/>
          </g>
        </g>
      </g>
    </g>
  </g>
</svg>
