<svg id="圖層_1" data-name="圖層 1" xmlns="http://www.w3.org/2000/svg" viewBox="0 0 24.52 24.01"><defs><style>.cls-1,.cls-2{fill:#0c7d94;}.cls-1{stroke:#0c7d94;stroke-miterlimit:10;stroke-width:0.2px;}</style></defs><g id="Group_5534" data-name="Group 5534"><path id="Subtraction_4" data-name="Subtraction 4" class="cls-1" d="M20.81,22.58H3.87A.85.85,0,0,1,3,21.73V11.57a.85.85,0,0,1,.84-.85h1.8V4.79A3.41,3.41,0,0,1,9.06,1.4h6.57A3.39,3.39,0,0,1,19,4.79v5.93h1.8a.85.85,0,0,1,.85.85V21.73a.85.85,0,0,1-.85.85ZM4.93,12.63v8H19.75v-8ZM9.06,3.31A1.48,1.48,0,0,0,7.58,4.79v5.93h9.53V4.79a1.49,1.49,0,0,0-1.48-1.48Z"/><path id="路径" class="cls-2" d="M11.6,17v1.4a.21.21,0,0,0,.21.21h1.06a.21.21,0,0,0,.21-.21V17a1.27,1.27,0,1,0-1.77-.29,1.33,1.33,0,0,0,.29.29Z"/></g></svg>