<svg xmlns="http://www.w3.org/2000/svg" width="31.882" height="28.865" viewBox="0 0 31.882 28.865">
  <g id="Group_4054" data-name="Group 4054" transform="translate(9433 -1996.75)">
    <path id="Path_40444" data-name="Path 40444" d="M598.877,557.6h17.108a2.935,2.935,0,0,1,2.935,2.935V571.1a2.935,2.935,0,0,1-2.935,2.935h-1.678v6.038l-4.4-6.038H598.877a2.935,2.935,0,0,1-2.935-2.935V560.536A2.935,2.935,0,0,1,598.877,557.6Z" transform="translate(-10020.839 1439.952)" fill="none" stroke="#999" stroke-width="1"/>
    <path id="Path_40445" data-name="Path 40445" d="M598.875,558.154a2.385,2.385,0,0,0-2.382,2.382V571.1a2.384,2.384,0,0,0,2.382,2.382h11.034a.556.556,0,0,1,.448.228l3.4,4.664v-4.338a.555.555,0,0,1,.554-.554h1.677a2.385,2.385,0,0,0,2.382-2.382V560.536a2.385,2.385,0,0,0-2.382-2.382ZM613.858,580.4l-4.231-5.81H598.875a3.493,3.493,0,0,1-3.489-3.488V560.536a3.492,3.492,0,0,1,3.489-3.488h17.108a3.491,3.491,0,0,1,3.488,3.488V571.1a3.492,3.492,0,0,1-3.488,3.488h-1.124v5.485a.553.553,0,0,1-1,.326Z" transform="translate(-10020.839 1439.952)" fill="#999" stroke="#999" stroke-width="0.5"/>
    <path id="Path_40446" data-name="Path 40446" d="M609.629,574.591H598.877a3.493,3.493,0,0,1-3.489-3.489v-7.916h-4.059a2.384,2.384,0,0,0-2.382,2.381v10.567a2.385,2.385,0,0,0,2.382,2.381h1.677a.555.555,0,0,1,.554.554v4.338l3.4-4.664a.555.555,0,0,1,.448-.228h11.033a2.382,2.382,0,0,0,2.379-2.251v-.041l-1.189-1.632Zm-16.794,11.041a.553.553,0,0,1-.384-.526v-5.485h-1.124a3.492,3.492,0,0,1-3.488-3.489V565.566a3.492,3.492,0,0,1,3.488-3.489h4.613a.555.555,0,0,1,.554.554V571.1a2.384,2.384,0,0,0,2.382,2.382h11.033a.555.555,0,0,1,.448.228l1.461,2.007a.544.544,0,0,1,.107.326v.089a3.493,3.493,0,0,1-3.489,3.489H597.684l-4.231,5.81a.554.554,0,0,1-.619.2Z" transform="translate(-10020.839 1439.952)" fill="#999"/>
    <path id="Path_40447" data-name="Path 40447" d="M609.629,574.591H598.877a3.493,3.493,0,0,1-3.489-3.489v-7.916h-4.059a2.384,2.384,0,0,0-2.382,2.381v10.567a2.385,2.385,0,0,0,2.382,2.381h1.677a.555.555,0,0,1,.554.554v4.338l3.4-4.664a.555.555,0,0,1,.448-.228h11.033a2.382,2.382,0,0,0,2.379-2.251v-.041l-1.189-1.632Z" transform="translate(-10020.839 1439.952)" fill="none" stroke="#999" stroke-width="1"/>
  </g>
</svg>
