<svg xmlns="http://www.w3.org/2000/svg" width="40.96" height="24.594" viewBox="0 0 40.96 24.594">
  <g id="Group_4053" data-name="Group 4053" transform="translate(9585 -1998)">
    <g id="Group_3859" data-name="Group 3859" transform="translate(-10125.375 1438.998)">
      <g id="Group_3858" data-name="Group 3858">
        <path id="Union_1" data-name="Union 1" d="M546.139,579.973v-19.2a1.7,1.7,0,0,1,1.62-1.771h25.847a1.7,1.7,0,0,1,1.62,1.769v18.9h-1.344v-18.9a.289.289,0,0,0-.275-.3H547.759a.289.289,0,0,0-.275.3v19.2Z" fill="#999"/>
        <path id="Path_40335" data-name="Path 40335" d="M578.232,583.6H543.48a5.7,5.7,0,0,1-2.809-1.2l-.3-.227v-3.054h40.96v3.054l-.3.227A5.673,5.673,0,0,1,578.232,583.6Zm-36.379-2.2a3.74,3.74,0,0,0,1.63.687h34.752a3.8,3.8,0,0,0,1.631-.688v-.762H541.854Z" fill="#999"/>
      </g>
    </g>
    <g id="Group_3862" data-name="Group 3862" transform="translate(-10125.375 1438.998)">
      <g id="Group_3860" data-name="Group 3860">
        <path id="Path_40336" data-name="Path 40336" d="M566.319,568.685l-3.54,0v-3.538h1.107v2.432h2.432Z" fill="#999"/>
      </g>
      <g id="Group_3861" data-name="Group 3861">
        <rect id="Rectangle_2540" data-name="Rectangle 2540" width="3.537" height="1.095" transform="translate(563.304 567.386) rotate(-45)" fill="#999"/>
      </g>
    </g>
    <g id="Group_3915" data-name="Group 3915" transform="translate(-10125.375 1438.998)">
      <g id="Group_3860-2" data-name="Group 3860-2">
        <path id="Path_40336-2" data-name="Path 40336-2" d="M556,571.924l3.54,0v3.539h-1.107v-2.432H556Z" fill="#999"/>
      </g>
      <g id="Group_3861-2" data-name="Group 3861-2">
        <rect id="Rectangle_2540-2" data-name="Rectangle 2540-2" width="3.537" height="1.095" transform="translate(555.739 574.951) rotate(-45)" fill="#999"/>
      </g>
    </g>
    <g id="Group_3914" data-name="Group 3914" transform="translate(-10125.375 1438.998)">
      <g id="Group_3860-3" data-name="Group 3860-3">
        <path id="Path_40336-3" data-name="Path 40336-3" d="M562.778,575.465l0-3.54h3.539v1.107h-2.432v2.432Z" fill="#999"/>
      </g>
      <g id="Group_3861-3" data-name="Group 3861-3">
        <rect id="Rectangle_2540-3" data-name="Rectangle 2540-3" width="1.095" height="3.537" transform="translate(563.304 573.224) rotate(-45)" fill="#999"/>
      </g>
    </g>
    <g id="Group_3916" data-name="Group 3916" transform="translate(-10125.375 1438.998)">
      <g id="Group_3860-4" data-name="Group 3860-4">
        <path id="Path_40336-4" data-name="Path 40336-4" d="M559.539,565.144l0,3.54H556v-1.106h2.432v-2.432Z" fill="#999"/>
      </g>
      <g id="Group_3861-4" data-name="Group 3861-4">
        <rect id="Rectangle_2540-4" data-name="Rectangle 2540-4" width="1.095" height="3.537" transform="translate(555.739 565.659) rotate(-45)" fill="#999"/>
      </g>
    </g>
  </g>
</svg>
