<svg xmlns="http://www.w3.org/2000/svg" width="25.128" height="28.028" viewBox="0 0 25.128 28.028">
  <g id="Group_4052" data-name="Group 4052" transform="translate(9738.3 -1996.689)">
    <g id="Group_3855" data-name="Group 3855" transform="translate(-10246.271 1439.404)">
      <g id="Group_3852" data-name="Group 3852">
        <path id="Path_40320" data-name="Path 40320" d="M520.533,585l-.9-.263c-4.879-1.424-11.366-4.3-11.366-12.843V560.912l12.265-3.316,12.263,3.316v10.982c0,8.538-6.487,11.42-11.365,12.844ZM509.375,561.76v10.134c0,7.8,6.032,10.457,10.569,11.782l.589.172.588-.172c9.472-2.766,10.569-8.049,10.569-11.782V561.76l-11.157-3.017Z" fill="#999" stroke="#999" stroke-width="0.6"/>
      </g>
      <g id="Group_3854" data-name="Group 3854">
        <g id="Group_3853" data-name="Group 3853">
          <path id="Path_40323" data-name="Path 40323" d="M520.533,578.085l-5.82-5.82a4.086,4.086,0,0,1,0-5.779l.051-.052a4.087,4.087,0,0,1,5.769-.012,4.085,4.085,0,0,1,5.768.012l.054.054a4.085,4.085,0,0,1,0,5.777Zm-2.88-11.742a2.966,2.966,0,0,0-2.108.873l-.051.052a2.98,2.98,0,0,0,0,4.215l5.037,5.038,5.037-5.038a2.979,2.979,0,0,0,0-4.212l0,0-.054-.055a2.98,2.98,0,0,0-4.212,0l-.771.772-.768-.772a2.967,2.967,0,0,0-2.109-.87Z" fill="#999" stroke="#999" stroke-width="0.8"/>
        </g>
      </g>
    </g>
  </g>
</svg>
