<svg xmlns="http://www.w3.org/2000/svg" width="31.7" height="29.648" viewBox="0 0 31.7 29.648">
  <g id="Group_4064" data-name="Group 4064" transform="translate(8409.839 -2119.523)">
    <path id="Path_40448" data-name="Path 40448" d="M2748.388,1339.7h-23.166l.54-18.438,8.9-2.623-1.453-5.871h15.182Z" transform="translate(-11133.951 808.357)" fill="#eaf3f5"/>
    <path id="Path_43" data-name="Path 43" d="M17.95,26.293l5.782-1.668-.76-3.665Z" transform="translate(-8425.17 2101.622)" fill="#cce3e8"/>
    <path id="Path_44" data-name="Path 44" d="M22.117,25.13V27.49H2.159V10.771l8.762-2.527L9.661,2.159H22.117V6.916l1.844-3.194a3.007,3.007,0,0,1,.315-.444V0H7.557L0,8.023V29.648H24.275v-6.76ZM2.619,8.391,7.643,3.057,8.4,6.722Z" transform="translate(-8409.839 2119.523)" fill="#09c"/>
    <path id="Path_45" data-name="Path 45" d="M42.316,80.88H53.809l.8-1.388a.886.886,0,0,0-.728-.382H42.316a.885.885,0,1,0,0,1.77Z" transform="translate(-8445.225 2051.956)" fill="#09c"/>
    <path id="Path_46" data-name="Path 46" d="M85.876,49.8h5.209a.886.886,0,0,0,0-1.771H85.876a.886.886,0,1,0,0,1.771Z" transform="translate(-8482.428 2078.501)" fill="#09c"/>
    <path id="Path_47" data-name="Path 47" d="M42.324,108h8.8l.861-1.77H42.324a.874.874,0,0,0-.624.258A.885.885,0,0,0,42.324,108Z" transform="translate(-8445.232 2028.793)" fill="#09c"/>
    <path id="Path_48" data-name="Path 48" d="M41.69,133.618a.885.885,0,0,0,.626,1.512H49.2l.861-1.77h-7.74A.88.88,0,0,0,41.69,133.618Z" transform="translate(-8445.225 2005.622)" fill="#09c"/>
    <path id="Path_49" data-name="Path 49" d="M127.323,25.557l-3.315-1.914a1.817,1.817,0,0,0-2.479.665L113.02,39.046l.608,6.4,5.849-2.674,8.509-14.738A1.818,1.818,0,0,0,127.323,25.557ZM115.662,43.214l-1.115-.643-.287-3.029,4.17,2.407Zm7.44-18.628a.63.63,0,0,1,.314.085l3.315,1.914a.63.63,0,0,1,.231.858l-1.4,2.428-4.4-2.542,1.4-2.428A.622.622,0,0,1,123.1,24.586Z" transform="translate(-8506.368 2099.538)" fill="#09c"/>
    <path id="Path_50" data-name="Path 50" d="M125.68,136.437l-4.17-2.407.289,3.028,1.115.645Z" transform="translate(-8513.619 2005.049)" fill="#eaf3f5"/>
    <path id="Path_51" data-name="Path 51" d="M168.77,34.263l4.4,2.542,1.4-2.428a.628.628,0,0,0-.231-.858L171.03,31.6a.629.629,0,0,0-.859.229Z" transform="translate(-8553.984 2092.603)" fill="#eaf3f5"/>
  </g>
</svg>
