<svg xmlns="http://www.w3.org/2000/svg" width="140" height="29.85" viewBox="0 0 140 29.85">
  <g id="Group_225" data-name="Group 225" transform="translate(-27.309 -195.626)">
    <g id="Group_220" data-name="Group 220" transform="translate(27.309 195.626)">
      <path id="Path_18" data-name="Path 18" d="M89.192,210.17c-.014.007.014-.005,0,0s0,.084.252.258a5.492,5.492,0,0,1,2.436,4.961A5.623,5.623,0,0,1,86,220.734v4.28c5.431,0,10.367-3.788,10.367-9.187a9.428,9.428,0,0,0-1.885-5.69,5.931,5.931,0,0,0,.59-.821c.331-.575.393-1.272.393-3.6v-10.09H81.539v8.039H77.1v4.419h8.979v-7.936h5.011v6.847a3.5,3.5,0,0,1-1.894,3.175" transform="translate(-67.46 -195.626)" fill="#029583"/>
      <path id="Path_19" data-name="Path 19" d="M36.99,195.626H35.7v0a8.877,8.877,0,0,0-6.485,2.623c-1.738,1.936-1.9,3.654-1.9,6.488v20.269H41.457v-7.957h4.476v-4.47H36.952v8.02H31.812v-16.8s-.331-3.649,4.155-3.75l1.026-.047Z" transform="translate(-27.309 -195.626)" fill="#02829b"/>
    </g>
    <g id="Group_224" data-name="Group 224" transform="translate(62.44 203.083)">
      <g id="Group_221" data-name="Group 221" transform="translate(0 0.202)">
        <path id="Path_20" data-name="Path 20" d="M256.958,278.281v3.494l-13.827.012v-4.81h12.156c1.772,0,1.671,1.3,1.671,1.3m-2.685,1.868v-1.472h-8.639v1.472Z" transform="translate(-239.491 -269.53)"/>
        <path id="Path_21" data-name="Path 21" d="M229.789,315.409v-8.466h17.15a2.092,2.092,0,0,1,.837.242,1.9,1.9,0,0,1,1.094,1.626v6.6h-2.875v-.58l-13.338,0v.583h-2.867m16.205-5.4v-1.151h-5.347v1.151h5.347m-7.984.007v-1.151h-5.342v1.151h5.342m7.984,2.944v-1.148h-5.347v1.148h5.347m-7.984.01v-1.151h-5.342v1.151Z" transform="translate(-228.732 -293.697)"/>
        <rect id="Rectangle_16" data-name="Rectangle 16" width="13.839" height="1.805" transform="translate(3.628 4.725)"/>
        <path id="Path_22" data-name="Path 22" d="M224.326,245.482v-5.546h9.161V238.5h2.769v1.345h7.231s1.849.139,1.849,1.683v3.953h-2.515v-3.174H226.987v3.174Z" transform="translate(-224.326 -238.501)"/>
      </g>
      <g id="Group_222" data-name="Group 222" transform="translate(27.827 0.151)">
        <path id="Path_23" data-name="Path 23" d="M437.173,248.648l1.753-5.788a1.577,1.577,0,0,0-1.532-1.882l-7.329,0v21.3l2.666,0v-3.853s.8,1.189,1.225,1.783a4.366,4.366,0,0,0,2.112-.532,5.891,5.891,0,0,0,3.186-4.469,9.173,9.173,0,0,0-2.081-6.567m-.606,6.787a3.835,3.835,0,0,1-2.314,2.237,2.918,2.918,0,0,1-1.561.063V243.618l3.407,0c-.51,1.839-1.153,3.755-1.726,5.565.18.336.573.643.782,1.012C436.142,251.726,437.106,253.474,436.567,255.435Z" transform="translate(-418.072 -240.448)"/>
        <path id="Path_24" data-name="Path 24" d="M379.178,248.217v-2.755h-3.827l0-2.09H379.1v-2.642h-3.74V238.24h-2.9l0,2.489H368.1v2.7h4.359l0,2.047H368.1v2.693h4.363v2.016h-4.3v2.753l4.177,0a7.478,7.478,0,0,1-2.609,5.031l1.578,2.1c3.891-2.172,4.071-7.113,4.071-7.113h3.8v-2.777h-3.824v-1.97Z" transform="translate(-368.101 -238.24)"/>
      </g>
      <g id="Group_223" data-name="Group 223" transform="translate(83.758)">
        <path id="Path_25" data-name="Path 25" d="M667.609,240.569h-8.015V242.2h18.656v-1.635h-8.068v-.8h8.874V238.15h-8.874v-.69h-2.572v.69h-8.763v1.623h8.763Z" transform="translate(-658.505 -237.46)"/>
        <path id="Path_26" data-name="Path 26" d="M680.044,265.688a2.032,2.032,0,0,0-1-.189H659.81v1.65h17.812a.859.859,0,0,1,.494.11c.173.127.144.451.144.451v1.65h2.134V266.4A.9.9,0,0,0,680.044,265.688Z" transform="translate(-659.283 -260.071)"/>
        <path id="Path_27" data-name="Path 27" d="M659.936,280.558v1.606h18.881v-1.606h-7.763v-.825h5.7v-1.666H661.868v1.666h6.62v.825Z" transform="translate(-659.384 -270.208)"/>
        <path id="Path_28" data-name="Path 28" d="M657.086,305.208h15.925v1.206h-5.486v1.726h5.486s0,1.021,0,2.234c0,.786-1.592.887-2.563.825l.981,1.932c.938,0,2.868-.2,3.807-1.184.479-.5.355-1.554.355-3.807h1.932v-1.726h-1.932v-1.206H678.2v-1.683H657.086Z" transform="translate(-657.086 -290.738)"/>
        <path id="Path_29" data-name="Path 29" d="M671.695,315.464H664.48v6.153h2.18v-.561h3.628v.561h2.179v-5.351a.815.815,0,0,0-.214-.635.935.935,0,0,0-.558-.166m-1.4,2.321v1.6h-3.64v-2.2h3.165a.708.708,0,0,1,.378.216A.656.656,0,0,1,670.3,317.785Z" transform="translate(-663.049 -300.367)"/>
        <path id="Path_30" data-name="Path 30" d="M711.2,329.242l-1.588,1.275,1.686,2.117,1.585-1.275Z" transform="translate(-699.444 -311.478)"/>
      </g>
      <path id="Path_31" data-name="Path 31" d="M517.981,249.173a27.3,27.3,0,0,1-1.07,2.712,21.352,21.352,0,0,1-8.382,9.039l-1.995-2.089a17.926,17.926,0,0,0,4.548-3.354q5.56-5.6,5.56-14.889v-1.151h2.865s-.045.676-.074,1.151c-.046.746-.06,1.978-.048,2.038a22.781,22.781,0,0,0,.727,4.9q1.971,6.358,9.43,11.635L527.171,261c-1.17-.974-2.165-1.829-2.975-2.582A23.552,23.552,0,0,1,517.981,249.173Z" transform="translate(-451.915 -239.058)"/>
    </g>
  </g>
</svg>
