<svg xmlns="http://www.w3.org/2000/svg" width="25.556" height="23" viewBox="0 0 25.556 23">
  <g id="Group_1926" data-name="Group 1926" transform="translate(-220.5 -224.491)">
    <path id="Path_39448" data-name="Path 39448" d="M260.261,231.312l-8-6.667a.667.667,0,0,0-1.094.512v3.46c-6.692,1.508-10.667,5.667-10.667,11.207a.668.668,0,0,0,.56.658.69.69,0,0,0,.107.008.668.668,0,0,0,.633-.456c1.132-3.4,5.607-4.726,9.368-4.865v3.321a.667.667,0,0,0,1.094.512l8-6.667a.667.667,0,0,0,0-1.025Z" transform="translate(-14.445 0)" fill="#0090ff"/>
    <path id="Path_39449" data-name="Path 39449" d="M243.448,242.51a1.274,1.274,0,0,0-1.275,1.275v3.824H223.05V231.039h5.1a1.275,1.275,0,1,0,0-2.549h-6.374a1.274,1.274,0,0,0-1.275,1.275v19.118a1.274,1.274,0,0,0,1.275,1.275h21.673a1.274,1.274,0,0,0,1.275-1.275v-5.1A1.274,1.274,0,0,0,243.448,242.51Z" transform="translate(0 -2.666)" fill="#0090ff"/>
  </g>
</svg>
