<svg xmlns="http://www.w3.org/2000/svg" xmlns:xlink="http://www.w3.org/1999/xlink" width="71.707" height="108.015" viewBox="0 0 71.707 108.015">
  <defs>
    <radialGradient id="radial-gradient" cx="0.5" cy="0.5" r="1.558" gradientTransform="translate(0.34 5.683) scale(0.321 0.321)" gradientUnits="objectBoundingBox">
      <stop offset="0" stop-color="#58585a"/>
      <stop offset="0.054" stop-color="#737374"/>
      <stop offset="0.141" stop-color="#989899"/>
      <stop offset="0.236" stop-color="#b8b8b9"/>
      <stop offset="0.338" stop-color="#d2d2d2"/>
      <stop offset="0.45" stop-color="#e6e6e6"/>
      <stop offset="0.577" stop-color="#f4f4f4"/>
      <stop offset="0.733" stop-color="#fcfcfc"/>
      <stop offset="1" stop-color="#fff"/>
    </radialGradient>
  </defs>
  <g id="Group_2639" data-name="Group 2639" transform="translate(-787.646 -400.828)">
    <g id="shadow" transform="translate(787.646 485.832)">
      <path id="Path_39492" data-name="Path 39492" d="M88.332,71.007c0,6.354-16.052,11.5-35.852,11.5s-35.855-5.15-35.855-11.5S32.677,59.5,52.48,59.5,88.332,64.65,88.332,71.007Z" transform="translate(-16.625 -59.5)" fill="url(#radial-gradient)" style="mix-blend-mode: multiply;isolation: isolate"/>
    </g>
    <g id="People" transform="translate(803.146 400.828)">
      <path id="Path_39493" data-name="Path 39493" d="M35.526,35.79h5.251a9.7,9.7,0,0,0,6.961,0h5.251A11.349,11.349,0,0,1,64.3,47.107V66.351a11.359,11.359,0,0,1-7.049,10.477l-1.525,29.445c-.249,4.821-3.82,9.089-8.572,9.091H45.2V77.218a.945.945,0,0,0-.942-.942h0a.943.943,0,0,0-.94.942v38.146H41.379c-4.764,0-8.347-4.259-8.6-9.091L31.258,76.828a11.359,11.359,0,0,1-7.049-10.477V47.107A11.351,11.351,0,0,1,35.526,35.79Zm8.731-17.881a8.832,8.832,0,1,1-8.833,8.833,8.833,8.833,0,0,1,8.833-8.833Z" transform="translate(-24.209 -17.909)" fill="#aeb8c3" fill-rule="evenodd"/>
    </g>
  </g>
</svg>
