<svg xmlns="http://www.w3.org/2000/svg" width="108" height="108" viewBox="0 0 108 108">
  <g id="Group_1915" data-name="Group 1915" transform="translate(-325 -171)">
    <path id="Path_39466" data-name="Path 39466" d="M670.217,1655.484a54,54,0,1,1,54-54A54.061,54.061,0,0,1,670.217,1655.484Z" transform="translate(-291.217 -1376.484)" fill="rgba(166,219,255,0.8)"/>
    <g id="Group_1914" data-name="Group 1914" transform="translate(355.35 195.508)" opacity="0.879">
      <g id="Group_1912" data-name="Group 1912" transform="translate(0 0)">
        <g id="Group_1910" data-name="Group 1910" transform="translate(10.2)">
          <path id="Path_39467" data-name="Path 39467" d="M732.728,1640.764a11.878,11.878,0,1,1,11.878-11.879A11.892,11.892,0,0,1,732.728,1640.764Zm0-20.281a8.4,8.4,0,1,0,8.4,8.4A8.412,8.412,0,0,0,732.728,1620.483Z" transform="translate(-720.849 -1617.007)" fill="#fff"/>
        </g>
        <g id="Group_1911" data-name="Group 1911" transform="translate(0 24.203)">
          <path id="Path_39468" data-name="Path 39468" d="M723.367,1708.79H700.8a5.088,5.088,0,0,1-5.082-5.082v-5.054a21.993,21.993,0,0,1,37.569-15.548,21.205,21.205,0,0,1,1.85,2.108,1.738,1.738,0,0,1-2.761,2.114,17.7,17.7,0,0,0-1.547-1.764,18.517,18.517,0,0,0-31.635,13.091v5.054a1.607,1.607,0,0,0,1.606,1.605h22.57a1.738,1.738,0,0,1,0,3.476Z" transform="translate(-695.716 -1676.64)" fill="#fff"/>
        </g>
      </g>
      <g id="Group_1913" data-name="Group 1913" transform="translate(28.081 36.179)">
        <path id="Path_39469" data-name="Path 39469" d="M776.233,1728.8a11.327,11.327,0,1,1,11.326-11.327A11.339,11.339,0,0,1,776.233,1728.8Zm0-19.178a7.851,7.851,0,1,0,7.85,7.851A7.86,7.86,0,0,0,776.233,1709.625Z" transform="translate(-764.906 -1706.149)" fill="#fff"/>
        <path id="Path_39470" data-name="Path 39470" d="M782.52,1731.874a1.739,1.739,0,0,1-1.229-.509l-1.886-1.887a1.738,1.738,0,0,1,2.457-2.458l.658.657,4.705-4.707a1.738,1.738,0,0,1,2.459,2.458l-5.935,5.937A1.74,1.74,0,0,1,782.52,1731.874Z" transform="translate(-773.217 -1715.841)" fill="#fff"/>
      </g>
    </g>
  </g>
</svg>
