<svg xmlns="http://www.w3.org/2000/svg" width="108" height="108" viewBox="0 0 108 108">
  <g id="Group_1907" data-name="Group 1907" transform="translate(-1081.435 -616.165)">
    <path id="Path_39459" data-name="Path 39459" d="M1135.73,724.46a54,54,0,1,1,54-54A54.061,54.061,0,0,1,1135.73,724.46Z" transform="translate(-0.295 -0.295)" fill="rgba(166,219,255,0.8)"/>
    <g id="Group_1906" data-name="Group 1906" transform="translate(1100.671 642.997)" opacity="0.946">
      <g id="Group_1908" data-name="Group 1908" transform="translate(0 0)">
        <g id="Group_1904" data-name="Group 1904">
          <path id="Path_39460" data-name="Path 39460" d="M1165.709,703.375a12.428,12.428,0,1,1,12.428-12.428A12.442,12.442,0,0,1,1165.709,703.375Zm0-21.189a8.761,8.761,0,1,0,8.76,8.761A8.771,8.771,0,0,0,1165.709,682.185Z" transform="translate(-1142.686 -678.518)" fill="#fff"/>
          <path id="Path_39461" data-name="Path 39461" d="M1163.066,774.013h-35.388a5.335,5.335,0,0,1-5.329-5.328V763.4a23.023,23.023,0,0,1,46.046,0v5.282A5.335,5.335,0,0,1,1163.066,774.013Zm-17.694-29.966a19.377,19.377,0,0,0-19.356,19.355v5.282a1.664,1.664,0,0,0,1.662,1.661h35.388a1.664,1.664,0,0,0,1.662-1.661V763.4A19.378,19.378,0,0,0,1145.372,744.047Z" transform="translate(-1122.349 -719.19)" fill="#fff"/>
        </g>
        <g id="Group_1905" data-name="Group 1905" transform="translate(39.583 1.016)">
          <path id="Path_39462" data-name="Path 39462" d="M1251.249,701.862a10.19,10.19,0,1,1,10.19-10.191A10.2,10.2,0,0,1,1251.249,701.862Zm0-16.713a6.523,6.523,0,1,0,6.523,6.522A6.53,6.53,0,0,0,1251.249,685.149Z" transform="translate(-1239.979 -681.481)" fill="#fff"/>
          <path id="Path_39463" data-name="Path 39463" d="M1263.134,757.578h-14.795a1.834,1.834,0,1,1,0-3.667h14.795a.926.926,0,0,0,.922-.929v-4.161a14.851,14.851,0,0,0-23.272-12.264,1.833,1.833,0,1,1-2.082-3.018,18.546,18.546,0,0,1,29.022,15.282v4.161A4.6,4.6,0,0,1,1263.134,757.578Z" transform="translate(-1237.908 -713.56)" fill="#fff"/>
        </g>
      </g>
    </g>
  </g>
</svg>
