<svg id="Group_2442" data-name="Group 2442" xmlns="http://www.w3.org/2000/svg" xmlns:xlink="http://www.w3.org/1999/xlink" width="78.694" height="115.738" viewBox="0 0 78.694 115.738">
  <defs>
    <clipPath id="clip-path">
      <rect id="Rectangle_2301" data-name="Rectangle 2301" width="41.174" height="5.106" fill="none"/>
    </clipPath>
    <clipPath id="clip-path-2">
      <rect id="Rectangle_2302" data-name="Rectangle 2302" width="41.174" height="35.725" fill="none"/>
    </clipPath>
    <linearGradient id="linear-gradient" x1="11.129" y1="3.551" x2="11.113" y2="3.552" gradientUnits="objectBoundingBox">
      <stop offset="0" stop-color="#02404a"/>
      <stop offset="1" stop-color="#02404a"/>
    </linearGradient>
    <linearGradient id="linear-gradient-2" x1="9.318" y1="3.59" x2="9.304" y2="3.59" xlink:href="#linear-gradient"/>
  </defs>
  <g id="分组">
    <path id="Clip_2-3" data-name="Clip 2-3" d="M124.525,19.221H83.351v5.106h41.174Z" transform="translate(-83.351 -19.221)" fill="none"/>
    <g id="Group_1703" data-name="Group 1703" transform="translate(0 0)">
      <g id="Group_1702" data-name="Group 1702" clip-path="url(#clip-path)">
        <g id="分组-2" transform="translate(0 0)">
          <path id="Fill_1" data-name="Fill 1" d="M83.351,24.327h41.174V20.661a1.445,1.445,0,0,0-1.449-1.44H84.8a1.445,1.445,0,0,0-1.449,1.44Z" transform="translate(-83.351 -19.221)" fill="#393d65"/>
        </g>
      </g>
    </g>
  </g>
  <g id="分组-3" transform="translate(0 4.677)">
    <path id="Clip_4-2" data-name="Clip 4-2" d="M124.525,29.578H83.351V65.3h41.174Z" transform="translate(-83.351 -29.578)" fill="none"/>
    <g id="Group_1705" data-name="Group 1705" transform="translate(0 0)">
      <g id="Group_1704" data-name="Group 1704" clip-path="url(#clip-path-2)">
        <g id="分组-4" transform="translate(0 0)">
          <path id="Fill_3" data-name="Fill 3" d="M84.8,65.3h38.276a1.445,1.445,0,0,0,1.449-1.44V29.578H83.351V63.863A1.445,1.445,0,0,0,84.8,65.3" transform="translate(-83.351 -29.578)" fill="#ced7ec"/>
        </g>
      </g>
    </g>
  </g>
  <path id="Fill_5" data-name="Fill 5" d="M86.733,23.385a.909.909,0,1,0,.916-.9h-.006a.907.907,0,0,0-.909.9" transform="translate(-48.962 -21.01)" fill="#a3b5d6"/>
  <path id="Fill_7" data-name="Fill 7" d="M94.255,23.385a.909.909,0,1,0,.916-.9h-.006a.907.907,0,0,0-.909.9" transform="translate(-59.875 -21.01)" fill="#ced7ec"/>
  <path id="Fill_9" data-name="Fill 9" d="M101.777,23.385a.909.909,0,1,0,.916-.9h-.006a.907.907,0,0,0-.909.9" transform="translate(-70.79 -21.01)" fill="#e2e7f2"/>
  <g id="分组_2" data-name="分组 2" transform="translate(3.549 8.618)">
    <path id="Fill_11" data-name="Fill 11" d="M125.381,65.232a.451.451,0,0,0,.452-.449V38.756a.451.451,0,0,0-.452-.449H92.657a.451.451,0,0,0-.451.449V64.783a.451.451,0,0,0,.451.449Z" transform="translate(-92.205 -38.307)" fill="#fff"/>
    <path id="Fill_13" data-name="Fill 13" d="M128.026,62.1a1.2,1.2,0,0,0,.844-.338l.192-.207a2.9,2.9,0,0,1,3.989,0l.192.206a1.209,1.209,0,0,0,.846.34.943.943,0,0,0,.328-.055,8.464,8.464,0,0,0,1.1-.568,8.315,8.315,0,0,0,1.041-.674,1.187,1.187,0,0,0,.339-1.159l-.079-.271a2.894,2.894,0,0,1,1.994-3.451l.274-.063a1.17,1.17,0,0,0,.834-.871,12.092,12.092,0,0,0,0-2.478,1.19,1.19,0,0,0-.834-.871l-.28-.063a2.856,2.856,0,0,1-1.684-1.326,2.884,2.884,0,0,1-.308-2.122l.084-.276a1.185,1.185,0,0,0-.338-1.154,8.185,8.185,0,0,0-1.042-.677,8.588,8.588,0,0,0-1.1-.564.983.983,0,0,0-.331-.055,1.194,1.194,0,0,0-.843.339l-.194.21a2.868,2.868,0,0,1-1.987.793h-.015a2.85,2.85,0,0,1-1.974-.787l-.2-.216a1.208,1.208,0,0,0-.845-.34.948.948,0,0,0-.329.055,8.848,8.848,0,0,0-1.1.564,8.309,8.309,0,0,0-1.041.674,1.187,1.187,0,0,0-.339,1.159l.09.271a2.89,2.89,0,0,1-1.982,3.447l-.291.066a1.171,1.171,0,0,0-.834.871,8.794,8.794,0,0,0-.07,1.243,8.1,8.1,0,0,0,.064,1.238,1.189,1.189,0,0,0,.834.871l.274.063a2.9,2.9,0,0,1,1.994,3.444l-.084.279a1.184,1.184,0,0,0,.34,1.159,7.991,7.991,0,0,0,1.038.674,8.754,8.754,0,0,0,1.106.564A.977.977,0,0,0,128.026,62.1Zm3.035-11.9a3.553,3.553,0,0,1,2.518,1.046,3.507,3.507,0,0,1,1.035,2.508,3.559,3.559,0,1,1-3.563-3.554h.01Z" transform="translate(-119.87 -42.197)" fill="#a3b5d6"/>
    <path id="Fill_15" data-name="Fill 15" d="M107.385,77.245h.068a4.326,4.326,0,0,0,.635-.038.613.613,0,0,0,.446-.431l.033-.14a1.49,1.49,0,0,1,1.769-1.036l.135.04a.479.479,0,0,0,.141.02.615.615,0,0,0,.452-.2,4.179,4.179,0,0,0,.344-.535,4.3,4.3,0,0,0,.288-.568.605.605,0,0,0-.147-.6l-.108-.1a1.453,1.453,0,0,1-.412-1.014,1.483,1.483,0,0,1,.4-1.022l.108-.1a.605.605,0,0,0,.144-.6,4.136,4.136,0,0,0-.291-.564,4.418,4.418,0,0,0-.348-.529.608.608,0,0,0-.448-.19.494.494,0,0,0-.147.021l-.14.045a1.47,1.47,0,0,1-1.089-.147,1.444,1.444,0,0,1-.683-.849l-.035-.148a.6.6,0,0,0-.452-.422,4.3,4.3,0,0,0-.575-.026h-.056a4.338,4.338,0,0,0-.636.038.615.615,0,0,0-.446.431l-.028.144a1.49,1.49,0,0,1-1.759,1.036l-.147-.045a.47.47,0,0,0-.14-.02.614.614,0,0,0-.452.2,4.532,4.532,0,0,0-.35.538,4.262,4.262,0,0,0-.287.568.606.606,0,0,0,.149.6l.106.1a1.475,1.475,0,0,1,.01,2.034l-.108.1a.6.6,0,0,0-.144.6,4.037,4.037,0,0,0,.291.562,4.512,4.512,0,0,0,.348.529.618.618,0,0,0,.448.19.489.489,0,0,0,.147-.021l.139-.045a1.479,1.479,0,0,1,1.776,1l.033.14a.607.607,0,0,0,.452.423A4.075,4.075,0,0,0,107.385,77.245Zm.061-6.382a1.819,1.819,0,0,1,.894.235h0a1.806,1.806,0,0,1,.686,2.46l-.009.015a1.844,1.844,0,0,1-1.6.926,1.812,1.812,0,0,1-1.577-2.706l0-.008A1.844,1.844,0,0,1,107.446,70.862Z" transform="translate(-83.035 -54.657)" fill="#ced7ec"/>
    <path id="Fill_17" data-name="Fill 17" d="M99.591,47.028h5a.594.594,0,0,0,.594-.591v-.05a.594.594,0,0,0-.594-.591h-5a.594.594,0,0,0-.594.591v.05a.594.594,0,0,0,.594.591" transform="translate(-74.63 -42.415)" fill="#a3b5d6"/>
    <path id="Fill_19" data-name="Fill 19" d="M100.691,53.406h3.1a.615.615,0,1,0,0-1.231h-3.1a.615.615,0,0,0,0,1.231h0" transform="translate(-74.33 -45.913)" fill="#a3b5d6"/>
  </g>
  <path id="Path_39388" data-name="Path 39388" d="M36.238,37.458c4.294-3.078,9.465-.98,10.152,3.465.891,5.768-.235,10.413,1.2,14.239A28.816,28.816,0,0,1,49.194,66.92c-5.86-7.988-11.916-4.681-15.261-12.706C32.86,51.635,32.122,40.407,36.238,37.458Z" transform="translate(14.482 -28.424)" fill="#3d4166"/>
  <path id="Path_39389" data-name="Path 39389" d="M46.811,70.349h5.127V60.54H48.8Z" transform="translate(5.619 -41.883)" fill="#efbc90"/>
  <path id="Path_39390" data-name="Path 39390" d="M42.054,43.16c-.866,4.026-.226,8.086,2.2,8.966,2.28.826,6.236-1.359,8.047-5.339,1.905-4.19.975-7.322-2.4-8.489C46.319,37.06,43,38.747,42.054,43.16Z" transform="translate(6.588 -29.469)" fill="#f4caab"/>
  <path id="Path_39391" data-name="Path 39391" d="M43.594,200.611l3.446-24.96,3.635-24.93.658-4.512,9.5,2.049-1.261,4.38L52.6,176.833l-6.844,24.23-.3,1.068-2.017-.422Z" transform="translate(-1.752 -88.871)" fill="#efbc90"/>
  <path id="Path_39392" data-name="Path 39392" d="M15.717,146.208l.158,4.555.92,26.492,11.573,17.254.619.922-1.6,1.264-.753-.815L11.846,179.872a2.06,2.06,0,0,1-.523-1.07l-.064-.383L6.823,151.667l-.746-4.5Z" transform="translate(46.961 -88.869)" fill="#efbc90"/>
  <path id="Path_39393" data-name="Path 39393" d="M58.575,144.347H45.127l-5.8,46.8,7.825,1.139Z" transform="translate(2.361 -87.85)" fill="url(#linear-gradient)"/>
  <path id="Path_39394" data-name="Path 39394" d="M24.024,144.347H11.1s2.367,29.912,4.295,33.428c2.311,4.215,11.462,14,11.462,14l6.215-4.8s-6.547-9.268-8.127-13.618S24.024,144.347,24.024,144.347Z" transform="translate(40.604 -87.85)" fill="url(#linear-gradient-2)"/>
  <path id="Path_39396" data-name="Path 39396" d="M41.941,80.416s-2.765,2.424-5.529.808c0,0-.945,10.1-2.182,14.219s-4.448,14.6-4.448,14.6l19.67.347C49.989,101.169,46.506,90.7,41.941,80.416Z" transform="translate(15.738 -52.785)" fill="#76d3f4"/>
  <path id="Path_39397" data-name="Path 39397" d="M12.965,89.4c1.761,2.087,3.5,4.283,5.125,6.494C18.9,97,19.7,98.123,20.438,99.259a32.361,32.361,0,0,1,1.995,3.429c.135.286.258.56.373.842l.355.937c.226.639.448,1.283.657,1.938.421,1.309.813,2.641,1.192,3.978.749,2.678,1.448,5.394,2.091,8.1l.311,1.309,2.561-.521-.236-1.324c-.5-2.8-1.043-5.559-1.651-8.334-.308-1.386-.632-2.771-.993-4.16-.181-.694-.376-1.391-.578-2.09l-.331-1.055c-.129-.376-.271-.754-.421-1.109a35.789,35.789,0,0,0-2.032-3.967c-.731-1.256-1.5-2.472-2.287-3.67-1.583-2.4-3.218-4.7-4.964-7l-1.364-1.8-3.6,2.912Z" transform="translate(43.523 -55.166)" fill="#f4caab"/>
  <path id="Path_39398" data-name="Path 39398" d="M41.43,77.811s9.6,14.365,7.649,29.688c0,0,.825,3.01-10.073,2.6s-11.522-1.915-11.522-1.915a105.094,105.094,0,0,0,7.461-28.736S39.021,79.6,41.43,77.811Z" transform="translate(16.941 -51.355)" fill="#4db7c7"/>
  <path id="Path_39399" data-name="Path 39399" d="M21.727,112.694l8.43-.722s-2.3-9.272-4.656-14.362c-2.956-6.4-7.935-15.809-12.8-13.353-6.357,3.209,6.272,14.634,7.761,18.183C21.666,105.305,21.727,112.694,21.727,112.694Z" transform="translate(43.602 -54.672)" fill="#4db7c7"/>
  <path id="Path_39400" data-name="Path 39400" d="M9.88,167.326c.83-.406,1.016-2.652.059-5.226-.883-2.373-2.5-3.518-3.371-3.176C4.626,159.687,8.6,167.957,9.88,167.326Z" transform="translate(65.381 -95.811)" fill="#f4caab"/>
  <path id="Path_39401" data-name="Path 39401" d="M15.53,165.809c-.406.025-.983-.928-1.2-2.313-.2-1.277.153-2.189.559-2.254C15.795,161.1,16.158,165.77,15.53,165.809Z" transform="translate(56.404 -97.115)" fill="#f4caab"/>
  <path id="Path_39402" data-name="Path 39402" d="M74.7,268.965l1.586-.282h0l5.8-2.245v.045a1.377,1.377,0,0,0,1.275,1.181,2.651,2.651,0,0,0,1.7-.233.273.273,0,0,1,.131-.083c.387,0,.7.632.7,1.415a2.592,2.592,0,0,1-.093.7v1.084H74.257v-1.1A.492.492,0,0,1,74.7,268.965Z" transform="translate(-40.74 -154.813)" fill="#3d4166"/>
  <path id="Path_39403" data-name="Path 39403" d="M.127,261.556l.983-1.276h0l2.777-5.565.032.034a1.376,1.376,0,0,0,1.737.015,2.65,2.65,0,0,0,1.1-1.32.279.279,0,0,1,.041-.15c.286-.261.945,0,1.471.574a2.584,2.584,0,0,1,.406.583l.731.8L.867,263.032l-.74-.813A.492.492,0,0,1,.127,261.556Z" transform="translate(69.285 -147.549)" fill="#3d4166"/>
  <path id="Path_39404" data-name="Path 39404" d="M13.767,36.336a5.744,5.744,0,0,1,2.957.619c1.6.827,3.7,2.8,4.12,7.28.39,4.175-1.282,6.218,2.285,10.157,4.012,3.046,11.163,2.529,10.337,9.362S23.576,69.7,21.42,66.284s-1.913-6.464-3.111-8.62-3.279-.892-4.319-3.27c-1.219-2.237.9-7.254,1.279-8.118a2.645,2.645,0,0,0-1.948-2.136c-2.925-.8-5.35-3.567-5.35-4.458S10.646,36.336,13.767,36.336Z" transform="translate(41.561 -28.602)" fill="#3d4166"/>
  <path id="Path_39405" data-name="Path 39405" d="M46.618,54.081a1.133,1.133,0,1,0,1.564-.764A1.242,1.242,0,0,0,46.618,54.081Z" transform="translate(8.807 -37.887)" fill="#f4caab"/>
  <g id="Group_2022" data-name="Group 2022" transform="translate(21.672 28.842)">
    <g id="Group_2021" data-name="Group 2021" transform="translate(0 0)">
      <path id="Path_39386" data-name="Path 39386" d="M71.675,85.428,60.286,103.973l2.228-.768-15.022-4.7-1.364-.427-.907,2.619,1.336.509,14.708,5.6a1.835,1.835,0,0,0,2.171-.684l.056-.084L75.705,88.032Z" transform="translate(-39.048 -84.375)" fill="#f4caab"/>
      <path id="Path_39387" data-name="Path 39387" d="M109.406,111.04c-.267.945,1.077,2.586,3.372,3.515,2.115.858,3.9.3,4.237-.632C117.765,111.837,109.82,109.578,109.406,111.04Z" transform="translate(-109.372 -98.167)" fill="#f4caab"/>
      <path id="Path_39395" data-name="Path 39395" d="M46.011,98.091l-2.568,8.376s9.708,1.712,13.715-1.319c5.621-4.252,14.88-17.94,10.639-21.361-4.709-3.8-8.1,9.115-13.428,14.036C52.084,99.932,46.011,98.091,46.011,98.091Z" transform="translate(-31.414 -83.097)" fill="#4db7c7"/>
    </g>
    <path id="Path_39406" data-name="Path 39406" d="M110.138,109.037c.267-.34,1.43-.123,2.683.682,1.155.743,1.629,1.668,1.392,2.036C113.687,112.578,109.725,109.562,110.138,109.037Z" transform="translate(-106.914 -97.239)" fill="#f4caab"/>
  </g>
</svg>
