<svg xmlns="http://www.w3.org/2000/svg" xmlns:xlink="http://www.w3.org/1999/xlink" width="428.128" height="361.028" viewBox="0 0 428.128 361.028">
  <defs>
    <clipPath id="clip-path">
      <path id="Clip_2" data-name="Clip 2" d="M0,0H38.65V9.112H0Z" transform="translate(0 0.111)" fill="none"/>
    </clipPath>
    <clipPath id="clip-path-2">
      <path id="Clip_4" data-name="Clip 4" d="M0,0H38.688V9.075H0Z" transform="translate(0.021 0.024)" fill="none"/>
    </clipPath>
    <clipPath id="clip-path-3">
      <path id="Clip_3" data-name="Clip 3" d="M0,0H13.159V27.936H0Z" transform="translate(0 0.362)" fill="none"/>
    </clipPath>
    <clipPath id="clip-path-4">
      <path id="Clip_5" data-name="Clip 5" d="M0,0H13.159V27.936H0Z" transform="translate(0.029 0.362)" fill="none"/>
    </clipPath>
    <clipPath id="clip-path-5">
      <path id="Clip_2-2" data-name="Clip 2" d="M0,0H9.939V9.939H0Z" transform="translate(0.042 0.055)" fill="none"/>
    </clipPath>
    <clipPath id="clip-path-6">
      <path id="Clip_8" data-name="Clip 8" d="M0,0H10.845V10.723H0Z" transform="translate(0.025 0.085)" fill="none"/>
    </clipPath>
    <clipPath id="clip-path-7">
      <path id="Clip_2-3" data-name="Clip 2" d="M0,0H76.67V76.5H0Z" fill="none"/>
    </clipPath>
    <clipPath id="clip-path-8">
      <path id="Clip_4-2" data-name="Clip 4" d="M0,0H38.229V25.394H0Z" fill="none"/>
    </clipPath>
  </defs>
  <g id="Group_1751" data-name="Group 1751" transform="translate(-567 -370.419)">
    <g id="Group_1701" data-name="Group 1701" transform="translate(709.652 414.024)">
      <path id="Path_39411" data-name="Path 39411" d="M397.56,1984.795l.695,13.2-4.466,8.138s17.766,10.386,18.063,10.4,13.8-15.87,13.8-15.87l-12.01-5.351-2.282-12.407Z" transform="translate(-346.279 -1954.345)" fill="#f2b5b5"/>
      <path id="Path_39412" data-name="Path 39412" d="M333.783,2173.729l63.087,2.155s8.9,76.574,10.278,94.5-3.707,83.772-3.707,83.772l10.215,8.964a1.973,1.973,0,0,1-1.37,3.455l-19.41-.663a2.134,2.134,0,0,1-2-2.643l2.351-9.56s-6.64-56.254-11.123-80.507c-1.832-9.906-14.266-43.884-14.266-43.884s-14.148,43.15-19.084,58.535c-2.981,9.29-31.617,63.541-31.617,63.541l9.877,12.028a1.93,1.93,0,0,1-1.557,3.153l-8.906-.3c-3.027-.1-10.62-2.967-15.193-4.8a3.175,3.175,0,0,1-1.427-4.75l4.978-7.235s21.155-69.785,22-85.844S333.783,2173.729,333.783,2173.729Z" transform="translate(-299.368 -2049.148)" fill="#393d65"/>
      <g id="Group_1700" data-name="Group 1700" transform="translate(41.472)">
        <path id="Path_39413" data-name="Path 39413" d="M383.653,1936.539c3.258-5.614,16.354-5.375,18.316-7.384s1.723-3.013,1.723-3.013,5.462.276,6.452,5.04a16.747,16.747,0,0,1-.432,8.536s5.324,17.51-1.177,23.258-18.062-6-18.062-6a6.058,6.058,0,0,1-5.12-4.269,2.258,2.258,0,0,1,1.421-2.7h0S378.082,1946.138,383.653,1936.539Z" transform="translate(-381.789 -1926.142)" fill="#f2b5b5"/>
        <path id="Path_39414" data-name="Path 39414" d="M410.145,1931.182c-.99-4.764-6.452-5.04-6.452-5.04s.238,1.005-1.723,3.013-15.059,1.77-18.316,7.384c-5.572,9.6,3.121,13.471,3.121,13.471s.825.434,1.988,1.154c.219-.271-.29-1.114-1.1-3.962-.475-1.667,3.278-3.4,6.926-4.094a30.672,30.672,0,0,0,13.938-7.048l1.189,3.657A16.746,16.746,0,0,0,410.145,1931.182Z" transform="translate(-381.789 -1926.142)" fill="#26434e"/>
      </g>
      <path id="Path_39415" data-name="Path 39415" d="M478.6,2084.46c-3.235,16.825-6.158,22.821,5.634,44.512,6.307,11.648,10.179,17.7,12.367,20.718l10.194-4.559c-4.8-14.022-12.119-30.074-13.511-38.123-.605-6.06.991-16.3,1.178-23.62l-5.656-6.354-3.227,9.673Z" transform="translate(-386.989 -2001.109)" fill="#f2b5b5"/>
      <path id="Path_39416" data-name="Path 39416" d="M347.362,2018.757l25.042-10.314,10.615,13.514,4.864-14.391s30.073,3.077,36.525,7.2c2.821,1.8,1.216,16.392.386,32.611-.465,9.093-.8,18.617-1.686,26.762-1.151,10.545-.407,18.886-1.793,20.147-4.366,3.969-66.086.823-66.086.823s-5.954-1.588-3.969-8.536c1.814-6.353-6.752-45.333-9.283-61.467C341.493,2022.012,347.362,2018.757,347.362,2018.757Z" transform="translate(-320.523 -1966.595)" fill="#4db7c7"/>
      <path id="Path_39417" data-name="Path 39417" d="M314.714,2117.457c6.761,11.4,10.863,17.308,13.162,20.283l10.006-4.958c-5.319-13.837-13.252-29.612-14.965-37.59.406-2.885,4.1-12.936,6.13-15.776,6.22-8.969,18.21-18.119,23.438-29.883a7.271,7.271,0,0,0-2.7-8.88c-9.871-6.671-33.309-16.992-41.6,27.9v.045c-.225,1.352-.451,2.659-.676,4.057C304.889,2090.008,302,2096,314.714,2117.457Z" transform="translate(-302.286 -1980.057)" fill="#f2b5b5"/>
      <path id="Path_39418" data-name="Path 39418" d="M311.089,2066.5c6.847-44.718,32.368-39.081,41.924-28.81,2.355,2.533,4.033,7.506,2.627,10.7-5.238,11.772-16.786,20.575-23.692,28.938C328.994,2073.938,321.135,2066.216,311.089,2066.5Z" transform="translate(-305.191 -1977.989)" fill="#4db7c7"/>
      <path id="Path_39419" data-name="Path 39419" d="M356.05,2223.56l3.3,3.07s5.3.311,8.395,3.268a28.2,28.2,0,0,1,3.521,3.662,3.81,3.81,0,0,1-2.958.7,49.488,49.488,0,0,0,5.8,7.141,2.842,2.842,0,0,1,.232,4.205c-1.97,1.777-6.238,2-10.115.063-5.634-2.817-14.125-9.3-14.879-14.085s-.9-5.493-.9-5.493Z" transform="translate(-323.75 -2073.906)" fill="#f2b5b5"/>
      <path id="Path_39420" data-name="Path 39420" d="M492.636,2024.147l2.332-2.28s9.875,10.356,4.241,35.9H483.972Z" transform="translate(-391.083 -1973.7)" fill="#4db7c7"/>
      <path id="Path_39421" data-name="Path 39421" d="M521.118,2207.127l6.274,2.638s7.428,3.972,9.305,7.193l1.877,3.221c-1.731,1.108-3.257.091-4.72-1.569l2.684,5.747s.032,8.168-1.586,8.72c-1.172.4-6.7,2.127-7.56-2.26-.665-3.378-1.581-4.434-2.989-5.843-3.944-2.254-7.2-10.651-7.2-10.651Z" transform="translate(-407.591 -2065.741)" fill="#f2b5b5"/>
    </g>
    <g id="编组" transform="translate(890.739 586.001)" opacity="0.568">
      <g id="编组-2" data-name="编组">
        <path id="Clip_2-4" data-name="Clip 2" d="M0,0H38.65V9.112H0Z" transform="translate(0 0.111)" fill="none"/>
        <g id="编组-3" data-name="编组" clip-path="url(#clip-path)">
          <path id="Fill_1" data-name="Fill 1" d="M4.549,9.112,34.105,9.1a4.55,4.55,0,0,0,0-9.1L4.545.013a4.55,4.55,0,0,0,0,9.1" transform="translate(0 0.111)" fill="#e4e6ef"/>
        </g>
      </g>
      <g id="编组-4" data-name="编组" transform="translate(11.204 17.989)">
        <path id="Clip_4-3" data-name="Clip 4" d="M0,0H38.688V9.075H0Z" transform="translate(0.021 0.024)" fill="none"/>
        <g id="编组-5" data-name="编组" clip-path="url(#clip-path-2)">
          <path id="Fill_3" data-name="Fill 3" d="M4.554,9.075l29.585-.013a4.531,4.531,0,1,0,0-9.062L4.55.013a4.531,4.531,0,1,0,0,9.062" transform="translate(0.021 0.024)" fill="#e4e6ef"/>
        </g>
      </g>
      <path id="Fill_5" data-name="Fill 5" d="M0,.009v0L15.573,0a4.494,4.494,0,1,0,0,8.988L0,8.994H0A4.509,4.509,0,0,0,4.489,4.5,4.509,4.509,0,0,0,0,.009" transform="translate(18.309 9.267)" fill="#e4e6ef"/>
    </g>
    <g id="编组-6" data-name="编组" transform="translate(633 459.526)">
      <path id="Fill_1-2" data-name="Fill 1" d="M11.154,0,0,35.7H6.744L17.9,0Z" transform="translate(17.259 0.319)" fill="#ced0db"/>
      <g id="编组-7" data-name="编组" transform="translate(0 4.144)">
        <g id="编组-8" data-name="编组">
          <path id="Clip_3-2" data-name="Clip 3" d="M0,0H13.159V27.936H0Z" transform="translate(0 0.362)" fill="none"/>
          <g id="编组-9" data-name="编组" clip-path="url(#clip-path-3)">
            <path id="Fill_2" data-name="Fill 2" d="M12.512,0H.648A.653.653,0,0,0,0,.658v26.62a.653.653,0,0,0,.648.658H12.512a.653.653,0,0,0,.648-.658v-4a.653.653,0,0,0-.648-.658H5.235V5.314h7.277a.653.653,0,0,0,.648-.657v-4A.653.653,0,0,0,12.512,0" transform="translate(0 0.362)" fill="#e4e6ef"/>
          </g>
        </g>
        <g id="编组-10" data-name="编组" transform="translate(39.685)">
          <path id="Clip_5-2" data-name="Clip 5" d="M0,0H13.159V27.936H0Z" transform="translate(0.029 0.362)" fill="none"/>
          <g id="编组-11" data-name="编组" clip-path="url(#clip-path-4)">
            <path id="Fill_4" data-name="Fill 4" d="M12.512,0H.648A.653.653,0,0,0,0,.658v4a.653.653,0,0,0,.648.657H7.925V22.622H.648A.653.653,0,0,0,0,23.28v4a.653.653,0,0,0,.648.658H12.512a.653.653,0,0,0,.648-.658V.658A.653.653,0,0,0,12.512,0" transform="translate(0.029 0.362)" fill="#e4e6ef"/>
          </g>
        </g>
      </g>
    </g>
    <g id="编组-12" data-name="编组" transform="translate(567 634.112)">
      <g id="编组-13" data-name="编组" transform="translate(32.793 19.987)">
        <path id="Clip_2-5" data-name="Clip 2" d="M0,0H9.939V9.939H0Z" transform="translate(0.042 0.055)" fill="none"/>
        <g id="编组-14" data-name="编组" clip-path="url(#clip-path-5)">
          <path id="Fill_1-3" data-name="Fill 1" d="M9.913,5.476A4.969,4.969,0,1,1,5.477.026a4.969,4.969,0,0,1,4.436,5.45" transform="translate(0.042 0.055)" fill="#e4e6ef"/>
        </g>
      </g>
      <path id="Fill_3-2" data-name="Fill 3" d="M9.994,5.507A5.01,5.01,0,1,1,5.522.027a5.006,5.006,0,0,1,4.472,5.48" transform="translate(64.675 1.817)" fill="#e4e6ef"/>
      <path id="Fill_5-2" data-name="Fill 5" d="M9.993,5.507A5.009,5.009,0,1,1,5.521.026,5.007,5.007,0,0,1,9.993,5.507" fill="#e4e6ef"/>
      <g id="编组-15" data-name="编组" transform="translate(92.003 12.719)">
        <path id="Clip_8-2" data-name="Clip 8" d="M0,0H10.845V10.723H0Z" transform="translate(0.025 0.085)" fill="none"/>
        <g id="编组-16" data-name="编组" clip-path="url(#clip-path-6)">
          <path id="Fill_7" data-name="Fill 7" d="M10.817,5.909a5.408,5.408,0,0,1-5.948,4.786A5.378,5.378,0,0,1,.029,4.814,5.408,5.408,0,0,1,5.977.028a5.378,5.378,0,0,1,4.841,5.881" transform="translate(0.025 0.085)" fill="#e4e6ef"/>
        </g>
      </g>
      <path id="Fill_9" data-name="Fill 9" d="M32.406,20.9l-.122-.077L0,.415.257,0,32.42,20.329,65,1.9l.107.043,27.81,11.03-.177.454L65.032,2.443Z" transform="translate(5.465 4.543)" fill="#e4e6ef"/>
    </g>
    <g id="编组_8" data-name="编组 8" transform="translate(825.516 370.419)">
      <g id="网页" transform="translate(0 42.543)">
        <g id="网页-2" data-name="网页">
          <rect id="矩形" width="131.387" height="96.105" rx="2.979" transform="translate(0 4.432)" fill="#e2e7f2"/>
          <g id="分组_2" data-name="分组 2" transform="translate(37.921 22.352)">
            <path id="Fill_30" data-name="Fill 30" d="M1.314,68.626A1.314,1.314,0,0,1,0,67.312v-66A1.314,1.314,0,0,1,1.314,0H81.263a1.314,1.314,0,0,1,1.314,1.314V67.57a1.07,1.07,0,0,1-1.083,1.056Z" transform="translate(0 0)" fill="#fff"/>
            <path id="Fill_32" data-name="Fill 32" d="M1.083,44.994A1.07,1.07,0,0,1,0,43.938V1.056A1.069,1.069,0,0,1,1.083,0H67.748a1.07,1.07,0,0,1,1.083,1.056V43.938a1.07,1.07,0,0,1-1.083,1.056Z" transform="translate(7.062 6.974)" fill="#ced7ec"/>
            <path id="Fill_34" data-name="Fill 34" d="M5.388,1.291H.662A.654.654,0,0,1,0,.645.654.654,0,0,1,.662,0H5.388a.654.654,0,0,1,.662.645.654.654,0,0,1-.662.646" transform="translate(11.088 11.886)" fill="#b2bed9"/>
            <path id="Fill_36" data-name="Fill 36" d="M5.388,1.291H.662A.654.654,0,0,1,0,.645.654.654,0,0,1,.662,0H5.388a.654.654,0,0,1,.662.645.654.654,0,0,1-.662.646" transform="translate(11.165 14.984)" fill="#b2bed9"/>
            <path id="Fill_38" data-name="Fill 38" d="M0,23.662c7.163,0,5.261-8.85,16.11-8.85s10.284,7.912,18.746,7.912C43.449,22.724,42.881,0,51.114,0c8.69,0,6.729,20.591,17.553,20.591V34.545A1.07,1.07,0,0,1,67.583,35.6l-66.5-.056A1.07,1.07,0,0,1,0,34.489Z" transform="translate(7.063 16.423)" fill="#393d65"/>
            <path id="Stroke_40" data-name="Stroke 40" d="M0,24.2C10.825,24.2,9.29,0,16.266,0c6.645,0,4.649,24.2,18.41,24.2,8.461,0,11.123-9.865,17.1-9.865S61.748,24.2,68.911,24.2" transform="translate(6.818 19.303)" fill="none" stroke="#fff" stroke-miterlimit="10" stroke-width="0.5"/>
            <path id="Stroke_42" data-name="Stroke 42" d="M0,.051H66.771" transform="translate(7.787 58.177)" fill="none" stroke="#e4e6ef" stroke-linecap="round" stroke-linejoin="round" stroke-miterlimit="10" stroke-width="0.764"/>
            <path id="Stroke_44" data-name="Stroke 44" d="M0,.051H56.1" transform="translate(7.787 62.636)" fill="none" stroke="#e4e6ef" stroke-linecap="round" stroke-linejoin="round" stroke-miterlimit="10" stroke-width="0.764"/>
          </g>
          <path id="路径" d="M3.519,0H127.8a3.476,3.476,0,0,1,3.519,3.431V13.657H0V3.431A3.476,3.476,0,0,1,3.519,0Z" transform="translate(0)" fill="#393d65"/>
          <ellipse id="椭圆形" cx="2.512" cy="2.449" rx="2.512" ry="2.449" transform="translate(5.011 4.379)" fill="#fff"/>
          <ellipse id="椭圆形-2" data-name="椭圆形" cx="2.512" cy="2.449" rx="2.512" ry="2.449" transform="translate(14.392 4.379)" fill="#fff"/>
          <ellipse id="椭圆形-3" data-name="椭圆形" cx="2.512" cy="2.449" rx="2.512" ry="2.449" transform="translate(23.776 4.379)" fill="#fff"/>
          <path id="路径-2" data-name="路径" d="M1.616,2.368,0,1.182,1.616,0,3.232,1.182,1.616,2.368Z" transform="translate(42.007 52.819)" fill="#fff"/>
          <rect id="矩形-2" data-name="矩形" width="18.799" height="4.628" rx="0.804" transform="translate(9.349 49.048)" fill="#b2bed9"/>
          <rect id="矩形-3" data-name="矩形" width="18.799" height="4.488" rx="0.792" transform="translate(9.349 57.958)" fill="#b2bed9"/>
          <rect id="矩形-4" data-name="矩形" width="18.799" height="4.488" rx="0.792" transform="translate(9.349 66.686)" fill="#b2bed9"/>
          <ellipse id="椭圆形-4" data-name="椭圆形" cx="9.385" cy="9.15" rx="9.385" ry="9.15" transform="translate(9.364 23.19)" fill="#fff"/>
          <path id="路径-3" data-name="路径" d="M7.015,7.309a9.25,9.25,0,0,0,7.012-3.183A7.956,7.956,0,0,0,7.014,0,7.956,7.956,0,0,0,0,4.127,9.253,9.253,0,0,0,7.015,7.309Z" transform="translate(11.733 34.181)" fill="#393d65"/>
          <ellipse id="椭圆形-5" data-name="椭圆形" cx="3.53" cy="3.441" rx="3.53" ry="3.441" transform="translate(15.269 27.662)" fill="#393d65"/>
        </g>
      </g>
      <g id="编组-17" data-name="编组" transform="translate(92.942)">
        <g id="分组" transform="translate(0)">
          <g id="分组-2" data-name="分组">
            <path id="Clip_2-6" data-name="Clip 2" d="M0,0H76.67V76.5H0Z" fill="none"/>
            <g id="分组-3" data-name="分组" clip-path="url(#clip-path-7)">
              <path id="Fill_1-4" data-name="Fill 1" d="M0,38.251A38.335,38.335,0,1,0,38.335,0,38.293,38.293,0,0,0,0,38.251Z" transform="translate(0 0)" fill="#764abc"/>
            </g>
          </g>
        </g>
        <g id="分组复制" transform="translate(19.274 14.885)">
          <g id="分组-4" data-name="分组" transform="translate(6.822 0)">
            <path id="Fill_1-5" data-name="Fill 1" d="M4.069,12.216a8.164,8.164,0,0,1,16.328,0V16.3h4.082V12.218A12.229,12.229,0,0,0,12.24,0h0A12.229,12.229,0,0,0,0,12.218V16.3H4.069Z" transform="translate(0)" fill="#fff"/>
          </g>
          <g id="分组-5" data-name="分组" transform="translate(0 15.609)">
            <path id="Clip_4-4" data-name="Clip 4" d="M0,0H38.229V25.394H0Z" transform="translate(0 0)" fill="none"/>
            <g id="分组-6" data-name="分组" transform="translate(0 0)" clip-path="url(#clip-path-8)">
              <path id="Fill_3-3" data-name="Fill 3" d="M36.7,25.394H1.529A1.531,1.531,0,0,1,0,23.871V1.524A1.531,1.531,0,0,1,1.529,0H36.7a1.531,1.531,0,0,1,1.529,1.524V23.871A1.531,1.531,0,0,1,36.7,25.394" fill="#fff"/>
            </g>
          </g>
          <path id="形状结合" d="M0,8.607A2.866,2.866,0,0,1,1.4,6.144V1.433A1.455,1.455,0,0,1,2.875,0,1.455,1.455,0,0,1,4.351,1.433V6.144A2.871,2.871,0,1,1,0,8.607Z" transform="translate(16.292 22.622)" fill="#764abc"/>
        </g>
      </g>
    </g>
  </g>
</svg>
