<svg xmlns="http://www.w3.org/2000/svg" width="22.38" height="22.381" viewBox="0 0 22.38 22.381">
  <g id="Group_818" data-name="Group 818" transform="translate(-1202.194 -986.898)">
    <g id="icon_44_000_删除" data-name="icon/44+#000/删除" transform="translate(1200.472 985.75)">
      <path id="Fill_1" data-name="Fill 1" d="M18.938,5.165H4.017V20.659H18.938v1.721H4.017c-.947,0-1.722-.572-1.722-1.148V5.165H.861a.861.861,0,1,1,0-1.721H6.312V1.721C6.312.775,6.893,0,7.528,0h7.9c.634,0,1.215.775,1.215,1.721V3.443H21.52a.861.861,0,0,1,0,1.721h-.861V21.233c0,.576-.775,1.148-1.721,1.148ZM14.921,3.443V1.721H8.034V3.443Zm0,13.486V8.321a.861.861,0,1,1,1.721,0v8.608a.861.861,0,0,1-1.721,0Zm-4.591,0V8.321a.861.861,0,1,1,1.721,0v8.608a.861.861,0,0,1-1.721,0Zm-4.017,0V8.321a.861.861,0,1,1,1.722,0v8.608a.861.861,0,0,1-1.722,0Z" transform="translate(1.722 1.148)" fill="#27abdd"/>
    </g>
  </g>
</svg>
