<svg id="dashboard" xmlns="http://www.w3.org/2000/svg" width="16.737" height="15.542" viewBox="0 0 16.737 15.542">
  <path id="Shape" d="M8.369,0A8.468,8.468,0,0,0,0,8.566a8.618,8.618,0,0,0,3.347,6.852l0,0a.584.584,0,0,0,.361.127.6.6,0,0,0,.588-.6.605.605,0,0,0-.289-.519A7.3,7.3,0,0,1,2.416,12.7l.722-.427a.542.542,0,0,0,.191-.731.517.517,0,0,0-.714-.2l-.722.427A7.4,7.4,0,0,1,1.2,9.1h.83a.535.535,0,0,0,0-1.071H1.2a7.485,7.485,0,0,1,.7-2.677l.719.425a.517.517,0,0,0,.714-.2.542.542,0,0,0-.191-.731l-.718-.423A7.326,7.326,0,0,1,4.327,2.478l.414.734a.517.517,0,0,0,.714.2.542.542,0,0,0,.191-.731L5.23,1.941a7,7,0,0,1,2.615-.716v.85a.523.523,0,1,0,1.046,0v-.85a7.038,7.038,0,0,1,2.607.713l-.417.739a.542.542,0,0,0,.191.731.517.517,0,0,0,.714-.2l.417-.739a7.3,7.3,0,0,1,1.912,1.956l-.718.423a.542.542,0,0,0-.191.731.517.517,0,0,0,.714.2l.719-.425a7.442,7.442,0,0,1,.7,2.677h-.83a.535.535,0,0,0,0,1.071h.83a7.462,7.462,0,0,1-.7,2.668l-.722-.427a.517.517,0,0,0-.714.2.542.542,0,0,0,.191.731l.722.427a7.305,7.305,0,0,1-1.638,1.758l0,.005a.6.6,0,0,0-.232.48.6.6,0,0,0,.588.6.581.581,0,0,0,.42-.181,8.619,8.619,0,0,0,3.274-6.8A8.468,8.468,0,0,0,8.369,0Z" fill="#fff"/>
  <path id="Shape-2" data-name="Shape" d="M3.753.114,1.7,1.756h0a1.143,1.143,0,0,0-.521-.124A1.19,1.19,0,0,0,0,2.837a1.19,1.19,0,0,0,1.177,1.2,1.19,1.19,0,0,0,1.177-1.2,1.154,1.154,0,0,0-.021-.228L4.4.957a.544.544,0,0,0,.09-.751A.515.515,0,0,0,3.753.114Z" transform="translate(7.192 5.722)" fill="#fff"/>
</svg>
