<svg xmlns="http://www.w3.org/2000/svg" xmlns:xlink="http://www.w3.org/1999/xlink" width="18" height="20" viewBox="0 0 18 20">
  <defs>
    <clipPath id="clip-button_delet_1">
      <rect width="18" height="20"/>
    </clipPath>
  </defs>
  <g id="button_delet_1" data-name="button_delet – 1" clip-path="url(#clip-button_delet_1)">
    <g id="icon_44_000_删除" data-name="icon/44+#000/删除" transform="translate(0 1)">
      <path id="Fill_1" data-name="Fill 1" d="M15.231,4.154h-12V16.616h12V18h-12c-.761,0-1.385-.46-1.385-.922V4.154H.692a.692.692,0,0,1,0-1.384H5.077V1.384C5.077.623,5.544,0,6.054,0h6.353c.51,0,.977.623.977,1.384V2.769h3.923a.692.692,0,1,1,0,1.384h-.692V17.078c0,.463-.624.922-1.385.922ZM12,2.769V1.384H6.462V2.769Z" fill="#8c8c8c"/>
    </g>
  </g>
</svg>
