<svg xmlns="http://www.w3.org/2000/svg" width="31.459" height="24.869" viewBox="0 0 31.459 24.869">
  <g id="Group_4056" data-name="Group 4056" transform="translate(9102.5 -1997.213)">
    <g id="Group_3918" data-name="Group 3918" transform="translate(-9757.661 1438.304)">
      <path id="Path_40372" data-name="Path 40372" d="M658.349,583.278a2.687,2.687,0,0,1-2.688-2.688h1.253a1.433,1.433,0,0,0,2.866,0h1.253A2.688,2.688,0,0,1,658.349,583.278Z" fill="#999" stroke="#999" stroke-width="1"/>
    </g>
    <g id="Group_3919" data-name="Group 3919" transform="translate(-9757.661 1438.304)">
      <path id="Path_40374" data-name="Path 40374" d="M683.683,583.279H658.349v-1.253a1.435,1.435,0,0,0,1.433-1.433V559.159h8.232a2.694,2.694,0,0,1,2.484,1.664H686.37v19.77A2.689,2.689,0,0,1,683.683,583.279Zm-23.063-1.253h23.063a1.435,1.435,0,0,0,1.433-1.433V562.076h-15.6l-.1-.506a1.433,1.433,0,0,0-1.408-1.157h-6.976v20.18a2.66,2.66,0,0,1-.415,1.432Z" fill="#999" stroke="#999" stroke-width="0.5"/>
    </g>
    <g id="Group_3920" data-name="Group 3920" transform="translate(-9757.661 1438.304)">
      <rect id="Rectangle_2545" data-name="Rectangle 2545" width="19.845" height="1.253" transform="translate(660.885 579.31)" fill="#999" stroke="#999" stroke-width="0.5"/>
    </g>
    <g id="Group_3921" data-name="Group 3921" transform="translate(-9757.661 1438.304)">
      <path id="Path_40375" data-name="Path 40375" d="M677.869,569.717l-1.283-2.222-2.3,1.33v-2.66h-2.566v2.66l-2.3-1.33-1.284,2.222,2.3,1.33-2.3,1.33,1.284,2.223,2.3-1.33v2.66h2.566v-2.66l2.3,1.33,1.283-2.223-2.3-1.33Z" fill="none"/>
      <path id="Path_40376" data-name="Path 40376" d="M674.71,576.357h-3.421v-2.346l-2.033,1.173-1.711-2.963,2.033-1.173-2.033-1.174,1.711-2.962,2.033,1.173v-2.347h3.421v2.347l2.033-1.173,1.711,2.962-2.036,1.173,2.033,1.173-1.711,2.964-2.033-1.173Zm-2.566-.855h1.714V572.53l2.575,1.486.856-1.483-2.574-1.486,2.574-1.486-.856-1.483-2.575,1.486v-2.972h-1.711v2.972l-2.577-1.486-.855,1.483,2.574,1.486-2.574,1.486.855,1.483,2.574-1.486Z" fill="#999" stroke="#999" stroke-width="0.5"/>
    </g>
  </g>
</svg>
