<svg xmlns="http://www.w3.org/2000/svg" width="30" height="26.563" viewBox="0 0 30 26.563">
  <g id="Group_4062" data-name="Group 4062" transform="translate(8498.86 -2121.997)">
    <rect id="Rectangle_2684" data-name="Rectangle 2684" width="5.688" height="6.636" rx="2.844" transform="translate(-8492.722 2132.346)" fill="#bf6406"/>
    <path id="Path_40554" data-name="Path 40554" d="M726.444,1621.536H703.11a3.333,3.333,0,0,0-3.333,3.333v19.9a3.333,3.333,0,0,0,3.333,3.333h23.333a3.333,3.333,0,0,0,3.333-3.333v-19.9A3.333,3.333,0,0,0,726.444,1621.536Zm-16.667,2.917h3.333a1.25,1.25,0,0,1,0,2.5h-3.333a1.25,1.25,0,1,1,0-2.5Zm-5-.417a1.667,1.667,0,1,1-1.667,1.667A1.667,1.667,0,0,1,704.777,1624.036Zm23.542,20.833a.833.833,0,0,1-.833.833H702.069a.833.833,0,0,1-.833-.833v-15.1a.833.833,0,0,1,.833-.833h25.417a.833.833,0,0,1,.833.833Zm-5.625-13.229H714.36a1.042,1.042,0,1,0,0,2.083h8.333a1.042,1.042,0,0,0,0-2.083Zm0,4.167H714.36a1.042,1.042,0,1,0,0,2.083h8.333a1.042,1.042,0,1,0,0-2.083Zm0,4.167H706.86a1.042,1.042,0,0,0,0,2.083h15.833a1.042,1.042,0,0,0,0-2.083Z" transform="translate(-9198.638 500.461)" fill="#bf6406"/>
  </g>
</svg>
