<svg id="圖層_1" data-name="圖層 1" xmlns="http://www.w3.org/2000/svg" viewBox="0 0 21.83 22.14"><defs><style>.cls-1{fill:#fff;}</style></defs><path id="Path_40992" data-name="Path 40992" class="cls-1" d="M11.64,1.23a.57.57,0,0,0-.79,0L3.24,8.47c-.21.21-.14.38.16.38H6.55a.55.55,0,0,1,.55.55v5.49a.54.54,0,0,0,.54.54h7.21a.54.54,0,0,0,.54-.54V9.4a.55.55,0,0,1,.55-.55H19.1c.3,0,.36-.17.15-.38Z"/><path id="Path_40993" data-name="Path 40993" class="cls-1" d="M19,13.43v5.08H2.54V13.43h-2v7.21H21V13.43Z"/></svg>