<svg xmlns="http://www.w3.org/2000/svg" viewBox="0 0 38.62 35.01"><defs><style>.cls-1{fill:#fff;}</style></defs><g id="圖層_9" data-name="圖層 9"><path id="Path_41478" data-name="Path 41478" class="cls-1" d="M36.7,10.57,26,1.65a.9.9,0,0,0-1.26.11.93.93,0,0,0-.21.57V7c-8.95,2-14.27,7.58-14.27,15a.89.89,0,0,0,.75.88h.14a.91.91,0,0,0,.85-.61c1.51-4.55,7.5-6.33,12.54-6.51v4.44a.9.9,0,0,0,1.46.69L36.7,11.94a.88.88,0,0,0,.11-1.25.63.63,0,0,0-.11-.12Z"/><path id="Path_41479" data-name="Path 41479" class="cls-1" d="M33.45,22.86a1.78,1.78,0,0,0-1.79,1.78h0V30H4.89V6.8H12a1.79,1.79,0,1,0,0-3.57H3.11A1.78,1.78,0,0,0,1.32,5h0V31.78a1.79,1.79,0,0,0,1.79,1.79H33.45a1.79,1.79,0,0,0,1.78-1.79h0V24.64a1.77,1.77,0,0,0-1.78-1.78Z"/></g></svg>