<svg xmlns="http://www.w3.org/2000/svg" xmlns:xlink="http://www.w3.org/1999/xlink" viewBox="0 0 469.28 362.59"><defs><style>.cls-1{fill:none;}.cls-2{fill:#8c3f59;}.cls-3{fill:#77364c;}.cls-4{fill:#eea099;}.cls-5{fill:#cc7871;}.cls-6{fill:#23282e;}.cls-7{fill:#393d48;}.cls-8{fill:#c8bedc;}.cls-9{fill:#bbacd3;}.cls-10{fill:#7bc8d9;}.cls-11{fill:#4d1c2f;}.cls-12{fill:#d1ebee;}.cls-13{fill:#fff;}.cls-14{opacity:0.21;}.cls-15{fill:#9095c9;}.cls-16{fill:#e26986;}.cls-17{fill:#fbf3f7;}.cls-18{fill:#5a295f;}.cls-19{fill:#f4f4fa;}.cls-20{fill:#f5b116;}.cls-21{opacity:0.28;}.cls-22{clip-path:url(#clip-path);}.cls-23{fill:#d5637e;}.cls-24{fill:#d4627e;}.cls-25{fill:#d3627d;}.cls-26{fill:#d2617d;}.cls-27{fill:#d1617c;}.cls-28{fill:#d1607b;}.cls-29{opacity:0.5;}.cls-30{fill:#9094c8;}.cls-31{clip-path:url(#clip-path-2);}.cls-32{fill:#d6637f;}.cls-33{fill:#d0607b;}.cls-34{fill:#0e1a3a;}.cls-35{fill:#6e5ba1;}.cls-36{fill:#f3cb63;}.cls-37{fill:#f5ab16;}.cls-38{clip-path:url(#clip-path-3);}.cls-39{fill:#223165;}.cls-40{clip-path:url(#clip-path-4);}.cls-41{fill:#ee7648;}.cls-42{clip-path:url(#clip-path-5);}.cls-43{fill:#f5bf42;}.cls-44{clip-path:url(#clip-path-6);}.cls-45{fill:#b2d247;}.cls-46{clip-path:url(#clip-path-7);}.cls-47{fill:#e3eaf6;}.cls-48{clip-path:url(#clip-path-8);}.cls-49{fill:#040000;}.cls-50{clip-path:url(#clip-path-9);}.cls-51{clip-path:url(#clip-path-10);}.cls-52{clip-path:url(#clip-path-11);}.cls-53,.cls-54{fill:#d33e54;}.cls-53{stroke:#d33e54;stroke-width:2px;}</style><clipPath id="clip-path"><path class="cls-1" d="M223.11,337.12a15.3,15.3,0,0,1,0-30.6h39.61a37.23,37.23,0,0,0,0,30.6Z"/></clipPath><clipPath id="clip-path-2"><path class="cls-1" d="M130.74,326.82a15.3,15.3,0,0,1-28.06-12.23h0l15.81-36.27a37.26,37.26,0,0,0,28.05,12.25Z"/></clipPath><clipPath id="clip-path-3"><path class="cls-1" d="M348,77.14a3.27,3.27,0,0,0-3.31,3.23h0v8.21h121.7V80.37a3.26,3.26,0,0,0-3.3-3.23Z"/></clipPath><clipPath id="clip-path-4"><path class="cls-1" d="M349.08,82.51a2,2,0,0,0,2.06,2h0a2,2,0,0,0,2.06-2h0a2,2,0,0,0-2.06-2h0a2,2,0,0,0-2.06,2Z"/></clipPath><clipPath id="clip-path-5"><path class="cls-1" d="M356.78,82.51a2.05,2.05,0,0,0,2.07,2h0a2,2,0,0,0,2.06-2h0a2,2,0,0,0-2.06-2h0a2,2,0,0,0-2.07,2Z"/></clipPath><clipPath id="clip-path-6"><path class="cls-1" d="M364.49,82.51a2.05,2.05,0,0,0,2.06,2h0a2.05,2.05,0,0,0,2.06-2h0a2,2,0,0,0-2.06-2h0a2,2,0,0,0-2.07,2Z"/></clipPath><clipPath id="clip-path-7"><path class="cls-1" d="M344.55,88.1v95.32a3.86,3.86,0,0,0,3.69,4H462.72a3.86,3.86,0,0,0,3.69-4h0V88.1Z"/></clipPath><clipPath id="clip-path-8"><path class="cls-1" d="M354.26,94.14A1.69,1.69,0,0,0,352.78,96h0v82.64a1.69,1.69,0,0,0,1.48,1.84H457.8a1.69,1.69,0,0,0,1.48-1.84h0V96a1.69,1.69,0,0,0-1.48-1.84Z"/></clipPath><clipPath id="clip-path-9"><path class="cls-1" d="M362.36,101a1.38,1.38,0,0,0-1.38,1.38h0v6.9a1.38,1.38,0,0,0,1.38,1.38H428.6a1.38,1.38,0,0,0,1.38-1.38h0v-6.9A1.38,1.38,0,0,0,428.6,101H362.36Z"/></clipPath><clipPath id="clip-path-10"><path class="cls-1" d="M362.36,134.77a1.38,1.38,0,0,0-1.38,1.38h0v6.9a1.38,1.38,0,0,0,1.38,1.38H387.2a1.37,1.37,0,0,0,1.38-1.37h0v-6.9a1.38,1.38,0,0,0-1.38-1.38H362.36Z"/></clipPath><clipPath id="clip-path-11"><path class="cls-1" d="M362.36,119.59A1.38,1.38,0,0,0,361,121h0v6.9a1.38,1.38,0,0,0,1.38,1.38H387.2a1.37,1.37,0,0,0,1.38-1.37h0V121a1.38,1.38,0,0,0-1.38-1.38H362.36Z"/></clipPath></defs><g id="圖層_9" data-name="圖層 9"><g id="Group_5264" data-name="Group 5264"><g id="Group_5015" data-name="Group 5015"><g id="Group_4895" data-name="Group 4895"><g id="Group_4892" data-name="Group 4892"><g id="Group_4891" data-name="Group 4891"><path id="Path_41151" data-name="Path 41151" class="cls-2" d="M50.06,80.53c6.75-8,19.6-24.18,19.8-24.43C64.29,69.35,51.74,83.5,51.74,83.5A27.46,27.46,0,0,0,53.56,86h0A48.34,48.34,0,0,0,65.84,96.28l24.82,6,10.65,2.56s17.13-2.33,25.6-9.41c2.74-2.3,4.57-5.09,4.61-8.46a11.15,11.15,0,0,0-.82-4.24C124,65.51,127,47.45,125,28.3,123.12,10,112.47,8.71,111.54,8.63h-.06a3.89,3.89,0,0,0-.28-.39A11.36,11.36,0,0,0,105.79,5a17.09,17.09,0,0,0-9.94,0c-4.94,1.48-9.23,6.54-14,15.41C79.33,25.12,76.65,31,73.68,37.92,65.15,57.87,48.43,78.27,48.43,78.27Z"/></g></g><g id="Group_4894" data-name="Group 4894"><g id="Group_4893" data-name="Group 4893"><path id="Path_41152" data-name="Path 41152" class="cls-3" d="M81.87,20.37c3.55-3.94,7-7.2,9.95-9,12.44-7.37,19.2,1.45,19.2,1.45a14.4,14.4,0,0,0,.19-4.63A11.49,11.49,0,0,0,105.8,5a17.09,17.09,0,0,0-9.94,0C90.92,6.44,86.62,11.5,81.87,20.37Z"/></g></g></g><g id="Group_4908" data-name="Group 4908"><g id="Group_4897" data-name="Group 4897"><g id="Group_4896" data-name="Group 4896"><path id="Path_41153" data-name="Path 41153" class="cls-4" d="M110.05,346.13c.93,2.55-13.45,1.62-16-1.63-1.85-2.35-7.6-5.68-12.21-9.19l-.53-.4h0a28.23,28.23,0,0,1-4-3.62c-3.75-4.37-.4-6.87,1-11.7a17,17,0,0,0,.39-1.75,12.45,12.45,0,0,0-.3-3.75h0c-1.94-10.27-11.17-34.75-11.83-52.15-.76-20.18,5.17-24.59,5.63-28.76a13,13,0,0,0-.2-4,36,36,0,0,1-.34-3.59l0-.61c0-.56-.06-1.15-.08-1.79-.1-3.1-.13-7.06,0-11.46a180.82,180.82,0,0,1,1.74-20.79c.18-1.22.37-2.4.55-3.55,2.7-16.67,5.83-26.63,8.7-32.55,4.9-10.1,9.06-8.47,9.06-8.47.73.53,11.33,1.08,17.66,1.83,2.65.32,4.55.66,4.66,1.06.5,1.75,1.36,9.57,1.36,9.57.15,1.74.29,3.63.41,5.65,0,0-4.2,13.52-8.68,28-.62,2-1.25,4.05-1.88,6.07-2.53,8.17-5,16.1-6.65,21.53-1.31,4.27-2.13,7-2.14,7.12s0,.48,0,.71,0,.23,0,.34v.33c0,.17,0,.35,0,.52a.49.49,0,0,1,0,.12v.07c0,.19,0,.38,0,.55s0,.6-.06.88a2.6,2.6,0,0,1,0,.4c0,.13,0,.22,0,.32s0,.13,0,.19,0,.4-.06.63,0,.3,0,.46-.06.53-.09.83c0,.06,0,.11,0,.17a1,1,0,0,0,0,.17c0,.16,0,.32,0,.48s0,.33-.06.51c-1.68,16.05-7.72,70.63-7.08,80,.35,5.18,5.6,12.5,10.8,18.8,4.38,5.29,8.73,9.86,10.12,11.8A3.25,3.25,0,0,1,110.05,346.13Z"/></g></g><g id="Group_4899" data-name="Group 4899"><g id="Group_4898" data-name="Group 4898"><path id="Path_41154" data-name="Path 41154" class="cls-5" d="M96.38,227.12c0,.24,0,.48,0,.71s0,.22,0,.34v.32c0,.18,0,.36,0,.52a.53.53,0,0,1,0,.13v.07c0,.19,0,.38,0,.55,0,.32,0,.6,0,.88l0,.4c0,.12,0,.22,0,.32s0,.13,0,.19,0,.4-.06.63,0,.3,0,.46,0,.53-.08.83a1,1,0,0,1,0,.17c0,.06,0,.11,0,.17s0,.31,0,.48,0,.33,0,.51a14.21,14.21,0,0,1-3,.3c-4.39,0-8-1.88-8-4.21,0-1.18.92-2.25,2.39-3a8.88,8.88,0,0,1,1.19-.51h0a13.23,13.23,0,0,1,4.37-.69A13.7,13.7,0,0,1,96.38,227.12Z"/></g></g><g id="Group_4901" data-name="Group 4901"><g id="Group_4900" data-name="Group 4900"><path id="Path_41155" data-name="Path 41155" class="cls-6" d="M81.86,335.14l-2,12.61H78.73l1.14-13.44Z"/></g></g><g id="Group_4903" data-name="Group 4903"><g id="Group_4902" data-name="Group 4902"><path id="Path_41156" data-name="Path 41156" class="cls-7" d="M74.82,330.17l1.76,17.58h2.16l1.5-13.14Z"/></g></g><g id="Group_4905" data-name="Group 4905"><g id="Group_4904" data-name="Group 4904"><path id="Path_41157" data-name="Path 41157" class="cls-6" d="M111.86,346a1.81,1.81,0,0,1-1.79,1.66l-15.17.05c-.39,0-3.56-3.86-6.73-7.26s-12.83-6.58-14.53-10.75c-1.29-3.15,1.48-10.84,2.91-14.42.47-1.17.8-1.9.8-1.9a30.64,30.64,0,0,1,6.57,5.1c2.7,2.94,4.1,10.75,6,13.07s9,2,11,2c1.42,0,7.25,7,10.54,11.16A1.8,1.8,0,0,1,111.86,346Z"/></g></g><g id="Group_4907" data-name="Group 4907"><g id="Group_4906" data-name="Group 4906"><path id="Path_41158" data-name="Path 41158" class="cls-7" d="M111.86,346a57.57,57.57,0,0,1-19.28-9,47,47,0,0,1-16-21.72c.47-1.17.8-1.9.8-1.9a30.64,30.64,0,0,1,6.57,5.1c2.7,2.93,4.1,10.74,6,13.06s9,2,11,2c1.42,0,7.25,7,10.54,11.16A1.83,1.83,0,0,1,111.86,346Z"/></g></g></g><g id="Group_4910" data-name="Group 4910"><g id="Group_4909" data-name="Group 4909"><path id="Path_41159" data-name="Path 41159" class="cls-5" d="M99.58,35.69c-.6,1.54-3.77,1.73-7.07.44S87.2,32.65,87.62,31c.57-2.17,3.77-1.73,7.07-.44S100.18,34.16,99.58,35.69Z"/></g></g><g id="Group_4912" data-name="Group 4912"><g id="Group_4911" data-name="Group 4911"><path id="Path_41160" data-name="Path 41160" class="cls-4" d="M117.06,59.82a10,10,0,0,1-2.3,5.23c-2.16,2.71-6.34,9.67-16.24,6.65A14,14,0,0,1,88.36,59.2c1.94-.49,4.37-.6,5.27-1.72,1.12-1.41.71-12.54.43-18-.1-1.85-.17-3.07-.17-3.07L110.2,43s-.2,4.55-.31,8.23c-.07,2.19-.1,4.07,0,4.53C110.32,58.88,117.06,59.82,117.06,59.82Z"/></g></g><g id="Group_4914" data-name="Group 4914"><g id="Group_4913" data-name="Group 4913"><path id="Path_41161" data-name="Path 41161" class="cls-5" d="M110.2,43s-.21,4.55-.32,8.24a8.56,8.56,0,0,1-3.47.57c-8.69-.7-12.53-15.47-12.53-15.47Z"/></g></g><g id="Group_4916" data-name="Group 4916"><g id="Group_4915" data-name="Group 4915"><path id="Path_41162" data-name="Path 41162" class="cls-4" d="M119.7,30.65c0,.63,0,1.25,0,1.86a27,27,0,0,1-.93,5.65c-2,6.88-6.58,11.29-12.31,11.29-7.63,0-13.3-8.92-13.3-19.94a27.07,27.07,0,0,1,1.5-9,6.18,6.18,0,0,1,5.07-1.93c5.8.47,8.66,3.95,14.46,2.55,2.24-.54,3.78-1,4.82-1.27C119.5,21.85,119.7,27.13,119.7,30.65Z"/></g></g><g id="Group_4918" data-name="Group 4918"><g id="Group_4917" data-name="Group 4917"><path id="Path_41163" data-name="Path 41163" class="cls-8" d="M152.08,94.84c0,.29-.06.58-.08.88-.55,6.94-10.54,10.86-14.72,7.38-1.87-1.56-3.86-3.25-5.84-5-1.59-1.39-3.18-2.81-4.71-4.22h0c-6-5.5-10.93-10.85-11.26-13.67-.58-5,4.91-15.8,7.46-20.49.67-1.24,2.13-2,3.26-1.12a35.58,35.58,0,0,1,5.34,5.07c3.88,4.63,12.9,18,13.58,18.83s1.33,1.69,1.94,2.51C150.17,89.19,152.27,92.82,152.08,94.84Z"/></g></g><g id="Group_4920" data-name="Group 4920"><g id="Group_4919" data-name="Group 4919"><path id="Path_41164" data-name="Path 41164" class="cls-4" d="M135.07,344.66c-2.56-3.25-12.53-8.35-16.7-13.22s.46-7.42,1.39-13.45-11.37-35.72-12.13-55.9,5.17-24.59,5.63-28.77a13.31,13.31,0,0,0-.2-4c-.68-3.81-2.69-10.12-6.76-25.89-.33-1.32-.65-2.66-.94-4,0-.22-.09-.45-.14-.67-.42-2.06-.8-4.16-1.12-6.29-3.13-20.49-2-42.81-2-42.81s1.65-.63,4.22-1.44c.87-.27,1.85-.57,2.9-.87,7.21-2.05,18-4.26,23-1.06l.37.25a5.83,5.83,0,0,1,1.33,1.34,5.6,5.6,0,0,1,.84,1.78,54.4,54.4,0,0,1,1.27,8.52l.09,1h0q.23,2.63.41,5.66c0,.06,0,.11,0,.17s0,.23,0,.34,0,.12,0,.17c1.1,18.48,1.21,46.61.82,59.94,0,.65,0,1.27-.06,1.84-.07,1.95-.15,3.46-.25,4.43-.08.75-.19,1.86-.34,3.25-1.68,16.05-7.72,70.63-7.08,80,.7,10.21,20.41,28.76,21.34,31.31S137.62,347.91,135.07,344.66Z"/></g></g><g id="Group_4922" data-name="Group 4922"><g id="Group_4921" data-name="Group 4921"><path id="Path_41165" data-name="Path 41165" class="cls-5" d="M137.4,227.28c-.07,1.94-.15,3.45-.25,4.42-.07.76-.18,1.86-.33,3.25a14.22,14.22,0,0,1-3,.31c-4.39,0-8-1.89-8-4.22s3.56-4.21,8-4.21A13.37,13.37,0,0,1,137.4,227.28Z"/></g></g><g id="Group_4924" data-name="Group 4924"><g id="Group_4923" data-name="Group 4923"><path id="Path_41166" data-name="Path 41166" class="cls-5" d="M137.41,224.58a196.92,196.92,0,0,1-24.4,3.86c-.68-3.8-2.69-10.12-6.76-25.89-.28-1.1-.55-2.23-.8-3.37,0-.22-.1-.45-.14-.67l-.09.18c0-.07,0-.15,0-.22-.4-2-.76-4-1.08-6.07A168.54,168.54,0,0,0,98.52,220c-1.31,4.27-2.13,7-2.13,7.12l0,.71c0,.11,0,.23,0,.34v.33c0,.17,0,.35,0,.52a.49.49,0,0,1,0,.12c-1.85-.25-5.27-.72-9-1.26-5.88-.85-12.62-1.84-15.56-2.34,0-.2,0-.4,0-.61,0-.55,0-1.15-.07-1.78-.11-3.1-.13-7.07,0-11.47a71.73,71.73,0,0,0,.84-8.27c.22-4.56.73-10.12,1.45-16.07a287.18,287.18,0,0,1,5.75-32.55c1.91-7.71,4-13.82,6.2-16.41,3.63-4.36,14.68,2.39,23.42,8.9,7.21-2.05,18-4.26,23-1.05l.36.24c.61,1.65,1.22,3.45,1.8,5.4s1.14,4,1.64,6.24a1.62,1.62,0,0,1,0,.19h0c.17,2,.33,4.17.47,6.51V165l0,.34v.17C137.7,184,137.79,211.46,137.41,224.58Z"/></g></g><g id="Group_4926" data-name="Group 4926"><g id="Group_4925" data-name="Group 4925"><path id="Path_41167" data-name="Path 41167" class="cls-7" d="M141.1,222s-21.34,5.33-40.36,4.87A159,159,0,0,1,72,223.18c-4.83-1.05-7.81-1.92-7.81-1.92s6.08-62.17,16.17-81.57a14.64,14.64,0,0,1,3.54-4.78c4.86-3.76,13-4.88,21-4.86a127.63,127.63,0,0,1,24,2.63,47,47,0,0,1,2.3,4.31,90.85,90.85,0,0,1,8.29,29.53C141.57,186.93,141.1,222,141.1,222Z"/></g></g><g id="Group_4928" data-name="Group 4928"><g id="Group_4927" data-name="Group 4927"><path id="Path_41168" data-name="Path 41168" class="cls-6" d="M128.55,139.69a95,95,0,0,1-25.34,10.71c-13.8,3.34-20.74,3.34-20.74,3.34l4-10.66Z"/></g></g><g id="Group_4930" data-name="Group 4930"><g id="Group_4929" data-name="Group 4929"><path id="Path_41169" data-name="Path 41169" class="cls-8" d="M131.66,138.38s-11.29,6.34-24.58,6.34c-1,0-2,0-3-.08a67.88,67.88,0,0,0,1.28-6.8,19.37,19.37,0,0,0-.46-7.8c-1.59-5.62-5.73-8.88-8.07-13.39-2.11-4.09-.87-12.55-2.38-18.63a16.86,16.86,0,0,0-.51-1.67,7.38,7.38,0,0,0-5.15-5H123s0,1.83,0,4.55c0,.5,0,1,0,1.59.08,4.92.28,11.76.77,16.42.59,5.67,5.6,18.78,7.29,23.06Z"/></g></g><g id="Group_4932" data-name="Group 4932"><g id="Group_4931" data-name="Group 4931"><path id="Path_41170" data-name="Path 41170" class="cls-9" d="M143.08,79.93l-.21.61a87.23,87.23,0,0,1-4,10.09h0a2.39,2.39,0,0,1-.2.33,1.27,1.27,0,0,1-.13.19c-2.18,3-2.81,2.67-4.14-.79-2.21-5.71-7.41-17.66-8.2-19.42.44,1.27,1.54,4.89,1.54,12.15,0,3.62-2.82,7.15-3.28,8.83h0c1.52,1.41,3.11,2.83,4.71,4.22,2,1.73,4,3.42,5.84,5,4.18,3.49,7.77,6.34,9.43,7.69a5.06,5.06,0,0,0,.65.46h0c3.35,2.68,14.6-3.09,17.06-6.91Z"/></g></g><g id="Group_4934" data-name="Group 4934"><g id="Group_4933" data-name="Group 4933"><path id="Path_41171" data-name="Path 41171" class="cls-9" d="M105.32,137.84c-.14,1.13-.35,2.4-.62,3.77-.14.68-.29,1.39-.45,2.12l-.21.91-1.45-.1-1-.08c-.95-.09-1.9-.19-2.83-.32l-.93-.12-.46-.07-.92-.14-.9-.15-.89-.16-.44-.09-1.73-.34-.84-.18-.76-.17-.06,0-.81-.18c-2.2-.52-4.17-1.07-5.83-1.57s-3-.94-3.87-1.26-1.38-.5-1.38-.5,5.82-12.12,6.76-22c0-.36.06-.72.09-1.08.06-.66.1-1.32.13-2A90,90,0,0,0,85.54,101c-.09-.87-.19-1.7-.29-2.47S85,97,84.93,96.29s-.24-1.52-.35-2.15c-.31-1.75-.54-2.77-.54-2.77h4.72a6.92,6.92,0,0,1,4.09,2.9,10.49,10.49,0,0,1,1.05,2.09.65.65,0,0,1,0,.13A13.24,13.24,0,0,1,94.41,98c.08.3.15.62.21.93a34,34,0,0,1,.53,4.38c.34,5,.1,10.33,1.65,13.31,2.34,4.52,6.47,7.77,8.06,13.4A19.28,19.28,0,0,1,105.32,137.84Z"/></g></g><g id="Group_4936" data-name="Group 4936"><g id="Group_4935" data-name="Group 4935"><path id="Path_41172" data-name="Path 41172" class="cls-9" d="M123,95.92a10.65,10.65,0,0,1-2.15.84c-6.06,1.68-15.5-4.47-23.24-1.54a25.54,25.54,0,0,1-2.73.88l-1,.26a17.28,17.28,0,0,1-8.15.21,8,8,0,0,1-.82-.29c-.47-3-.89-4.91-.89-4.91h39S123,93.2,123,95.92Z"/></g></g><g id="Group_4938" data-name="Group 4938"><g id="Group_4937" data-name="Group 4937"><path id="Path_41173" data-name="Path 41173" class="cls-9" d="M82.94,57.49A22.79,22.79,0,0,0,68.27,73.66c-2.3,9.59-.4,37.4,3.24,45.92,1.24,2.92,8.82-1,12.6-9.63,2.36-5.37.93-21.19.62-25.1C83.93,74.67,82.94,57.49,82.94,57.49Z"/></g></g><g id="Group_4940" data-name="Group 4940"><g id="Group_4939" data-name="Group 4939"><path id="Path_41174" data-name="Path 41174" class="cls-8" d="M123.06,93.43a11.69,11.69,0,0,1-2.68,1.12c-6.07,1.68-15.5-4.47-23.24-1.54a25.54,25.54,0,0,1-2.73.88,18.17,18.17,0,0,1-9.17.47c-5.34-1.47-7.8-9.09-6.49-16,1.65-8.77,4.19-20.82,4.19-20.82l11.41-2a13,13,0,0,0,15.46.29l0,0,15.5,2.52S134.93,86.47,123.06,93.43Z"/></g></g><g id="Group_4942" data-name="Group 4942"><g id="Group_4941" data-name="Group 4941"><path id="Path_41175" data-name="Path 41175" class="cls-6" d="M104,144.64c-2.92,12.34-29.5,67.16-32,78.54-4.84-1.05-7.81-1.92-7.81-1.92s6.08-62.16,16.17-81.57A91.74,91.74,0,0,0,104,144.64Z"/></g></g><g id="Group_4944" data-name="Group 4944"><g id="Group_4943" data-name="Group 4943"><path id="Path_41176" data-name="Path 41176" class="cls-7" d="M115.84,330.33l1.75,17.58h2.17l1.49-13.14Z"/></g></g><g id="Group_4946" data-name="Group 4946"><g id="Group_4945" data-name="Group 4945"><path id="Path_41177" data-name="Path 41177" class="cls-6" d="M152.88,346.2a1.81,1.81,0,0,1-1.8,1.65l-15.17,0c-.38,0-3.55-3.86-6.72-7.26s-12.84-6.58-14.54-10.75c-1.28-3.15,1.49-10.84,2.92-14.42.47-1.16.79-1.9.79-1.9a30.47,30.47,0,0,1,6.57,5.1c2.71,2.94,4.1,10.75,6,13.07s9,2,11,2c1.43,0,7.25,7,10.54,11.16A1.77,1.77,0,0,1,152.88,346.2Z"/></g></g><g id="Group_4957" data-name="Group 4957"><g id="Group_4948" data-name="Group 4948"><g id="Group_4947" data-name="Group 4947"><path id="Path_41178" data-name="Path 41178" class="cls-4" d="M172.25,77l5.12-3.17A43.54,43.54,0,0,1,178.93,66c.69-1.77.26-5.3,0-7.18a.69.69,0,0,1,.57-.81.71.71,0,0,1,.45.07,4.66,4.66,0,0,1,2.54,3.16c.58,2.87-1,3.36.58,2.87s3.4-4.11,3.6-5.74c.24-2.07-.65-4.38.06-5.4l.6-.59a.69.69,0,0,1,1,0,.87.87,0,0,1,.16.23l1.36,3.36a8.61,8.61,0,0,1,1.13-2.06,5.72,5.72,0,0,1,.94-.9.7.7,0,0,1,1,.14.71.71,0,0,1,.13.31,27,27,0,0,1,.43,4.11,9.09,9.09,0,0,1-.46,2.64,2.61,2.61,0,0,1,2.11-1.8.68.68,0,0,1,.83.53.71.71,0,0,1,0,.2,24.61,24.61,0,0,1-.65,4.27,14.53,14.53,0,0,1-1,2.81s.34,3.88-.41,5.06-6.62,7.25-9.19,8.12-3,.47-3,.47l-5.22,3.25Z"/></g></g><g id="Group_4950" data-name="Group 4950"><g id="Group_4949" data-name="Group 4949"><path id="Path_41179" data-name="Path 41179" class="cls-5" d="M190.18,65.79a.13.13,0,0,1-.13-.13.18.18,0,0,1,0-.09l1.17-1.21,1.28-3.46a.12.12,0,0,1,.16-.07.12.12,0,0,1,.08.16l-1.29,3.48,0,0-1.19,1.23A.11.11,0,0,1,190.18,65.79Z"/></g></g><g id="Group_4952" data-name="Group 4952"><g id="Group_4951" data-name="Group 4951"><path id="Path_41180" data-name="Path 41180" class="cls-5" d="M187.22,63.83a.09.09,0,0,1-.06,0,.13.13,0,0,1,0-.17h0s.8-1.24,1.34-2.2A27.38,27.38,0,0,0,189.77,57a.12.12,0,0,1,.14-.1A.13.13,0,0,1,190,57h0a27.18,27.18,0,0,1-1.34,4.51c-.55,1-1.34,2.2-1.35,2.22A.14.14,0,0,1,187.22,63.83Z"/></g></g><g id="Group_4954" data-name="Group 4954"><g id="Group_4953" data-name="Group 4953"><path id="Path_41181" data-name="Path 41181" class="cls-5" d="M180.88,74.68a.13.13,0,0,1-.13-.13.15.15,0,0,1,0-.09,9.64,9.64,0,0,0,1.72-2.57c.73-1.57.26-5.36.26-5.4a.12.12,0,0,1,.12-.13.13.13,0,0,1,.13.1c0,.16.48,3.9-.27,5.53A9.73,9.73,0,0,1,181,74.63.13.13,0,0,1,180.88,74.68Z"/></g></g><g id="Group_4956" data-name="Group 4956"><g id="Group_4955" data-name="Group 4955"><path id="Path_41182" data-name="Path 41182" class="cls-5" d="M181.44,74.54a.13.13,0,0,1-.13-.13.11.11,0,0,1,.06-.1,15.28,15.28,0,0,1,3.78-2c.75-.15,2.17-.38,3.23-.55a3.56,3.56,0,0,0,2.09-1.12,7,7,0,0,0,1.26-1.56s0-.08,0-.17a5.68,5.68,0,0,1,.4-3.54c.85-1.52,1.6-1.67,1.63-1.68a.14.14,0,0,1,.15.1l.35,1.46a.13.13,0,0,1-.09.15.13.13,0,0,1-.16-.09h0L193.66,64a3.44,3.44,0,0,0-1.34,1.51,5.38,5.38,0,0,0-.36,3.38c0,.09,0,.16,0,.2s0,.25-1.32,1.73a3.79,3.79,0,0,1-2.24,1.21c-1,.16-2.47.39-3.22.54a15.38,15.38,0,0,0-3.68,1.93Z"/></g></g></g><g id="Group_4959" data-name="Group 4959"><g id="Group_4958" data-name="Group 4958"><path id="Path_41183" data-name="Path 41183" class="cls-8" d="M156.24,109.24c-.4.2-.8.39-1.19.55a15.38,15.38,0,0,1-3.32,1l-.3,0a7.52,7.52,0,0,1-8.36-6.6,5.49,5.49,0,0,1,0-.7h0a7.47,7.47,0,0,1,.28-2.2,33.28,33.28,0,0,1,5.4-10.65,22,22,0,0,1,4.62-3.86c1.54-1.07,3.32-2.21,5.2-3.36l.52-.33c1.71-1,3.48-2.09,5.2-3.08,5.69-3.29,10.72-6,10.72-6s6.1,7.45,6.4,7.94S164.28,105.18,156.24,109.24Z"/></g></g><g id="Group_4961" data-name="Group 4961"><g id="Group_4960" data-name="Group 4960"><path id="Path_41184" data-name="Path 41184" class="cls-10" d="M126.06,73.66a3,3,0,0,1,.34.76C126.2,74,126.07,73.69,126.06,73.66Z"/></g></g><g id="Group_4963" data-name="Group 4963"><g id="Group_4962" data-name="Group 4962"><path id="Path_41185" data-name="Path 41185" class="cls-7" d="M152.88,346.2a57.76,57.76,0,0,1-19.28-9,47,47,0,0,1-16-21.73c.47-1.17.8-1.9.8-1.9a30.64,30.64,0,0,1,6.57,5.1c2.7,2.93,4.1,10.74,6,13.06s9,2,11,2c1.42,0,7.25,7,10.54,11.17A1.81,1.81,0,0,1,152.88,346.2Z"/></g></g><g id="Group_4965" data-name="Group 4965"><g id="Group_4964" data-name="Group 4964"><path id="Path_41186" data-name="Path 41186" class="cls-5" d="M110.55,36.87l.71-.09c.48-.06.82-.39.73-.71l-.65-2.41a.76.76,0,0,0-.87-.4h0c-.42.05-.74.31-.75.6l0,2.5C109.66,36.69,110.07,36.93,110.55,36.87Z"/></g></g><g id="Group_4974" data-name="Group 4974"><g id="Group_4967" data-name="Group 4967"><g id="Group_4966" data-name="Group 4966"><path id="Path_41187" data-name="Path 41187" class="cls-11" d="M102.23,30c0,.73.46,1.31,1,1.29s1-.61.93-1.34-.46-1.31-1-1.3S102.21,29.25,102.23,30Z"/></g></g><g id="Group_4969" data-name="Group 4969"><g id="Group_4968" data-name="Group 4968"><path id="Path_41188" data-name="Path 41188" class="cls-3" d="M106.22,26.56a1.41,1.41,0,0,0-.17-.32,3.37,3.37,0,0,0-.64-.72,3.85,3.85,0,0,0-.52-.38,3.56,3.56,0,0,0-.65-.32,4.07,4.07,0,0,0-1.58-.26,4.5,4.5,0,0,0-.81.11,6.44,6.44,0,0,0-.74.25c-.23.12-.43.25-.63.37a3.8,3.8,0,0,0-.49.41,2.79,2.79,0,0,0-.37.4c-.1.13-.17.25-.24.35a3.21,3.21,0,0,0-.19.31l.35-.1c.1,0,.23-.07.37-.13l.47-.14c.17-.05.34-.12.53-.17l.57-.14.61-.1c.2,0,.41-.06.62-.05a4.14,4.14,0,0,1,.61,0,6,6,0,0,1,.61,0l.58.1.54.13c.34.08.63.17.84.23Z"/></g></g><g id="Group_4971" data-name="Group 4971"><g id="Group_4970" data-name="Group 4970"><path id="Path_41189" data-name="Path 41189" class="cls-11" d="M115.14,30c0,.73.46,1.31,1,1.29s1-.61.93-1.34-.47-1.31-1-1.3S115.12,29.25,115.14,30Z"/></g></g><g id="Group_4973" data-name="Group 4973"><g id="Group_4972" data-name="Group 4972"><path id="Path_41190" data-name="Path 41190" class="cls-3" d="M119.13,26.56a2,2,0,0,0-.17-.32,3.67,3.67,0,0,0-.64-.72,3.14,3.14,0,0,0-.52-.38,3.35,3.35,0,0,0-.66-.32,4,4,0,0,0-1.57-.26,4.5,4.5,0,0,0-.81.11,6.44,6.44,0,0,0-.74.25c-.23.12-.44.25-.63.37a5,5,0,0,0-.5.41,3.42,3.42,0,0,0-.36.4,3.72,3.72,0,0,0-.24.35,3.21,3.21,0,0,0-.19.31l.35-.1c.1,0,.23-.07.37-.13l.47-.14.52-.17.58-.14.6-.1c.21,0,.41-.06.62-.05a4.28,4.28,0,0,1,.62,0,6,6,0,0,1,.61,0l.58.1c.19,0,.37.08.53.13.34.08.63.17.84.23Z"/></g></g></g><g id="Group_4976" data-name="Group 4976"><g id="Group_4975" data-name="Group 4975"><path id="Path_41191" data-name="Path 41191" class="cls-5" d="M99.05,35.49a2.87,2.87,0,1,0,2.58-3.23A2.92,2.92,0,0,0,99,35.46Z"/></g></g><g id="Group_4978" data-name="Group 4978"><g id="Group_4977" data-name="Group 4977"><path id="Path_41192" data-name="Path 41192" class="cls-5" d="M119.65,32.51a27.19,27.19,0,0,1-.93,5.66,3,3,0,0,1-.52-5.91A2.78,2.78,0,0,1,119.65,32.51Z"/></g></g><g id="Group_4980" data-name="Group 4980"><g id="Group_4979" data-name="Group 4979"><path id="Path_41193" data-name="Path 41193" class="cls-9" d="M155.05,109.79a14.84,14.84,0,0,1-3.32,1l-.3,0a7.52,7.52,0,0,1-8.36-6.6,5.36,5.36,0,0,1,0-.7h0a7.47,7.47,0,0,1,.28-2.2,33.28,33.28,0,0,1,5.4-10.65,22,22,0,0,1,4.62-3.86c1.54-1.07,3.32-2.21,5.2-3.36l.52-.33c-1.9,2-4.31,5.8-5.13,12.72A35,35,0,0,0,155.05,109.79Z"/></g></g><g id="Group_4982" data-name="Group 4982"><g id="Group_4981" data-name="Group 4981"><path id="Path_41194" data-name="Path 41194" class="cls-12" d="M94.18,36.36a1.78,1.78,0,1,1-1.78-1.78h0A1.78,1.78,0,0,1,94.18,36.36Z"/></g></g><g id="Group_4984" data-name="Group 4984"><g id="Group_4983" data-name="Group 4983"><path id="Path_41195" data-name="Path 41195" class="cls-13" d="M94,36a1.26,1.26,0,1,1-1.25-1.25h0A1.25,1.25,0,0,1,94,36Z"/></g></g><g id="Group_4986" data-name="Group 4986"><g id="Group_4985" data-name="Group 4985"><path id="Path_41196" data-name="Path 41196" class="cls-13" d="M102.63,59.24A15.69,15.69,0,0,1,93,55.65l1.19-1.51c4.2,3.32,9.17,4.09,13.31,2.06a13,13,0,0,0,2.39-1.79l1.3,1.42a16.16,16.16,0,0,1-2.84,2.1A13,13,0,0,1,102.63,59.24Z"/></g></g><g id="Group_5002" data-name="Group 5002"><g id="Group_4988" data-name="Group 4988"><g id="Group_4987" data-name="Group 4987"><path id="Path_41197" data-name="Path 41197" class="cls-4" d="M120.39,130.67s7.78-2.09,11.93-2.1,2.65,6.16,2.65,6.16Z"/></g></g><g id="Group_4999" data-name="Group 4999"><g id="Group_4990" data-name="Group 4990"><g id="Group_4989" data-name="Group 4989"><path id="Path_41198" data-name="Path 41198" class="cls-4" d="M140.15,138.14h0c0,.07-.17.63-.65,2.13-.08.22-.16.47-.25.74a2,2,0,0,1-.14.34,6.37,6.37,0,0,1-1.17,1.51,23.55,23.55,0,0,1-4.61,3.46h0a3,3,0,0,1-.35-.23l0,0h0c-1.57-1.09-7.63-5.43-11-7.88l-2.38-1.72,2.63-5.32.5-1s.81.07,2,.22a38.12,38.12,0,0,1,7.93,1.63,12,12,0,0,1,2.6,1.6,37.77,37.77,0,0,1,2.94,2.52c.56.52,1,1,1.39,1.35h0l.33.33C140,138,140.15,138.14,140.15,138.14Z"/></g></g><g id="Group_4992" data-name="Group 4992"><g id="Group_4991" data-name="Group 4991"><path id="Path_41199" data-name="Path 41199" class="cls-4" d="M148.61,146.21c-.94,1.77-6.28,4-8.65,3.44a13.4,13.4,0,0,1-2.92-1.17c-.54-.28-1.08-.58-1.59-.87-.9-.52-1.68-1-2.12-1.28l-.31-.2-.06,0h0l3.33-4.37,1.08-1.41.59-.78,1.36-1.78.2-.27h0l.07.08.25.25h0l.32.34c.73.75,1.92,2,3,3.08.63.64,1.21,1.24,1.6,1.62l.13.14c.12.11.24.22.37.32a12.81,12.81,0,0,0,1.38.93C147.78,145,148.91,145.63,148.61,146.21Z"/></g></g><g id="Group_4995" data-name="Group 4995"><g id="Group_4994" data-name="Group 4994"><g id="Group_4993" data-name="Group 4993"><path id="Path_41200" data-name="Path 41200" class="cls-5" d="M146.15,147.7h-.08a16.45,16.45,0,0,1-5.43-2.41c-1.94-1.53-4.69-3.39-4.72-3.41a.33.33,0,1,1,.37-.55s2.8,1.89,4.76,3.44a16.13,16.13,0,0,0,5.18,2.28.34.34,0,0,1-.08.66Z"/></g></g></g><g id="Group_4998" data-name="Group 4998"><g id="Group_4997" data-name="Group 4997"><g id="Group_4996" data-name="Group 4996"><path id="Path_41201" data-name="Path 41201" class="cls-5" d="M142.35,149.38l-.12,0a20,20,0,0,1-3.1-1.47L136.51,146a.33.33,0,0,1-.08-.46.34.34,0,0,1,.47-.08s1.94,1.4,2.63,1.92a19.81,19.81,0,0,0,2.95,1.38.32.32,0,0,1,.18.43.34.34,0,0,1-.3.21Z"/></g></g></g></g><g id="Group_5001" data-name="Group 5001"><g id="Group_5000" data-name="Group 5000"><path id="Path_41202" data-name="Path 41202" class="cls-8" d="M121.16,139.2c-1.5-.17-46.92-16.82-47.65-17.54a8.36,8.36,0,0,1-2.1-3.34,8,8,0,0,1,1.09-7c2.29-3.31,8.18-10.52,13.92-6.64,2.68,1.81,38.48,24.88,38.48,24.88a.08.08,0,0,1,0,0l-.26.77c-.13.36-.29.82-.47,1.35-.7,2-1.72,4.94-2.28,6.47-.19.54-.33.9-.37,1S121.37,139.22,121.16,139.2Z"/></g></g></g><g id="Group_5004" data-name="Group 5004"><g id="Group_5003" data-name="Group 5003"><path id="Path_41203" data-name="Path 41203" class="cls-4" d="M130.55,127.85a5.66,5.66,0,0,1,2.35-.2c1.91.24,5.54.67,6.69.62,1.58-.07,3.4,0,3.4,0s-.18,2.22-3.09,2.25-6.13,1.23-6,2.59a24.75,24.75,0,0,0,1,4l-10-7.53Z"/></g></g><g id="Group_5006" data-name="Group 5006"><g id="Group_5005" data-name="Group 5005"><path id="Path_41204" data-name="Path 41204" class="cls-2" d="M105,40.6s4.36-1,5.12-.59l.75.41a2.29,2.29,0,0,1,.88-.51,26.31,26.31,0,0,1,2.94.41,5.18,5.18,0,0,1-1.08,3.46l-.17.17a4.88,4.88,0,0,1-6,.6,6.19,6.19,0,0,1-1.1-1.07A7.38,7.38,0,0,1,105,40.6Z"/></g></g><g id="Group_5008" data-name="Group 5008"><g id="Group_5007" data-name="Group 5007"><path id="Path_41205" data-name="Path 41205" class="cls-13" d="M114.7,40.33a14.22,14.22,0,0,1-9.69.27,5.85,5.85,0,0,0,5.48,3.6C113.94,44.1,114.7,40.33,114.7,40.33Z"/></g></g><g id="Group_5010" data-name="Group 5010"><g id="Group_5009" data-name="Group 5009"><path id="Path_41206" data-name="Path 41206" class="cls-5" d="M138.68,151.47a.34.34,0,0,1-.33-.34.33.33,0,0,1,.27-.32l1.79-.33a24.58,24.58,0,0,0,4-1l1.88-.66a.33.33,0,0,1,.22.63h0l-1.88.66a25.84,25.84,0,0,1-4.06,1.08l-1.79.32Z"/></g></g><g id="Group_5012" data-name="Group 5012"><g id="Group_5011" data-name="Group 5011"><path id="Path_41207" data-name="Path 41207" class="cls-5" d="M143,153.2a.32.32,0,0,1-.33-.32.33.33,0,0,1,.28-.34l.42-.07a18.27,18.27,0,0,0,5.47-1.87.33.33,0,0,1,.45.13.34.34,0,0,1-.14.45h0a18.7,18.7,0,0,1-5.67,1.95l-.42.07Z"/></g></g><g id="Group_5014" data-name="Group 5014"><g id="Group_5013" data-name="Group 5013"><path id="Path_41208" data-name="Path 41208" class="cls-5" d="M139.57,137.55l5.15,5.3.66.05-5-5Z"/></g></g></g><g id="Group_5263" data-name="Group 5263"><g id="Group_5155" data-name="Group 5155"><g id="Group_5154" data-name="Group 5154"><g id="Group_5019" data-name="Group 5019" class="cls-14"><g id="Group_5018" data-name="Group 5018"><ellipse id="Ellipse_89" data-name="Ellipse 89" class="cls-15" cx="232.06" cy="346.2" rx="230.57" ry="12.83"/></g></g><g id="Group_5021" data-name="Group 5021"><g id="Group_5020" data-name="Group 5020"><path id="Path_41209" data-name="Path 41209" class="cls-16" d="M430.51,344.14H421.8c-6.3-3.69-8.77-11.73-8.77-21.08s2.47-17.4,8.77-21.09h8.71a2.17,2.17,0,1,0,0-4.34H222.34a25.42,25.42,0,1,0-.06,50.84H430.5a2.17,2.17,0,1,0,0-4.33Z"/></g></g><g id="Group_5023" data-name="Group 5023"><g id="Group_5022" data-name="Group 5022"><path id="Path_41210" data-name="Path 41210" class="cls-17" d="M424.64,299.8v2.14a25.4,25.4,0,0,0,0,42.23v2.14H294.91c-12.25,0-22.18-10.41-22.18-23.26a23.8,23.8,0,0,1,6.49-16.44,21.64,21.64,0,0,1,15.69-6.81Z"/></g></g><g id="Group_5025" data-name="Group 5025"><g id="Group_5024" data-name="Group 5024"><path id="Path_41211" data-name="Path 41211" class="cls-13" d="M425.48,299.8v2.14a25.39,25.39,0,0,0,0,42.23v2.14H295.74c-12.24,0-22.17-10.41-22.17-23.26a23.75,23.75,0,0,1,6.49-16.44,21.62,21.62,0,0,1,15.68-6.81Z"/></g></g><g id="Group_5027" data-name="Group 5027"><g id="Group_5026" data-name="Group 5026"><path id="Path_41212" data-name="Path 41212" class="cls-16" d="M432,348.48H297.56a25.42,25.42,0,0,1-.06-50.84H432a2.17,2.17,0,1,1,0,4.33H297.56a21.09,21.09,0,0,0,0,42.17H432a2.17,2.17,0,1,1,0,4.34Z"/></g></g><g id="Group_5029" data-name="Group 5029"><g id="Group_5028" data-name="Group 5028"><path id="Path_41213" data-name="Path 41213" class="cls-18" d="M400.36,215H192.2a2.17,2.17,0,1,0,0,4.33h8.7c6.3,3.69,8.77,11.73,8.77,21.09s-2.47,17.39-8.76,21.08H192.2a2.17,2.17,0,1,0,0,4.34H400.36a25.43,25.43,0,0,0,0-50.85Z"/></g></g><g id="Group_5031" data-name="Group 5031"><g id="Group_5030" data-name="Group 5030"><path id="Path_41214" data-name="Path 41214" class="cls-17" d="M193.89,217.2v2.13a25.39,25.39,0,0,1,0,42.23v2.14H323.63c12.24,0,22.17-10.41,22.17-23.26A23.8,23.8,0,0,0,339.31,224a21.61,21.61,0,0,0-15.68-6.8Z"/></g></g><g id="Group_5033" data-name="Group 5033"><g id="Group_5032" data-name="Group 5032"><path id="Path_41215" data-name="Path 41215" class="cls-13" d="M193.89,217.2v2.13a25.39,25.39,0,0,1,0,42.23v2.14H323.63c12.24,0,22.17-10.41,22.17-23.26A23.8,23.8,0,0,0,339.31,224a21.61,21.61,0,0,0-15.68-6.8Z"/></g></g><g id="Group_5049" data-name="Group 5049"><g id="Group_5036" data-name="Group 5036"><g id="Group_5035" data-name="Group 5035"><g id="Group_5034" data-name="Group 5034"><path id="Path_41216" data-name="Path 41216" class="cls-19" d="M333.16,241.61H215.24a.72.72,0,0,1,0-1.44H333.16a.72.72,0,0,1,.06,1.44Z"/></g></g></g><g id="Group_5039" data-name="Group 5039"><g id="Group_5038" data-name="Group 5038"><g id="Group_5037" data-name="Group 5037"><path id="Path_41217" data-name="Path 41217" class="cls-19" d="M332,248.82H214a.73.73,0,0,1,0-1.45H332a.73.73,0,0,1,0,1.45Z"/></g></g></g><g id="Group_5042" data-name="Group 5042"><g id="Group_5041" data-name="Group 5041"><g id="Group_5040" data-name="Group 5040"><path id="Path_41218" data-name="Path 41218" class="cls-19" d="M332,234H214a.72.72,0,0,1,0-1.44H332a.72.72,0,1,1,0,1.44Z"/></g></g></g><g id="Group_5045" data-name="Group 5045"><g id="Group_5044" data-name="Group 5044"><g id="Group_5043" data-name="Group 5043"><path id="Path_41219" data-name="Path 41219" class="cls-19" d="M327.68,255.86H209.76a.72.72,0,0,1,0-1.44H327.68a.72.72,0,0,1,0,1.44Z"/></g></g></g><g id="Group_5048" data-name="Group 5048"><g id="Group_5047" data-name="Group 5047"><g id="Group_5046" data-name="Group 5046"><path id="Path_41220" data-name="Path 41220" class="cls-19" d="M327.68,226.47H209.76a.72.72,0,0,1,0-1.44H327.68a.72.72,0,0,1,0,1.44Z"/></g></g></g></g><g id="Group_5051" data-name="Group 5051"><g id="Group_5050" data-name="Group 5050"><path id="Path_41221" data-name="Path 41221" class="cls-18" d="M189.87,265.87H324.31a25.42,25.42,0,0,0,.06-50.84H189.87a2.17,2.17,0,1,0,0,4.33H324.31a21.09,21.09,0,0,1,0,42.17H189.87a2.17,2.17,0,1,0,0,4.34Z"/></g></g><g id="Group_5053" data-name="Group 5053"><g id="Group_5052" data-name="Group 5052"><path id="Path_41222" data-name="Path 41222" class="cls-20" d="M183.31,265.83a15.9,15.9,0,0,0,0,31.8H392.08v-2.89h-6.27a14.43,14.43,0,0,1,0-26h6.27v-2.89Z"/></g></g><g id="Group_5055" data-name="Group 5055"><g id="Group_5054" data-name="Group 5054"><path id="Path_41223" data-name="Path 41223" class="cls-13" d="M392.07,296.19H281.43a14.46,14.46,0,0,1,0-28.91H392.07a14.46,14.46,0,0,0,0,28.91Z"/></g></g><g id="Group_5058" data-name="Group 5058"><g id="Group_5057" data-name="Group 5057"><g id="Group_5056" data-name="Group 5056"><path id="Path_41224" data-name="Path 41224" class="cls-20" d="M395.4,297.64H280.6a15.9,15.9,0,0,1,0-31.8H395.4a1.45,1.45,0,1,1,0,2.89H280.6a13,13,0,0,0,0,26H395.4a1.45,1.45,0,1,1,0,2.89Z"/></g></g></g><g id="Group_5061" data-name="Group 5061" class="cls-21"><g id="Group_5060" data-name="Group 5060"><g id="Group_5059" data-name="Group 5059"><path id="Path_41225" data-name="Path 41225" class="cls-13" d="M395.4,297.64H280.6a15.9,15.9,0,0,1,0-31.8H395.4a1.45,1.45,0,1,1,0,2.89H280.6a13,13,0,0,0,0,26H395.4a1.45,1.45,0,1,1,0,2.89Z"/></g></g></g><g id="Group_5072" data-name="Group 5072"><g id="Group_5071" data-name="Group 5071"><g class="cls-22"><g id="Group_5070" data-name="Group 5070"><g id="Group_5064" data-name="Group 5064"><path id="Path_41226" data-name="Path 41226" class="cls-23" d="M256.64,337.12l6-13v13Z"/></g><g id="Group_5065" data-name="Group 5065"><path id="Path_41227" data-name="Path 41227" class="cls-24" d="M243.79,337.12l14.2-30.6h4.7V324.1l-6,13Z"/></g><g id="Group_5066" data-name="Group 5066"><path id="Path_41228" data-name="Path 41228" class="cls-25" d="M230.94,337.12l14.2-30.6H258l-14.2,30.6Z"/></g><g id="Group_5067" data-name="Group 5067"><path id="Path_41229" data-name="Path 41229" class="cls-26" d="M218.08,337.12l14.2-30.6h12.86l-14.2,30.6Z"/></g><g id="Group_5068" data-name="Group 5068"><path id="Path_41230" data-name="Path 41230" class="cls-27" d="M212.39,337.12,207.8,335v-3.41l11.63-25.07h12.85l-14.2,30.6Z"/></g><g id="Group_5069" data-name="Group 5069"><path id="Path_41231" data-name="Path 41231" class="cls-28" d="M219.43,306.52,207.8,331.58V306.52Z"/></g></g></g></g></g><g id="Group_5074" data-name="Group 5074" class="cls-29"><g id="Group_5073" data-name="Group 5073"><path id="Path_41233" data-name="Path 41233" class="cls-30" d="M396,255.75a15.3,15.3,0,1,0,0-30.6H356.45a37.23,37.23,0,0,1,0,30.6Z"/></g></g><g id="Group_5090" data-name="Group 5090"><g id="Group_5077" data-name="Group 5077"><g id="Group_5076" data-name="Group 5076"><g id="Group_5075" data-name="Group 5075"><path id="Path_41234" data-name="Path 41234" class="cls-19" d="M406.33,323.78H288.42a.73.73,0,1,1,0-1.45H406.33a.73.73,0,1,1,0,1.45Z"/></g></g></g><g id="Group_5080" data-name="Group 5080"><g id="Group_5079" data-name="Group 5079"><g id="Group_5078" data-name="Group 5078"><path id="Path_41235" data-name="Path 41235" class="cls-19" d="M407.54,331H289.62a.72.72,0,0,1,0-1.44H407.54a.72.72,0,1,1,0,1.44Z"/></g></g></g><g id="Group_5083" data-name="Group 5083"><g id="Group_5082" data-name="Group 5082"><g id="Group_5081" data-name="Group 5081"><path id="Path_41236" data-name="Path 41236" class="cls-19" d="M407.54,316.2H289.62a.72.72,0,1,1,0-1.44H407.54a.72.72,0,1,1,0,1.44Z"/></g></g></g><g id="Group_5086" data-name="Group 5086"><g id="Group_5085" data-name="Group 5085"><g id="Group_5084" data-name="Group 5084"><path id="Path_41237" data-name="Path 41237" class="cls-19" d="M411.82,338H293.9a.72.72,0,0,1-.72-.72.73.73,0,0,1,.72-.73H411.82a.73.73,0,0,1,.72.73A.72.72,0,0,1,411.82,338Z"/></g></g></g><g id="Group_5089" data-name="Group 5089"><g id="Group_5088" data-name="Group 5088"><g id="Group_5087" data-name="Group 5087"><path id="Path_41238" data-name="Path 41238" class="cls-19" d="M411.82,308.64H293.9a.72.72,0,0,1-.72-.72.73.73,0,0,1,.72-.73H411.82a.73.73,0,0,1,.72.73A.72.72,0,0,1,411.82,308.64Z"/></g></g></g></g><g id="Group_5126" data-name="Group 5126"><g id="Group_5092" data-name="Group 5092"><g id="Group_5091" data-name="Group 5091"><path id="Path_41239" data-name="Path 41239" class="cls-16" d="M220,139.5l-3.47,8c-5.9,4.3-14.26,3.35-22.83-.38s-15-9.22-15.83-16.47l3.48-8a2.17,2.17,0,0,0-4-1.73L94.23,311.75a25.42,25.42,0,0,0,46.61,20.31L224,141.23a2.17,2.17,0,0,0-4-1.73Z"/></g></g><g id="Group_5094" data-name="Group 5094"><g id="Group_5093" data-name="Group 5093"><path id="Path_41240" data-name="Path 41240" class="cls-17" d="M177,127.16l2,.85a25.39,25.39,0,0,0,38.71,16.87l2,.86L167.84,264.67c-4.9,11.23-18.4,16.17-30.18,11a23.8,23.8,0,0,1-12.48-12.52,21.66,21.66,0,0,1,0-17.1Z"/></g></g><g id="Group_5096" data-name="Group 5096"><g id="Group_5095" data-name="Group 5095"><path id="Path_41241" data-name="Path 41241" class="cls-13" d="M177.37,126.39l2,.86A25.4,25.4,0,0,0,218,144.12l2,.85L168.17,263.91c-4.89,11.22-18.4,16.17-30.18,11a23.76,23.76,0,0,1-12.47-12.51,21.58,21.58,0,0,1,0-17.1Z"/></g></g><g id="Group_5098" data-name="Group 5098"><g id="Group_5097" data-name="Group 5097"><path id="Path_41242" data-name="Path 41242" class="cls-16" d="M224.6,139.86,170.89,263.1a25.42,25.42,0,1,1-46.75-20l.14-.32L178,119.55a2.17,2.17,0,1,1,4,1.74L128.26,244.53a21.08,21.08,0,0,0,38.65,16.85h0l53.71-123.25a2.17,2.17,0,0,1,4,1.73Z"/></g></g><g id="Group_5109" data-name="Group 5109"><g id="Group_5108" data-name="Group 5108"><g class="cls-31"><g id="Group_5107" data-name="Group 5107"><g id="Group_5099" data-name="Group 5099"><path id="Path_41243" data-name="Path 41243" class="cls-32" d="M146.54,281.23,144,278.32h2.58Z"/></g><g id="Group_5100" data-name="Group 5100"><path id="Path_41244" data-name="Path 41244" class="cls-23" d="M146.54,298.8l-18.16-20.48H144l2.58,2.91Z"/></g><g id="Group_5101" data-name="Group 5101"><path id="Path_41245" data-name="Path 41245" class="cls-24" d="M146.54,316.37l-31.87-35.94,2.37-2.11h11.34l18.16,20.48Z"/></g><g id="Group_5102" data-name="Group 5102"><path id="Path_41246" data-name="Path 41246" class="cls-25" d="M146.54,318.84l-7.5,6.65-33.1-37.33,8.72-7.73,31.87,35.94Z"/></g><g id="Group_5103" data-name="Group 5103"><path id="Path_41247" data-name="Path 41247" class="cls-26" d="M139,325.49l-8.72,7.73-31-35v-4.2l6.63-5.89Z"/></g><g id="Group_5104" data-name="Group 5104"><path id="Path_41248" data-name="Path 41248" class="cls-27" d="M130.32,333.22l-5.52,4.89h-5.73L99.31,315.82V298.25Z"/></g><g id="Group_5105" data-name="Group 5105"><path id="Path_41249" data-name="Path 41249" class="cls-28" d="M103.49,338.11l-4.18-4.72V315.82l19.76,22.29Z"/></g><g id="Group_5106" data-name="Group 5106"><path id="Path_41250" data-name="Path 41250" class="cls-33" d="M99.31,333.39l4.19,4.72H99.31Z"/></g></g></g></g></g><g id="Group_5125" data-name="Group 5125"><g id="Group_5112" data-name="Group 5112"><g id="Group_5111" data-name="Group 5111"><g id="Group_5110" data-name="Group 5110"><path id="Path_41252" data-name="Path 41252" class="cls-19" d="M191.7,153.52l-47.11,108.1a.72.72,0,1,1-1.33-.55v0l47.11-108.1a.72.72,0,0,1,1.32.58Z"/></g></g></g><g id="Group_5115" data-name="Group 5115"><g id="Group_5114" data-name="Group 5114"><g id="Group_5113" data-name="Group 5113"><path id="Path_41253" data-name="Path 41253" class="cls-19" d="M198.79,155.3,151.68,263.4a.73.73,0,0,1-1,.37.72.72,0,0,1-.38-.95l47.11-108.1a.73.73,0,0,1,1.33.58Z"/></g></g></g><g id="Group_5118" data-name="Group 5118"><g id="Group_5117" data-name="Group 5117"><g id="Group_5116" data-name="Group 5116"><path id="Path_41254" data-name="Path 41254" class="cls-19" d="M185.24,149.39l-47.11,108.1a.72.72,0,1,1-1.34-.54v0l47.11-108.1a.73.73,0,0,1,1.33.58Z"/></g></g></g><g id="Group_5121" data-name="Group 5121"><g id="Group_5120" data-name="Group 5120"><g id="Group_5119" data-name="Group 5119"><path id="Path_41255" data-name="Path 41255" class="cls-19" d="M207,154.19l-47.11,108.1a.73.73,0,0,1-.95.39.74.74,0,0,1-.39-.95v0l47.11-108.1a.74.74,0,0,1,1-.36A.73.73,0,0,1,207,154.19Z"/></g></g></g><g id="Group_5124" data-name="Group 5124"><g id="Group_5123" data-name="Group 5123"><g id="Group_5122" data-name="Group 5122"><path id="Path_41256" data-name="Path 41256" class="cls-19" d="M180,142.45l-47.11,108.1a.73.73,0,1,1-1.34-.56v0l47.11-108.1a.73.73,0,0,1,1.33.58Z"/></g></g></g></g></g><g id="Group_5128" data-name="Group 5128"><g id="Group_5127" data-name="Group 5127"><line id="Line_1817" data-name="Line 1817" class="cls-1" x1="89.68" y1="213.66" x2="90.63" y2="214.2"/></g></g><g id="Group_5153" data-name="Group 5153"><g id="Group_5130" data-name="Group 5130"><g id="Group_5129" data-name="Group 5129"><path id="Path_41257" data-name="Path 41257" class="cls-18" d="M118.38,136.07,27.05,323.13A2.17,2.17,0,0,0,31,325l3.82-7.83c6.08-4,14.39-2.73,22.8,1.38s14.53,9.84,15.09,17.12l-3.82,7.83a2.17,2.17,0,0,0,3.9,1.9l91.33-187.06a25.42,25.42,0,0,0-45.44-22.8l-.24.5Z"/></g></g><g id="Group_5132" data-name="Group 5132"><g id="Group_5131" data-name="Group 5131"><path id="Path_41258" data-name="Path 41258" class="cls-13" d="M29.74,322.56l1.92.94A25.37,25.37,0,0,1,69.6,342l1.92.94,56.93-116.58c5.37-11,.37-24.5-11.17-30.13a23.77,23.77,0,0,0-17.62-1.38,21.62,21.62,0,0,0-13,11.1Z"/></g></g><g id="Group_5148" data-name="Group 5148"><g id="Group_5135" data-name="Group 5135"><g id="Group_5134" data-name="Group 5134"><g id="Group_5133" data-name="Group 5133"><path id="Path_41259" data-name="Path 41259" class="cls-19" d="M112.79,208.12l-51.74,106a.72.72,0,0,1-1,.33.71.71,0,0,1-.33-1h0l51.74-106a.72.72,0,0,1,1-.34.73.73,0,0,1,.34,1Z"/></g></g></g><g id="Group_5138" data-name="Group 5138"><g id="Group_5137" data-name="Group 5137"><g id="Group_5136" data-name="Group 5136"><path id="Path_41260" data-name="Path 41260" class="cls-19" d="M118.73,212.37,67,318.33a.74.74,0,0,1-1,.33.72.72,0,0,1-.33-1h0l51.73-106a.72.72,0,1,1,1.3.64Z"/></g></g></g><g id="Group_5141" data-name="Group 5141"><g id="Group_5140" data-name="Group 5140"><g id="Group_5139" data-name="Group 5139"><path id="Path_41261" data-name="Path 41261" class="cls-19" d="M105.45,205.88l-51.74,106a.71.71,0,0,1-1,.33.72.72,0,0,1-.34-1l51.74-106a.73.73,0,0,1,1-.34.72.72,0,0,1,.33,1Z"/></g></g></g><g id="Group_5144" data-name="Group 5144"><g id="Group_5143" data-name="Group 5143"><g id="Group_5142" data-name="Group 5142"><path id="Path_41262" data-name="Path 41262" class="cls-19" d="M123.19,219.3l-51.74,106a.73.73,0,0,1-1,.34.72.72,0,0,1-.33-1h0l51.74-106a.71.71,0,0,1,1-.33.72.72,0,0,1,.34,1Z"/></g></g></g><g id="Group_5147" data-name="Group 5147"><g id="Group_5146" data-name="Group 5146"><g id="Group_5145" data-name="Group 5145"><path id="Path_41263" data-name="Path 41263" class="cls-19" d="M96.78,206.41,45,312.37a.72.72,0,0,1-1,.33.74.74,0,0,1-.33-1h0l51.74-106a.73.73,0,0,1,1-.33.72.72,0,0,1,.33,1Z"/></g></g></g></g><g id="Group_5150" data-name="Group 5150"><g id="Group_5149" data-name="Group 5149"><path id="Path_41264" data-name="Path 41264" class="cls-18" d="M71.71,347.52l59-120.8A25.42,25.42,0,1,0,85,204.41L26,325.22a2.17,2.17,0,0,0,3.9,1.9l59-120.8a21.09,21.09,0,1,1,37.9,18.5h0l-59,120.81a2.17,2.17,0,0,0,3.9,1.9h0Z"/></g></g><g id="Group_5152" data-name="Group 5152" class="cls-29"><g id="Group_5151" data-name="Group 5151"><path id="Path_41265" data-name="Path 41265" class="cls-30" d="M153.07,157.84a15.3,15.3,0,0,0-27.5-13.43L108.21,180a37.23,37.23,0,0,1,27.51,13.41Z"/></g></g></g></g></g><g id="Group_5262" data-name="Group 5262"><g id="Group_5157" data-name="Group 5157"><g id="Group_5156" data-name="Group 5156"><path id="Path_41266" data-name="Path 41266" class="cls-9" d="M225.54,121.22c-.42,1.06-21.57,37.21-27.69,24.18-1.07-2.28-.41-4.47,1-9.36,4.3-15.08,25.5-32.6,25.5-32.6S230.54,108.81,225.54,121.22Z"/></g></g><g id="Group_5188" data-name="Group 5188"><g id="Group_5159" data-name="Group 5159"><g id="Group_5158" data-name="Group 5158"><path id="Path_41267" data-name="Path 41267" class="cls-7" d="M252.08,67l-.7.47c-.42.27-.8.5-1.14.68s-.83.44-1.26.63l-1.64,2.71L239.22,85l-.23.38-2.75,4.56-.49.81-.89,1.48-1.31-.72-1.32-.72-3.62-2a54.38,54.38,0,0,1-5.29-3.3c-5.49-3.9-11.24-9.61-10.76-15.78l.06-.56c1.19-8.49,9.91-7.24,9.91-7.24a44.39,44.39,0,0,1,4.87-9.31c3.64-5.43,11.78-10.39,18.87-10.82a11.92,11.92,0,0,1,7.28,1.65,10.81,10.81,0,0,1,4.32,5.85C261.11,58.77,255.79,64.4,252.08,67Z"/></g></g><g id="Group_5161" data-name="Group 5161"><g id="Group_5160" data-name="Group 5160"><path id="Path_41268" data-name="Path 41268" class="cls-6" d="M252.08,67l-.7.47c-.42.27-.8.5-1.14.68s-.83.44-1.26.63l-1.64,2.71L239.22,85l-.23.38-2.75,4.56-.49.81-.89,1.48-1.31-.72-1.32-.72-3.62-2a54.38,54.38,0,0,1-5.29-3.3c-5.49-3.9-11.24-9.61-10.76-15.78a17.54,17.54,0,0,0,8.18,4.21,24.45,24.45,0,0,0,2.94.52,33.2,33.2,0,0,0,5.18.19,41.68,41.68,0,0,0,17.8-4.91l.35-.21a8.55,8.55,0,0,0,1.32-1,9.52,9.52,0,0,0,1.33-1.5,15.12,15.12,0,0,0,1.64-2.91c2.56-6,2.62-14.64,2.25-20.66a10.8,10.8,0,0,1,4.32,5.86C261.11,58.77,255.79,64.4,252.08,67Z"/></g></g><g id="Group_5163" data-name="Group 5163"><g id="Group_5162" data-name="Group 5162"><path id="Path_41269" data-name="Path 41269" class="cls-4" d="M256.08,105.62s.92.87-.84,3.69-4.92,9.88-14.93,8.39-10.83-9.1-10.83-9.1a9.79,9.79,0,0,0,4.23-3.54c.91-1.46-2.79-22.09-2.79-22.09l16.85,5s.58,5.67.95,9.13c.22,2-.29,5.33-.17,5.75C249.41,105.64,256.08,105.62,256.08,105.62Z"/></g></g><g id="Group_5165" data-name="Group 5165"><g id="Group_5164" data-name="Group 5164"><path id="Path_41270" data-name="Path 41270" class="cls-5" d="M247.65,87s.38,4.28.75,7.74a8.67,8.67,0,0,1-3.3,1C236.56,96.25,230.92,83,230.92,83Z"/></g></g><g id="Group_5167" data-name="Group 5167"><g id="Group_5166" data-name="Group 5166"><path id="Path_41271" data-name="Path 41271" class="cls-5" d="M235.19,81.77c-.35,1.51-3.19,2.09-6.34,1.29s-5.27-2.59-5.09-4.16c.23-2.1,3.18-2.09,6.34-1.29S235.53,80.26,235.19,81.77Z"/></g></g><g id="Group_5169" data-name="Group 5169"><g id="Group_5168" data-name="Group 5168"><path id="Path_41272" data-name="Path 41272" class="cls-4" d="M247,65.62c-5.07,2-7,.71-12.35,1-.86,0-1.78,0-2.64,0a3.13,3.13,0,0,0-3.08,2.82,27.24,27.24,0,0,0,.11,6.69c1.42,10.29,9.06,17.71,16,16.76s9.69-8.73,8.27-19a61.27,61.27,0,0,0-2.07-10C250.3,64.24,249,64.83,247,65.62Z"/></g></g><g id="Group_5171" data-name="Group 5171"><g id="Group_5170" data-name="Group 5170"><path id="Path_41273" data-name="Path 41273" class="cls-13" d="M250.17,83.17a12.77,12.77,0,0,1-8.56,1.7s1.89,3.32,5.47,2.61C250.13,86.87,250.17,83.17,250.17,83.17Z"/></g></g><g id="Group_5173" data-name="Group 5173"><g id="Group_5172" data-name="Group 5172"><path id="Path_41274" data-name="Path 41274" class="cls-5" d="M246.23,80.53l.64-.12a.71.71,0,0,0,.6-.81s0,0,0-.08l-.9-2.91a.74.74,0,0,0-.85-.47h0a.73.73,0,0,0-.61.75l.26,3a.71.71,0,0,0,.79.61Z"/></g></g><g id="Group_5175" data-name="Group 5175"><g id="Group_5174" data-name="Group 5174"><path id="Path_41275" data-name="Path 41275" class="cls-34" d="M237.69,74.48c.12.65.61,1.1,1.1,1a1.1,1.1,0,0,0,.63-1.36c-.13-.65-.62-1.11-1.1-1A1.08,1.08,0,0,0,237.69,74.48Z"/></g></g><g id="Group_5177" data-name="Group 5177"><g id="Group_5176" data-name="Group 5176"><path id="Path_41276" data-name="Path 41276" class="cls-6" d="M240.76,70.78a1.64,1.64,0,0,0-.2-.26,2.83,2.83,0,0,0-.69-.55,2.65,2.65,0,0,0-.53-.27,4.57,4.57,0,0,0-.63-.19,3.77,3.77,0,0,0-1.46,0,4.29,4.29,0,0,0-.72.22c-.21.11-.42.22-.63.35l-.51.42A5.63,5.63,0,0,0,235,71a3,3,0,0,0-.27.42c-.07.13-.12.25-.16.34a2,2,0,0,0-.12.31,2,2,0,0,0,.3-.14l.31-.17.4-.2c.15-.07.29-.16.46-.23s.32-.14.5-.22l.52-.18a5.54,5.54,0,0,1,.55-.14,6.41,6.41,0,0,1,1.12-.13,3.25,3.25,0,0,1,.54,0,4,4,0,0,1,.5,0c.32,0,.59.06.79.08Z"/></g></g><g id="Group_5179" data-name="Group 5179"><g id="Group_5178" data-name="Group 5178"><path id="Path_41277" data-name="Path 41277" class="cls-34" d="M249.24,72c.13.65.62,1.11,1.1,1a1.1,1.1,0,0,0,.64-1.36c-.13-.65-.62-1.1-1.1-1A1.1,1.1,0,0,0,249.24,72Z"/></g></g><g id="Group_5181" data-name="Group 5181"><g id="Group_5180" data-name="Group 5180"><path id="Path_41278" data-name="Path 41278" class="cls-6" d="M252.32,68.33a1.39,1.39,0,0,0-.21-.27,3.28,3.28,0,0,0-.68-.55,5.28,5.28,0,0,0-.53-.27,3.58,3.58,0,0,0-.64-.18,3.35,3.35,0,0,0-.71-.07,3.81,3.81,0,0,0-.75.07,4.52,4.52,0,0,0-.71.23,4.77,4.77,0,0,0-.63.34,5.75,5.75,0,0,0-.51.43,3.23,3.23,0,0,0-.38.45,1.62,1.62,0,0,0-.27.41,3.78,3.78,0,0,0-.17.35l-.12.31.3-.14c.09,0,.2-.1.32-.18s.26-.14.4-.2.29-.16.45-.22l.5-.22.53-.19c.18,0,.36-.12.55-.14a5,5,0,0,1,.56-.09c.18,0,.37,0,.55,0h.54l.5,0,.79.09Z"/></g></g><g id="Group_5184" data-name="Group 5184" class="cls-29"><g id="Group_5183" data-name="Group 5183"><g id="Group_5182" data-name="Group 5182"><path id="Path_41279" data-name="Path 41279" class="cls-5" d="M235.2,80.51a2.63,2.63,0,1,0,2.06-3.17,2.63,2.63,0,0,0-2.06,3.17Z"/></g></g></g><g id="Group_5187" data-name="Group 5187" class="cls-29"><g id="Group_5186" data-name="Group 5186"><g id="Group_5185" data-name="Group 5185"><path id="Path_41280" data-name="Path 41280" class="cls-5" d="M253.64,79.38a2.31,2.31,0,0,1-.56.19,2.72,2.72,0,0,1-1-5.33,2.78,2.78,0,0,1,1.28.08A33,33,0,0,1,253.64,79.38Z"/></g></g></g></g><g id="Group_5190" data-name="Group 5190"><g id="Group_5189" data-name="Group 5189"><path id="Path_41281" data-name="Path 41281" class="cls-8" d="M265.91,167.47c-.05.54-.12,1.06-.21,1.55a12.36,12.36,0,0,1-1,3.09,10.21,10.21,0,0,1-2.73,3.52,13.69,13.69,0,0,1-3.26,2,33.24,33.24,0,0,1-6.1,1.84h0a14.36,14.36,0,0,1-1.6.24l-.42,0h-.07l-.17,0h-.48c-.44,0-.89,0-1.35,0l-.88,0c-1.21,0-2.53-.13-3.9-.28-1.64-.19-3.36-.45-5.07-.78l-.21,0-.69-.13c-1.37-.28-2.72-.6-4-1h0l-.21-.06c-.62-.17-1.23-.36-1.82-.54a35.15,35.15,0,0,1-4.06-1.58l-.05,0h0l-.06,0-.7-.35-.16-.08-.86-.51h0a8.71,8.71,0,0,1-1.45-1.11,6,6,0,0,1-.42-.46,3.76,3.76,0,0,1-.39-.59,5.64,5.64,0,0,1-.35-.92,23.1,23.1,0,0,1-.61-3c0-.2,0-.4-.08-.6s-.05-.39-.08-.59c-.07-.61-.14-1.27-.21-2l0-.37a.22.22,0,0,0,0-.08c0-.17,0-.33,0-.5-.09-1-.17-2.08-.25-3.19l-.09-1.47c0-.65-.07-1.31-.11-2,0-.19,0-.39,0-.58l0-.46c0-1-.09-2.07-.13-3.13l0-.38v-.08c0-.17,0-.33,0-.5,0-.39,0-.77,0-1.16s0-1-.05-1.46l-.09-3c0-.33,0-.66,0-1s0-.39,0-.58c0-.52,0-1,0-1.55v-.47c0-.17,0-.33,0-.5,0-1.11,0-2.22-.07-3.3,0-.17,0-.33,0-.5v-.19c0-.16,0-.32,0-.48a2.71,2.71,0,0,0,0-.29c0-.64,0-1.27,0-1.88,0-.2,0-.39,0-.58s0-.38,0-.57c0-1.09-.05-2.14-.07-3.13,0-.13,0-.26,0-.38v-.08c0-.17,0-.34,0-.5,0-.86,0-1.68-.06-2.45,0-.51,0-1-.05-1.45,0-.82-.06-1.55-.09-2.2l0-.24c0-.1,0-.21,0-.31v0c0-.09,0-.18,0-.27a2.83,2.83,0,0,1,0-.29,1.23,1.23,0,0,0,0-.2,25.84,25.84,0,0,1,0-2.64c0-.12,0-.25,0-.37v-.09l0-.5c0-.64.1-1.28.17-1.92,0-.49.11-1,.18-1.46.15-1,.33-2,.54-3,0-.08,0-.16,0-.23s.09-.39.13-.58c.15-.72.32-1.42.49-2.09,0-.08,0-.16,0-.23s.07-.25.1-.37l0-.09c0-.16.08-.33.13-.5s0-.19.07-.28c.31-1.14.62-2.16.89-3,.5-1.59.87-2.57.87-2.57l4.6-.25,3.42-.19,1.07-.06h.21l2.06-.11.18,0h0l1.21-.16.59-.08,2.31-.3,1.21-.16.28,0h0l6.26-.83.85.08.67.06.89.08.53,0,2.21.2.3,0,.36,0,3.37.31,4.29.39s0,.69.15,1.92c.3,3.72,1,12.42,1.76,22.17l0,.46c0,.16,0,.32,0,.49.26,3.32.53,6.74.79,10.12h0c.87,11.3,1.67,22.09,1.93,26.66A21.37,21.37,0,0,1,265.91,167.47Z"/></g></g><g id="Group_5192" data-name="Group 5192"><g id="Group_5191" data-name="Group 5191"><path id="Path_41282" data-name="Path 41282" class="cls-9" d="M238.21,115.07l-1.09-.7s.66-7.42.66-7.42l5.6-.13,1.57,6.77s-1.86,1.76-1.86,1.76l6.76,32.84a2,2,0,0,1-.19,1.35l-8,14.83a.31.31,0,0,1-.41.12.25.25,0,0,1-.11-.12l-8.42-14.82,5.51-34.41S238.23,115.09,238.21,115.07Z"/></g></g><g id="Group_5194" data-name="Group 5194"><g id="Group_5193" data-name="Group 5193"><path id="Path_41283" data-name="Path 41283" class="cls-9" d="M265.7,169c-1.36,7.37-7.37,9.16-13.06,10.43a30.1,30.1,0,0,1-8.89,0,66.65,66.65,0,0,1-10.19-2c-4.84-1.36-8.89-3.21-10-5.28-1.75-3.34-2.17-20.57-2.46-34-.13-5.93-.23-11.13-.41-14.07,3.13,4.75,7.34,11.75,8.39,16.36,1.7,7.4,1.16,13.13,8,16.83l.4.21a16.14,16.14,0,0,0,1.65.72,30.91,30.91,0,0,0,5,1.36l1.38.25c5.7,1,11.16,1.35,12.11,4.73C258.22,166.41,262.15,167.72,265.7,169Z"/></g></g><g id="Group_5196" data-name="Group 5196"><g id="Group_5195" data-name="Group 5195"><path id="Path_41284" data-name="Path 41284" class="cls-35" d="M244.24,113.5l7.24,35.18a.65.65,0,0,1-.06.41l-8,14.9a.53.53,0,0,1-.71.23.54.54,0,0,1-.23-.22l-8.1-14.26a.63.63,0,0,1-.07-.4L240,113.66a.55.55,0,0,1,.51-.48l3.16-.14A.56.56,0,0,1,244.24,113.5Z"/></g></g><g id="Group_5198" data-name="Group 5198"><g id="Group_5197" data-name="Group 5197"><path id="Path_41285" data-name="Path 41285" class="cls-35" d="M244.49,106.82l1.28,5.34a2.14,2.14,0,0,1-.65,2.08l-1.67,1.46a2,2,0,0,1-2.35.2l-1.83-1.13a2.1,2.1,0,0,1-1-2l.6-5.81Z"/></g></g><g id="Group_5200" data-name="Group 5200"><g id="Group_5199" data-name="Group 5199"><path id="Path_41286" data-name="Path 41286" class="cls-8" d="M241.31,99.94l.19,2.1.71,7.82,8.94-8.25-2.53-5.83L246,97.28Z"/></g></g><g id="Group_5202" data-name="Group 5202"><g id="Group_5201" data-name="Group 5201"><path id="Path_41287" data-name="Path 41287" class="cls-8" d="M241.39,100l.51,10-10.81-6.52,2.07-6.51Z"/></g></g><g id="Group_5204" data-name="Group 5204"><g id="Group_5203" data-name="Group 5203"><path id="Path_41288" data-name="Path 41288" class="cls-9" d="M245.86,107.43a.37.37,0,0,1-.36-.39.42.42,0,0,1,.12-.25l5.06-4.68a.37.37,0,0,1,.5.54l-5.06,4.68A.37.37,0,0,1,245.86,107.43Z"/></g></g><g id="Group_5206" data-name="Group 5206"><g id="Group_5205" data-name="Group 5205"><path id="Path_41289" data-name="Path 41289" class="cls-9" d="M237.15,108a.43.43,0,0,1-.22-.06l-5.69-3.65a.37.37,0,1,1,.4-.62l5.69,3.65a.37.37,0,0,1-.18.68Z"/></g></g><g id="Group_5208" data-name="Group 5208"><g id="Group_5207" data-name="Group 5207"><path id="Path_41290" data-name="Path 41290" class="cls-8" d="M291.1,152.41c-1.83,2-4.19,2.71-6.53,1.41a21.06,21.06,0,0,1-4.44-3.37l-.12-.11c-.44-.43-.87-.88-1.31-1.37-3.89-4.3-12.72-17.35-15.16-21l-.32-.47-.32-.48c-3.85-11.63-2.81-19.76-2.1-23,.12-.53.26-1,.43-1.56,0,0,15.13,4,30.83,31.91a17.84,17.84,0,0,1,1.1,2.34C295.55,142.89,294,149.24,291.1,152.41Z"/></g></g><g id="Group_5215" data-name="Group 5215"><g id="Group_5210" data-name="Group 5210"><g id="Group_5209" data-name="Group 5209"><path id="Path_41291" data-name="Path 41291" class="cls-4" d="M233.54,93.08a3.45,3.45,0,0,1-.38.74,6.5,6.5,0,0,1-.79,1,5.33,5.33,0,0,1-.42.4l-.08.07-.11.1c-.31.27-.63.54-1,.8l-.36.29-.68.53c-.25.2-.48.39-.7.59a6.82,6.82,0,0,0-.76.76,1.89,1.89,0,0,0-.2.27l-.27.38a1.79,1.79,0,0,1-.2.26,1.83,1.83,0,0,1-.13.16c-.92,1.07-1.86,1.28-3.23.26a.1.1,0,0,0-.05,0,3.45,3.45,0,0,1-.55-.53,2.77,2.77,0,0,1-.41-.6,3.58,3.58,0,0,1-.13-3.22,2.55,2.55,0,0,1,.23-.43,1.3,1.3,0,0,1,.1-.15l0-.08,0,0h0a19.56,19.56,0,0,1,2.31-2.5l.07-.07.54-.51a.72.72,0,0,0,.17-.21l-.09-.27h0l0-.06c-.35-1-1.45-4-2.56-7.15-1.23-3.5-2.46-7.11-2.6-8a12.07,12.07,0,0,1,.15-2.94c.12-.88.28-1.76.42-2.48a.76.76,0,0,1,1.4-.25,6.72,6.72,0,0,1,1,3.12.34.34,0,0,0,0,.1,12.22,12.22,0,0,0,.7,3.1,15.3,15.3,0,0,0,2.51,4.54,11.36,11.36,0,0,0,3.25,2.81,3.54,3.54,0,0,1,1,1,13,13,0,0,1,1.92,4.7A7,7,0,0,1,233.54,93.08Z"/></g></g><g id="Group_5212" data-name="Group 5212"><g id="Group_5211" data-name="Group 5211"><path id="Path_41292" data-name="Path 41292" class="cls-5" d="M231.9,95.28l-.09.07c-.32.28-.66.54-1,.8l-.38.28-.77.57-.71.56-.16-.28-.63-1.15-.44-.82-.32-.58L227,94,225.9,92v0a6.26,6.26,0,0,0,.52-.51.62.62,0,0,0,.17-.25,1.72,1.72,0,0,0-.05-.2h0l-.05-.14,4.8,3.89.6.48Z"/></g></g><g id="Group_5214" data-name="Group 5214"><g id="Group_5213" data-name="Group 5213"><path id="Path_41293" data-name="Path 41293" class="cls-8" d="M230.93,97.06l-2.28,2.25-.42.41-.12.12-.86.85-.94.92-2.1-2-.55-.53-.39-.37-2.72-2.6,1-.86.64-.58.34-.3,3.63-3.25.28.35,0,0,1.27,1.57,0,.06,1.3,1.61.47.59.89,1.1h0l.29.36Z"/></g></g></g><g id="Group_5217" data-name="Group 5217"><g id="Group_5216" data-name="Group 5216"><path id="Path_41294" data-name="Path 41294" class="cls-8" d="M229,102.14v.41a.91.91,0,0,1,0,.17,1.09,1.09,0,0,1,0,.18,2.62,2.62,0,0,1,0,.28c0,.44-.07.89-.14,1.35s-.15,1-.25,1.54-.17.83-.27,1.25c-.16.66-.35,1.34-.55,2h0l-.16.5,0,.09a3.58,3.58,0,0,0-.11.35s0,.09-.05.13a.56.56,0,0,1,0,.12c-.22.68-.47,1.38-.73,2.08-.08.2-.15.39-.23.58l-.09.25c-.39,1-.8,2-1.26,3-.22.49-.45,1-.69,1.49s-.61,1.28-.94,1.92l-.25.49,0,.09c-.07.12-.13.24-.19.36-.49.94-1,1.89-1.54,2.83l-.17.29-.13.23,0,.06c-.05.09-.1.18-.16.27s-.1.18-.16.27-.17.31-.27.46c-.34.58-.69,1.17-1.05,1.75-.09.15-.18.3-.28.45h0c-.12.19-.23.38-.35.56s-.18.28-.26.42c-.45.69-.9,1.39-1.36,2.07l-.23.35-.09.13-.25.38-.05.07c-.09.13-.18.26-.26.39l-2.46,3.66-.82,1.21h0l-.66,1-.25.36-.06.1c-.13.17-.25.35-.37.52l-.23.32-.06.1a.55.55,0,0,1-.06.08l-.29.4-.58.8-.06.08c-.49.68-1,1.32-1.44,1.92s-.86,1.07-1.27,1.55h0l-.08.09c-.45.52-.9,1-1.33,1.43a14.45,14.45,0,0,1-1.73,1.49h0a5.37,5.37,0,0,1-4.88,1.14h0l-.19-.06h0c-1.41-.48-2.76-2-3.79-4.16-.15-.33-.3-.68-.45-1l-.21-.58c-.18-.52-.35-1.05-.49-1.62a3,3,0,0,1-.08-.32.19.19,0,0,1,0-.08c0-.17-.08-.33-.12-.5-.11-.52-.2-1-.28-1.59a2.91,2.91,0,0,1,0-.31h0a.68.68,0,0,1,0-.14c0-.34-.08-.67-.1-1-.06-.66-.08-1.34-.09-2,0-.42,0-.84,0-1.26,0-.1,0-.19,0-.29s0-.39,0-.58c.07-.78.17-1.56.32-2.36,0-.1,0-.21,0-.31s0-.06,0-.09l.09-.43s0,0,0-.07c.09-.42.2-.84.31-1.27l.21-.72c.09-.29.19-.58.29-.87s.31-.87.49-1.3.44-1,.7-1.54c.11-.23.23-.46.35-.68l.12-.24.32-.58c.3-.53.63-1.1,1-1.72.06-.1.12-.21.19-.31a.22.22,0,0,1,0-.08l.3-.5c.36-.61.76-1.24,1.17-1.91l.23-.37c.81-1.28,1.69-2.64,2.6-4l.19-.29.38-.58,1.39-2.08.21-.31.2-.28,0-.09.34-.49c.57-.85,1.15-1.68,1.72-2.49h0l.51-.73.5-.7c.37-.53.75-1,1.11-1.54h0l1-1.31.06-.08.24-.32c.4-.54.79-1,1.15-1.5l.06-.07c.16-.21.32-.42.48-.61l0,0,.09-.11.14-.18.4-.47c.38-.46.73-.85,1-1.17l0,0a11,11,0,0,1,1.41-1.23h0A10.45,10.45,0,0,1,217.69,95a9.79,9.79,0,0,1,1.12-.37l.09,0a9.27,9.27,0,0,1,3.63-.25,8.37,8.37,0,0,1,1,.21h0l.37.11a9,9,0,0,1,1.39.6l.11.06a10.7,10.7,0,0,1,1.47,1,5,5,0,0,1,1,1.15,1.74,1.74,0,0,1,.11.18,4.65,4.65,0,0,1,.32.63,5.82,5.82,0,0,1,.35,1c.06.22.12.45.16.68a11.85,11.85,0,0,1,.18,2A.41.41,0,0,0,229,102.14Z"/></g></g><g id="Group_5219" data-name="Group 5219"><g id="Group_5218" data-name="Group 5218"><path id="Path_41295" data-name="Path 41295" class="cls-9" d="M220.72,124.15s-.08.37-.23,1c-1.05,1.77-2.15,3.53-3.3,5.25-8.16,12.18-12.62,19.21-17.71,17.47-4.63-1.58-8.6-14.24-2.77-25.16.78-1.47,2-3.47,3.38-5.71-1,5-.89,10.26,2.78,13.07C211.31,136.54,220.72,124.15,220.72,124.15Z"/></g></g><g id="Group_5228" data-name="Group 5228"><g id="Group_5221" data-name="Group 5221"><g id="Group_5220" data-name="Group 5220"><path id="Path_41296" data-name="Path 41296" class="cls-6" d="M338.34,232.13l7.2,22.94c11.43-.76,21.94-.41,33.36-.93-.25-4.58-4.49-8.6-8.6-9.29s-9.39,1.3-12.44-2.43c-1.75-2.13-5.08-8.36-5.37-11.57C347.83,232,343,231.37,338.34,232.13Z"/></g></g><g id="Group_5223" data-name="Group 5223"><g id="Group_5222" data-name="Group 5222"><path id="Path_41297" data-name="Path 41297" class="cls-7" d="M355.88,236l-2.27.81h0l-4,1.44-10,3.59h0l-.28.1q-1.49-1.86-2.89-3.72c-3.78-4.94-7.23-9.86-10.61-14.78l-3.32-4.88-2.26-3.32-.18-.26-.16-.24-.06-.09-.37-.54-2.08-3-.22-.32-.76-1.1-.93-1.34-.73-1h0l-.16-.23c-.19-.27-.37-.53-.54-.8-3-4.58-3.1-8.06-4.54-12.7l0-.08c.1.32-1.71,1.73-4.61,3.7-1.67,1.14-3.71,2.46-5.95,3.87l-.59.38-.6.37-1.53.95-.39.23-1.55,1-1.28.77h0l0,0-.13.08-.7.42-.88.52c-1.72,1-3.46,2-5.17,3l-1.15.66-2.33,1.29-.07,0h0l-.28.15-.05,0-2,1.06-.4.21-.79.42-.39.2c-.85.44-1.67.85-2.44,1.22h0c-.85.42-1.65.79-2.38,1.1l-.85.36a14.27,14.27,0,0,1-2.22.69,37,37,0,0,1-5.15.81l-.14,0-.61.05c-.75.06-1.49.11-2.22.14-.9,0-1.79.06-2.63.05l-2.84,0-.71,0h-.71l-1.91-.06-1.45-.06h0c-2-.1-4.06-.22-6.1-.39s-3.77-.35-5.58-.58l-.15,0-.49-.06-.16,0h0l-1.06-.15-.25,0c-.86-.13-1.71-.28-2.52-.43l-.24,0-1.76-.38-.92-.22h0c-.84-.19-.55-.14-.73-.21h0c-.1,0-.34-.12-.94-.3.08-.61.16-1.23.23-1.85,0-.21.05-.42.07-.63s.07-.64.11-1l.06-.63c.05-.43.09-.86.13-1.29,0-.18,0-.36.05-.54s0-.25,0-.37a.28.28,0,0,1,0-.09l0-.39a.77.77,0,0,1,0-.15h0v-.11s0-.05,0-.08l.15-1.69.27-3,0-.45c0-.38.07-.77.11-1.15l.06-.62c0-.18,0-.35,0-.52v-.1c0-.2,0-.39.05-.58s0-.24,0-.36a.28.28,0,0,1,0-.09l0-.41V198c.05-.53.09-1,.13-1.55l.09-.88v0h0a1.79,1.79,0,0,1,0-.23c0-.17,0-.35,0-.52v0h0c0-.49.09-1,.13-1.41v-.08l.06-.55,0-.33c.05-.5.1-1,.14-1.49l.06-.62,0-.27c.1-1.14.21-2.26.32-3.44h0l0-.36v-.09c0-.18,0-.35,0-.53,0-.42.07-.83.1-1.24l0-.17.06-.73c0-.12,0-.24,0-.36,0-.33,0-.66.08-1,0-.12,0-.25,0-.37l0-.35a1.74,1.74,0,0,1-.39.05,2.7,2.7,0,0,1,.39-.08s0-.05,0-.08a2,2,0,0,1,.35,0l.07,0h0l.79-.12,2.69-.46c1.44-.25,2.9-.51,4.95-.83a.28.28,0,0,0,.18-.14l0,0a2,2,0,0,0,.15-.29c.11-.23.24-.52.41-.84h0c.12-.21.25-.42.39-.62l0-.05a3.76,3.76,0,0,1,.74-.75,3.4,3.4,0,0,1,1.18-.57,4.1,4.1,0,0,1,.48-.1l1.84-.26,1.95-.28.56-.09,4.79-.72.33-.06.38-.05.21,0,.14,0,1.11-.17,5.69-.9,7.59-1.24,3.31-.54,7.52-1.24c8.35-1.38,16.11-2.67,21.26-3.48,3-.47,5.13-.78,5.95-.84h2.16c.39,0,.74,0,1.09,0h0l.35,0h0l.17,0,.18,0h0l.35.07h0l.24.06.13,0,.24.08.15.05.09,0,.15.06.2.08.21.09.29.14c.2.1.4.2.62.33s.68.4,1.06.64c3.09,2,2.32,2,6,6.25a71,71,0,0,1,4.86,6.44l.43.63c1.52,2.3,3,4.72,4.36,7.22h0c.1.17.2.35.29.53l.06.1.13.25c.65,1.18,1.28,2.37,1.9,3.58l.37.71.32.63c.24.48.48,1,.71,1.43l.35.7.21.43.39.8.07.15a1.59,1.59,0,0,1,.08.18l.48,1,.13.28.37.78.69,1.48,0,.08.21.46,0,.09c.05.09.09.18.13.27.55,1.19,1.1,2.38,1.64,3.57l.15.34.28.63v0c0,.11.1.23.16.34l1.56,3.49c.5,1.12,1,2.24,1.5,3.34.08.19.16.36.24.54l0,.09.14.3c.54,1.2,1.08,2.4,1.62,3.58.07.16.15.33.22.5.67,1.45,1.34,2.89,2,4.3l.18.38c1,2.16,2.08,4.25,3.14,6.25l.28.52C355.29,234.83,355.88,236,355.88,236Z"/></g></g><g id="Group_5225" data-name="Group 5225"><g id="Group_5224" data-name="Group 5224"><path id="Path_41298" data-name="Path 41298" class="cls-6" d="M317.13,173.11c-.09,2.39-.65,5-3.16,5.25-3.43.29-4.49-4-4.71-6.8a13.64,13.64,0,0,1,.4-5.09l.24,0h1.91c.39,0,.75,0,1.1,0h0l.36,0h0l.17,0,.18,0h0l.35.07h0l.24.06.12,0,.25.08.15,0,.09,0,.15,0,.2.09.21.09.29.13c.2.1.4.2.61.33a10.09,10.09,0,0,1,.83,3.19C317.14,171.4,317.17,172.24,317.13,173.11Z"/></g></g><g id="Group_5227" data-name="Group 5227"><g id="Group_5226" data-name="Group 5226"><path id="Path_41299" data-name="Path 41299" class="cls-6" d="M336.48,238.9l-.5-1.16c.11-.05,11.54-5,16.9-7.48l.53,1.15C348,233.85,336.59,238.85,336.48,238.9Z"/></g></g></g><g id="Group_5230" data-name="Group 5230" class="cls-29"><g id="Group_5229" data-name="Group 5229"><path id="Path_41300" data-name="Path 41300" class="cls-6" d="M320.28,215.22l-.16-.23-.16-.24-.07-.09-.37-.54q-1-1.53-2.1-3.06l-.2-.3q-.36-.54-.75-1.08c-.32-.48-.66-1-1-1.43l-.69-1a1.88,1.88,0,0,1-.16-.23c-.19-.26-.36-.52-.53-.77-3-4.62-3.11-8.12-4.58-12.81a.2.2,0,0,1,0,.11c-.21.46-2,1.8-4.64,3.62-2.34,1.58-5.37,3.53-8.67,5.56l-.39.24-1.55,1-1.28.77,0,0-.13.08-.7.42-.88.52c-1.72,1-3.46,2-5.17,3l-1.16.66-2.32,1.29-.08,0h0l-.28.15,0,0-2,1.07-1.58.82c-.85.44-1.67.85-2.45,1.23s-1.67.79-2.41,1.11h0l-.78.33a15.72,15.72,0,0,1-2.27.7,38.54,38.54,0,0,1-5.13.8h-.14l-.62.06c-.74.06-1.49.1-2.22.14-.89,0-1.75.05-2.58.05l-2.9,0c-1.06,0-2.16-.06-3.28-.1l-6.53-17.23,2.08-.12-7.23-22.2L257.11,175l.12-.18,1.11-.17,5.68-.9a25.75,25.75,0,0,0,.65,3c.15.56.32,1.11.51,1.64a25.56,25.56,0,0,0,14.16,15.06,25.24,25.24,0,0,0,14.13,1.63l.88-.17.21-.05c3.86-.82,6.78-1.5,9-2l.17,0c5.82-1.43,6.59-1.92,6.59-1.92l5.24,12.76,1.06,2.6.26.63,1.58,3.85,1.37,3.35.23.54,0,.09.1.24Z"/></g></g><g id="Group_5232" data-name="Group 5232"><g id="Group_5231" data-name="Group 5231"><path id="Path_41301" data-name="Path 41301" class="cls-6" d="M242.39,315.41,238,338h35.36s-.53-8.76-8.24-9.89-10.13.49-12.69-2.13c-1.46-1.5,1.13-10.59,1.13-10.59Z"/></g></g><g id="Group_5234" data-name="Group 5234"><g id="Group_5233" data-name="Group 5233"><path id="Path_41302" data-name="Path 41302" class="cls-7" d="M268.6,251c0-.75-.05-1.47-.1-2.13a22.49,22.49,0,0,0-.32-2.45c-1.73-8.5-10.39-29.66-17.43-46.1a19.76,19.76,0,0,0,2.31-8.7,101.07,101.07,0,0,0-.8-15.45l-16.59,1.09-8-2-2,3.63a41.19,41.19,0,0,0-1.73,36.66c2.24,5.09,4.44,9.67,5.82,11.5,1.12,1.47,2.3,3.06,3.5,4.74,5.81,8.1,12,18.12,12.49,25.54s-4.33,46.11-6,59.2a1.36,1.36,0,0,0,0,.2c0,.12,0,.23,0,.34v.06h0c0,.33-.08.64-.11.93h0c0,.2-.06.39-.08.57s0,.45-.08.64l0,.23h0c0,.06,0,.12,0,.18s0,.28,0,.4l0,.13c0,.2-.05.36-.06.47a.31.31,0,0,0,0,.09l0,.09,2.76.39,4.21.6,4.89.7,6.61.95S269,271.08,268.6,251Z"/></g></g><g id="Group_5236" data-name="Group 5236"><g id="Group_5235" data-name="Group 5235"><path id="Path_41303" data-name="Path 41303" class="cls-6" d="M268.9,249.93c.05,1.77-2.69,3.37-6.11,3.57s-6.25-1.07-6.3-2.84,2.68-3.36,6.11-3.57S268.84,248.16,268.9,249.93Z"/></g></g><g id="Group_5238" data-name="Group 5238"><g id="Group_5237" data-name="Group 5237"><rect id="Rectangle_2939" data-name="Rectangle 2939" class="cls-6" x="248.53" y="309" width="1.06" height="18.95" transform="translate(-101.35 520.14) rotate(-81.89)"/></g></g><g id="Group_5240" data-name="Group 5240" class="cls-29"><g id="Group_5239" data-name="Group 5239"><path id="Path_41304" data-name="Path 41304" class="cls-6" d="M245.77,257.18c-.57-9-9.49-21.7-16-30.28-2.35-3.1-4.76-8.57-6.88-14.29a40.68,40.68,0,0,1,4.78-37.34h0s-.64,13.13,3.08,25.12c5.39,17.31,16,35.89,18.18,39.6,3.32,5.67,5.52,10.54,4.7,21.58-1,13.37-5.53,46.66-7.48,60.31l-7-1S246.34,266.14,245.77,257.18Z"/></g></g><g id="Group_5247" data-name="Group 5247"><g id="Group_5242" data-name="Group 5242"><g id="Group_5241" data-name="Group 5241"><path id="Path_41305" data-name="Path 41305" class="cls-6" d="M266.57,175.08l-4.57.55-3.73.44-5.94.71-1.31.16-.38.05-.28,0-.94.11h-.06l-4.5.53-6,.72-1.06.13-1,.12-4.29.51-2.53.3-.59.07-1.73.2-1,.13a1.65,1.65,0,0,1-1.16-.3l-.12-.1-.15-.15a1.68,1.68,0,0,1-.38-.82v-.06l-.11-.95-.07-.59-.19-1.57,0-.36v-.08l-.06-.5,0-.3a1.63,1.63,0,0,1,.1-.79,1.92,1.92,0,0,1,.27-.46,1.64,1.64,0,0,1,1.06-.57h.12l.23,0,.15,0,2.2-.26.78-.1,4.67-.55,1.67-.2.09,0h.05l13.3-1.59.68-.08.68-.08.2,0,.46-.05.42,0,.25,0,.41-.05,9.93-1.19.54-.06,3.1-.37h.24a1.64,1.64,0,0,1,1.58,1.44l.12,1,.2,1.65.2,1.66a1.63,1.63,0,0,1-1.42,1.82Z"/></g></g><g id="Group_5244" data-name="Group 5244"><g id="Group_5243" data-name="Group 5243"><path id="Path_41306" data-name="Path 41306" class="cls-36" d="M242,178.15h0a2.3,2.3,0,0,1-2.29-2l-.38-3.19a2.3,2.3,0,0,1,2-2.56l8.76-1.05a2.31,2.31,0,0,1,2.56,2l.38,3.18a2.31,2.31,0,0,1-2,2.57l-8.76,1Zm8.38-7.67h-.14l-8.76,1a1.14,1.14,0,0,0-1,1.26l.38,3.19a1.14,1.14,0,0,0,1.13,1h.13l8.76-1.05a1.14,1.14,0,0,0,1-1.26l-.38-3.18a1.14,1.14,0,0,0-1.13-1Z"/></g></g><g id="Group_5246" data-name="Group 5246"><g id="Group_5245" data-name="Group 5245"><path id="Path_41307" data-name="Path 41307" class="cls-37" d="M242,177h0a1.14,1.14,0,0,1-1.13-1l-.38-3.18a1.14,1.14,0,0,1,1-1.26h0l8.76-1.05a1.14,1.14,0,0,1,1.26,1h0l.38,3.19a1.13,1.13,0,0,1-1,1.26h0l-8.76,1Zm-.34-4.28.37,3.1,8.68-1-.37-3.1Z"/></g></g></g><g id="Group_5249" data-name="Group 5249"><g id="Group_5248" data-name="Group 5248"><path id="Path_41308" data-name="Path 41308" class="cls-4" d="M283.22,205.53c-3.25,4.51-13.34,9-14.14,6.42s2.67-9.62,3.67-14.19c.08-.35.18-.71.28-1.08-1.7.6-3.9,2.19-6.24,2.57-3.67.57-3.89-2.13-3.89-2.13s4.39-1,6.18-2.7c.94-.86,3.33-3.32,5.39-5.45l3.48-3.63s0,.41-.09,1.07l6.72,1.41.08.65c.11.91.3,2.7.4,4.81C285.26,197.47,285.09,202.94,283.22,205.53Z"/></g></g><g id="Group_5251" data-name="Group 5251"><g id="Group_5250" data-name="Group 5250"><path id="Path_41309" data-name="Path 41309" class="cls-8" d="M295.6,161.77c-.2,1.29-.44,2.58-.69,3.86l-.33,1.59h0c-2.14,9.8-2.7,16.05-6.37,18.31h0a7.62,7.62,0,0,1-4.41.94c-2.45-.09-5.32-2.55-7.14-6.64h0a22.58,22.58,0,0,1-1.85-9.38,28.06,28.06,0,0,1,.18-2.91c.17-1.48.5-3.53.94-5.87.26-1.34.54-2.77.84-4.23.6-2.84,1.27-5.8,1.93-8.47h0c.27-1.09.54-2.12.8-3.08l0-.1a46.22,46.22,0,0,1,1.54-4.89,9.48,9.48,0,0,1,3.16-4.06,8.2,8.2,0,0,1,3.3-1.47,7.73,7.73,0,0,1,3.93.31,4.48,4.48,0,0,1,1.71,1C297,140.27,297.34,150.78,295.6,161.77Z"/></g></g><g id="Group_5253" data-name="Group 5253"><g id="Group_5252" data-name="Group 5252"><path id="Path_41310" data-name="Path 41310" class="cls-5" d="M285.07,193.29,274.47,189c1.88-1.95,3.48-3.63,3.48-3.63s0,.41-.09,1.07l6.72,1.42s0,.23.08.65C284.77,189.38,285,191.17,285.07,193.29Z"/></g></g><g id="Group_5255" data-name="Group 5255"><g id="Group_5254" data-name="Group 5254"><path id="Path_41311" data-name="Path 41311" class="cls-8" d="M276.78,179.09l-1.48,9,9.69,4,4.24-8.58Z"/></g></g><g id="Group_5257" data-name="Group 5257"><g id="Group_5256" data-name="Group 5256"><path id="Path_41312" data-name="Path 41312" class="cls-9" d="M286,185.65a12.59,12.59,0,0,1-3.3-.41c-2.49-.67-5.36-3.64-5.48-3.77a.37.37,0,0,1,0-.52.37.37,0,0,1,.51,0s2.85,2.95,5.14,3.57a13.22,13.22,0,0,0,4.65.29.37.37,0,0,1,.1.73A11.2,11.2,0,0,1,286,185.65Z"/></g></g><g id="Group_5259" data-name="Group 5259"><g id="Group_5258" data-name="Group 5258"><path id="Path_41313" data-name="Path 41313" class="cls-9" d="M228.35,101.33A.37.37,0,0,1,228,101a10,10,0,0,0-1.75-4.21,3.91,3.91,0,0,0-3.46-1.59.38.38,0,0,1-.42-.32.37.37,0,0,1,.32-.42,4.68,4.68,0,0,1,4.15,1.89,10.56,10.56,0,0,1,1.89,4.56.37.37,0,0,1-.32.41Z"/></g></g><g id="Group_5261" data-name="Group 5261"><g id="Group_5260" data-name="Group 5260"><path id="Path_41314" data-name="Path 41314" class="cls-9" d="M280.13,150.45v0a14.2,14.2,0,0,1-3.25,7.11c.6-2.84,1.27-5.8,1.93-8.48l-.11-.12c-4.3-4.73-11.41-11.33-15.15-21-.13-.31-.25-.63-.36-1s-.19-.54-.28-.82l.24.36c3.72,5.28,12.69,13.05,15.5,17.53a11,11,0,0,1,.87,1.71l.09.22A9.56,9.56,0,0,1,280.13,150.45Z"/></g></g></g></g></g><g id="Group_5265" data-name="Group 5265"><g id="编组"><path id="Clip_834-2" data-name="Clip 834-2" class="cls-1" d="M348,77.14a3.27,3.27,0,0,0-3.31,3.23h0v8.21h121.7V80.37a3.26,3.26,0,0,0-3.3-3.23Z"/><g class="cls-38"><g id="编组-2"><path id="Fill_833" data-name="Fill 833" class="cls-39" d="M344,89.25H467V76.47H344Z"/></g></g></g><g id="编组-3"><path id="Clip_836-2" data-name="Clip 836-2" class="cls-1" d="M349.08,82.51a2,2,0,0,0,2.06,2h0a2,2,0,0,0,2.06-2h0a2,2,0,0,0-2.06-2h0a2,2,0,0,0-2.06,2Z"/><g class="cls-40"><g id="编组-4"><path id="Fill_835" data-name="Fill 835" class="cls-41" d="M348.41,85.21h5.46V79.82h-5.46Z"/></g></g></g><g id="编组-5"><path id="Clip_838-2" data-name="Clip 838-2" class="cls-1" d="M356.78,82.51a2.05,2.05,0,0,0,2.07,2h0a2,2,0,0,0,2.06-2h0a2,2,0,0,0-2.06-2h0a2,2,0,0,0-2.07,2Z"/><g class="cls-42"><g id="编组-6"><path id="Fill_837" data-name="Fill 837" class="cls-43" d="M356.12,85.21h5.46V79.82h-5.46Z"/></g></g></g><g id="编组-7"><path id="Clip_840-2" data-name="Clip 840-2" class="cls-1" d="M364.49,82.51a2.05,2.05,0,0,0,2.06,2h0a2.05,2.05,0,0,0,2.06-2h0a2,2,0,0,0-2.06-2h0a2,2,0,0,0-2.07,2Z"/><g class="cls-44"><g id="编组-8"><path id="Fill_839" data-name="Fill 839" class="cls-45" d="M363.82,85.21h5.47V79.82h-5.47Z"/></g></g></g><path id="Clip_842-2" data-name="Clip 842-2" class="cls-1" d="M344.55,88.1v79a3.52,3.52,0,0,0,3.69,3.32H462.72a3.52,3.52,0,0,0,3.69-3.32h0v-79Z"/><g class="cls-46"><g id="编组-9"><path id="Fill_841" data-name="Fill 841" class="cls-47" d="M343.88,188.23h123.2V87.3H343.88Z"/></g></g><g id="编组-10"><path id="Clip_844-2" data-name="Clip 844-2" class="cls-1" d="M354.26,94.14A1.69,1.69,0,0,0,352.78,96h0v82.64a1.69,1.69,0,0,0,1.48,1.84H457.8a1.69,1.69,0,0,0,1.48-1.84h0V96a1.69,1.69,0,0,0-1.48-1.84Z"/><g class="cls-48"><g id="编组-11"><path id="Fill_843" data-name="Fill 843" class="cls-13" d="M352.11,181.3H460v-88H352.11Z"/></g></g></g><g id="编组-12"><path id="Clip_846-2" data-name="Clip 846-2" class="cls-49" d="M362.36,101a1.38,1.38,0,0,0-1.38,1.38h0v6.9a1.38,1.38,0,0,0,1.38,1.38H428.6a1.38,1.38,0,0,0,1.38-1.38h0v-6.9A1.38,1.38,0,0,0,428.6,101H362.36Z"/><g class="cls-50"><g id="编组-13"><path id="Fill_845" data-name="Fill 845" class="cls-49" d="M360.14,111.46h70.68V100.12H360.14Z"/></g></g></g><g id="编组-14"><path id="Clip_848-2" data-name="Clip 848-2" class="cls-49" d="M362.36,134.77a1.38,1.38,0,0,0-1.38,1.38h0v6.9a1.38,1.38,0,0,0,1.38,1.38H387.2a1.37,1.37,0,0,0,1.38-1.37h0v-6.9a1.38,1.38,0,0,0-1.38-1.38H362.36Z"/><g class="cls-51"><g id="编组-15"><path id="Fill_847" data-name="Fill 847" class="cls-49" d="M360.14,145.28h29.28V133.93H360.14Z"/></g></g></g><g id="编组-16"><path id="Clip_850-2" data-name="Clip 850-2" class="cls-49" d="M362.36,119.59A1.38,1.38,0,0,0,361,121h0v6.9a1.38,1.38,0,0,0,1.38,1.38H387.2a1.37,1.37,0,0,0,1.38-1.37h0V121a1.38,1.38,0,0,0-1.38-1.38H362.36Z"/><g class="cls-52"><g id="编组-17"><path id="Fill_849" data-name="Fill 849" class="cls-49" d="M360.14,130.1h29.28V118.75H360.14Z"/></g></g></g><path id="Fill_853" data-name="Fill 853" class="cls-53" d="M437.86,161.91H402.4a.23.23,0,0,1-.2-.25.22.22,0,0,1,.2-.24h35.46a.22.22,0,0,1,.21.24.23.23,0,0,1-.21.25"/><path id="calendar-check" class="cls-54" d="M449.83,129.77l-28.76,28.52a2.42,2.42,0,0,1-3.42,0h0L402.47,143a2.43,2.43,0,0,1,0-3.43l4.6-4.56a2.42,2.42,0,0,1,3.42,0l8.92,9,22.44-22.26a2.43,2.43,0,0,1,3.43,0l4.55,4.59a2.42,2.42,0,0,1,0,3.43Z"/></g></g></svg>