<svg xmlns="http://www.w3.org/2000/svg" width="27" height="20.997" viewBox="0 0 27 20.997">
  <path id="comments" d="M24.928,48.6A6.454,6.454,0,0,0,26.99,44c0-3.75-3.586-6.848-8.258-7.4-1.476-2.7-4.945-4.6-8.99-4.6C4.357,32-.006,35.356-.006,39.5a6.47,6.47,0,0,0,2.062,4.6A12.272,12.272,0,0,1,.289,46.675,1.085,1.085,0,0,0,1.076,48.5a10.773,10.773,0,0,0,5.868-1.819,13.357,13.357,0,0,0,1.331.23C9.747,49.6,13.2,51.5,17.242,51.5a12.406,12.406,0,0,0,2.8-.319A10.8,10.8,0,0,0,25.912,53,1.085,1.085,0,0,0,26.7,51.17,11.945,11.945,0,0,1,24.928,48.6ZM6.518,44.275l-.8.52a9.537,9.537,0,0,1-2.02,1c.127-.22.253-.455.375-.694L4.8,43.647,3.635,42.5a4.3,4.3,0,0,1-1.392-3c0-2.845,3.436-5.249,7.5-5.249s7.5,2.4,7.5,5.249-3.436,5.249-7.5,5.249a10.213,10.213,0,0,1-2.3-.262l-.928-.211ZM23.349,47l-1.158,1.144.726,1.458c.122.239.248.473.375.694a9.537,9.537,0,0,1-2.02-1l-.8-.52-.933.216a10.213,10.213,0,0,1-2.3.262,8.721,8.721,0,0,1-6.154-2.329c4.748-.506,8.4-3.628,8.4-7.419,0-.159-.019-.314-.033-.469,3.018.68,5.282,2.662,5.282,4.968A4.3,4.3,0,0,1,23.349,47Z" transform="translate(0.007 -32)" fill="#fff"/>
</svg>
