<svg xmlns="http://www.w3.org/2000/svg" viewBox="0 0 30.84 30.56"><defs><style>.cls-1{fill:#0c7d94;}</style></defs><g id="罐頭語"><g id="Group_5619" data-name="Group 5619"><g id="Group_5619-2" data-name="Group 5619-2"><path id="Fill_1" data-name="Fill 1" class="cls-1" d="M6.42,29.68h0V23.21A13.24,13.24,0,0,1,2.56,19,11.32,11.32,0,0,1,2.23,8.47a12.68,12.68,0,0,1,3.06-4A14.53,14.53,0,0,1,9.83,1.74a16.08,16.08,0,0,1,11.11,0,14.51,14.51,0,0,1,4.54,2.7,12.68,12.68,0,0,1,3.06,4,11.32,11.32,0,0,1,0,9.84,12.68,12.68,0,0,1-3.06,4A14.32,14.32,0,0,1,20.94,25a15.74,15.74,0,0,1-5.55,1,16.6,16.6,0,0,1-2.64-.23L6.42,29.68Zm9-26.94A13.29,13.29,0,0,0,6.67,5.86,10.64,10.64,0,0,0,4,9.25a9.39,9.39,0,0,0-1,4.14,9.54,9.54,0,0,0,1.43,5A11.36,11.36,0,0,0,8.32,22.1l0,0-.06,4,4.06-2.46h0a14.87,14.87,0,0,0,3,.33,13.22,13.22,0,0,0,8.71-3.13,10.72,10.72,0,0,0,2.64-3.38,9.34,9.34,0,0,0,0-8.28A10.64,10.64,0,0,0,24.1,5.86,13.27,13.27,0,0,0,15.39,2.74Z"/></g><path id="Fill_3" data-name="Fill 3" class="cls-1" d="M15.39,15.27a1.89,1.89,0,1,0-1.89-1.88,1.88,1.88,0,0,0,1.89,1.88"/><path id="Fill_5" data-name="Fill 5" class="cls-1" d="M8.29,11.5a1.89,1.89,0,1,0,1.89,1.89A1.89,1.89,0,0,0,8.29,11.5"/><path id="Fill_7" data-name="Fill 7" class="cls-1" d="M22.48,15.27a1.89,1.89,0,1,0-1.89-1.88,1.89,1.89,0,0,0,1.89,1.88"/></g></g></svg>