<svg xmlns="http://www.w3.org/2000/svg" viewBox="0 0 24.03 24.17"><defs><style>.cls-1{fill:#fff;}.cls-2{fill:#0c7d94;}</style></defs><g id="查核行前規劃"><g id="Group_5622" data-name="Group 5622"><path id="Union_1" data-name="Union 1" class="cls-1" d="M13.5,18.75a4.94,4.94,0,1,1,4.94,4.94h0A4.94,4.94,0,0,1,13.5,18.75Zm-5,.29H1.26c-.61,0-.75-.32-.76-.6s.08-1.9.08-1.92a2.45,2.45,0,0,1,1-1.81,14.92,14.92,0,0,1,2.73-1.46l1.21-.57c1.62-.78,1.84-1,1.84-1.61V11A1.69,1.69,0,0,0,7,10.29a2.79,2.79,0,0,0-.34-.43,4.11,4.11,0,0,1-1-2,11.15,11.15,0,0,1-.23-1.52c0-.37,0-.63,0-.76V5.36A5.2,5.2,0,0,1,6.1,2.72,4.33,4.33,0,0,1,7.87,1.07,5.79,5.79,0,0,1,9.5.53a4.92,4.92,0,0,1,.76-.09h.28a5.07,5.07,0,0,1,.76.09,5.83,5.83,0,0,1,1.62.54A4.35,4.35,0,0,1,14.7,2.72a5.19,5.19,0,0,1,.64,2.64v.26c0,.13,0,.39,0,.76a9.79,9.79,0,0,1-.23,1.52,3.94,3.94,0,0,1-1,2,4.58,4.58,0,0,0-.34.43,1.73,1.73,0,0,0-.3.68.28.28,0,0,0,0,.09c0,.54.43.8,1.73,1.29a.34.34,0,0,1,.23.25c0,.1,0,.19-.18.28a6.69,6.69,0,0,0-3.49,5.58v0a.6.6,0,0,1-.58.55Z"/><path id="Page_1" data-name="Page 1" class="cls-2" d="M21.18,16.42l-3.37,3.41L16,18l-.72.87,2.46,2.48,4.16-4.2Z"/></g></g></svg>