<svg xmlns="http://www.w3.org/2000/svg" viewBox="0 0 28.2 28.62"><defs><style>.cls-1{fill:#e4f1f4;}.cls-2{fill:#0c7d94;}</style></defs><g id="small"><g id="Group_5646" data-name="Group 5646"><g id="Path_41365" data-name="Path 41365"><path class="cls-1" d="M14,27.06A12.75,12.75,0,0,1,5,5.29a12.75,12.75,0,0,1,18,18A12.67,12.67,0,0,1,14,27.06Z"/><path class="cls-2" d="M14,2.31A12,12,0,0,0,5.55,22.79a12,12,0,0,0,17-17A12,12,0,0,0,14,2.31m0-1.5A13.5,13.5,0,1,1,.53,14.31,13.49,13.49,0,0,1,14,.81Z"/></g><path id="code-branch" class="cls-2" d="M21.42,10.77a2.5,2.5,0,1,0-3.2,2.4,1.9,1.9,0,0,1-.35,1.15c-.48.6-1.54.7-2.66.8a7.63,7.63,0,0,0-2.54.53v-4.5a2.49,2.49,0,1,0-1.5,0v6.23A2.5,2.5,0,1,0,14.31,19a2.53,2.53,0,0,0-1.49-1.59,1.07,1.07,0,0,1,.47-.42,6.33,6.33,0,0,1,2.06-.4c1.32-.12,2.82-.26,3.7-1.35a3.43,3.43,0,0,0,.67-2.12A2.52,2.52,0,0,0,21.42,10.77Zm-9.5,9.5a.5.5,0,0,1-.5-.5.5.5,0,0,1,.5-.5.5.5,0,0,1,.5.5A.51.51,0,0,1,11.92,20.27Z"/></g></g></svg>