<svg id="圖層_1" data-name="圖層 1" xmlns="http://www.w3.org/2000/svg" viewBox="0 0 55.71 55.57"><defs><style>.cls-1{fill:#0c7d94;opacity:0.7;isolation:isolate;}.cls-2{fill:#fff;}</style></defs><circle id="Oval_3" data-name="Oval 3" class="cls-1" cx="27.78" cy="27.92" r="27"/><path id="Shape" class="cls-2" d="M18.36,15.92a1.48,1.48,0,0,0-1.58,1.34,1.48,1.48,0,0,0,1.58,1.33H37.21a1.46,1.46,0,0,0,1.57-1.33,1.47,1.47,0,0,0-1.57-1.34ZM27.9,22.8,19.9,30c-.63.56-.42,1,.47,1h4.86v7.5a1.55,1.55,0,0,0,1.62,1.44h3.24a1.53,1.53,0,0,0,1.62-1.44V31h4.86c.9,0,1.11-.46.48-1l-8-7.15a.89.89,0,0,0-1.15,0Z"/></svg>