<svg xmlns="http://www.w3.org/2000/svg" viewBox="0 0 23.22 23.34"><defs><style>.cls-1{fill:#0c7d94;}.cls-2{fill:#fff;}</style></defs><g id="圖層_6" data-name="圖層 6"><path id="Path_35" data-name="Path 35" class="cls-1" d="M11.6.71a11,11,0,1,0,11,11A11,11,0,0,0,11.6.71Z"/><path id="info" class="cls-2" d="M9.88,15.74h.49V12.23H9.88a.49.49,0,0,1-.48-.49h0V10.58a.49.49,0,0,1,.48-.49h2.73a.48.48,0,0,1,.48.49h0v5.16h.49a.47.47,0,0,1,.48.48h0v1.16a.48.48,0,0,1-.48.49H9.88a.49.49,0,0,1-.48-.49V16.23a.48.48,0,0,1,.48-.49ZM11.73,5.43a1.75,1.75,0,1,0,1.75,1.75,1.75,1.75,0,0,0-1.75-1.75Z"/></g></svg>