<svg xmlns="http://www.w3.org/2000/svg" viewBox="0 0 28.2 28.62"><defs><style>.cls-1{fill:#fff;}.cls-2{fill:none;stroke:#0c7d94;stroke-width:1.5px;}.cls-3{fill:#0c7d94;}</style></defs><g id="small"><g id="Rectangle_2859" data-name="Rectangle 2859"><path class="cls-1" d="M14,.81h0a13.49,13.49,0,0,1,13.5,13.5h0A13.5,13.5,0,0,1,14,27.81h0A13.51,13.51,0,0,1,.53,14.31h0A13.5,13.5,0,0,1,14,.81Z"/><path class="cls-2" d="M14,1.56h0A12.75,12.75,0,0,1,26.78,14.31h0A12.75,12.75,0,0,1,14,27.06h0A12.75,12.75,0,0,1,1.28,14.31h0A12.75,12.75,0,0,1,14,1.56Z"/></g><path id="check" class="cls-3" d="M11.31,20.24,5.78,14.71a.85.85,0,0,1,0-1.2L7,12.31a.85.85,0,0,1,1.2,0L11.9,16l8-8a.85.85,0,0,1,1.2,0l1.2,1.2a.85.85,0,0,1,0,1.2l-9.76,9.78a.85.85,0,0,1-1.2,0Z"/></g></svg>