<svg xmlns="http://www.w3.org/2000/svg" viewBox="0 0 27.78 27.65"><defs><style>.cls-1,.cls-2{fill:#0c7d94;stroke:#0c7d94;}.cls-1{stroke-width:0.5px;}.cls-2{stroke-miterlimit:10;}</style></defs><g id="查核行前規劃"><g id="Component_227_8" data-name="Component 227 8"><path id="path-1" class="cls-1" d="M25.25,27H2.61A1.85,1.85,0,0,1,.75,25.14V2.49A1.85,1.85,0,0,1,2.61.64H25.25a1.85,1.85,0,0,1,1.86,1.85V25.14A1.86,1.86,0,0,1,25.25,27ZM2.61,2.49V25.14H25.25V2.49Z"/><path id="Combined_Shape" data-name="Combined Shape" class="cls-2" d="M13.75,20.62v-6H7.54a.9.9,0,0,1-.79-1,.9.9,0,0,1,.79-1h6.21V7.42a.91.91,0,0,1,1-.78.9.9,0,0,1,1,.78v5.22h5a.9.9,0,0,1,.78,1,.89.89,0,0,1-.78,1h-5v6a.9.9,0,0,1-1,.78A.91.91,0,0,1,13.75,20.62Z"/></g></g></svg>