<svg id="圖層_1" data-name="圖層 1" xmlns="http://www.w3.org/2000/svg" viewBox="0 0 26.92 22.85"><defs><style>.cls-1{fill:#066d81;}.cls-2,.cls-3{fill:none;}.cls-3{stroke:#fff;stroke-linecap:round;stroke-linejoin:round;stroke-width:2px;}</style></defs><path id="Path_41371" data-name="Path 41371" class="cls-1" d="M13.29,2.68,5.5,11.07l.9,1.28v6.2L7.61,20.5h11.6l1.35-1.95V11.07Z"/><path id="Path_372" data-name="Path 372" class="cls-2" d="M1.29-.66h24v24h-24Z"/><path id="Path_373" data-name="Path 373" class="cls-3" d="M6.29,11.34h-2l9-9,9,9h-2"/><path id="Path_374" data-name="Path 374" class="cls-3" d="M6.29,11.34v7a2,2,0,0,0,2,2h10a2,2,0,0,0,2-2v-7"/><path id="Path_375" data-name="Path 375" class="cls-3" d="M10.29,20.34v-6a2,2,0,0,1,2-2h2a2,2,0,0,1,2,2v6"/></svg>