<svg id="下載" xmlns="http://www.w3.org/2000/svg" width="21.088" height="21.371" viewBox="0 0 21.088 21.371">
  <path id="Path_40992" data-name="Path 40992" d="M8.509.189a.5.5,0,0,0-.789,0L.127,9.046C-.09,9.3-.022,9.5.277,9.5H3.429a.617.617,0,0,1,.544.668v6.709a.616.616,0,0,0,.545.666h7.194a.616.616,0,0,0,.544-.666V10.172A.617.617,0,0,1,12.8,9.5h3.151c.3,0,.368-.206.15-.459Z" transform="translate(18.659 17.548) rotate(180)" fill="#23c4a8"/>
  <path id="Path_40993" data-name="Path 40993" d="M48.488,870.916v5.806H31.543v-5.806H29.472v8.235H50.56v-8.235Z" transform="translate(-29.472 -857.78)" fill="#23c4a8"/>
</svg>
