<svg id="圖層_1" data-name="圖層 1" xmlns="http://www.w3.org/2000/svg" viewBox="0 0 61.9 61.47"><defs><style>.cls-1{fill:#e4f1f4;}.cls-2{fill:#fff;}</style></defs><g id="Group_4599" data-name="Group 4599"><g id="Group_4600" data-name="Group 4600"><circle id="Ellipse_59" data-name="Ellipse 59" class="cls-1" cx="31.01" cy="30.84" r="30"/><g id="Group_4592" data-name="Group 4592"><path id="Path_40992" data-name="Path 40992" class="cls-2" d="M32.3,17.44a.85.85,0,0,0-1.15,0L20,28.05c-.32.3-.21.54.22.54h4.63a.8.8,0,0,1,.8.8v8a.8.8,0,0,0,.8.8H37a.8.8,0,0,0,.8-.8v-8a.8.8,0,0,1,.8-.8h4.62c.44,0,.54-.24.22-.54Z"/><path id="Path_40993" data-name="Path 40993" class="cls-2" d="M43.63,34.4v7H19.83v-7H16.92v9.87H46.54V34.4Z"/></g></g></g></svg>