<svg id="圖層_1" data-name="圖層 1" xmlns="http://www.w3.org/2000/svg" viewBox="0 0 102.4 78.46"><defs><style>.cls-1{fill:#fec3a5;}.cls-2{fill:#7560ab;}.cls-3{fill:#6c599e;}.cls-4{fill:#4e3a82;}.cls-5{fill:#8f79c7;}.cls-6{fill:#42306e;}.cls-7{fill:#7fbaba;}.cls-8{fill:#86c4c4;}.cls-9{fill:#fff;}</style></defs><g id="Group_4738" data-name="Group 4738"><g id="Group_4736" data-name="Group 4736"><g id="Group_4730" data-name="Group 4730"><path id="Path_41103" data-name="Path 41103" class="cls-1" d="M55.84,20.5l1.7-2.16a1.23,1.23,0,0,1,.37-.31l2.3-1.28a.48.48,0,0,1,.65.18.53.53,0,0,1,.06.24h0a.47.47,0,0,1-.19.38l-1.44,1.09a1.14,1.14,0,0,0-.28.3l-1.56,2.37Z"/><path id="Path_41104" data-name="Path 41104" class="cls-2" d="M47.12,18.81h0a6.55,6.55,0,0,1,1,1l3.57,4.27,4.77-5,2,1.12a14.17,14.17,0,0,1-4.34,8.61,5.34,5.34,0,0,1-3,1.68c-2.62.2-5.51-2.8-7.19-7.62l-.12-5.52,1,.28A6.36,6.36,0,0,1,47.12,18.81Z"/><path id="Path_41105" data-name="Path 41105" class="cls-3" d="M46,23.1a10.23,10.23,0,0,0-.53,3c1.64,2.88,3.76,4.54,5.73,4.39a2.35,2.35,0,0,0,.53-.09Z"/></g><g id="Group_4731" data-name="Group 4731"><path id="Path_41106" data-name="Path 41106" class="cls-4" d="M49.92,34.53q.72,2.94,1.25,6.16a83.36,83.36,0,0,1-.31,28h-3L40.34,34.3Z"/><path id="Path_41107" data-name="Path 41107" class="cls-5" d="M47.82,68.7,47.43,72H55a3.27,3.27,0,0,0-2.11-2.55l-2.06-.75Z"/><path id="Path_41108" data-name="Path 41108" class="cls-4" d="M55,72.36H47.49a.36.36,0,0,1-.37-.37h0a.37.37,0,0,1,.37-.37H55a.38.38,0,0,1,.37.37h0a.37.37,0,0,1-.37.37Z"/><path id="Path_41109" data-name="Path 41109" class="cls-6" d="M42.78,45.53l2.73,12.56a28.19,28.19,0,0,0,1.06-4.82,28.61,28.61,0,0,0-1.29-12.82A24,24,0,0,0,42.78,45.53Z"/></g><g id="Group_4732" data-name="Group 4732"><path id="Path_41110" data-name="Path 41110" class="cls-4" d="M46,32.93A128.65,128.65,0,0,1,42.24,68.7h-3L36.47,33.78Z"/><path id="Path_41111" data-name="Path 41111" class="cls-5" d="M39.21,68.7,38.82,72h7.6v0a3.27,3.27,0,0,0-2.11-2.54l-2.06-.75Z"/><path id="Path_41112" data-name="Path 41112" class="cls-4" d="M46.39,72.36H38.87A.37.37,0,0,1,38.5,72h0a.38.38,0,0,1,.37-.37h7.52a.37.37,0,0,1,.37.37h0a.36.36,0,0,1-.37.37Z"/></g><g id="Group_4733" data-name="Group 4733"><path id="Path_41113" data-name="Path 41113" class="cls-2" d="M36.07,34.76,33.3,21.69a2.72,2.72,0,0,1,1.51-3l5.11-2.37,5.23,1.46A1.76,1.76,0,0,1,46.38,19l4.2,15.6a.36.36,0,0,1-.27.46H36.46A.39.39,0,0,1,36.07,34.76Z"/><path id="Path_41114" data-name="Path 41114" class="cls-3" d="M34.37,26.76a9.89,9.89,0,0,1,2.39-2.84,14.32,14.32,0,0,1-1.24,8.23Z"/></g><g id="Group_4734" data-name="Group 4734"><path id="Path_41115" data-name="Path 41115" class="cls-1" d="M41.22,14.36l.68,3a2.44,2.44,0,0,1-1.37.76,2.59,2.59,0,0,1-2.08-.66l.24-2.77Z"/><path id="Path_41116" data-name="Path 41116" class="cls-1" d="M37.27,12.05l1.47,4.23a4.57,4.57,0,0,0,2.08,0,2.87,2.87,0,0,0,1.41-.71c.66-.82.14-2.7-1.41-4.52Z"/><path id="Path_41117" data-name="Path 41117" class="cls-4" d="M39.23,12.48c0,.43-.15.93-.5,1.08-.2.09-.36,0-.5.1s-.23.44.06,1.36a.19.19,0,0,1-.13.23.17.17,0,0,1-.22-.1l-1.13-2.6a1,1,0,0,1,0-.77l.06-.18h0a1,1,0,0,1,.83-1L40.48,10a1.33,1.33,0,0,1,.88.13.8.8,0,0,1,.37.4c.21.61-.67,1.28-.83,1.4A2.76,2.76,0,0,1,39.23,12.48Z"/><path id="Path_41118" data-name="Path 41118" class="cls-1" d="M38.74,14.37c.11-.55-.36-1.25-.71-1.2s-.49.44-.45.8.66.88.94.75S38.72,14.45,38.74,14.37Z"/></g><g id="Group_4735" data-name="Group 4735"><path id="Path_41119" data-name="Path 41119" class="cls-1" d="M22.17,33.6l-1.9.75a.9.9,0,0,0-.51,1.18.88.88,0,0,0,.3.39h0a.93.93,0,0,0,.85.13l3-1.1Z"/><path id="Path_41120" data-name="Path 41120" class="cls-2" d="M32,20.67v0a5.88,5.88,0,0,0-1,1.94L29,28.78l-8.08,5.11,1.67,2.18a27.47,27.47,0,0,0,9.46-3,5.5,5.5,0,0,0,1.93-1.72,20.08,20.08,0,0,0,3.5-10.7L35.56,18.3,34.11,19A6.1,6.1,0,0,0,32,20.67Z"/></g></g><g id="Group_4737" data-name="Group 4737"><rect id="Rectangle_2860" data-name="Rectangle 2860" class="cls-5" x="17.53" y="14.73" width="7.2" height="57.64"/><path id="Path_41121" data-name="Path 41121" class="cls-1" d="M21.14,6.69l-3.6,8h7.2Z"/><path id="Path_41122" data-name="Path 41122" class="cls-2" d="M22.15,9l-1-2.26L20.12,9Z"/></g></g><g id="Group_4729" data-name="Group 4729"><circle id="Ellipse_76" data-name="Ellipse 76" class="cls-7" cx="69.44" cy="36.68" r="14.96"/><circle id="Ellipse_77" data-name="Ellipse 77" class="cls-8" cx="69.44" cy="36.68" r="12.6"/><path id="Path_41102" data-name="Path 41102" class="cls-9" d="M69.06,43.52l-8-6.94L63,34.43l5.77,5,6.87-8.38,2.2,1.8Z"/></g></svg>