<svg id="圖層_1" data-name="圖層 1" xmlns="http://www.w3.org/2000/svg" viewBox="0 0 26.92 22.85"><defs><style>.cls-1{fill:#fff;}</style></defs><path id="server" class="cls-1" d="M23.44,6.77h-19A1.36,1.36,0,0,1,3.06,5.41V2.69A1.35,1.35,0,0,1,4.42,1.34h19A1.35,1.35,0,0,1,24.8,2.69h0V5.41A1.36,1.36,0,0,1,23.44,6.77ZM21.4,3a1,1,0,1,0,1,1,1,1,0,0,0-1-1ZM18.68,3a1,1,0,1,0,1,1,1,1,0,0,0-1-1Zm4.76,10.52h-19a1.35,1.35,0,0,1-1.36-1.35h0V9.49A1.36,1.36,0,0,1,4.42,8.13h19A1.36,1.36,0,0,1,24.8,9.49h0V12.2a1.36,1.36,0,0,1-1.36,1.36Zm-2-3.73a1,1,0,1,0,1,1,1,1,0,0,0-1-1Zm-2.72,0a1,1,0,1,0,1,1,1,1,0,0,0-1-1Zm4.76,10.52h-19A1.35,1.35,0,0,1,3.06,19h0V16.28a1.36,1.36,0,0,1,1.36-1.36h19a1.36,1.36,0,0,1,1.36,1.36h0V19A1.35,1.35,0,0,1,23.44,20.35Zm-2-3.73a1,1,0,1,0,1,1h0a1,1,0,0,0-1-1Zm-2.72,0a1,1,0,1,0,1,1h0a1,1,0,0,0-1-1Z"/></svg>