<svg xmlns="http://www.w3.org/2000/svg" xmlns:xlink="http://www.w3.org/1999/xlink" width="14" height="12" viewBox="0 0 14 12">
  <defs>
    <clipPath id="clip-button_calender">
      <rect width="14" height="12"/>
    </clipPath>
  </defs>
  <g id="button_calender" clip-path="url(#clip-button_calender)">
    <path id="Shape" d="M10.588-12a.489.489,0,0,0-.488.489v.386H3.9v-.386A.489.489,0,0,0,3.411-12a.489.489,0,0,0-.488.489v.386h-1.8A1.125,1.125,0,0,0,0-10v8.875A1.125,1.125,0,0,0,1.122,0H12.878A1.125,1.125,0,0,0,14-1.125V-10a1.128,1.128,0,0,0-1.124-1.125h-1.8v-.386A.489.489,0,0,0,10.588-12Zm0,2.742a.489.489,0,0,0,.488-.49V-10h1.8v1.533H1.122V-10h1.8v.253a.489.489,0,0,0,.488.49.489.489,0,0,0,.487-.49V-10h6.2v.253A.489.489,0,0,0,10.589-9.257ZM1.122-1.125V-7.493H12.878v6.368Zm8.8-5.415H4.072a.489.489,0,0,0-.488.489.489.489,0,0,0,.488.489H9.929a.489.489,0,0,0,.488-.489A.492.492,0,0,0,9.927-6.54Zm0,2.648H4.072a.489.489,0,0,0-.488.49.489.489,0,0,0,.488.489H9.929a.489.489,0,0,0,.488-.489A.492.492,0,0,0,9.927-3.893Z" transform="translate(0 12)"/>
  </g>
</svg>
