<svg xmlns="http://www.w3.org/2000/svg" xmlns:xlink="http://www.w3.org/1999/xlink" width="14" height="16" viewBox="0 0 14 16">
  <defs>
    <clipPath id="clip-button_goTop">
      <rect width="14" height="16"/>
    </clipPath>
  </defs>
  <g id="button_goTop" clip-path="url(#clip-button_goTop)">
    <g id="Component_164_9" data-name="Component 164 – 9">
      <path id="Shape_Copy_2" data-name="Shape Copy 2" d="M1-16a1,1,0,0,0-1,1,1,1,0,0,0,1,1H13a1,1,0,0,0,1-1,1,1,0,0,0-1-1Zm5.634,4.155L1.694-6.9c-.391.391-.259.708.292.708h3V-1a1,1,0,0,0,1,1h2a1,1,0,0,0,1-1V-6.187h3c.552,0,.683-.317.292-.708l-4.94-4.949a.5.5,0,0,0-.353-.146A.5.5,0,0,0,6.634-11.845Z" transform="translate(0 16)" fill="#fff"/>
    </g>
  </g>
</svg>
