<svg xmlns="http://www.w3.org/2000/svg" xmlns:xlink="http://www.w3.org/1999/xlink" width="18" height="20" viewBox="0 0 18 20">
  <defs>
    <clipPath id="clip-button_delet">
      <rect width="18" height="20"/>
    </clipPath>
  </defs>
  <g id="button_delet" clip-path="url(#clip-button_delet)">
    <g id="Group_2385" data-name="Group 2385" transform="translate(-3 -2)">
      <path id="Path_1077" data-name="Path 1077" d="M0,0H24V24H0Z" fill="none"/>
      <line id="Line_75" data-name="Line 75" x2="16" transform="translate(4 7)" fill="none" stroke="#fff" stroke-linecap="round" stroke-linejoin="round" stroke-width="1.5"/>
      <line id="Line_76" data-name="Line 76" y2="6" transform="translate(10 11)" fill="none" stroke="#fff" stroke-linecap="round" stroke-linejoin="round" stroke-width="1.5"/>
      <line id="Line_77" data-name="Line 77" y2="6" transform="translate(14 11)" fill="none" stroke="#fff" stroke-linecap="round" stroke-linejoin="round" stroke-width="1.5"/>
      <path id="Path_1078" data-name="Path 1078" d="M5,7,6,19a2,2,0,0,0,2,2h8a2,2,0,0,0,2-2L19,7" fill="none" stroke="#fff" stroke-linecap="round" stroke-linejoin="round" stroke-width="1.5"/>
      <path id="Path_1079" data-name="Path 1079" d="M9,7V4a1,1,0,0,1,1-1h4a1,1,0,0,1,1,1V7" fill="none" stroke="#fff" stroke-linecap="round" stroke-linejoin="round" stroke-width="1.5"/>
    </g>
  </g>
</svg>
