<svg xmlns="http://www.w3.org/2000/svg" xmlns:xlink="http://www.w3.org/1999/xlink" width="321" height="303" viewBox="0 0 321 303">
  <defs>
    <filter id="Path_10916" x="215.302" y="125.843" width="104.932" height="174.24" filterUnits="userSpaceOnUse">
      <feOffset dy="3" input="SourceAlpha"/>
      <feGaussianBlur stdDeviation="3" result="blur"/>
      <feFlood flood-opacity="0.161"/>
      <feComposite operator="in" in2="blur"/>
      <feComposite in="SourceGraphic"/>
    </filter>
    <clipPath id="clip-image_parents">
      <rect width="321" height="303"/>
    </clipPath>
  </defs>
  <g id="image_parents" clip-path="url(#clip-image_parents)">
    <g id="Group_17066" data-name="Group 17066" transform="translate(0 -324)">
      <g id="Group_16192" data-name="Group 16192" transform="translate(-1 319)">
        <path id="Path_11017" data-name="Path 11017" d="M1889.414,1279.213c15.543-54.735,32.276-95.719,44.955-122.761,7.28-15.509,13.884-27.89,19.23-37.214a35.51,35.51,0,0,1-10.424-12.123s-11.129-19.109-16.71-31.066c-3.525,11.386-10.2,29.865-21.293,58.041,0,0-.488,9.354-11.051,17.533,3.053,15.327,4.311,44.214-4.707,97.348v-26.624c2.774-22.079,3.359-38.086,3.008-49.446a131.039,131.039,0,0,0-1.8-18.871c-.4.249-.794.487-1.2.721V1085.7c2.505,11.055,5.142,23.2,4.685,31.512,0,0,44.017-84.355,34.112-47.168,4.019,4.167,10.85,12.49,21.6,26.74,0,0-.031-123.513,14.942-12.8,0,0,50.8-127.1,14.477,7.253,0,0,107.341-81.109,8.353,8.248,0,0,115.143-3.359-9.853,12.735,0,0,117.606,36.068-11.508,11.031a17.9,17.9,0,0,1-9.283-2.032c-5.3,9.252-11.867,21.576-19.117,37.043-13.623,29.061-31.954,74.328-48.412,135.565v-14.613Z" transform="translate(-1888.632 -1029.585)" fill="#e2abab"/>
        <path id="Path_11018" data-name="Path 11018" d="M1884.075,1218.578c16.775-57.335,32.952-78.386,44.763-85.11a48.264,48.264,0,0,1,5.074-17.231s52.851-113.139,15.814-.559c0,0,130.807-90.781,24.546,6.423,0,0,171.946-39.586,2.955,20.666,0,0,164.775,54.093-2.6,14.9,0,0,88.168,119.49-20.722-1.073,0,0,48.2,151.055-20.152-4.1,0,0-4.507-4.968-4.987-14.545-10.518,7.469-27.255,30.027-44.687,95.061v-14.439Z" transform="translate(-1884.075 -929.017)" fill="#e2abab"/>
      </g>
      <path id="Union_6" data-name="Union 6" d="M184.629,286.859l-.023-14.961,0-.052,0-.043c-.184-.08-.364-.16-.543-.242v-8.3s-7.467-3.026-3.319-11.551,16.225-47.321,16.78-57.747c.216-4.09,1.695-10.465,4.061-17.843-3.225.249-6.727.211-10.175.173a74.291,74.291,0,0,0-12.779.538,13.541,13.541,0,0,1-9.045-1.358c-9.876-4.132-22.415-15.254-23.318-16.406-1.235-1.568-4.984-4.433-8.4-6.383s-1.115-7.873-1.115-7.873l-6.209-7.242q.328-.612.694-1.218c-5.119-6.168-9.631-11.824-12.533-15.506q-.451-.052-.937-.121c-2.29,6.144-5.356,11.807-9.757,10.5l-2.927,8.232s-1.177-.347-3.128-1.065c-1.464,2.81-3.666,6.905-5.853,10.482-1.675,7.348-5.2,21.92-7.831,26.542C85.047,181.1,78.958,185,73.29,183.7a11.115,11.115,0,0,1-3.46-2.13,16.194,16.194,0,0,1-3.7,1.935C54.815,187.428,22.286,156.9,22.286,156.9s1.652-2.146,4.08-4.929l-6.777-6.3c-.387.58-.693.619-.693.619a4.993,4.993,0,0,1-1.778.422,3.8,3.8,0,0,1-.45.686.548.548,0,0,1-.769.057.542.542,0,0,1-.148-.636c-.446.027-.915.052-1.4.082a3.579,3.579,0,0,1-.4.588.548.548,0,0,1-.945-.491c-.354.031-.709.068-1.061.112a3.831,3.831,0,0,1-.316.458.55.55,0,0,1-.775.053.536.536,0,0,1-.178-.306,9.118,9.118,0,0,0-2.133.676c-3.183,1.529-5.658,2.346-7.753-.366a1.732,1.732,0,0,1-.315-.647l-.027.019c-2.332-3.874,4.916-9.238,9.432-11.165a26.5,26.5,0,0,0,4.693-2.731c.354-.225.771-.482,1.216-.752,2-2.785,6.849-5.2,10.156-6.121a26.525,26.525,0,0,0,5-2.1c2.077-.96,6.132-2.64,6.132-2.64l1.581,1.657c1.567.083,4.876,6.387,4.876,6.387a1.658,1.658,0,0,1-.374.515l5.822,5.811c.5-.232,1-.442,1.509-.625l12.126,11.715c1.931-4.374,3.989-9.038,4.425-10.041.652-1.493.323-12.11,3.734-19.928a34.6,34.6,0,0,1-2.6-4.238l4.976-7.073s-4.662-6.871-2.33-10.4,10.512-1.661,12.726-6.8S102.728,60.139,112.76,55.01c0,0,.566.4,1.485,1.135l3.15-6.48q-.314-.182-.625-.372c-.348-.178-12.608-6.462-16.25-10.982L99.1,39.984a42.022,42.022,0,0,1-2.764-10.546c-.732-5.909-1.388-10.475,1.828-13.564s2.265-6.545,7.48-8.594c0,0,2.064-5.56,10.536-6.525s22.314-3.413,21.426,11.763A21.326,21.326,0,0,1,141.2,19.86c1.092,3.891-.127,9.758,1.914,11.721,4.648,4.477,6.91,4,4.33,6.843,6.94-5.541,13.537-10.866,17.9-14.523a8.059,8.059,0,0,1,1.383.784q.031-.126.065-.256s6.979-8.4,8.555-8.274,8.264,3,7.82,4.82a5.85,5.85,0,0,1-1.216,2.6,2.338,2.338,0,0,1,1.7,1.817c.164,1.417-3.691,3.322-4.013,3.566A28.706,28.706,0,0,1,172,30.919a22.291,22.291,0,0,1,1.039,2.375s-23.347,26.677-43.713,48.037c1.249,3.094,2,5.223,2,5.223s1.62-2.152,2.475.2c0,0,10.952-10.186,14.733-14.547,0,0,.574.532,1.468,1.363a33.79,33.79,0,0,1,2.67-7.352c.531-1.04,1.709-.782,3.124-1.075l.974-1.4s.678-1.072,1.617-1.072a1.374,1.374,0,0,1,.769.249c1.382.914.992,1.96.975,2a1.446,1.446,0,0,1,.734-.2,1.619,1.619,0,0,1,1.118.482,1.989,1.989,0,0,1,.631,2.02,1.865,1.865,0,0,1,.66-.119,1.56,1.56,0,0,1,1.264.617,2.041,2.041,0,0,1,.356,1.969,1.769,1.769,0,0,1,1.183.692c.489.912-.448,2.989-.448,2.989l-.025.035c-.046.066-.158.224-.332.45-.152.2-.358.473-.627.82l.027-.083A17.706,17.706,0,0,1,157.16,79.9s-.166-.011-.449-.045c.489.463.953.9,1.376,1.309,0,0-10.307,15.244-19.074,22.457,1.954,2.432,4.171,5.032,6.54,7.531,1.46-1.014,2.407-1.59,2.407-1.59l6.335,6.467c6.6-1.187,6.55,6.118,8.949,7.525,2.19,1.284,7.8,8.8,11.234,13.223,9.237.271,32.188.245,52.609-4.214,2.512-4.477,1.835-8.432,1.954-10.518a68.19,68.19,0,0,0-1.483-9.1h0v0c-.242-1.206-.5-2.468-.77-3.75-3.641.776-6.73.968-9.15.139-3.965-1.356-3.6-6.247-2.845-10.613l-.026-.005.49-2.893.055.013a24.1,24.1,0,0,0,.255-4.475c-9.318-4-1.91-4.438,4.17-12.389,1.634-2.138,2.075-5.192,3.081-8.658-.058-.2-2.7-9.409-2.413-13.709.4-5.706,3.849-12.005,11.675-7.68,0,0,8.718,1.469,12.545,1.991,8.5,1.164,13.59,1.2,20.755,11.711,2.186,3.21,14.112,19.15,1.226,25.593,0,0-7.633,11.247-16.722,17.021l-.009-.035c1.055,5.369,2.114,10.441,2.752,12.653a24.042,24.042,0,0,0,.872,2.4c.11-.018.22-.034.328-.049,0,0,17.693,16.211,11.144,50.067-4.255,22-14.449,72.5-13.793,80.36s6.33,12.218-2.18,16.364l-.178,8.071s-.628.065-1.768.166l.507,11.63ZM38.54,144.187c.243-.272.5-.558.779-.853l-5.037-6.092c-.458.524-.766.523-.766.523a5,5,0,0,1-1.818.187,3.957,3.957,0,0,1-.539.627.548.548,0,0,1-.829-.7l-.906-.066-.492-.035a4.3,4.3,0,0,1-.369.436l6.536,5q.523-.43,1.042-.824Z" transform="translate(39.494 335.641)" fill="#d9d9d9" stroke="rgba(0,0,0,0)" stroke-miterlimit="10" stroke-width="1"/>
      <g id="Group_16191" data-name="Group 16191" transform="translate(44.805 335.641)">
        <path id="Path_10875" data-name="Path 10875" d="M2152.916,1086.221s-3.961-13.157-35.5-6.163c-20.823,4.617-44.4,4.579-53.424,4.294s-14.8,2.525-16.436,11.122,2.329,11.343,5.021,13.422,5.959,6.689,13.437,6.252c7.985-.471,19.753,2.769,28.08,1.79,11.177-1.317,71.664,7.846,58.821-30.718Z" transform="translate(-1889.909 -947.588)" fill="#eeeae5"/>
        <path id="Path_10876" data-name="Path 10876" d="M2057.092,1098.709a.486.486,0,0,1-.227-.213.435.435,0,0,1,.2-.582c.172-.079,17.029-7.95,21.378-9.588a.444.444,0,0,1,.567.251.428.428,0,0,1-.244.56c-4.315,1.63-21.146,9.485-21.316,9.567a.421.421,0,0,1-.356,0Z" transform="translate(-1876.464 -933.253)" fill="#4c807f"/>
        <path id="Path_10877" data-name="Path 10877" d="M2042.549,1062.264a143.418,143.418,0,0,0,15.8,19.741c9.912,10.055,23.685,21.615,25.368,28.214,2.226,8.715,1.965,25.06-10.6,17.24-10.952-6.81-41.445-57.589-41.445-57.589s6.288-7.549,10.881-7.606Z" transform="translate(-1911.514 -969.528)" fill="#cf7a64"/>
        <path id="Path_10878" data-name="Path 10878" d="M2052.077,1069.294s-9.964,6.065-15.1,13.456l5.331,7.913s-2.968,5.613.2,7.946,6.565,5.608,7.609,7.309,21.469,24.337,30.158,20.931,9.9-15.7-.766-29.172c-3.254-4.109-9.751-12.987-12.15-14.392s-2.345-8.712-8.949-7.525l-6.335-6.467Z" transform="translate(-1904.116 -959.732)" fill="#eeeae5"/>
        <path id="Path_10879" data-name="Path 10879" d="M2042.156,1084.533c6.292-5.606,10.222-9.746,11.689-11.352l.1-.1a.474.474,0,0,0,0-.651.464.464,0,0,0-.646-.029c-.01.005-.058.057-.148.156a171.718,171.718,0,0,1-13.312,12.776.469.469,0,0,0-.043.661.459.459,0,0,0,.656.043c.584-.508,1.154-1.012,1.7-1.5Z" transform="translate(-1900.342 -955.57)" fill="#d5cec4"/>
        <path id="Path_10880" data-name="Path 10880" d="M2054.378,1094.18l-.072-.014a.465.465,0,0,1-.325-.57c1.458-5.364-.034-12.166-.048-12.235a.467.467,0,0,1,.912-.2c.067.285,1.554,7.092.039,12.678a.465.465,0,0,1-.5.342Z" transform="translate(-1880.503 -943.71)" fill="#d5cec4"/>
        <path id="Path_10881" data-name="Path 10881" d="M2059.679,1092.706a.469.469,0,0,1-.409-.383,23.114,23.114,0,0,0-4.468-9.918.467.467,0,0,1-.242-.555.46.46,0,0,1,.579-.309c.8.237,4.212,5.577,5.054,10.63a.469.469,0,0,1-.381.536.422.422,0,0,1-.134,0Z" transform="translate(-1879.644 -942.697)" fill="#d5cec4"/>
        <path id="Path_10882" data-name="Path 10882" d="M2043.939,1089.8s-2.8-.713-7.381-7.3c-1.331-1.92-2.76-5.443-3.58-6.575-8.849-12.182-7.83-13.236-6.726-14.047,0,0-4.042-4.787-.837-6.1,0,0-1.628-2.566-.033-3.739a2.044,2.044,0,0,1,2.767.062,2.327,2.327,0,0,1,3.142-.519,42.354,42.354,0,0,1,4.761,3.528,46.648,46.648,0,0,1,4.426,3.76s.646-1.194,2.637.3c.816.615,2.147,1.611,3.305,2.42,1.969,1.379,3.162,4.732,4.131,6.97.854,1.982,4.09,9.768,4.27,13.633.1,1.9-.464,4.184-2.051,7.2,0,0-.694,2.566-8.829.4Z" transform="translate(-1921.95 -985.013)" fill="#c56450"/>
        <path id="Path_10883" data-name="Path 10883" d="M2033.992,1065.62a.261.261,0,0,0,.009-.38l-8.044-9.452a.255.255,0,1,0-.385.328l8.046,9.457a.264.264,0,0,0,.374.048Z" transform="translate(-1920.118 -978.709)" fill="#b35244"/>
        <path id="Path_10884" data-name="Path 10884" d="M2039.159,1064.948l.015-.014a.238.238,0,0,0,.028-.366l-12.858-12.826a.281.281,0,0,0-.395.01.284.284,0,0,0,.009.4l12.844,12.812a.254.254,0,0,0,.356-.019Z" transform="translate(-1919.593 -984.298)" fill="#b35244"/>
        <path id="Path_10885" data-name="Path 10885" d="M2037.6,1065.926l.015-.01a.235.235,0,0,0,.047-.352l-12.189-12.346a.271.271,0,0,0-.388.005.284.284,0,0,0,0,.4l12.173,12.326c.1.11.232.072.347-.028Z" transform="translate(-1920.808 -982.243)" fill="#b35244"/>
        <path id="Path_10886" data-name="Path 10886" d="M2039.972,1064.394a.267.267,0,0,0,.285-.01.256.256,0,0,0,.057-.357c-2.551-3.487-8.872-9.572-8.935-9.626a.249.249,0,0,0-.356.026.256.256,0,0,0,.023.357,105.119,105.119,0,0,1,8.859,9.543l.067.067Z" transform="translate(-1912.496 -980.572)" fill="#b35244"/>
        <path id="Path_10887" data-name="Path 10887" d="M2051.338,1038.543s6.979-8.4,8.554-8.274,8.265,3,7.82,4.82a5.857,5.857,0,0,1-1.216,2.6,2.338,2.338,0,0,1,1.7,1.817c.164,1.417-3.69,3.322-4.013,3.566s-6.065,2.2-8.107,1.939-6.247-.823-4.741-6.467Z" transform="translate(-1884.546 -1014.114)" fill="#eda48c"/>
        <path id="Path_10888" data-name="Path 10888" d="M2057.916,1035.595a9.953,9.953,0,0,1-1.282-.055c-.778-.132-1.491-2.3-1.69-2.961a.241.241,0,0,1,.16-.3.247.247,0,0,1,.3.163c.371,1.223.984,2.568,1.308,2.621a31.128,31.128,0,0,0,3.516,0,.239.239,0,0,1,.251.232.245.245,0,0,1-.232.254c-.076,0-1.3.053-2.334.053Z" transform="translate(-1879.097 -1011.331)" fill="#c56450"/>
        <path id="Path_10889" data-name="Path 10889" d="M2055.644,1034.173a.244.244,0,0,1-.232-.182.241.241,0,0,1,.177-.3,37.792,37.792,0,0,0,4.222-1.41.236.236,0,0,1,.313.134.241.241,0,0,1-.134.316,37.986,37.986,0,0,1-4.284,1.431l-.063.007Z" transform="translate(-1878.437 -1011.33)" fill="#c56450"/>
        <path id="Path_10890" data-name="Path 10890" d="M2057.851,1035.224a.257.257,0,0,1-.166-.065l-1.362-1.238-.328-1.783a.24.24,0,0,1,.191-.285.246.246,0,0,1,.284.2l.3,1.621,1.244,1.13a.239.239,0,0,1,.019.342.244.244,0,0,1-.18.081Z" transform="translate(-1877.621 -1011.908)" fill="#c56450"/>
        <path id="Path_10891" data-name="Path 10891" d="M2033.987,1072.319s35.1-27.458,48.652-38.815c0,0,4.93,1.958,7.69,9.394,0,0-28.4,32.455-49.882,54.432,0,0-24.128-5.5-6.46-25.012Z" transform="translate(-1917.294 -1009.604)" fill="#f7cd7e"/>
        <path id="Path_10892" data-name="Path 10892" d="M2015.733,1089.085l-12.425-12.4-8.545,7.02,11.134,13.466,9.837-8.084Z" transform="translate(-1962.939 -949.435)" fill="#eda48c"/>
        <path id="Path_10893" data-name="Path 10893" d="M2011.97,1076.453l-2.078-2.178s-4.055,1.68-6.132,2.64a26.517,26.517,0,0,1-5.005,2.1c-4.732,1.321-12.616,5.694-10.811,9.842l24.026-12.4Z" transform="translate(-1972.807 -952.791)" fill="#d8c6b8"/>
        <path id="Path_10894" data-name="Path 10894" d="M2016.187,1081.356s-3.339-6.364-4.9-6.389-8.368,3.918-12.681,4.864-12.293,5.761-10.574,8.726,4.284,2.475,7.638,1.372,8.8.342,10.487-.338c0,0,1.216,0,2.413-4.112.613-2.094,6.7-2.07,7.614-4.124Z" transform="translate(-1972.645 -951.827)" fill="#e7dacf"/>
        <path id="Path_10895" data-name="Path 10895" d="M1995.65,1079.66a.539.539,0,0,0-.2.438,4.155,4.155,0,0,1-1.163,3.118.556.556,0,0,0-.043.776.55.55,0,0,0,.771.048,5.285,5.285,0,0,0,1.534-3.971.552.552,0,0,0-.565-.534.509.509,0,0,0-.333.124Z" transform="translate(-1963.855 -945.462)" fill="#d8c6b8"/>
        <path id="Path_10896" data-name="Path 10896" d="M1994.518,1079.549a.567.567,0,0,0-.2.441,4.164,4.164,0,0,1-1.163,3.121.549.549,0,0,0,.731.819,5.283,5.283,0,0,0,1.531-3.971.551.551,0,0,0-.9-.409Z" transform="translate(-1965.426 -945.617)" fill="#d8c6b8"/>
        <path id="Path_10897" data-name="Path 10897" d="M1993.554,1079.454a.541.541,0,0,0-.2.44,4.188,4.188,0,0,1-1.165,3.121.551.551,0,0,0-.041.773.538.538,0,0,0,.768.043,5.24,5.24,0,0,0,1.529-3.971.545.545,0,0,0-.56-.531.566.566,0,0,0-.333.125Z" transform="translate(-1966.774 -945.75)" fill="#d8c6b8"/>
        <path id="Path_10898" data-name="Path 10898" d="M2057.4,1092.583s-5.225,24.6-8.791,30.868c-3.229,5.682-9.318,9.581-14.986,8.284-5.761-1.319-36.986-36.8-36.986-36.8s6.474-8.894,14.195-11.673l17.2,16.618,5.407-22.195,23.96,14.894Z" transform="translate(-1960.33 -948.035)" fill="#90abcb"/>
        <path id="Path_10899" data-name="Path 10899" d="M1998.562,1091.711a.427.427,0,0,1-.038-.536c3.966-5.641,11.646-9.842,11.975-10.016a.425.425,0,1,1,.4.747c-.077.041-7.831,4.287-11.684,9.76a.43.43,0,0,1-.594.1l-.063-.058Z" transform="translate(-1957.806 -943.274)" fill="#537899"/>
        <path id="Path_10900" data-name="Path 10900" d="M2009.963,1090.579l-13.941-10.673-7.552,8.074,12.8,11.9,8.7-9.3Z" transform="translate(-1971.708 -944.944)" fill="#eda48c"/>
        <path id="Path_10901" data-name="Path 10901" d="M2004.119,1079.587l-2.343-1.891s-3.8,2.2-5.732,3.425a26.461,26.461,0,0,1-4.694,2.731c-4.516,1.927-11.764,7.291-9.432,11.165l22.2-15.43Z" transform="translate(-1981.467 -948.025)" fill="#d8c6b8"/>
        <path id="Path_10902" data-name="Path 10902" d="M2008.978,1083.991s-4.138-5.869-5.686-5.689-7.784,4.978-11.936,6.474-11.436,7.324-9.342,10.031,4.57,1.9,7.753.366,8.762-.807,10.349-1.7c0,0,1.207-.155,1.857-4.392.333-2.157,6.369-2.932,7.006-5.089Z" transform="translate(-1981.22 -947.187)" fill="#f2e5d9"/>
        <path id="Path_10903" data-name="Path 10903" d="M1989.048,1083.353a.539.539,0,0,0-.144.462,4.185,4.185,0,0,1-.744,3.248.543.543,0,0,0,.062.771.549.549,0,0,0,.769-.057,5.266,5.266,0,0,0,1-4.139.55.55,0,0,0-.941-.285Z" transform="translate(-1972.324 -940.383)" fill="#d8c6b8"/>
        <path id="Path_10904" data-name="Path 10904" d="M1987.914,1083.391a.539.539,0,0,0-.144.462,4.18,4.18,0,0,1-.744,3.248.547.547,0,0,0,.83.713,5.258,5.258,0,0,0,1-4.138.546.546,0,0,0-.632-.45.51.51,0,0,0-.308.165Z" transform="translate(-1973.901 -940.33)" fill="#d8c6b8"/>
        <path id="Path_10905" data-name="Path 10905" d="M1986.938,1083.424a.577.577,0,0,0-.141.464,4.173,4.173,0,0,1-.742,3.246.549.549,0,0,0,.833.716,5.3,5.3,0,0,0,.99-4.136.549.549,0,0,0-.627-.457.587.587,0,0,0-.314.168Z" transform="translate(-1975.255 -940.286)" fill="#d8c6b8"/>
        <path id="Path_10906" data-name="Path 10906" d="M2072.189,1094.123s-5.687,11.5-10.043,17.647c0,0-16.2,26.945-27.52,30.868s-43.848-26.608-43.848-26.608,7.372-9.576,13.854-14.5l21.665,16.182s-.752-3.489,1.153-3.329c0,0,7.228-16.357,8.093-18.343s0-20.086,8.484-26.314l28.162,24.4Z" transform="translate(-1968.492 -959.134)" fill="#abc1df"/>
        <path id="Path_10907" data-name="Path 10907" d="M1993.877,1100.633a.417.417,0,0,1-.033-.536.421.421,0,0,1,.593-.1c8.38,6.032,30.521,21.807,32.31,22.381a.73.73,0,0,0,.639-.086c1.166-.687,1.972-3.78,2.185-4.912l.015-.07.038-.062c3.353-5.857,23.466-41.229,23.669-41.584a.422.422,0,0,1,.579-.158.426.426,0,0,1,.16.579c-.2.357-20.177,35.485-23.633,41.524-.139.7-.945,4.445-2.575,5.414a1.592,1.592,0,0,1-1.34.16c-2.273-.73-31.308-21.605-32.543-22.494l-.063-.057Z" transform="translate(-1964.334 -951.156)" fill="#537899"/>
        <path id="Path_10908" data-name="Path 10908" d="M1992.241,1098.347a.425.425,0,0,1,0-.581c5.4-5.955,13.364-13.356,13.446-13.432a.421.421,0,0,1,.6.024.429.429,0,0,1-.024.6c-.082.072-8.013,7.448-13.393,13.382a.43.43,0,0,1-.6.029l-.024-.024Z" transform="translate(-1966.615 -938.937)" fill="#537899"/>
        <path id="Path_10909" data-name="Path 10909" d="M2010.938,1104.554l-.047-.053c-1.714-2.548-3.421-7.084-5.073-13.48-.067-.261-.11-.431-.124-.483a.405.405,0,0,1,.213-.546.434.434,0,0,1,.572.223,4.456,4.456,0,0,1,.165.594c1.625,6.3,3.291,10.749,4.954,13.219a.423.423,0,0,1-.66.526Z" transform="translate(-1947.763 -930.944)" fill="#537899"/>
        <path id="Path_10910" data-name="Path 10910" d="M2012.366,1099.048a34.336,34.336,0,0,1-6.2-9.686.426.426,0,1,1,.789-.318c.034.077,3.112,7.671,8.787,11.9a.426.426,0,0,1-.508.684,22.032,22.032,0,0,1-2.87-2.578Z" transform="translate(-1947.091 -932.585)" fill="#537899"/>
        <path id="Path_10911" data-name="Path 10911" d="M2010.082,1083.842a.432.432,0,0,1-.1-.192.425.425,0,0,1,.314-.517l4.42-1.068,4.756-8.784a.425.425,0,1,1,.744.41l-4.931,9.109-4.792,1.163a.445.445,0,0,1-.414-.122Z" transform="translate(-1941.748 -954.484)" fill="#537899"/>
        <path id="Path_10912" data-name="Path 10912" d="M2016.4,1084.02a.415.415,0,0,1-.12-.313.425.425,0,0,1,.448-.4c.072,0,7.137.295,11.769-4.823a.434.434,0,0,1,.6-.029.42.42,0,0,1,.029.6c-4.911,5.417-12.135,5.113-12.443,5.1a.41.41,0,0,1-.285-.134Z" transform="translate(-1932.963 -947.121)" fill="#537899"/>
        <path id="Path_10913" data-name="Path 10913" d="M2121.553,1155.41l-.508-11.642-.171-8.017v-.128l-9.1-.143.015,0-27.444-.361-2.229-.057-9.067-.185h-.015l-13.931-.143-.508,5.667,0,.052.024,14.961Z" transform="translate(-1873.99 -868.552)" fill="#4a6385"/>
        <path id="Path_10914" data-name="Path 10914" d="M2075.424,1064.836s6.122,26.72,5.953,29.7,1.282,9.765-7.238,16.443c0,0,4.758,6.407,17.972,4.954,11.527-1.273,17.489-5.22,20.666-9.547,0,0-6.436-11.295-7.812-16.041-1.639-5.68-6.051-30.217-6.051-30.217l-23.489,4.7Z" transform="translate(-1852.334 -972.498)" fill="#eda48c"/>
        <path id="Path_10915" data-name="Path 10915" d="M2093.485,1060.524l-18.81,3.767s3.116,12.568,4.471,20.6c6.127-1.173,15.778-9.816,14.339-24.37Z" transform="translate(-1851.586 -971.952)" fill="#c56450"/>
        <g transform="matrix(1, 0, 0, 1, -44.8, -11.64)" filter="url(#Path_10916)">
          <path id="Path_10916-2" data-name="Path 10916" d="M2130.8,1073.739s17.693,16.211,11.144,50.067c-4.255,22-14.449,72.5-13.793,80.36s6.33,12.218-2.181,16.364l-.177,8.071s-46.7,4.8-64.752-3.5v-8.3s-7.468-3.026-3.319-11.551,16.225-47.322,16.78-57.747,9.315-35.72,20.067-54.638c0,0,23.863-17.4,36.231-19.126Z" transform="translate(-1832.16 -941.9)" fill="#fff"/>
        </g>
        <path id="Path_10917" data-name="Path 10917" d="M2097.958,1138.579c-24.895,0-38.678-4.344-38.843-4.4a.437.437,0,1,1,.27-.831c.208.064,24.075,6.7,61.3,3.47a.439.439,0,0,1,.076.874c-7.3.632-16.781.883-22.807.883Z" transform="translate(-1873.692 -870.502)" fill="#d5cec4"/>
        <path id="Path_10918" data-name="Path 10918" d="M2064.7,1148.657a.441.441,0,0,1-.428-.342.435.435,0,0,1,.332-.517c.1-.024,10.491-2.333,12.843-5.509,1.154-1.563,3.758-4.4,6.774-7.681,3.405-3.7,7.266-7.912,9.531-10.854a.438.438,0,0,1,.613-.079.431.431,0,0,1,.077.612c-2.284,2.973-6.161,7.19-9.579,10.914-2.875,3.126-5.587,6.08-6.712,7.6-2.547,3.439-12.92,5.746-13.357,5.842l-.094.01Z" transform="translate(-1866.094 -884.083)" fill="#d5cec4"/>
        <path id="Path_10919" data-name="Path 10919" d="M2027.792,1063.236l15.057,7.736,11.162-22.96-15.057-7.735-11.162,22.959Z" transform="translate(-1916.914 -1000.167)" fill="#eda48c"/>
        <path id="Path_10920" data-name="Path 10920" d="M2045.272,1046.68l-5.177,10.651c-1.728-2.52-4.768-5.3-6.031-16.1l11.208,5.447Z" transform="translate(-1908.177 -998.836)" fill="#c56450"/>
        <path id="Path_10921" data-name="Path 10921" d="M2103.489,1046.282s-15.029-3.665-21.445,14.121c-1.568,4.337-1.809,8.229-3.772,10.8-6.08,7.951-13.488,8.384-4.17,12.388a24.245,24.245,0,0,1-.4,5.325c-.9,4.749-2.128,11.074,2.47,12.647,5.364,1.838,14.007-1.338,24.677-4.782a28.1,28.1,0,0,0,10.4-6.393c8.284-7.87,22.692-27.716,3.354-39.995-2.832-1.8-6.7-2.6-11.115-4.11Z" transform="translate(-1858.532 -992.234)" fill="#eda48c"/>
        <path id="Path_10922" data-name="Path 10922" d="M2078.548,1059.34c-.378,1.116-1.25,1.829-1.937,1.6s-.936-1.336-.552-2.451,1.249-1.831,1.938-1.6.935,1.333.551,2.451Z" transform="translate(-1849.91 -977.08)" fill="#1a1b20"/>
        <path id="Path_10923" data-name="Path 10923" d="M2083.706,1059.551a.834.834,0,0,0,.574-.055.686.686,0,0,0,.318-.979,7.549,7.549,0,0,0-7.728-4.076.776.776,0,0,0-.664.888c.061.431.46.589.889.668a11.144,11.144,0,0,1,6.055,3.135,1.213,1.213,0,0,0,.556.419Z" transform="translate(-1849.462 -980.515)" fill="#84281a"/>
        <path id="Path_10925" data-name="Path 10925" d="M2073.567,1052.473c.4-5.706,3.85-12.006,11.675-7.681,0,0,8.718,1.469,12.545,1.991,8.5,1.163,13.59,1.2,20.756,11.711,2.186,3.209,14.112,19.15,1.225,25.593,0,0-7.633,11.247-16.722,17.02,0,0-3.758-14.6-5.1-17.584,0,0-.642-7.609-.737-8.894s-3.985-1.288-6.606-5.141,3.6-12.252-5.369-16.742c0,0-5.624,2.721-9.257,13.439,0,0-2.708-9.365-2.413-13.712Z" transform="translate(-1853.159 -995.873)" fill="#973924"/>
        <path id="Path_10926" data-name="Path 10926" d="M2081.38,1051.9l-.044-.017c-.227-.129-5.651-3.231-5.418-5.986a1.84,1.84,0,0,1,.744-1.357c1.5-1.147,4.775-.551,4.912-.525a.234.234,0,1,1-.084.46c-.034-.007-3.208-.584-4.548.436a1.383,1.383,0,0,0-.56,1.027c-.208,2.455,5.13,5.507,5.187,5.538a.231.231,0,0,1,.086.318.228.228,0,0,1-.275.105Z" transform="translate(-1849.862 -995.202)" fill="#691b17"/>
        <path id="Path_10927" data-name="Path 10927" d="M2097.626,1075.461c-.766-.261-12.455-4.425-12.5-11.642s-1.171-9.66-4.761-13.77a3.412,3.412,0,0,1-1.063-3.1c.431-1.587,2.446-2.279,2.53-2.307a.23.23,0,0,1,.294.144.226.226,0,0,1-.146.294c-.018.007-1.862.639-2.228,1.987a2.987,2.987,0,0,0,.975,2.661c3.671,4.21,4.825,6.7,4.878,14.054.048,6.965,12.079,11.134,12.221,11.173s.177.211.134.333a.271.271,0,0,1-.309.184l-.019-.007Z" transform="translate(-1845.256 -994.106)" fill="#691b17"/>
        <path id="Path_10928" data-name="Path 10928" d="M2098.937,1075.941l-.024-.01c-12.139-5.538-14.652-12.937-16.182-20.04-1.094-5.062.993-10.519,1.017-10.572a.231.231,0,1,1,.431.168c-.019.052-2.051,5.385-.993,10.306,1.5,6.986,3.975,14.265,15.921,19.71a.235.235,0,0,1-.17.438Z" transform="translate(-1840.801 -993.348)" fill="#691b17"/>
        <path id="Path_10929" data-name="Path 10929" d="M2105.085,1070.571a.234.234,0,0,1-.156-.242c0-.038.01-.081.015-.139.313-2.63-1.441-4.694-5.2-6.137-11.087-4.246-14.73-12.537-14.768-12.621a.235.235,0,0,1,.433-.182c.031.081,3.61,8.2,14.5,12.365,3.99,1.529,5.838,3.76,5.5,6.632l-.014.12a.233.233,0,0,1-.251.213l-.058-.01Z" transform="translate(-1837.258 -985.074)" fill="#691b17"/>
        <path id="Path_10930" data-name="Path 10930" d="M2099.269,1067.57l-.043-.017c-11.575-6.67-12.714-19.911-12.723-20.045a.23.23,0,1,1,.459-.036c.014.132,1.146,13.131,12.5,19.677a.232.232,0,0,1-.191.421Z" transform="translate(-1835.108 -990.442)" fill="#691b17"/>
        <path id="Path_10931" data-name="Path 10931" d="M2085.552,1059.983s2.011-2.6,5.838-.9c3.7,1.64-.95,10.991-4.858,11.458s-3.349-4.784-3.349-4.784l2.369-5.771Z" transform="translate(-1839.767 -974.765)" fill="#eda48c"/>
        <path id="Path_10932" data-name="Path 10932" d="M2043.193,1025.535s16.027-.84,20.5,15.045c1.092,3.892-.127,9.758,1.915,11.721,5.01,4.825,7.248,3.9,3.638,7.571,0,0-.082,2.185-.053,4.727.053,4.7.275,8.1-3.753,9.5-4.7,1.62-10.79,1.74-20.153-1.254a29.149,29.149,0,0,1-10.1-5.874c-7.276-6.879-19.907-26.464-2.982-37.271,2.479-1.582,5.031-2.9,10.985-4.162Z" transform="translate(-1922.493 -1020.72)" fill="#eda48c"/>
        <path id="Path_10933" data-name="Path 10933" d="M2036.854,1038.665a.785.785,0,0,1-.543-.05.655.655,0,0,1-.3-.924c.68-1.6,2.941-3.863,6.953-3.387a.734.734,0,0,1,.632.838c-.055.4-.436.555-.836.632a10.143,10.143,0,0,0-5.385,2.494,1.149,1.149,0,0,1-.522.4Z" transform="translate(-1905.566 -1008.578)" fill="#84281a"/>
        <path id="Path_10934" data-name="Path 10934" d="M2063.336,1036.037s-15.067,1.211-14.7,8.976a102.143,102.143,0,0,1-.927,16.67s-.361,7.745-5.2,11.132c0,0-12.563-6.4-16.258-10.986l-1.42,1.673a42,42,0,0,1-2.764-10.546c-.732-5.909-1.388-10.476,1.828-13.564s2.265-6.546,7.48-8.595c0,0,2.063-5.56,10.536-6.525s22.314-3.413,21.426,11.764Z" transform="translate(-1925.731 -1023.519)" fill="#973924"/>
        <path id="Path_10935" data-name="Path 10935" d="M2023.891,1048.381a.2.2,0,0,1-.213-.309,39.208,39.208,0,0,1,20.747-15.553.2.2,0,0,1,.1.4,38.8,38.8,0,0,0-20.509,15.378.187.187,0,0,1-.128.089Z" transform="translate(-1922.693 -1010.985)" fill="#691b17"/>
        <path id="Path_10936" data-name="Path 10936" d="M2052.322,1033.165l-.01,0a.179.179,0,0,1-.227-.146,8.451,8.451,0,0,0-4.024-5.366c-3.166-1.941-9.523-3.387-21.818.714a.2.2,0,0,1-.259-.127.2.2,0,0,1,.129-.256c10-3.334,17.46-3.557,22.176-.663a8.655,8.655,0,0,1,4.2,5.636.187.187,0,0,1-.167.206Z" transform="translate(-1919.448 -1021.027)" fill="#691b17"/>
        <path id="Path_10937" data-name="Path 10937" d="M2023.983,1034a.205.205,0,0,1-.213-.084.209.209,0,0,1,.053-.285c15.406-10.651,27.979-6.46,28.1-6.414a.2.2,0,1,1-.135.385c-.122-.043-12.51-4.162-27.737,6.364l-.072.033Z" transform="translate(-1922.567 -1019.548)" fill="#691b17"/>
        <path id="Path_10938" data-name="Path 10938" d="M2048.937,1031.251l-.122-.014c-.115-.053-11.5-5.045-25.622,1.319a.206.206,0,0,1-.271-.1.2.2,0,0,1,.106-.271c14.3-6.443,25.839-1.371,25.952-1.319a.2.2,0,0,1,.105.271.206.206,0,0,1-.148.117Z" transform="translate(-1923.725 -1015.996)" fill="#691b17"/>
        <path id="Path_10939" data-name="Path 10939" d="M2023.964,1048.722a.2.2,0,0,1-.132-.017.205.205,0,0,1-.1-.275c7.98-16.3,21.649-17.924,21.787-17.941a.207.207,0,0,1,.223.182.2.2,0,0,1-.179.225c-.139.014-13.585,1.63-21.465,17.717a.211.211,0,0,1-.138.11Z" transform="translate(-1922.593 -1013.807)" fill="#691b17"/>
        <path id="Path_10940" data-name="Path 10940" d="M2035.819,1039.539s-1.771-2.276-5.12-.782c-3.241,1.445.855,9.633,4.284,10.032s2.925-4.2,2.925-4.2l-2.089-5.051Z" transform="translate(-1914.51 -1002.992)" fill="#eda48c"/>
        <path id="Path_10941" data-name="Path 10941" d="M2041.5,1038.281a.581.581,0,0,1-.285-.017,5.677,5.677,0,0,0-3.188.46.424.424,0,0,1-.612-.144.507.507,0,0,1,.081-.67,4.2,4.2,0,0,1,3.976-.543.539.539,0,0,1,.29.63.418.418,0,0,1-.261.285Z" transform="translate(-1903.63 -1004.64)" fill="#1a1b20"/>
        <path id="Path_10942" data-name="Path 10942" d="M2045.511,1041.157s-3.209.364-4.73.52a5.221,5.221,0,0,0,4.749,2.415l-.019-2.935Z" transform="translate(-1898.814 -998.939)" fill="#fff"/>
        <path id="Path_10943" data-name="Path 10943" d="M2054.53,1046.5s11.917,8.48,15.169,18.363c2.416,7.329-4.511,30.583-7,37.893s-6.1,21.981-12.913,19.959l-2.927,8.231s-27.259-8.047-36.9-26.719l4.976-7.073s-4.662-6.871-2.331-10.4,10.512-1.661,12.726-6.8,19.174-28.327,29.205-33.456Z" transform="translate(-1941.77 -991.492)" fill="#f7cd7e"/>
        <path id="Path_10944" data-name="Path 10944" d="M2045.414,1092.524l-.1-.009c-18.016-4.242-32.827-23.7-32.975-23.892a.472.472,0,0,1,.1-.656.465.465,0,0,1,.651.1c.149.189,14.758,19.38,32.441,23.539a.47.47,0,0,1,.347.56.465.465,0,0,1-.457.361Z" transform="translate(-1938.58 -961.709)" fill="#d79b4d"/>
        <path id="Path_10945" data-name="Path 10945" d="M2020.851,1079.382c-.371,0-.726-.014-1.067-.048a.465.465,0,1,1,.083-.926c3.53.323,10.607-1.1,24.286-9.682a8.807,8.807,0,0,1,.888-.531.467.467,0,0,1,.6.261.459.459,0,0,1-.241.6c-.077.043-.39.239-.752.467-10.443,6.551-18.436,9.861-23.8,9.861Z" transform="translate(-1928.669 -961.309)" fill="#d79b4d"/>
        <path id="Path_10946" data-name="Path 10946" d="M2151.125,1084.861s-5.453-12.616-35.974-2.037c-20.153,6.982-43.58,9.665-52.575,10.421s-14.411,4.217-15.043,12.939,3.619,11,6.532,12.757,6.691,5.955,14.068,4.66c7.88-1.388,19.946.474,28.1-1.46,10.947-2.587,72.09-.455,54.892-37.28Z" transform="translate(-1889.495 -946.768)" fill="#fff"/>
        <path id="Path_10947" data-name="Path 10947" d="M2073.975,1083.982c1.372-.424,2.735-.864,4.091-1.331,18.1-6.273,27.539-4.449,32.259-1.819a12.63,12.63,0,0,1,2.523,1.824,9.066,9.066,0,0,0-1.084.29,12,12,0,0,0-1.894-1.295c-4.554-2.542-13.719-4.28-31.5,1.884-1.4.481-2.808.931-4.224,1.374a7.55,7.55,0,0,0-.17-.926Z" transform="translate(-1852.559 -947.039)" fill="#d5cec4"/>
        <path id="Path_10948" data-name="Path 10948" d="M2106.58,1094.4c-9.11,2.5-19.356,3.453-26.955,4.157a82.654,82.654,0,0,0-9.262,1.125,20.734,20.734,0,0,1-4.387.469c0,.1.014.192.014.285,0,.22-.014.433-.033.651a21.506,21.506,0,0,0,4.627-.5,84,84,0,0,1,9.128-1.105c7.676-.709,18.021-1.673,27.24-4.224a9.153,9.153,0,0,1-.371-.859Z" transform="translate(-1863.734 -924.755)" fill="#d5cec4"/>
        <path id="Path_10949" data-name="Path 10949" d="M2058.065,1103.776a.439.439,0,0,1-.251-.189.423.423,0,0,1,.132-.593c.163-.1,16-9.861,20.124-11.994a.452.452,0,0,1,.6.184.43.43,0,0,1-.177.589c-4.1,2.115-19.911,11.857-20.066,11.955a.452.452,0,0,1-.357.048Z" transform="translate(-1875.175 -929.554)" fill="#d5cec4"/>
        <path id="Path_10950" data-name="Path 10950" d="M2039.581,1068.518a143.265,143.265,0,0,0,17.963,17.781c11.008,8.851,26.019,18.748,28.451,25.1,3.221,8.408,4.842,24.667-8.545,18.353-11.658-5.505-47.8-52.436-47.8-52.436s5.376-8.217,9.936-8.8Z" transform="translate(-1914.329 -960.814)" fill="#eda48c"/>
        <path id="Path_10951" data-name="Path 10951" d="M2049.461,1074.683s-9.2,7.178-13.451,15.11l6.209,7.242s-2.3,5.924,1.115,7.872,7.169,4.816,8.4,6.383,24.128,21.706,32.364,17.317,8.028-16.737-4.119-28.887c-3.7-3.705-11.18-11.776-13.726-12.9s-3.335-8.384-9.756-6.441l-7.04-5.7Z" transform="translate(-1905.462 -952.223)" fill="#fff"/>
        <path id="Path_10952" data-name="Path 10952" d="M2041.367,1090.893c5.608-6.3,9.028-10.862,10.3-12.625l.091-.118a.475.475,0,0,0-.072-.646.46.46,0,0,0-.646.048c0,.01-.048.06-.129.17a172.732,172.732,0,0,1-11.749,14.227.466.466,0,0,0,.689.627c.522-.577,1.029-1.137,1.515-1.683Z" transform="translate(-1901.24 -948.446)" fill="#d5cec4"/>
        <path id="Path_10953" data-name="Path 10953" d="M2055.485,1098.161l-.069,0a.466.466,0,0,1-.4-.531c.832-5.5-1.433-12.078-1.452-12.144a.465.465,0,1,1,.878-.309c.1.275,2.36,6.862,1.5,12.592a.469.469,0,0,1-.463.4Z" transform="translate(-1881.033 -938.045)" fill="#d5cec4"/>
        <path id="Path_10954" data-name="Path 10954" d="M2060.584,1096.087a.461.461,0,0,1-.448-.337,23.135,23.135,0,0,0-5.586-9.332.468.468,0,0,1,.24-.9c.817.146,4.825,5.053,6.24,9.979a.464.464,0,0,1-.318.574.4.4,0,0,1-.127.019Z" transform="translate(-1880.065 -937.139)" fill="#d5cec4"/>
        <path id="Path_10955" data-name="Path 10955" d="M2044.225,1095.372s-2.87-.385-8.173-6.4c-1.544-1.747-3.372-5.086-4.318-6.113-10.194-11.087-9.3-12.25-8.3-13.186,0,0-4.569-4.289-1.534-5.955,0,0-1.91-2.362-.462-3.71a2.037,2.037,0,0,1,2.75-.261,2.337,2.337,0,0,1,3.064-.876,42.66,42.66,0,0,1,5.136,2.956,46.124,46.124,0,0,1,4.83,3.224s.5-1.259,2.655,0c.878.517,2.319,1.354,3.559,2.025,2.118,1.139,3.7,4.329,4.912,6.448,1.077,1.867,5.186,9.224,5.813,13.045.309,1.876.02,4.212-1.211,7.386,0,0-.395,2.63-8.722,1.419Z" transform="translate(-1926.574 -974.664)" fill="#eda48c"/>
        <path id="Path_10956" data-name="Path 10956" d="M2031.958,1072.122a.253.253,0,0,0-.033-.376l-9.081-8.468a.255.255,0,0,0-.376,0,.259.259,0,0,0,.034.381l9.08,8.458a.252.252,0,0,0,.376.009Z" transform="translate(-1924.429 -968.233)" fill="#c56450"/>
        <path id="Path_10957" data-name="Path 10957" d="M2037.009,1070.862l.015-.012a.234.234,0,0,0-.009-.366l-14.254-11.261a.28.28,0,0,0-.39.05.292.292,0,0,0,.052.4l14.239,11.242a.243.243,0,0,0,.347-.057Z" transform="translate(-1924.548 -973.846)" fill="#c56450"/>
        <path id="Path_10958" data-name="Path 10958" d="M2035.577,1072.018l.01-.015a.231.231,0,0,0,0-.357l-13.528-10.859a.273.273,0,0,0-.385.053.29.29,0,0,0,.043.4l13.514,10.842c.115.1.237.043.342-.064Z" transform="translate(-1925.519 -971.666)" fill="#c56450"/>
        <path id="Path_10959" data-name="Path 10959" d="M2037.755,1070.214a.255.255,0,0,0,.3-.4,105.575,105.575,0,0,0-9.983-8.535.253.253,0,1,0-.285.419c.067.048,7,5.33,9.892,8.458l.076.058Z" transform="translate(-1917.074 -970.961)" fill="#c56450"/>
        <path id="Path_10960" data-name="Path 10960" d="M2044.13,1060.926a33.2,33.2,0,0,1,2.74-7.673c.531-1.041,1.709-.783,3.124-1.075l.974-1.4s1.07-1.694,2.384-.823c1.413.933.974,2.006.974,2.006a1.5,1.5,0,0,1,1.852.282,1.989,1.989,0,0,1,.633,2.02,1.68,1.68,0,0,1,1.924.5,2.042,2.042,0,0,1,.357,1.969,1.769,1.769,0,0,1,1.183.692c.488.912-.448,2.99-.448,2.99a18.494,18.494,0,0,1-8.463,6.529s-7.879-.5-7.233-6.01Z" transform="translate(-1894.202 -987.036)" fill="#eda48c"/>
        <path id="Path_10961" data-name="Path 10961" d="M2054.18,1057.156a2.282,2.282,0,0,0-1.683-2.166c-.474-1.879-2.726-2.132-2.726-2.132s0-.433-.744-1.235-2.315.026-2.315.026l.6-.876s1.07-1.694,2.384-.823c1.413.933.974,2.006.974,2.006a1.5,1.5,0,0,1,1.853.282,1.988,1.988,0,0,1,.631,2.02,1.681,1.681,0,0,1,1.925.5,2.043,2.043,0,0,1,.356,1.969,1.769,1.769,0,0,1,1.183.692c.488.912-.448,2.99-.448,2.99s-.271.385-.984,1.3c1.046-3.109-1.01-4.555-1.01-4.555Z" transform="translate(-1890.549 -987.036)" fill="#c56450"/>
        <path id="Path_10962" data-name="Path 10962" d="M2029.836,1051.642s7.573-6.745,13.073,2.683a138.071,138.071,0,0,1,8.932,19.813s1.621-2.152,2.475.2c0,0,10.952-10.186,14.733-14.547,0,0,6.142,5.689,9.558,8.958,0,0-17.065,25.239-25.957,26.132-7.216.718-18.092-12.925-19.993-15.617-5.969-8.473-11.812-18.872-2.822-27.621Z" transform="translate(-1920.519 -987.585)" fill="#f7cd7e"/>
        <path id="Path_10963" data-name="Path 10963" d="M2040.517,1054.363c-2.032-3.485-4.579-5.252-7.571-5.252a10.063,10.063,0,0,0-5.736,2.078,7.906,7.906,0,0,1,1.481.139,8.637,8.637,0,0,1,4.255-1.283c2.636,0,4.912,1.611,6.764,4.789a109.427,109.427,0,0,1,5.814,11.9,7.75,7.75,0,0,1,.386-1.47,105.8,105.8,0,0,0-5.392-10.9Z" transform="translate(-1917.727 -987.856)" fill="#d79b4d"/>
        <path id="Path_10964" data-name="Path 10964" d="M2031.785,1066.288a62.032,62.032,0,0,1-4.834-7.865c-.281.117-.563.232-.848.34a60.416,60.416,0,0,0,4.921,8.061,70.177,70.177,0,0,0,10.921,11.69,9.907,9.907,0,0,1,.189-1.056,66.408,66.408,0,0,1-10.349-11.17Z" transform="translate(-1919.268 -974.88)" fill="#d79b4d"/>
        <path id="Path_10965" data-name="Path 10965" d="M2037.463,1071.665l-.11-.01a.468.468,0,0,1-.342-.565,32.494,32.494,0,0,0,.342-10.792.466.466,0,0,1,.39-.527.461.461,0,0,1,.531.391,32.971,32.971,0,0,1-.356,11.151.461.461,0,0,1-.455.352Z" transform="translate(-1904.089 -973.01)" fill="#d79b4d"/>
        <path id="Path_10966" data-name="Path 10966" d="M2035.791,1070.232l-.105-.014a.466.466,0,0,1-.352-.555c.655-2.927,2.243-9.475,2.257-9.543a.467.467,0,0,1,.907.223c-.015.067-1.6,6.6-2.253,9.523a.472.472,0,0,1-.455.366Z" transform="translate(-1906.421 -973.011)" fill="#d79b4d"/>
        <path id="Path_11014" data-name="Path 11014" d="M.032,0s5.3.364,7.812.519c0,0-2.5,2.642-7.844,2.415L.032,0Z" transform="translate(215.228 95.811) rotate(9)" fill="#fff"/>
      </g>
    </g>
  </g>
</svg>
