<svg xmlns="http://www.w3.org/2000/svg" xmlns:xlink="http://www.w3.org/1999/xlink" width="207" height="203" viewBox="0 0 207 203">
  <defs>
    <clipPath id="clip-image_plant">
      <rect width="207" height="203"/>
    </clipPath>
  </defs>
  <g id="image_plant" clip-path="url(#clip-image_plant)">
    <g id="Group_17119" data-name="Group 17119" transform="translate(-1)">
      <g id="Group_16340" data-name="Group 16340" transform="translate(-3704.307 -762.283)">
        <g id="Group_16335" data-name="Group 16335" transform="translate(3705.306 762.283)">
          <path id="Path_11220" data-name="Path 11220" d="M4016.263,780.417c4.749,3.886,9.993,7.121,14.632,11.147,4.051,3.517,6.522,8.062,11.475,10.624a6.039,6.039,0,0,0,3.976.869c1.762-.392,2.923-2.068,3.666-3.713,3.714-8.223.521-16.281-4.3-23.165-4.958-7.071-12.908-15.938-22.556-13.475-4.335.151-9.493.408-11.624,4.53C4008.942,772.24,4012.483,777.324,4016.263,780.417Z" transform="translate(-3913.023 -762.284)" fill="#5e785b"/>
          <path id="Path_11221" data-name="Path 11221" d="M3919.508,907.1c-16.467-11.428-35.323-33.362-57.779-27.146-11.787,3.263-21.191,13.031-28.4,22.428-1.718,2.239-4.6,5.244-7.024,8.511.211-.961.427-1.914.621-2.847.9-4.36,1.585-8.753,2.39-13.132.167-.908.352-1.807.536-2.706a65.05,65.05,0,0,1,3.459-6.819c2.881-4.6,7.516-8.555,11.905-11.69a120.2,120.2,0,0,1,12.015-6.987c4.7-2.6,9.152-6.076,14.754-6.139a1.312,1.312,0,0,0,0-2.623c-4.54.051-8.238,1.952-12.109,4.207-5.317,3.1-10.96,5.7-15.983,9.277a54.4,54.4,0,0,0-10.9,9.908c-.125.157-.23.324-.35.482a44.748,44.748,0,0,1,8.207-14.742,49.9,49.9,0,0,1,25.315-15.972c10.027-2.5,20.55-1.925,30.684-3.9,1.656-.321.955-2.85-.7-2.529-12.546,2.438-25.759,1.159-37.732,6.268a53.655,53.655,0,0,0-22.176,17.752,47.523,47.523,0,0,0-6.687,13.987c.078-.4.153-.8.231-1.2,1.895-9.672,3.2-20.365,10.666-27.532,1.22-1.171-.636-3.024-1.855-1.855-7.4,7.1-9.165,17.369-11.023,27.031-1.4,7.3-2.787,14.5-3.617,21.763-.577-4.193-1.418-8.368-2.356-12.481-.254-1.114-.55-2.23-.823-3.346a92.9,92.9,0,0,1,.459-21.774,1.192,1.192,0,0,0,.256-.757c0-.24-.031-.494-.037-.736a78.975,78.975,0,0,1,10.808-28.508c5.5-8.593,13.142-15.593,19.522-23.5,1.051-1.3-.794-3.169-1.854-1.855-6.526,8.086-14.308,15.238-19.933,24.03a78.237,78.237,0,0,0-9.3,21.326c-1.58-10.213-5.545-20.774-12.044-28.077-1.124-1.264-2.974.6-1.855,1.855,7.757,8.716,11.718,22.928,12.03,34.586a78.969,78.969,0,0,0-1.068,12.554,101.229,101.229,0,0,0-5.225-13.19c-3.552-7.3-8.795-13.308-16.187-16.867-9.239-4.449-19.837-4.487-29.763-6.126-1.651-.273-2.361,2.254-.7,2.529,9.106,1.5,18.649,1.613,27.292,5.121,9.911,4.023,15.4,11.974,19.218,21.575a143.68,143.68,0,0,1,5.822,18.356c.281,3.478.651,6.957,1.06,10.435.541,4.595.8,9.384,1.274,14.14-2.483-5.441-3.731-11.423-5.948-16.969a40.08,40.08,0,0,0-20.444-22.014c-18.411-8.3-39.371-.362-53.575,12.33-1.262,1.127.6,2.977,1.854,1.855,13.7-12.241,34.349-20.026,51.9-11.205,9.683,4.866,15.681,13.555,19.136,23.6.847,2.463,1.585,4.981,2.4,7.471-9.669-15.357-24.459-26.361-44.284-22.055-1.649.358-.951,2.887.7,2.529,19.5-4.236,33.73,7.559,42.7,23.035-4.165-4.5-9.384-8.463-15.561-9.452-13.762-2.2-23.76,11.6-35.447,16.216-1.551.613-.875,3.151.7,2.529,9.771-3.863,17.127-12.875,27.3-15.674,7.5-2.065,15.746,1.661,20.863,7.125,3.028,3.233,3.469,6.591,4.652,10.754q2.157,7.592,4.161,15.226c.491,1.87,1.119,3.938,2.8,4.9a3.724,3.724,0,0,0,4.185-.424c2.226-1.951.586-5.76.415-8.249a73.9,73.9,0,0,1,.04-10.712c.383-4.984,1.4-10.128,3.879-14.524,2.209-3.916,5.979-7.073,9.058-10.32,7.08-7.464,16.2-14.458,26.949-14.6,19.287-.257,34.562,17.652,49.2,27.814C3919.574,910.33,3920.886,908.057,3919.508,907.1Z" transform="translate(-3729.021 -793.04)" fill="#004129"/>
          <g id="Group_16326" data-name="Group 16326" transform="translate(16.844 32.929)">
            <path id="Path_11222" data-name="Path 11222" d="M3782.68,865.516a1.542,1.542,0,0,0-.279-.111c-.293-.054-.574-.055-.86-.082l-.045-.008c-.008,0-.013,0-.021,0a12.384,12.384,0,0,0-6.76,1.568c-15.127,4.193-25.67,34.022-5.9,35.337,9.819.654,20.683-7.777,24.469-16.452C3797.548,876.008,3792.766,867.326,3782.68,865.516Z" transform="translate(-3757.99 -865.28)" fill="#5e785b"/>
            <path id="Path_11223" data-name="Path 11223" d="M3823.969,882.875a3.141,3.141,0,0,0-2.95.725,1.465,1.465,0,0,0-.949,1.114,1.416,1.416,0,0,0,.155,1.585,3.248,3.248,0,0,0,2.126,2.219c1.681.422,2.94-1.117,3.237-2.622A2.494,2.494,0,0,0,3823.969,882.875Z" transform="translate(-3800.105 -877.164)" fill="#889e85"/>
          </g>
          <g id="Group_16327" data-name="Group 16327" transform="translate(131.676 45.945)">
            <path id="Path_11224" data-name="Path 11224" d="M4117.56,916.167c-1.614,7.8,1.757,18.878,8.823,23.2,14.231,8.706,21.482-16.921,13.122-27.155a10.429,10.429,0,0,0-3.885-4.363c-.005,0-.008-.008-.014-.011l-.035-.017c-.21-.121-.4-.256-.631-.362a1.325,1.325,0,0,0-.246-.06C4126.883,903.743,4119.376,907.387,4117.56,916.167Z" transform="translate(-4117.162 -905.99)" fill="#5e785b"/>
            <path id="Path_11225" data-name="Path 11225" d="M4159.345,923.212a2.642,2.642,0,0,1,1.675,1.932,1.232,1.232,0,0,1,.111,1.227,1.193,1.193,0,0,1-.877,1.013,2.736,2.736,0,0,1-2.54.492c-1.36-.527-1.478-2.2-.95-3.376A2.1,2.1,0,0,1,4159.345,923.212Z" transform="translate(-4143.904 -917.637)" fill="#889e85"/>
          </g>
          <g id="Group_16328" data-name="Group 16328" transform="translate(166.096 90.474)">
            <path id="Path_11226" data-name="Path 11226" d="M4251,1047.158a1.589,1.589,0,0,0-.7-.108c-6.058-2.527-12.77-2.78-18.177,1.969-6.568,5.77-8.154,15.321-6.933,23.142,1.483,9.5,7.869,18.9,18.232,22.449,11.894,4.068,18-6.135,20.229-15.018C4266.915,1066.615,4265.949,1053.232,4251,1047.158Z" transform="translate(-4224.821 -1045.267)" fill="#4d6a4a"/>
            <path id="Path_11227" data-name="Path 11227" d="M4283,1072.04a2.567,2.567,0,0,0-1.024-.825,1.315,1.315,0,0,0-1.723-1.272,6.994,6.994,0,0,0-2.286,1.032,2.854,2.854,0,0,0-1.8,2.919,1.174,1.174,0,0,0,.3.669c.466,1.8,2.463,2.9,4.418,3.215a1.521,1.521,0,0,0,1.586-.578C4283.3,1075.679,4284.16,1073.618,4283,1072.04Z" transform="translate(-4259.741 -1062.016)" fill="#889e85"/>
            <path id="Path_11228" data-name="Path 11228" d="M4314.994,1070.463a1.6,1.6,0,0,0-2.622-.3c-.824-.447-2.181-.124-2.187,1.006-.021,3.767,2.469,7.041,3.381,10.641,1.386,5.469-.294,11.035-.87,16.493-.134,1.275,1.966,1.665,2.617.634C4320.869,1090.135,4318.721,1079.5,4314.994,1070.463Z" transform="translate(-4282.893 -1061.828)" fill="#889e85"/>
          </g>
          <g id="Group_16329" data-name="Group 16329" transform="translate(125.056 72.071)">
            <path id="Path_11229" data-name="Path 11229" d="M4122.606,988.414a27.82,27.82,0,0,0-7.158-.694,26.878,26.878,0,0,0-8.917,1.837c-2.537.992-5.714,2.323-7.1,4.761a25.254,25.254,0,0,0-2.581,16.523,26.96,26.96,0,0,0,18.383,21.117c11.991,3.826,18.151-5.771,20.4-14.126.039-.144.077-.288.115-.433,1.726-6.636,2.409-14.189-.961-20.443C4132.269,992.3,4127.643,989.592,4122.606,988.414Z" transform="translate(-4096.457 -987.706)" fill="#889e85"/>
            <path id="Path_11230" data-name="Path 11230" d="M4155.139,1007.436c-1.324-1.682-3.243-1.638-5.075-1a2.675,2.675,0,0,0-1.819,2.746,1.076,1.076,0,0,0,.306.629c.47,1.692,2.483,2.723,4.455,3.024a1.591,1.591,0,0,0,1.6-.544C4155.446,1010.859,4156.308,1008.92,4155.139,1007.436Z" transform="translate(-4131.68 -1000.17)" fill="#b1c1ae"/>
          </g>
          <g id="Group_16330" data-name="Group 16330" transform="translate(47.338 58.797)">
            <path id="Path_11231" data-name="Path 11231" d="M3858.21,952.365c-4.467,5.525-5.188,13.074-4.715,19.916q.016.223.033.446c.666,8.626,4.949,19.2,17.441,17.646a26.962,26.962,0,0,0,21.962-17.364,25.252,25.252,0,0,0,.511-16.716c-.917-2.653-3.794-4.548-6.1-5.99a26.861,26.861,0,0,0-8.426-3.45,27.822,27.822,0,0,0-7.163-.638C3866.58,946.444,3861.535,948.251,3858.21,952.365Z" transform="translate(-3853.369 -946.19)" fill="#5e785b"/>
            <path id="Path_11232" data-name="Path 11232" d="M3913.362,966.027c1.612-1.408,3.49-1.012,5.173-.048a2.674,2.674,0,0,1,1.281,3.034,1.076,1.076,0,0,1-.417.562c-.774,1.576-2.943,2.218-4.937,2.15a1.591,1.591,0,0,1-1.471-.829C3912.429,969.335,3911.94,967.27,3913.362,966.027Z" transform="translate(-3893.549 -959.06)" fill="#889e85"/>
          </g>
          <g id="Group_16331" data-name="Group 16331" transform="translate(0 62.933)">
            <path id="Path_11233" data-name="Path 11233" d="M3750.067,968c-5.035-9.422-19.464-10.4-28.614-7.283-10.377,3.53-15.2,15.106-16.023,25.272-.836,10.3,2.436,22.749,12.633,27.376,11.828,5.367,25.92-1.782,33.47-11.08C3760.308,991.477,3761.282,977.018,3750.067,968Z" transform="translate(-3705.306 -959.126)" fill="#889e85"/>
            <path id="Path_11234" data-name="Path 11234" d="M3795.231,998.557a4.229,4.229,0,0,0-2.247-2.458,1.024,1.024,0,0,0-1.01-.858,6.623,6.623,0,0,0-1.394.112c-.1-.011-.211-.031-.311-.036a.925.925,0,0,0-.79.373,3.2,3.2,0,0,0-2.059,2.371c-.375,1.981,1.326,3.408,3.139,3.628C3792.389,1001.911,3795.935,1001.125,3795.231,998.557Z" transform="translate(-3761.132 -983.693)" fill="#b1c1ae"/>
            <path id="Path_11235" data-name="Path 11235" d="M3741.485,972.072a6.427,6.427,0,0,0-6.845,1.37c-7.3,1.417-7.94,10.151-9.575,16.674a21.4,21.4,0,0,0-1.185,3.644c-.254,1.135,1.483,2.031,1.992.84.035-.083.065-.179.1-.265l.011,0c.01-.047.027-.091.038-.137a21.037,21.037,0,0,0,.757-2.457,29.243,29.243,0,0,1,7.571-10.795c2.585-2.443,6.016-4.069,7.788-7.276A1.108,1.108,0,0,0,3741.485,972.072Z" transform="translate(-3717.924 -967.622)" fill="#889e85" opacity="0.74"/>
          </g>
          <g id="Group_16332" data-name="Group 16332" transform="translate(160.23 32.543)">
            <path id="Path_11236" data-name="Path 11236" d="M4246.524,886.139c-.679-11.761-8.292-17.879-18.376-20.976a1.232,1.232,0,0,0-.554-.291c-.446-.105-.883-.174-1.321-.249q-1.05-.277-2.125-.517a1.258,1.258,0,0,0-1.062.218c-8.557-.1-15.212,5.617-16.425,15.012-1.578,12.215,7.009,22.534,18.106,26.605,5.441,2,12.145,2.371,16.755-1.752C4246.3,899.916,4246.869,892.108,4246.524,886.139Z" transform="translate(-4206.472 -864.071)" fill="#5e785b"/>
            <path id="Path_11237" data-name="Path 11237" d="M4264.485,892.755a2.712,2.712,0,0,0-2.111-2.1.836.836,0,0,0-.719-.553c-2.448-.238-3.8,2.827-2.387,4.679C4260.89,896.9,4265.022,895.614,4264.485,892.755Z" transform="translate(-4241.997 -881.768)" fill="#889e85"/>
            <path id="Path_11238" data-name="Path 11238" d="M4280.066,879.651c-3.43-3.475-8.195-5.119-12.792-6.372a1.17,1.17,0,0,0-1.554.893,1.237,1.237,0,0,0,.857,1.636,22.066,22.066,0,0,1,9.6,5.909c2.632,2.9,3.819,6.528,5.378,10.047.543,1.225,2.464.563,2.444-.662C4283.924,886.707,4283.285,882.912,4280.066,879.651Z" transform="translate(-4246.732 -870.286)" fill="#889e85" opacity="0.54"/>
          </g>
          <g id="Group_16333" data-name="Group 16333" transform="translate(20.469 98.292)">
            <path id="Path_11239" data-name="Path 11239" d="M3785.534,1115.906c6.07,1.186,11.639-2.563,15.295-7.061,7.455-9.172,9.559-22.431,1.958-32.122-5.847-7.454-14.489-8.963-21.792-4.5a1.257,1.257,0,0,0-1.025.356q-.8.755-1.562,1.53c-.338.289-.679.572-1.009.89a1.231,1.231,0,0,0-.327.533c-7.084,7.818-10.5,16.968-5.067,27.423C3774.76,1108.259,3779.245,1114.677,3785.534,1115.906Z" transform="translate(-3769.329 -1069.719)" fill="#5e785b"/>
            <path id="Path_11240" data-name="Path 11240" d="M3806.873,1106.782a2.712,2.712,0,0,1,.739-2.888.837.837,0,0,1,.335-.842c1.982-1.456,4.715.484,4.444,2.8C3812.081,1108.5,3807.873,1109.513,3806.873,1106.782Z" transform="translate(-3794.769 -1092.052)" fill="#889e85"/>
            <path id="Path_11241" data-name="Path 11241" d="M3774.623,1102.286c1.171-4.74,4.425-8.589,7.736-12.017a1.169,1.169,0,0,1,1.792-.027,1.236,1.236,0,0,1,.1,1.844,22.072,22.072,0,0,0-5.227,9.987c-.777,3.841.055,7.563.515,11.384.16,1.33-1.829,1.744-2.439.681C3774.914,1110.322,3773.523,1106.733,3774.623,1102.286Z" transform="translate(-3772.669 -1083.404)" fill="#889e85" opacity="0.54"/>
          </g>
          <path id="Path_11242" data-name="Path 11242" d="M3927.385,838.189c-3.068-3.9-8.016-4.334-12.594-4.362h0c-7.975-1.552-21.66,14.276-13.041,17.6,3.654,1.407,8.72-.762,12.448-.932,4.428-.2,10.034-.249,13.223-3.912C3929.629,844.039,3929.41,840.765,3927.385,838.189Z" transform="translate(-3837.071 -810.881)" fill="#4d6a4a"/>
          <g id="Group_16334" data-name="Group 16334" transform="translate(99.331 46.592)">
            <path id="Path_11243" data-name="Path 11243" d="M4037.828,909.764c-4.369-1.85-10.938-2.453-15.4-.723a7.232,7.232,0,0,0-4.525,5.268,8.8,8.8,0,0,0-1.792,3.985c-.936,5.367,3.972,8,7.13,11.34,3.066,3.24,5.594,9.141,10.92,8.971,3.808-.122,6.39-3.622,7.954-6.7C4045.882,924.478,4046.91,913.61,4037.828,909.764Z" transform="translate(-4015.992 -908.014)" fill="#4d6a4a"/>
            <path id="Path_11244" data-name="Path 11244" d="M4053.267,922.551a3.863,3.863,0,0,0-.356-.277,1.327,1.327,0,0,0-1.2-1.083,3.809,3.809,0,0,0-.949.051l-.014,0a1.343,1.343,0,0,0-1.239.471,3.417,3.417,0,0,0-1.24,1.763,1.294,1.294,0,0,0,.337,1.276c1.563,1.483,3.813,1.419,4.867-.608A1.36,1.36,0,0,0,4053.267,922.551Z" transform="translate(-4037.912 -916.971)" fill="#889e85"/>
            <path id="Path_11245" data-name="Path 11245" d="M4081.039,931.234a1.323,1.323,0,0,0-2.444.662c.046,3.119.412,6.182-.3,9.257-.5,2.154-.968,3.769.18,5.8a1.276,1.276,0,0,0,1.132.65l.4-.054c.019,0,.032-.012.05-.015a1.214,1.214,0,0,0,1.2-.3C4085.335,943.428,4083.883,935.361,4081.039,931.234Z" transform="translate(-4058.017 -923.399)" fill="#5e785b"/>
          </g>
        </g>
        <g id="Group_16339" data-name="Group 16339" transform="translate(3766.949 896.559)">
          <path id="Path_11246" data-name="Path 11246" d="M3977.044,1182.271h-78.931l6.059,39.054c2.376,15.314,16.813,20.449,33.851,20.449h0c17.3,0,31.879-5.484,33.941-21.079Z" transform="translate(-3898.112 -1182.271)" fill="#fab057"/>
          <rect id="Rectangle_6418" data-name="Rectangle 6418" width="69.584" height="2.537" transform="translate(5.321 34.295)" fill="#286069"/>
          <g id="Group_16336" data-name="Group 16336" transform="translate(4.078 35.363)">
            <path id="Path_11247" data-name="Path 11247" d="M3913.39,1340.9l-2.524-.108,7.056-47.914,2.485.367Z" transform="translate(-3910.866 -1292.88)" fill="#286069"/>
          </g>
          <g id="Group_16337" data-name="Group 16337" transform="translate(66.606 35.363)">
            <path id="Path_11248" data-name="Path 11248" d="M4113.447,1340.808l-7-47.561,2.485-.367,7.056,47.914Z" transform="translate(-4106.443 -1292.88)" fill="#286069"/>
          </g>
          <g id="Group_16338" data-name="Group 16338" transform="translate(38.855 35.547)">
            <rect id="Rectangle_6419" data-name="Rectangle 6419" width="2.514" height="53.413" fill="#286069"/>
          </g>
        </g>
      </g>
    </g>
  </g>
</svg>
