<svg xmlns="http://www.w3.org/2000/svg" xmlns:xlink="http://www.w3.org/1999/xlink" width="50" height="48" viewBox="0 0 50 48">
  <defs>
    <clipPath id="clip-image_upload">
      <rect width="50" height="48"/>
    </clipPath>
  </defs>
  <g id="image_upload" clip-path="url(#clip-image_upload)">
    <g id="inbox">
      <path id="Shape" d="M45.932,48H4.07A3.965,3.965,0,0,1,.009,44.149V20.964c0-.072,0-.156.011-.249l0-.054a2.182,2.182,0,0,1,.068-.938L.1,19.673l.02-.045,7-17.882A2.56,2.56,0,0,1,9.589,0H39.945A2.547,2.547,0,0,1,42.4,1.723L49.89,19.786l.012.051a2.325,2.325,0,0,1,.089.893c.005.071.005.154.005.234V44.149A3.973,3.973,0,0,1,45.932,48ZM5.13,21.978V43.135H44.857V21.978H34.411a9.555,9.555,0,0,1-3.383,4.029A10.806,10.806,0,0,1,25,27.731a10.828,10.828,0,0,1-5.689-1.52,9.479,9.479,0,0,1-3.682-4.232ZM19.872,17.11l.02.995a4.718,4.718,0,0,0,1.443,3.455,5.228,5.228,0,0,0,3.657,1.305c3.025,0,5.092-1.913,5.145-4.761l.02-.995H43.541L38.087,4.862H11.444L6.137,17.11Z" fill="#4caaf5"/>
    </g>
  </g>
</svg>
