<svg xmlns="http://www.w3.org/2000/svg" xmlns:xlink="http://www.w3.org/1999/xlink" width="50" height="71" viewBox="0 0 50 71">
  <defs>
    <clipPath id="clip-path">
      <rect id="Rectangle_3735" data-name="Rectangle 3735" width="50" height="71" rx="4" transform="translate(-0.202 -0.144)" fill="none" stroke="#7cacd3" stroke-width="1"/>
    </clipPath>
    <clipPath id="clip-image_girl_smaller">
      <rect width="50" height="71"/>
    </clipPath>
  </defs>
  <g id="image_girl_smaller" clip-path="url(#clip-image_girl_smaller)">
    <g id="Group_16114" data-name="Group 16114" transform="translate(0.613 10.144)">
      <g id="Mask_Group_9" data-name="Mask Group 9" transform="translate(-0.41 -10)" clip-path="url(#clip-path)">
        <g id="Group_2552" data-name="Group 2552" transform="translate(-12.415 0)">
          <path id="Path_1415" data-name="Path 1415" d="M1623.176,591.412h-155.77v91.842h155.77V591.412" transform="translate(-1467.406 -591.412)" fill="#fafafa"/>
          <path id="Path_1416" data-name="Path 1416" d="M1523.434,624.563s-2.409-7.578,1.1-12.38,6.581-1.214,7.287,0a5.579,5.579,0,0,1,2.863.844c1.445.9,9,2.955,9.545,8.76s-1.779,8.607,0,12.148,6.264,6.042,5.4,11.7,5.119,11.257,2.084,18.047a8.485,8.485,0,0,1-2.829.528c-1.236-.07-2.95-1.395-6.174.006s-5.785,1.543-8.449.522-4.149-1.653-6.87-1.056-5.858-.034-6.416-1.723,1.595-9.006,2.1-12.454-3.089-8.373.657-14.424-.3-10.522-.3-10.522Z" transform="translate(-1495.074 -600.357)" fill="#43211a"/>
          <path id="Path_1417" data-name="Path 1417" d="M1542.637,670.258l-9.082,1.411-2.66-16.023,9.082-1.41,2.66,16.022Z" transform="translate(-1500.015 -621.749)" fill="#e8b78e"/>
          <path id="Path_1418" data-name="Path 1418" d="M1530.9,655.866l1.234,7.433c1.467-1.234,3.7-2.231,6.327-8.608l-7.561,1.175Z" transform="translate(-1500.015 -621.967)" fill="#c56450"/>
          <path id="Path_1419" data-name="Path 1419" d="M1531.9,618.471s-6.326-1.381-8.6,6.609c-.645,2.269-.385,4.741-1.275,5.764-1.9,2.177-4.136,2.955-1.073,4.352a10.671,10.671,0,0,1,0,2.266c-.223,2.038-.53,4.753,1.416,5.272,2.269.6,5.735-1.018,10.026-2.817a11.581,11.581,0,0,0,4.088-3.04c3.17-3.6,8.491-12.453.131-17.025a23.075,23.075,0,0,0-4.714-1.38Z" transform="translate(-1494.359 -604.506)" fill="#e8b78e"/>
          <path id="Path_1420" data-name="Path 1420" d="M1533.431,638.927a.245.245,0,0,0,.2-.04.3.3,0,0,0,.124-.421,3.158,3.158,0,0,0-3.314-1.476.323.323,0,0,0-.247.4c.039.18.21.226.388.253a4.682,4.682,0,0,1,2.6,1.132.547.547,0,0,0,.254.154Z" transform="translate(-1499.664 -613.44)" fill="#23262e"/>
          <path id="Path_1421" data-name="Path 1421" d="M1525.046,655.39a.288.288,0,0,0,.192-.356.277.277,0,0,0-.345-.2,4.269,4.269,0,0,1-2.5.021c0,.043-.008.086-.013.131-.015.146-.032.3-.049.45l.071.021a4.826,4.826,0,0,0,2.643-.069Z" transform="translate(-1495.786 -622.032)" fill="#b64c4f"/>
          <path id="Path_1422" data-name="Path 1422" d="M1531.138,642.794c-.121.476-.455.8-.746.722s-.428-.527-.308-1,.454-.8.745-.722.429.527.309,1Z" transform="translate(-1499.593 -615.759)" fill="#1a1b20"/>
          <path id="Path_1423" data-name="Path 1423" d="M1534.9,616.942s-2.235,9.394,1.42,11.715,3.494,3.053,3.781,3.9,1.169,5.476,2.116,7.331c0,0,6.367-5.779,7.018-10.775s-1.063-11.961-14.335-12.172Z" transform="translate(-1501.658 -603.814)" fill="#43211a"/>
          <path id="Path_1424" data-name="Path 1424" d="M1545.176,645.974a1.931,1.931,0,0,1,2.38-.571c1.577.574-.046,4.68-1.644,5s-1.531-1.915-1.531-1.915l.8-2.516Z" transform="translate(-1506.675 -617.42)" fill="#e8b78e"/>
          <path id="Path_1425" data-name="Path 1425" d="M1534.9,616.951l-.02,0a.105.105,0,0,1-.082-.123s.13-.721.383-2.153a.962.962,0,0,1,.451-.676c.859-.536,2.608.008,2.682.031a.1.1,0,0,1,.068.132.1.1,0,0,1-.129.069c-.017-.005-1.734-.539-2.514-.051a.743.743,0,0,0-.355.533c-.253,1.433-.384,2.155-.384,2.155a.1.1,0,0,1-.1.086Z" transform="translate(-1501.944 -602.284)" fill="#582420"/>
          <path id="Path_1426" data-name="Path 1426" d="M1541.994,630.535a.1.1,0,0,1-.063-.022c-3.822-3.061-1.914-11.879-1.831-12.253a.1.1,0,0,1,.124-.079.1.1,0,0,1,.077.126c-.02.09-1.962,9.062,1.758,12.04a.108.108,0,0,1,.018.148.1.1,0,0,1-.082.041Z" transform="translate(-1504.29 -604.408)" fill="#582420"/>
          <path id="Path_1427" data-name="Path 1427" d="M1556.528,650.435a.1.1,0,0,1-.058-.018c-3.526-2.376-4.033-6.676-4.525-10.834-.366-3.092-.71-6.012-2.19-8.221-3.535-5.28-1.431-13.032-1.408-13.109a.1.1,0,0,1,.127-.073.106.106,0,0,1,.07.131c-.021.076-2.1,7.734,1.381,12.932,1.507,2.251,1.872,5.333,2.224,8.313.486,4.111.988,8.361,4.434,10.685a.108.108,0,0,1,.03.146.1.1,0,0,1-.085.047Z" transform="translate(-1508.318 -604.408)" fill="#582420"/>
          <path id="Path_1428" data-name="Path 1428" d="M1561.177,657.395h-.015a.1.1,0,0,1-.087-.12c.457-3.042-1.962-9.911-5.075-14.414s-3.565-15.1-3.569-15.2a.1.1,0,0,1,.1-.109.1.1,0,0,1,.107.1c0,.106.446,10.627,3.531,15.088,3.138,4.539,5.573,11.482,5.111,14.569a.106.106,0,0,1-.1.089Z" transform="translate(-1510.653 -608.915)" fill="#582420"/>
          <path id="Path_1429" data-name="Path 1429" d="M1561.608,650.581a.1.1,0,0,1-.085-.047c-2.564-3.913-2.485-11.427-2.484-11.5,0-.058.047-.073.1-.073h0c.057,0,.1.018.1.076,0,.076-.079,7.54,2.448,11.4a.1.1,0,0,1-.028.14.1.1,0,0,1-.057.01Z" transform="translate(-1513.916 -614.402)" fill="#582420"/>
          <path id="Path_1430" data-name="Path 1430" d="M1521.073,676.472s6.083-2.648,6.377-3.806l9.206-.664a38.23,38.23,0,0,0,7.54,4.2s-6.739,4.994-15.048,4.123a12.835,12.835,0,0,1-8.075-3.851Z" transform="translate(-1495.164 -630.292)" fill="#e8b78e"/>
          <path id="Path_1431" data-name="Path 1431" d="M1489.205,728.185h8.782c1.166-3.531,2.1-6.622,2.875-9.288,1.291-4.429,4.667-18.785,4.461-24.766a13.012,13.012,0,0,0-4.455-9.291s-2.953,1.48-4.53,7.6c-.131.509-1.163.809-1.3,1.478s.184,3.719.11,4.5c-.591,6.26-1.567,10.455-2.2,14.4-.153.948-1.653,1.963-1.748,2.694a6.086,6.086,0,0,0,.343,2.885s-.36,1.291-2.331,9.78Z" transform="translate(-1479.424 -636.466)" fill="#38688d"/>
          <path id="Path_1432" data-name="Path 1432" d="M1499.821,750.174a.207.207,0,0,1-.093-.023c-1.651-.862-4.991-.718-5.024-.716a.211.211,0,0,1-.215-.2.209.209,0,0,1,.2-.22c.141-.007,3.481-.15,5.229.762a.214.214,0,0,1,.091.284.207.207,0,0,1-.185.115Z" transform="translate(-1482.033 -667.321)" fill="#325a75"/>
          <path id="Path_1433" data-name="Path 1433" d="M1501.325,744.278a.205.205,0,0,1-.166-.085,12,12,0,0,0-4.207-3.1.212.212,0,0,1-.109-.276.2.2,0,0,1,.27-.112,12.185,12.185,0,0,1,4.377,3.235.213.213,0,0,1-.043.295.2.2,0,0,1-.122.042Z" transform="translate(-1483.188 -663.323)" fill="#325a75"/>
          <path id="Path_1434" data-name="Path 1434" d="M1505.033,708.349h-.017a.211.211,0,0,1-.188-.228c.173-2.189-1.666-7.351-1.686-7.4a.213.213,0,0,1,.122-.271.2.2,0,0,1,.264.125c.077.216,1.891,5.3,1.71,7.584a.208.208,0,0,1-.2.193Z" transform="translate(-1486.301 -643.964)" fill="#efe4db"/>
          <path id="Path_1435" data-name="Path 1435" d="M1503.634,713.8a.208.208,0,0,1-.2-.173,23.64,23.64,0,0,0-1.9-3.621.214.214,0,0,1,.067-.29.2.2,0,0,1,.283.068,23.686,23.686,0,0,1,1.953,3.767.21.21,0,0,1-.165.246.181.181,0,0,1-.037,0Z" transform="translate(-1485.498 -648.413)" fill="#325a75"/>
          <path id="Path_1436" data-name="Path 1436" d="M1506.962,725.4H1534.7c.247-3.956,1.633-9.826,2.32-13.931,1.132-6.755,6.224-28.022,6.224-28.022-.96-.843-1.1-1.591-6.964-4.394,0,0-7.715,3.534-14.8,3.073a14.5,14.5,0,0,1-7.5-2.735,30.214,30.214,0,0,0-4.955,2.665s.611,6.564.611,7.738c0,2.969-3.611,9.373-3.809,11.615-.312,3.543.059,5.018.849,8.653.583,2.683.414,9.685.288,15.338Z" transform="translate(-1487.579 -633.684)" fill="#38688d"/>
          <path id="Path_1437" data-name="Path 1437" d="M1531.49,704.846a.206.206,0,0,1-.154-.071.215.215,0,0,1,.017-.3c2.865-2.625,9.549-6.221,9.617-6.256a.2.2,0,0,1,.278.089.214.214,0,0,1-.087.285c-.067.036-6.707,3.607-9.534,6.2a.2.2,0,0,1-.136.054Z" transform="translate(-1500.207 -642.889)" fill="#efe4db"/>
          <path id="Path_1438" data-name="Path 1438" d="M1508.948,691.909c.142,1.693.279,3.438.279,3.982,0,1.634-1.153,4.414-2.173,6.867a21.564,21.564,0,0,0-1.635,4.729,22.4,22.4,0,0,0,.75,8.245l.1.473c.474,2.18.444,7.329.35,12.172a3.941,3.941,0,0,1,.416-.161c.091-4.818.115-9.905-.364-12.1l-.1-.473a15.406,15.406,0,0,1,.862-12.717c1.034-2.49,2.208-5.312,2.205-7.032,0-.579-.144-2.419-.292-4.163a3.715,3.715,0,0,1-.4.181Z" transform="translate(-1487.377 -639.778)" fill="#2d526b"/>
          <path id="Path_1439" data-name="Path 1439" d="M1537.623,735.008a.2.2,0,0,1-.059-.009c-5.025-1.557-7.391-6.649-7.415-6.7a.213.213,0,0,1,.1-.28.2.2,0,0,1,.274.1c.023.05,2.317,4.974,7.161,6.475a.212.212,0,0,1,.137.263.205.205,0,0,1-.2.15Z" transform="translate(-1499.637 -657.22)" fill="#efe4db"/>
          <path id="Path_1440" data-name="Path 1440" d="M1566.768,719.242c-.3,1.083-.892,1.8.24,3.2.466.578.11.557-.165,2.025-.188,1.01-.62,3.387-.812,5.007h10.774a55.642,55.642,0,0,0,.527-9.637c.038-2.378-.1-8,.222-16.589.035-.929.722-4.133.677-5.022-.026-.508-.944-.9-.973-1.386a16.094,16.094,0,0,0-4.219-9.319s-7.058.8-6.949,16.755c.017,2.408.453,7.222.616,10.8a17.053,17.053,0,0,1,.062,4.162Z" transform="translate(-1517.369 -637.755)" fill="#38688d"/>
          <path id="Path_1441" data-name="Path 1441" d="M1566.464,716.464c-.156-2.282-.3-4.439-.311-5.812a27.368,27.368,0,0,1,1.469-9.869c-.1.033-.193.066-.291.1-.069.023-.136.039-.206.06a28.348,28.348,0,0,0-1.384,9.713c.009,1.387.156,3.55.312,5.839.024.361.4,5.111.426,5.474a3.529,3.529,0,0,1,.4-.094c-.023-.342-.4-5.07-.419-5.41Z" transform="translate(-1517.227 -644.133)" fill="#efe4db"/>
          <path id="Path_1442" data-name="Path 1442" d="M1572.7,756.521a.208.208,0,0,1-.132-.067,11.349,11.349,0,0,0-3.681-2.278.211.211,0,0,1-.124-.27.205.205,0,0,1,.265-.126,11.527,11.527,0,0,1,3.841,2.386.213.213,0,0,1-.012.3.2.2,0,0,1-.158.056Z" transform="translate(-1518.714 -669.613)" fill="#325a75"/>
          <path id="Path_1443" data-name="Path 1443" d="M1573.2,752.347a.2.2,0,0,1-.149-.089,28.347,28.347,0,0,0-4.208-3.6.215.215,0,0,1-.049-.294.2.2,0,0,1,.286-.051c.144.1,3.525,2.552,4.309,3.705a.214.214,0,0,1-.052.293.2.2,0,0,1-.137.037Z" transform="translate(-1518.714 -666.97)" fill="#325a75"/>
          <path id="Path_1444" data-name="Path 1444" d="M1515.038,758.939a.2.2,0,0,1-.058-.009c-1.486-.45-3.841-1.012-3.864-1.017a.213.213,0,0,1-.154-.254.206.206,0,0,1,.247-.157c.025.005,2.39.569,3.887,1.024a.211.211,0,0,1,.139.261.207.207,0,0,1-.2.152Z" transform="translate(-1490.168 -671.406)" fill="#38688d"/>
          <path id="Path_1445" data-name="Path 1445" d="M1511.164,753.854a.2.2,0,0,1-.189-.129.213.213,0,0,1,.108-.277,30.521,30.521,0,0,1,5.717-1.916.211.211,0,0,1,.047.42,30.782,30.782,0,0,0-5.6,1.885.205.205,0,0,1-.081.017Z" transform="translate(-1490.168 -668.537)" fill="#38688d"/>
          <path id="Path_1446" data-name="Path 1446" d="M1641.7,716.156a.2.2,0,0,1-.075-.022.215.215,0,0,1-.089-.285c1.12-2.227,3.11-9.751,3.13-9.827a.206.206,0,0,1,.253-.148.213.213,0,0,1,.146.259c-.083.311-2.023,7.643-3.163,9.91a.2.2,0,0,1-.2.114Z" transform="translate(-1554.653 -646.577)" fill="#ad312a"/>
          <path id="Path_1447" data-name="Path 1447" d="M1640.522,723.194a.2.2,0,0,1-.124-.058.216.216,0,0,1,0-.3,31.235,31.235,0,0,0,3.665-5.734c.2-.372.28-.525.322-.583a.2.2,0,0,1,.286-.044.218.218,0,0,1,.046.295c-.03.041-.157.281-.293.534a31.537,31.537,0,0,1-3.73,5.826.205.205,0,0,1-.168.063Z" transform="translate(-1554.07 -651.66)" fill="#ad312a"/>
          <path id="Path_1448" data-name="Path 1448" d="M1729.7,696.853l-4.818,4c-.006-1.11-.24-3.561-.121-4.137.142-.669,1.173-.969,1.306-1.478a17.944,17.944,0,0,1,1.779-4.529l1.854,6.146Z" transform="translate(-1595.755 -639.287)" fill="#cc966b"/>
          <path id="Path_1449" data-name="Path 1449" d="M1729.109,708.3h-.017a.208.208,0,0,1-.187-.227c.174-2.189-1.667-7.351-1.686-7.4a.213.213,0,0,1,.122-.271.2.2,0,0,1,.264.125c.079.216,1.891,5.3,1.711,7.584a.207.207,0,0,1-.205.194Z" transform="translate(-1596.978 -643.939)" fill="#c6ad9a"/>
          <path id="Path_1450" data-name="Path 1450" d="M1727.71,713.747a.207.207,0,0,1-.2-.173,23.663,23.663,0,0,0-1.9-3.621.215.215,0,0,1,.065-.29.2.2,0,0,1,.283.067,23.751,23.751,0,0,1,1.954,3.768.212.212,0,0,1-.166.246.174.174,0,0,1-.037,0Z" transform="translate(-1596.174 -648.388)" fill="#c6ad9a"/>
          <path id="Path_1451" data-name="Path 1451" d="M1674.555,669.114s4.466-1.785,13.041-.818l.549,3.923-14.782,1.372,1.192-4.477Z" transform="translate(-1570.384 -628.372)" fill="#2d526b"/>
          <path id="Path_1452" data-name="Path 1452" d="M1687.438,667.765l-10.317,2.045-2.66-16.023,10.317-2.044,2.66,16.023Z" transform="translate(-1570.926 -620.549)" fill="#ffddc1"/>
          <path id="Path_1453" data-name="Path 1453" d="M1674.461,654.446l1.234,7.433c1.467-1.234,3.762-2.388,6.392-8.765l-7.626,1.332Z" transform="translate(-1570.925 -621.209)" fill="#c56450"/>
          <path id="Path_1454" data-name="Path 1454" d="M1672.716,613.275s-6.816-.221-7.968,8.247c-.282,2.065-.032,3.81-.646,5.129-1.9,4.086-5.058,4.967-.672,5.87a11.372,11.372,0,0,1,.309,2.394c.042,2.186.088,5.1,2.215,5.367,2.48.313,5.922-1.9,10.21-4.416a12.491,12.491,0,0,0,3.906-3.8c2.859-4.255,7.274-14.378-2.185-18.01a24.555,24.555,0,0,0-5.169-.783Z" transform="translate(-1564.383 -602.051)" fill="#ffddc1"/>
          <path id="Path_1455" data-name="Path 1455" d="M1673.965,639.281c-.064.536-.373.937-.692.9s-.524-.506-.46-1.041.375-.938.692-.9.524.507.46,1.043Z" transform="translate(-1570.106 -614.055)" fill="#1a1b20"/>
          <path id="Path_1456" data-name="Path 1456" d="M1675.74,634.758a.377.377,0,0,0,.253-.066.314.314,0,0,0,.045-.46,3.207,3.207,0,0,0-3.7-1.084.365.365,0,0,0-.207.455c.066.185.253.207.444.213a5.633,5.633,0,0,1,2.9.824.5.5,0,0,0,.27.118Z" transform="translate(-1569.763 -611.493)" fill="#84281a"/>
          <path id="Path_1457" data-name="Path 1457" d="M1669.07,654.5a.309.309,0,0,0,.155-.4.3.3,0,0,0-.393-.159,4.549,4.549,0,0,1-2.637.38c0,.046,0,.092,0,.139,0,.158.006.32.01.483l.077.012a5.157,5.157,0,0,0,2.783-.453Z" transform="translate(-1566.843 -621.592)" fill="#b64c4f"/>
          <path id="Path_1458" data-name="Path 1458" d="M1688.485,635.972l-1.36-6.517s8.742-.668,11.85,2.665a29.773,29.773,0,0,1-7.55,11.441s-1.1-5.188-2.94-7.589Z" transform="translate(-1577.181 -609.806)" fill="#43211a"/>
          <path id="Path_1459" data-name="Path 1459" d="M1668.261,613.065s.98,6.522,8.614,7.5c6.187.8,7.785,5.385,7.785,5.385s11.431-13.278-13.645-18.568c0,0-1.208-2.315-4.424-.558-3.344,1.825-6.854,8.382-5.819,10.158.9,1.55,3.516,2.943,3.516,2.943s.277-2.3.5-3.337c0,0,1.015-3.921,3.468-3.527Z" transform="translate(-1564.073 -598.634)" fill="#43211a"/>
          <path id="Path_1460" data-name="Path 1460" d="M1693.046,626.445a.1.1,0,0,1-.081-.059c-2.039-4.417-4.852-5.378-9.242-6.434-4.354-1.047-5.2-8.643-5.238-8.965a.106.106,0,0,1,.092-.116.1.1,0,0,1,.113.094c.008.078.867,7.769,5.079,8.783,4.45,1.07,7.3,2.046,9.382,6.549a.107.107,0,0,1-.049.14.092.092,0,0,1-.057.01Z" transform="translate(-1572.913 -600.894)" fill="#701d18"/>
          <path id="Path_1461" data-name="Path 1461" d="M1697.5,627.443a.1.1,0,0,1-.091-.107c.039-1.513-.57-3.444-5.381-6.3-4.381-2.6-6.363-8.136-6.383-8.191a.107.107,0,0,1,.062-.136.1.1,0,0,1,.132.064c.019.055,1.975,5.52,6.291,8.081,3.9,2.315,5.542,4.255,5.483,6.486a.1.1,0,0,1-.1.1Z" transform="translate(-1576.447 -601.777)" fill="#701d18"/>
          <path id="Path_1462" data-name="Path 1462" d="M1690.114,639.209a2.07,2.07,0,0,1,2.437-.944c1.744.38.589,4.952-1.055,5.522s-1.88-1.8-1.88-1.8l.5-2.773Z" transform="translate(-1578.411 -614.033)" fill="#ffd3ad"/>
          <path id="Path_1463" data-name="Path 1463" d="M1631.663,747.07c.789-1.589,3.582-7.262,4.265-9.34.8-2.427,4.077-12.586,4.077-12.586l-9.872-.976-4.072,12.4a96.068,96.068,0,0,0-4.638,10.5Z" transform="translate(-1544.729 -655.378)" fill="#e8b78e"/>
          <path id="Path_1464" data-name="Path 1464" d="M1641.563,685.64s-3.479,1.952-7.027,11.345-6.109,16.57-6.109,16.57,8.8,2.991,13.825,2.569c0,0,4.682-23.836-.688-30.484Z" transform="translate(-1548.188 -636.851)" fill="#efe4db"/>
          <path id="Path_1465" data-name="Path 1465" d="M1672.913,673.3a4.08,4.08,0,0,0,2.435-1.9l9.173-.7a10.571,10.571,0,0,0,3.088,1.847s-6.364,13.323-13.17,12.507c-5.282-.634-1.526-11.751-1.526-11.751Z" transform="translate(-1569.522 -629.665)" fill="#ffddc1"/>
          <path id="Path_1466" data-name="Path 1466" d="M1685.017,720.329l6.241-41.956c-3.386-2.614-8.911-5.133-12.578-6.655l-.208-.451c-1.4-1.6-2.469-2.705-2.469-2.705s-10.462,15.427-11.626,15.427c-1.792,0-1.415-14.609-1.415-14.609a33.742,33.742,0,0,0-2.786,3.026l-.1.466a76.712,76.712,0,0,0-7.907,4.556c-.1,2.382-2.042,38.581-2.274,42.9Z" transform="translate(-1558.79 -628.638)" fill="#efe4db"/>
          <path id="Path_1467" data-name="Path 1467" d="M1651.971,699.44c-.3,5.846-.74,14.293-1.12,21.575a4.021,4.021,0,0,1,.475.122c.391-7.312.844-15.817,1.153-21.7Z" transform="translate(-1559.264 -643.487)" fill="#38688d"/>
          <path id="Path_1468" data-name="Path 1468" d="M1679.126,687.67a.206.206,0,0,1-.193-.138.211.211,0,0,1,.122-.271l5.824-2.207-1.35-2.886,4.552,1.62,4.547-8.776a.2.2,0,0,1,.279-.087.213.213,0,0,1,.085.285l-4.713,9.1-3.952-1.406,1.119,2.391-6.248,2.367a.191.191,0,0,1-.071.013Z" transform="translate(-1573.128 -631.686)" fill="#38688d"/>
          <path id="Path_1469" data-name="Path 1469" d="M1672.778,688.908a.2.2,0,0,1-.155-.074l-2.978-3.525,1.054-1.543-2.756.2.857-6.309a.206.206,0,0,1,.232-.181.211.211,0,0,1,.175.238l-.788,5.793,3.112-.224-1.366,2,2.767,3.277a.215.215,0,0,1-.021.3.2.2,0,0,1-.135.052Z" transform="translate(-1567.707 -632.924)" fill="#38688d"/>
          <path id="Path_1470" data-name="Path 1470" d="M1688.917,719.39l4.866,1.666,5-1.08.4-11.235-9.96-.474-.305,11.123Zm4.852,2.095a.183.183,0,0,1-.064-.011l-5.062-1.733a.212.212,0,0,1-.141-.207l.315-11.494a.22.22,0,0,1,.066-.149.2.2,0,0,1,.15-.055l10.373.492a.21.21,0,0,1,.2.219l-.412,11.609a.21.21,0,0,1-.163.2l-5.212,1.125a.167.167,0,0,1-.044,0Z" transform="translate(-1577.861 -647.524)" fill="#38688d"/>
          <path id="Path_1471" data-name="Path 1471" d="M1673.162,735.525l-.028,0a.21.21,0,0,1-.175-.238c.013-.1,1.323-9.828,1.37-14.538.051-5.169.918-20.019.927-20.168a.206.206,0,1,1,.41.026c-.009.149-.874,14.988-.926,20.147-.046,4.737-1.36,14.494-1.373,14.592a.208.208,0,0,1-.2.182Z" transform="translate(-1570.183 -643.939)" fill="#38688d"/>
          <path id="Path_1472" data-name="Path 1472" d="M1720.981,749.278h9.731c.2-1.49.673-5.263.762-7.457.075-1.835-.647-13.061-.647-13.061l-10.421.712.841,13.333-.266,6.473Z" transform="translate(-1593.62 -657.586)" fill="#e8b78e"/>
          <path id="Path_1473" data-name="Path 1473" d="M1724.723,687.36s4,2.889,4.64,7.252,2.15,21.108,2.15,21.108-7.092,2.322-13.511,1.617c0,0-.446-15.83-.348-18.222s1.123-10.634,7.068-11.755Z" transform="translate(-1592.253 -637.677)" fill="#efe4db"/>
          <path id="Path_1474" data-name="Path 1474" d="M1719.256,725.864c-.428-.019-.848-.048-1.253-.089-.05-1.747-.435-15.81-.344-18.031a20.523,20.523,0,0,1,.27-2.44c-.138,0-.277.009-.415.01a21.047,21.047,0,0,0-.267,2.43c-.1,2.372.344,18.079.349,18.238l0,.176.171.018c.475.053.971.088,1.478.11-.005-.105-.008-.211,0-.319,0-.034.007-.068.009-.1Z" transform="translate(-1592.052 -646.307)" fill="#38688d"/>
        </g>
      </g>
    </g>
  </g>
</svg>
