<svg xmlns="http://www.w3.org/2000/svg" xmlns:xlink="http://www.w3.org/1999/xlink" width="1088" height="146" viewBox="0 0 1088 146">
  <defs>
    <clipPath id="clip-path">
      <path id="Rectangle_6251" data-name="Rectangle 6251" d="M40,0H1048a40,40,0,0,1,40,40v96a10,10,0,0,1-10,10H10A10,10,0,0,1,0,136V40A40,40,0,0,1,40,0Z" transform="translate(6330.433 4698.757)" fill="#faf8f7"/>
    </clipPath>
    <clipPath id="clip-image_littleBanner">
      <rect width="1088" height="146"/>
    </clipPath>
  </defs>
  <g id="image_littleBanner" clip-path="url(#clip-image_littleBanner)">
    <g id="Group_17070" data-name="Group 17070" transform="translate(-139 -290)">
      <path id="Rectangle_6437" data-name="Rectangle 6437" d="M40,0H1048a40,40,0,0,1,40,40v96a10,10,0,0,1-10,10H10A10,10,0,0,1,0,136V40A40,40,0,0,1,40,0Z" transform="translate(139 290)" fill="#faf8f7"/>
      <g id="Mask_Group_18" data-name="Mask Group 18" transform="translate(-6191.433 -4408.757)" clip-path="url(#clip-path)">
        <path id="Path_11252" data-name="Path 11252" d="M2838.232,849.7l-.062,79.152H2492.246l.182-79.124c1.209-1.051,2.371-1.09,3.621-2.1,21.954-17.862,48.705-29.653,76.656-37.063,54.429-14.431,112.649-10.331,168.376-1.038,33.137,5.52,67.227,17.889,93.464,37.324.145.108.3.216.442.325C2836.084,847.99,2837.169,848.837,2838.232,849.7Z" transform="translate(4204.151 3848.674)" fill="#e6d6cf"/>
        <path id="Path_11253" data-name="Path 11253" d="M2836,846.609l.03,78.613H2497.477l-.224-77.418c8.7-7.069,18.408-12.515,28.422-18,.387-.217.774-.426,1.167-.635a217.532,217.532,0,0,1,47.406-18.636,265.934,265.934,0,0,1,27.763-5.761c.228-.038.462-.07.691-.108,41.865-6.345,85.265-3.486,127.518,2.865.228.037.463.069.69.1q5.874.9,11.714,1.867c24.427,4.059,49.332,9.388,71.253,19.672.441.209.89.419,1.332.635C2829.009,837.048,2829.5,841.8,2836,846.609Z" transform="translate(4202.609 3848.674)" fill="#fff"/>
        <path id="Path_11254" data-name="Path 11254" d="M2729.735,880.873V831.791h84.3c-.442-.216-.891-.425-1.332-.634h-82.967V809.673c-.228-.032-.462-.063-.69-.1v21.586H2601.527V806.714c-.229.038-.462.07-.69.108v24.336h-75.169c-.393.208-.78.417-1.167.634h76.337v49.082h-107.4v.634h107.4v45.446h.69V881.506h127.518v45.446h.69V881.506h107.953v-.634Zm-.69,0H2601.527V831.791h127.518Z" transform="translate(4203.784 3846.931)" fill="#e6d6cf"/>
        <g id="Group_16362" data-name="Group 16362" transform="translate(6974.426 4812.803)">
          <path id="Path_11268" data-name="Path 11268" d="M2968.69,1079.846c-.76-5.748-4.842-9.973-9.095-9.414-.077.007-.152.021-.229.034-4.136.71-6.871,5.755-6.125,11.407a12.671,12.671,0,0,0,3.066,6.919,7.4,7.4,0,0,0,4.448,2.488,6.115,6.115,0,0,0,.794.055,6.03,6.03,0,0,0,.787-.048C2966.6,1090.728,2969.442,1085.594,2968.69,1079.846ZM2962,1088.71a3.442,3.442,0,0,1-1.513-.145,5.264,5.264,0,0,1-2.259-1.529,10.042,10.042,0,0,1-2.4-5.5c-.532-4.039,1.125-7.746,3.674-8.443.145-.034.291-.061.436-.083a2.885,2.885,0,0,1,.421-.034c2.645,0,5.22,3.171,5.753,7.209C2966.667,1084.436,2964.788,1088.344,2962,1088.71Z" transform="translate(-2953.119 -1070.382)" fill="#485a7e"/>
        </g>
        <g id="Group_16409" data-name="Group 16409" transform="translate(7003.61 4777.565)">
          <rect id="Rectangle_6428" data-name="Rectangle 6428" width="92.545" height="56.339" rx="1" transform="translate(3.223)" fill="#e2e2e2"/>
          <path id="Rectangle_6429" data-name="Rectangle 6429" d="M2.083,0H96.562a2.083,2.083,0,0,1,2.083,2.083v1.7a0,0,0,0,1,0,0H0a0,0,0,0,1,0,0v-1.7A2.083,2.083,0,0,1,2.083,0Z" transform="translate(0 54.446)" fill="#e2e2e2"/>
          <g id="Group_16381" data-name="Group 16381" transform="translate(2.878 55.994)">
            <path id="Path_11316" data-name="Path 11316" d="M2779.1,1101.188h-92.545a.345.345,0,1,1,0-.689H2779.1a.345.345,0,1,1,0,.689Z" transform="translate(-2686.211 -1100.499)" fill="#e0ccc3"/>
          </g>
        </g>
        <g id="Group_16391" data-name="Group 16391" transform="translate(6625.088 4709.049)">
          <path id="Path_11325" data-name="Path 11325" d="M2552.757,1046.2a5.2,5.2,0,0,0-.352-.407,17.72,17.72,0,0,0-3.385-2.267c-1.878-1.2-2.037-3.039-3.453-4.4-1.595-1.53-4.6-.944-6.526-1.784-1.981-.862-3.729-2.1-5.828-2.682a15.946,15.946,0,0,0-2.576-.489c-6.769-.682-12.784,3.322-17,8.518a.745.745,0,0,0-1.2.007c-.663.944-1.325,1.9-1.989,2.839a.691.691,0,0,0,.594,1.034q2.848.1,5.7.255c1.175.055,2.348.125,3.523.2a24.276,24.276,0,0,1,4.7.407c1.381.393,1.865,1.407,2.9,2.144,3.066,2.156,5.317.027,8.329-.58a6.776,6.776,0,0,1,1.319-.151c2.508-.049,4.827,1.323,7.19,2.315.407.172.815.331,1.229.469a7.394,7.394,0,0,0,4.855.193c.021-.006.035-.013.056-.021a5.2,5.2,0,0,0,1.077-.509A3.259,3.259,0,0,0,2552.757,1046.2Z" transform="translate(-2426.537 -955.349)" fill="#76a387"/>
          <path id="Path_11326" data-name="Path 11326" d="M2460.8,1028.674a.67.67,0,0,0-.677-.049c-.2.09-.4.165-.608.241a14.335,14.335,0,0,1-.981-2.57,7.582,7.582,0,0,1-.2-1.585c-.131-3.178,1.229-6.458-.988-9.27-1.74-2.206-4.241-2.957-5.9-4.591a5.8,5.8,0,0,1-1.754-4.225c-.145-3.646,1.16-7.34-.463-10.826-1.388-2.977-4.3-4.693-6.541-6.955-3.4-3.432-3.294-7.429-3.854-11.909-.324-2.653-.981-5.32-3.156-7.092-1.326-1.082-2.957-1.461-4.454-2.212a12.294,12.294,0,0,1-4.1-3.508c-.553-.675-1.078-1.4-1.63-2.129-1.989-2.668-4.373-5.651-7.949-6.052-6.161-.682-7.805,6.547-6.679,11.179,1.464,6,5.766,10.262,10.215,14.411,5.6,5.217,11.436,10.256,12.127,18.361.359,4.169-.352,8.7,1.92,12.467a9.9,9.9,0,0,0,.974,1.33,18.6,18.6,0,0,0,6.464,4.438c3.129,1.461,6.782,2.577,9.31,5.025a5.707,5.707,0,0,1,1.092,1.558,17.216,17.216,0,0,1,.7,1.64,13.7,13.7,0,0,0,1.347,2.867c-.5.262-.608,1.123.09,1.261a10.337,10.337,0,0,0,1.823.179c.027.007.048.014.069.021a.6.6,0,0,0,.331,0,.718.718,0,0,0,.111-.034,9.245,9.245,0,0,0,1.07-.124c.014.124.021.256.035.407,0,.083.007.179.007.276a4.849,4.849,0,0,1-.132,1.24,3.4,3.4,0,0,1-4.723,2.412c-.85-.276-1.209,1.055-.373,1.33a5.082,5.082,0,0,0,.938.22,5.139,5.139,0,0,0,3.467-.689,5.813,5.813,0,0,0,1.582-1.427,5.369,5.369,0,0,0,.809-1.434,3.532,3.532,0,0,0,.2-.951,4.293,4.293,0,0,0-.282-1.785,1.155,1.155,0,0,0,.144-.055c.215-.076.422-.158.635-.248A.632.632,0,0,0,2460.8,1028.674Z" transform="translate(-2395.663 -931.045)" fill="#76a387"/>
          <path id="Path_11327" data-name="Path 11327" d="M2454.261,1055.639c-.242-.22-.49-.455-.74-.689-.144-.138-.3-.276-.448-.413-.539-.5-1.1-1.02-1.665-1.523a26.778,26.778,0,0,0-1.318-3.418c-.015-.028-.022-.049-.035-.077a25.033,25.033,0,0,0-5.3-7.45c-3.8-3.653-7.39-4.349-12.522-3.694a23.352,23.352,0,0,1-2.783.2,19.387,19.387,0,0,1-7.225-1.316c-2.134-.779-4.323-1.571-6.63-1.206-2.209.345-3.874,1.7-5.649,2.957a13.518,13.518,0,0,1-6.188,2.288c-1,.158-2.051.289-3.17.462a15.342,15.342,0,0,0-10.6,6.782c-1.629,2.633-1.423,6.058,1.983,7,3.737,1.034,6.27-1.937,9.123-4.025a7.5,7.5,0,0,1,5.263-1.854c2.542.248,4.918,1.557,7.529,1.151,1.927-.3,3.446-1.5,4.966-2.626,3.259-2.433,5.8-2.764,9.669-1.406a13.874,13.874,0,0,0,6.968.676c1.443-.145,3.37-.4,4.806.4.484.268.871,1.054,1.334,1.371a3.365,3.365,0,0,0,.642.366,7.627,7.627,0,0,0,1.733.4,9.217,9.217,0,0,1,3.012,1.24,20.461,20.461,0,0,1,2.749,2.074v.007c.137.117.275.242.414.365.09.31.179.62.262.93h.007c.083.318.159.634.228.951.007.014.007.034.014.049a.669.669,0,0,0,1.2.2.631.631,0,0,0,.138-.393c.435.421.857.82,1.265,1.192a.648.648,0,0,0,.372.179C2454.24,1056.867,2454.8,1056.129,2454.261,1055.639Z" transform="translate(-2388.995 -955.93)" fill="#558567"/>
          <path id="Path_11328" data-name="Path 11328" d="M2481.488,980.608a33.253,33.253,0,0,0-2.624-5.645c-2.583-4.886-1.443-8.939-.041-13.908.932-3.315,1.594-6.63.608-10.014-.912-3.1-2.866-5.748-4.227-8.649-2.279-4.852-.746-9.256-1.243-14.3-.394-4.073-4.178-10.344-9.13-7.567-2.079,1.158-2.335,3.543-2.508,5.672-.38,4.824-.594,9.7-.766,14.542a17.458,17.458,0,0,0,2.133,9.821c2.9,5.272,2.28,9.3,1.188,14.955-.731,3.77.269,6.747,1.934,10.131,3.012,6.106,3.26,10.3.74,16.6a9.458,9.458,0,0,0-.325,7.395,13.857,13.857,0,0,0,.822,1.834c2.058,3.9,4.013,7.719,4.447,11.95a.253.253,0,0,1,.007.076c.014.117.028.234.035.351a.628.628,0,0,0-.416.613,14.1,14.1,0,0,0,.077,2.75v.007a2.79,2.79,0,0,0,.214.668.745.745,0,0,0,.463.627h.007a.9.9,0,0,0,.11.034,2.113,2.113,0,0,0,1.3.276,2.586,2.586,0,0,0,1.223-.387,3.6,3.6,0,0,0,1.064-.978,7.87,7.87,0,0,0,1.208-2.5c.034-.138.069-.268.1-.4a9.542,9.542,0,0,0,.187-1.068c.11-.952.116-1.917.228-2.861.27-2.219,1.326-3.183,2.134-5a4.841,4.841,0,0,0-.089-3.749c-.795-2.247-2.4-4.535-1.927-6.968.421-2.178,1.574-3.948,2.466-5.858a10.879,10.879,0,0,0,1.147-4.011A11.794,11.794,0,0,0,2481.488,980.608Z" transform="translate(-2411.437 -919.837)" fill="#558567"/>
          <path id="Path_11329" data-name="Path 11329" d="M2512.663,935.62c.8-2.777,1.36-5.92.159-8.683-2.327-5.328-7.424-3.895-9.994.254-4.247,6.851-4.807,15.307-6.775,22.929a73.754,73.754,0,0,1-2.728,7.492,31.249,31.249,0,0,0-1,3.1c-.994,3.886,1.05,7.443.773,11.3a11.593,11.593,0,0,1-2.134,5.431,37.4,37.4,0,0,0-2.59,4.3,10.593,10.593,0,0,0-.607,1.64,15.959,15.959,0,0,0,.007,6.816,32.037,32.037,0,0,1,.662,6.244,29.03,29.03,0,0,1-1.2,6.582c-1.084,3.895-2.521,7.767-2.6,11.613a13.038,13.038,0,0,0,.042,1.467,12.455,12.455,0,0,0,1.029,4.2c-.47.123-.939.247-1.4.371a.69.69,0,0,0,.366,1.33c.532-.144,1.1-.268,1.706-.393.083.145.165.29.255.441.47.744,1.672.055,1.2-.7-.007-.013-.014-.02-.021-.035a23.952,23.952,0,0,0,7-2.13,7.669,7.669,0,0,0,.725-.462,4.429,4.429,0,0,0,.773-.7,4,4,0,0,0,.5-.661,7.067,7.067,0,0,0,.87-2.743,19.715,19.715,0,0,1,.7-3.736c1.119-3.163,4.234-5.114,5.1-8.436a8.678,8.678,0,0,0,.269-1.723c.214-3.239-.987-6.567-.069-9.745,1.05-3.611,4.868-5.272,6.519-8.511a8.349,8.349,0,0,0,.69-5.045,31.99,31.99,0,0,0-.773-3.625c-.034-.144-.068-.283-.1-.427-1.209-4.907.228-8.339,1.727-12.922,1.188-3.66.793-6.878-.035-10.565a21.887,21.887,0,0,1-.815-7.733A45.8,45.8,0,0,1,2512.663,935.62Z" transform="translate(-2418.328 -920.97)" fill="#76a387"/>
          <path id="Path_11330" data-name="Path 11330" d="M2545.286,999.472a6.087,6.087,0,0,0-2.245-3.625,6.794,6.794,0,0,0-1.222-.744c-2.846-1.33-5.816-.717-8.371.744a15.8,15.8,0,0,0-2.6,1.861,22.769,22.769,0,0,0-1.788,1.764c-1.417,1.531-2.694,3.184-4.151,4.673-2.156,2.2-4.869,3.645-7.134,5.706-2.231,2.033-3.5,4.68-4.938,7.271a31.681,31.681,0,0,1-4.248,5.651c-.807.91-1.636,1.813-2.438,2.771a27.441,27.441,0,0,0-3.169,4.631,33.043,33.043,0,0,0-2.8,6.327,1.467,1.467,0,0,1-.049.166,10.366,10.366,0,0,0-.607,3.8,7.092,7.092,0,0,0,.125.758,2.843,2.843,0,0,0,.289.792c.187.289.457.386.829-.048a.919.919,0,0,0,.173-.447c.007-.034.007-.07.014-.1.07-.454.111-.91.193-1.351a5.293,5.293,0,0,1,.249-.868c.083.069.173.145.256.208a8.832,8.832,0,0,0,1.852,1.226,4.828,4.828,0,0,0,2.528.448,5.449,5.449,0,0,0,2.279-.717,5.35,5.35,0,0,0,1.34-1.061,17.483,17.483,0,0,0,1.657-2.639c.014-.021.021-.035.034-.056a9.336,9.336,0,0,1,2.044-2.136c.491-.4,1-.786,1.506-1.234,1.886-1.661,2.369-4,4.089-5.741,1.982-2,4.876-2.8,7.086-4.494a6.8,6.8,0,0,0,1.208-1.185c2.548-3.17,2.5-8.153,6.022-10.323,4.151-2.558,9.33-2.461,11.512-7.651A7.421,7.421,0,0,0,2545.286,999.472Z" transform="translate(-2423.181 -943.002)" fill="#558567"/>
          <g id="Group_16390" data-name="Group 16390" transform="translate(45.938 93.667)">
            <path id="Path_11331" data-name="Path 11331" d="M2504.89,1070.653a24.7,24.7,0,0,1-43.855,15.541,26.045,26.045,0,0,1-1.575-2.164,24.5,24.5,0,0,1-3.95-13.377c0-.269.006-.538.013-.806a24.437,24.437,0,0,1,5.021-14.1h39.311a24.376,24.376,0,0,1,2.915,4.907,23.682,23.682,0,0,1,1.063,2.86A24.366,24.366,0,0,1,2504.89,1070.653Z" transform="translate(-2455.51 -1055.746)" fill="#ffd791"/>
            <path id="Path_11332" data-name="Path 11332" d="M2478.144,1069.683a9.017,9.017,0,0,0-.871-.766,10.505,10.505,0,0,0-3.231-1.64,13.863,13.863,0,0,0-1.7-.414,14.617,14.617,0,0,0-7.21.538c-1.457.517-2.741,1.4-4.192,1.909a5.959,5.959,0,0,1-4.9-.386,24.363,24.363,0,0,0-.518,4.307,10.745,10.745,0,0,0,3.894.779c2.853-.1,5.263-1.771,7.812-2.825.317-.131.635-.249.952-.359a13.23,13.23,0,0,1,3.467-.689,12.053,12.053,0,0,1,3.819.366c.809.207,2.831,1.233,3.688,1.034C2479.829,1071.385,2478.3,1069.841,2478.144,1069.683Z" transform="translate(-2455.515 -1059.132)" fill="#fff"/>
            <path id="Path_11333" data-name="Path 11333" d="M2515.629,1062.235a12.093,12.093,0,0,1-2.286.165c-2.148-.089-3.819-.985-5.774-1.371a8.131,8.131,0,0,0-1.567-.186,11.867,11.867,0,0,0-3.239.455,16.325,16.325,0,0,0-2.563.89c-.345.158-.677.323-1,.5a9.992,9.992,0,0,0-1.768,1.193c-.539.468-.69,1.192,1.415.51,3.888-1.255,7.4.709,11.189,1.1a29.382,29.382,0,0,0,6.658-.386A23.531,23.531,0,0,0,2515.629,1062.235Z" transform="translate(-2468.372 -1057.33)" fill="#fff"/>
            <path id="Path_11334" data-name="Path 11334" d="M2505.449,1083.2c-5.891-.564-12.354-3.584-17.4,1.006-.552.5-.111.682.518.579,5.76-.992,10.961.945,16.568,2.033a20.357,20.357,0,0,0,8.309.179,24.042,24.042,0,0,0,1.167-4.7A25.014,25.014,0,0,1,2505.449,1083.2Z" transform="translate(-2465.499 -1063.814)" fill="#fff"/>
            <path id="Path_11335" data-name="Path 11335" d="M2479.144,1096.58c-5.6-1.523-10.891-.331-16.34,1.385a25.964,25.964,0,0,1-1.575-2.164c6.016-2.3,14.082-3.6,19.165.338C2481,1096.608,2480.629,1096.98,2479.144,1096.58Z" transform="translate(-2457.279 -1067.517)" fill="#fff"/>
          </g>
          <path id="Path_11336" data-name="Path 11336" d="M2511.37,932.858a20.265,20.265,0,0,0-2.7,7.388,42.211,42.211,0,0,0-1.025,8.582c0,3.028.052,6.055.052,9.083a26.018,26.018,0,0,1-1.918,9.9,70.958,70.958,0,0,0-2.678,6.931c-.751,2.666-.58,5.536-.584,8.276,0,1.438.107,2.921-.026,4.353a21.052,21.052,0,0,1-1.509,4.933,72,72,0,0,0-2.186,7.755c-.662,2.893-1.491,5.727-2.172,8.616a36.324,36.324,0,0,0-.84,8.263.345.345,0,0,0,.69,0,37.253,37.253,0,0,1,.743-7.773c.535-2.451,1.438-4.813,1.92-7.27.516-2.631,1.325-5.172,2.011-7.758s2.025-4.957,2.058-7.7c.034-2.834-.141-5.69.128-8.511.289-3.052,1.428-5.457,2.5-8.281a39.072,39.072,0,0,0,2.389-8.1,51.992,51.992,0,0,0,.157-8.236c-.034-3.479-.263-7.025.432-10.458.649-3.215,1.277-6.9,3.157-9.647C2512.217,932.839,2511.619,932.493,2511.37,932.858Z" transform="translate(-2422.031 -923.836)" fill="#558567"/>
          <path id="Path_11337" data-name="Path 11337" d="M2449.043,1016.9c-1.727-2.066-2.123-5.438-2.725-7.975a22.359,22.359,0,0,0-2.257-6.56c-1.216-2.026-2.45-4.037-3.664-6.062a30.529,30.529,0,0,1-2.681-7.26A22.731,22.731,0,0,0,2431.4,978.5a49.627,49.627,0,0,1-4.675-4.836,34.436,34.436,0,0,1-2.146-3c-.582-.893-1.686-2.143-1.859-3.225-.071-.437-.736-.252-.667.183a6.632,6.632,0,0,0,1.235,2.311c.6.952,1.2,1.924,1.868,2.83a35.612,35.612,0,0,0,4.5,5.084,34.13,34.13,0,0,1,4.772,5.32,23.077,23.077,0,0,1,2.965,7.235,26.277,26.277,0,0,0,2.414,6.257c1.291,2.192,2.734,4.324,3.955,6.555,1.32,2.411,1.735,5.236,2.365,7.881.5,2.1,1.01,4.6,2.434,6.3C2448.84,1017.732,2449.326,1017.243,2449.043,1016.9Z" transform="translate(-2399.219 -934.553)" fill="#558567"/>
          <path id="Path_11338" data-name="Path 11338" d="M2551.266,1050.919a15.01,15.01,0,0,0-4.957-3.85,25.44,25.44,0,0,0-9.03-2.415,14.652,14.652,0,0,0-3.979.2,8.146,8.146,0,0,1-3.573.153,14.626,14.626,0,0,0-1.624-.412c-2.334-.249-5.6-.242-7.643,1.1-.369.243-.024.84.349.6,2.243-1.473,6-1.239,8.468-.676,2.5.569,4.869-.4,7.389-.3a21.8,21.8,0,0,1,8.983,2.257,16.379,16.379,0,0,1,5.129,3.836C2551.078,1051.735,2551.565,1051.247,2551.266,1050.919Z" transform="translate(-2429.617 -958.575)" fill="#558567"/>
          <path id="Path_11339" data-name="Path 11339" d="M2476.9,996.5a25.023,25.023,0,0,0,1.151-7.035c.024-2.267-1.046-4.207-1.654-6.338a41.546,41.546,0,0,1-1.416-6.993c-.288-2.711-.006-5.519-.063-8.243a25.028,25.028,0,0,0-1.115-6.965,50.054,50.054,0,0,1-1.626-6.992c-.5-3.349-1.365-6.605-1.278-10.01.075-2.979.761-5.9.739-8.9a.346.346,0,0,0-.691,0c.02,2.666-.484,5.276-.7,7.926a29.909,29.909,0,0,0,.809,8.141,74.567,74.567,0,0,0,1.466,7.893,32.861,32.861,0,0,1,1.583,7.274c.365,5.225-.353,10.507,1.209,15.6.691,2.25,1.975,4.708,2.052,7.083a25.583,25.583,0,0,1-1.356,8.008,27.45,27.45,0,0,0-1.13,7.862,14.941,14.941,0,0,0,.59,4c.242.841.171,2,.7,2.713.262.352.862.009.6-.347a11,11,0,0,1-.71-2.779,15.006,15.006,0,0,1-.458-4.5A28.541,28.541,0,0,1,2476.9,996.5Z" transform="translate(-2414.114 -924.456)" fill="#3d6655"/>
          <path id="Path_11340" data-name="Path 11340" d="M2447.67,1048.294c-.243-1.148-2.143-1.922-3.128-2.285a18.171,18.171,0,0,0-5.779-1.063c-2.413-.049-4.876.165-7.271-.121-1.878-.224-3.731-.567-5.6-.8a12.136,12.136,0,0,0-5.8.365,21.115,21.115,0,0,1-2.955,1.221c-.968.233-1.75.671-2.688.991a23.693,23.693,0,0,1-6.877,1.069,5.39,5.39,0,0,0-2.167.381c-.849.347-1.5,1.083-2.363,1.376-.418.143-.239.808.184.664a5.956,5.956,0,0,0,1.336-.788,5.413,5.413,0,0,1,3.011-.945,32.308,32.308,0,0,0,5.452-.679c1.677-.352,3.2-1.081,4.848-1.506a19.959,19.959,0,0,0,2.442-1.106,8.547,8.547,0,0,1,3.44-.473c2.1.028,4.086.582,6.166.779,1.648.156,3.235.251,4.9.251a32.706,32.706,0,0,1,6.582.29c.812.167,1.643.339,2.435.584.668.206,2.987,1.109,3.169,1.974C2447.1,1048.911,2447.762,1048.727,2447.67,1048.294Z" transform="translate(-2393.268 -958.383)" fill="#3d6655"/>
          <path id="Path_11341" data-name="Path 11341" d="M2543.343,1003.968a14.8,14.8,0,0,1-2.521,1.167c-1,.475-1.986.95-2.951,1.491a22.24,22.24,0,0,0-4.407,3.109,32.014,32.014,0,0,0-3.633,4.376,37.214,37.214,0,0,1-4.842,4.795c-1.293,1.194-3.31,2.249-4.282,3.746-.47.723-.609,1.606-1.048,2.35a12.412,12.412,0,0,1-2.136,2.378c-1.294,1.309-2.334,2.879-3.6,4.217a17.127,17.127,0,0,0-3.334,4.371c-.179.4.417.753.6.347a17.752,17.752,0,0,1,3.635-4.653c1.2-1.239,2.115-2.772,3.36-3.966a10.8,10.8,0,0,0,2.578-3.379,7.586,7.586,0,0,1,2.561-3.084c.753-.579,1.462-1.2,2.159-1.84a41.738,41.738,0,0,0,4.346-4.16,56.573,56.573,0,0,1,3.536-4.434,22.121,22.121,0,0,1,5.124-3.724c1.655-.917,3.7-1.4,5.208-2.511C2544.045,1004.3,2543.7,1003.7,2543.343,1003.968Z" transform="translate(-2426.601 -945.966)" fill="#3d6655"/>
        </g>
        <g id="Group_16394" data-name="Group 16394" transform="translate(6330.433 4835.797)">
          <rect id="Rectangle_6430" data-name="Rectangle 6430" width="1088" height="8.959" fill="#d99f82"/>
        </g>
        <g id="Group_16396" data-name="Group 16396" transform="translate(6905.208 4813.702)">
          <path id="Path_11344" data-name="Path 11344" d="M2909.326,1093.626l-.926,6.975h-55.506l.933-6.975Z" transform="translate(-2852.894 -1078.506)" fill="#6b3939"/>
          <path id="Path_11345" data-name="Path 11345" d="M2858.384,1091.139h44.341l.749-5.643h-44.341Z" transform="translate(-2854.593 -1075.979)" fill="#ffd791"/>
          <g id="Group_16395" data-name="Group 16395" transform="translate(8.882)">
            <path id="Path_11346" data-name="Path 11346" d="M2911.143,1071.686l-.1.958-.822,7.471-.117,1.089h-44.346l.117-1.089.822-7.471.1-.958Z" transform="translate(-2865.754 -1071.686)" fill="#485a7e"/>
            <path id="Path_11347" data-name="Path 11347" d="M2911.092,1073.076l-.822,7.471h-44.346l.822-7.471Z" transform="translate(-2865.807 -1072.119)" fill="#fff"/>
          </g>
          <path id="Path_11348" data-name="Path 11348" d="M2869.328,1093.626l-1.015,6.975h-1.789l1.015-6.975Z" transform="translate(-2857.111 -1078.506)" fill="#ede0da"/>
        </g>
        <g id="Group_16397" data-name="Group 16397" transform="translate(6724.734 4817.6)">
          <rect id="Rectangle_6431" data-name="Rectangle 6431" width="73.232" height="18.197" fill="#e6d6cf"/>
          <ellipse id="Ellipse_43" data-name="Ellipse 43" cx="5.155" cy="5.145" rx="5.155" ry="5.145" transform="translate(6.885 3.954)" fill="#fff"/>
          <ellipse id="Ellipse_44" data-name="Ellipse 44" cx="3.998" cy="3.989" rx="3.998" ry="3.989" transform="translate(8.043 5.109)" fill="#252730"/>
          <rect id="Rectangle_6432" data-name="Rectangle 6432" width="24.978" height="6.278" transform="translate(41.393 5.831)" fill="#fff"/>
        </g>
        <g id="Group_16398" data-name="Group 16398" transform="translate(6734.748 4799.489)">
          <rect id="Rectangle_6433" data-name="Rectangle 6433" width="73.232" height="18.197" fill="#485a7e"/>
          <path id="Path_11351" data-name="Path 11351" d="M5.133-.012A5.15,5.15,0,1,1-.012,5.133,5.163,5.163,0,0,1,5.133-.012Z" transform="translate(4.774 9.099) rotate(-45)" fill="#fff"/>
          <ellipse id="Ellipse_46" data-name="Ellipse 46" cx="3.998" cy="3.989" rx="3.998" ry="3.989" transform="translate(8.043 5.109)" fill="#252730"/>
          <rect id="Rectangle_6434" data-name="Rectangle 6434" width="24.978" height="6.278" transform="translate(41.393 5.831)" fill="#fff"/>
        </g>
        <g id="Group_16361" data-name="Group 16361" transform="translate(6980.386 4806.668)">
          <path id="Path_11267" data-name="Path 11267" d="M2984.973,1061.48s-1.068,27.583-1.78,29.08-6.461,2.64-10.561,2.279c-5.853-.515-8.163-1.917-8.909-2.854s-1.974-28.264-1.974-28.264Z" transform="translate(-2961.749 -1061.48)" fill="#485a7e"/>
        </g>
      </g>
    </g>
  </g>
</svg>
