<svg xmlns="http://www.w3.org/2000/svg" xmlns:xlink="http://www.w3.org/1999/xlink" width="1088" height="209" viewBox="0 0 1088 209">
  <defs>
    <clipPath id="clip-image_table">
      <rect width="1088" height="209"/>
    </clipPath>
  </defs>
  <g id="image_table" clip-path="url(#clip-image_table)">
    <g id="Group_17071" data-name="Group 17071" transform="translate(-139 -263)">
      <rect id="Rectangle_6448" data-name="Rectangle 6448" width="971" height="29" rx="4" transform="translate(256 258)" fill="#fff"/>
      <rect id="Rectangle_6443" data-name="Rectangle 6443" width="971" height="40" rx="4" transform="translate(256 292)" fill="#fff"/>
      <rect id="Rectangle_6449" data-name="Rectangle 6449" width="112.853" height="209" rx="4" transform="translate(139 258)" fill="#7cacd3"/>
      <rect id="Rectangle_6447" data-name="Rectangle 6447" width="971" height="40" rx="4" transform="translate(256 382)" fill="#fff"/>
      <rect id="Rectangle_6445" data-name="Rectangle 6445" width="971" height="40" rx="4" transform="translate(256 337)" fill="#fff"/>
      <rect id="Rectangle_6446" data-name="Rectangle 6446" width="971" height="40" rx="4" transform="translate(256 427)" fill="#fff"/>
      <text id="薪資" transform="translate(1080 279)" fill="#2f6a9a" font-size="12" font-family="PingFangTC-Light, PingFang TC" font-weight="300"><tspan x="0" y="0">薪資</tspan></text>
      <text id="要保基本資料作業" transform="translate(434 279)" fill="#2f6a9a" font-size="12" font-family="PingFangTC-Light, PingFang TC" font-weight="300"><tspan x="0" y="0">要保基本資料作業</tspan></text>
      <text id="查詢作業" transform="translate(702 279)" fill="#2f6a9a" font-size="12" font-family="PingFangTC-Light, PingFang TC" font-weight="300"><tspan x="0" y="0">查詢作業</tspan></text>
      <text id="加退保申請及變更作業" transform="translate(544 279)" fill="#2f6a9a" font-size="12" font-family="PingFangTC-Light, PingFang TC" font-weight="300"><tspan x="0" y="0">加退保申請及變更作業</tspan></text>
      <text id="文件申請作業" transform="translate(934 279)" fill="#2f6a9a" font-size="12" font-family="PingFangTC-Light, PingFang TC" font-weight="300"><tspan x="0" y="0">文件申請作業</tspan></text>
      <text id="理賠專區" transform="translate(824 279)" fill="#2f6a9a" font-size="12" font-family="PingFangTC-Light, PingFang TC" font-weight="300"><tspan x="0" y="0">理賠專區</tspan></text>
      <text id="一級權限" transform="translate(344 317)" fill="#2f6a9a" font-size="14" font-family="PingFangTC-Semibold, PingFang TC" font-weight="600"><tspan x="0" y="0">一級權限</tspan></text>
      <text id="權_限_對_照_表" data-name="權
限
對
照
表" transform="translate(180.427 302.5)" fill="#fff" font-size="26" font-family="PingFangTC-Semibold, PingFang TC" font-weight="600"><tspan x="0" y="0">權</tspan><tspan x="0" y="36">限</tspan><tspan x="0" y="72">對</tspan><tspan x="0" y="108">照</tspan><tspan x="0" y="144">表</tspan></text>
      <text id="四級權限" transform="translate(344 452)" fill="#2f6a9a" font-size="14" font-family="PingFangTC-Semibold, PingFang TC" font-weight="600"><tspan x="0" y="0">四級權限</tspan></text>
      <text id="二級權限" transform="translate(344 362)" fill="#2f6a9a" font-size="14" font-family="PingFangTC-Semibold, PingFang TC" font-weight="600"><tspan x="0" y="0">二級權限</tspan></text>
      <text id="三級權限" transform="translate(344 407)" fill="#2f6a9a" font-size="14" font-family="PingFangTC-Semibold, PingFang TC" font-weight="600"><tspan x="0" y="0">三級權限</tspan></text>
      <path id="Icon_ionic-ios-checkmark-circle" data-name="Icon ionic-ios-checkmark-circle" d="M14.375,3.375a11,11,0,1,0,11,11A11,11,0,0,0,14.375,3.375Zm5.632,7.959-7.071,7.1h-.005a.955.955,0,0,1-.613.291.926.926,0,0,1-.619-.3L8.737,15.464a.211.211,0,0,1,0-.3l.941-.941a.2.2,0,0,1,.3,0l2.348,2.348,6.452-6.5a.209.209,0,0,1,.148-.063h0a.192.192,0,0,1,.148.063l.925.957A.208.208,0,0,1,20.007,11.334Z" transform="translate(467.625 297.625)" fill="#7cacd3"/>
      <path id="Icon_ionic-ios-checkmark-circle-2" data-name="Icon ionic-ios-checkmark-circle" d="M14.375,3.375a11,11,0,1,0,11,11A11,11,0,0,0,14.375,3.375Zm5.632,7.959-7.071,7.1h-.005a.955.955,0,0,1-.613.291.926.926,0,0,1-.619-.3L8.737,15.464a.211.211,0,0,1,0-.3l.941-.941a.2.2,0,0,1,.3,0l2.348,2.348,6.452-6.5a.209.209,0,0,1,.148-.063h0a.192.192,0,0,1,.148.063l.925.957A.208.208,0,0,1,20.007,11.334Z" transform="translate(589.625 297.625)" fill="#7cacd3"/>
      <path id="Icon_ionic-ios-checkmark-circle-3" data-name="Icon ionic-ios-checkmark-circle" d="M14.375,3.375a11,11,0,1,0,11,11A11,11,0,0,0,14.375,3.375Zm5.632,7.959-7.071,7.1h-.005a.955.955,0,0,1-.613.291.926.926,0,0,1-.619-.3L8.737,15.464a.211.211,0,0,1,0-.3l.941-.941a.2.2,0,0,1,.3,0l2.348,2.348,6.452-6.5a.209.209,0,0,1,.148-.063h0a.192.192,0,0,1,.148.063l.925.957A.208.208,0,0,1,20.007,11.334Z" transform="translate(589.625 342.625)" fill="#7cacd3"/>
      <path id="Icon_ionic-ios-checkmark-circle-4" data-name="Icon ionic-ios-checkmark-circle" d="M14.375,3.375a11,11,0,1,0,11,11A11,11,0,0,0,14.375,3.375Zm5.632,7.959-7.071,7.1h-.005a.955.955,0,0,1-.613.291.926.926,0,0,1-.619-.3L8.737,15.464a.211.211,0,0,1,0-.3l.941-.941a.2.2,0,0,1,.3,0l2.348,2.348,6.452-6.5a.209.209,0,0,1,.148-.063h0a.192.192,0,0,1,.148.063l.925.957A.208.208,0,0,1,20.007,11.334Z" transform="translate(589.625 387.625)" fill="#7cacd3"/>
      <path id="Icon_ionic-ios-checkmark-circle-5" data-name="Icon ionic-ios-checkmark-circle" d="M14.375,3.375a11,11,0,1,0,11,11A11,11,0,0,0,14.375,3.375Zm5.632,7.959-7.071,7.1h-.005a.955.955,0,0,1-.613.291.926.926,0,0,1-.619-.3L8.737,15.464a.211.211,0,0,1,0-.3l.941-.941a.2.2,0,0,1,.3,0l2.348,2.348,6.452-6.5a.209.209,0,0,1,.148-.063h0a.192.192,0,0,1,.148.063l.925.957A.208.208,0,0,1,20.007,11.334Z" transform="translate(711.625 297.625)" fill="#7cacd3"/>
      <path id="Icon_ionic-ios-checkmark-circle-6" data-name="Icon ionic-ios-checkmark-circle" d="M14.375,3.375a11,11,0,1,0,11,11A11,11,0,0,0,14.375,3.375Zm5.632,7.959-7.071,7.1h-.005a.955.955,0,0,1-.613.291.926.926,0,0,1-.619-.3L8.737,15.464a.211.211,0,0,1,0-.3l.941-.941a.2.2,0,0,1,.3,0l2.348,2.348,6.452-6.5a.209.209,0,0,1,.148-.063h0a.192.192,0,0,1,.148.063l.925.957A.208.208,0,0,1,20.007,11.334Z" transform="translate(711.625 342.625)" fill="#7cacd3"/>
      <path id="Icon_ionic-ios-checkmark-circle-7" data-name="Icon ionic-ios-checkmark-circle" d="M14.375,3.375a11,11,0,1,0,11,11A11,11,0,0,0,14.375,3.375Zm5.632,7.959-7.071,7.1h-.005a.955.955,0,0,1-.613.291.926.926,0,0,1-.619-.3L8.737,15.464a.211.211,0,0,1,0-.3l.941-.941a.2.2,0,0,1,.3,0l2.348,2.348,6.452-6.5a.209.209,0,0,1,.148-.063h0a.192.192,0,0,1,.148.063l.925.957A.208.208,0,0,1,20.007,11.334Z" transform="translate(711.625 387.625)" fill="#7cacd3"/>
      <path id="Icon_ionic-ios-checkmark-circle-8" data-name="Icon ionic-ios-checkmark-circle" d="M14.375,3.375a11,11,0,1,0,11,11A11,11,0,0,0,14.375,3.375Zm5.632,7.959-7.071,7.1h-.005a.955.955,0,0,1-.613.291.926.926,0,0,1-.619-.3L8.737,15.464a.211.211,0,0,1,0-.3l.941-.941a.2.2,0,0,1,.3,0l2.348,2.348,6.452-6.5a.209.209,0,0,1,.148-.063h0a.192.192,0,0,1,.148.063l.925.957A.208.208,0,0,1,20.007,11.334Z" transform="translate(1077.625 297.625)" fill="#7cacd3"/>
      <path id="Icon_ionic-ios-checkmark-circle-9" data-name="Icon ionic-ios-checkmark-circle" d="M14.375,3.375a11,11,0,1,0,11,11A11,11,0,0,0,14.375,3.375Zm5.632,7.959-7.071,7.1h-.005a.955.955,0,0,1-.613.291.926.926,0,0,1-.619-.3L8.737,15.464a.211.211,0,0,1,0-.3l.941-.941a.2.2,0,0,1,.3,0l2.348,2.348,6.452-6.5a.209.209,0,0,1,.148-.063h0a.192.192,0,0,1,.148.063l.925.957A.208.208,0,0,1,20.007,11.334Z" transform="translate(833.625 297.625)" fill="#7cacd3"/>
      <path id="Icon_ionic-ios-checkmark-circle-10" data-name="Icon ionic-ios-checkmark-circle" d="M14.375,3.375a11,11,0,1,0,11,11A11,11,0,0,0,14.375,3.375Zm5.632,7.959-7.071,7.1h-.005a.955.955,0,0,1-.613.291.926.926,0,0,1-.619-.3L8.737,15.464a.211.211,0,0,1,0-.3l.941-.941a.2.2,0,0,1,.3,0l2.348,2.348,6.452-6.5a.209.209,0,0,1,.148-.063h0a.192.192,0,0,1,.148.063l.925.957A.208.208,0,0,1,20.007,11.334Z" transform="translate(833.625 342.625)" fill="#7cacd3"/>
      <path id="Icon_ionic-ios-checkmark-circle-11" data-name="Icon ionic-ios-checkmark-circle" d="M14.375,3.375a11,11,0,1,0,11,11A11,11,0,0,0,14.375,3.375Zm5.632,7.959-7.071,7.1h-.005a.955.955,0,0,1-.613.291.926.926,0,0,1-.619-.3L8.737,15.464a.211.211,0,0,1,0-.3l.941-.941a.2.2,0,0,1,.3,0l2.348,2.348,6.452-6.5a.209.209,0,0,1,.148-.063h0a.192.192,0,0,1,.148.063l.925.957A.208.208,0,0,1,20.007,11.334Z" transform="translate(955.625 342.625)" fill="#7cacd3"/>
      <path id="Icon_ionic-ios-checkmark-circle-12" data-name="Icon ionic-ios-checkmark-circle" d="M14.375,3.375a11,11,0,1,0,11,11A11,11,0,0,0,14.375,3.375Zm5.632,7.959-7.071,7.1h-.005a.955.955,0,0,1-.613.291.926.926,0,0,1-.619-.3L8.737,15.464a.211.211,0,0,1,0-.3l.941-.941a.2.2,0,0,1,.3,0l2.348,2.348,6.452-6.5a.209.209,0,0,1,.148-.063h0a.192.192,0,0,1,.148.063l.925.957A.208.208,0,0,1,20.007,11.334Z" transform="translate(833.625 432.625)" fill="#7cacd3"/>
      <path id="Icon_ionic-ios-checkmark-circle-13" data-name="Icon ionic-ios-checkmark-circle" d="M14.375,3.375a11,11,0,1,0,11,11A11,11,0,0,0,14.375,3.375Zm5.632,7.959-7.071,7.1h-.005a.955.955,0,0,1-.613.291.926.926,0,0,1-.619-.3L8.737,15.464a.211.211,0,0,1,0-.3l.941-.941a.2.2,0,0,1,.3,0l2.348,2.348,6.452-6.5a.209.209,0,0,1,.148-.063h0a.192.192,0,0,1,.148.063l.925.957A.208.208,0,0,1,20.007,11.334Z" transform="translate(955.625 387.625)" fill="#7cacd3"/>
      <path id="Icon_ionic-ios-checkmark-circle-14" data-name="Icon ionic-ios-checkmark-circle" d="M14.375,3.375a11,11,0,1,0,11,11A11,11,0,0,0,14.375,3.375Zm5.632,7.959-7.071,7.1h-.005a.955.955,0,0,1-.613.291.926.926,0,0,1-.619-.3L8.737,15.464a.211.211,0,0,1,0-.3l.941-.941a.2.2,0,0,1,.3,0l2.348,2.348,6.452-6.5a.209.209,0,0,1,.148-.063h0a.192.192,0,0,1,.148.063l.925.957A.208.208,0,0,1,20.007,11.334Z" transform="translate(955.625 297.625)" fill="#7cacd3"/>
    </g>
  </g>
</svg>
