<svg xmlns="http://www.w3.org/2000/svg" xmlns:xlink="http://www.w3.org/1999/xlink" width="173" height="315" viewBox="0 0 173 315">
  <defs>
    <clipPath id="clip-image_bluePlant">
      <rect width="173" height="315"/>
    </clipPath>
  </defs>
  <g id="image_bluePlant" clip-path="url(#clip-image_bluePlant)">
    <g id="Group_17152" data-name="Group 17152" transform="translate(1 -318)">
      <g id="Group_16192" data-name="Group 16192" transform="translate(-1 319)">
        <path id="Path_11017" data-name="Path 11017" d="M1889.414,1287.424c16.055-56.536,33.337-98.868,46.434-126.8,7.52-16.019,14.341-28.807,19.863-38.438a36.679,36.679,0,0,1-10.767-12.522s-11.5-19.737-17.259-32.088c-3.641,11.761-10.54,30.847-21.993,59.95,0,0-.5,9.662-11.414,18.11,3.153,15.831,4.452,45.668-4.862,100.55v-27.5c2.865-22.8,3.469-39.339,3.107-51.073a135.332,135.332,0,0,0-1.862-19.492c-.41.257-.82.5-1.245.745v-71.321c2.588,11.418,5.311,23.964,4.839,32.549,0,0,45.465-87.129,35.234-48.72,4.151,4.3,11.206,12.9,22.313,27.62,0,0-.032-127.576,15.434-13.224,0,0,52.474-131.276,14.953,7.492,0,0,110.872-83.777,8.628,8.519,0,0,118.931-3.469-10.177,13.154,0,0,121.475,37.255-11.886,11.394a18.49,18.49,0,0,1-9.588-2.1c-5.475,9.556-12.257,22.286-19.746,38.261-14.071,30.016-33.005,76.773-50,140.024v-15.094Z" transform="translate(-1888.606 -1029.585)" fill="#7cacd3"/>
        <path id="Path_11018" data-name="Path 11018" d="M1884.075,1223.6c17.327-59.22,34.036-80.964,46.235-87.91a49.85,49.85,0,0,1,5.241-17.8s54.589-116.861,16.335-.578c0,0,135.109-93.767,25.353,6.634,0,0,177.6-40.888,3.052,21.345,0,0,170.2,55.872-2.688,15.395,0,0,91.068,123.42-21.4-1.109,0,0,49.785,156.024-20.815-4.23,0,0-4.655-5.132-5.151-15.023-10.864,7.714-28.151,31.015-46.157,98.188V1223.6Z" transform="translate(-1884.075 -924.519)" fill="#7cacd3"/>
      </g>
    </g>
  </g>
</svg>
