<svg xmlns="http://www.w3.org/2000/svg" xmlns:xlink="http://www.w3.org/1999/xlink" width="351" height="380" viewBox="0 0 351 380">
  <defs>
    <clipPath id="clip-image_hiMan">
      <rect width="351" height="380"/>
    </clipPath>
  </defs>
  <g id="image_hiMan" clip-path="url(#clip-image_hiMan)">
    <g id="Group_17118" data-name="Group 17118" transform="translate(2.177 3)">
      <g id="Group_17117" data-name="Group 17117" transform="translate(-874.209 -391)">
        <path id="Union_7" data-name="Union 7" d="M169.164,396.014q-9.378-.109-18.748-.7-5.28-.331-10.553-.811a17.736,17.736,0,0,1-5.646-1.07c-4.273-1.912-4.478-6.91-4.525-11.2-.031-2.263.052-35.222,1.478-57.289.35-5.461.785-10.252,1.24-14.378.073-.679.152-1.336.226-1.979q.039-.34.079-.675-.909-.255-1.808-.541a10.94,10.94,0,0,1-4.4-2.271c-3.119-3.019-3.47-9.706-3.147-13.741.252-3.15,1.764-5.82,2.971-8.681a14.735,14.735,0,0,0,1.408-6.908,38.261,38.261,0,0,0-1.719-7.59,49.661,49.661,0,0,1-2-16.237c.253-4.482,1.591-8.784,2.179-13.2-7.706,5.072-15.773,9.567-23.857,14-4.9,2.687-9.792,5.422-14.9,7.719-4.475,2.013-9.574,4.348-14.6,3.857-9.258-.909-14.1-11.76-18.276-18.723q-8.937-14.915-16.755-30.468-3.9-7.767-7.518-15.682c-1.233-2.714-2.451-5.43-3.637-8.172-.7-1.633-.112-2.106,1.2-3.38a42.794,42.794,0,0,1,8.545-5.91c-.868-3-1.772-6.095-2.625-8.979l0,0c-.662-2.271-1.292-4.412-1.837-6.269l0,0a.051.051,0,0,1,0-.011c-.484-1.653-.9-3.083-1.211-4.183l-.023-.014a16.736,16.736,0,0,1-3.577-3.361c-1.473-1.615-3.044-3.124-4.661-4.592-3.236-2.939-6.01-6.017-9.085-9.13-3.242-3.29-6.7-6.633-9.6-10.229-1.138-1.409-3.172-3.38-1.031-4.913,2.466-1.765,4.913,1.418,6.638,2.684,1.942,1.432,4.063,2.518,5.98,3.913-2.8-3.441-5.873-6.637-8.746-10.027a57.622,57.622,0,0,1-4.6-6.095c-.832-1.289-2.493-3.334-1.907-5.018,1.534-4.382,6.376,1.032,7.594,2.362,2.045,2.228,4.244,4.311,6.482,6.342,1.442,1.3,2.915,2.84,4.538,4.06-2.407-4.046-4.965-8.008-7.693-11.852-1.624-2.288-7.065-7.324-2.136-9.406,1.863-.786,3.145,1.009,4.213,2.236q2.778,3.189,5.3,6.584c1.964,2.637,8.419,9.53,9.562,10.085a1.659,1.659,0,0,0,1.284.128c.911-.335.689-1.2.37-1.876-.338-.721-.68-1.436-1.027-2.151q-1.044-2.14-2.153-4.252c-1.48-2.812-3.038-5.586-4.7-8.294-.763-1.244-1.973-4.076-.7-5.657,2-2.474,6.243,3.752,7.168,5.053,1.748,2.461,3.119,5.159,4.753,7.7a70.52,70.52,0,0,0,5.222,7.37,28.6,28.6,0,0,0,2.595,2.72,11.73,11.73,0,0,0,2.237,1.821,4.755,4.755,0,0,0,3.592.077c.587-.238,1.588-5.374,1.961-6.2,1.05-2.339,2.888-4.751,5.661-5a1.52,1.52,0,0,1,1.523.551,1.852,1.852,0,0,1,.191,1.307,24.2,24.2,0,0,1-1.275,4.431,47.645,47.645,0,0,0-1.961,5.384,51.08,51.08,0,0,0-.941,11.907c.022,4.682-.159,9.6-2.493,13.63.374.8.752,1.606,1.132,2.4.9,1.936,1.8,3.867,2.706,5.792,1.049,2.234,2.1,4.458,3.166,6.676l.027-.017c.166-.1.331-.206.5-.307a.548.548,0,0,1,.732.193,42.546,42.546,0,0,1,6,11.291c1.58,4.537,2.547,8.934,6.29,12.26,3.011,2.674,6.369,4.629,8.836,7.9a21.456,21.456,0,0,1,1.586,2.412c6.012-6.632,15.041-11.764,19.046-19.359,2.019-3.825,2.921-8.1,4.278-12.173,3.043-9.176,9.028-18.093,14.928-25.684a5.385,5.385,0,0,1,.967-.974c0-.007.008-.014.013-.021,1.576-2.6,5.05-3.833,7.609-5.173q11.158-5.833,22.7-10.888c3.8-1.665,18.055-4.912,19.054-9.238.194-.839.09-1.72.212-2.573.221-1.546,2.389-2.321,4.771-2.782-.124-.948-.267-2.048-.428-3.23-.026-.176-.048-.358-.074-.54-.07-.528-.145-1.084-.225-1.649q-.1-.818-.223-1.65a1.133,1.133,0,0,1-.016-.145c-.113-.806-.225-1.617-.342-2.418l-.032-.209c-.123-.9-.25-1.777-.384-2.622a.147.147,0,0,1-.005-.048c-.08-.528-.155-1.042-.234-1.538a.169.169,0,0,1-.012-.059c-.017-.112-.034-.223-.051-.333a18.21,18.21,0,0,0-2.53-2.377c-3.763-2.614-6.518-10.99-7.174-13.133-.4-1.02-.819-2.154-1.239-3.37-.005-.022-.016-.043-.022-.065h0l-.024-.024a5.477,5.477,0,0,1-4.9-2.338c-1.575-2.307-3.769-5.378-4.054-8.255a9.428,9.428,0,0,1,.282-3.337,6.554,6.554,0,0,0-.956-2.372c-1.8-2.691-3.15-4.6-3.738-7.859-.678-3.765-2.338-6.7-3.844-10.156a17.084,17.084,0,0,1-1.656-8.5c.337-2.612,2.5-4.6,4.464-6.168a9.832,9.832,0,0,1,2.74-1.656,20.464,20.464,0,0,1,4.5-12.467,19.606,19.606,0,0,1,5.072-4.843c2.334-1.469,5.051-1.752,7.522-2.878A21.514,21.514,0,0,0,173.157,5c1.5-1.666,2.664-3.343,4.821-4.181,1.014-.4,3.806-1.292,4.842-.512a2.716,2.716,0,0,1,.786,1.9,6.061,6.061,0,0,1,4.864.107c1.4.849,1.778,2.029,3.69,2.136a23.039,23.039,0,0,0,3.86-.47,21.025,21.025,0,0,1,5.954.166c3.171.544,8.58,2.056,9.963,5.382A10.827,10.827,0,0,1,212.605,14a55.329,55.329,0,0,1,4.047,8.544c1.75,4.052,1.18,7.693.614,12-.758,5.762-1.427,13.117-2.782,19.714a8.665,8.665,0,0,1,2.686,4.948c.5,2.851-.775,6.4-1.672,9.05a5.2,5.2,0,0,1-3.374,3.332l-.147.054c-.057,2.028-.152,4.328-.291,6.153.052,1.318.335,12.123-3.954,18.022-.272.373-.572.791-.893,1.238a89.958,89.958,0,0,0,1.561,11.549l2.009-.554c3.5-.965,4.472,2.842,5.208,5.906a305.4,305.4,0,0,1,43.113,12.035c3.381,1.22,6.777,2.453,10.091,3.847a12.235,12.235,0,0,1,5.238,3.473c6.484,3.89,12.6,8.026,17.32,14.061a108.064,108.064,0,0,1,7.3,11.064,64.984,64.984,0,0,0,9.046,11.374,45.369,45.369,0,0,1,7.378,9.838c2,3.738,3.562,7.691,5.49,11.471,2.092,4.1,11.462,11.466,13.45,15.474,1.265,2.561,12.094,19.819,10.86,28.634-1.154,8.264-10.807,21.63-17,26.895-6.793,5.773-43.736,30.069-43.875,29.948-1.2-.994-2.409-2.123-3.614-3.343-6.229,3.331-12.394,6.789-18.591,10.147q-.194.99-.418,1.965c-.609,2.66-3.095,4.142-6.146,4.964q.05.591.1,1.206c.053.59.1,1.187.157,1.8.022.242.042.486.064.737.021.211.037.432.058.652.041.445.078.895.121,1.354s.078.913.121,1.381c.021.233.041.473.062.706.042.432.079.863.121,1.3.366,4.147.77,8.682,1.194,13.37,2.157,23.783,4.719,51.45,4.566,52.255-.324,1.75-1.99,2.308-3.356,2.987a76.743,76.743,0,0,1-15.737,5.668c-11.637,2.915-23.713,4.223-35.6,5.3q-7.368.667-14.753,1.034l-1.048.055q-8.829.418-17.665.418Q171.414,396.041,169.164,396.014Zm95.562-123.929c.581-.445,1.171-.9,1.761-1.354-.59-.934-1.165-1.856-1.716-2.765C264.792,269.339,264.78,270.714,264.726,272.085Zm-1.908-38.517c-.526,8.873.824,17.747,1.544,26.61q5.319-4.15,10.635-8.3c1.741-1.353,3.978-2.633,5.41-4.334,1.643-1.958,1.483-5.586,2.146-7.981,1.239-4.477,7.7-8.411,7.7-8.411s-5.18-8.274-12.137-13.4c-3.817-2.8-8.7-3.807-12.812-6.069C264.2,219.478,263.161,227.781,262.818,233.568Z" transform="translate(878.032 394)" fill="#999" stroke="rgba(0,0,0,0)" stroke-miterlimit="10" stroke-width="1"/>
        <g id="Group_16312" data-name="Group 16312" transform="translate(598.403 22)">
          <g id="Group_16310" data-name="Group 16310" transform="translate(403.317 656.097)">
            <path id="Path_11182" data-name="Path 11182" d="M377.209,1195.913c-.424-4.687-.828-9.222-1.194-13.369-.041-.441-.078-.873-.12-1.3-.021-.234-.041-.473-.062-.707-.042-.468-.084-.927-.12-1.381s-.079-.908-.12-1.354c-.021-.22-.037-.441-.058-.652-.021-.251-.042-.5-.063-.738-.052-.617-.1-1.215-.157-1.8-.052-.612-.1-1.206-.152-1.781-.461-5.362-.76-9.171-.8-10.436-.173-5.637-11.087-4.634-14.978-4.616-2.195.017-4.394.017-6.588.027-4.29,0-8.574.023-12.862.126a86.122,86.122,0,0,0-19.733,2.767,51.924,51.924,0,0,1-9.526,1.4c-.356.018-.717.041-1.074.063-3.54.194-7.1.225-10.715.491-6.436.477-12.673,2.487-19.052,3.445-3.237.482-8.688-.926-13.627-2.591H266.2c-.413-.135-.811-.28-1.215-.418-5.273-1.849-9.678-3.833-9.678-3.833a148.383,148.383,0,0,0-2.582,15.744c-.048.388-.095.787-.142,1.193-.073.643-.153,1.3-.226,1.979-.456,4.125-.89,8.916-1.24,14.377-1.425,22.066-1.509,55.026-1.477,57.289.047,4.287.252,9.285,4.525,11.2a17.748,17.748,0,0,0,5.646,1.07q5.271.487,10.553.81,9.364.594,18.749.7,11.085.134,22.163-.391l1.048-.055q7.384-.365,14.753-1.034c11.887-1.081,23.964-2.389,35.6-5.3a76.717,76.717,0,0,0,15.738-5.668c1.366-.679,3.032-1.236,3.356-2.987.152-.8-2.409-28.471-4.566-52.255Z" transform="translate(-249.64 -1157.69)" fill="#6a3939"/>
            <path id="Path_11181" data-name="Path 11181" d="M377.537,1196.407c-1.079-.175-2.158-.329-3.247-.41a58.043,58.043,0,0,0-9.877.595c-4.907.5-9.536.382-13.884-2.173-4.562-2.677-8.52-6.654-14.245-5.035-4.137,1.174-7.7,3.15-11.873.95-4.4-2.326-7.1-6.766-12.495-7.081a18.632,18.632,0,0,0-3.75.2c-1.54,6.95.44,13.945,1.158,20.927a61.167,61.167,0,0,1-.3,11.547,27.039,27.039,0,0,0,.1,5.174c3.32.972,6.463-1.228,7.829-4.211,1.262-2.757,1.169-5.879.964-8.844-.419-6.042-.984-12.083-1.476-18.12-.058-.675.99-.671,1.047,0l1.053,12.833c.3,3.662.895,7.473.351,11.13-.7,4.679-4.515,9.555-9.631,8.34.262,1.885.66,3.752,1.1,5.686,1.68,7.324.262,14.549.644,21.971a115.791,115.791,0,0,0,1.65,13.765l-1.048.054a120.011,120.011,0,0,1-1.592-12.821,101.67,101.67,0,0,1,.215-12.754,40.231,40.231,0,0,0-1.3-11.723,33.454,33.454,0,0,1-.9-10.985,56.412,56.412,0,0,0,.147-11.962c-.781-6.616-2.441-13.243-1.111-19.833-1.629.288-3.247.657-4.866.9a45.537,45.537,0,0,1-7.625.477c-6.086-.095-12.171-.958-18.22-1.6-7.484-.787-15.632-1.534-21.916-5.646-.021.009-.692-.158-.7-.472-.283-.2.288-1.022.8-.661a261.636,261.636,0,0,1,66.641-12.488c9.924-.548,19.948-.665,29.81.77a67.813,67.813,0,0,1,24.493,8.4c.524,6.159,1.262,14.36,2.048,23.091Z" transform="translate(-250.107 -1159.174)" fill="#442122"/>
          </g>
          <g id="Group_16311" data-name="Group 16311" transform="translate(273.629 366)">
            <g id="Group_16309" data-name="Group 16309" transform="translate(0)">
              <path id="Path_11130" data-name="Path 11130" d="M339.3,873.986a55.269,55.269,0,0,0-4.047-8.544,10.817,10.817,0,0,0-.668-4.475c-1.383-3.326-6.792-4.838-9.963-5.382a21.039,21.039,0,0,0-5.954-.166,22.989,22.989,0,0,1-3.86.47c-1.912-.107-2.291-1.287-3.69-2.136a6.061,6.061,0,0,0-4.864-.107,2.718,2.718,0,0,0-.785-1.9c-1.036-.779-3.828.111-4.843.512-2.157.838-3.321,2.515-4.821,4.181a21.521,21.521,0,0,1-6.9,5.324c-2.472,1.126-5.189,1.409-7.522,2.878a19.623,19.623,0,0,0-5.072,4.843,20.469,20.469,0,0,0-4.5,12.467,9.833,9.833,0,0,0-2.739,1.656c-1.96,1.569-4.128,3.556-4.464,6.167a17.076,17.076,0,0,0,1.656,8.5c1.505,3.454,3.166,6.392,3.843,10.157.588,3.262,1.939,5.168,3.738,7.859a6.593,6.593,0,0,1,.961,2.4c.427,2.056.176,4.2,1.372,6.178,1.623,2.69,4.384,4.842,6.589,7.032.245.24.486.48.732.72a.394.394,0,0,0,.069.065,63.108,63.108,0,0,1,7.523,8.458c.39.561,1.313.027.918-.54a58.807,58.807,0,0,0-6.973-7.955c-.753-.748-1.512-1.485-2.27-2.227-1.244-1.212-2.482-2.43-3.679-3.685-.341-.358-.683-.726-1.009-1.111l.033-.015a.859.859,0,0,0,.565-.187.059.059,0,0,1,.022-.026,2.08,2.08,0,0,1,.321-.027,1.9,1.9,0,0,0,.138.15,6.371,6.371,0,0,0,2.574,1.586c.107.032.214.069.326.107a13.8,13.8,0,0,0,1.778.422q.344.065.689.113c4.229.629,8.1,2.231,12.26,3.091,7.651,1.576,15.991-1.281,22.821-4.56,5.345-2.563,9.7-4.138,12.734-7.961a16.024,16.024,0,0,0,2.173-3.652c.1-.229.192-.465.288-.705.048-.123.1-.245.139-.368.139-.358.273-.726.4-1.1a56.931,56.931,0,0,0,1.778-6.738c1.362-6.61,2.034-13.99,2.792-19.767.567-4.3,1.137-7.945-.613-12Z" transform="translate(-122.552 -851.438)" fill="#6a3939"/>
              <path id="Path_11131" data-name="Path 11131" d="M335.378,919.857c-.011-.316-.021-.625-.032-.94-.037-.944-.081-1.9-.128-2.856-.026-.54-.059-1.079-.091-1.623v-.006c-.075-1.351-.16-2.707-.251-4.058v-.006q-.143-2.059-.3-4.084a.1.1,0,0,1-.006-.043c-.96-11.859-2.381-22.3-2.936-23.136-2.3-3.47-5.34-4.768-8.842-6.391q-.906-.416-1.858-.88c-.5-.251-1.02-.518-1.538-.8-3.647-2-8.159-1.639-12.1-.913-9.151,1.672-17.952,3.883-25.111,10.188a27.553,27.553,0,0,0-2.788,2.8c-.245.283-.48.571-.705.87a16.407,16.407,0,0,0-2.375,4.154,10.386,10.386,0,0,0-.619,4.618v.006c.154,2.167.753,4.3.838,6.786,0,.075,0,.156.016.246a107.63,107.63,0,0,0,2.552,12.447q.105.424.208.849h.006c.251,1.02.519,2.067.8,3.118.374,1.415.758,2.841,1.159,4.255.358,1.281.726,2.558,1.1,3.8.021.081.048.16.069.241.081.267.16.528.241.79.261.865.528,1.709.8,2.526.241.758.486,1.495.732,2.2.006.021.016.043.021.065a46.661,46.661,0,0,0,2.788,6.77,37.046,37.046,0,0,0,7.768,9.83,24.02,24.02,0,0,0,15.148,6.472,21.173,21.173,0,0,0,6.8-.919,30.454,30.454,0,0,0,3.957-1.5c.843-.39,1.665-.817,2.45-1.276a30.747,30.747,0,0,0,6.818-5.724c3.019-3.209,4.261-10.714,4.865-14.975a126.472,126.472,0,0,0,.555-12.9Z" transform="translate(-123.257 -852.837)" fill="#f4a186"/>
              <path id="Path_11132" data-name="Path 11132" d="M363.229,987.675a4.583,4.583,0,0,0-2.867-1.4,60.01,60.01,0,0,1-6.547-1.623,46.466,46.466,0,0,1-12.558-6.628c-1.18-.885-2.488-1.913-3.749-3.072q-.408-.365-.8-.757a16.92,16.92,0,0,1-4.613-6.8c-.149-.5-.288-1.02-.411-1.539-1.095-4.489-1.339-9.508-1.869-14.122-.069-.587-.139-1.169-.219-1.74-.5-3.615-1.2-7.267-1.484-10.909,0,0-.091-1.158-.139-1.735-.065-.785-1.3-.791-1.234,0,.032.432.069.859.1,1.287-2.248-.486-5.174.186-7.7.908-1.122.325-2.163.651-3.033.9a115.858,115.858,0,0,0-11.992,3.791,31.164,31.164,0,0,0-9.286,5.431c-.187-1.105-.374-2.211-.566-3.317-.134-.778-1.325-.448-1.191.332.234,1.34.459,2.68.689,4.026-.086.086-.171.16-.251.251a.636.636,0,0,0,.47,1.057,8.059,8.059,0,0,1,.651,2.6c.006.021.006.042.01.069.049.283.1.582.15.9.022.117.037.235.058.352.027.159.054.325.081.491q.08.489.16,1.01a.182.182,0,0,0,.011.058c.08.5.155,1.01.234,1.538a.139.139,0,0,0,.006.048c.134.844.261,1.725.384,2.622.011.069.022.139.033.209.117.8.229,1.612.342,2.419a1.261,1.261,0,0,0,.016.144c.08.556.154,1.1.224,1.65.08.566.155,1.121.225,1.649.026.182.048.364.074.54.176,1.3.332,2.5.465,3.513.192,1.445.326,2.5.384,2.89a5.339,5.339,0,0,1,.081,1.339,11.321,11.321,0,0,1-2.029,4.678c-.208.3-.422.61-.641.913-1.394,1.9-3.027,3.687-4.154,5.036-4.549,5.43-10.092,9.957-16.92,12.1a.621.621,0,0,0,.16,1.21.53.53,0,0,0,.55.358,19.769,19.769,0,0,0,2.045,2.7,23.244,23.244,0,0,0,6.209,2.509,53.9,53.9,0,0,0,14.6,2.486,60.669,60.669,0,0,0,14.93-1.642c.368-.079.736-.166,1.11-.253,4.811-1.123,9.568-2.581,14.315-3.911,10.273-2.872,20.733-5.458,30.552-9.692,1.506-.646,6.8-2.155,4.939-4.871Z" transform="translate(-123.113 -856.84)" fill="#f4a186"/>
              <path id="Path_11133" data-name="Path 11133" d="M324.564,915.3a10.3,10.3,0,0,0-.451-3.193,2.922,2.922,0,0,0-.864-1.277c-1.2-.913-2.253.34-2.365,1.458-.145,1.454.371,4.492,1.788,5,1.467.524,1.857-.566,1.891-1.987Z" transform="translate(-126.118 -855.178)" fill="#162134"/>
              <path id="Path_11134" data-name="Path 11134" d="M296.2,920.128a10.035,10.035,0,0,0-.51-3.11,2.847,2.847,0,0,0-.873-1.229c-1.188-.866-2.193.382-2.278,1.476-.111,1.423.462,4.381,1.857,4.845,1.445.48,1.8-.593,1.8-1.982Z" transform="translate(-124.325 -855.494)" fill="#162134"/>
              <path id="Path_11135" data-name="Path 11135" d="M312.109,932.663c-2.561-.176-4.635-.47-5.048-3.68a17.832,17.832,0,0,1,.216-3.3q.259-3.686.518-7.371c.048-.686-1.02-.683-1.069,0q-.242,3.439-.482,6.88c-.117,1.667-.513,3.545-.122,5.186.646,2.707,3.584,3.19,5.986,3.355.687.048.684-1.021,0-1.068Z" transform="translate(-125.175 -855.639)" fill="#e06647"/>
              <path id="Path_11136" data-name="Path 11136" d="M303.319,941.976a15.7,15.7,0,0,1,1.175,1.426,6.34,6.34,0,0,0,1.512.955,12.532,12.532,0,0,0,7.459.913c5.4-1.276,7.059-4.1,7.567-5.6a4.127,4.127,0,0,0,.224-.984l-17.936,3.29Z" transform="translate(-125.008 -856.961)" fill="#fff"/>
              <path id="Path_11137" data-name="Path 11137" d="M324.432,958.668a1.778,1.778,0,0,0-.651,0,5,5,0,0,0-1.8,1.271,7.7,7.7,0,0,1-.689.593,21.95,21.95,0,0,1-3.69,1.736,10.8,10.8,0,0,1-6.381.091c-.865-.2-1.72-.47-2.557-.747a87.967,87.967,0,0,1-12.6-5.794c.006.021.006.042.01.069.049.283.1.582.15.9.022.117.037.235.058.352.027.159.054.325.081.491q.08.489.16,1.01a.181.181,0,0,0,.011.058c.08.5.155,1.01.234,1.538a.139.139,0,0,0,.006.048c.123.85.257,1.73.384,2.622.011.069.022.139.033.209.117.8.229,1.612.342,2.419a1.251,1.251,0,0,0,.016.144c.08.556.154,1.1.224,1.65.08.566.155,1.121.225,1.65.026.182.048.363.074.54a13.26,13.26,0,0,0,3.577-.47,16.774,16.774,0,0,1,7.838-.144c1.1.257,2.083.743,3.2.187.587-.288.684-.72,1.164-1.115,1.853-1.522,1.564-1.222,3.23-1.6a11.528,11.528,0,0,0,7.15-5.093c.492-.786,1.25-2.4.2-2.617Z" transform="translate(-124.549 -858.046)" fill="#e77d5a"/>
              <path id="Path_11138" data-name="Path 11138" d="M344.291,914.325a8.648,8.648,0,0,0-2.713-4.971,4.572,4.572,0,0,0-1.2-.716,3.558,3.558,0,0,0-1.446-.267,3.353,3.353,0,0,0-.61.075c-.015.006-.031.006-.048.01a6.463,6.463,0,0,0-3.176,2.424c-.433.528.319,1.287.752.759.63-.764.871-1.058,1.368-1.181-.567,1.847-.07,4.416-.193,6.146-.123,1.789-.251,3.551-.224,5.313a21.18,21.18,0,0,0,.453,4.191.252.252,0,0,0,.027.065c-.176.048-.352.1-.534.134-.673.149-.39,1.179.283,1.031a16.63,16.63,0,0,0,2.216-.63,5.2,5.2,0,0,0,3.374-3.332c.9-2.648,2.173-6.2,1.672-9.05Z" transform="translate(-127.011 -855.042)" fill="#f4a186"/>
              <path id="Path_11139" data-name="Path 11139" d="M285.682,935.865c-.192.011-.374.016-.55.022,0-.026.011-.043.006-.07a21.059,21.059,0,0,0-.63-3.9c-.453-1.794-1.084-3.535-1.719-5.313-.583-1.634-.8-4.245-1.837-5.868.507-.017.817.2,1.628.769.567.394,1.084-.54.524-.93a9.826,9.826,0,0,0-2.184-1.211,3.814,3.814,0,0,0-1.853-.241,3,3,0,0,0-.683.176,3.584,3.584,0,0,0-.967.54,5.843,5.843,0,0,0-1.938,3.134,9.4,9.4,0,0,0-.3,3.4c.284,2.878,2.478,5.948,4.053,8.255a5.505,5.505,0,0,0,4.961,2.339.082.082,0,0,0,.048,0c.465.01.945-.005,1.442-.033a.044.044,0,0,0,.027,0c.662-.059.645-1.1-.027-1.063Z" transform="translate(-123.224 -855.721)" fill="#f4a186"/>
              <path id="Path_11140" data-name="Path 11140" d="M299.9,907.791a2.036,2.036,0,0,0-.234-.513c-.85-1.33-3.316-1.87-4.646-1.922-4.058-.176-8,2.45-10.577,5.387a.539.539,0,0,0,.32.929c2.526.406,5.286-.886,7.763-1.394,1.528-.309,3.1-.342,4.624-.624.924-.166,3.123-.5,2.749-1.864Z" transform="translate(-123.802 -854.851)" fill="#55292b"/>
              <path id="Path_11141" data-name="Path 11141" d="M329.956,903.342c-3.349-2-7.9-3.311-11.715-1.9-1.25.459-3.439,1.724-3.839,3.251a1.8,1.8,0,0,0-.065.556c.059,1.42,2.254,1.062,3.183.939,1.543-.2,3.048-.646,4.592-.817,2.515-.273,5.542.112,7.828-1.042a.544.544,0,0,0,.016-.987Z" transform="translate(-125.705 -854.566)" fill="#55292b"/>
              <path id="Path_11142" data-name="Path 11142" d="M341.5,918.627c-.124-1.005-.95-1.62-1.536-2.367q-.035-1.583-.069-3.168a.534.534,0,0,0-1.068,0q.035,1.613.07,3.224a.428.428,0,0,0,.082.406,10.624,10.624,0,0,1,1.332,1.629c.48,1.037-.636,2.427-1.1,3.286-.326.6.595,1.145.923.539.562-1.042,1.52-2.294,1.366-3.548Z" transform="translate(-127.256 -855.308)" fill="#e06647"/>
              <path id="Path_11145" data-name="Path 11145" d="M179.427,1047.489c-.443-.817-.875-1.642-1.313-2.463a.533.533,0,0,0-.475-.9c-2.195-4.169-4.283-8.4-6.322-12.655-1.079-2.238-2.137-4.48-3.193-6.733-.908-1.926-1.8-3.857-2.707-5.793-.385-.811-.769-1.628-1.148-2.44q-1.442-3.062-2.893-6.095c-.3-.615-1.293-.225-.994.394.011.027.027.051.037.082-4.058,2.757-11.2,8.307-15.324,10.971a19.736,19.736,0,0,0,.6,2.326c.315,1.11.737,2.568,1.234,4.261.544,1.858,1.175,4,1.837,6.269.86,2.909,1.773,6.031,2.648,9.054.63,2.169,1.234,4.288,1.783,6.233v0c.107.38.214.743.31,1.105.908,3.238,1.612,5.894,1.922,7.357a.544.544,0,0,0,.732.44c3.77-1.564,10.567-6.041,14.272-7.756.619-.284.229-1.28-.4-.991-.117.055-.229.1-.342.156-.085-.513-.171-1.032-.256-1.545a67.808,67.808,0,0,1,7.71-3.294c.427.8.85,1.606,1.287,2.4.32.6,1.319.206.987-.394Z" transform="translate(-114.99 -861.483)" fill="#f4a186"/>
              <path id="Path_11146" data-name="Path 11146" d="M335.081,879.84a15.488,15.488,0,0,0-4.741-6.075,9.9,9.9,0,0,0-1-.652,11.14,11.14,0,0,0-1.143-.6,26.978,26.978,0,0,0-3.62-1.346h-.006c-.737-.224-1.485-.41-2.237-.576a32.949,32.949,0,0,0-5.1-.684,32.561,32.561,0,0,0-11.992,1.655c-4.1,1.34-8.206,2.58-12.318,3.887a58.2,58.2,0,0,0-11.159,5.371,30.781,30.781,0,0,0-6.536,4.373,10.623,10.623,0,0,0-.726.811,7.3,7.3,0,0,0-1.041,1.7,9.207,9.207,0,0,0-.214,5.035c.362,2.627.912,5.217,1.361,7.834.7,4.106.043,9.3,2.163,13.044-.583-.187-1.057.657-.465.939a9.863,9.863,0,0,1,1.944,1.618,5.107,5.107,0,0,0,.891.673h.006a1.719,1.719,0,0,0,1.053.23.553.553,0,0,0,.517-.391,2.471,2.471,0,0,0,.069-.448,6.337,6.337,0,0,0-.625-2.883,6.723,6.723,0,0,1-.443-5.035c1.026-3.668-1.928-8.421.534-11.7.727-.972,1.789-1.57,2.467-2.628.775-1.2,1.234-2.552,1.928-3.792a23.251,23.251,0,0,1,4.7-5.472.977.977,0,0,1,.123-.026c2.29-.438,4.656.224,6.973.112a21.546,21.546,0,0,0,5.607-1.014c2.686-.87,4.843-2.691,7.779-1.794,1.773.544,3.124,1.313,5.056,1.18,1.074-.075,2.147-.535,3.209-.529,1.186.011,2.046.656,3.177.737a5.692,5.692,0,0,0,2.776-.613,10.7,10.7,0,0,1,3.973,2.951c1.613,2.1.747,4.405,1.677,6.653.555,1.346,1.528,2.232,1.837,3.78.166.85.091,1.778.245,2.644a31.89,31.89,0,0,0,2.424,7.021.4.4,0,0,0,.144.186.146.146,0,0,0,.053.033.533.533,0,0,0,.6-.118.523.523,0,0,0,.191-.368q.4-7.368.8-14.732c.2-3.775.812-7.5-.913-10.994Z" transform="translate(-123.089 -852.604)" fill="#6a3939"/>
              <path id="Path_11147" data-name="Path 11147" d="M280.881,888.708a7.778,7.778,0,0,0-2.944-1.275,7.154,7.154,0,0,1-3.823-2.363c-.442-.527-1.194.232-.755.755a7.662,7.662,0,0,0,2.87,2.173c1.274.542,2.775.592,3.9,1.466.536.418,1.3-.333.756-.756Z" transform="translate(-123.103 -853.556)" fill="#341819"/>
              <path id="Path_11148" data-name="Path 11148" d="M334.35,871.261c-3.825,3.651-8.265,4.056-13.28,4.7-3.208.41-6.191,1.2-8.679,3.345-.521.45.237,1.2.755.755,3.618-3.122,8.355-2.909,12.806-3.617a16.546,16.546,0,0,0,9.154-4.425c.5-.475-.257-1.229-.755-.755Z" transform="translate(-125.571 -852.683)" fill="#341819"/>
              <path id="Path_11149" data-name="Path 11149" d="M336.188,865.668a16.729,16.729,0,0,1-10.108,4.394c-.681.053-.687,1.121,0,1.067a17.941,17.941,0,0,0,10.863-4.706c.508-.465-.248-1.218-.755-.755Z" transform="translate(-126.416 -852.329)" fill="#341819"/>
              <path id="Path_11150" data-name="Path 11150" d="M288.218,865.662c-6.686.548-10.467,6.187-12.881,11.861-.266.626.654,1.17.923.54,2.237-5.26,5.68-10.819,11.959-11.333.68-.055.686-1.124,0-1.068Z" transform="translate(-123.233 -852.338)" fill="#341819"/>
              <path id="Path_11151" data-name="Path 11151" d="M279.753,893.7a.534.534,0,0,0-.755-.755c-1.5,1.5-2.909,3.028-3.353,5.165a18.691,18.691,0,0,0,.2,6.577c.1.677,1.134.39,1.029-.285a18.111,18.111,0,0,1-.225-5.716c.362-2.125,1.635-3.514,3.107-4.986Z" transform="translate(-123.242 -854.056)" fill="#341819"/>
              <path id="Path_11152" data-name="Path 11152" d="M395.237,992.627c-1.292-1.789-3.356-2.766-5.333-3.6-3.314-1.394-6.709-2.627-10.091-3.848A305.407,305.407,0,0,0,336.7,973.144c-.736-3.063-1.712-6.871-5.209-5.906-6.323,1.746-12.381,3.458-18.944,4.182a.556.556,0,0,0-.514.39q-.673,2.181-1.346,4.353a25.333,25.333,0,0,0-.734-2.94c-.338-1.05-.7-1.72-1.88-1.832-2.21-.21-5.131,1.048-7.31,1.516-2.478.532-10.178.638-10.607,3.628-.122.853-.018,1.734-.212,2.573-1,4.326-15.255,7.572-19.054,9.238q-11.53,5.057-22.7,10.888c-2.56,1.34-6.034,2.578-7.61,5.173-1.518,2.5-.994,5.572-.577,8.315,1.349,8.861,2.952,17.717,3.936,26.629.942,8.522.523,16.837-.21,25.354a53.432,53.432,0,0,1-1.287,7.347c2.876,7.127,5.15,14.489,5.113,22.144-.028,5.756-2.131,11.2-2.455,16.937a49.684,49.684,0,0,0,2,16.237,38.225,38.225,0,0,1,1.719,7.59,14.735,14.735,0,0,1-1.407,6.908c-1.207,2.861-2.719,5.531-2.971,8.682-.323,4.036.029,10.723,3.147,13.74a10.935,10.935,0,0,0,4.4,2.271,57.992,57.992,0,0,0,20.035,2.582c5.569-.244,10.987-1.583,16.408-2.766a116.1,116.1,0,0,1,16.557-2.55c12.025-.858,24.065.348,36.048,1.265,5.959.454,16.734.854,22.712.885,4.916.028,17.271.459,18.737-5.949,1.819-7.953,2.2-16.735,3.047-24.853,1.463-14.109-2.472-28.266-1.634-42.421.836-14.126,5.832-43.259,5.832-43.259s-2.108-12.975-.117-19.694c1.855-6.261,4.321-12.343,5.7-18.74a61.435,61.435,0,0,0,1.333-10.632c.1-2.633.206-5.554-1.414-7.8Z" transform="translate(-120.972 -858.759)" fill="#f0e6e0"/>
              <path id="Path_11153" data-name="Path 11153" d="M272.236,1067.17c-.363-5.04-2.361-10.319-3.978-15.075a137.4,137.4,0,0,0-15.292-31.335c-2.926-4.453-6.146-9.962-10.375-13.309a8.46,8.46,0,0,0-4.5-1.816.536.536,0,0,0-.791-.519c-.331.193-.645.4-.95.619a5.222,5.222,0,0,0-1.768.72,5.328,5.328,0,0,0-1.324,1.229c-5.9,7.591-11.886,16.507-14.929,25.684-1.356,4.077-2.258,8.348-4.277,12.173-4.005,7.594-13.034,12.727-19.046,19.358a21.735,21.735,0,0,0-1.586-2.412c-2.467-3.27-5.825-5.224-8.837-7.9-3.743-3.325-4.71-7.723-6.29-12.259a42.55,42.55,0,0,0-6-11.292.549.549,0,0,0-.732-.193c-.166.1-.332.207-.5.307q-7.777,4.872-15.555,9.738c-1.383.867-2.862,1.7-4.346,2.559a42.879,42.879,0,0,0-8.564,5.921c-1.313,1.275-1.906,1.748-1.2,3.38,1.186,2.743,2.4,5.458,3.636,8.173q3.612,7.912,7.518,15.681,7.809,15.534,16.756,30.468c4.176,6.963,9.018,17.814,18.277,18.723,5.024.491,10.124-1.844,14.6-3.857,5.1-2.3,10-5.032,14.9-7.719,8.132-4.458,16.248-8.98,24-14.09q1.482-.97,2.937-1.967a114.843,114.843,0,0,0,22.409-19.584c2.792-3.261,6.14-6.815,5.815-11.407Z" transform="translate(-114.738 -861.162)" fill="#f0e6e0"/>
              <path id="Path_11154" data-name="Path 11154" d="M168.73,976.782a1.521,1.521,0,0,0-1.523-.551c-2.773.243-4.61,2.656-5.661,4.995-.373.826-1.374,5.963-1.96,6.2a4.758,4.758,0,0,1-3.592-.078,11.716,11.716,0,0,1-2.238-1.821,28.71,28.71,0,0,1-2.595-2.719,70.605,70.605,0,0,1-5.222-7.371c-1.633-2.537-3-5.235-4.753-7.7-.924-1.3-5.171-7.527-7.168-5.053-1.277,1.58-.067,4.413.7,5.657,1.663,2.708,3.22,5.482,4.7,8.294q1.11,2.112,2.153,4.251c.348.716.689,1.43,1.027,2.151.319.679.541,1.541-.37,1.876a1.658,1.658,0,0,1-1.284-.128c-1.143-.555-7.6-7.448-9.562-10.085q-2.523-3.392-5.3-6.583c-1.069-1.228-2.35-3.023-4.213-2.237-4.929,2.082.512,7.118,2.136,9.406,2.729,3.843,5.286,7.806,7.694,11.852-1.623-1.22-3.1-2.756-4.538-4.06-2.238-2.032-4.437-4.114-6.482-6.342-1.218-1.33-6.06-6.745-7.594-2.362-.586,1.683,1.074,3.729,1.907,5.018a57.578,57.578,0,0,0,4.6,6.095c2.873,3.389,5.948,6.586,8.746,10.026-1.917-1.395-4.037-2.481-5.98-3.913-1.724-1.265-4.171-4.449-6.637-2.684-2.141,1.532-.107,3.5,1.03,4.913,2.894,3.595,6.357,6.939,9.6,10.228,3.075,3.113,5.849,6.191,9.085,9.131,1.618,1.468,3.188,2.977,4.661,4.592a16.718,16.718,0,0,0,3.577,3.362c.048.032.1.065.15.092,2.99,1.669,5.884-.252,8.532-1.711,2.242-1.229,4.981-2.448,6.9-4.329.058.087.123.166.186.248-.336.481.3,1.105.759.716a.51.51,0,0,0,.608-.087.544.544,0,0,0,.069-.661,13.743,13.743,0,0,0,1.362-1.944c2.349-4.036,2.531-8.966,2.509-13.658a51.108,51.108,0,0,1,.94-11.907,47.831,47.831,0,0,1,1.961-5.384,24.236,24.236,0,0,0,1.275-4.43,1.854,1.854,0,0,0-.19-1.307Z" transform="translate(-112.956 -858.445)" fill="#f4a186"/>
              <path id="Path_11155" data-name="Path 11155" d="M157.808,991.883a25.229,25.229,0,0,0-4.966,21.561c.153.67,1.183.386,1.029-.284a24.112,24.112,0,0,1,4.692-20.525c.426-.532-.325-1.289-.755-.752Z" transform="translate(-115.44 -860.318)" fill="#e06647"/>
              <path id="Path_11156" data-name="Path 11156" d="M148.618,991.051a115.076,115.076,0,0,0-14.01,11.933.533.533,0,0,0,.755.752,113.544,113.544,0,0,1,13.795-11.764c.552-.4.02-1.325-.54-.922Z" transform="translate(-114.317 -860.27)" fill="#e06647"/>
              <path id="Path_11157" data-name="Path 11157" d="M424.895,1149.631c-.822.386-1.639.789-2.456,1.188a67.7,67.7,0,0,1-4.282-7.215c.369-.362.743-.724,1.116-1.091.058.111.123.215.182.326.336.6,1.238.027.908-.569-1.987-3.568-4.838-11.186-6.958-14.681a.541.541,0,0,0-.844-.073c-1.719,1.536-5.857,4.806-10.524,8.424-.332.258-.662.514-.993.776-1.431,1.106-2.9,2.238-4.352,3.348-.614.477-1.228.945-1.831,1.408-4.854,3.734-9.269,7.109-11.2,8.641a9.015,9.015,0,0,0-1.035.877c1.756,4.581,4.255,13.278,5.9,17.9-.026.018-.053.032-.08.049-.609.326-.033,1.221.57.9.54-.285,1.079-.578,1.613-.871.443-.239.881-.473,1.319-.716h.006c6.221-3.371,12.408-6.843,18.662-10.187,3.78-2.022,7.576-3.99,11.42-5.871a.528.528,0,0,0,.908-.44c.838-.4,1.678-.821,2.521-1.215.619-.294.043-1.193-.571-.9Z" transform="translate(-130.029 -868.906)" fill="#f4a186"/>
              <path id="Path_11158" data-name="Path 11158" d="M463.781,1067.287c-1.987-4.008-11.357-11.374-13.45-15.474-1.928-3.78-3.487-7.733-5.49-11.471a45.346,45.346,0,0,0-7.378-9.838,65.009,65.009,0,0,1-9.046-11.374,107.932,107.932,0,0,0-7.3-11.063c-4.747-6.073-10.913-10.223-17.444-14.135h-.006c-1.709-1.019-3.433-2.023-5.173-3.042-.593-.349-18.988,42.228-23.216,63.582a.533.533,0,0,0,.368.656,16.7,16.7,0,0,1,10.305,6.893c1.772,2.5,3.123,5.307,5.28,7.517a16.066,16.066,0,0,0,3.759,2.812c4.122,2.284,9.034,3.284,12.868,6.1,6.957,5.123,12.137,13.4,12.137,13.4s-6.466,3.935-7.705,8.411c-.662,2.394-.5,6.022-2.146,7.981-1.431,1.7-3.668,2.981-5.409,4.334q-5.35,4.176-10.7,8.347c-.812.628-1.618,1.266-2.43,1.9a.533.533,0,0,0-.08.646c.875,1.615,1.853,3.321,2.915,5.086.571.945,1.169,1.9,1.784,2.876a111.394,111.394,0,0,0,13.926,18c1.206,1.22,2.413,2.348,3.615,3.343.139.12,37.082-24.175,43.875-29.949,6.193-5.265,15.847-18.631,17-26.9,1.234-8.815-9.595-26.074-10.86-28.634Z" transform="translate(-129.563 -860.266)" fill="#f0e6e0"/>
              <path id="Path_11159" data-name="Path 11159" d="M389.878,1164.869c-.359-5.646-6.366-13.957-6.366-13.957l-2.456.692c-3.737,1.051-10.811,3.013-14.389,3.821a34.4,34.4,0,0,0-6.033,1.944,19.67,19.67,0,0,0-6.755,4.641c-.368.4-.79.885-1.243,1.436-2.894,3.472-7.288,9.434-9.564,12.934a19.464,19.464,0,0,0-1.371,2.344,3.124,3.124,0,0,0,.406,2.8c.774,1.05,1.612.711,2.6.165a34.142,34.142,0,0,0,4.736-3.742c-.71.706-4.625,4.687-5.809,7.068-.6,1.192-.07,3.468,1.495,3.733h0a1.76,1.76,0,0,0,.519.013,1.225,1.225,0,0,0,.352-.073h.021a2.344,2.344,0,0,0,.369-.142c.026.051.048.106.075.152,1.126,2.307,2.723,2.633,5.067,1.486.241-.115.492-.252.753-.4,1.228-.715,2.9-1.614,2.9-1.614s3.909,2.508,7.786.394a141.934,141.934,0,0,0,16.877-11.352c.117-.087.241-.174.358-.266,1.052-.789,2.227-1.592,3.38-2.44a21.68,21.68,0,0,0,4.443-4.049,8.061,8.061,0,0,0,1.848-5.587Z" transform="translate(-127.427 -870.397)" fill="#f4a186"/>
              <path id="Path_11160" data-name="Path 11160" d="M311.347,976.084a43.252,43.252,0,0,1-.97,9.108c-.17.716-.238,1.66-1.074,1.908a3.5,3.5,0,0,1-2.2-.436,7.532,7.532,0,0,0-2.235-.39c-3.882-.248-6.561-3.358-10.4-3.591-.687-.041-.684,1.022,0,1.068,2.7.166,4.663,2.036,7.081,3.005a9.764,9.764,0,0,0,2.949.583c1.54.137,3.006.93,4.5,1.022,1.643.1,1.751-1.174,2.1-2.527a42.868,42.868,0,0,0,1.322-9.75.535.535,0,0,0-1.069,0Z" transform="translate(-124.414 -859.296)" fill="#bfa9a1"/>
              <path id="Path_11161" data-name="Path 11161" d="M340.017,976.256c-4.181,2.7-8.7,5.187-12.545,8.365-.456.377-.882.789-1.34,1.165-1.183.968-1.782,1.8-3.049,1.6-1.13-.179-1.407-.885-1.753-2.293-.161-.657-.322-1.312-.482-1.973q-1.027-4.182-2.052-8.366c-.164-.665-1.193-.385-1.029.285q1.328,5.414,2.655,10.828c.538,2.193,1.087,3.252,3.674,2.459a7.5,7.5,0,0,0,2.464-1.5c1.624-1.316,3.179-2.632,4.932-3.788,3-1.976,6.045-3.908,9.066-5.862.575-.371.04-1.294-.539-.922Z" transform="translate(-125.921 -859.221)" fill="#bfa9a1"/>
              <path id="Path_11162" data-name="Path 11162" d="M322.038,1127.417a70.943,70.943,0,0,0,1.567-16.378c-.125-6.178-1.046-12.315-1.079-18.5-.033-6.087.8-12.15.627-18.236-.163-5.885-1.874-11.026-3.651-16.571-1.99-6.215-1.758-12.191-1.133-18.594a61.3,61.3,0,0,0-.4-17.209c-1.271-7.054-2.369-13.9-2.271-21.1a211.553,211.553,0,0,1,1.762-21.51c.08-.679-.989-.674-1.068,0-1.449,12.457-2.752,24.978-.492,37.421,1.187,6.536,2.251,12.709,1.691,19.388-.493,5.861-1.44,11.773-.269,17.616,1.27,6.343,4.232,11.994,4.676,18.552.435,6.416-.48,12.819-.533,19.236-.051,6.177.844,12.31,1.049,18.479a70.12,70.12,0,0,1-1.932,19,67.337,67.337,0,0,1-2.958,9.135c-1.16,2.875-2.458,5.674-2.775,8.793a18.708,18.708,0,0,0,4.547,14.016c.447.523,1.2-.233.755-.752a17.54,17.54,0,0,1-3.57-16.456c1.662-5.536,4.231-10.618,5.463-16.328Z" transform="translate(-125.727 -859.502)" fill="#bfa9a1"/>
              <path id="Path_11163" data-name="Path 11163" d="M254.2,1083.1a31.522,31.522,0,0,0-2.358-8.384q-1.9-5-3.687-10.044-6.868-19.463-11.8-39.531a.534.534,0,0,0-1.029.285q4.579,18.555,10.79,36.645c2,5.816,4.594,11.531,6.288,17.438,1.976,6.893-.7,13.021-3.749,19.125-.306.61.614,1.152.922.537,2.485-4.981,5.11-10.347,4.62-16.071Z" transform="translate(-120.702 -862.411)" fill="#bfa9a1"/>
              <path id="Path_11164" data-name="Path 11164" d="M417.581,1016.486c-1.825,5.018-5.217,9.311-8.218,13.672q-2.328,3.378-4.656,6.76a54.924,54.924,0,0,1-4.242,6.16c3.122-12.589,6.768-25.074,8.14-38.017.072-.684-1-.679-1.068,0-2.08,19.625-9.437,38.192-12.176,57.7-.094.67.935.963,1.03.285.863-6.151,2.18-12.205,3.646-18.227a.546.546,0,0,0,.312-.124c1.93-1.669,3.262-4.3,4.7-6.394l5.238-7.609c3.062-4.449,6.465-8.806,8.326-13.925.236-.646-.8-.927-1.029-.284Z" transform="translate(-130.835 -861.131)" fill="#bfa9a1"/>
              <path id="Path_11165" data-name="Path 11165" d="M452.342,1103.37a41.513,41.513,0,0,0-12.265-6.792,20.214,20.214,0,0,0-6.612-1.21c-2.784,0-5.979,1.834-8.624.982-.508-.166-.784.412-.583.779a.5.5,0,0,0,.283.794c3.131.669,5.813,2.3,8.555,3.889l8.524,4.921a.534.534,0,0,0,.539-.922q-4.71-2.724-9.42-5.439a36.4,36.4,0,0,0-5.648-2.816c.907-.133,1.8-.426,2.808-.665a16.6,16.6,0,0,1,8.089.161,37.916,37.916,0,0,1,13.6,7.072c.526.436,1.286-.317.755-.752Z" transform="translate(-132.658 -866.881)" fill="#bfa9a1"/>
              <path id="Path_11166" data-name="Path 11166" d="M199.874,1083.824c-.03-.683-1.1-.687-1.068,0a29.478,29.478,0,0,1-1.672,11.457,19.012,19.012,0,0,1-1.4,3.2l-.761,1.105q-1.366.572-.783-.76c-.324-1.574,1.057-4.348,1.556-5.816,2.415-7.086,2.728-14.3,2.794-21.722a.534.534,0,0,0-1.068,0c-.048,5.311-.087,10.677-1.176,15.9-.942,4.522-3.235,8.733-3.288,13.42a.547.547,0,0,0,.534.532c2.783.21,3.854-3.468,4.619-5.573a30.273,30.273,0,0,0,1.71-11.741Z" transform="translate(-118.024 -865.323)" fill="#bfa9a1"/>
              <path id="Path_11167" data-name="Path 11167" d="M166.945,1041.193q-10.054,8.049-20.277,15.888c-.538.412-.007,1.343.539.921q10.331-7.919,20.493-16.057c.537-.426-.224-1.178-.755-.752Z" transform="translate(-115.076 -863.443)" fill="#bfa9a1"/>
              <path id="Path_11168" data-name="Path 11168" d="M415.984,1154.113q-4.315-5.407-8.26-11.094-1.7-2.463-3.325-4.981c-1.279-1.976-3.146-4.229-3.444-6.623-.084-.674-1.153-.684-1.068,0,.507,4.073,4.1,8.03,6.351,11.319,2.84,4.16,5.851,8.2,8.991,12.131.429.537,1.18-.22.755-.752Z" transform="translate(-131.121 -869.131)" fill="#bfa9a1"/>
              <path id="Path_11169" data-name="Path 11169" d="M277.989,1175.86c-6.53-.8-10.3-9.888-11.249-15.475-.114-.674-1.144-.39-1.03.285,1.043,6.164,5.18,15.392,12.279,16.259.681.082.674-.986,0-1.069Z" transform="translate(-122.626 -870.973)" fill="#bfa9a1"/>
              <path id="Path_11170" data-name="Path 11170" d="M358.94,1168.338a81.492,81.492,0,0,0-8.181,8.733c-.428.532.323,1.293.755.757a81.111,81.111,0,0,1,8.181-8.733c.507-.468-.25-1.22-.755-.757Z" transform="translate(-128.003 -871.491)" fill="#e06647"/>
              <path id="Path_11171" data-name="Path 11171" d="M364.678,1173.006a209.806,209.806,0,0,0-16.211,15.025c-.479.5.275,1.252.755.757a209.244,209.244,0,0,1,16.211-15.026c.528-.44-.23-1.193-.755-.756Z" transform="translate(-127.856 -871.788)" fill="#e06647"/>
              <path id="Path_11172" data-name="Path 11172" d="M365.986,1181.188q-4.073,3.357-8.211,6.641c-.539.426.221,1.179.754.756q4.139-3.281,8.212-6.645c.53-.436-.23-1.188-.755-.752Z" transform="translate(-128.444 -872.306)" fill="#e06647"/>
              <path id="Path_11173" data-name="Path 11173" d="M318.593,992.707q-.053,1.335-.108,2.67c-.028.683,1.04.683,1.068,0q.053-1.335.108-2.67c.028-.688-1.04-.688-1.068,0Z" transform="translate(-125.968 -860.349)" fill="#bfa9a1"/>
              <path id="Path_11174" data-name="Path 11174" d="M322.225,1028.1a18.535,18.535,0,0,1-.391-2.518c-.057-.683-1.126-.688-1.068,0a20.584,20.584,0,0,0,.429,2.8c.151.669,1.181.385,1.029-.285Z" transform="translate(-126.112 -862.43)" fill="#bfa9a1"/>
              <path id="Path_11175" data-name="Path 11175" d="M323.973,1062.7c-.26-.83-.52-1.665-.78-2.494-.2-.656-1.235-.376-1.029.28q.391,1.252.78,2.5c.2.656,1.235.377,1.029-.285Z" transform="translate(-126.199 -864.631)" fill="#bfa9a1"/>
              <path id="Path_11176" data-name="Path 11176" d="M327.285,1097.594c.024-.688-1.043-.688-1.068,0-.037,1.036-.024,2.077.037,3.115.04.683,1.109.687,1.068,0-.061-1.037-.073-2.079-.036-3.115Z" transform="translate(-126.456 -866.989)" fill="#bfa9a1"/>
              <path id="Path_11177" data-name="Path 11177" d="M324.342,1137.93q-.277,1.513-.552,3.023c-.123.674.907.963,1.03.284.184-1.009.367-2.013.552-3.021.123-.67-.907-.959-1.029-.285Z" transform="translate(-126.303 -869.551)" fill="#bfa9a1"/>
              <path id="Path_11178" data-name="Path 11178" d="M324.269,1172.048a11.184,11.184,0,0,1-.752-2.1.534.534,0,0,0-1.029.284,12.425,12.425,0,0,0,.86,2.358c.3.619,1.218.078.922-.542Z" transform="translate(-126.22 -871.579)" fill="#bfa9a1"/>
              <path id="Path_11179" data-name="Path 11179" d="M372.74,1035.6c-1.02.11-3.46.353-4.245.418l-3.1.276-7.417.637q-3.708.331-7.416.647c-.5.041-2.729.491-3.178.28-.817-.4-.687-1.3-.672-2.211,4.677-.445,9.349-.908,14.032-1.326,2.376-.216,4.753-.408,7.138-.509,1.02-.041,2.04-.069,3.06-.078.544,0,1.089,0,1.628.008a.538.538,0,0,1,.518.427,5.74,5.74,0,0,1,.128.876.518.518,0,0,1-.475.555Zm.821-2.925c-1.094-.019-2.53-.014-3.641.009-1.532.033-3.065.106-4.592.207-6.413.417-12.815,1.137-19.211,1.742a.581.581,0,0,0-.476.789c.054,1.018.1,2.037.15,3.059a.538.538,0,0,0,.534.532q9.53-.832,19.067-1.655c2.413-.207,8.8-.423,8.971-1.519.117-.779-.2-3.151-.8-3.164Z" transform="translate(-127.685 -862.911)" fill="#bfa9a1"/>
              <path id="Path_11180" data-name="Path 11180" d="M168.249,1025.338c-6.5,3.22-12.943,6.573-19.356,9.976-.662-2.271-1.293-4.412-1.837-6.269,6.124-3.238,12.275-6.426,18.486-9.5.9,1.935,1.8,3.867,2.707,5.793Z" transform="translate(-115.115 -862.08)" fill="#202c44"/>
            </g>
            <path id="Path_11183" data-name="Path 11183" d="M314.676,944.216a20.135,20.135,0,0,1-4.729,1.037c.021,1.128.057,2.1.023,3.221-.058,1.953-.276,5.477-2.954,5.641-4.982.306-4.643-7.136-4.592-11.078,1.165-.906,2.436-1.67,3.685-2.465,1.6-1.015,3.162-2.208,5.047-2.581,3.232-.641,6.529.963,9.784,1.249.312.028,1.041,2.27,1.164,2.593a21.728,21.728,0,0,1,.867,2.871,20.194,20.194,0,0,1,.439,2.848,4.4,4.4,0,0,1-.192,2.8,4.321,4.321,0,0,1-2.626,1.829c-2.039.5-3.828-.979-4.68-2.653A23.714,23.714,0,0,1,314.676,944.216Zm20.769-9.732s-1.385,4.7-3.133,6.639a29.308,29.308,0,0,0-3.184,4.4,23.282,23.282,0,0,1-3.39,4.024A38.3,38.3,0,0,0,322.919,939c-2.006-4.368-8.292-4.407-12.438-3.706a.462.462,0,0,0-.25.126.539.539,0,0,0-.22.022c-2.453.76-5.725,1.388-7.788,2.992-1.559,1.214-1.881,3.482-1.955,5.325-.126,3.154,1.062,6.214,1.284,9.35.015.219.021.441.03.66-.729-.533-1.424-1.132-2.164-1.735a27.443,27.443,0,0,0-4.179-2.67c-3.551-1.973-9.51-8.432-9.51-8.432s3,10.631,7.323,13.637c2.161,1.5,4.941,5.685,7.447,6.485,2.945.939,5.748,3.933,8.808,4.522a19.436,19.436,0,0,0,9.685-.492,8.379,8.379,0,0,0,3.693-2.4c2.915-1.571,6.7-7.139,8.811-10.044C336.069,946.35,335.444,934.484,335.444,934.484Z" transform="translate(-123.667 -856.704)" fill="#6a3939"/>
          </g>
        </g>
      </g>
    </g>
  </g>
</svg>
