<svg xmlns="http://www.w3.org/2000/svg" xmlns:xlink="http://www.w3.org/1999/xlink" width="19" height="16" viewBox="0 0 19 16">
  <defs>
    <clipPath id="clip-image_phone">
      <rect width="19" height="16"/>
    </clipPath>
  </defs>
  <g id="image_phone" clip-path="url(#clip-image_phone)">
    <path id="Icon_awesome-headphones-alt" data-name="Icon awesome-headphones-alt" d="M5.937,11.393H5.344a2.333,2.333,0,0,0-2.375,2.29V15.96a2.334,2.334,0,0,0,2.375,2.29h.594a1.167,1.167,0,0,0,1.188-1.145V12.538A1.167,1.167,0,0,0,5.937,11.393Zm7.719,0h-.594a1.167,1.167,0,0,0-1.187,1.145v4.567a1.167,1.167,0,0,0,1.188,1.145h.594a2.334,2.334,0,0,0,2.375-2.29V13.683A2.334,2.334,0,0,0,13.656,11.393ZM9.5,2.25A9.5,9.5,0,0,0,0,11.393v4a.583.583,0,0,0,.594.571h.594a.583.583,0,0,0,.594-.571v-4A7.583,7.583,0,0,1,9.5,3.971a7.583,7.583,0,0,1,7.719,7.422v4a.583.583,0,0,0,.594.571h.594A.583.583,0,0,0,19,15.393v-4A9.5,9.5,0,0,0,9.5,2.25Z" transform="translate(0 -2.25)" fill="#7cacd3"/>
  </g>
</svg>
