<svg xmlns="http://www.w3.org/2000/svg" xmlns:xlink="http://www.w3.org/1999/xlink" width="131" height="193" viewBox="0 0 131 193">
  <defs>
    <clipPath id="clip-path">
      <rect id="Rectangle_3735" data-name="Rectangle 3735" width="131" height="193" rx="10" transform="translate(0 -7)" fill="none" stroke="#707070" stroke-width="1"/>
    </clipPath>
    <clipPath id="clip-image_girl">
      <rect width="131" height="193"/>
    </clipPath>
  </defs>
  <g id="image_girl" clip-path="url(#clip-image_girl)">
    <g id="Group_16958" data-name="Group 16958" transform="translate(84 -451)">
      <g id="Mask_Group_9" data-name="Mask Group 9" transform="translate(-84 458)" clip-path="url(#clip-path)">
        <g id="Group_2552" data-name="Group 2552" transform="translate(-131.672 -35)">
          <path id="Path_1415" data-name="Path 1415" d="M2138.924,591.412H1467.405v272.94h671.519V591.412" transform="translate(-1467.405 -591.412)" fill="#ffefef"/>
          <path id="Path_1416" data-name="Path 1416" d="M1527.464,648.341s-6.227-19.745,2.854-32.257,17.014-3.162,18.839,0a14.344,14.344,0,0,1,7.4,2.2c3.737,2.337,23.272,7.7,24.678,22.823s-4.6,22.427,0,31.654,16.194,15.744,13.974,30.493,13.234,29.331,5.387,47.021a21.8,21.8,0,0,1-7.315,1.376c-3.194-.183-7.627-3.634-15.961.015s-14.958,4.02-21.844,1.361-10.726-4.308-17.762-2.751-15.146-.089-16.588-4.49,4.121-23.464,5.419-32.448-7.986-21.817,1.7-37.582-.78-27.415-.78-27.415Z" transform="translate(-1352.88 -551.302)" fill="#43211a"/>
          <path id="Path_1417" data-name="Path 1417" d="M1561.253,695.982l-23.481,3.677-6.877-41.747,23.482-3.675,6.877,41.745Z" transform="translate(-1349.795 -535.619)" fill="#e8b78e"/>
          <path id="Path_1418" data-name="Path 1418" d="M1530.895,657.752l3.19,19.367c3.794-3.215,9.557-5.813,16.358-22.428l-19.548,3.06Z" transform="translate(-1349.795 -535.458)" fill="#c56450"/>
          <path id="Path_1419" data-name="Path 1419" d="M1551.652,618.618s-16.357-3.6-22.235,17.219c-1.668,5.912-1,12.353-3.3,15.017-4.9,5.673-10.692,7.7-2.772,11.339a28.025,28.025,0,0,1,0,5.905c-.577,5.309-1.372,12.385,3.66,13.735,5.866,1.574,14.827-2.654,25.922-7.34a29.981,29.981,0,0,0,10.568-7.921c8.2-9.369,21.952-32.445.34-44.358-3.169-1.747-7.351-2.3-12.188-3.6Z" transform="translate(-1353.326 -548.26)" fill="#e8b78e"/>
          <path id="Path_1420" data-name="Path 1420" d="M1538.577,642.086a.636.636,0,0,0,.516-.1.785.785,0,0,0,.32-1.1c-.9-1.8-3.663-4.42-8.569-3.845a.84.84,0,0,0-.638,1.037c.1.469.542.59,1,.66,4.607.72,6.681,2.918,6.712,2.948a1.414,1.414,0,0,0,.657.4Z" transform="translate(-1350.014 -541.71)" fill="#23262e"/>
          <path id="Path_1421" data-name="Path 1421" d="M1529.349,656.3a.753.753,0,0,0,.5-.927.717.717,0,0,0-.893-.514,10.958,10.958,0,0,1-6.46.053c-.01.112-.021.226-.033.341-.041.38-.083.775-.127,1.174l.183.054a12.392,12.392,0,0,0,6.833-.181Z" transform="translate(-1352.436 -535.411)" fill="#b64c4f"/>
          <path id="Path_1422" data-name="Path 1422" d="M1532.876,644.422c-.311,1.24-1.174,2.083-1.928,1.881s-1.108-1.373-.8-2.613,1.174-2.083,1.927-1.88,1.111,1.373.8,2.612Z" transform="translate(-1350.058 -540.011)" fill="#1a1b20"/>
          <path id="Path_1423" data-name="Path 1423" d="M1535.97,616.942s-5.778,24.474,3.673,30.524,9.033,7.954,9.774,10.163,3.024,14.268,5.472,19.1c0,0,16.459-15.058,18.144-28.073s-2.748-31.164-37.062-31.715Z" transform="translate(-1348.769 -548.767)" fill="#43211a"/>
          <path id="Path_1424" data-name="Path 1424" d="M1546.437,647.162s1.936-3.036,6.153-1.487c4.076,1.5-.12,12.195-4.251,13.033s-3.959-4.989-3.959-4.989l2.057-6.556Z" transform="translate(-1345.636 -538.793)" fill="#e8b78e"/>
          <path id="Path_1425" data-name="Path 1425" d="M1535.067,622.073a.209.209,0,0,1-.05-.005.275.275,0,0,1-.213-.321s.338-1.879.991-5.61a2.506,2.506,0,0,1,1.163-1.763c2.223-1.4,6.744.02,6.935.081a.275.275,0,0,1,.176.343.264.264,0,0,1-.333.181c-.044-.013-4.484-1.4-6.5-.135a1.945,1.945,0,0,0-.917,1.389c-.652,3.733-.992,5.614-.992,5.614a.267.267,0,0,1-.26.225Z" transform="translate(-1348.59 -549.888)" fill="#582420"/>
          <path id="Path_1426" data-name="Path 1426" d="M1545.868,650.374a.254.254,0,0,1-.163-.058c-9.884-7.974-4.95-30.952-4.735-31.925a.263.263,0,0,1,.321-.206.269.269,0,0,1,.2.327c-.051.235-5.072,23.611,4.544,31.37a.281.281,0,0,1,.047.387.265.265,0,0,1-.21.105Z" transform="translate(-1347.125 -548.331)" fill="#582420"/>
          <path id="Path_1427" data-name="Path 1427" d="M1570.516,702.226a.247.247,0,0,1-.148-.046c-9.116-6.191-10.428-17.4-11.7-28.229-.946-8.056-1.837-15.664-5.662-21.419-9.141-13.758-3.7-33.954-3.642-34.156a.266.266,0,0,1,.329-.189.278.278,0,0,1,.182.342c-.055.2-5.426,20.15,3.571,33.693,3.9,5.866,4.839,13.9,5.749,21.661,1.256,10.71,2.556,21.786,11.466,27.838a.285.285,0,0,1,.078.382.266.266,0,0,1-.222.123Z" transform="translate(-1344.61 -548.332)" fill="#582420"/>
          <path id="Path_1428" data-name="Path 1428" d="M1575.043,705.314l-.039,0a.273.273,0,0,1-.224-.314c1.182-7.925-5.072-25.824-13.122-37.556-8.063-11.754-9.215-39.331-9.225-39.608a.272.272,0,0,1,.255-.285.267.267,0,0,1,.277.264c.011.276,1.153,27.69,9.129,39.312,8.115,11.827,14.411,29.918,13.213,37.959a.271.271,0,0,1-.264.231Z" transform="translate(-1343.152 -545.028)" fill="#582420"/>
          <path id="Path_1429" data-name="Path 1429" d="M1565.682,669.243a.264.264,0,0,1-.221-.122c-6.629-10.194-6.425-29.774-6.422-29.972,0-.15.12-.191.266-.191h0c.147,0,.265.047.263.2,0,.2-.2,19.646,6.33,29.7a.26.26,0,0,1-.073.364.243.243,0,0,1-.148.026Z" transform="translate(-1341.115 -541.005)" fill="#582420"/>
          <path id="Path_1430" data-name="Path 1430" d="M1521.073,683.648s15.727-6.9,16.489-9.917l23.8-1.729s10.325,7.532,19.494,10.938c0,0-17.423,13.012-38.9,10.742a33.114,33.114,0,0,1-20.88-10.035Z" transform="translate(-1352.824 -529.355)" fill="#e8b78e"/>
          <path id="Path_1431" data-name="Path 1431" d="M1489.2,797.776h22.705c3.016-9.2,5.425-17.253,7.433-24.2,3.338-11.54,12.066-48.946,11.534-64.529a33.969,33.969,0,0,0-11.518-24.207s-7.633,3.857-11.713,19.807c-.339,1.327-3.007,2.107-3.368,3.851-.357,1.706.474,9.69.284,11.732-1.527,16.31-4.052,27.24-5.7,37.528-.4,2.47-4.273,5.114-4.519,7.02a15.951,15.951,0,0,0,.887,7.516s-.93,3.364-6.028,25.482Z" transform="translate(-1362.653 -524.829)" fill="#38688d"/>
          <path id="Path_1432" data-name="Path 1432" d="M1508.275,752.056a.524.524,0,0,1-.24-.058c-4.271-2.245-12.9-1.87-12.989-1.866a.549.549,0,0,1-.558-.525.543.543,0,0,1,.509-.573c.364-.018,9-.391,13.52,1.984a.56.56,0,0,1,.233.739.532.532,0,0,1-.476.3Z" transform="translate(-1361.023 -502.209)" fill="#325a75"/>
          <path id="Path_1433" data-name="Path 1433" d="M1508.456,750.039a.53.53,0,0,1-.428-.223c-3.408-4.762-10.8-8.038-10.877-8.072a.555.555,0,0,1-.283-.72.526.526,0,0,1,.7-.291c.315.136,7.738,3.427,11.316,8.429a.559.559,0,0,1-.111.768.513.513,0,0,1-.315.108Z" transform="translate(-1360.302 -505.14)" fill="#325a75"/>
          <path id="Path_1434" data-name="Path 1434" d="M1508.051,721.058l-.044,0a.547.547,0,0,1-.488-.594c.449-5.7-4.308-19.153-4.357-19.289a.556.556,0,0,1,.316-.706.525.525,0,0,1,.681.325c.2.563,4.888,13.815,4.421,19.761a.539.539,0,0,1-.53.5Z" transform="translate(-1358.358 -519.332)" fill="#efe4db"/>
          <path id="Path_1435" data-name="Path 1435" d="M1507.012,720.41a.539.539,0,0,1-.524-.45c-.265-1.5-3.632-7.317-4.906-9.435a.56.56,0,0,1,.171-.756.52.52,0,0,1,.732.176c.482.8,4.7,7.846,5.051,9.816a.55.55,0,0,1-.427.641.453.453,0,0,1-.1.009Z" transform="translate(-1358.86 -516.071)" fill="#325a75"/>
          <path id="Path_1436" data-name="Path 1436" d="M1508.939,799.816h71.725c.639-10.306,4.221-25.6,6-36.3,2.926-17.6,16.089-73.012,16.089-73.012-2.483-2.2-2.843-4.146-18.006-11.449,0,0-19.945,9.207-38.267,8.006a37.341,37.341,0,0,1-19.4-7.126,77.943,77.943,0,0,0-12.811,6.944s1.578,17.1,1.581,20.161c.007,7.737-9.334,24.42-9.846,30.263-.808,9.231.152,13.075,2.193,22.547,1.506,6.991,1.071,25.234.745,39.964Z" transform="translate(-1357.561 -526.868)" fill="#38688d"/>
          <path id="Path_1437" data-name="Path 1437" d="M1531.817,715.522a.529.529,0,0,1-.4-.184.563.563,0,0,1,.043-.776c7.407-6.84,24.689-16.208,24.864-16.3a.524.524,0,0,1,.719.231.562.562,0,0,1-.225.743c-.172.094-17.341,9.4-24.649,16.147a.512.512,0,0,1-.353.141Z" transform="translate(-1349.675 -520.12)" fill="#efe4db"/>
          <path id="Path_1438" data-name="Path 1438" d="M1514.72,692.2c.368,4.41.721,8.956.721,10.375,0,4.258-2.981,11.5-5.619,17.891-2.144,5.2-3.995,9.694-4.226,12.322-.78,8.908.071,12.848,1.938,21.483l.267,1.232c1.223,5.68,1.147,19.1.9,31.715a10.014,10.014,0,0,1,1.073-.418c.237-12.553.3-25.809-.938-31.535l-.265-1.234c-1.842-8.518-2.682-12.408-1.918-21.143.214-2.458,2.125-7.086,4.146-11.99,2.675-6.488,5.707-13.841,5.7-18.323,0-1.509-.373-6.3-.755-10.846a9.792,9.792,0,0,1-1.03.471Z" transform="translate(-1357.687 -522.401)" fill="#2d526b"/>
          <path id="Path_1439" data-name="Path 1439" d="M1549.5,746.263a.5.5,0,0,1-.153-.024c-12.99-4.056-19.109-17.325-19.171-17.459a.559.559,0,0,1,.257-.73.526.526,0,0,1,.708.265c.059.13,5.988,12.959,18.513,16.872a.554.554,0,0,1,.356.686.531.531,0,0,1-.509.391Z" transform="translate(-1350.031 -509.614)" fill="#efe4db"/>
          <path id="Path_1440" data-name="Path 1440" d="M1567.936,770.17c-.763,2.823-2.307,4.7.617,8.34,1.207,1.505.285,1.451-.424,5.276-.487,2.63-1.6,8.825-2.1,13.045h27.855c1.712-10.078,1.247-17.959,1.362-25.11.1-6.195-.256-20.835.574-43.222.09-2.42,1.867-10.769,1.751-13.086-.067-1.324-2.441-2.336-2.515-3.611-.828-14.023-10.909-24.281-10.909-24.281s-18.248,2.1-17.964,43.656c.043,6.273,1.172,18.817,1.59,28.15.163,3.676.887,8.157.161,10.843Z" transform="translate(-1338.958 -523.884)" fill="#38688d"/>
          <path id="Path_1441" data-name="Path 1441" d="M1567.611,741.641c-.4-5.947-.78-11.567-.8-15.145-.08-11.384,1.536-19.681,3.8-25.713-.251.085-.5.173-.751.254-.178.06-.353.1-.531.157-2.152,6.084-3.655,14.282-3.579,25.309.024,3.612.4,9.249.805,15.214.062.941,1.036,13.317,1.1,14.264a9.111,9.111,0,0,1,1.048-.245c-.061-.891-1.026-13.21-1.086-14.095Z" transform="translate(-1339.047 -519.208)" fill="#efe4db"/>
          <path id="Path_1442" data-name="Path 1442" d="M1578.958,760.942a.532.532,0,0,1-.338-.174c-3.145-3.5-9.455-5.908-9.517-5.933a.555.555,0,0,1-.318-.705.53.53,0,0,1,.685-.327c.267.1,6.611,2.524,9.93,6.216a.56.56,0,0,1-.03.778.511.511,0,0,1-.411.146Z" transform="translate(-1338.119 -500.529)" fill="#325a75"/>
          <path id="Path_1443" data-name="Path 1443" d="M1580.241,758.888a.521.521,0,0,1-.386-.231c-1.921-2.849-10.788-9.319-10.879-9.384a.563.563,0,0,1-.127-.767.52.52,0,0,1,.741-.133c.371.27,9.112,6.649,11.139,9.655a.559.559,0,0,1-.132.764.509.509,0,0,1-.355.1Z" transform="translate(-1338.119 -502.466)" fill="#325a75"/>
          <path id="Path_1444" data-name="Path 1444" d="M1521.509,761.255a.486.486,0,0,1-.151-.023c-3.842-1.174-9.93-2.636-9.99-2.65a.556.556,0,0,1-.4-.662.535.535,0,0,1,.64-.41c.061.013,6.178,1.484,10.05,2.667a.552.552,0,0,1,.36.681.537.537,0,0,1-.51.4Z" transform="translate(-1355.944 -499.214)" fill="#38688d"/>
          <path id="Path_1445" data-name="Path 1445" d="M1511.489,757.582a.531.531,0,0,1-.489-.336.558.558,0,0,1,.281-.721c.413-.18,10.145-4.438,14.78-4.991a.55.55,0,0,1,.122,1.093c-4.484.534-14.386,4.866-14.484,4.91a.519.519,0,0,1-.208.045Z" transform="translate(-1355.944 -501.317)" fill="#38688d"/>
          <path id="Path_1446" data-name="Path 1446" d="M1642,732.676a.5.5,0,0,1-.194-.058.562.562,0,0,1-.229-.743c2.9-5.8,8.04-25.406,8.093-25.6a.532.532,0,0,1,.653-.387.556.556,0,0,1,.375.675c-.215.81-5.23,19.914-8.176,25.82a.528.528,0,0,1-.522.3Z" transform="translate(-1315.677 -517.417)" fill="#ad312a"/>
          <path id="Path_1447" data-name="Path 1447" d="M1640.816,734.045a.521.521,0,0,1-.319-.151.564.564,0,0,1-.012-.778c3.644-3.906,7.73-11.64,9.477-14.942.51-.968.722-1.367.831-1.517a.52.52,0,0,1,.741-.115.569.569,0,0,1,.116.768c-.076.107-.4.73-.755,1.392-1.766,3.341-5.9,11.166-9.644,15.18a.526.526,0,0,1-.435.164Z" transform="translate(-1316.041 -513.69)" fill="#ad312a"/>
          <path id="Path_1448" data-name="Path 1448" d="M1737.589,706.721l-12.456,10.417c-.015-2.893-.621-9.278-.314-10.78.368-1.743,3.033-2.524,3.375-3.849a47.034,47.034,0,0,1,4.6-11.8l4.794,16.014Z" transform="translate(-1290.011 -522.761)" fill="#cc966b"/>
          <path id="Path_1449" data-name="Path 1449" d="M1732.127,721l-.046,0a.543.543,0,0,1-.485-.592c.448-5.7-4.309-19.153-4.359-19.29a.554.554,0,0,1,.315-.7.525.525,0,0,1,.683.324c.2.563,4.889,13.815,4.421,19.76a.539.539,0,0,1-.53.506Z" transform="translate(-1289.248 -519.351)" fill="#c6ad9a"/>
          <path id="Path_1450" data-name="Path 1450" d="M1731.088,720.355a.536.536,0,0,1-.522-.45c-.265-1.5-3.632-7.316-4.908-9.434a.561.561,0,0,1,.17-.756.521.521,0,0,1,.733.175c.48.8,4.7,7.846,5.052,9.817a.551.551,0,0,1-.429.641.451.451,0,0,1-.1.008Z" transform="translate(-1289.75 -516.09)" fill="#c6ad9a"/>
          <path id="Path_1451" data-name="Path 1451" d="M1676.445,670.889s11.547-4.652,33.717-2.132l1.418,10.221-38.218,3.575,3.083-11.664Z" transform="translate(-1305.855 -530.763)" fill="#2d526b"/>
          <path id="Path_1452" data-name="Path 1452" d="M1708.011,693.489l-26.673,5.328-6.878-41.749,26.673-5.326,6.877,41.747Z" transform="translate(-1305.516 -536.498)" fill="#e8b78e"/>
          <path id="Path_1453" data-name="Path 1453" d="M1674.461,656.584l3.19,19.367c3.793-3.215,9.725-6.222,16.526-22.838l-19.716,3.47Z" transform="translate(-1305.516 -536.014)" fill="#c56450"/>
          <path id="Path_1454" data-name="Path 1454" d="M1690.953,613.275s-17.62-.576-20.6,21.488c-.729,5.381-.083,9.927-1.671,13.363-4.916,10.646-13.077,12.943-1.739,15.294a29.805,29.805,0,0,1,.8,6.238c.107,5.7.227,13.286,5.726,13.984,6.413.817,15.31-4.946,26.4-11.5a32.384,32.384,0,0,0,10.1-9.9c7.392-11.085,18.806-37.463-5.647-46.925-3.583-1.386-8.078-1.366-13.366-2.04Z" transform="translate(-1309.602 -550.06)" fill="#e8b78e"/>
          <path id="Path_1455" data-name="Path 1455" d="M1675.81,640.96c-.166,1.4-.965,2.443-1.79,2.336s-1.355-1.319-1.188-2.713.968-2.444,1.789-2.34,1.356,1.321,1.19,2.717Z" transform="translate(-1306.028 -541.26)" fill="#1a1b20"/>
          <path id="Path_1456" data-name="Path 1456" d="M1681.5,637.725a.965.965,0,0,0,.654-.172.821.821,0,0,0,.116-1.2c-1.2-1.773-5.328-4.738-9.573-2.824a.956.956,0,0,0-.537,1.187c.17.481.655.539,1.148.555a14.489,14.489,0,0,1,7.494,2.146,1.288,1.288,0,0,0,.7.308Z" transform="translate(-1306.242 -543.138)" fill="#84281a"/>
          <path id="Path_1457" data-name="Path 1457" d="M1673.628,655.441a.808.808,0,0,0,.4-1.051.762.762,0,0,0-1.015-.414,11.675,11.675,0,0,1-6.817.992c0,.12.008.24.012.364.008.411.016.832.025,1.259.067.011.131.022.2.031a13.234,13.234,0,0,0,7.2-1.181Z" transform="translate(-1308.065 -535.734)" fill="#b64c4f"/>
          <path id="Path_1458" data-name="Path 1458" d="M1690.641,646.523l-3.516-16.98s22.6-1.741,30.637,6.944a77.685,77.685,0,0,1-19.519,29.81s-2.842-13.517-7.6-19.774Z" transform="translate(-1301.609 -544.375)" fill="#43211a"/>
          <path id="Path_1459" data-name="Path 1459" d="M1680.428,624.134s2.536,16.992,22.272,19.553c15.995,2.075,20.126,14.031,20.126,14.031s29.552-34.6-35.278-48.378c0,0-3.123-6.031-11.44-1.455-8.644,4.755-17.722,21.839-15.044,26.467,2.334,4.039,9.091,7.669,9.091,7.669s.718-6,1.305-8.7c0,0,2.623-10.216,8.967-9.191Z" transform="translate(-1309.795 -552.564)" fill="#43211a"/>
          <path id="Path_1460" data-name="Path 1460" d="M1716.13,651.452a.268.268,0,0,1-.208-.154c-5.272-11.509-12.545-14.012-23.9-16.765-11.255-2.728-13.452-22.519-13.541-23.359a.274.274,0,0,1,.236-.3.267.267,0,0,1,.293.243c.022.2,2.244,20.244,13.133,22.884,11.507,2.789,18.88,5.33,24.255,17.062a.279.279,0,0,1-.127.365.236.236,0,0,1-.147.026Z" transform="translate(-1304.275 -550.908)" fill="#701d18"/>
          <path id="Path_1461" data-name="Path 1461" d="M1716.3,651.107a.27.27,0,0,1-.234-.279c.1-3.941-1.473-8.973-13.911-16.41-11.328-6.774-16.453-21.2-16.5-21.343a.279.279,0,0,1,.16-.353.266.266,0,0,1,.342.166c.05.142,5.109,14.382,16.266,21.054,10.087,6.032,14.326,11.086,14.177,16.9a.27.27,0,0,1-.272.268l-.026,0Z" transform="translate(-1302.068 -550.261)" fill="#701d18"/>
          <path id="Path_1462" data-name="Path 1462" d="M1690.9,640.842s1.633-3.488,6.3-2.461c4.509.992,1.524,12.9-2.727,14.388s-4.861-4.7-4.861-4.7l1.288-7.225Z" transform="translate(-1300.841 -541.275)" fill="#e8b78e"/>
          <path id="Path_1463" data-name="Path 1463" d="M1647.9,783.838c2.041-4.139,9.263-18.921,11.026-24.335,2.058-6.325,10.541-32.793,10.541-32.793l-25.522-2.543-10.529,32.31a251.251,251.251,0,0,0-11.991,27.36Z" transform="translate(-1321.874 -510.964)" fill="#e8b78e"/>
          <path id="Path_1464" data-name="Path 1464" d="M1662.388,685.64s-8.994,5.087-18.169,29.56-15.794,43.173-15.794,43.173,22.74,7.793,35.742,6.694c0,0,12.107-62.1-1.78-79.427Z" transform="translate(-1319.714 -524.547)" fill="#efe4db"/>
          <path id="Path_1465" data-name="Path 1465" d="M1674.966,677.48s4.522-1.192,6.295-4.949l23.718-1.834s4.273,3.711,7.981,4.812c0,0-16.453,34.713-34.048,32.587-13.658-1.651-3.946-30.616-3.946-30.616Z" transform="translate(-1306.393 -529.816)" fill="#e8b78e"/>
          <path id="Path_1466" data-name="Path 1466" d="M1740.705,803.442l16.135-109.317c-8.754-6.81-23.038-13.374-32.519-17.34l-.538-1.175c-3.623-4.16-6.384-7.048-6.384-7.048s-27.047,40.194-30.058,40.194c-4.634,0-3.659-38.062-3.659-38.062a87.452,87.452,0,0,0-7.2,7.883l-.265,1.215a198.04,198.04,0,0,0-20.446,11.87c-.254,6.207-5.277,100.523-5.878,111.782Z" transform="translate(-1313.094 -530.568)" fill="#efe4db"/>
          <path id="Path_1467" data-name="Path 1467" d="M1653.746,699.44c-.777,15.231-1.914,37.24-2.9,56.215a10.183,10.183,0,0,1,1.228.318c1.01-19.05,2.181-41.212,2.979-56.53-.437,0-.874,0-1.311,0Z" transform="translate(-1312.798 -519.682)" fill="#38688d"/>
          <path id="Path_1468" data-name="Path 1468" d="M1679.453,708.173a.534.534,0,0,1-.5-.36.554.554,0,0,1,.314-.706l15.057-5.75-3.491-7.52,11.77,4.22,11.757-22.866a.522.522,0,0,1,.719-.227.556.556,0,0,1,.219.742l-12.184,23.7-10.217-3.664,2.892,6.229-16.154,6.168a.494.494,0,0,1-.184.035Z" transform="translate(-1304.141 -528.334)" fill="#38688d"/>
          <path id="Path_1469" data-name="Path 1469" d="M1680.442,707.265a.528.528,0,0,1-.4-.192l-7.7-9.184,2.727-4.02-7.126.518,2.218-16.437a.535.535,0,0,1,.6-.471.55.55,0,0,1,.453.621l-2.037,15.093,8.045-.583-3.532,5.208,7.152,8.537a.563.563,0,0,1-.054.775.518.518,0,0,1-.349.135Z" transform="translate(-1307.526 -527.426)" fill="#38688d"/>
          <path id="Path_1470" data-name="Path 1470" d="M1689.576,737.941l12.578,4.34,12.931-2.815,1.03-29.273-25.751-1.234-.788,28.981Zm12.546,5.457a.473.473,0,0,1-.168-.027l-13.088-4.515a.551.551,0,0,1-.365-.538l.814-29.949a.571.571,0,0,1,.171-.388.515.515,0,0,1,.387-.145l26.819,1.282a.545.545,0,0,1,.506.57l-1.065,30.247a.548.548,0,0,1-.422.52l-13.476,2.932a.445.445,0,0,1-.112.011Z" transform="translate(-1301.186 -516.722)" fill="#38688d"/>
          <path id="Path_1471" data-name="Path 1471" d="M1673.49,791.95a.424.424,0,0,1-.075-.005.547.547,0,0,1-.454-.619c.034-.256,3.422-25.607,3.542-37.88.132-13.469,2.374-52.16,2.4-52.549a.532.532,0,1,1,1.061.068c-.022.388-2.26,39.052-2.393,52.492-.12,12.344-3.517,37.765-3.551,38.019a.539.539,0,0,1-.526.474Z" transform="translate(-1305.98 -519.351)" fill="#38688d"/>
          <path id="Path_1472" data-name="Path 1472" d="M1721.893,782.22h25.157c.508-3.882,1.74-13.712,1.97-19.431.192-4.78-1.672-34.03-1.672-34.03l-26.942,1.856,2.174,34.74-.688,16.865Z" transform="translate(-1291.345 -509.346)" fill="#e8b78e"/>
          <path id="Path_1473" data-name="Path 1473" d="M1735.951,687.36s10.334,7.528,12,18.894,5.559,55,5.559,55-18.336,6.05-34.931,4.214c0,0-1.154-41.246-.9-47.479s2.9-27.707,18.275-30.627Z" transform="translate(-1292.198 -523.941)" fill="#efe4db"/>
          <path id="Path_1474" data-name="Path 1474" d="M1722.462,758.873c-1.108-.05-2.193-.126-3.24-.233-.126-4.551-1.124-41.193-.89-46.979a54.463,54.463,0,0,1,.7-6.356c-.357.011-.716.023-1.074.026a54.957,54.957,0,0,0-.688,6.33c-.251,6.18.89,47.106.9,47.52l.012.458.442.047c1.229.137,2.51.229,3.822.285-.013-.274-.019-.55-.008-.833,0-.089.018-.176.023-.266Z" transform="translate(-1292.324 -517.615)" fill="#38688d"/>
        </g>
      </g>
    </g>
    <g id="Group_16959" data-name="Group 16959" transform="translate(-167 -173)">
      <rect id="Rectangle_3734" data-name="Rectangle 3734" width="29" height="46" rx="14.5" transform="translate(259 306)" fill="#e06262"/>
      <g id="Group_2550" data-name="Group 2550" transform="translate(267.625 316.063)">
        <circle id="Ellipse_39" data-name="Ellipse 39" cx="3" cy="3" r="3" transform="translate(3.375 -0.063)" fill="none" stroke="#fff" stroke-linecap="round" stroke-linejoin="round" stroke-width="1.5"/>
        <path id="Path_1414" data-name="Path 1414" d="M16.053,27.789V21.684H13l3.053-9.158A1.526,1.526,0,0,1,17.579,11h3.053a1.526,1.526,0,0,1,1.526,1.526l3.053,9.158H22.158v6.105" transform="translate(-13 -1.312)" fill="none" stroke="#fff" stroke-linecap="round" stroke-linejoin="round" stroke-width="1.5"/>
      </g>
    </g>
  </g>
</svg>
