<svg xmlns="http://www.w3.org/2000/svg" xmlns:xlink="http://www.w3.org/1999/xlink" width="29" height="33" viewBox="0 0 29 33">
  <defs>
    <clipPath id="clip-image_success">
      <rect width="29" height="33"/>
    </clipPath>
  </defs>
  <g id="image_success" clip-path="url(#clip-image_success)">
    <g id="Group_17039" data-name="Group 17039">
      <path id="Path" d="M0,0A7.08,7.08,0,0,1,7.078,7.072l0,3.856A7.08,7.08,0,0,1,0,3.856L0,0Z" transform="translate(21.897 6.899) rotate(67.6)" fill="#8dc059"/>
      <path id="Path-2" data-name="Path" d="M0,0A7.08,7.08,0,0,1,7.072,7.071l0,3.859A7.08,7.08,0,0,1,0,3.852L0,0Z" transform="translate(12.808 0) rotate(22.4)" fill="#74b570"/>
      <path id="Path-3" data-name="Path" d="M7.08,0l0,3.856A7.08,7.08,0,0,1,0,10.927L0,7.072A7.08,7.08,0,0,1,7.08,0Z" transform="translate(17.205 11.061) rotate(112.4)" fill="#9cd499"/>
      <path id="Path-4" data-name="Path" d="M25.3,3.118a12.661,12.661,0,0,1-25.3,0,12.5,12.5,0,0,1,.084-1.46A12.9,12.9,0,0,1,.387,0H24.918a12.9,12.9,0,0,1,.3,1.658,12.5,12.5,0,0,1,.084,1.46Z" transform="translate(1.555 17.835)" fill="#f3d592"/>
      <g id="Group" transform="translate(0 14.519)">
        <rect id="Rectangle" width="29" height="3.315" rx="1.658" transform="translate(0 0)" fill="#d97c3f"/>
        <path id="Path-5" data-name="Path" d="M25.136,1.658H0A12.9,12.9,0,0,1,.3,0H24.833a12.906,12.906,0,0,1,.3,1.658Z" transform="translate(1.639 3.315)" fill="#feb000"/>
      </g>
    </g>
  </g>
</svg>
