<svg xmlns="http://www.w3.org/2000/svg" xmlns:xlink="http://www.w3.org/1999/xlink" width="644" height="389" viewBox="0 0 644 389">
  <defs>
    <clipPath id="clip-image_calm">
      <rect width="644" height="389"/>
    </clipPath>
  </defs>
  <g id="image_calm" clip-path="url(#clip-image_calm)">
    <g id="Group_17067" data-name="Group 17067" transform="translate(-139 -304)">
      <path id="Rectangle_6461" data-name="Rectangle 6461" d="M20,0H554a90,90,0,0,1,90,90V299a90,90,0,0,1-90,90H20A20,20,0,0,1,0,369V20A20,20,0,0,1,20,0Z" transform="translate(139 299)" fill="#faf8f7"/>
      <path id="Rectangle_6462" data-name="Rectangle 6462" d="M0,0H644a0,0,0,0,1,0,0V0a75,75,0,0,1-75,75H16.667A16.667,16.667,0,0,1,0,58.333V0A0,0,0,0,1,0,0Z" transform="translate(139 613)" fill="#d6bfb6"/>
      <g id="Group_16491" data-name="Group 16491" transform="translate(239.396 364.12)">
        <path id="Path_11361" data-name="Path 11361" d="M2493.586,801.1l-1.34,207.037h391.109L2879.883,801.1c-2.044.167.133.049-2.842,0-28.813.044-53.053,27.33-84.654,15.32-61.538-23.389-127.363-16.744-190.37-1.682-37.465,8.946-69.142-13.639-105.647-13.639C2496.206,801.28,2495.987,801.1,2493.586,801.1Z" transform="translate(-2465.834 -866.105)" fill="#e6d6cf"/>
        <path id="Path_11362" data-name="Path 11362" d="M2498.035,801.114l-.449,203.305h383.55l-2.575-203.305H2762.905c-.258-.063-96.177,0-146.19,0C2616.456,801.175,2507.567,801.114,2498.035,801.114Z" transform="translate(-2467.396 -866.104)" fill="#fff"/>
        <path id="Path_11363" data-name="Path 11363" d="M2615.544,930.39V849.807H2495.077c.5-.355,1.008-.7,1.507-1.04h118.96v-45.8c.258-.052.524-.1.781-.165v45.966h144.24V802.623c.258.062.523.115.781.177v45.966H2878.9c.445.342.882.685,1.32,1.04H2761.347V930.39h121.485v1.04H2761.347v74.614h-.781V931.43h-144.24v74.614h-.781V931.43h-122.11v-1.04Zm.781,0h144.24V849.807h-144.24Z" transform="translate(-2466.153 -867.743)" fill="#e6d6cf"/>
        <g id="Group_16450" data-name="Group 16450" transform="translate(-37.183 247.29)">
          <g id="Group_16438" data-name="Group 16438">
            <path id="Path_11365" data-name="Path 11365" d="M2999.276,1153.464v76.245c.233.059.468.118.708.17v-76.415Z" transform="translate(-2999.276 -1153.464)" fill="#faf8f7"/>
          </g>
          <g id="Group_16439" data-name="Group 16439" transform="translate(60.749)">
            <path id="Path_11366" data-name="Path 11366" d="M2961.246,1153.464v76.318c.235.034.468.062.708.1v-76.415Z" transform="translate(-2961.246 -1153.464)" fill="#faf8f7"/>
          </g>
          <g id="Group_16440" data-name="Group 16440" transform="translate(98.94)">
            <path id="Path_11367" data-name="Path 11367" d="M2923.216,1153.464v76.375l.708.04v-76.415Z" transform="translate(-2923.216 -1153.464)" fill="#faf8f7"/>
          </g>
          <g id="Group_16441" data-name="Group 16441" transform="translate(137.138)">
            <path id="Path_11368" data-name="Path 11368" d="M2885.185,1153.464v76.405c.238.007.483.007.721.013v-76.418Z" transform="translate(-2885.185 -1153.464)" fill="#faf8f7"/>
          </g>
          <g id="Group_16442" data-name="Group 16442" transform="translate(175.341 0)">
            <rect id="Rectangle_6450" data-name="Rectangle 6450" width="0.708" height="76.418" fill="#faf8f7"/>
          </g>
          <g id="Group_16443" data-name="Group 16443" transform="translate(319.323)">
            <path id="Path_11369" data-name="Path 11369" d="M2657,1153.464v76.577c.233.006.474.006.708.006v-76.584Z" transform="translate(-2657.005 -1153.464)" fill="#faf8f7"/>
          </g>
          <g id="Group_16444" data-name="Group 16444" transform="translate(357.519)">
            <path id="Path_11370" data-name="Path 11370" d="M2618.976,1153.464v76.307c.234,0,.475-.007.708-.013v-76.294Z" transform="translate(-2618.976 -1153.464)" fill="#faf8f7"/>
          </g>
          <g id="Group_16445" data-name="Group 16445" transform="translate(395.715)">
            <path id="Path_11371" data-name="Path 11371" d="M2580.946,1153.464v75.507c.235-.013.475-.025.708-.032v-75.475Z" transform="translate(-2580.946 -1153.464)" fill="#faf8f7"/>
          </g>
          <g id="Group_16446" data-name="Group 16446" transform="translate(433.912)">
            <path id="Path_11372" data-name="Path 11372" d="M2542.915,1153.464v76.545c.233-.007.474-.027.708-.04v-76.505Z" transform="translate(-2542.915 -1153.464)" fill="#faf8f7"/>
          </g>
          <g id="Group_16447" data-name="Group 16447" transform="translate(472.104)">
            <path id="Path_11373" data-name="Path 11373" d="M2504.885,1153.464v76.545c.233-.028.467-.062.708-.1v-76.449Z" transform="translate(-2504.885 -1153.464)" fill="#faf8f7"/>
          </g>
          <g id="Group_16448" data-name="Group 16448" transform="translate(510.295)">
            <path id="Path_11374" data-name="Path 11374" d="M2466.855,1153.464V1229.9c.241-.074.475-.148.708-.223v-76.218Z" transform="translate(-2466.855 -1153.464)" fill="#faf8f7"/>
          </g>
          <g id="Group_16449" data-name="Group 16449" transform="translate(548.49)">
            <path id="Path_11375" data-name="Path 11375" d="M2428.836,1153.464V1229.9c.241-.217.475-.442.708-.676v-75.765Z" transform="translate(-2428.836 -1153.464)" fill="#faf8f7"/>
          </g>
        </g>
        <g id="Group_16489" data-name="Group 16489" transform="translate(-4.179 39.21)">
          <g id="Group_16451" data-name="Group 16451" transform="translate(44.575 140.031)">
            <path id="Path_11376" data-name="Path 11376" d="M2961.749,1061.48s1.1,28.329,1.824,29.866,6.623,2.712,10.824,2.341c6-.529,8.366-1.969,9.131-2.931s2.023-29.028,2.023-29.028Z" transform="translate(-2961.749 -1061.48)" fill="#595959"/>
          </g>
          <g id="Group_16452" data-name="Group 16452" transform="translate(58.403 146.321)">
            <path id="Path_11377" data-name="Path 11377" d="M2953.242,1080.1c.779-5.9,4.961-10.242,9.322-9.669.078.007.155.022.234.036,4.239.729,7.042,5.91,6.278,11.715a13.031,13.031,0,0,1-3.142,7.106,7.583,7.583,0,0,1-4.559,2.555,6.251,6.251,0,0,1-.814.057,6.177,6.177,0,0,1-.807-.05C2955.387,1091.278,2952.471,1086.005,2953.242,1080.1Zm6.858,9.1a3.519,3.519,0,0,0,1.55-.149,5.394,5.394,0,0,0,2.315-1.571,10.326,10.326,0,0,0,2.462-5.649c.546-4.148-1.153-7.956-3.765-8.671-.148-.035-.3-.063-.447-.085a2.893,2.893,0,0,0-.431-.035c-2.711,0-5.351,3.257-5.9,7.4C2955.315,1084.816,2957.242,1088.829,2960.1,1089.2Z" transform="translate(-2953.119 -1070.382)" fill="#595959"/>
          </g>
          <path id="Path_11378" data-name="Path 11378" d="M2663.519,1069.159c2.762,6.134,121.967,5.9,125.959,0s1.367-107.9,1.773-129.767-126.822-18.1-127.19-3.242S2660.758,1063.024,2663.519,1069.159Z" transform="translate(-2490.427 -879.242)" fill="#de754e"/>
          <g id="Group_16453" data-name="Group 16453" transform="translate(177.173 49.966)">
            <path id="Path_11379" data-name="Path 11379" d="M2787.88,940.511a.354.354,0,0,0,.172-.663,90.587,90.587,0,0,0-29.5-8.9c-17.812-2.276-46.367-1.737-62.608.068a109.1,109.1,0,0,0-27.349,6.4.354.354,0,0,0,.275.653,108.3,108.3,0,0,1,27.153-6.347c16.2-1.8,44.679-2.339,62.439-.069a89.8,89.8,0,0,1,29.247,8.816A.351.351,0,0,0,2787.88,940.511Z" transform="translate(-2668.377 -929.443)" fill="#4a4747"/>
          </g>
          <g id="Group_16454" data-name="Group 16454" transform="translate(169.741 200.097)">
            <rect id="Rectangle_6451" data-name="Rectangle 6451" width="4.247" height="41.289" fill="#4a4747"/>
          </g>
          <ellipse id="Ellipse_47" data-name="Ellipse 47" cx="13.183" cy="6.813" rx="13.183" ry="6.813" transform="translate(158.682 194.306)" fill="#de754e"/>
          <g id="Group_16455" data-name="Group 16455" transform="translate(160.451 200.778)">
            <path id="Path_11380" data-name="Path 11380" d="M2841.512,1153.412a31.373,31.373,0,0,0,10.433-1.794.354.354,0,0,0-.263-.658,30.706,30.706,0,0,1-11.966,1.686c-6.48-.426-9.119-3.136-9.145-3.163a.354.354,0,0,0-.517.485c.113.12,2.828,2.938,9.614,3.385C2840.295,1153.393,2840.911,1153.412,2841.512,1153.412Z" transform="translate(-2829.96 -1149.371)" fill="#4a4747"/>
          </g>
          <g id="Group_16456" data-name="Group 16456" transform="translate(296.185 200.097)">
            <rect id="Rectangle_6452" data-name="Rectangle 6452" width="4.247" height="41.289" fill="#4a4747"/>
          </g>
          <ellipse id="Ellipse_48" data-name="Ellipse 48" cx="13.183" cy="6.813" rx="13.183" ry="6.813" transform="translate(285.125 194.306)" fill="#de754e"/>
          <g id="Group_16457" data-name="Group 16457" transform="translate(287.593 200.778)">
            <path id="Path_11381" data-name="Path 11381" d="M2660.992,1153.412c.6,0,1.216-.019,1.843-.06,6.785-.447,9.5-3.265,9.613-3.385a.354.354,0,0,0-.516-.485c-.026.027-2.664,2.737-9.144,3.163a30.773,30.773,0,0,1-11.967-1.686.354.354,0,0,0-.263.658A31.378,31.378,0,0,0,2660.992,1153.412Z" transform="translate(-2650.335 -1149.371)" fill="#4a4747"/>
          </g>
          <path id="Path_11382" data-name="Path 11382" d="M2659.806,1224.823H2790.4c5.721,0,10.358-4.225,10.358-9.437h0c0-5.212-4.637-16.305-10.358-16.305H2659.806c-5.72,0-10.358,11.093-10.358,16.305h0C2649.448,1220.6,2654.086,1224.823,2659.806,1224.823Z" transform="translate(-2490.324 -965.716)" fill="#de754e"/>
          <g id="Group_16458" data-name="Group 16458" transform="translate(163.253 249.761)">
            <path id="Path_11383" data-name="Path 11383" d="M2724.328,1227.191c52.8,0,73.256-4.2,73.456-4.246a.354.354,0,1,0-.146-.692c-.2.042-20.606,4.23-73.31,4.23h-.181c-52.811-.01-69.167-4.184-69.325-4.226a.354.354,0,1,0-.182.684c.159.042,16.565,4.24,69.507,4.25Z" transform="translate(-2654.377 -1222.246)" fill="#4a4747"/>
          </g>
          <path id="Path_11384" data-name="Path 11384" d="M2775.618,1124.465s16.9,23.162,15.338,41.043-12.538,28.851-58.63,26.728c-37.744-1.738-53.356-1.062-59.019-15.572s15.721-52.317,15.721-52.317l63.137-3.6Z" transform="translate(-2496.842 -942.828)" fill="#fad3b1"/>
          <path id="Path_11385" data-name="Path 11385" d="M2610.906,989.5l14.157,2.654s-.354,20.7,0,23.181-22.827,0-22.827,0Z" transform="translate(-2281.221 -897.347)" fill="#febfaa"/>
          <path id="Path_11386" data-name="Path 11386" d="M2578.736,982.634c0-4.15,3.313-13.785,6.412-24.166,4.094-13.716,9.375-31.5,9.375-31.5l10.617,2.131s-3.185,62.124-8.14,66.194S2573.992,998,2573.992,998Z" transform="translate(-2241.3 -879.132)" fill="#febfaa"/>
          <path id="Path_11387" data-name="Path 11387" d="M2557.622,900.578c.573-1.352,2.314-3.341,4.041-3.22.007-.743.822-1.494,1.246-2a15.123,15.123,0,0,1,5.395-4.594c1.755-.737,3.616-.368,4.02,1.719a14.28,14.28,0,0,1-.261,4.211c-.008.072-.021.149-.029.227.184.036.375.064.559.1a50.25,50.25,0,0,0,2.038-8.026c.22-1.324.093-5.649,1.983-6.046,1.111-.241,1.662,1.869,1.691,2.719a23.123,23.123,0,0,1-.488,3.807,60.691,60.691,0,0,1-1.868,8.289c.1.028.191.064.283.092a52.735,52.735,0,0,0,2.845-8.005c.333-1.189.7-3.228,2.124-3.624.892-.254,1.112.092,1.254.934.261,1.508-.432,3.433-.892,4.863-.73,2.293-1.593,4.544-2.47,6.8l2.683-5.188c.459-.893,1.294-3.044,2.668-2.166a1.367,1.367,0,0,1,.112.084c.645.545.468,1.713.326,2.421-.4,2.038-1.557,3.836-2.442,5.684-1.281,2.7-9.237,17.3-9.237,17.3a.14.14,0,0,0-.035.006,19.032,19.032,0,0,1-5.811.687c-1.608-.17-3.936-.277-5.2-1.409a1.555,1.555,0,0,1-.234-.284C2560.489,913.978,2556.1,904.152,2557.622,900.578Zm6.293,3.979a38.469,38.469,0,0,0,4.034-8.58c.127-.467.594-1.593.792-2.47-.679.595-1.032,1.437-1.648,2.088a8.082,8.082,0,0,1-1.536,1.189,13.109,13.109,0,0,1-3.5,1.55c-.006.05,0,.085-.006.135a13.839,13.839,0,0,1-1.785,3.921A39.259,39.259,0,0,1,2563.915,904.557Z" transform="translate(-2209.366 -864.222)" fill="#febfaa"/>
          <path id="Path_11388" data-name="Path 11388" d="M2892.871,989.5l-14.156,2.654s.354,20.7,0,23.181,22.827,0,22.827,0Z" transform="translate(-2753.389 -897.347)" fill="#febfaa"/>
          <path id="Path_11389" data-name="Path 11389" d="M2723.393,885.354c.292-1.985,1.147-3.343.935-5.465a23.636,23.636,0,0,1-.38-4.757,14.573,14.573,0,0,1,2.63-6.734,5.444,5.444,0,0,1,1.855-4.05,8.275,8.275,0,0,1,2.344-1.109c1.651-.74,1.541-1.648,2.673-2.668,2.009-1.8,4.565-1.43,6.932-1.744,1.4-.185,2.673-1.029,4.039-1.462a18.864,18.864,0,0,1,3.754-.755,18.631,18.631,0,0,1,15.667,5.914,21.38,21.38,0,0,1,3.746,5.343,8.328,8.328,0,0,1,.752,2.877,7.33,7.33,0,0,0,.592,3.142c.278.474.657.868.964,1.318a10.535,10.535,0,0,1,1.812,5.8,13.908,13.908,0,0,1-.431,3.158,12.444,12.444,0,0,0,.249,5.167,5.961,5.961,0,0,1-.986,4.9l-.021.024a.409.409,0,0,1-.051.3c-.153.265-.314.522-.49.779a27.135,27.135,0,0,1-2.636,3.528,11.325,11.325,0,0,0-1.11,3.15c-.11.563-.9.321-.789-.241.081-.418.182-.827.3-1.237-.073.072-.146.136-.219.2a23.091,23.091,0,0,1-2.141,1.785,24.531,24.531,0,0,1-6.843,3.64,25.924,25.924,0,0,1-12.534,1.06c-1.424-.225-2.9-.506-4.382-.876a29.684,29.684,0,0,1-7.815-3.005,17.824,17.824,0,0,1-2.315-1.535,16.487,16.487,0,0,1-1.526-1.326,6.844,6.844,0,0,1-2.192-5.585,7.6,7.6,0,0,0-.147-1.639,7.855,7.855,0,0,0-.92-2.267,11.926,11.926,0,0,1-.9-1.929A7.883,7.883,0,0,1,2723.393,885.354Z" transform="translate(-2513.57 -856.5)" fill="#a3684e"/>
          <path id="Path_11390" data-name="Path 11390" d="M2717.582,945.216c.255-1.125,1.049-2.152,1.394-3.277a3.2,3.2,0,0,1,.928-1.62c1.331-1.4,1.04-2.839,1.2-4.616a8.289,8.289,0,0,1,1.2-3.433,14.331,14.331,0,0,0,1.465-3.164c.07-.248.155-.559.261-.913.142-.5.306-1.062.489-1.642.02-.077.042-.149.064-.227.205-.644.411-1.281.608-1.833.057-.177.121-.34.177-.488.071-.191.142-.368.206-.518.169-.4.361-.517.58-.551a1.571,1.571,0,0,1,.376-.007,1.205,1.205,0,0,0,1.054-.376.348.348,0,0,1,.5-.014.364.364,0,0,1,.05.545l-.007.007c-.086.085-.156.17-.234.248.014,0,.021-.007.035,0a2.062,2.062,0,0,1,.206.013,18.873,18.873,0,0,1,2.838.333,17.364,17.364,0,0,1,3.539,1.075,23.62,23.62,0,0,0,3.624,1.614,28.725,28.725,0,0,0,5,.481c4.778.262,9.152-1.607,13.5-3.419.481-.2.962-.4,1.437-.587.163-.071.326-.134.488-.2-.148-.1-.289-.2-.432-.29-.014-.014-.035-.021-.049-.035a.4.4,0,0,1,.149-.715V921.6a.341.341,0,0,1,.233.064c.417.283.856.58,1.281.9.07.05.148.106.219.163.248.191.5.39.737.6.106.091.205.184.311.275.128.127.262.255.39.39a6.155,6.155,0,0,1,1.677,2.944,6.373,6.373,0,0,1,.114.97c.042.842-.043,1.7-.029,2.541a5.444,5.444,0,0,0,2.146,4.459c1.8,1.578,2.7,2.528,2.944,4.927.177,1.791,1.4,2.329,2.152,3.737a6.068,6.068,0,0,1,.637,3.073.956.956,0,0,1-.19.509c-.34.432-1.048.3-1.642.262-1.168-.078-1.542-.149-2.067.92a.2.2,0,0,0-.029.049,1.393,1.393,0,0,1-1.416.672,24.346,24.346,0,0,1-2.711-.934,6.417,6.417,0,0,0-4.162.729,2.767,2.767,0,0,0-.368.241c-1,.772-1.273,2.018-2.655,2.166-.106.014-.211.021-.318.029-2.838.275-5.846-.015-8.7-.029-2.938-.006-5.954.184-8.876-.106-2.683-.261-4.856-1.939-7.553-1.947h-.213c-.764.021-1.542.127-2.321.156a7.071,7.071,0,0,1-1.544-.063c-1.422-.227-2.462-1.232-3.935-1.275-.417-.014-.877.007-1.331.007a3.714,3.714,0,0,1-2.916-.885,1.973,1.973,0,0,1-.184-.226A2.009,2.009,0,0,1,2717.582,945.216Z" transform="translate(-2508.794 -877.113)" fill="#a3684e"/>
          <path id="Path_11391" data-name="Path 11391" d="M2761.845,931.865s-.126,9.115,1.012,13.166a90.792,90.792,0,0,0,4.431,10.888l-18.173,51.3-16.895-50.288s3.8-8.735,4.558-13.546a150.459,150.459,0,0,0,.886-15.065Z" transform="translate(-2515.448 -879.641)" fill="#ffbfaa"/>
          <g id="Group_16459" data-name="Group 16459" transform="translate(221.481 77.452)">
            <path id="Path_11392" data-name="Path 11392" d="M2748.146,980.341c7.293,0,15.04-9.909,15.376-10.343l-.56-.432c-.082.106-8.346,10.627-15.413,10.043-7.128-.6-11.5-6.438-11.539-6.5l-.57.419c.185.251,4.6,6.153,12.049,6.783C2747.707,980.332,2747.927,980.341,2748.146,980.341Z" transform="translate(-2735.44 -969.566)" fill="#fff"/>
          </g>
          <g id="Group_16460" data-name="Group 16460" transform="translate(220.839 78.686)">
            <path id="Path_11393" data-name="Path 11393" d="M2750.723,989.726a1.233,1.233,0,0,0,.653-.179c2.949-1.79,13.047-17.037,13.476-17.686l-.591-.389c-.1.156-10.438,15.762-13.253,17.47-.236.143-.6.081-1.079-.183-3.784-2.087-11.432-14.691-11.454-15.954a.222.222,0,0,1-.03.1l-.616-.348c-.57,1.009,6.057,11.62,9.991,15.433C2749.02,989.15,2749.978,989.726,2750.723,989.726Z" transform="translate(-2737.794 -971.471)" fill="#fff"/>
          </g>
          <path id="Path_11394" data-name="Path 11394" d="M2764.307,937.149s-.418,3.174-2.191,4.63-9.7,6.014-12.73,4.495a71.16,71.16,0,0,1-6.234-3.545c-1.228-.759-3.294-5.6-3.294-5.6s2.32-4.15,3.966-3.9,11.647,2.533,16.014,2.785S2764.307,937.149,2764.307,937.149Z" transform="translate(-2517.871 -880.682)" fill="#f2835e"/>
          <path id="Path_11395" data-name="Path 11395" d="M2767,883.676a8.818,8.818,0,0,1,.284,1.612c.573,7.073-.52,13.009-1.9,19.939-1.206,6.062-1.772,10.761-6.077,15.192-3.587,3.693-8.134,6.331-13.356,5.444-5.134-.872-9.5-4.713-11.853-9.122-3.517-6.585-3.642-12.816-4.081-20.167-.332-5.561-.909-13.229,2.527-18.037,4.474-6.261,16.565-6.777,23.335-5.007C2760.875,874.835,2765.573,878.425,2767,883.676Z" transform="translate(-2513.863 -861.218)" fill="#ffbfaa"/>
          <path id="Path_11396" data-name="Path 11396" d="M2770.262,909.832a1.949,1.949,0,0,0,.975-.641.612.612,0,0,0,.148-.477c-.068-.316-.486-.283-.807-.238a14.739,14.739,0,0,1-1.633.367,16.212,16.212,0,0,1-1.689-.331c-.384-.03-.833.214-.505.6a2.876,2.876,0,0,0,.993.648,2.2,2.2,0,0,0,.446.168,4.177,4.177,0,0,0,1.757-.007C2770.052,909.894,2770.158,909.866,2770.262,909.832Z" transform="translate(-2543.914 -871.678)" fill="#252730"/>
          <path id="Path_11397" data-name="Path 11397" d="M2742.484,910.106a1.953,1.953,0,0,1-.976-.642.609.609,0,0,1-.148-.476c.069-.317.486-.283.808-.239a14.738,14.738,0,0,0,1.632.367,16.675,16.675,0,0,0,1.689-.331c.384-.03.833.214.505.6a2.875,2.875,0,0,1-.993.648,2.184,2.184,0,0,1-.445.169,4.185,4.185,0,0,1-1.757-.007A3.222,3.222,0,0,1,2742.484,910.106Z" transform="translate(-2500.729 -871.758)" fill="#252730"/>
          <path id="Path_11398" data-name="Path 11398" d="M2761.34,929.1a26.356,26.356,0,0,1-11.729-.282s1.087,3.04,5.393,3.308A7.1,7.1,0,0,0,2761.34,929.1Z" transform="translate(-2521.807 -877.629)" fill="#d37d60"/>
          <g id="Group_16461" data-name="Group 16461" transform="translate(231.162 37.2)">
            <path id="Path_11399" data-name="Path 11399" d="M2759.637,920.144a.354.354,0,0,0,.112-.69c-.944-.315-2.47-1.08-2.544-1.79-.1-.939,1.012-6.222,1.449-8.177a.354.354,0,1,0-.691-.155c-.163.732-1.592,7.182-1.462,8.407.146,1.389,2.73,2.29,3.025,2.387A.344.344,0,0,0,2759.637,920.144Z" transform="translate(-2756.492 -909.056)" fill="#d37d60"/>
          </g>
          <path id="Path_11400" data-name="Path 11400" d="M2738.409,900.745a2.628,2.628,0,0,1,.835-.549,8.079,8.079,0,0,1,5.367-.038c.518.154,3.98,1.326,2.4,2.2a3.805,3.805,0,0,1-2.552.052,11.185,11.185,0,0,0-3.193-.254,5.545,5.545,0,0,1-2.45-.071C2737.907,901.715,2737.988,901.178,2738.409,900.745Z" transform="translate(-2499.744 -869.127)" fill="#a3684e"/>
          <path id="Path_11401" data-name="Path 11401" d="M2773.542,900.745a2.624,2.624,0,0,0-.834-.549,8.077,8.077,0,0,0-5.366-.038c-.519.154-3.981,1.326-2.4,2.2a3.8,3.8,0,0,0,2.551.052,11.183,11.183,0,0,1,3.193-.254,5.543,5.543,0,0,0,2.45-.071C2774.044,901.715,2773.964,901.178,2773.542,900.745Z" transform="translate(-2544.875 -869.127)" fill="#a3684e"/>
          <path id="Path_11402" data-name="Path 11402" d="M2783.028,906.919s-2.849-2.025-4.368.57.612,7.358,2.469,9.179,3.481,2.468,3.8,2.278S2783.028,906.919,2783.028,906.919Z" transform="translate(-2565.622 -871.012)" fill="#ffbfaa"/>
          <path id="Path_11403" data-name="Path 11403" d="M2728.2,906.919s2.849-2.025,4.368.57-.612,7.358-2.469,9.179-3.482,2.468-3.8,2.278S2728.2,906.919,2728.2,906.919Z" transform="translate(-2477.039 -871.012)" fill="#ffbfaa"/>
          <path id="Path_11404" data-name="Path 11404" d="M2729.806,879.284a14.6,14.6,0,0,1,13.59-8.43,51.967,51.967,0,0,1,10.914,1.2,17.239,17.239,0,0,1,7.956,3.532c2.307,2.017,3.157,4.671,3.823,7.574a34.317,34.317,0,0,1,1.168,10.716.5.5,0,0,1,.106-.056c.438-.2.829.459.383.658a3.622,3.622,0,0,0-1.422,1.372,3.839,3.839,0,0,1-.595.7,1.776,1.776,0,0,1-.447.3,1.122,1.122,0,0,1-1.352-.276c-.014-.014-.036-.028-.05-.042-1.564-1.451-.871-4.558-.609-6.363.524-3.56.382-7.92-3.3-9.612-2.179-1-3.751-2.8-5.69-4.112a12.65,12.65,0,0,0-5.719-.2,12.512,12.512,0,0,1-3.873.332,11.79,11.79,0,0,0-4.877.206c-2.187.643-6.017,1.641-6.8,4.027-.3.921-.41,1.932-.728,2.874-.382,1.1-.794,2.2-1.211,3.3-.114,1.571-.226,3.15-.34,4.721-.114,1.458.17,3.653-.538,5.082a2.817,2.817,0,0,1-.375.567.39.39,0,0,1-.6-.079c-.1-.2-.192-.4-.283-.6-.114-.247-.212-.5-.312-.75C2726.621,890.694,2727.384,884.218,2729.806,879.284Z" transform="translate(-2512.743 -860.694)" fill="#a3684e"/>
          <path id="Path_11405" data-name="Path 11405" d="M2741.229,954.163s-2.9,16.811-5.735,25.54c-1.731,5.335-2.15,12.033-3.642,16.988a76.515,76.515,0,0,1-4.3,10.5s-6.565-19.666-8.459-28.549c-2.129-9.983-5.2-24.479-5.2-24.479s-39.034,8.435-40.45,10.086,2.359,37.279,1.887,46.244-.265,16.259,3.038,25.932,1.274,20.609,1.037,27.451,6.248,14.629,6.248,14.629l87.684-.92s7.051-16.963,5.956-28.1c-.975-9.912.079-16.226,2.9-26.642,3.3-12.186,5.985-50.519,4.267-55.29-2.124-5.9-21.646-7.264-25.481-9.2S2741.229,954.163,2741.229,954.163Z" transform="translate(-2493.318 -888.753)" fill="#4a4747"/>
          <path id="Path_11406" data-name="Path 11406" d="M2861.12,961.548s-12.5.317-19.048,3.148-6.017,5.486-13.449,6.193-9.024,5.309-13.979,6.016-12.918,2.478-13.625,3.716,5.309,35.391,6.371,36.453,7.609-2.124,11.148-1.062,2.655,2.831,9.025,2.212,6.547.03,12.741,2.448,8.317,5.957,16.1,3.3,10.441-6.194,10.441-7.255S2861.12,961.548,2861.12,961.548Z" transform="translate(-2663.661 -890.134)" fill="#4a4747"/>
          <path id="Path_11407" data-name="Path 11407" d="M2618.6,959.16s13.427,2.9,13.87,2.95c4.029.49,7.919.886,11.564,2.808,2.407,1.27,4.656,2.828,7.1,4.026,3.583,1.758,7.673,1.649,11.139,3.284,3.035,1.431,5.474,4.188,8.911,4.679,4.955.708,12.918,2.477,13.625,3.716s-5.308,35.391-6.37,36.453-7.609-2.123-11.148-1.062-2.655,2.831-9.024,2.211-6.548.03-12.741,2.448-8.317,5.958-16.1,3.3-10.44-6.193-10.44-7.255S2618.6,959.16,2618.6,959.16Z" transform="translate(-2352.608 -889.4)" fill="#4a4747"/>
          <path id="Path_11408" data-name="Path 11408" d="M2920.248,981.257s-3.151-16.259-6.843-28.281c-3.26-10.618-7.581-26.009-7.581-26.009l-10.617,2.131s3.185,62.124,8.14,66.194S2926.354,998,2926.354,998Z" transform="translate(-2789.878 -879.132)" fill="#febfaa"/>
          <path id="Path_11409" data-name="Path 11409" d="M2917.21,891.6c.042-.028.078-.057.12-.084,1.366-.878,2.208,1.273,2.668,2.166l2.682,5.188c-.877-2.251-1.742-4.5-2.47-6.8-.46-1.43-1.154-3.355-.9-4.863.149-.842.369-1.188,1.254-.934,1.429.4,1.8,2.435,2.131,3.624a52.654,52.654,0,0,0,2.844,8.005c.093-.028.184-.064.284-.092a60.73,60.73,0,0,1-1.87-8.289,6.217,6.217,0,0,1,.219-2.866c.235-1.082,1.042-3.781,2.153-3.541,1.89.4.594,4.6.806,5.926a50.428,50.428,0,0,0,2.046,8.026c.185-.035.376-.063.559-.1-.006-.078-.02-.155-.028-.226a14.289,14.289,0,0,1-.262-4.212c.4-2.087,2.266-2.456,4.021-1.719a15.118,15.118,0,0,1,5.394,4.594c.425.509,1.239,1.259,1.246,2,1.726-.12,3.469,1.869,4.041,3.221,1.515,3.582-2.88,13.42-4.31,15.381a1.469,1.469,0,0,1-.226.277c-1.26,1.132-3.589,1.239-5.2,1.409a20.311,20.311,0,0,1-5.8-.418v-.014c-.743-2.371-8.162-12.655-9.294-17.56-.46-1.993-2.031-3.646-2.436-5.685C2916.75,893.31,2916.565,892.142,2917.21,891.6Zm24.3,10.844a13.827,13.827,0,0,1-1.783-3.921c-.008-.049,0-.085-.008-.135a13.255,13.255,0,0,1-3.51-1.55,8.233,8.233,0,0,1-1.53-1.189,26.28,26.28,0,0,0-1.656-2.088c.206.878.672,2,.8,2.47a38.487,38.487,0,0,0,4.035,8.579A39.126,39.126,0,0,1,2941.508,902.441Z" transform="translate(-2823.237 -864.273)" fill="#febfaa"/>
          <g id="Group_16462" data-name="Group 16462" transform="translate(213.473 43.885)">
            <path id="Path_11410" data-name="Path 11410" d="M2779.631,931.864a7.217,7.217,0,0,1,.6-2.041c.743-1.458,2.054-2.349,3.26-.762a4.454,4.454,0,0,1,.726,1.992c.269,1.6.619,6.593-1.9,6.719C2779.646,937.9,2779.22,934.442,2779.631,931.864Z" transform="translate(-2779.496 -921.34)" fill="#6b3939"/>
            <path id="Path_11411" data-name="Path 11411" d="M2782.226,918.821c.032-.426.7-.43.668,0a78.752,78.752,0,0,0-.076,10.965c.027.429-.641.427-.668,0A78.715,78.715,0,0,1,2782.226,918.821Z" transform="translate(-2779.758 -918.501)" fill="#fff"/>
          </g>
          <g id="Group_16463" data-name="Group 16463" transform="translate(249.302 43.162)">
            <path id="Path_11412" data-name="Path 11412" d="M2729.012,932.917a7.226,7.226,0,0,1,.6-2.041c.743-1.458,2.053-2.349,3.26-.762a4.454,4.454,0,0,1,.726,1.992c.269,1.6.619,6.593-1.9,6.718C2729.027,938.957,2728.6,935.495,2729.012,932.917Z" transform="translate(-2728.877 -922.392)" fill="#6b3939"/>
            <path id="Path_11413" data-name="Path 11413" d="M2731.072,919.87c-.042-.428.626-.424.668,0a65.486,65.486,0,0,1,.144,11.191c-.031.426-.7.43-.668,0A65.486,65.486,0,0,0,2731.072,919.87Z" transform="translate(-2728.704 -919.551)" fill="#fff"/>
          </g>
          <path id="Path_11414" data-name="Path 11414" d="M2672.413,1231.783h12.9c1.777.028,3.585-.028,5.362,0,10.773.58,21.556-.092,32.322,0,3.688-12.627,18.142-63.725,13.824-73.4-9.464-21.22-24.561-22.636-24.561-22.636l-30.436,15.572-2.754,22.969Z" transform="translate(-2443.42 -947.211)" fill="#fad3b1"/>
          <path id="Path_11415" data-name="Path 11415" d="M2752.752,1231.276c17.49.149,22,.03,39.3.085h15.1c1.777.029,1.76-.028,3.536,0l-11.615-57.328-4.672-23.066-41.971-16.662s-12.918,21.815-13.72,35.314C2738.115,1179.7,2749.093,1218.66,2752.752,1231.276Z" transform="translate(-2563.431 -946.79)" fill="#fad3b1"/>
          <ellipse id="Ellipse_49" data-name="Ellipse 49" cx="1.315" cy="3.463" rx="1.315" ry="3.463" transform="translate(232.245 95.943)" fill="#fff"/>
          <path id="Path_11416" data-name="Path 11416" d="M2750.6,983.148a1.255,1.255,0,1,0-1.725-.831A1.363,1.363,0,0,0,2750.6,983.148Z" transform="translate(-2511.658 -895.539)" fill="#fff"/>
          <path id="Path_11417" data-name="Path 11417" d="M2764.758,990.383a1.256,1.256,0,1,0-.2,1.9A1.364,1.364,0,0,0,2764.758,990.383Z" transform="translate(-2534.587 -898.369)" fill="#fff"/>
          <g id="Group_16464" data-name="Group 16464" transform="translate(105.572 52.329)">
            <path id="Path_11418" data-name="Path 11418" d="M2922.067,941.276a13.435,13.435,0,0,0,7.577-3.062,13.215,13.215,0,0,0,4.177-4.84.354.354,0,0,0-.64-.3,12.745,12.745,0,0,1-3.971,4.582,12.925,12.925,0,0,1-7.144,2.914.354.354,0,0,0,0,.708Z" transform="translate(-2921.714 -932.87)" fill="#fff"/>
          </g>
          <g id="Group_16465" data-name="Group 16465" transform="translate(105.243 51.31)">
            <path id="Path_11419" data-name="Path 11419" d="M2922.588,939.13c.072,0,1.468-.029,5.13-2.111a23.792,23.792,0,0,0,6.542-5.068.353.353,0,1,0-.551-.442,23.646,23.646,0,0,1-6.341,4.9c-3.46,1.967-4.77,2.018-4.782,2.018a.357.357,0,0,0-.349.357.352.352,0,0,0,.351.351Z" transform="translate(-2922.236 -931.377)" fill="#fff"/>
          </g>
          <g id="Group_16466" data-name="Group 16466" transform="translate(109.563 40.403)">
            <path id="Path_11420" data-name="Path 11420" d="M2927.077,920.421a.3.3,0,0,0,.043,0,.354.354,0,0,0,.308-.393,5.117,5.117,0,0,1,.723-2.849,10.951,10.951,0,0,1,3.011-2.946.354.354,0,0,0-.385-.594,11.48,11.48,0,0,0-3.241,3.189,5.731,5.731,0,0,0-.811,3.287A.354.354,0,0,0,2927.077,920.421Z" transform="translate(-2926.71 -913.581)" fill="#f2835e"/>
          </g>
          <g id="Group_16467" data-name="Group 16467" transform="translate(354.776 40.342)">
            <path id="Path_11421" data-name="Path 11421" d="M2584.3,918.348a.348.348,0,0,0,.186-.053.352.352,0,0,0,.116-.486c-.007-.01-.607-.984-1.488-2.218a7.385,7.385,0,0,0-3.185-2.077.354.354,0,0,0-.224.672,6.765,6.765,0,0,1,2.832,1.816c.868,1.213,1.457,2.168,1.463,2.177A.351.351,0,0,0,2584.3,918.348Z" transform="translate(-2579.46 -913.496)" fill="#f2835e"/>
          </g>
          <g id="Group_16468" data-name="Group 16468" transform="translate(231.675 197.028)">
            <path id="Path_11422" data-name="Path 11422" d="M2702.064,1232.153a.354.354,0,0,0,.354-.349c.007-.5.725-49.8,4.671-62.818,3.9-12.87,35.788-20.467,36.11-20.542a.355.355,0,0,0,.264-.425.35.35,0,0,0-.426-.264c-1.329.311-32.6,7.766-36.625,21.025-3.975,13.112-4.695,62.517-4.7,63.014a.354.354,0,0,0,.35.359Z" transform="translate(-2701.71 -1147.745)" fill="#e3ae7f"/>
          </g>
          <g id="Group_16469" data-name="Group 16469" transform="translate(236.362 192.58)">
            <path id="Path_11423" data-name="Path 11423" d="M2708.566,1166.461a.353.353,0,0,0,.346-.285,40.367,40.367,0,0,1,5.872-13.616c4.309-6.033,25.451-13.551,25.665-13.626a.354.354,0,0,0-.236-.668c-.878.311-21.568,7.669-26.006,13.882a41.138,41.138,0,0,0-5.99,13.89.355.355,0,0,0,.278.416A.392.392,0,0,0,2708.566,1166.461Z" transform="translate(-2708.21 -1138.246)" fill="#e3ae7f"/>
          </g>
          <g id="Group_16470" data-name="Group 16470" transform="translate(226.19 210.502)">
            <path id="Path_11424" data-name="Path 11424" d="M2764.759,1193.422a.333.333,0,0,0,.09-.011.354.354,0,0,0,.253-.432l-7.4-28.218a.354.354,0,0,0-.684.18l7.4,28.218A.353.353,0,0,0,2764.759,1193.422Z" transform="translate(-2757.002 -1164.496)" fill="#e3ae7f"/>
          </g>
          <rect id="Rectangle_6453" data-name="Rectangle 6453" width="94.848" height="57.862" rx="1" transform="translate(189.206 110.748)" fill="#fff"/>
          <path id="Rectangle_6454" data-name="Rectangle 6454" d="M2.083,0H99.017A2.083,2.083,0,0,1,101.1,2.083V3.889a0,0,0,0,1,0,0H0a0,0,0,0,1,0,0V2.083A2.083,2.083,0,0,1,2.083,0Z" transform="translate(186.257 165.736)" fill="#fff"/>
          <g id="Group_16471" data-name="Group 16471" transform="translate(188.852 167.335)">
            <path id="Path_11425" data-name="Path 11425" d="M2686.564,1101.207h94.848a.354.354,0,0,0,0-.708h-94.848a.354.354,0,0,0,0,.708Z" transform="translate(-2686.211 -1100.499)" fill="#e0ccc3"/>
          </g>
          <g id="Group_16472" data-name="Group 16472" transform="translate(227.583 133.692)">
            <path id="Path_11426" data-name="Path 11426" d="M2749.977,1057.979c4.386,0,9.047-1.124,9.047-3.207s-4.661-3.206-9.047-3.206-9.047,1.123-9.047,3.206S2745.591,1057.979,2749.977,1057.979Zm0-5.705c4.914,0,8.339,1.317,8.339,2.5s-3.425,2.5-8.339,2.5-8.339-1.317-8.339-2.5S2745.063,1052.274,2749.977,1052.274Z" transform="translate(-2740.93 -1051.566)" fill="#e0ccc3"/>
          </g>
          <g id="Group_16473" data-name="Group 16473" transform="translate(170.921 81.371)">
            <path id="Path_11427" data-name="Path 11427" d="M2841.926,1025.224a.386.386,0,0,0,.085-.01.355.355,0,0,0,.259-.429c-.051-.2-5.016-20.353-5.248-28.827-.235-8.572-4.345-19.7-4.387-19.815a.354.354,0,0,0-.664.248c.042.11,4.111,11.134,4.343,19.587.235,8.551,5.218,28.775,5.268,28.978A.354.354,0,0,0,2841.926,1025.224Z" transform="translate(-2831.949 -975.912)" fill="#252730"/>
          </g>
          <g id="Group_16474" data-name="Group 16474" transform="translate(292.988 82.014)">
            <path id="Path_11428" data-name="Path 11428" d="M2664.315,1023.035a.355.355,0,0,0,.348-.3c.036-.218,3.638-21.971,4.164-31.794.52-9.708,2.251-13.607,2.269-13.645a.354.354,0,0,0-.644-.3c-.074.161-1.8,4.031-2.333,13.9-.524,9.784-4.12,31.5-4.156,31.716a.354.354,0,0,0,.292.407A.3.3,0,0,0,2664.315,1023.035Z" transform="translate(-2663.96 -976.799)" fill="#252730"/>
          </g>
          <g id="Group_16475" data-name="Group 16475" transform="translate(320.661 90.48)">
            <path id="Path_11429" data-name="Path 11429" d="M2626.315,1024.033a.354.354,0,0,0,.35-.3c.015-.1,1.445-10.176,1.971-17.01.521-6.782,3.67-17.161,3.7-17.265a.354.354,0,1,0-.677-.206c-.032.1-3.2,10.556-3.73,17.417-.524,6.811-1.951,16.864-1.967,16.965a.354.354,0,0,0,.3.4A.387.387,0,0,0,2626.315,1024.033Z" transform="translate(-2625.96 -988.996)" fill="#252730"/>
          </g>
          <g id="Group_16476" data-name="Group 16476" transform="translate(141.251 90.488)">
            <path id="Path_11430" data-name="Path 11430" d="M2885.111,1023.325a.4.4,0,0,0,.049,0,.354.354,0,0,0,.3-.4c-.016-.113-1.6-11.409-2.654-18.582a90.493,90.493,0,0,0-3.912-15.111.354.354,0,1,0-.664.242,89.663,89.663,0,0,1,3.875,14.971c1.05,7.172,2.639,18.465,2.654,18.579A.354.354,0,0,0,2885.111,1023.325Z" transform="translate(-2878.21 -988.996)" fill="#252730"/>
          </g>
          <g id="Group_16477" data-name="Group 16477" transform="translate(240.574 67.719)">
            <path id="Path_11431" data-name="Path 11431" d="M2717.785,1000.187a.352.352,0,0,0,.29-.151c.5-.716,12.277-17.589,12.8-22.383.5-4.544,7.985-9.8,8.061-9.854l.232-.161-4.116-10.171a.354.354,0,1,0-.656.265l3.906,9.65c-1.322.957-7.645,5.747-8.129,10.194-.5,4.614-12.554,21.88-12.675,22.053a.354.354,0,0,0,.289.557Z" transform="translate(-2717.431 -957.247)" fill="#252730"/>
          </g>
          <g id="Group_16478" data-name="Group 16478" transform="translate(296.182 84.653)">
            <path id="Path_11432" data-name="Path 11432" d="M2655.064,1002.188a.354.354,0,0,0,.322-.205l9.814-21.234a.354.354,0,0,0-.643-.3l-9.814,21.235a.355.355,0,0,0,.173.47A.361.361,0,0,0,2655.064,1002.188Z" transform="translate(-2654.71 -980.246)" fill="#252730"/>
          </g>
          <g id="Group_16479" data-name="Group 16479" transform="translate(207.374 67.259)">
            <path id="Path_11433" data-name="Path 11433" d="M2786.055,999.993a.357.357,0,0,0,.151-.034.353.353,0,0,0,.169-.471c-.087-.186-8.757-18.645-9.536-22.685-.6-3.1-6-8.761-8.9-11.8-.75-.786-1.463-1.534-1.7-1.83.461-.691,3.162-3.519,5.624-5.984a.354.354,0,0,0-.5-.5c-5.876,5.883-5.876,6.333-5.876,6.5,0,.251.144.423,1.934,2.3,2.852,2.991,8.159,8.558,8.718,11.45.8,4.125,9.233,22.09,9.592,22.852A.354.354,0,0,0,2786.055,999.993Zm-19.87-36.723Z" transform="translate(-2765.491 -956.58)" fill="#252730"/>
          </g>
          <g id="Group_16484" data-name="Group 16484" transform="translate(0 165.885)">
            <g id="Group_16482" data-name="Group 16482" transform="translate(448.48 6.002)">
              <path id="Path_11451" data-name="Path 11451" d="M2446.111,1113.082l.021,2.343-.164,109.557h5.643l.374-112.757Z" transform="translate(-2446.111 -1112.226)" fill="#4a4747"/>
            </g>
            <g id="Group_16483" data-name="Group 16483" transform="translate(0 6.002)">
              <path id="Path_11452" data-name="Path 11452" d="M3024.861,1112.226l-.134,112.724h5.191l.8-109.025.021-2.709Z" transform="translate(-3024.727 -1112.226)" fill="#4a4747"/>
            </g>
            <rect id="Rectangle_6455" data-name="Rectangle 6455" width="454.223" height="9.202" transform="translate(0.132)" fill="#d99f82"/>
          </g>
          <g id="Group_16486" data-name="Group 16486" transform="translate(103.547 169.022) rotate(-90)">
            <path id="Path_11453" data-name="Path 11453" d="M2852.894,1093.626v7.17l57.836-.006-.956-7.163Z" transform="translate(-2849.679 -1078.097)" fill="#501919"/>
            <path id="Path_11454" data-name="Path 11454" d="M2904.6,1091.292l-46.213-.013V1085.5h45.445Z" transform="translate(-2855.168 -1075.721)" fill="#ffd791"/>
            <g id="Group_16485" data-name="Group 16485" transform="translate(3.216)">
              <path id="Path_11455" data-name="Path 11455" d="M2865.754,1071.686l.106.984v8.71l46.411.082-.12-1.118-.843-7.673-.106-.984Z" transform="translate(-2865.754 -1071.686)" fill="#485a7e"/>
              <path id="Path_11456" data-name="Path 11456" d="M2865.924,1073.076v7.727l46.292-.055-.843-7.673Z" transform="translate(-2865.818 -1072.092)" fill="#fff"/>
            </g>
            <path id="Path_11457" data-name="Path 11457" d="M2866.524,1093.626l1.04,7.163h1.833l-1.04-7.163Z" transform="translate(-2821.21 -1078.097)" fill="#ede0da"/>
          </g>
          <g id="Group_16487" data-name="Group 16487" transform="translate(84.857 165.885) rotate(-90)">
            <rect id="Rectangle_6456" data-name="Rectangle 6456" width="75.054" height="18.689" fill="#e6d6cf"/>
            <circle id="Ellipse_50" data-name="Ellipse 50" cx="5.284" cy="5.284" r="5.284" transform="translate(57.43 4.061)" fill="#fff"/>
            <circle id="Ellipse_51" data-name="Ellipse 51" cx="4.097" cy="4.097" r="4.097" transform="translate(58.616 5.247)" fill="#252730"/>
            <rect id="Rectangle_6457" data-name="Rectangle 6457" width="25.599" height="6.448" transform="translate(7.032 5.989)" fill="#fff"/>
          </g>
        </g>
        <g id="Group_16490" data-name="Group 16490" transform="translate(32.714 149.759)">
          <path id="Path_11458" data-name="Path 11458" d="M2979.786,1019.2c4.424.354,8.311,5.047,10.087,8.727a22.724,22.724,0,0,0,1.947,3.921c.878,1.2,2.088,2.11,2.874,3.384a23.386,23.386,0,0,1,3.156,10.88c-.007.325-.51.509-.659.177-1.259-2.733-2.335-6.3-4.671-8.339-1.586-1.373-5.232-1.84-5.373-4.487-.106-1.869,1.932-1.8,3.235-1.394a.1.1,0,0,0,.042.014,17.438,17.438,0,0,0-3.6-3.32c-2-1.366-4.289-1.869-6.392-2.973a5.135,5.135,0,0,1-2.882-4.332C2977.514,1019.957,2978.244,1019.079,2979.786,1019.2Z" transform="translate(-2977.555 -1019.189)" fill="#bedef7"/>
          <path id="Path_11459" data-name="Path 11459" d="M2975.887,1028.542a1.167,1.167,0,0,1,.644-.715,1.645,1.645,0,0,1,.73-.163c2.626.057,4.516,3.986,5.357,6.045,1.055,2.576-1.472,4.5-2.866,1.508a19.553,19.553,0,0,0-3.121-4.82C2976.177,1029.865,2975.689,1029.207,2975.887,1028.542Z" transform="translate(-2961.361 -1021.665)" fill="#bedef7"/>
        </g>
      </g>
      <g id="Group_16492" data-name="Group 16492" transform="translate(616.994 427.734)">
        <g id="Group_16315" data-name="Group 16315" transform="translate(17.765 0)">
          <g id="Group_16314" data-name="Group 16314" transform="translate(0 0)">
            <g id="Group_16313" data-name="Group 16313">
              <path id="Path_11185" data-name="Path 11185" d="M7243.883,504.9a16.976,16.976,0,0,1-.317,5.708,21.79,21.79,0,0,1-1.476,4.661,24.088,24.088,0,0,1-2.365,4.672c-.948,1.534-2.225,2.9-3.257,4.427a40.749,40.749,0,0,0-2.032,3.558c-.151.306-.312.61-.444.924s-.262.629-.386.946q-.375.951-.694,1.922c-.291.9-.606,1.792-.851,2.706a3.634,3.634,0,0,0,1.271-1.315c.472-.72.881-1.467,1.287-2.211.36-.65.7-1.308,1.114-1.931a12.714,12.714,0,0,1,1.406-1.761,13.552,13.552,0,0,1,3.841-2.631,42.039,42.039,0,0,1,4.448-1.9,41.472,41.472,0,0,1,4.741-1.319c.175-.038.371.176.256.279a5.435,5.435,0,0,0-1.506,2.651c-.262,1-.406,2.049-.715,3.008a7.89,7.89,0,0,1-.4,1.006,10.733,10.733,0,0,1-.5.962,9.274,9.274,0,0,1-1.367,1.748,13.376,13.376,0,0,1-1.808,1.5,13.951,13.951,0,0,1-2.14,1.244,17.98,17.98,0,0,1-5.228,1.5c-1.956.261-4.845.3-5.43,2.207a.164.164,0,0,1-.167.109l-.09.313a10.056,10.056,0,0,1,2.731-1.318c1.076-.352,2.2-.6,3.313-.854,1.326-.3,2.693-.577,4.044-.835a10.392,10.392,0,0,1,3.574-.321,15.954,15.954,0,0,0,3.525.591c.253-.021.362.273.123.306a1.587,1.587,0,0,0-.857.523c-.223.2-.441.413-.66.623-.434.424-.9.843-1.354,1.253a7.541,7.541,0,0,1-3.077,1.715,9.1,9.1,0,0,1-4.2.052,14.342,14.342,0,0,1-2.217-.747,6.888,6.888,0,0,0-2.473-.626,3.387,3.387,0,0,0-1.745.49,5.065,5.065,0,0,0-1.231,1.109l-.136.555-.48,1.961-.239.981c-.078.327-.137.659-.206.988l-.8,3.958a9.978,9.978,0,0,1,2.863-1.462.218.218,0,0,1,.051-.007,12.187,12.187,0,0,1,1.52-2.124,6.515,6.515,0,0,1,1-.9,7.581,7.581,0,0,1,1.222-.732c2.4-1.138,5.354-1.236,8.072-1.632.165-.023.34.134.251.241-.93,1.189-1.265,2.627-2.048,3.9a6.149,6.149,0,0,1-1.258,1.513,6.449,6.449,0,0,1-.53.393,6.482,6.482,0,0,1,1.938,1.078c.2.169.395.338.15.5a5.322,5.322,0,0,1-.87.442,8.816,8.816,0,0,1-1.928.563,14.417,14.417,0,0,1-2.312.169l-2.508.027c-1.025.644-1.959,1.389-3.024,2.035.816-.09,1.632-.178,2.448-.254a11.521,11.521,0,0,1,2.853.063c2.045.314,4.074.812,6.089,1.259.173.039.252.2.106.272-.91.475-1.831.958-2.837,1.366a12.64,12.64,0,0,1-2.7.8,11.553,11.553,0,0,1-3.365-.007c-1.172-.15-2.347-.419-3.527-.471a3.741,3.741,0,0,0-1.478.182,3.335,3.335,0,0,0-1.2.917.2.2,0,0,1-.181.056c-.095.863-.211,1.725-.282,2.591l-.182,2.6c.629-.434,1.212-.9,1.8-1.355a15.829,15.829,0,0,1,1.7-1.178,8.009,8.009,0,0,1,2.018-.828,5.989,5.989,0,0,1,4.257.431c.15.084.09.255-.084.274a3.969,3.969,0,0,0-2.123.948c-.538.447-.979.962-1.512,1.424a6.684,6.684,0,0,1-1.64,1.045,8.077,8.077,0,0,1-2.036.6c-.816.131-1.645.071-2.471.137a92.2,92.2,0,0,0,1.237,21.031c.034.209-.709.3-.743.093a91.447,91.447,0,0,1-.969-12.377l-.077-2.446c-.018-.408-.007-.816,0-1.224l.02-1.224a.24.24,0,0,1-.034,0,7.433,7.433,0,0,1-3.059-.889,8.173,8.173,0,0,1-2.182-1.745,9.511,9.511,0,0,1-.835-1.07c-.243-.37-.464-.753-.666-1.14a18.439,18.439,0,0,1-1.134-2.666q-.231-.686-.407-1.387a12.743,12.743,0,0,1-.262-1.407c-.021-.16.173-.253.33-.166.876.485,1.755.966,2.573,1.509a11.507,11.507,0,0,1,1.978,1.585,11.887,11.887,0,0,1,1.478,1.919c.435.679.815,1.37,1.17,2.064s.729,1.395,1.073,2.088c-.124-.249.017-.764.022-1.034.013-.364.007-.728.035-1.091l.146-2.236.155-2.236c.022-.43.108-.912.091-1.386a2.194,2.194,0,0,0-.432-1.336,6.929,6.929,0,0,0-2.813-1.812,19.385,19.385,0,0,1-3.465-1.707,10.861,10.861,0,0,1-2.471-2.3,9.932,9.932,0,0,1-1.572-2.856,16.025,16.025,0,0,1-.481-1.824,10.357,10.357,0,0,0-.517-1.816.187.187,0,0,1,.231-.236,25.93,25.93,0,0,1,4.118,1.6,13.021,13.021,0,0,1,2.748,1.845,7.991,7.991,0,0,1,1.938,2.444c.456.932.7,1.959,1.082,2.92a7.063,7.063,0,0,0,.32.705,5.8,5.8,0,0,0,.425.667,4.629,4.629,0,0,0,1.228,1.147l0-.012a.152.152,0,0,1-.055-.168,2.7,2.7,0,0,1,.1-.254c.055-.438.1-.877.161-1.313l.207-1.307c.094-.588.246-1.166.348-1.752.049-.289.07-.582.11-.873.077-.562.14-1.115.261-1.669a.229.229,0,0,1-.052-.04,10.353,10.353,0,0,0-3.934-2.221,13.26,13.26,0,0,1-3.729-2.206,10.652,10.652,0,0,1-1.434-1.528c-.209-.273-.409-.555-.589-.844s-.34-.582-.491-.883a36.523,36.523,0,0,1-1.509-3.734c-.235-.634-.484-1.27-.762-1.9a14.154,14.154,0,0,0-.929-1.837.187.187,0,0,1,.229-.268l3.139.919a21.676,21.676,0,0,1,2.6.87,9.345,9.345,0,0,1,2.043,1.236,17.437,17.437,0,0,1,2.095,2.01c-.212-.444-.391-.887-.558-1.337s-.319-.906-.456-1.369a22.388,22.388,0,0,1-.955-5.772,25.006,25.006,0,0,1,.442-5.86q.281-1.443.687-2.863l.209-.706c.073-.234.161-.463.244-.694q.255-.69.536-1.37a.214.214,0,0,1,.352-.026q1.116,1.645,2.254,3.243c.7.968,1.474,1.915,2.1,2.9a5.744,5.744,0,0,1,.93,2.531,7.008,7.008,0,0,1,.006,1.3c-.032.43-.074.863-.135,1.286-.129.939-.3,1.864-.491,2.784l-.287,1.378-.229,1.391a20.76,20.76,0,0,0-.23,5.7c.069.639.145,1.284.177,1.922l.463-1.891a.12.12,0,0,1-.015-.171l.08-.1q1.279-5.035,2.95-9.958c.175-.514.139-1.089.284-1.606a6.244,6.244,0,0,0,.125-1.77,35.567,35.567,0,0,0-.406-3.667,15.934,15.934,0,0,1,.229-5.268,17.331,17.331,0,0,1,2.2-4.876,27.68,27.68,0,0,1,3.652-4.237c1.392-1.269,2.874-2.433,4.328-3.568A.235.235,0,0,1,7243.883,504.9Z" transform="translate(-7214.909 -504.703)" fill="#538087"/>
              <path id="Path_11186" data-name="Path 11186" d="M7349.458,526.762a30.3,30.3,0,0,0-1.633,2.635q-.765,1.348-1.462,2.735-.643,1.412-1.211,2.856a30.222,30.222,0,0,0-1.024,2.925q-.488,1.668-.876,3.357c-.048.207.341.363.39.154q.346-1.5.771-2.99c.145-.495.283-.993.45-1.479s.353-.967.538-1.448q.556-1.441,1.187-2.855c.43-.936.93-1.84,1.428-2.742q.423-.755.868-1.5c.151-.246.294-.5.454-.736l.49-.715C7349.95,526.785,7349.582,526.585,7349.458,526.762Z" transform="translate(-7322.973 -523.219)" fill="#fff"/>
              <path id="Path_11187" data-name="Path 11187" d="M7282.034,601.537c.017,1.265-.013,2.516-.055,3.758l-.065,1.856v1.862c.009,1.238.039,2.467.125,3.688a28.963,28.963,0,0,0,.574,3.663q.229,1.019.553,2.014a16.1,16.1,0,0,0,.807,1.965c.1.212.493.135.39-.078a17.016,17.016,0,0,1-1.24-3.506,28.8,28.8,0,0,1-.632-3.624c-.106-1.213-.141-2.436-.157-3.666q0-.925-.007-1.849c0-.618.038-1.224.054-1.838.048-1.381.084-2.776.064-4.188C7282.44,601.359,7282.031,601.3,7282.034,601.537Z" transform="translate(-7271.328 -586.113)" fill="#fff"/>
              <path id="Path_11188" data-name="Path 11188" d="M7253.234,715.7c1.058.866,2.057,1.771,2.994,2.705q.7.7,1.356,1.423c.441.483.88.975,1.294,1.472.159.189.5.016.337-.173-.855-1.009-1.724-1.983-2.674-2.931s-1.96-1.866-3.029-2.744C7253.309,715.29,7253.033,715.539,7253.234,715.7Z" transform="translate(-7247.121 -682.116)" fill="#fff"/>
              <path id="Path_11189" data-name="Path 11189" d="M7343.225,629.88l-2.344,2.145c-.4.358-.763.737-1.144,1.109l-1.139,1.127a17.062,17.062,0,0,1-2.344,2,19.756,19.756,0,0,1-2.9,1.57l-1.821.875c-.607.3-1.227.6-1.813.91-.206.108.013.418.222.308l.813-.423.832-.41,1.662-.8a26.812,26.812,0,0,0,2.974-1.54,16.357,16.357,0,0,0,2.352-1.908c.78-.748,1.525-1.507,2.277-2.249.9-.843,1.817-1.667,2.715-2.482C7343.718,629.974,7343.375,629.743,7343.225,629.88Z" transform="translate(-7311.513 -610.07)" fill="#fff"/>
              <path id="Path_11190" data-name="Path 11190" d="M7352.5,701.8a9.144,9.144,0,0,1-1.831.879,10.755,10.755,0,0,1-2.1.527,12.382,12.382,0,0,1-2.263.126c-.927-.033-1.863-.193-2.791-.207-.262,0-.242.325.024.328.955.013,1.918.178,2.871.2a13,13,0,0,0,2.364-.147,10.732,10.732,0,0,0,4.027-1.458C7352.984,701.933,7352.685,701.68,7352.5,701.8Z" transform="translate(-7323.041 -670.635)" fill="#fff"/>
              <path id="Path_11191" data-name="Path 11191" d="M7316.062,746.083a7.117,7.117,0,0,0-2.5,1.093,12.817,12.817,0,0,0-1.951,1.659c-.681.683-1.384,1.361-2.117,2.03q-.548.5-1.123,1l-1.158.984q-1.367,1.153-2.864,2.258c-.187.139.066.415.256.275q1.289-.951,2.486-1.935c.4-.327.785-.659,1.175-.992s.784-.665,1.165-1q1.119-.991,2.133-2.013c.3-.3.594-.6.9-.891a11.655,11.655,0,0,1,.986-.834,7.017,7.017,0,0,1,2.754-1.324C7316.447,746.336,7316.3,746.03,7316.062,746.083Z" transform="translate(-7290.167 -707.945)" fill="#fff"/>
              <path id="Path_11192" data-name="Path 11192" d="M7312.443,812.907a15.435,15.435,0,0,1-2.177-.219,13.215,13.215,0,0,0-1.9-.1,11.443,11.443,0,0,0-3.685.667c-.234.087-.06.4.177.31a10.98,10.98,0,0,1,3.659-.658,13.1,13.1,0,0,1,1.942.125,13.406,13.406,0,0,0,2.046.187C7312.773,813.212,7312.71,812.9,7312.443,812.907Z" transform="translate(-7290.407 -763.947)" fill="#fff"/>
              <path id="Path_11193" data-name="Path 11193" d="M7232.086,775.421a20.114,20.114,0,0,0,3.116,3.469c.582.526,1.188,1.03,1.8,1.519s1.268.967,1.9,1.435c.207.151.449-.113.244-.263a45.052,45.052,0,0,1-3.653-2.926,19.962,19.962,0,0,1-3.081-3.434C7232.277,775.015,7231.947,775.217,7232.086,775.421Z" transform="translate(-7229.345 -732.413)" fill="#fff"/>
              <path id="Path_11194" data-name="Path 11194" d="M7249.232,856.383a9.331,9.331,0,0,0,1.275,2.724,10.147,10.147,0,0,0,2.2,2.277c.2.151.5-.073.306-.225a10.807,10.807,0,0,1-1.168-1.036c-.18-.184-.353-.374-.516-.568s-.3-.393-.443-.6a8.979,8.979,0,0,1-1.242-2.633C7249.58,856.105,7249.169,856.162,7249.232,856.383Z" transform="translate(-7243.804 -800.66)" fill="#fff"/>
              <path id="Path_11195" data-name="Path 11195" d="M7305.459,845.655a2.994,2.994,0,0,0-1.484.489,7.2,7.2,0,0,0-1.093.926,9.881,9.881,0,0,1-2.677,1.808c-.227.105-.041.405.188.3a10.484,10.484,0,0,0,2.568-1.662c.354-.316.689-.688,1.088-.987a2.644,2.644,0,0,1,1.483-.558C7305.8,845.955,7305.726,845.641,7305.459,845.655Z" transform="translate(-7286.645 -791.792)" fill="#fff"/>
            </g>
          </g>
        </g>
        <g id="Group_16318" data-name="Group 16318" transform="translate(0 36.626)">
          <g id="Group_16317" data-name="Group 16317">
            <g id="Group_16316" data-name="Group 16316">
              <path id="Path_11196" data-name="Path 11196" d="M7074.689,711.968a11.918,11.918,0,0,1,4.435,1.53,16.6,16.6,0,0,1,3.127,2.565,17.745,17.745,0,0,1,2.564,3.5c.664,1.355,1.063,2.844,1.625,4.224a31.187,31.187,0,0,0,1.333,3.035c.254.484.5.976.752,1.458s.528.953.815,1.415c.4.643.808,1.277,1.171,1.939a2.421,2.421,0,0,0-.031-1.505c-.185-.672-.426-1.322-.668-1.973-.216-.569-.423-1.148-.618-1.731a10.2,10.2,0,0,1-.464-1.807,16.424,16.424,0,0,1,.071-4.014q.221-2.091.592-4.271c.23-1.441.487-2.894.8-4.379.033-.161.286-.226.33-.083a6.179,6.179,0,0,0,1.633,2.471c.687.723,1.465,1.386,2.1,2.137a8.082,8.082,0,0,1,.634.848,7.107,7.107,0,0,1,.5.934,9.635,9.635,0,0,1,.839,4.214,11.527,11.527,0,0,1-.314,2.257,12.532,12.532,0,0,1-2.017,4.361c-1.026,1.436-2.808,3.264-2.054,4.651a.133.133,0,0,1-.043.16l.129.226a9.606,9.606,0,0,1,.942-2.4c.462-.869,1-1.73,1.526-2.6.637-1.052,1.234-2.1,1.83-3.164a9.933,9.933,0,0,1,1.79-2.655,11.952,11.952,0,0,0,2.367-2.129c.121-.2.4-.078.3.117a1.59,1.59,0,0,0-.08.965l.1.88a16.422,16.422,0,0,1,.14,1.774,6.633,6.633,0,0,1-.7,3.218,7.243,7.243,0,0,1-2.577,2.68,13.362,13.362,0,0,1-1.872.9,6.408,6.408,0,0,0-1.957,1.134,3.079,3.079,0,0,0-.824,1.321,4.429,4.429,0,0,0-.211,1.379l.211.4.748,1.427.374.713c.124.238.234.483.353.724l1.395,2.9a9.653,9.653,0,0,1,1.324-2.4.223.223,0,0,1,.032-.031,10.641,10.641,0,0,1-.016-2.218,7.478,7.478,0,0,1,.6-2.3c.941-2.111,2.841-3.995,4.295-6,.087-.121.3-.121.32.01.16,1.453.826,2.715,1.1,4.108a4.769,4.769,0,0,1,.015,1.858,5.635,5.635,0,0,1-.149.591,5.149,5.149,0,0,1,1.963-.24c.239.02.472.049.394.312a4.4,4.4,0,0,1-.36.814,6.783,6.783,0,0,1-1.054,1.447,10.68,10.68,0,0,1-1.581,1.317l-1.829,1.288c-.45.982-.8,1.966-1.3,2.915l1.716-1.336a10.717,10.717,0,0,1,2.155-1.328c1.67-.759,3.423-1.364,5.145-1.984.148-.054.29.041.223.178a20.431,20.431,0,0,1-1.407,2.5,9.272,9.272,0,0,1-1.694,1.889,9.726,9.726,0,0,1-2.6,1.483c-.97.4-1.99.706-2.927,1.178a3.669,3.669,0,0,0-1.077.764,2.965,2.965,0,0,0-.577,1.149.19.19,0,0,1-.12.113c.255.644.528,1.282.772,1.93l.72,1.951c.367-.537.682-1.091,1-1.648a17.75,17.75,0,0,1,.96-1.534,7.8,7.8,0,0,1,1.259-1.419,5.274,5.274,0,0,1,3.532-1.386c.154.007.182.172.054.258a3.792,3.792,0,0,0-1.3,1.614c-.267.573-.435,1.155-.7,1.721a5.451,5.451,0,0,1-.956,1.414,6.737,6.737,0,0,1-1.45,1.166c-.623.377-1.32.611-1.975.936,1.908,5.3,3.553,10.7,5.043,16.192.048.166-.6.3-.65.132-.905-3.188-1.5-6.45-2.524-9.591l-.586-1.857c-.189-.62-.421-1.227-.626-1.842-.011,0-.018.009-.028.012a7.784,7.784,0,0,1-2.8.253,7.954,7.954,0,0,1-2.267-.547,10.142,10.142,0,0,1-.971-.457c-.314-.164-.612-.34-.9-.522a13.871,13.871,0,0,1-1.731-1.307,16.079,16.079,0,0,1-1.43-1.473c-.074-.087.048-.218.2-.227.866-.048,1.738-.089,2.589-.056a9.005,9.005,0,0,1,2.088.311,8.636,8.636,0,0,1,1.811.784,16.18,16.18,0,0,1,1.628,1.054c.508.381.983.787,1.466,1.2-.173-.147-.2-.574-.265-.777-.1-.272-.178-.549-.284-.818l-.624-1.665-.616-1.667c-.235-.64-.511-1.465-1.3-1.756a6.1,6.1,0,0,0-2.891-.045,23.522,23.522,0,0,1-3.322.393,12.643,12.643,0,0,1-2.808-.259,8,8,0,0,1-2.317-.855c-.392-.224-.721-.491-1.082-.737a6.074,6.074,0,0,0-1.167-.656c-.088-.035-.068-.176.067-.229a26.409,26.409,0,0,1,3.712-1.188,11.987,11.987,0,0,1,2.858-.316,5.98,5.98,0,0,1,2.477.552,24.038,24.038,0,0,1,2.072,1.342,6.437,6.437,0,0,0,1.131.576,4.221,4.221,0,0,0,1.4.257l0-.009a.116.116,0,0,1-.107-.092,1.846,1.846,0,0,1-.017-.22c-.132-.324-.257-.65-.393-.972l-.424-.959c-.189-.432-.331-.884-.516-1.318-.091-.215-.206-.417-.3-.628-.19-.407-.38-.8-.58-1.207a.207.207,0,0,1-.058,0,9.472,9.472,0,0,0-3.924.633,15.513,15.513,0,0,1-3.709.662,10.86,10.86,0,0,1-1.712-.069c-.272-.032-.535-.076-.8-.125s-.522-.1-.775-.169c-1-.255-1.912-.609-2.835-.921-.463-.156-.926-.3-1.413-.416a9.918,9.918,0,0,0-1.554-.221c-.13-.007-.129-.154.016-.234l2.537-1.406c.711-.393,1.423-.795,2.165-1.115a9.666,9.666,0,0,1,2-.612,12.911,12.911,0,0,1,2.466-.217c-.727-.227-1.463-.458-2.145-.738a23.63,23.63,0,0,1-3.813-2,22.7,22.7,0,0,1-3.163-2.528,24.341,24.341,0,0,1-2.554-2.957c-.049-.066.036-.226.164-.248q1.623-.279,3.27-.523c.979-.138,1.984-.307,2.954-.351a4.361,4.361,0,0,1,2.142.4,4.887,4.887,0,0,1,.858.546,7.643,7.643,0,0,1,.717.677c.5.521.971,1.071,1.43,1.629l.686.842.656.861a22.235,22.235,0,0,0,3.089,3.226c.391.328.791.66,1.161,1.017l-.716-1.368c-.057,0-.1-.027-.1-.091l0-.1q-1.941-3.634-4.148-7.119a10.035,10.035,0,0,0-.861-.963,4.54,4.54,0,0,0-1.121-.872,20.522,20.522,0,0,0-2.638-1.275,11.523,11.523,0,0,1-3.5-2.072,11.35,11.35,0,0,1-2.483-3.1,20.65,20.65,0,0,1-1.738-3.877c-.509-1.347-.95-2.76-1.4-4.188A.225.225,0,0,1,7074.689,711.968Z" transform="translate(-7074.459 -711.797)" fill="#7badb2"/>
              <path id="Path_11197" data-name="Path 11197" d="M7089.213,730.6c.489.641.948,1.31,1.442,1.946s1,1.263,1.525,1.871q.754.942,1.563,1.84c.537.6,1.111,1.174,1.654,1.772q.932.99,1.934,1.93c.124.115.428-.1.3-.216q-.9-.844-1.738-1.726l-1.664-1.775q-.819-.9-1.583-1.835c-.516-.621-1.042-1.233-1.535-1.874q-.417-.535-.817-1.086l-.4-.552-.408-.545C7089.388,730.217,7089.114,730.468,7089.213,730.6Z" transform="translate(-7087.127 -727.72)" fill="#fff"/>
              <path id="Path_11198" data-name="Path 11198" d="M7099.327,838.052c.773.426,1.522.892,2.268,1.374l1.115.734,1.083.769c.729.512,1.474,1.019,2.255,1.5a26.088,26.088,0,0,0,2.408,1.406q.719.365,1.5.682c.524.207,1.036.414,1.589.59.18.059.4-.209.22-.268a23.283,23.283,0,0,1-2.757-1.111,22.843,22.843,0,0,1-2.426-1.38c-.785-.481-1.539-.984-2.271-1.5l-1.086-.769c-.356-.257-.736-.5-1.1-.74-.833-.545-1.67-1.072-2.537-1.551C7099.439,837.713,7099.181,837.972,7099.327,838.052Z" transform="translate(-7095.804 -820.126)" fill="#fff"/>
              <path id="Path_11199" data-name="Path 11199" d="M7151.987,910.651a27.444,27.444,0,0,1,3.425-.247q.846-.007,1.679.042c.551.035,1.087.093,1.623.167.2.029.359-.253.155-.282a22.2,22.2,0,0,0-3.35-.207,27.56,27.56,0,0,0-3.466.253C7151.833,910.405,7151.768,910.68,7151.987,910.651Z" transform="translate(-7141.007 -882.334)" fill="#fff"/>
              <path id="Path_11200" data-name="Path 11200" d="M7193.191,742.4l.613,2.854c.2.947.346,1.913.507,2.86a11.732,11.732,0,0,1,.2,2.715,14.54,14.54,0,0,1-.6,2.843c-.325,1.12-.638,2.212-1,3.314-.063.191.257.222.32.029.341-1.011.623-2,.922-3.025a18.3,18.3,0,0,0,.668-2.867,9.72,9.72,0,0,0-.1-2.684c-.142-.957-.322-1.912-.494-2.876-.223-1.1-.463-2.2-.705-3.315C7193.483,742.058,7193.151,742.213,7193.191,742.4Z" transform="translate(-7176.308 -737.907)" fill="#fff"/>
              <path id="Path_11201" data-name="Path 11201" d="M7219.86,800.643a6.84,6.84,0,0,1-.426,1.795,8.7,8.7,0,0,1-.922,1.74,9.939,9.939,0,0,1-1.3,1.544c-.593.572-1.273,1.067-1.863,1.639-.166.161.05.341.218.179.606-.586,1.31-1.093,1.916-1.683a10.256,10.256,0,0,0,1.355-1.617,7.876,7.876,0,0,0,1.378-3.639C7220.231,800.4,7219.879,800.443,7219.86,800.643Z" transform="translate(-7195.553 -788.045)" fill="#fff"/>
              <path id="Path_11202" data-name="Path 11202" d="M7243.672,851.307a6.869,6.869,0,0,0-.992,2.241,19.519,19.519,0,0,0-.371,2.251c-.11.86-.245,1.712-.415,2.558q-.127.634-.282,1.264c-.1.419-.215.837-.354,1.26a30.319,30.319,0,0,1-1.106,2.928c-.079.18.237.25.317.068q.543-1.241.975-2.518c.143-.425.281-.854.4-1.282s.218-.853.313-1.282q.276-1.264.439-2.545.075-.566.148-1.133c.054-.38.1-.753.179-1.134a6.728,6.728,0,0,1,1.028-2.545C7244.08,851.253,7243.8,851.121,7243.672,851.307Z" transform="translate(-7216.925 -831.683)" fill="#fff"/>
              <path id="Path_11203" data-name="Path 11203" d="M7253.025,924.021a13.144,13.144,0,0,1-1.742.851,12.357,12.357,0,0,0-1.479.8,11.7,11.7,0,0,0-2.5,2.129c-.146.165.111.309.259.143a11.462,11.462,0,0,1,2.507-2.11,11.981,11.981,0,0,1,1.526-.8,11.383,11.383,0,0,0,1.631-.807C7253.425,924.1,7253.224,923.891,7253.025,924.021Z" transform="translate(-7223.047 -894.251)" fill="#fff"/>
              <path id="Path_11204" data-name="Path 11204" d="M7165.785,959.253a23.107,23.107,0,0,0,3.758.557c.66.052,1.333.09,2.01.122l2.02.1c.218.012.307-.267.091-.279-1.323-.073-2.691-.112-3.992-.216a22.78,22.78,0,0,1-3.717-.552C7165.769,958.941,7165.6,959.207,7165.785,959.253Z" transform="translate(-7152.92 -924.348)" fill="#fff"/>
              <path id="Path_11205" data-name="Path 11205" d="M7213.938,1005.915a7.172,7.172,0,0,0,1.888,1.361,10.512,10.512,0,0,0,2.436.891c.2.048.4-.207.2-.255a10.513,10.513,0,0,1-1.242-.369q-.3-.108-.573-.232c-.19-.081-.376-.167-.555-.258a6.9,6.9,0,0,1-1.834-1.321C7214.135,1005.609,7213.82,1005.793,7213.938,1005.915Z" transform="translate(-7194.372 -964.512)" fill="#fff"/>
              <path id="Path_11206" data-name="Path 11206" d="M7267.166,961.478a3.808,3.808,0,0,0-1.5,2.1,7.891,7.891,0,0,1-1.538,2.352c-.148.158.1.315.254.156a8.291,8.291,0,0,0,1.5-2.195c.174-.377.313-.8.525-1.186a2.444,2.444,0,0,1,.952-1.018C7267.563,961.575,7267.371,961.36,7267.166,961.478Z" transform="translate(-7237.51 -926.465)" fill="#fff"/>
            </g>
          </g>
        </g>
        <g id="Group_16321" data-name="Group 16321" transform="translate(23.989 45.286)">
          <g id="Group_16320" data-name="Group 16320">
            <g id="Group_16319" data-name="Group 16319">
              <path id="Path_11207" data-name="Path 11207" d="M7280.662,774.083a14.388,14.388,0,0,1-1.3,1.91,12.966,12.966,0,0,1-1.4,1.607,12.436,12.436,0,0,1-1.332,1.222,14.339,14.339,0,0,1-1.394,1.087,18.532,18.532,0,0,1-1.559,1.079,12.23,12.23,0,0,1-1.654.958,20.1,20.1,0,0,1-1.868.811c-.627.276-1.285.531-1.889.871a16.427,16.427,0,0,0-4.745,3.929c-.449.558-.907,1.109-1.328,1.69a2.616,2.616,0,0,0,1.336-.523c.274-.181.535-.371.791-.566s.5-.395.764-.581c.452-.331.9-.669,1.373-.961a8.113,8.113,0,0,1,1.537-.715,7.109,7.109,0,0,1,1.76-.287,9.147,9.147,0,0,1,.921,0c.313.017.628.044.939.077a17.746,17.746,0,0,1,1.882.291q.942.2,1.854.483a18.234,18.234,0,0,1,1.813.677,17.4,17.4,0,0,1,1.749.85c.125.07.2.3.1.3a1.786,1.786,0,0,0-.907.276,2.554,2.554,0,0,0-.694.607c-.2.246-.388.512-.575.769-.095.125-.187.258-.278.391a4.578,4.578,0,0,1-.294.372,3.237,3.237,0,0,1-.491.45,3.961,3.961,0,0,1-.563.386,6.366,6.366,0,0,1-1.373.527,7.013,7.013,0,0,1-.8.157c-.28.037-.571.065-.868.091a12.6,12.6,0,0,1-1.928-.015,17.384,17.384,0,0,1-2.14-.275,22.994,22.994,0,0,1-2.309-.571,21.971,21.971,0,0,0-2.721-.76,2.094,2.094,0,0,0-2.17.541.132.132,0,0,1-.16.027l-.141.2a7.99,7.99,0,0,1,2.5-.089,27.594,27.594,0,0,1,2.876.524c1.136.248,2.275.544,3.392.862a9.843,9.843,0,0,1,2.855,1.122,21.234,21.234,0,0,0,2.622,1.765c.2.088.231.314.041.238a1.11,1.11,0,0,0-.751-.008c-.205.046-.408.1-.612.15-.408.11-.838.2-1.272.306a6.85,6.85,0,0,1-1.272.156,6.751,6.751,0,0,1-.722-.02,6.581,6.581,0,0,1-.772-.1,10.247,10.247,0,0,1-3.4-1.362,15.5,15.5,0,0,1-1.657-1.247,7.349,7.349,0,0,0-1.889-1.246,3.06,3.06,0,0,0-1.528-.195,3.816,3.816,0,0,0-1.258.429l-.234.365q-1.62,2.6-2.994,5.348a8.364,8.364,0,0,1,2.669-.31.223.223,0,0,1,.044.009,7.847,7.847,0,0,1,1.686-1.113,5.551,5.551,0,0,1,2.146-.52,12.024,12.024,0,0,1,3.425.443c1.174.294,2.345.663,3.481.989.138.04.253.2.164.243a4.935,4.935,0,0,0-1.212.917,10.985,10.985,0,0,1-1.11,1.039,4.166,4.166,0,0,1-1.3.666c-.162.048-.335.085-.512.118a6.964,6.964,0,0,1,1.426,1.294c.143.176.274.347.045.393a4.766,4.766,0,0,1-.8.066,8.957,8.957,0,0,1-1.7-.135,15.953,15.953,0,0,1-1.97-.506l-2.117-.652c-.984.192-1.925.48-2.932.687.7.143,1.408.289,2.11.445a11.936,11.936,0,0,1,2.4.791c1.67.762,3.292,1.649,4.914,2.493.14.073.181.205.046.221-.843.1-1.7.2-2.615.235a12.861,12.861,0,0,1-2.433-.115,12.241,12.241,0,0,1-2.857-.854c-.967-.4-1.914-.894-2.907-1.229a3.794,3.794,0,0,0-1.292-.236,2.747,2.747,0,0,0-1.2.377.193.193,0,0,1-.163,0c-.238.617-.483,1.231-.711,1.852s-.454,1.242-.666,1.869c.613-.169,1.208-.367,1.8-.558a9.13,9.13,0,0,1,3.545-.563,6.194,6.194,0,0,1,3.539,1.366c.113.1.033.209-.118.18a3.7,3.7,0,0,0-1.981.172c-.547.2-1.024.464-1.57.672a6.116,6.116,0,0,1-1.595.371,7.854,7.854,0,0,1-1.846-.052c-.72-.1-1.413-.349-2.129-.5a114.208,114.208,0,0,0-3.868,15.67c-.029.161-.672,0-.644-.163.561-3.12,1.5-6.15,2.283-9.211q.464-1.806.993-3.6a.222.222,0,0,1-.03-.006,7.551,7.551,0,0,1-2.425-1.409,7.839,7.839,0,0,1-2.347-3.8,12.034,12.034,0,0,1-.457-2.246,11.394,11.394,0,0,1-.029-2.241c.01-.125.193-.148.311-.044.656.58,1.315,1.155,1.912,1.761a9.006,9.006,0,0,1,2.255,3.43,19.035,19.035,0,0,1,.611,1.812c.177.6.333,1.2.484,1.794-.055-.213.173-.556.233-.752.084-.264.164-.53.252-.792l.541-1.619.575-1.607a2.514,2.514,0,0,0,.208-2.1,6.688,6.688,0,0,0-2.045-2.042,18.406,18.406,0,0,1-2.608-2.139,9.647,9.647,0,0,1-1.658-2.368,8.453,8.453,0,0,1-.509-1.282,7.291,7.291,0,0,1-.252-1.307,12.547,12.547,0,0,1-.023-1.533,8.4,8.4,0,0,0-.062-1.559.151.151,0,0,1,.243-.125,26.291,26.291,0,0,1,3.143,2.329,12.873,12.873,0,0,1,1.952,2.139,6.9,6.9,0,0,1,1.146,2.342c.4,1.628.063,3.338,1.563,4.829l0-.008a.109.109,0,0,1-.014-.137,1.5,1.5,0,0,1,.139-.161l.389-.929.41-.92c.186-.414.413-.807.618-1.211.1-.2.174-.411.266-.615.177-.394.338-.785.54-1.167a.219.219,0,0,1-.036-.044,10.525,10.525,0,0,0-2.885-2.723,12.117,12.117,0,0,1-2.677-2.689,8.948,8.948,0,0,1-.866-1.568c-.115-.269-.22-.541-.307-.817s-.153-.555-.212-.836a21.706,21.706,0,0,1-.363-3.4c-.032-.574-.073-1.155-.14-1.741a13.446,13.446,0,0,0-.286-1.77.159.159,0,0,1,.262-.151l2.359,1.689a20.971,20.971,0,0,1,1.929,1.486,9.283,9.283,0,0,1,1.383,1.6,17.7,17.7,0,0,1,1.251,2.189,15.59,15.59,0,0,1,.573-7.192,18.514,18.514,0,0,1,5.506-8.218.188.188,0,0,1,.285.12c.174,1.161.371,2.3.6,3.417.222,1.019.512,2.036.692,3.015a5.294,5.294,0,0,1-.026,2.255,5.12,5.12,0,0,1-.364.977c-.141.313-.3.614-.464.906-.182.324-.371.64-.566.951s-.372.633-.562.945l-.571.934-.533.954c-.175.327-.353.648-.5.988s-.288.679-.414,1.025a11.472,11.472,0,0,0-.57,2.15q-.062.367-.126.739c-.038.249-.079.5-.128.738l.378-.637.4-.624a.086.086,0,0,1,.025-.13l.088-.046a53.61,53.61,0,0,1,4.726-6.327c.272-.309.4-.735.649-1.063a4.373,4.373,0,0,0,.576-1.251c.146-.454.28-.915.406-1.388l.368-1.448a13.321,13.321,0,0,1,.766-2.005,8.943,8.943,0,0,1,1.18-1.76,10.222,10.222,0,0,1,1.613-1.444,11.98,11.98,0,0,1,1.895-1.069,14.868,14.868,0,0,1,2.151-.723,19.755,19.755,0,0,1,2.242-.364c.758-.059,1.518-.068,2.259-.065.754.031,1.5.1,2.222.165A.226.226,0,0,1,7280.662,774.083Z" transform="translate(-7245.667 -773.608)" fill="#286069"/>
              <path id="Path_11208" data-name="Path 11208" d="M7412.974,782.314a18.236,18.236,0,0,0-2.235.883c-.371.156-.715.361-1.068.552s-.7.392-1.042.6a20.624,20.624,0,0,0-3.7,3.034c-.306.325-.616.644-.9.986s-.557.7-.826,1.048c-.1.13.152.4.25.274a20.192,20.192,0,0,1,7.2-6.051q.608-.278,1.222-.535c.206-.084.409-.173.617-.248l.634-.206C7413.285,782.6,7413.132,782.263,7412.974,782.314Z" transform="translate(-7381.108 -781.09)" fill="#fff"/>
              <path id="Path_11209" data-name="Path 11209" d="M7332.187,791.038c-.433.989-.908,1.927-1.318,2.89-.21.478-.426.947-.627,1.421s-.382.956-.564,1.431l-.269.713-.233.725c-.151.483-.292.967-.418,1.451s-.215.985-.3,1.48a13.371,13.371,0,0,0-.178,1.5,15.376,15.376,0,0,0-.013,1.711,12.346,12.346,0,0,0,.214,1.726c.036.189.379.25.342.06a14.542,14.542,0,0,1,.188-5.993,31.908,31.908,0,0,1,2.024-5.7c.453-1.066.972-2.113,1.455-3.212C7332.57,791.06,7332.269,790.853,7332.187,791.038Z" transform="translate(-7316.679 -788.534)" fill="#fff"/>
              <path id="Path_11210" data-name="Path 11210" d="M7291.972,880.285c.666.978,1.313,1.975,1.891,2.958q.437.739.833,1.473c.269.49.531.98.774,1.467.094.185.412.15.319-.035-.5-.988-1.031-1.977-1.621-2.977s-1.231-2.006-1.9-3C7292.137,879.984,7291.844,880.1,7291.972,880.285Z" transform="translate(-7285.457 -865.158)" fill="#fff"/>
              <path id="Path_11211" data-name="Path 11211" d="M7382.038,877.786l-.547.057c-.183.022-.361.055-.543.084l-1.1.186c-.376.059-.735.157-1.112.237s-.754.167-1.131.265a12.737,12.737,0,0,1-2.249.444,21.027,21.027,0,0,1-2.655-.005q-.813-.021-1.644-.021c-.554,0-1.115,0-1.666.03-.192.008-.088.306.106.3,1-.048,2.029-.037,3.019-.018.915.013,1.858.091,2.7.039a12.4,12.4,0,0,0,2.241-.378l.563-.148.566-.129,1.108-.251c.426-.088.859-.148,1.279-.218l.626-.1c.209-.029.422-.044.63-.066C7382.367,878.081,7382.179,877.772,7382.038,877.786Z" transform="translate(-7351.964 -863.189)" fill="#fff"/>
              <path id="Path_11212" data-name="Path 11212" d="M7384.675,909.509a8.512,8.512,0,0,1-1.6-.086,11.692,11.692,0,0,1-1.784-.394,14.378,14.378,0,0,1-1.85-.7c-.742-.339-1.472-.77-2.217-1.086-.211-.089-.261.155-.047.244.771.324,1.514.759,2.279,1.1a15.213,15.213,0,0,0,1.938.717,10.914,10.914,0,0,0,3.472.48C7385.029,909.779,7384.84,909.5,7384.675,909.509Z" transform="translate(-7358.632 -888.504)" fill="#fff"/>
              <path id="Path_11213" data-name="Path 11213" d="M7331.627,947.281a5.784,5.784,0,0,0-2.239-.019,9.029,9.029,0,0,0-1.908.59c-1.4.568-2.852,1.147-4.418,1.68-.91.319-1.879.611-2.846.906-.184.055-.018.325.167.269.834-.253,1.663-.507,2.463-.773.4-.133.79-.27,1.177-.408s.777-.272,1.154-.413.731-.279,1.086-.424.717-.28,1.064-.424c.306-.127.609-.253.916-.37a8.159,8.159,0,0,1,.961-.293,5.659,5.659,0,0,1,2.486-.07C7331.9,947.574,7331.837,947.323,7331.627,947.281Z" transform="translate(-7309.702 -922.845)" fill="#fff"/>
              <path id="Path_11214" data-name="Path 11214" d="M7324.368,983.767a16.575,16.575,0,0,1-1.8-.717,13.76,13.76,0,0,0-1.588-.56,11.147,11.147,0,0,0-3.237-.443c-.216,0-.128.277.089.272a10.8,10.8,0,0,1,3.221.443,13.571,13.571,0,0,1,1.62.587,14.326,14.326,0,0,0,1.7.66C7324.595,984.073,7324.595,983.833,7324.368,983.767Z" transform="translate(-7307.536 -952.84)" fill="#fff"/>
              <path id="Path_11215" data-name="Path 11215" d="M7257.327,926.142a14.017,14.017,0,0,0,.854,1.761c.332.572.7,1.13,1.1,1.676a39.347,39.347,0,0,0,2.584,3.148c.146.164.4.029.259-.134a39.581,39.581,0,0,1-2.547-3.118,15.614,15.614,0,0,1-1.923-3.4C7257.573,925.881,7257.251,925.95,7257.327,926.142Z" transform="translate(-7255.684 -904.612)" fill="#fff"/>
              <path id="Path_11216" data-name="Path 11216" d="M7256.042,999.689a7.73,7.73,0,0,0,1.985,4.529c.137.159.445.071.308-.089a7.486,7.486,0,0,1-1.932-4.383C7256.395,999.569,7256.034,999.51,7256.042,999.689Z" transform="translate(-7254.589 -967.919)" fill="#fff"/>
              <path id="Path_11217" data-name="Path 11217" d="M7308.006,1013.474a3.556,3.556,0,0,0-2.458.407,8.948,8.948,0,0,1-2.635.675c-.211.023-.11.29.1.267a9.665,9.665,0,0,0,2.51-.6,3.683,3.683,0,0,1,2.486-.5C7308.244,1013.779,7308.236,1013.531,7308.006,1013.474Z" transform="translate(-7294.792 -979.794)" fill="#fff"/>
            </g>
          </g>
        </g>
        <g id="Group_16323" data-name="Group 16323" transform="translate(9.056 86.411)">
          <path id="Path_11218" data-name="Path 11218" d="M7206.986,1110.889q-.357-13.641-.714-27.274a9.638,9.638,0,0,0-.847-4.5,10.351,10.351,0,0,0-2.236-2.5c-1.4-1.278-3.41-2.86-4.874-4.072-1.071-.882-1.3-3.584-1.327-5.428h-8.965c-.026,1.843-.256,4.546-1.328,5.428-1.463,1.211-3.469,2.793-4.873,4.072a10.527,10.527,0,0,0-2.244,2.5,9.72,9.72,0,0,0-.84,4.5q-.356,13.641-.713,27.274c-.1,3.7.141,8.069,3.246,10.082,1.681,1.085,3.79,1.166,5.788,1.181.2,0,.409.008.609,0h.067c3.707.178,6.493.03,10.215,0,2-.015,4.109-.1,5.78-1.181C7206.845,1118.958,7207.082,1114.589,7206.986,1110.889Z" transform="translate(-7172.556 -1067.118)" fill="#eeb95b"/>
          <g id="Group_16322" data-name="Group 16322" transform="translate(0 14.562)">
            <path id="Path_11219" data-name="Path 11219" d="M7147.658,1197.044a10.9,10.9,0,0,1-5.328-1.384,6.162,6.162,0,0,1-2.812-2.894,8.179,8.179,0,0,1-.412-3.475l.341-11.383a10.842,10.842,0,0,1,.514-3.554,5.573,5.573,0,0,1,3.44-2.99,13.987,13.987,0,0,1,4.044-.3l-.041,1.8a12.557,12.557,0,0,0-3.613.243,3.7,3.7,0,0,0-2.376,2.027,6.027,6.027,0,0,0-.358,2.3l-.466,11.9a6.965,6.965,0,0,0,.3,2.856c.345.823,1.075,1.255,2.171,1.874a9.4,9.4,0,0,0,6.608.971l.327,1.749A10.639,10.639,0,0,1,7147.658,1197.044Z" transform="translate(-7139.088 -1171.047)" fill="#eeb95b"/>
          </g>
        </g>
      </g>
    </g>
  </g>
</svg>
