<svg xmlns="http://www.w3.org/2000/svg" width="20" height="20" viewBox="0 0 20 20">
  <g id="icon_history" transform="translate(0 -4.4)">
    <g id="frame" transform="translate(0 4)">
      <rect id="Rectangle_10683" data-name="Rectangle 10683" width="20" height="20" transform="translate(0 0.4)" fill="none"/>
    </g>
    <g id="_5402415_history_recent_repeat_replay_refresh_icon" data-name="5402415_history_recent_repeat_replay_refresh_icon" transform="translate(1.717 6.322)">
      <path id="Path_18505" data-name="Path 18505" d="M10.231,2A7.924,7.924,0,0,0,4.189,4.795l-1.1-.977a.808.808,0,0,0-1.341.606V7.654a.808.808,0,0,0,.808.808H6.193a.808.808,0,0,0,.533-1.414L5.393,5.861a6.349,6.349,0,0,1,4.846-2.246,6.462,6.462,0,1,1-6.09,8.619.809.809,0,1,0-1.527.533A8.077,8.077,0,1,0,10.231,2Z" transform="translate(-1.75 -2)" fill="#0089d1"/>
      <path id="Path_18506" data-name="Path 18506" d="M15.557,15.2a.911.911,0,0,1-.547-.182l-3.646-2.734A.911.911,0,0,1,11,11.557V7.911a.911.911,0,1,1,1.823,0V11.1L16.1,13.562a.911.911,0,0,1-.547,1.641Z" transform="translate(-3.925 -3.386)" fill="#0089d1"/>
    </g>
  </g>
</svg>
