<svg xmlns="http://www.w3.org/2000/svg" width="20" height="20" viewBox="0 0 20 20">
  <g id="icon_delete" transform="translate(-1286 -717)">
    <path id="Path_1077" data-name="Path 1077" d="M0,0H20V20H0Z" transform="translate(1286 717)" fill="none"/>
    <g id="Group_2385" data-name="Group 2385" transform="translate(1292.011 716.011)">
      <line id="Line_75" data-name="Line 75" x2="16" transform="translate(-4 6)" fill="none" stroke="#f77878" stroke-linecap="round" stroke-linejoin="round" stroke-width="1.5"/>
      <line id="Line_76" data-name="Line 76" y2="6" transform="translate(2 10)" fill="none" stroke="#f77878" stroke-linecap="round" stroke-linejoin="round" stroke-width="1.5"/>
      <line id="Line_77" data-name="Line 77" y2="6" transform="translate(6 10)" fill="none" stroke="#f77878" stroke-linecap="round" stroke-linejoin="round" stroke-width="1.5"/>
      <path id="Path_1078" data-name="Path 1078" d="M5,7,6,19a2,2,0,0,0,2,2h8a2,2,0,0,0,2-2L19,7" transform="translate(-8 -1)" fill="none" stroke="#f77878" stroke-linecap="round" stroke-linejoin="round" stroke-width="1.5"/>
      <path id="Path_1079" data-name="Path 1079" d="M9,7V4a1,1,0,0,1,1-1h4a1,1,0,0,1,1,1V7" transform="translate(-8 -1)" fill="none" stroke="#f77878" stroke-linecap="round" stroke-linejoin="round" stroke-width="1.5"/>
    </g>
  </g>
</svg>
