<svg id="圖層_1" data-name="圖層 1" xmlns="http://www.w3.org/2000/svg" viewBox="0 0 102.4 78.46"><defs><style>.cls-1{fill:#ffdbc2;}.cls-2{fill:#ffede0;}.cls-3{fill:#ff9190;}.cls-4{fill:#d1d6ff;}.cls-5{fill:#fff;}</style></defs><g id="Group_4112" data-name="Group 4112"><g id="Group_4110" data-name="Group 4110"><path id="Path_40742" data-name="Path 40742" class="cls-1" d="M45.31,13.81C40.6,48.58,35.89,63.43,25.57,65.24H72.32c10.32-1.81,15-16.66,19.74-51.43Z"/></g><g id="Group_4111" data-name="Group 4111"><path id="Path_40743" data-name="Path 40743" class="cls-2" d="M56.62,53.29H9.88s.24,11.95,15.7,11.95H72.32C56.86,65.24,56.62,53.29,56.62,53.29Z"/></g></g><g id="Group_4122" data-name="Group 4122"><g id="Group_4117" data-name="Group 4117"><g id="Group_4113" data-name="Group 4113"><circle id="Ellipse_17" data-name="Ellipse 17" class="cls-3" cx="41.89" cy="31.25" r="11.71"/></g><g id="Group_4115" data-name="Group 4115"><g id="Group_4114" data-name="Group 4114"><path id="Path_40744" data-name="Path 40744" class="cls-4" d="M41.54,38.57a1.3,1.3,0,0,1-1-.49l-7.09-8.63a1.33,1.33,0,1,1,2-1.68l6,7.35,9.35-12A1.33,1.33,0,0,1,53,24.76L42.58,38.06a1.31,1.31,0,0,1-1,.51Z"/></g></g><g id="Group_4116" data-name="Group 4116"><path id="Path_40745" data-name="Path 40745" class="cls-5" d="M41.6,37.18a1.33,1.33,0,0,1-1-.48l-7.09-8.64a1.33,1.33,0,0,1,2-1.68l6,7.36,9.35-12A1.33,1.33,0,0,1,53,23.37L42.64,36.67a1.31,1.31,0,0,1-1,.51Z"/></g></g><g id="Group_4119" data-name="Group 4119"><g id="Group_4118" data-name="Group 4118"><rect id="Rectangle_2673" data-name="Rectangle 2673" class="cls-4" x="60.12" y="26.85" width="18.2" height="3.35" rx="1.67"/></g></g><g id="Group_4121" data-name="Group 4121"><g id="Group_4120" data-name="Group 4120"><path id="Path_40746" data-name="Path 40746" class="cls-4" d="M76.11,40.25H57a1.68,1.68,0,0,1-1.68-1.68h0A1.68,1.68,0,0,1,57,36.9H76.11a1.67,1.67,0,0,1,1.67,1.67h0a1.68,1.68,0,0,1-1.67,1.68Z"/></g></g></g></svg>