<svg xmlns="http://www.w3.org/2000/svg" xmlns:xlink="http://www.w3.org/1999/xlink" width="129.022" height="127.387" viewBox="0 0 129.022 127.387">
  <defs>
    <clipPath id="clip-path">
      <rect id="Rectangle_22076" data-name="Rectangle 22076" width="129.022" height="127.387" transform="translate(-13)" fill="none"/>
    </clipPath>
  </defs>
  <g id="image_lemonbg" transform="translate(13)">
    <g id="Group_60360" data-name="Group 60360" clip-path="url(#clip-path)">
      <g id="Group_60362" data-name="Group 60362" transform="translate(-4.309 -2.878)">
        <path id="Path_18269" data-name="Path 18269" d="M43.7,238.659l35.647-13,1.3,3.565a3.794,3.794,0,0,1-2.264,4.865l-28.518,10.4A3.794,3.794,0,0,1,45,242.224Z" transform="translate(-28.97 -155.19)" fill="#f9f9f9"/>
        <rect id="Rectangle_22064" data-name="Rectangle 22064" width="37.945" height="0.19" transform="matrix(0.939, -0.343, 0.343, 0.939, 14.664, 83.291)" fill="#f5f5f5"/>
        <rect id="Rectangle_22065" data-name="Rectangle 22065" width="37.945" height="7.589" transform="matrix(0.939, -0.343, 0.343, 0.939, 12.063, 76.161)" fill="#f9f9f9"/>
        <rect id="Rectangle_22068" data-name="Rectangle 22068" width="37.945" height="0.19" transform="matrix(0.939, -0.343, 0.343, 0.939, 11.998, 75.983)" fill="#f5f5f5"/>
        <rect id="Rectangle_22069" data-name="Rectangle 22069" width="37.945" height="7.589" transform="translate(9.397 68.854) rotate(-20.041)" fill="#f9f9f9"/>
        <rect id="Rectangle_22072" data-name="Rectangle 22072" width="37.945" height="0.19" transform="translate(9.332 68.676) rotate(-20.041)" fill="#f5f5f5"/>
        <rect id="Rectangle_22073" data-name="Rectangle 22073" width="37.945" height="7.21" transform="translate(6.862 61.903) rotate(-20.041)" fill="#f9f9f9"/>
        <path id="Path_18270" data-name="Path 18270" d="M8.493,165.007l.244.671a1.221,1.221,0,0,1-.244-.671" transform="translate(-5.63 -114.983)" fill="#82cddd"/>
        <path id="Path_18271" data-name="Path 18271" d="M17.614,170.51l-.1-.016-.169-.189a.277.277,0,0,1,.273.205" transform="translate(-11.497 -118.495)" fill="#f9e3d2"/>
        <path id="Path_18272" data-name="Path 18272" d="M51.744,119.634l-.036-.086a.218.218,0,0,1,.008-.293,1.6,1.6,0,0,1,.235-.6c.071-.228.144-.279.36-.254a.239.239,0,0,0,.263.049l.223-.08q6.72-2.451,13.438-4.906a3,3,0,0,0,1.124-.627,1.257,1.257,0,0,1,1.614.663l.245.668a.824.824,0,0,1,.1.238q.835,2.286,1.666,4.573a1.292,1.292,0,0,1,.161.436c.011.055-.023.078-.067.093-.14,0-.186-.1-.223-.208-.505-1.451-1.057-2.886-1.57-4.334-.094-.266-.165-.54-.258-.729.253.724.542,1.513.829,2.3q1.007,2.774,2.017,5.547a.64.64,0,0,1,.066.435c-.072.143-.162.22-.313.091a1.328,1.328,0,0,1-.186-.456q-1.47-4.034-2.941-8.067a.758.758,0,0,0-.089-.192c-.015-.022-.029-.045-.043-.067a.694.694,0,0,0-.657-.408.183.183,0,0,1-.131-.04.227.227,0,0,1-.039-.068c-.033-.051-.037-.183-.129-.105a3.37,3.37,0,0,1-.835.379c-.428.2-.875.359-1.318.525-.709.267-1.417.539-2.134.781-.695.235-1.391.469-2.07.738-.917.364-1.866.637-2.779,1.017a10.5,10.5,0,0,1-1.644.594,3.026,3.026,0,0,0-.706.271c-.345.179-.738.228-1.09.392-.545.254-1.131.4-1.694.6-.13.047-.276.079-.348.221a.338.338,0,0,1-.079.128,1.2,1.2,0,0,0-.164.17c-.113.088-.126.248-.24.335-.04.023-.088.02-.147.045.047.048.113.036.154.07a.136.136,0,0,1,.045.123.089.089,0,0,1-.041.05c-.05.019-.112.006-.154.04-.163.134-.3.057-.425-.054" transform="translate(-34.245 -80.337)" fill="#389db7"/>
        <path id="Path_18273" data-name="Path 18273" d="M36.21,179.459a6.041,6.041,0,0,0,1.395-.375c.054-.105.158-.124.259-.147a4.241,4.241,0,0,0,1.156-.426,4.954,4.954,0,0,1,.77-.294c.358-.182.723-.35,1.084-.527a.279.279,0,0,1,.2.033.874.874,0,0,1,.2.471.244.244,0,0,0,.15.323.3.3,0,0,1,.061.089,1.766,1.766,0,0,1,.114.353.352.352,0,0,0,.2.429.313.313,0,0,1,.07.2c-.06.194.051.3.2.384a3.483,3.483,0,0,1,.325.753c-.02.113-.11.208-.091.333a.108.108,0,0,1-.04.055l-5.134,1.88c-.126.046-.25.1-.375.143l-.09.021c-.2-.032-.23-.192-.273-.345-.028-.209-.156-.388-.184-.6-.178-.543-.36-1.084-.533-1.628-.063-.2-.1-.4-.164-.6-.081-.254-.021-.331.241-.424.124.047.221-.036.329-.068a.081.081,0,0,1,.125-.031" transform="translate(-23.522 -123.387)" fill="#272728"/>
        <path id="Path_18274" data-name="Path 18274" d="M37.651,191.125a1.722,1.722,0,0,1,.184.6,1.845,1.845,0,0,1-.184-.6" transform="translate(-24.962 -132.298)" fill="#6a7f78"/>
        <path id="Path_18275" data-name="Path 18275" d="M53.659,118.6l.213-.092a1.119,1.119,0,0,1,.325-.137q1.753-.643,3.508-1.281l10.065-3.671a6.5,6.5,0,0,1,.74-.25c.033.163-.089.223-.2.275-.307.145-.617.282-.937.4q-4.886,1.777-9.768,3.562c-1.142.418-2.29.819-3.421,1.269-.157.062-.327.142-.493.011a.1.1,0,0,1-.032-.084" transform="translate(-35.572 -80.619)" fill="#389cb7"/>
        <path id="Path_18276" data-name="Path 18276" d="M53.514,118.535a.771.771,0,0,0,.64-.027c.791-.355,1.61-.639,2.424-.935q5.578-2.036,11.155-4.077c.232-.085.506-.147.631-.414,0-.032.011-.043.042-.035l.135-.033c-.02.2-.208.289-.338.351a7.507,7.507,0,0,1-.685.317q-6.829,2.49-13.659,4.98c-.151.055-.334.186-.423-.088a.057.057,0,0,1,.077-.04" transform="translate(-35.426 -80.514)" fill="#389cb7"/>
        <path id="Path_18277" data-name="Path 18277" d="M58.131,124.789l-3.839,1.4.034-.056,3.793-1.379c.019,0,.026.007.024.017s-.006.015-.012.017" transform="translate(-35.993 -88.298)" fill="#88c2d2"/>
        <path id="Path_18278" data-name="Path 18278" d="M35.864,104.2c0-.01,0-.02,0-.03a.226.226,0,0,0-.018-.081c-.023-.033-.047-.064-.07-.1l0-.013a.839.839,0,0,0-.09-.19,6.66,6.66,0,0,0-.831-.919,2.2,2.2,0,0,0-.505-.333l-.091-.074a.774.774,0,0,0-.34-.175.336.336,0,0,1-.115-.012,1.771,1.771,0,0,0-.939-.207l-.132-.034a.346.346,0,0,0-.2-.025.3.3,0,0,1-.045.027.823.823,0,0,0-.239.012l-.086-.016a.231.231,0,0,0-.125.052c-.013.017-.028.031-.041.046-.084.007-.123-.084-.181-.132l-.8.293L2.64,112.64l-.758.277c-.151.237-.43.315-.624.5a3.8,3.8,0,0,0-1.2,2.884.772.772,0,0,1-.053.324l.276.756L3,124.85l.308.845.47,1.289,1.151,3.156.146.4.162.445.227.622a.46.46,0,0,0,.37-.222,14.368,14.368,0,0,1,1.407-1.367,31.132,31.132,0,0,1,2.79-2.264c.1-.07.214-.144.2-.3-.137-.155-.318-.084-.484-.09-.076.008-.152.011-.229.012a5.17,5.17,0,0,1-1.583-.357c-.288-.12-.622-.215-.677-.605l-.028-.012c0-.009,0-.017,0-.027a1.12,1.12,0,0,0-.538-.291.2.2,0,0,1-.044,0l-.14-.1c-.015-.028-.029-.057-.045-.084a.248.248,0,0,0-.046-.046l-.031-.016a.476.476,0,0,1-.039-.219.179.179,0,0,0,.03-.037.766.766,0,0,1,.479-.032c.065.016.127.027.167-.039a.218.218,0,0,0,0-.2c-.039-.078-.114-.023-.165,0a.805.805,0,0,1-.5.03l-.014.006,0,0a.2.2,0,0,0-.092-.044.138.138,0,0,0-.044,0l-.089-.066c-.027-.016-.051-.043-.082-.03h0a.52.52,0,0,0-.152-.213.4.4,0,0,0-.113-.067l-.022-.006-.015-.049a.191.191,0,0,0-.126-.2l-.033.015a.093.093,0,0,0-.053-.027.488.488,0,0,0-.185.035,1.832,1.832,0,0,1-2.19-.816,1.726,1.726,0,0,1-.226-.609,1.809,1.809,0,0,1,.617-1.678,1.369,1.369,0,0,1,.287-.2,1.277,1.277,0,0,0,.281-.178.474.474,0,0,0,.011-.368,5.244,5.244,0,0,1-.043-1.672,9.333,9.333,0,0,1,1.178-3.4A5.308,5.308,0,0,1,8.231,113.3c.661-.243,1.323-.482,1.983-.725a.541.541,0,0,0,.285-.159V112.4a.1.1,0,0,0,.032,0l.021.021a.1.1,0,0,0,.131-.037l.111-.046a.215.215,0,0,0,.037.029.245.245,0,0,0,.27-.06c0-.008.011-.014.016-.021l.431-.02a.282.282,0,0,0,.346-.019,8.019,8.019,0,0,1,2.454.179.259.259,0,0,1,.018.037.167.167,0,0,0,.13.039.507.507,0,0,1,.061-.024,4.668,4.668,0,0,1,.715.275.439.439,0,0,0,.347.145,2.215,2.215,0,0,1,.59.341,8.565,8.565,0,0,1,1.3,1.175c0,.026.005.051.007.078.025.056.054.108.13.093l0,0a4.975,4.975,0,0,1,.363.558.15.15,0,0,0,.084.125l.014-.009.023,0a.442.442,0,0,1-.042.032,1.634,1.634,0,0,0,.3.593.189.189,0,0,0,.244.026c.129-.143.036-.284-.011-.418-.351-.981-.716-1.958-1.066-2.94a.25.25,0,0,0-.048-.109.181.181,0,0,0-.054-.017l0,0,.008-.291h0a.946.946,0,0,0,.214-.6h.018c.106-.08.175-.2.305-.257l.077-.04a.165.165,0,0,0,0-.032.093.093,0,0,0,.037.012.265.265,0,0,0,.211-.091.254.254,0,0,0,.035-.062.5.5,0,0,0,.3-.066c1.16-.42,2.319-.845,3.478-1.267l10.06-3.67c.132-.07.309-.061.392-.219.129.072.247-.049.372-.032a.65.65,0,0,0,.149-.035,1.175,1.175,0,0,1,1.444.477.234.234,0,0,0,.161.127h.006l-.029.02c-.032.259.133.457.208.683a1.209,1.209,0,0,1,.165.337c.558,1.521,1.1,3.046,1.671,4.564a.656.656,0,0,0,.114.126l.039.108a.171.171,0,0,1-.02.063.167.167,0,0,0,.194.161,11.225,11.225,0,0,1,1.506.045c.069,0,.138-.005.168-.064l.115.056a1.22,1.22,0,0,0-.088-.389q-1.23-3.363-2.457-6.726a8.42,8.42,0,0,0-.457-1.158M3.558,121.179h0m-.57-8.051a.185.185,0,0,1,.111-.04l-.111.04m3.282.455a.11.11,0,0,1,0-.011l.008.01H6.269m5.839-3.123a.138.138,0,0,1-.09.018l.127-.046c-.012.01-.026.018-.037.028m2.859,2.028s-.017,0-.02-.01l-.008-.01.051.012c-.007,0-.014,0-.022.009M32.4,102.456h.013a.3.3,0,0,1,.08.031.6.6,0,0,1-.093-.03m1.216,2.081s0-.005,0-.008l.009.006-.006,0" transform="translate(0 -73.211)" fill="#d5f6ff"/>
        <path id="Path_18279" data-name="Path 18279" d="M96.306,113.1l-.042.035-.719.246c-.018,0-.026-.007-.024-.016s.006-.015.011-.017l.4-.156c.128-.02.237-.116.376-.091" transform="translate(-63.325 -80.571)" fill="#8ac4d3"/>
        <path id="Path_18280" data-name="Path 18280" d="M45.7,142.515a.479.479,0,0,0-.1.068c-.054.062-.161.118-.114.208.038.071.142.035.22.03a1.839,1.839,0,0,1,.678.048c.11.192.073.285-.139.345-.059.017-.12.025-.181.036a1.7,1.7,0,0,1-.908.111.431.431,0,0,0-.364.133c-.476.429-.924.889-1.42,1.3-.055.045-.1.166-.18.1a.243.243,0,0,1-.058-.281,1.011,1.011,0,0,1,.326-.425c.447-.385.929-.729,1.341-1.156.269-.28.483-.6.726-.9.065-.08.134-.225.255-.147.1.067.077.213.028.326a2.127,2.127,0,0,1-.115.205" transform="translate(-28.59 -99.705)" fill="#facfd4"/>
        <path id="Path_18281" data-name="Path 18281" d="M50.863,154.786a.739.739,0,0,0,.143-.3,1.859,1.859,0,0,1,.045-.421l-.091-.282c.3-.288.527-.259.672.116.367.948.706,1.906,1.049,2.862.017.02.032.042.047.064a1.036,1.036,0,0,0,.412.512.982.982,0,0,0,.706.194c.068,0,.136-.015.2-.021.108.005.206-.079.319-.036.02.192-.086.306-.334.343a1.784,1.784,0,0,1-.968-.143,2.3,2.3,0,0,1-.291-.155.279.279,0,0,0-.291-.024,5.38,5.38,0,0,1-1.367.207.283.283,0,0,1-.2-.058,2.144,2.144,0,0,0-.339-.419c-.14-.116-.113-.282-.089-.452-.091.01-.106.074-.127.126a3.126,3.126,0,0,0-.176.685c-.018.123-.048.234-.19.268a8.911,8.911,0,0,0-1.42.373,6.453,6.453,0,0,1-1.005.259.141.141,0,0,1-.092-.128c.056-.247.333-.226.464-.383.056-.045.115-.085.172-.129a7.712,7.712,0,0,0,.7-.626.422.422,0,0,1,.05-.045,4.391,4.391,0,0,0,.753-.818c.038-.055.072-.112.11-.167a3.8,3.8,0,0,0,.314-.575,1.5,1.5,0,0,1,.815-.827" transform="translate(-31.478 -107.412)" fill="#d5f6fe"/>
        <path id="Path_18282" data-name="Path 18282" d="M22.6,159.6c-.245-.258-.109-.612-.239-.974-.116.417-.46.413-.73.518-.551.215-1.107.419-1.668.607-.218.073-.367.154-.291.414l-.044.016c-.379.138-.437.093-.4-.309a.139.139,0,0,1,.089-.127c.066-.027.133-.052.2-.076q4.79-1.748,9.581-3.493a3.458,3.458,0,0,1,.978-.228.839.839,0,0,0,.475-.218,2.811,2.811,0,0,1,.942-.419.157.157,0,0,1,.134.021c.058.049,0,.1-.026.143s-.034.071-.05.106c-.2-.077-.36.066-.537.112-.416.107-.763.413-1.214.417-.1,0-.133.107-.214.134a4.885,4.885,0,0,1-.873.292c-.143.021-.179.076-.125.2a.446.446,0,0,0,.055.13c.216.231.181.562.316.812s.036.348-.111.527a.889.889,0,0,1-.9.249,1.36,1.36,0,0,1-.5-.2.494.494,0,0,1-.239-.632.552.552,0,0,1,.2-.385c.086.066.156.029.228-.029a.3.3,0,0,1,.306-.056c.081.036.143.086.137.187a.225.225,0,0,1-.1.137c-.092.07-.32-.005-.254.236a.241.241,0,0,1-.006.066c-.089.285-.061.331.226.368.024,0,.053,0,.07.01.3.248.518-.013.753-.131.142-.071.075-.179,0-.249a.327.327,0,0,1-.11-.373c.059-.217-.151-.432-.451-.5-.032.1.051.182.022.277a.087.087,0,0,1-.045.049c-.1.021-.171-.062-.259-.085a.28.28,0,0,0-.259.041.231.231,0,0,1-.253.051c.006-.074.148-.088.1-.166s-.144-.017-.212.007c-.884.321-1.767.646-2.652.965a6.1,6.1,0,0,1-1.08.348c-.072.012-.174.04-.153.144s.112.044.177.054a.6.6,0,0,1,.471.273.348.348,0,0,0-.029.295.367.367,0,0,1-.135.358c-.122.116-.187.088-.247-.1a.818.818,0,0,0,.021-.233c-.031-.143.124-.348-.011-.414a.771.771,0,0,0-.654-.059c-.064.028-.132.047-.232.085.273.069.228.241.169.418-.064.105-.17.182-.2.309a.094.094,0,0,1-.129.068" transform="translate(-12.74 -108.55)" fill="#f9e3d2"/>
        <path id="Path_18283" data-name="Path 18283" d="M58.428,152.114a.762.762,0,0,1-.155-.313q-.484-1.317-.964-2.635c-.107-.293-.1-.293-.39-.192-.067.024-.135.041-.2.062l-.142-.085a3.783,3.783,0,0,0-.1-1.014,12.693,12.693,0,0,0-.314-1.506.434.434,0,0,1,.212.324,1.846,1.846,0,0,0,.276.809.093.093,0,0,1,.012.109c-.154.216-.012.418.03.623.029.139.139.254.072.421-.033.083.046.151.146.107.236-.1.41-.07.505.194a.153.153,0,0,0,.195.094c.088-.028.037-.105.036-.162a1.508,1.508,0,0,0-.014-.375c-.052-.181.028-.244.181-.274a2.353,2.353,0,0,0,.262,1.058c.148.423.307.843.46,1.265.045.124.1.23.249.252.145.108.092.207-.034.266a.442.442,0,0,0-.234.568c.03.146.058.295-.088.4" transform="translate(-37.232 -102.667)" fill="#389db8"/>
        <path id="Path_18284" data-name="Path 18284" d="M54.75,157.139a.425.425,0,0,1-.233.224.914.914,0,0,0-.472.529,5.138,5.138,0,0,1-.383.7c-.1-.207.02-.4.046-.6a2.55,2.55,0,0,0,.095-.311,1.769,1.769,0,0,0-.243.488c-.036.1-.053.217-.185.247l-.032-.01a8.8,8.8,0,0,1,.456-1.141c.024-.075.131-.074.2-.106a.465.465,0,0,0-.03.16c.023.119.067.188.207.089.173-.123.329-.294.573-.271" transform="translate(-35.363 -109.765)" fill="#f9e3d2"/>
        <path id="Path_18285" data-name="Path 18285" d="M51.443,154.611c.044-.192-.17-.36-.053-.576.183.11.173.338.315.458-.025.178-.119.2-.262.118" transform="translate(-34.047 -107.709)" fill="#f9e3d2"/>
        <path id="Path_18286" data-name="Path 18286" d="M49.277,153.019a2.032,2.032,0,0,1-.218-.813c.1.3.336.531.422.839-.064-.035-.128-.073-.2-.026" transform="translate(-32.524 -106.496)" fill="#bed1ce"/>
        <path id="Path_18287" data-name="Path 18287" d="M16.766,168.925a.38.38,0,0,1-.126-.2l.162-.255c.148.008.221.063.131.216-.05.085-.061.2-.168.242" transform="translate(-11.031 -117.277)" fill="#f9e3d2"/>
        <path id="Path_18288" data-name="Path 18288" d="M21.016,169.6c.276-.167.358.078.487.225a1.681,1.681,0,0,1-.487-.225" transform="translate(-13.932 -117.991)" fill="#f9e3d2"/>
        <path id="Path_18289" data-name="Path 18289" d="M57.9,155a.562.562,0,0,1-.045.421A.362.362,0,0,1,57.9,155" transform="translate(-38.324 -108.347)" fill="#f9e3d2"/>
        <path id="Path_18290" data-name="Path 18290" d="M27.339,171.541l-.09.031a.116.116,0,0,0-.113-.072l-1.036.045a4.8,4.8,0,0,1-1.078-.018,1.552,1.552,0,0,0-.411-.018c-.394.042-.729-.181-1.106-.192a.486.486,0,0,1-.193-.082c-.037-.02-.059-.068-.028-.1s.072-.014.11-.02l.15,0a.491.491,0,0,1,.356.059.5.5,0,0,0,.293.057c.127-.035.218.054.322.1s.179.091.283.037a1.709,1.709,0,0,1,.344-.025,1.589,1.589,0,0,1,.463.059.178.178,0,0,0,.215-.052c.1-.119.215-.079.339-.088a2.526,2.526,0,0,0,.936-.075c.13-.06.3-.118.391.008.11.149-.063.246-.147.352" transform="translate(-15.426 -119.024)" fill="#f9e3d2"/>
        <path id="Path_18291" data-name="Path 18291" d="M58.624,129.713l-.223.081c-.17.077-.253.041-.319-.155-.224-.665-.47-1.322-.72-1.977a.429.429,0,0,1,.044-.481.107.107,0,0,0,.033-.018c.071.007.141.011.183-.065a.421.421,0,0,1,.2-.149c.068,0,.1.041.106.1a3.087,3.087,0,0,0,.066.746c.1.407.272.788.4,1.184.059.175.162.215.326.144.08-.034.163-.06.245-.089,3.058-1.116,6.113-2.239,9.176-3.341.72-.259,1.423-.567,2.161-.777a1.139,1.139,0,0,0,.6-.189c.234-.028.4-.2.62-.275.618-.2,1.224-.446,1.842-.654.118-.039.22-.088.234-.23a.569.569,0,0,0-.065-.3q-1.316-3.612-2.634-7.223a.868.868,0,0,0-.131-.276,2.367,2.367,0,0,1-.156-.376.462.462,0,0,1-.041-.36c-.06.092-.133.156-.231.083-.141-.1-.269-.047-.4,0q-6.731,2.462-13.466,4.911a1.917,1.917,0,0,1-.724.207c-.232-.1-.246-.149-.119-.377a10.192,10.192,0,0,1,1.059-.407c.717-.267,1.437-.525,2.156-.788l6.771-2.469c.126-.046.251-.1.381-.131a4.732,4.732,0,0,0,1.179-.419c.277-.092.546-.207.822-.3a3.756,3.756,0,0,0,1.023-.376c.32-.086.611-.247.924-.351a.39.39,0,0,1,.253-.029.677.677,0,0,1,.791.375.828.828,0,0,0,.028.532c.632,1.815,1.309,3.614,1.965,5.421.288.792.571,1.585.818,2.246-.2-.575-.439-1.282-.7-1.977-.628-1.641-1.208-3.3-1.817-4.945-.127-.345-.15-.722-.293-1.065A.214.214,0,0,1,71,115a1.04,1.04,0,0,1,.182.4q1.506,4.112,3.007,8.226c.027.073.059.146.088.218.105.115.061.2-.062.254a1,1,0,0,1-.249.064.7.7,0,0,0-.2.085c-.256.106-.51.214-.77.309q-6.814,2.483-13.627,4.97c-.171.062-.342.123-.518.169a.317.317,0,0,1-.229.018" transform="translate(-36.826 -81.548)" fill="#ecfbfe"/>
        <path id="Path_18292" data-name="Path 18292" d="M77.259,139.715l4.89-1.784a.534.534,0,0,0,.332-.26,3.531,3.531,0,0,1,.329-.376c.049-.062.105-.094.012-.162a.176.176,0,0,1-.023-.255,1.277,1.277,0,0,0,.105-.344.628.628,0,0,0-.053-.47q-.5-1.387-1.012-2.773c-.055-.151-.08-.319-.239-.418a.128.128,0,0,1-.026-.173l.081-.03q.705,1.924,1.411,3.847c.024.066.054.13.081.2a.22.22,0,0,1,.09.105,1.268,1.268,0,0,1-.5,1.281c-.053.027-.112.071-.167,0-.014-.057.013-.108.046-.206a1.092,1.092,0,0,1-.421.307c-.868.354-1.748.675-2.626,1-.377.14-.764.244-1.15.351a.438.438,0,0,0-.337.26,8.241,8.241,0,0,1-.982.388,2.641,2.641,0,0,0-.327.132q-1.352.507-2.712.991c-.335.09-.651.233-.979.342a.62.62,0,0,1-.3.065.3.3,0,0,0-.287-.026c-1.533.614-3.1,1.142-4.645,1.719a.31.31,0,0,1-.068.02c-.093.01-.206.044-.251-.064s.1-.1.134-.165q2.226-.812,4.45-1.625a4.675,4.675,0,0,0,.724-.263,1.462,1.462,0,0,0,.83-.243,7.653,7.653,0,0,1,1.08-.413c.346-.1.673-.269,1.017-.387a8.626,8.626,0,0,1,.876-.292,4.288,4.288,0,0,0,.613-.276" transform="translate(-44.767 -93.546)" fill="#389db8"/>
        <path id="Path_18293" data-name="Path 18293" d="M54.322,120.567a1.311,1.311,0,0,0,.39-.09q6.909-2.523,13.82-5.041c.159-.058.333-.192.481.032.024.036.074.014.1-.019s.02-.073-.02-.1c-.071-.044-.064-.1-.027-.162.016-.026.036-.06.073-.044.067.028.077.1.088.157.029.151-.026.315.069.456-.022.006-.047.024-.067.006-.3-.267-.586-.162-.931-.029a35.18,35.18,0,0,1-3.662,1.3c-.092.024-.18.06-.269.093q-4.29,1.564-8.578,3.132c-.473.174-.928.394-1.415.538-.32.095-.356.225-.24.542.3.821.613,1.638.892,2.468.051.15.187.229.266.353-.079.161-.181.068-.263.013a.665.665,0,0,1-.214-.359c-.263-.718-.528-1.434-.784-2.154a4.122,4.122,0,0,1-.236-.582c-.022.093.011.23-.138.25-.081.011-.131-.042-.124-.132l-.048-.121c-.047-.053-.025-.1.008-.152.058-.119.066-.268.2-.339.13-.095.228.082.351.041.093-.005.17-.089.27-.057" transform="translate(-35.441 -81.924)" fill="#ecfcff"/>
        <path id="Path_18294" data-name="Path 18294" d="M53.626,132.327c.032.055.064.12.143.089s.055-.087.044-.143a.368.368,0,0,1,.155-.339c-.117.278.093.458.171.674.292.807.587,1.612.881,2.419.062.171.138.323.362.3.11-.02.193.047.285.087.094.068.211.116.222.256-.078.177-.21.174-.343.085a1.818,1.818,0,0,0-.46-.229c-.14-.044-.2-.158-.272-.274s-.1-.289-.277-.323L53.6,132.36l.029-.034" transform="translate(-35.533 -93.057)" fill="#ecfbfe"/>
        <path id="Path_18295" data-name="Path 18295" d="M101.109,115.771c.284.855.491,1.732.822,2.574.407,1.034.748,2.095,1.156,3.129.34.863.6,1.753.944,2.612.04.1.1.2.03.317-.1,0-.1-.091-.117-.148q-1.474-4.033-2.946-8.066a.353.353,0,0,1,.1-.446.025.025,0,0,1,.015.028" transform="translate(-66.933 -82.323)" fill="#ecfcff"/>
        <path id="Path_18296" data-name="Path 18296" d="M54.731,128.08l3.528-1.274c.018,0,.026.007.024.016s-.006.015-.011.017l-3.011,1.106c-.081.03-.161.062-.242.093a.318.318,0,0,1-.242.148.151.151,0,0,1-.12-.025l.074-.081" transform="translate(-36.234 -89.657)" fill="#87cad5"/>
        <path id="Path_18297" data-name="Path 18297" d="M110.2,142.1a.633.633,0,0,1,.193-.074c.157-.005.151-.09.119-.2.118.041.144-.065.2-.124.013.036.024.074.041.109.133.275.071.367-.256.383-.054,0-.108,0-.162,0-.048-.026-.129-.006-.134-.094" transform="translate(-73.057 -99.535)" fill="#389db8"/>
        <path id="Path_18298" data-name="Path 18298" d="M94.986,115.023l1.336-.493.019.033c-.391.138-.76.334-1.163.441a.32.32,0,0,1-.161.071.038.038,0,0,1-.031-.052" transform="translate(-62.969 -81.519)" fill="#87cad5"/>
        <path id="Path_18299" data-name="Path 18299" d="M54.335,130.777l.1-.024a.19.19,0,0,1,.1.261c-.046.042-.087.1-.149.017a.259.259,0,0,0-.2-.1.278.278,0,0,1,.163-.155" transform="translate(-35.913 -92.274)" fill="#ecfbfe"/>
        <path id="Path_18300" data-name="Path 18300" d="M110.918,146.062a1.181,1.181,0,0,0,.557-1.4c.2-.022.2.137.214.262a1.7,1.7,0,0,1-.179.83h0a1.507,1.507,0,0,1-.921.753c-.13.005-.272.036-.332-.133a.131.131,0,0,1,.036-.07,1.487,1.487,0,0,1,.625-.24" transform="translate(-73.095 -101.492)" fill="#e7f5f2"/>
        <path id="Path_18301" data-name="Path 18301" d="M55.64,186.878l.053.132-.027.1-.115.054c-.052-.12-.082-.234.088-.287" transform="translate(-36.801 -129.482)" fill="#272828"/>
        <path id="Path_18302" data-name="Path 18302" d="M33.581,166.514a.343.343,0,0,0-.27-.035c-.164.017-.318.077-.48.1a.568.568,0,0,0-.5.547,1.174,1.174,0,0,1-.123.38.5.5,0,0,1-.841.234c-.243-.16-.485-.323-.711-.507-.071-.058-.14-.144-.246-.119h0a.168.168,0,0,0-.088-.115l-.049-.133c-.1-.042-.167.049-.253.066a3.786,3.786,0,0,0-.452.232,2.491,2.491,0,0,1-.46.249,6.821,6.821,0,0,1-.674.286c-.429.157-.864.3-1.287.478-.325.1-.666.136-.991.238a.2.2,0,0,0-.091.082,4.82,4.82,0,0,1-.727.121l0-.005c-.1-.107-.237-.067-.358-.065a8.391,8.391,0,0,1-1.531-.025,6.152,6.152,0,0,1-1.574-.394c-.071-.032-.153-.062-.222,0s-.032.144,0,.216a.469.469,0,0,1,0,.323c-.041.168-.121.324-.164.492a.482.482,0,0,0,.315.471,4.958,4.958,0,0,0,2.195.53,1.833,1.833,0,0,1,.466.033,10.6,10.6,0,0,1,1.336-.26c.183-.037.244.027.247.193,0,.063,0,.125,0,.188a10.464,10.464,0,0,0,.12,1.542c.03.22.093.308.311.263.108.112.209.057.31-.013a.07.07,0,0,0,.027-.057l.112-.028a.117.117,0,0,0,.069.051,3.458,3.458,0,0,0,1.315-.373.113.113,0,0,0,.023-.056l.26-.08a9.9,9.9,0,0,0,1.171-.426l.792-.306a8.409,8.409,0,0,0,1.068-.537c.171-.186.022-.3-.1-.413l-.147-.248a.091.091,0,0,1,.06-.126.751.751,0,0,1,.117.017,1.935,1.935,0,0,0,2.133-1.056,2.613,2.613,0,0,0,.161-1.614c-.018-.148-.065-.32-.269-.345m-6.5,2.6,0,0v0h0" transform="translate(-14.244 -115.952)" fill="#f6f6f6"/>
        <path id="Path_18303" data-name="Path 18303" d="M51.377,177.02c.064-.16-.029-.283-.1-.413.272.136.323.223.244.417a.19.19,0,0,1-.147,0" transform="translate(-33.996 -122.673)" fill="#c4e9df"/>
        <path id="Path_18304" data-name="Path 18304" d="M42.578,180.757l1.171-.426a4.014,4.014,0,0,1-1.171.426" transform="translate(-28.227 -125.142)" fill="#98a09e"/>
        <path id="Path_18305" data-name="Path 18305" d="M53.515,181.64l.131.352c-.2-.06-.286-.179-.185-.385a.078.078,0,0,1,.054.033" transform="translate(-35.414 -125.988)" fill="#272828"/>
        <path id="Path_18306" data-name="Path 18306" d="M54.26,183.414c.049.118.166.2.175.339-.2-.04-.255-.149-.175-.339" transform="translate(-35.947 -127.186)" fill="#272828"/>
        <path id="Path_18307" data-name="Path 18307" d="M52.485,179.4c.1.053.1.166.135.255-.144-.032-.283-.067-.135-.255" transform="translate(-34.753 -124.527)" fill="#272828"/>
        <path id="Path_18308" data-name="Path 18308" d="M53.323,180.828l-.054-.033-.141-.413a1.124,1.124,0,0,1,.194.446" transform="translate(-35.223 -125.176)" fill="#57615e"/>
        <path id="Path_18309" data-name="Path 18309" d="M59.623,130.441l-.033-.092a.227.227,0,0,1-.1-.186c.149-.086.157-.083.333.122-.082-.281-.188-.371-.343-.288a.049.049,0,0,1-.06,0l-.208-.27c-.149-.114-.351-.159-.441-.347.115-.225.247-.1.352,0,.251.226.246.232.475-.03a.514.514,0,0,0-.065-.318c-.292-.8-.571-1.615-.886-2.411a.8.8,0,0,1,.168-.985c.068-.064.106-.157.193-.2a.182.182,0,0,1,.129-.011.428.428,0,0,0,.406.022c.322-.11.613-.292.939-.4,1.953-.616,3.856-1.374,5.786-2.057.307-.109.586-.277.893-.383.113-.038.149-.133.19-.227a.187.187,0,0,1,.125-.09c.1-.02.145.079.224.1a.244.244,0,0,0,.308-.263.157.157,0,0,1,.086-.062.594.594,0,0,1,.525.134c.257.076.3.311.386.515.032.078.081.183-.012.231-.12.062-.149-.062-.191-.14a.4.4,0,0,0-.158-.243c-.123-.094-.223.033-.336.036a1.41,1.41,0,0,0-.4.069c-1.744.607-3.474,1.253-5.208,1.888-.9.378-1.832.657-2.74,1.005a3.865,3.865,0,0,0-.463.157c-.358.128-.437.3-.31.665a.453.453,0,0,1,.044.318c-.253.02-.231-.212-.332-.339.484,1.288.858,2.617,1.428,3.874.006.022.022.052.012.067a1.655,1.655,0,0,0-.141.7c-.112.092-.2.058-.224-.071-.032-.173-.114-.259-.294-.239a.3.3,0,0,1-.065-.252" transform="translate(-38.819 -86.503)" fill="#ecfbfe"/>
        <path id="Path_18310" data-name="Path 18310" d="M58.177,141.724c-.025.019-.059.033-.072.057-.116.214-.274.219-.409,0-.086-.137-.174-.25-.347-.112-.044.044-.072,0-.1-.019l-.2-.121a.765.765,0,0,0-.3-.165.337.337,0,0,1-.193-.158,1.541,1.541,0,0,1-.1-.322l-.066-.225c.079-.091.151-.121.2.023a1.335,1.335,0,0,0,.056.13.677.677,0,0,0,.512.456.393.393,0,0,1,.244.134c.11.136.208.106.3-.014.216-.038.335.044.475.33" transform="translate(-37.38 -98.794)" fill="#ecfcff"/>
        <path id="Path_18311" data-name="Path 18311" d="M62.014,147.465c.178-.184.169-.176.275.058.036.078-.071.3.176.231a1.64,1.64,0,0,1-.146.913.112.112,0,0,1-.158.055.1.1,0,0,0-.105-.012.091.091,0,0,1-.046-.12,1.3,1.3,0,0,0,.025-.775c-.047-.073-.013-.156-.03-.233.005-.039-.03-.081.009-.117" transform="translate(-41.1 -103.268)" fill="#ecfcff"/>
        <path id="Path_18312" data-name="Path 18312" d="M61.587,148.756a.689.689,0,0,1,.034.759c-.022.034-.009.09-.013.135a.266.266,0,0,1-.146.154c-.1.042-.128-.024-.142-.1l.077-.218a2.339,2.339,0,0,1,.152-.61l.038-.115" transform="translate(-40.652 -104.209)" fill="#ecfcff"/>
        <path id="Path_18313" data-name="Path 18313" d="M61.1,148.955a.9.9,0,0,1-.151.61.52.52,0,0,0-.219-.318.2.2,0,0,1,.029-.349c.043-.024.088-.025.092.021.033.37.156.1.249.036" transform="translate(-40.205 -104.292)" fill="#389db8"/>
        <path id="Path_18314" data-name="Path 18314" d="M58.939,143.755l.1.019a1.253,1.253,0,0,1,.427.347.57.57,0,0,1-.532-.365" transform="translate(-39.074 -100.894)" fill="#399db8"/>
        <path id="Path_18315" data-name="Path 18315" d="M56.982,142.538c.167.074.373.084.456.29a1.409,1.409,0,0,1-.413-.152.122.122,0,0,1-.043-.138" transform="translate(-37.771 -100.087)" fill="#ecfbfe"/>
        <path id="Path_18316" data-name="Path 18316" d="M61.041,145.64a.3.3,0,0,0,.042.007.084.084,0,0,1,.058.117l.065.225c-.243-.09-.243-.09-.165-.349" transform="translate(-40.436 -102.143)" fill="#399db8"/>
        <path id="Path_18317" data-name="Path 18317" d="M61.716,147.206c0,.039-.006.078-.009.117-.156-.092-.216-.211-.1-.377l.111.26" transform="translate(-40.802 -103.009)" fill="#399db8"/>
        <path id="Path_18318" data-name="Path 18318" d="M61.214,151.556l.142.1c-.05.17-.118.142-.2.019l.054-.124" transform="translate(-40.546 -106.065)" fill="#ecfcff"/>
        <path id="Path_18319" data-name="Path 18319" d="M59.254,152.243c.036-.09.057-.167.146-.184.036-.007.057.022.047.058-.024.094-.107.1-.193.126" transform="translate(-39.283 -106.398)" fill="#389db8"/>
        <path id="Path_18320" data-name="Path 18320" d="M56.72,141.84l.043.137a.726.726,0,0,1-.184-.492l.141.355" transform="translate(-37.51 -99.389)" fill="#8ac8d9"/>
        <path id="Path_18321" data-name="Path 18321" d="M75.727,113.846l.013.033c-.37.137-.74.275-1.111.411l-8.679,3.166c-.1.035-.194.067-.291.1l-.012-.033c.088-.034.176-.07.265-.1l9.5-3.466c.1-.038.209-.072.313-.108" transform="translate(-43.521 -81.065)" fill="#87c2d2"/>
        <path id="Path_18322" data-name="Path 18322" d="M26.376,135.887c-.069.025-.111-.03-.161-.057l-.315-.588-.02-.011a.153.153,0,0,0-.061-.093.108.108,0,0,0,.006-.068.842.842,0,0,0-.389-.5c-.064-.014-.077-.069-.093-.12a1.3,1.3,0,0,0-.125-.22,7.5,7.5,0,0,0-1.35-1.169.755.755,0,0,0-.44-.205.344.344,0,0,1-.038.02.824.824,0,0,0-.292-.123l-.012-.024a1.3,1.3,0,0,0-.808-.286c-.035.01-.07.019-.1-.016a.468.468,0,0,0-.223-.126,7.5,7.5,0,0,0-2.26-.11.173.173,0,0,0-.053.049l-.3.016a.078.078,0,0,0-.014-.028.444.444,0,0,0-.443.049c-.1.016-.183.075-.285.042a.115.115,0,0,0-.125.009c-.024,0-.032.03-.041.055l-.08.023h0a.039.039,0,0,0-.045-.024.04.04,0,0,1-.035.008l-2.628.956a1.989,1.989,0,0,0-.263.107,5.55,5.55,0,0,0-2.422,2.279,9.348,9.348,0,0,0-1.2,3.725,8.259,8.259,0,0,0,.116,1.712,1.314,1.314,0,0,0,.211.753c.032.031.066.061.1.093a.7.7,0,0,0,.09.149.24.24,0,0,1,0,.1.321.321,0,0,0,.074.165q.055.056.107.112l.413.731a1.225,1.225,0,0,1,.02.14.367.367,0,0,0,.151.214.427.427,0,0,1,.083.041c.182.215.284.485.473.7l.157-.057a.465.465,0,0,0,.129.031,1.539,1.539,0,0,0,.34-.1l1.65-.6q4.212-1.536,8.424-3.075c.153-.056.326-.084.423-.241a.507.507,0,0,0-.107-.391,1.137,1.137,0,0,1-.068-.2.334.334,0,0,0-.018-.251c-.01-.029-.023-.057-.036-.086a1.546,1.546,0,0,0,.257.363,1.419,1.419,0,0,1,.133.266c.057.214.157.223.307.088.145-.175-.067-.35-.019-.5.066.137.077.321.281.382a.62.62,0,0,0,.253-.03c.41-.154.821-.306,1.232-.458l.2-.012a.229.229,0,0,0,.085-.252,17.592,17.592,0,0,0-.427-2.293c-.109-.36-.32-.68-.412-1.047m-1.406-.193c-.006.111-.1.2-.089.313-.141,0-.2.1-.239.216-.027.087.047.138.119.141a3.355,3.355,0,0,0,.81,0c.02.156-.024.27-.206.3a.147.147,0,0,0-.112.072l0,.01a3.778,3.778,0,0,0-.876.108c0-.006-.006-.01-.009-.017-.145-.09-.261-.006-.362.077a6.42,6.42,0,0,0-.528.472,11.745,11.745,0,0,1-.893.809c-.038.033-.082.1-.14.049s-.019-.1,0-.154a.972.972,0,0,1,.339-.415,8.929,8.929,0,0,0,1.771-1.694,4.089,4.089,0,0,1,.272-.357c.026-.029.058-.063.1-.048s.049.072.046.12m-12.137,2.741a.084.084,0,0,1,.011-.026l-.011.026m9.907-2.824a.053.053,0,0,1,.074-.007c-.03.037-.058.077-.085.117a.088.088,0,0,1,.011-.11m-1.52,1.369v0c0-.032.021-.031.043-.018l-.043.022m2.312-2.415a.269.269,0,0,1,.077.048c-.027.015-.051-.006-.077-.048m1.479.2,0-.006,0,.006m-.565,4.519a1.131,1.131,0,0,1-.115-.351,1.9,1.9,0,0,0,.115.351" transform="translate(-7.79 -93.196)" fill="#4ea9c7"/>
        <path id="Path_18323" data-name="Path 18323" d="M29.216,166.612c.024-.019.069-.038.069-.055-.008-.176.115-.262.232-.353l.024-.024c.118,0,.228.052.345.065.086.01.181.029.21.125s-.049.141-.1.2a.4.4,0,0,0-.091.106c.137-.083.2-.279.4-.256,0,.051-.03.114.046.138.056.018.086-.03.112-.065.084-.111.18-.218.088-.374-.074-.127-.02-.2.115-.236l.1.267a.519.519,0,0,0-.016.164c0,.1.133.2.042.284-.139.126-.21.313-.389.4a.524.524,0,0,1-.461.031s.008.055.019.025c0-.009.011,0,.023,0,.06,0,.09.037.076.092-.049.189-.249.13-.366.214-.071.05-.162-.012-.19-.091a.747.747,0,0,0-.27-.421.121.121,0,0,1-.028-.131.1.1,0,0,1,.012-.105" transform="translate(-19.355 -115.562)" fill="#f9e3d2"/>
        <path id="Path_18324" data-name="Path 18324" d="M29.178,167.242c.088.215.34.321.379.573a.086.086,0,0,0,.14.029c.077-.1.253-.04.288-.173.026-.1-.074-.038-.115-.051s-.115-.019-.118-.091a.107.107,0,0,1,.036-.081c.052-.033.082.022.121.043.2.116.469-.045.614-.188a.692.692,0,0,0,.188-.594c0-.012.018-.025.028-.037.027.122.048.245.083.364s-.057.21-.126.285a4.473,4.473,0,0,1-.43.4,1.686,1.686,0,0,1-.712.212.156.156,0,0,1-.175-.157.453.453,0,0,0-.178-.36.134.134,0,0,1-.023-.174" transform="translate(-19.33 -116.087)" fill="#f9e3d2"/>
        <path id="Path_18325" data-name="Path 18325" d="M24.733,171.116a.358.358,0,0,1-.412-.044c-.073-.067-.164-.03-.237-.072.255-.175.44.038.649.116" transform="translate(-15.967 -118.911)" fill="#f9e3d2"/>
        <path id="Path_18326" data-name="Path 18326" d="M28.146,171.5c-.112.05-.219.17-.345.025.088-.228.114-.23.345-.025" transform="translate(-18.431 -119.188)" fill="#f9e3d2"/>
        <path id="Path_18327" data-name="Path 18327" d="M52.092,161.414a.53.53,0,0,1,.422-.507.114.114,0,0,1-.016.168c-.139.109-.237.266-.406.338" transform="translate(-34.535 -112.265)" fill="#f9e3d2"/>
        <path id="Path_18328" data-name="Path 18328" d="M69.458,159.675a.353.353,0,0,1-.281.3c-.459.156-.9.355-1.353.533-.761.3-1.525.6-2.308.834a6.76,6.76,0,0,1-1.267.421,2.493,2.493,0,0,1-1.273-.093,1.781,1.781,0,0,1-.657-.354.327.327,0,0,1,.37.056,1.7,1.7,0,0,0,1.141.279.38.38,0,0,0,.38-.262c.033-.108.133-.129.22-.16q2.327-.852,4.656-1.7a.935.935,0,0,1,.277-.053c.07-.026.111.009.141.067a.175.175,0,0,1,.011.082.053.053,0,0,1-.058.047" transform="translate(-41.314 -111.312)" fill="#c1eade"/>
        <path id="Path_18329" data-name="Path 18329" d="M66.858,160.691l-.119.153a.493.493,0,0,0,.346-.034q2.15-.785,4.3-1.571a3.073,3.073,0,0,0,.336-.17c.124-.064.212-.043.245.1-.054.081-.148.085-.226.113q-2.454.9-4.909,1.792c-.077.082-.21-.049-.278.071l-.021.022c-.066.007-.129.049-.2.021-.009-.077-.018-.153-.026-.23s.028-.15.111-.143a1.113,1.113,0,0,0,.442-.128" transform="translate(-43.958 -111.024)" fill="#389db8"/>
        <path id="Path_18330" data-name="Path 18330" d="M55.1,164.118a.579.579,0,0,0-.009-.3c.128-.182.071-.41.152-.606.06-.144.09-.3.151-.443.029-.066.092-.142.188-.1s.04.12.017.182a.3.3,0,0,0,.122.39.545.545,0,0,1,.248.355.519.519,0,0,0-.107.389l-.761.128" transform="translate(-36.521 -113.427)" fill="#f8e4d2"/>
        <path id="Path_18331" data-name="Path 18331" d="M67.126,160.5l5.261-1.926,1.252-.442c.022.079-.032.122-.088.144-.3.122-.61.235-.92.336a.207.207,0,0,1-.137-.019l-4.778,1.743c-.148.054-.295.113-.442.17-.108.018-.2.107-.322.067l-.012-.016a.149.149,0,0,1,.185-.056" transform="translate(-44.38 -110.426)" fill="#9bd2dc"/>
        <path id="Path_18332" data-name="Path 18332" d="M51.615,162.716a.524.524,0,0,1,.208-.326.679.679,0,0,0,.242-.327c.044-.154.232-.13.351-.2a3,3,0,0,1-.8.849" transform="translate(-34.218 -112.901)" fill="#f9e3d2"/>
        <path id="Path_18333" data-name="Path 18333" d="M49.477,165.044c-.007-.217-.018-.411.3-.427.145-.007.247-.2.417-.235a3.834,3.834,0,0,1-.72.662" transform="translate(-32.8 -114.568)" fill="#f9e3d2"/>
        <path id="Path_18334" data-name="Path 18334" d="M62.932,163.383c.236-.015.371.167.522.293.1.081-.056.145-.1.216a.992.992,0,0,1-.424-.509" transform="translate(-41.72 -113.906)" fill="#389db8"/>
        <path id="Path_18335" data-name="Path 18335" d="M46.923,167.117a.245.245,0,0,1,.193-.316c.167-.047.313-.173.5-.134-.117.176-.349.182-.486.329l-.21.122" transform="translate(-31.102 -116.078)" fill="#f9e3d2"/>
        <path id="Path_18336" data-name="Path 18336" d="M29.585,165.714c-.021-.271-.021-.271-.288-.372a1.2,1.2,0,0,1,1.051-.145c.1.022.163.075.111.2a1.559,1.559,0,0,0-.06.32,2.122,2.122,0,0,1-.686-.022c-.043,0-.087-.04-.125.01Z" transform="translate(-19.424 -115.072)" fill="#f9e3d2"/>
        <path id="Path_18337" data-name="Path 18337" d="M30.157,166.658a.077.077,0,0,1,.091-.084,6.972,6.972,0,0,1,.721.1.207.207,0,0,1-.024.206c-.129.113-.257.227-.387.339-.038.033-.069.11-.131.063s-.011-.115.021-.163c.069-.1.2-.15.258-.278-.169-.112-.391-.052-.549-.178" transform="translate(-19.994 -116.021)" fill="#484443"/>
        <path id="Path_18338" data-name="Path 18338" d="M44.857,160.911c.026.013.085-.037.078.038a.634.634,0,0,1-.163.3c-.035.119.059.154.131.2s.225-.04.247.122a.044.044,0,0,1-.04.032c-.188-.005-.375-.007-.563-.019-.082,0-.181,0-.193-.124h0c.005-.174.161-.212.267-.295,0-.058.062-.065.093-.1.018-.057.033-.117.106-.129l.038-.029" transform="translate(-29.405 -112.264)" fill="#3c3836"/>
        <path id="Path_18339" data-name="Path 18339" d="M44.025,160.631a.68.68,0,0,0-.352.194c-.107.132-.131-.035-.171-.1a1.343,1.343,0,0,0,.29-.131c.108-.083.165-.025.233.041" transform="translate(-28.84 -112.027)" fill="#f9e3d2"/>
        <path id="Path_18340" data-name="Path 18340" d="M44.471,161.679c-.054.129-.2.173-.266.295-.139-.227-.108-.262.266-.295" transform="translate(-29.255 -112.776)" fill="#f9e3d2"/>
        <path id="Path_18341" data-name="Path 18341" d="M45.284,160.848a.186.186,0,0,1-.106.129l-.124-.2a.228.228,0,0,1,.23.072" transform="translate(-29.868 -112.172)" fill="#f9e3d2"/>
        <path id="Path_18342" data-name="Path 18342" d="M80.26,142.882l.134.094c-.239-.042-.34.2-.528.265-.091.033-.18.094-.276.129q-7.039,2.568-14.076,5.137a1.029,1.029,0,0,1-.463.066c-.039-.107.024-.129.11-.134a1.514,1.514,0,0,0,.48-.124q6.875-2.506,13.748-5.017a1.97,1.97,0,0,0,.691-.351l.181-.066" transform="translate(-43.117 -100.315)" fill="#389db8"/>
        <path id="Path_18343" data-name="Path 18343" d="M87.715,153.57a1.6,1.6,0,0,1-.67.348,6.718,6.718,0,0,0-1.55.552c-.3.139-.632.168-.931.317-.152.076-.309.147-.46.227a1.034,1.034,0,0,1-.8.167c.01-.033.037-.064.067-.053.236.09.4-.062.581-.162a1.677,1.677,0,0,1,.237-.106q1.47-.538,2.94-1.073a2.552,2.552,0,0,1,.592-.216" transform="translate(-55.223 -107.4)" fill="#389db8"/>
        <path id="Path_18344" data-name="Path 18344" d="M64.863,159.334l-.057.121c-.109.06-.127-.009-.135-.093l.179-.065c.013,0,.019.012.019.021s0,.015-.005.016" transform="translate(-42.873 -111.197)" fill="#389db8"/>
        <path id="Path_18345" data-name="Path 18345" d="M57.526,128c.216-.056.172-.274.2-.4a4.949,4.949,0,0,0,.107-.566.686.686,0,0,0-.027-.225c-.019-.125-.112-.282.11-.34.04-.011.031-.081.018-.126s.075.021.051-.03a2.145,2.145,0,0,1-.1-.524c-.011-.053-.007-.141.1-.094a.907.907,0,0,1,.177.369c.128.277.339.34.7.207,2.239-.832,4.486-1.64,6.729-2.461.512-.187,1.022-.382,1.539-.556a.568.568,0,0,0,.511-.6c.176-.069.2.058.216.176a.992.992,0,0,1-.054.348.229.229,0,0,1-.031.062c-.039.05-.1.064-.154.1.038.011.072-.009.107,0a.109.109,0,0,1,.058.029.3.3,0,0,0,.221.216c.105.037.234.082.16.246a2.108,2.108,0,0,0-.843.122c-1.236.448-2.469.9-3.7,1.349a1.174,1.174,0,0,0-.236.111.324.324,0,0,1-.086.031,1.22,1.22,0,0,0-.316.091l-3.261,1.19c-.209.086-.431.14-.635.237a.773.773,0,0,0-.481.452.643.643,0,0,0,.233.556.981.981,0,0,1,.141.383c.008.062-.013.126,0,.186a.494.494,0,0,0,.232.36c.126.06.247-.054.354-.13.036-.026.062-.069.1-.1a1.782,1.782,0,0,1,.286-.115l7.766-2.834c.074-.027.149-.052.222-.083.321-.138.552-.338.5-.73.131-.133.185-.01.234.079a.733.733,0,0,1,.038.37.142.142,0,0,0,.062.121c.161.1.2.2,0,.3-.029.014-.066.035-.065.064.009.3-.24.4-.466.556.179-.025.185-.02.287-.126a.878.878,0,0,1,.494-.262,2.286,2.286,0,0,0,.542-.172c.294-.135.624-.119.924-.272a3.225,3.225,0,0,1,.857-.382c.543-.1,1.022-.416,1.573-.5.17-.027.249-.125.155-.305a5.591,5.591,0,0,1-.268-.682q-1.257-3.444-2.514-6.889c-.147-.4-.209-.437-.629-.334a5.591,5.591,0,0,0-.561.193q-1.461.531-2.921,1.066a1.3,1.3,0,0,1-.532.1,1.881,1.881,0,0,0-.771.214c-.2.076-.4.159-.6.232l-7.157,2.61a1.785,1.785,0,0,0-.556.3,4.549,4.549,0,0,1-.813.38c-.328.18-.38.265-.292.637.022.092.059.18.089.269.217.642.5,1.262.67,1.919a.427.427,0,0,0,.217.268c.1.058.175.138.124.27a.5.5,0,0,1-.243-.113.771.771,0,0,1-.373-.462q-.432-1.214-.884-2.422c-.111-.3-.052-.465.245-.575a1.7,1.7,0,0,1,.29-.1,4.813,4.813,0,0,0,.816-.293c3.073-1.133,6.141-2.276,9.231-3.36,1.1-.384,2.184-.787,3.283-1.164a2.95,2.95,0,0,0,.563-.245.528.528,0,0,1,.764.132.6.6,0,0,0,.072.057l.13.356a.37.37,0,0,1,.092.188q1.366,3.739,2.728,7.478a.371.371,0,0,1,.05.2c-.005.141-.1.19-.218.233-.683.244-1.362.5-2.047.74-.182.064-.319.249-.541.2a1.136,1.136,0,0,1-.491.179l-11.661,4.254c-.293.107-.3.109-.4-.18a7.745,7.745,0,0,1-.427-1.3c0-.007-.006-.015-.007-.022-.019-.159-.294-.235-.219-.345a1.2,1.2,0,0,0,.212-.368" transform="translate(-36.466 -82.551)" fill="#ecfcff"/>
        <path id="Path_18346" data-name="Path 18346" d="M65.215,148.582l-.014-.037c.066-.027.131-.056.2-.08l14.586-5.32c.066-.024.135-.044.2-.066-.08.26-.329.305-.531.381-1.423.531-2.851,1.046-4.277,1.567l-9.74,3.553c-.142.052-.282.117-.424,0" transform="translate(-43.225 -100.445)" fill="#389db8"/>
        <path id="Path_18347" data-name="Path 18347" d="M75.337,115.993l.012.033a3.565,3.565,0,0,1-.84.321,5.949,5.949,0,0,1-.809.295,9.246,9.246,0,0,1-1.154.421L68.3,118.606l-2.938,1.065-.012-.033q2.959-1.082,5.918-2.164,2.036-.743,4.074-1.481" transform="translate(-43.32 -82.489)" fill="#86cad5"/>
        <path id="Path_18348" data-name="Path 18348" d="M103.7,125.9l-2.87-7.869c.094.041.1.137.128.215q1.353,3.7,2.7,7.407c.029.078.087.155.041.247" transform="translate(-66.846 -83.839)" fill="#ecfcff"/>
        <path id="Path_18349" data-name="Path 18349" d="M55.035,130.82l-.1-.261.267-.1c.01.1-.04.213.1.262-.089.033-.143.163-.268.1" transform="translate(-36.422 -92.08)" fill="#ecfcff"/>
        <path id="Path_18350" data-name="Path 18350" d="M86.71,118.338l1.154-.421a.984.984,0,0,1-.464.208,2.068,2.068,0,0,1-.689.213" transform="translate(-57.485 -83.764)" fill="#ecfcff"/>
        <path id="Path_18351" data-name="Path 18351" d="M92.532,116.308l.84-.321.18-.052a2.951,2.951,0,0,1-1.021.372" transform="translate(-61.344 -82.451)" fill="#ecfcff"/>
        <path id="Path_18352" data-name="Path 18352" d="M99.566,145.04l.491-.179a.553.553,0,0,1-.491.179" transform="translate(-66.007 -101.627)" fill="#ecfcff"/>
        <path id="Path_18353" data-name="Path 18353" d="M83.419,156.1c.316-.116.632-.23.947-.347.071-.027.155-.035.2-.114l2.723-.994c.3-.055.566-.227.87-.276a.128.128,0,0,1,.04.164.38.38,0,0,1-.2.12q-2.126.778-4.254,1.552a.349.349,0,0,1-.275.028Z" transform="translate(-55.302 -107.93)" fill="#b6d7e0"/>
        <path id="Path_18354" data-name="Path 18354" d="M96.231,151.035q1.765-.644,3.532-1.286a.529.529,0,0,1,.316-.074l.016.011a.384.384,0,0,1-.247.17c-1.279.46-2.546.953-3.835,1.384a.317.317,0,0,1-.252.02,4.7,4.7,0,0,1-.864.268l1.335-.493" transform="translate(-62.912 -104.814)" fill="#99d1db"/>
        <path id="Path_18355" data-name="Path 18355" d="M68.686,124.3a.283.283,0,0,0-.265-.2c-.161-.026-.22-.1-.153-.254.053-.059.136-.038.2-.073.133-.077.266-.161.159-.35a.117.117,0,0,1-.014-.092c.162-.448-.1-.811-.251-1.188s-.3-.775-.432-1.17c-.2-.614-.45-1.206-.7-1.8a.592.592,0,0,0-.51-.4.672.672,0,0,0-.454-.137c-.163,0-.225.2-.392.2a.268.268,0,0,1-.084,0,.352.352,0,0,0-.186.021,9.169,9.169,0,0,1-1.181.48c-1.126.494-2.3.866-3.445,1.308-.6.231-1.225.362-1.816.608a9.493,9.493,0,0,0-.963.392,1.771,1.771,0,0,1-.582.191.919.919,0,0,0-.435.167,2.577,2.577,0,0,1-.265.354.491.491,0,0,0-.116.558c.36.947.7,1.9,1.045,2.855.027.073.142.207-.076.2-.181-.077-.239-.331-.474-.331-.049-.1-.168-.131-.231-.218-.037-.1-.059-.2-.212-.21-.122-.01-.194-.178-.209-.259a15.75,15.75,0,0,0-.6-1.78c-.046-.151-.105-.3-.161-.445a.291.291,0,0,1-.011-.25c.03-.059.048-.127-.015-.172-.166-.118-.052-.153.054-.189.344-.116.65-.323,1-.418a.178.178,0,0,0,.1-.054c.134-.231.379-.27.6-.35q3.722-1.36,7.445-2.717a2.959,2.959,0,0,1,.917-.324,6.709,6.709,0,0,0,1.977-.587c.655-.211,1.3-.458,1.939-.706a3.294,3.294,0,0,1,.668-.135.167.167,0,0,1,.185.114,1.909,1.909,0,0,1,.086.22q1.334,3.655,2.668,7.31a1.9,1.9,0,0,0,.191.429c.1.153.032.259-.141.326a5.739,5.739,0,0,0-.7.186c-.108.058-.253.047-.32.18-.025.05-.073.048-.123.046a3.683,3.683,0,0,0-.92.25c-.176.039-.247.318-.5.223-.036-.013-.107.156-.212.155a6.029,6.029,0,0,0-1.2.312.691.691,0,0,0-.485.255.48.48,0,0,1-.287.2c-.069.014-.151.025-.187-.056s.02-.119.076-.154c.113-.072.226-.141.339-.213.046-.029.117-.053.092-.119-.094-.248.012-.34.315-.3-.138-.138-.374-.118-.284-.337a.223.223,0,0,1,.2-.039c.044.018.072.059.153.108a.455.455,0,0,1-.018-.434.976.976,0,0,0-.271-.858.608.608,0,0,0-.5-.3l-.027-.02" transform="translate(-36.972 -83.034)" fill="#ecfcff"/>
        <path id="Path_18356" data-name="Path 18356" d="M89.022,156.8c-.065-.166-.164-.156-.32-.1a12.032,12.032,0,0,1-1.374.47.208.208,0,0,1-.2-.089,1.014,1.014,0,0,1-.258-.548,8.429,8.429,0,0,0-.365-1.1c-.036-.114-.116-.129-.225-.1-.327.09-.652.183-.97.3-.7.262-1.393.522-2.1.762a6.5,6.5,0,0,0-1.068.5c-.173.1-.106.25-.068.376a4.252,4.252,0,0,0,.261.709,5.5,5.5,0,0,1,.186.887c.03.091-.088.133-.169.166-.278.112-.569.183-.856.268-.331.1-.651.232-.975.35-.115-.169-.035-.256.131-.307a.981.981,0,0,1,.565-.267c.332-.1.641-.261.977-.348.054-.1-.014-.182-.045-.266-.217-.612-.439-1.222-.66-1.833a.108.108,0,0,0,.031-.02.214.214,0,0,1,.15-.06,4.83,4.83,0,0,0,.991-.28c.555-.2,1.1-.424,1.658-.614A9.575,9.575,0,0,1,85.6,155.2a.977.977,0,0,0,.453-.242.425.425,0,0,1,.171-.081c.245.119.391.354.607.507l.374,1.024c.026.108-.15.289.113.31.039.069.053.167.17.151a5.93,5.93,0,0,1,1.343-.476c.138-.03.264-.047.366.075a.266.266,0,0,1,.062.2.172.172,0,0,1-.237.126" transform="translate(-53.345 -108.266)" fill="#389db7"/>
        <path id="Path_18357" data-name="Path 18357" d="M102.934,148.606a2.1,2.1,0,0,0,.957-.7.937.937,0,0,1-.406.6,14.273,14.273,0,0,1-2.45,1.053c-.457.155-.907.33-1.36.494-.24.087-.522.064-.708.29-.022.026-.09.013-.137.019a.1.1,0,0,1-.053-.148,1.409,1.409,0,0,1,.484-.238c1.026-.289,2.006-.705,3.007-1.064.228-.082.432-.226.667-.3" transform="translate(-65.475 -103.645)" fill="#c1eade"/>
        <path id="Path_18358" data-name="Path 18358" d="M82.194,166.224c-.019.073-.083.09-.141.111l-1.4.5c-.049-.059-.153-.05-.184-.164.4.031.724-.241,1.111-.275a.573.573,0,0,0,.267-.144.3.3,0,0,1,.349-.032" transform="translate(-53.347 -115.763)" fill="#c1eade"/>
        <path id="Path_18359" data-name="Path 18359" d="M106.235,159.218l-.046-.129-.076-.181c-.036-.051-.082-.1-.069-.169a.26.26,0,0,0,.027-.086c0-.063-.024-.135.071-.14a.114.114,0,0,1,.123.116.645.645,0,0,0,.141.312.241.241,0,0,1-.1.33c-.012.005-.043-.034-.066-.053" transform="translate(-70.301 -110.678)" fill="#c1eade"/>
        <path id="Path_18360" data-name="Path 18360" d="M101.473,159.774c-.038-.094-.067-.189.071-.223q.479-.117.961-.224c.024,0,.055.026.083.039a5.3,5.3,0,0,1-1.115.407" transform="translate(-67.25 -111.217)" fill="#c1eade"/>
        <path id="Path_18361" data-name="Path 18361" d="M101.378,159.656l1.115-.407c.139-.011.253-.139.406-.089l.069.17a.378.378,0,0,0-.432-.042c-.338.124-.675.248-1.014.369-.071.026-.141.074-.224.045l.08-.045" transform="translate(-67.157 -111.098)" fill="#3d9eb7"/>
        <path id="Path_18362" data-name="Path 18362" d="M50.681,175.532c-.065-.027-.1-.085-.071-.142s.089-.014.131.016a.169.169,0,0,1-.06.126" transform="translate(-33.545 -121.845)" fill="#c4e9df"/>
        <path id="Path_18363" data-name="Path 18363" d="M97.917,151.429c-.066-.164-.173-.089-.274-.047-.04.036-.082.066-.14.037l-.044-.123,4.334-1.574c.067.107.178.079.277.089a1.671,1.671,0,0,1-.662.388c-.879.334-1.759.666-2.652.961a7,7,0,0,1-.84.269" transform="translate(-64.611 -104.849)" fill="#c4ebe0"/>
        <path id="Path_18364" data-name="Path 18364" d="M61.554,131.83l-.164-.444c-.125-.053-.154-.174-.194-.283q-.426-1.153-.843-2.31a.408.408,0,0,1-.034-.342l-.112-.312c-.035-.426.111-.708.582-.744a.3.3,0,0,0,.2-.146l2.766-1.009a.517.517,0,0,0,.323-.042c1.129-.413,2.26-.823,3.389-1.239.207-.076.4-.182.615-.247.193-.059.343-.036.4.193s.222.2.4.2c.141,0,.341-.031.245.232-.066.076-.166.025-.242.066-1.068.419-2.152.794-3.229,1.189-.542.2-1.078.415-1.631.58-.2.078-.4.143-.6.221-.131.052-.172.13-.076.249s-.017.284.126.377a.29.29,0,0,1,.031.062c.039.162.138.182.281.13.175-.064.347-.137.527-.189,1.445-.526,2.89-1.049,4.331-1.583.234-.108.486-.17.714-.293.03-.009-.009,0,.022-.009.094-.018.213-.109.269.024s-.073.172-.175.241c.115.036.161.133.218.222a.772.772,0,0,0,.339.314.513.513,0,0,1,.188.721.4.4,0,0,1,.166.721,1.243,1.243,0,0,1-.51.337l-4.925,1.8c-.074.027-.157.036-.226.069-.443.212-.729-.019-.986-.337-.025-.031-.056-.065-.051-.1.045-.327-.186-.346-.413-.372a.742.742,0,0,0-.943.069c-.069.049-.123.125-.219.128a.441.441,0,0,1-.213-.1.212.212,0,0,1-.09-.248.184.184,0,0,1,.207-.121,1.994,1.994,0,0,0,1.091-.345c.062-.037.129-.087.2-.062.2.07.3-.086.458-.139a.852.852,0,0,0-.625-.367c-.247-.042-.289-.125-.167-.351a.328.328,0,0,0-.016-.355.845.845,0,0,1-.1-.615.535.535,0,0,1,.362-.418c1.281-.567,2.623-.97,3.926-1.474a1.626,1.626,0,0,1,.283-.12c-1.1.423-2.21.848-3.334,1.215a9.465,9.465,0,0,0-1.173.538.689.689,0,0,1-.587.1.351.351,0,0,0-.234,0,2.463,2.463,0,0,0-.686.4,1.046,1.046,0,0,0,.65-.144c.11-.045.207-.115.314-.166.151-.072.261-.041.316.123.033.1.07.193.1.292.044.17-.009.28-.2.281a.254.254,0,0,1-.121-.107.3.3,0,0,0-.372-.11,3.821,3.821,0,0,0-.66.3.263.263,0,0,1-.225-.048c-.178-.174-.354-.1-.545-.028s-.189.177-.135.335c.278.829.584,1.648.942,2.445.171.381.275.785.466,1.156.03.059.051.122-.005.174a.137.137,0,0,1-.193-.013c-.067-.054-.11-.135-.193-.17" transform="translate(-39.911 -88.251)" fill="#ccf4fe"/>
        <path id="Path_18365" data-name="Path 18365" d="M69.473,124.545c.074-.215-.074-.208-.2-.176a.428.428,0,0,1-.452-.105c-.051-.051-.087-.086-.052-.157.072-.149-.043-.161-.135-.169a.953.953,0,0,0-.535.163,2.523,2.523,0,0,1-.341.158q-1.636.6-3.271,1.195c-.123.045-.24.086-.35-.023q2.636-.962,5.269-1.927a1.008,1.008,0,0,1,.488-.022c.158.035.225.16.282.291.181.417.325.848.47,1.278a.538.538,0,0,1,.072.324c-.131.082-.144.183-.089.329.235.618.456,1.242.686,1.868.049-.1-.1-.246.089-.295a.208.208,0,0,1,.072.262c.067.364-.022.5-.419.655a.33.33,0,0,0-.314-.009c-2.515.946-5.047,1.849-7.57,2.774a1.308,1.308,0,0,1-.25.072.337.337,0,0,0-.3.238c-.381.076-.544.018-.7-.249.109-.033.155.036.2.116.036.061.1.091.157.035s0-.1-.046-.132a.211.211,0,0,1-.107-.149,6.094,6.094,0,0,0-.553-1.467c-.173-.452-.354-.9-.531-1.356a5.775,5.775,0,0,0-.231-.658c-.109-.205-.04-.3.181-.364.044-.013.082-.047.126-.063.162-.062.326-.174.459.06.04.072.154.067.237.088a1.775,1.775,0,0,1,.216.516c.13.323.19.356.511.245.488-.169.488-.169.4-.666a.2.2,0,0,1,.017-.159c.175-.053.246-.143.109-.306a.135.135,0,0,1-.033-.061c-.017-.106.007-.266-.108-.285-.093-.016-.213.076-.311.135a2,2,0,0,1-.8.281c-.076.009-.15.017-.177-.069s.033-.128.1-.159c.277-.121.495-.362.814-.4.046-.005.112-.028.136-.006.175.162.338.047.491-.026a2.364,2.364,0,0,0,.635-.352.689.689,0,0,1,.39-.162,6.345,6.345,0,0,0,1.153-.38c.528-.16,1.034-.385,1.565-.543a7.288,7.288,0,0,0,.766-.305.621.621,0,0,1,.332-.037,9.558,9.558,0,0,1-1.048.43c-.347.116-.69.266-1.036.4q-.918.346-1.843.672c-.222.079-.418.21-.646.283-.193.062-.154.32-.169.482a.5.5,0,0,0,.144.429c.132.119.069.277-.015.405-.034.052-.142.065-.077.16.043.063.129.033.169.05.176.071.419.01.525.232a.146.146,0,0,0,.148.1c.054,0,.124-.014.13.062s-.066.083-.106.116c-.125.1-.339.071-.386.361-.1-.278-.177-.236-.33-.135a1.815,1.815,0,0,1-1.06.344c-.069,0-.157-.075-.2.048s.036.178.128.215c.061.024.119.043.144.109.182.112.186.319.259.488.12.279.185.315.468.22.045-.015.089-.032.134-.048.414-.152.425-.176.292-.6-.028-.089-.071-.178-.016-.273.4-.09.5-.009.479.357,0,.04-.018.1.022.1.189.037.232.214.339.33a.222.222,0,0,0,.235.074c.212-.06.428-.107.634-.182q2.453-.889,4.9-1.789a.818.818,0,0,0,.589-.558.231.231,0,0,0-.053-.256c-.07-.067-.139-.1-.226-.028-.06.051-.11.019-.132-.037a.12.12,0,0,1,.071-.155c.066-.032.18-.026.132-.143-.063-.156-.055-.423-.22-.439a.518.518,0,0,1-.419-.359.245.245,0,0,0-.335-.157c.034-.215.308-.142.352-.35l-.253.042c-.073-.036-.1-.11-.15-.169a.466.466,0,0,1-.034-.055c-.073-.131-.058-.291-.133-.422a.255.255,0,0,1,.025-.2" transform="translate(-40.29 -87.441)" fill="#ccf4fe"/>
        <path id="Path_18366" data-name="Path 18366" d="M88.527,124.52c-.119-.324-.242-.646-.354-.973a1.807,1.807,0,0,0-.336-.638c.053-.185.151-.082.239-.038a.48.48,0,0,1,.139.3c-.019-.021-.017-.051.048-.062.03.061.03.139.1.181a.761.761,0,0,0-.381-.682.55.55,0,0,1,.581.363c.129.471.384.889.53,1.358.111.359.258.726.393,1.085a10.817,10.817,0,0,1,.507,1.337c.026.111.085.241-.041.349-.067.058-.035.128.02.186.1.107.108.151-.033.275a.378.378,0,0,1-.408.124c-.076-.048-.041-.1,0-.15a.617.617,0,0,0,.026-.76c-.293-.594-.47-1.236-.707-1.853-.037-.1-.076-.191-.1-.289a.141.141,0,0,0-.211-.109" transform="translate(-58.232 -86.868)" fill="#ecfcff"/>
        <path id="Path_18367" data-name="Path 18367" d="M68.507,122.974c.048.179-.017.256-.2.332-1.848.768-3.749,1.392-5.624,2.089-.442.165-.91.262-1.347.447a8.17,8.17,0,0,1-.8.344c-.151.046-.266.036-.309-.141a.129.129,0,0,1,.107-.112c.827-.189,1.578-.593,2.382-.849,1.256-.4,2.481-.886,3.72-1.331.644-.232,1.274-.5,1.913-.746a.253.253,0,0,1,.159-.034" transform="translate(-39.927 -87.114)" fill="#ecfcff"/>
        <path id="Path_18368" data-name="Path 18368" d="M59.783,134.727l1.07,2.935a1.551,1.551,0,0,0,.217.838c-.162-.024-.135-.166-.229-.179a1.141,1.141,0,0,0-.18-.355,3.766,3.766,0,0,1-.327-.89c-.272-.763-.558-1.52-.827-2.284a2.37,2.37,0,0,1-.114-.641c.2.154.161.453.389.576" transform="translate(-39.375 -94.527)" fill="#ecfcff"/>
        <path id="Path_18369" data-name="Path 18369" d="M68.332,122.725c-1.662.7-3.375,1.267-5.063,1.9-.948.353-1.9.692-2.849,1.045-.122.046-.278,0-.368.13l-.089.032a.324.324,0,0,1,.276-.2,4.137,4.137,0,0,0,1.015-.367,7,7,0,0,1,.866-.32c1.362-.432,2.7-.92,4.036-1.432.747-.286,1.488-.587,2.241-.858.079-.029.155-.087.247-.041-.039.078-.105.081-.178.065l-.134.049" transform="translate(-39.752 -86.865)" fill="#ecfcff"/>
        <path id="Path_18370" data-name="Path 18370" d="M60.906,132.3c-.023.178-.149.224-.3.24-.358.038-.39.069-.406.434a.322.322,0,0,1-.078.215c-.12-.409-.029-.593.367-.738l.419-.152" transform="translate(-39.825 -93.297)" fill="#ccf4fe"/>
        <path id="Path_18371" data-name="Path 18371" d="M61.3,145.388l-.058-.117c-.017-.084.006-.175.08-.2s.106.077.156.124a.471.471,0,0,1,.175.536c-.113-.133-.161-.32-.353-.348" transform="translate(-40.6 -101.767)" fill="#ecfcff"/>
        <path id="Path_18372" data-name="Path 18372" d="M30.769,153.867a.383.383,0,0,0-.2-.135.413.413,0,0,0-.246.017c-.465.141-.91.337-1.375.48-.1.061-.184.168-.324.141-.121.041-.2.017-.244-.118a.55.55,0,0,0-.184-.257c-.09-.051-.172-.066-.229.047.035.187.167.343.176.539-.047.089-.144.09-.222.119q-5.248,1.917-10.5,3.83c-.067.024-.135.044-.2.066a.2.2,0,0,0-.176.02.184.184,0,0,0-.047.052c.179.183,0,.33-.049.491a.092.092,0,0,0,.048.081l.083.071a.415.415,0,0,1,.236.225c.04.062.111.06.171.08l.066.03a.223.223,0,0,0,.068.011c.1.108.232.044.352.044.069,0,.141-.07.222.01-.082.08-.17.043-.25.044-.133,0-.271-.009-.357.126h0c-.1.114-.058.2.049.283.007.014.013.028.02.042.08.083.127.208.273.2l.506.268c.019.013.033.037.062.028a1.366,1.366,0,0,0,.253-.761c0-.026-.022-.056-.038-.081-.028-.043-.1-.072-.06-.136s.113-.018.168,0a6.423,6.423,0,0,0,2.347.457,11.263,11.263,0,0,1,1.129-.013.956.956,0,0,0,.757-.094c.032-.227-.143-.164-.249-.164-.7,0-1.4.076-2.111.03a12.2,12.2,0,0,1-1.342-.217c-.071-.013-.138-.04-.133-.122a.166.166,0,0,0,.146.036.4.4,0,0,1,.435.036.468.468,0,0,0,.195.071,1.224,1.224,0,0,1,.283.1c.105.046.212.1.328.026.1-.174.226-.084.348-.033.012,0,.024,0,.035,0a.548.548,0,0,0,.486.057l.02-.008a.313.313,0,0,0,.18-.069,1.569,1.569,0,0,1,.54-.047,1.581,1.581,0,0,0,.9-.128c.017,0,.034,0,.052,0s.04,0,.06,0a.1.1,0,0,1,.039.042.109.109,0,0,1-.051.142.148.148,0,0,0-.073.181,9.681,9.681,0,0,0,.985-.21,18.8,18.8,0,0,0,2.036-.793,1.356,1.356,0,0,0,.414-.25l.474-.225c.132-.3.451-.32.7-.451a.322.322,0,0,0,.161-.113c.091-.087.037-.27.179-.31a1.963,1.963,0,0,0,.541-.352h0a7.391,7.391,0,0,1,.8-.849l.1-.14c.056-.223.058-.457.137-.678.034-.095.211-.227.06-.293s-.175.149-.249.25a.233.233,0,0,0-.013.022,2.753,2.753,0,0,1,.32-.629.191.191,0,0,0,.079.206c.113.086.2-.008.295-.064a1.466,1.466,0,0,1,.456-.233.385.385,0,0,0,.193-.344.789.789,0,0,1,.031-.445.449.449,0,0,0-.078-.251M18.44,159.115a.489.489,0,0,1,.174.083c-.057-.03-.115-.058-.174-.083m1.911-1.185c-.673.247-1.349.485-2.018.74-.246.094-.289.189-.188.39a.447.447,0,0,0-.052.005c-.091,0-.209.091-.25-.073a.207.207,0,0,1,.148-.276c.082-.03.162-.062.244-.092l2.475-.9a.924.924,0,0,1-.36.21m7.818-2.883a4.387,4.387,0,0,1-.946.367c-.222.064-.3.171-.172.358a3.037,3.037,0,0,1,.333.892c.023.082.137.158.08.233-.116.155-.229.344-.419.4a1.226,1.226,0,0,1-1.176-.243.291.291,0,0,1-.114-.247.833.833,0,0,1,.183-.57.366.366,0,0,0,.051-.06c.081-.187.043-.253-.14-.235a1.241,1.241,0,0,0-.294.088q-1.522.554-3.043,1.111c-.171.063-.355.077-.52.155-.082.039-.151.1-.133.2s.1.114.182.118a.58.58,0,0,1,.427.221c.041.081.064.169.1.251.024.166.163.345.054.494a1.526,1.526,0,0,1-1.105.691c-.059.006-.139-.007-.139-.06,0-.226-.229-.355-.23-.576a.764.764,0,0,0-.012-.157,2.078,2.078,0,0,1-.145-.706.305.305,0,0,0-.052-.138l.461-.168,6.2-2.26a4.38,4.38,0,0,1,.658-.2.553.553,0,0,0-.086.038m.95,1.272a.479.479,0,0,0-.243.208.833.833,0,0,1,.335-.35.167.167,0,0,1-.092.141m.145-.216c.011-.028.022-.057.035-.083.041-.079.077-.16.111-.242a.639.639,0,0,1-.146.325m.73-1.65c-.049-.033-.115-.01-.179.008a4.582,4.582,0,0,0-.721.267,3.235,3.235,0,0,1,.77-.34c.059-.022.129-.036.13.065" transform="translate(-11.239 -107.5)" fill="#f9e3d2"/>
        <path id="Path_18373" data-name="Path 18373" d="M44.541,159.746c-.052.053.008.117.025.174s.047.133.071.2c.035.141-.13.224-.106.362a.5.5,0,0,0,.123.2c.073.072.191.048.265.118.039.048.127.009.171.083-.113.02-.146-.069-.209-.1-.245-.061-.505-.023-.748-.106a.279.279,0,0,0-.078.356c.069.139.181.138.3.113.093-.02.146.036.211.078.1.065.312.1.328.058.087-.218.345-.192.454-.356a.117.117,0,0,0-.01-.111.775.775,0,0,1-.181-.615c.005-.239-.262-.305-.42-.435a.149.149,0,0,0-.2-.009" transform="translate(-29.185 -111.472)" fill="#f9e3d2"/>
        <path id="Path_18374" data-name="Path 18374" d="M85.191,122.485l.178-.065c.134.045.19-.127.312-.114l.12.192c-.516.216-.45.21-.611-.013" transform="translate(-56.477 -86.673)" fill="#ecfcff"/>
        <path id="Path_18375" data-name="Path 18375" d="M88.734,123.641c-.011.036-.022.071-.047.15l-.14-.384a.319.319,0,0,1,.186.234" transform="translate(-58.703 -87.404)" fill="#ecfcff"/>
        <path id="Path_18376" data-name="Path 18376" d="M86.032,122.215c-.1.047-.172.176-.312.114.146-.015.225-.214.4-.147l-.089.033" transform="translate(-56.829 -86.583)" fill="#ecfcff"/>
        <path id="Path_18377" data-name="Path 18377" d="M36.317,165.914c.029-.078.044-.163.134-.2a.608.608,0,0,1,.394-.314,3.422,3.422,0,0,1,1.032-.236.384.384,0,0,1,.411.169.371.371,0,0,1-.088.434.829.829,0,0,1-.67.413l-.134.049a.934.934,0,0,1-1.037-.1.191.191,0,0,1-.042-.216" transform="translate(-24.063 -115.084)" fill="#f389aa"/>
        <path id="Path_18378" data-name="Path 18378" d="M88.292,154.686l.139-.037c-.023.054-.076.067-.122.089l-.178.066a1.7,1.7,0,0,1-.723.33c-.383.12-.748.287-1.127.415-.6.2-1.176.45-1.778.639a3.089,3.089,0,0,1-.786.228l-.143.043a.342.342,0,0,1-.009-.041l4.728-1.732" transform="translate(-55.398 -108.116)" fill="#7ebbca"/>
        <path id="Path_18379" data-name="Path 18379" d="M67.095,164.978l-.185.056c-.01-.05-.041-.109.026-.137s.126.014.159.082" transform="translate(-44.347 -114.902)" fill="#389db8"/>
        <path id="Path_18380" data-name="Path 18380" d="M46.6,162.835l.04-.032a.534.534,0,0,0,.111-.025.1.1,0,0,1,.138.043.135.135,0,0,1-.022.153c-.04.058-.1.037-.149.023-.08-.022-.093-.1-.119-.161" transform="translate(-30.893 -113.496)" fill="#f9e3d2"/>
        <path id="Path_18381" data-name="Path 18381" d="M45.528,162.113c-.085.01-.183.026-.225-.062-.029-.06.048-.1.094-.142a.4.4,0,0,1,.131.2" transform="translate(-30.029 -112.929)" fill="#eddaca"/>
        <path id="Path_18382" data-name="Path 18382" d="M75.672,140.469a.55.55,0,0,1-.344.778c-.064.03-.133.051-.2.075l-8.3,3.028a.448.448,0,0,1-.686-.354l-.162-.445a.463.463,0,0,1,.072-.65,1.035,1.035,0,0,1,.356-.184q4.067-1.49,8.138-2.97c.082-.03.163-.06.247-.086a.576.576,0,0,1,.782.325c.064.154.163.3.1.483" transform="translate(-43.674 -98.149)" fill="#ccf4ff"/>
        <path id="Path_18383" data-name="Path 18383" d="M75.252,139.959l-.162-.445c-.02-.325-.248-.476-.6-.378-.182.051-.365.1-.544.165-2.376.869-4.755,1.726-7.126,2.609a5.953,5.953,0,0,0-1.315.573.178.178,0,0,1-.137.023c-.037,0-.094.009-.109-.01-.04-.052.026-.076.051-.109a2.17,2.17,0,0,1,1.1-.615.488.488,0,0,0,.247-.066q1.578-.573,3.154-1.149a.839.839,0,0,1,.272-.074l.045-.016a.506.506,0,0,1,.232-.109l3.579-1.308a.5.5,0,0,0,.232-.109,2.139,2.139,0,0,1,.508-.095.781.781,0,0,1,.287.057.7.7,0,0,1,.445.448c.109.243.147.509.26.752a.26.26,0,0,1-.048.323c-.064.018-.124.065-.194.021-.039-.171.089-.4-.178-.489" transform="translate(-43.254 -97.639)" fill="#ecfcff"/>
        <path id="Path_18384" data-name="Path 18384" d="M66.2,140.218c-.1-.194,0-.288.182-.305a1.6,1.6,0,0,0,.409-.111l7.254-2.646a1.854,1.854,0,0,0,.28-.124c.188-.107.2-.1.306.111l-8.43,3.075" transform="translate(-43.863 -96.391)" fill="#ccf4fe"/>
        <path id="Path_18385" data-name="Path 18385" d="M65.544,142.933a1.065,1.065,0,0,1,.653-.3.951.951,0,0,0,.4-.2,3.039,3.039,0,0,1,.452-.2q3.522-1.286,7.046-2.567a2.129,2.129,0,0,1,.9-.176.314.314,0,0,1,.28.448.5.5,0,0,0-.668-.309c-.038.011-.074.026-.112.04l-8.354,3.048a.538.538,0,0,0-.4.749c-.221-.127-.261-.236-.194-.534" transform="translate(-43.432 -98.064)" fill="#ecfcff"/>
        <path id="Path_18386" data-name="Path 18386" d="M89.884,127.908c.082-.044.015-.207.125-.2s.105.144.137.229c.227.613.457,1.226.67,1.844.072.211.2.389.275.6.092.274.053.386-.21.538a.645.645,0,0,1,.032-.3c.021-.12.028-.24-.136-.269l-.1-.266a.319.319,0,0,1-.168-.217q-.259-.686-.5-1.377A.317.317,0,0,1,90,128.22l-.112-.312" transform="translate(-59.589 -90.256)" fill="#ecfcff"/>
        <path id="Path_18387" data-name="Path 18387" d="M73.347,140.281l-.4.146a1.211,1.211,0,0,0-.491.179l-.714.261c-.182,0-.326.136-.507.134.041-.094.138-.1.216-.128q2.83-1.034,5.661-2.066a.352.352,0,0,1,.322-.017l-3.418,1.247a2.169,2.169,0,0,0-.669.244" transform="translate(-47.224 -97.581)" fill="#ecfcff"/>
        <path id="Path_18388" data-name="Path 18388" d="M83.782,139.132c-.047.1-.153.1-.238.136q-1.9.7-3.8,1.389c.047-.1.153-.1.238-.136q1.9-.7,3.8-1.389" transform="translate(-52.864 -97.829)" fill="#ecfcff"/>
        <path id="Path_18389" data-name="Path 18389" d="M72.381,143.673q-1.724.629-3.448,1.257c-.072.026-.143.076-.226.033q1.7-.621,3.4-1.24c.086-.031.169-.1.27-.05" transform="translate(-45.55 -100.828)" fill="#ecfcff"/>
        <path id="Path_18390" data-name="Path 18390" d="M66.593,152.614c.111.343.39.365.686.354-.036.2-.238.2-.367.259-.106.052-.169-.088-.22-.19-.068-.135-.194-.251-.1-.423" transform="translate(-44.125 -106.767)" fill="#ecfcff"/>
        <path id="Path_18391" data-name="Path 18391" d="M67.529,145.891q-.638.233-1.275.464c-.052.019-.122.032-.143-.032-.025-.08.054-.085.1-.087a1.79,1.79,0,0,0,.583-.182,3.975,3.975,0,0,1,.731-.163" transform="translate(-43.826 -102.31)" fill="#ecfcff"/>
        <path id="Path_18392" data-name="Path 18392" d="M92.266,137.234l0,.15c-.1.012-.246.15-.29.03s.155-.108.242-.163a.229.229,0,0,1,.044-.017" transform="translate(-60.974 -96.571)" fill="#ecfcff"/>
        <path id="Path_18393" data-name="Path 18393" d="M77.5,142.8a1.135,1.135,0,0,1,.669-.244l-.669.244" transform="translate(-51.381 -100.097)" fill="#ecfcff"/>
        <path id="Path_18394" data-name="Path 18394" d="M71.234,145.138c.171-.037.316-.171.507-.134-.172.035-.315.174-.507.134" transform="translate(-47.224 -101.718)" fill="#ecfcff"/>
        <path id="Path_18395" data-name="Path 18395" d="M74.855,143.888a.626.626,0,0,1,.491-.179l-.491.179" transform="translate(-49.625 -100.862)" fill="#ecfcff"/>
        <path id="Path_18396" data-name="Path 18396" d="M95.833,135.678l-.032-.089c.065-.109.165-.148.251-.054.13.144.194.065.265-.047.105-.038.152.076.239.088a2.333,2.333,0,0,1,.535.53,4.308,4.308,0,0,0,.522.5c.078-.124.038-.244.052-.354.038-.291.115-.341.39-.248a3.967,3.967,0,0,0,.467.17c.078.016.165.038.207-.057s-.037-.156-.114-.2c-.158-.091-.341-.125-.5-.2-.216-.1-.233-.191-.083-.381a.81.81,0,0,0,.221-.352c-.368.056-.713.033-1.057.071-.105.012-.221.059-.307-.051a.25.25,0,0,1,.28-.254.284.284,0,0,0,.321-.224c.143-.028.263-.241.434-.058.015.122-.086.173-.165.258.3.1.636-.174.876.154.058-.123-.031-.19,0-.267.169-.085.259-.022.309.149a.7.7,0,0,1,0,.633c-.123.2-.039.3.187.3a.2.2,0,0,1,.207.233.978.978,0,0,1-.082.436,1.524,1.524,0,0,0-.246.47c-.016.089-.111.092-.2.061a1.622,1.622,0,0,1-.547-.3c.007.2.057.366-.1.478-.106.076-.185.2-.346.159a.1.1,0,0,1-.106-.012c-.126.024-.241.033-.29-.127-.017-.055-.085-.055-.135-.07l-.122-.056c-.106-.107-.3-.144-.28-.351l-.016-.044a2.077,2.077,0,0,1-.764-.626.356.356,0,0,0-.146-.064c-.088-.035-.15-.086-.12-.194" transform="translate(-63.513 -94.686)" fill="#ecfcff"/>
        <path id="Path_18397" data-name="Path 18397" d="M97.339,134.63c.028.188.042.35-.246.277a.313.313,0,0,0-.341.188c-.13.151-.291.1-.449.068-.074-.05-.134-.125-.234-.131-.115-.014-.232,0-.343-.028-.168-.037-.187-.125-.066-.266.34-.056.666-.235,1.026-.108a.189.189,0,0,0,.136-.017.527.527,0,0,1,.517.016" transform="translate(-63.366 -94.794)" fill="#ecfcff"/>
        <path id="Path_18398" data-name="Path 18398" d="M101.768,139.731c.158-.035.243-.17.359-.262s.028-.188,0-.281c-.021-.065-.029-.125.036-.168s.105.01.139.049c.134.155.336.187.5.282.067.038.11.02.114-.054a.551.551,0,0,1,.194-.384.541.541,0,0,0-.033-.718c.171-.063.24.012.236.176s.138.346-.046.506c-.055.048.051.1.047.169-.012.167-.221-.025-.219.114,0,.087.128.183-.032.246a.427.427,0,0,1-.225.054.734.734,0,0,0-.686.257.263.263,0,0,1-.383.014" transform="translate(-67.466 -97.193)" fill="#ecfcff"/>
        <path id="Path_18399" data-name="Path 18399" d="M94.749,140.5c.014-.083.061-.168.009-.25a5.435,5.435,0,0,1-.306-.851c-.078-.182-.244-.278-.359-.423.192-.064.291.032.449.152a1.433,1.433,0,0,1,.453.929c.008.03.027.08.016.089-.184.146-.125.3-.024.459a.072.072,0,0,1-.023.1c-.041.024-.075,0-.1-.033-.039-.058-.077-.117-.115-.176" transform="translate(-62.377 -97.714)" fill="#ecfcff"/>
        <path id="Path_18400" data-name="Path 18400" d="M95,135.1c-.066.133-.072.222.124.21a1.888,1.888,0,0,1,.317.032.2.2,0,0,1-.049.146c-.04.043-.139.07-.039.148.115.16.365.206.378.45-.111.031-.134-.094-.214-.118-.256.046-.364-.177-.536-.263,0,.079.047.2-.064.28-.223.1-.238.087-.252-.144a.768.768,0,0,0-.062-.413c-.018-.028-.032-.064,0-.085.126-.091.2-.262.4-.244" transform="translate(-62.702 -95.155)" fill="#ecfcff"/>
        <path id="Path_18401" data-name="Path 18401" d="M102.224,134.754a.368.368,0,0,1,.115.175c.018.062.042.127-.024.171s-.105-.008-.143-.048a.4.4,0,0,0-.494-.1.245.245,0,0,1-.185,0c-.088-.03-.23.079-.264-.069-.027-.115.126-.09.181-.149.037-.04.069-.085.1-.128a.17.17,0,0,0,.211.024c.155.086.34.051.5.12" transform="translate(-67.108 -94.831)" fill="#ecfcff"/>
        <path id="Path_18402" data-name="Path 18402" d="M95.5,136.781a.62.62,0,0,0-.021-.345c-.022-.05-.027-.117.043-.135s.071.048.086.089c.084.231.319.262.492.374.02.091.008.181-.087.212a.168.168,0,0,1-.21-.1c-.067-.163-.152-.01-.226-.02l-.077-.073" transform="translate(-63.291 -95.95)" fill="#ecfcff"/>
        <path id="Path_18403" data-name="Path 18403" d="M95.8,138.211c.009.022.014.059.028.063.207.056.32.226.463.363.17.163.358.306.539.457a1.885,1.885,0,0,0-.207-.029c-.091,0-.222-.043-.23-.089-.04-.237-.257-.274-.391-.4a.7.7,0,0,0-.142-.1c-.115-.068-.152-.152-.061-.267" transform="translate(-63.474 -97.218)" fill="#ecfcff"/>
        <path id="Path_18404" data-name="Path 18404" d="M103.2,134.654c-.174-.01-.376.1-.5-.12.2-.107.383-.126.5.12" transform="translate(-68.089 -94.731)" fill="#ecfcff"/>
        <path id="Path_18405" data-name="Path 18405" d="M100.192,142.154c.055-.015.124-.02.145.033.053.134.183.118.281.164-.078.1-.2.117-.3.2-.082-.128.082-.325-.124-.4" transform="translate(-66.422 -99.825)" fill="#ecfcff"/>
        <path id="Path_18406" data-name="Path 18406" d="M98.893,140.965c.033.165.272.167.28.351-.343-.021-.395-.086-.28-.351" transform="translate(-65.524 -99.044)" fill="#ecfcff"/>
        <path id="Path_18407" data-name="Path 18407" d="M72.516,122.394c-.045-.01-.044-.114-.121-.058a.844.844,0,0,1-.116.007,8.838,8.838,0,0,0-1.548-.049c-.129.016-.141-.065-.172-.145a.135.135,0,0,0-.065-.177q-.87-2.382-1.74-4.764c-.031-.086-.038-.188-.128-.245q.352.979.705,1.958.6,1.669,1.208,3.336a.382.382,0,0,0,.043.3q.6,1.643,1.2,3.284a1.651,1.651,0,0,0,.159.418c.255.122.254.34.221.573a2.218,2.218,0,0,1-.1.384c-.021.063-.052.143.007.177l-.007,0-.032.028c-.144.145-.194.368-.378.475a7.62,7.62,0,0,1-1,.529c-.959.385-1.937.721-2.908,1.072a.293.293,0,0,1-.091.023,1.155,1.155,0,0,0-.682.335c-.043.16.068.283.1.425.1.34.235.668.357,1,.063.1.066.223.129.322.041.1.087.187.218.171a.184.184,0,0,0,.1-.064c.034-.068.039-.165.132-.18a7.162,7.162,0,0,1,.98-.2,3.367,3.367,0,0,0,.393-.1c.07-.012.067-.113.136-.135.046.1.074.176.115.252.093.172.091.23-.049.283a.094.094,0,0,0-.055-.084.349.349,0,0,1-.211.118l0,0a1.545,1.545,0,0,0-.292.088q-3.479,1.267-6.956,2.538a1.3,1.3,0,0,1-.389.1,1.4,1.4,0,0,0-.614.256l-.013.032a.11.11,0,0,0-.13.03.389.389,0,0,0-.035-.179c-.073-.128.006-.219.076-.312-.022-.075,0-.1.083-.126.5-.127.959-.356,1.457-.476.033-.008.047-.038.058-.067a9.007,9.007,0,0,0-.743-2.038c-.179,0-.24.188-.4.246-1.141.415-2.266.874-3.408,1.289a7.161,7.161,0,0,0-.834.265,2.584,2.584,0,0,1-1.636.193c-.324-.055-.577-.287-.9-.358a6.231,6.231,0,0,1-1.431.214.162.162,0,0,1-.127-.049c-.206.086-.18.243-.124.408a.578.578,0,0,1,.213.33,2.422,2.422,0,0,1-.191,1.65,1.876,1.876,0,0,1-1.915.971.36.36,0,0,0-.232.005.213.213,0,0,0-.088.158.335.335,0,0,0,.127.251.526.526,0,0,1,.293.4l.2.526a.285.285,0,0,0,.135.254l.04.075a1.256,1.256,0,0,1,.158.466.446.446,0,0,0,.168.333l.079.223a.381.381,0,0,0,.175.34l.353.828a.105.105,0,0,0,.044.125c-.028.047-.044.093.024.134a.2.2,0,0,0,.2-.008c.363-.153.739-.269,1.108-.4q10.537-3.84,21.072-7.685a.554.554,0,0,0,.268-.144l.689-.255c.245-.091.246-.092.159-.332l-3.4-9.325a.455.455,0,0,0-.14-.241m.013,5.49a.061.061,0,0,1-.042.054c.014-.018.029-.035.042-.054" transform="translate(-33.651 -83.133)" fill="#c0eade"/>
        <path id="Path_18408" data-name="Path 18408" d="M22.2,176.562c-.321.042-.639.1-.958.16-.107.019-.221.037-.274.157a2.479,2.479,0,0,1-.736.613c-.883.652-1.69,1.391-2.52,2.1-.526.452-.957,1-1.5,1.433l1.346,3.69a.545.545,0,0,0,.412-.058c1.9-.692,3.805-1.382,5.7-2.1a.569.569,0,0,0,.19-.094c.06-.058.035-.112-.012-.16a.98.98,0,0,1-.175-.3,2.034,2.034,0,0,1-.174-.582c-.211-.688-.44-1.371-.633-2.065a.439.439,0,0,1,.114-.53c-.318-.231-.276-.585-.308-.91a9.4,9.4,0,0,1-.053-1.013c0-.334-.085-.4-.422-.353" transform="translate(-10.75 -122.635)" fill="#c0eade"/>
        <path id="Path_18409" data-name="Path 18409" d="M49.715,167.114a.806.806,0,0,0,.06-.225.52.52,0,0,1,.429-.541c.091-.1.112-.2-.009-.3a.764.764,0,0,0-.463.025c-.667.237-1.365.374-2.026.632l.047.13a7.993,7.993,0,0,1,.838.593c.474.328.877.367,1.124-.317" transform="translate(-31.627 -115.657)" fill="#c0eade"/>
        <path id="Path_18410" data-name="Path 18410" d="M10.732,161.138a2.663,2.663,0,0,0-.567-1l-.065-.178a.3.3,0,0,0-.141-.25l-.293-.8c-.1.048-.226.051-.306.146a.751.751,0,0,0-.28.2,1.777,1.777,0,0,0-.639,1.705,2.733,2.733,0,0,0,.244.671,1.183,1.183,0,0,0,.323.428,1.944,1.944,0,0,0,2.135.342.093.093,0,0,0,.063,0,.326.326,0,0,0,.144-.277l.035-.03a1.524,1.524,0,0,0-.526-.757l-.127-.2" transform="translate(-5.58 -110.939)" fill="#379db8"/>
        <path id="Path_18411" data-name="Path 18411" d="M54.789,140.268c.107-.033.107-.126.105-.213,0-.126-.01-.251-.018-.376-.006-.085,0-.157.088-.2a.29.29,0,0,0,.059-.045.695.695,0,0,0,.169-.417c.026-.212-.275-.282-.242-.527.2.18.213.179.379-.019a.394.394,0,0,0,.048-.164.53.53,0,0,0-.031-.235.328.328,0,0,1-.1-.374.177.177,0,0,0-.035-.091c-.168-.07-.179-.212-.167-.364a.646.646,0,0,0-.208-.264c-.2-.082-.415-.142-.521-.359a.591.591,0,0,0-.219-.15c-.132-.075-.3-.072-.415-.182a.943.943,0,0,1-.15-.47.838.838,0,0,0-.074-.237c-.251-.777-.549-1.538-.831-2.3a.313.313,0,0,0-.154-.2c-.072-.068-.15-.091-.211,0s-.13.081-.2.015a.147.147,0,0,0-.151-.026.55.55,0,0,0,.069.318q.512,1.412,1.026,2.822c.03.083.1.172-.007.253a.715.715,0,0,0,.1.518,3.236,3.236,0,0,1,.244.554.62.62,0,0,1,.139.29,6.981,6.981,0,0,1,.268,1.317c-.013.246.161.456.145.71a.141.141,0,0,0,.2.136.328.328,0,0,1,.474.192.185.185,0,0,0,.228.082" transform="translate(-34.405 -93.779)" fill="#379db8"/>
        <path id="Path_18412" data-name="Path 18412" d="M78.743,122.408a2.34,2.34,0,0,0-.3-.61.433.433,0,0,1-.116-.176c-.318-.852-.643-1.7-.955-2.554-.317-.869-.62-1.743-.93-2.614-.035-.1-.059-.21-.194-.229a.249.249,0,0,0,.042.214,3.384,3.384,0,0,1,.28.645c.543,1.553,1.158,3.081,1.655,4.651.3.939.668,1.855,1.006,2.781a.541.541,0,0,1,.058.3.143.143,0,0,0-.01.068c.036.344.036.344-.33.357-.046,0-.092.01-.138.009a.364.364,0,0,0-.215.087,1.994,1.994,0,0,1-.6.33q-6.952,2.535-13.9,5.072a1.5,1.5,0,0,1-.461.1.233.233,0,0,1-.237-.062.168.168,0,0,0-.188.112c.05.115-.024.149-.113.185a.445.445,0,0,0-.268.556.682.682,0,0,1,0,.459.032.032,0,0,0,.016.031c.069.052.149.087.219.135.127.086.272.177.2.374a.9.9,0,0,0,.74.182c.1-.08-.012-.271.161-.3s.3-.121.465-.147c1.4-.5,2.8-1.021,4.2-1.53.3-.107.592-.211.885-.324.177-.081.388-.032.555-.167a1.98,1.98,0,0,1,.6-.27l2.717-.991a2.4,2.4,0,0,1,.555-.194c.362-.114.711-.261,1.068-.388,1.295-.464,2.589-.932,3.875-1.419a1.127,1.127,0,0,0,.652-.711,6.348,6.348,0,0,0,.1-.7.688.688,0,0,0-.051-.368q-.532-1.441-1.054-2.887" transform="translate(-41.635 -82.643)" fill="#379db8"/>
        <path id="Path_18413" data-name="Path 18413" d="M55.081,119.325a1.163,1.163,0,0,1,.342-.154q1.486-.545,2.974-1.086c3.328-1.212,6.652-2.435,9.99-3.619.154-.055.307-.12.457-.182a7.046,7.046,0,0,0,.87-.352c-.009-.1.086-.236-.062-.291-.13-.048-.2.047-.242.161-.026.065-.1.077-.162.076a.594.594,0,0,0-.294.083,16.84,16.84,0,0,1-2,.824c-.619.237-1.247.451-1.868.687a6.223,6.223,0,0,0-.614.171,6.105,6.105,0,0,1-.978.384c-.544.161-1.046.425-1.6.564-.671.17-1.291.5-1.951.711a13.769,13.769,0,0,1-1.364.492c-.295.063-.542.265-.828.341-.479.127-.921.342-1.383.51-.419.152-.849.273-1.27.42-.122.042-.3.071-.243.279a.185.185,0,0,0,.221-.019" transform="translate(-36.362 -80.921)" fill="#379db8"/>
        <path id="Path_18414" data-name="Path 18414" d="M52.933,132.447a.359.359,0,0,0,.113-.02c0-.051.006-.1.009-.152a.5.5,0,0,0-.116,0c-.054.01-.144-.021-.143.076,0,.078.077.091.137.1" transform="translate(-35 -93.279)" fill="#379db8"/>
        <path id="Path_18415" data-name="Path 18415" d="M103.355,147.85c-.149.047-.185.225-.341.277-.678.228-1.319.554-2,.78a14.724,14.724,0,0,1-1.975.626c-.116.021-.275.076-.211.27.125.058.232-.014.34-.053q1.627-.589,3.252-1.185a.773.773,0,0,0,.255-.122,2.327,2.327,0,0,0,.656-.292c.027-.132.159-.2.21-.323-.076-.045-.13,0-.186.022" transform="translate(-65.51 -103.582)" fill="#379db8"/>
        <path id="Path_18416" data-name="Path 18416" d="M88.773,157.381c-.368.1-.7.294-1.07.375-.406.088-.532.014-.624-.4a8.407,8.407,0,0,0-.363-1.1.313.313,0,0,0-.427-.219c-.252.067-.5.131-.749.222q-1.2.444-2.406.877a4.833,4.833,0,0,0-.832.4.4.4,0,0,0-.2.5c.07.259.173.507.266.758a2.65,2.65,0,0,1,.132.621.291.291,0,0,1-.236.364c-.445.138-.9.257-1.327.438-.115.048-.248.064-.311.194l.078.221.177-.054.628-.229a.792.792,0,0,0,.248-.075q1.892-.69,3.784-1.38c1.194-.438,2.394-.864,3.584-1.314-.011-.213-.11-.256-.351-.193" transform="translate(-53.45 -109.021)" fill="#379db8"/>
        <path id="Path_18417" data-name="Path 18417" d="M97.772,154.368a.359.359,0,0,0-.131.155,1.023,1.023,0,0,0,.576.494l-.131-.405-.049-.132c-.01-.22-.142-.156-.265-.112" transform="translate(-64.732 -107.9)" fill="#379db8"/>
        <path id="Path_18418" data-name="Path 18418" d="M100.119,159.785c.088.072.133-.035.2-.057l-.113-.309c-.029.053-.061.1-.088.159s-.076.143,0,.207" transform="translate(-66.345 -111.278)" fill="#379db8"/>
        <path id="Path_18419" data-name="Path 18419" d="M85.082,156.475c.542-.209,1.086-.42,1.632-.612a12.169,12.169,0,0,1,1.394-.493c.134-.03.29-.082.322-.261l-4.414,1.612a.167.167,0,0,0,.176.033c.3-.093.6-.167.891-.279" transform="translate(-55.697 -108.421)" fill="#379db8"/>
        <path id="Path_18420" data-name="Path 18420" d="M71.337,134.332c-.084.029-.162.1-.256.016a.145.145,0,0,1-.028-.222.391.391,0,0,1,.169-.081l5.419-1.977a.332.332,0,0,1,.182-.043c.167.114.178.218.02.3-.188.1-.384.176-.576.263a.6.6,0,0,1-.28.169c-1.1.351-2.169.783-3.256,1.167a3.028,3.028,0,0,1-.522.147l0-.015c-.3.058-.565.226-.868.277" transform="translate(-47.078 -93.115)" fill="#51abc8"/>
        <path id="Path_18421" data-name="Path 18421" d="M75.665,128.478a.315.315,0,0,1,.122.2,1.965,1.965,0,0,1-.684.3c-.588.168-1.161.381-1.735.588-.627.227-1.251.461-1.88.682a5.559,5.559,0,0,0-.8.339c-.176.066-.351.134-.528.2-.266.094-.313.056-.305-.245a1.98,1.98,0,0,1,.951-.382,2.048,2.048,0,0,0,.755-.251,1.245,1.245,0,0,1,.264-.106c.914-.334,1.826-.671,2.742-1,.269-.1.5-.265.781-.339.109-.029.213-.07.315.009" transform="translate(-46.31 -90.735)" fill="#57afcc"/>
        <path id="Path_18422" data-name="Path 18422" d="M72.218,135.89l5.12-1.873c.114-.041.251-.077.319.05s-.039.2-.148.246a.954.954,0,0,1-.32.122,1.192,1.192,0,0,0-.68.146,7.613,7.613,0,0,1-.839.318c-.769.282-1.54.56-2.309.845-.251.093-.518.133-.766.239a.835.835,0,0,0-.366.249.1.1,0,0,1-.077.034c-.06.02-.12.039-.18.06-.078.028-.157.053-.209-.035a.135.135,0,0,1,.056-.216c.111-.109.291-.067.4-.184" transform="translate(-47.554 -94.412)" fill="#4eabc8"/>
        <path id="Path_18423" data-name="Path 18423" d="M67.067,139.255c.056.155.111.31.167.464a.272.272,0,0,1-.174.394c-.169.065-.339.126-.509.186a.272.272,0,0,1-.387-.189l-.233-.64a1.208,1.208,0,0,1,.837-.43c.148-.035.245.081.3.216" transform="translate(-43.708 -97.763)" fill="#fefefe"/>
        <path id="Path_18424" data-name="Path 18424" d="M65.039,133.537c.045.126.09.252.135.377a.272.272,0,0,1-.178.394c-.17.064-.342.122-.511.188a.244.244,0,0,1-.331-.1,2.086,2.086,0,0,1-.256-.8,1.431,1.431,0,0,1,.746-.363c.233-.066.332.108.4.3" transform="translate(-42.361 -93.912)" fill="#fefefe"/>
        <path id="Path_18425" data-name="Path 18425" d="M71.274,128.383l5-1.819c.144.183-.01.249-.132.314a6.806,6.806,0,0,1-1.057.448c-1.032.346-2.05.735-3.071,1.112a2.058,2.058,0,0,1-.459.106c-.123.016-.261.022-.277-.161" transform="translate(-47.251 -89.497)" fill="#4eaac9"/>
        <path id="Path_18426" data-name="Path 18426" d="M69.805,128.356c.215.219.452.072.654,0,1.036-.361,2.059-.759,3.1-1.113a7.514,7.514,0,0,0,1.1-.459c.1-.054.2-.1.147-.248.067-.04.111.019.163.037.006.063.013.126.019.188-.02.142-.131.19-.244.229-1.539.533-3.063,1.108-4.588,1.68-.267.1-.536.192-.81.268a.231.231,0,0,1-.138-.021c-.074-.043-.153-.075-.145-.189s.084-.142.166-.171c.193-.069.387-.135.58-.2" transform="translate(-45.783 -89.47)" fill="#4eaac9"/>
        <path id="Path_18427" data-name="Path 18427" d="M73.775,130.95l-2.34.853c-.052.019-.1.039-.157.055s-.1.023-.115-.04c-.012-.046.024-.071.062-.087s.088-.035.133-.051q2.373-.866,4.747-1.728c.075-.027.193-.136.239-.006.035.1-.113.106-.187.132q-1.191.44-2.384.872" transform="translate(-47.175 -91.697)" fill="#ccf4fe"/>
        <path id="Path_18428" data-name="Path 18428" d="M75.666,128.367a1.223,1.223,0,0,0-.542.151c-1.067.493-2.214.783-3.284,1.261-.645.288-1.352.351-1.984.655a.185.185,0,0,0,0-.043c.057-.154.219-.144.332-.213.4-.15.794-.3,1.2-.435,1.031-.39,2.07-.76,3.1-1.14.288-.106.574-.218.871-.3.1-.042.207-.071.3.027a.172.172,0,0,1,0,.037" transform="translate(-46.311 -90.624)" fill="#57afcc"/>
        <path id="Path_18429" data-name="Path 18429" d="M74.56,135.18l4.059-1.483a.3.3,0,0,1-.281.236,3.842,3.842,0,0,0-.763.242c-.853.306-1.7.619-2.556.931a.983.983,0,0,1-.459.073" transform="translate(-49.431 -94.226)" fill="#ccf4fe"/>
        <path id="Path_18430" data-name="Path 18430" d="M72.329,131.679a3.845,3.845,0,0,1,1.085-.487c.751-.27,1.5-.561,2.255-.807a5.06,5.06,0,0,1,1.074-.316l-4.414,1.61" transform="translate(-47.951 -91.82)" fill="#57afcc"/>
        <path id="Path_18431" data-name="Path 18431" d="M76.9,132.01l-5.77,2.1c.039-.07.114-.081.179-.1q2.66-.971,5.32-1.94c.086-.031.17-.091.271-.057" transform="translate(-47.158 -93.1)" fill="#51abc8"/>
        <path id="Path_18432" data-name="Path 18432" d="M72.981,137.559l.043-.033a1.422,1.422,0,0,1,.652-.318c1.129-.381,2.24-.813,3.363-1.212a.513.513,0,0,1,.273-.062.062.062,0,0,1,.054.065l-4.181,1.527a.284.284,0,0,1-.2.033" transform="translate(-48.382 -95.706)" fill="#98d7e9"/>
        <path id="Path_18433" data-name="Path 18433" d="M69.88,133.724l-.343.132c-.139.017-.223-.009-.124-.167.033-.053.011-.1,0-.151l.091-.023a.114.114,0,0,0,.068.015c.244-.071.25-.067.311.194" transform="translate(-45.989 -94.089)" fill="#ccf4fe"/>
        <path id="Path_18434" data-name="Path 18434" d="M85.966,135.363l-.014-.037a.756.756,0,0,1,.663-.254l.321-.1a5.331,5.331,0,0,1-.97.393" transform="translate(-56.982 -95.07)" fill="#98d7e9"/>
        <path id="Path_18435" data-name="Path 18435" d="M71.973,138.331a4.1,4.1,0,0,1,.868-.277,3.79,3.79,0,0,1-.868.277" transform="translate(-47.715 -97.114)" fill="#51abc8"/>
        <path id="Path_18436" data-name="Path 18436" d="M72.39,139.649c-.073.189-.28.092-.4.184a.9.9,0,0,1,.4-.184" transform="translate(-47.728 -98.172)" fill="#4eabc9"/>
        <path id="Path_18437" data-name="Path 18437" d="M70.139,129.576c-.091-.083-.126-.294-.324-.141,0,0-.036-.044-.056-.068q2.658-.971,5.316-1.943a.743.743,0,0,0,.374-.189c.134.107.061.288.148.413a.429.429,0,0,0-.238.029,1.068,1.068,0,0,0-.863.1,19.823,19.823,0,0,1-2.584,1.033,1.59,1.59,0,0,0-.569.323l-1.2.443" transform="translate(-46.246 -89.941)" fill="#ccf4fe"/>
        <path id="Path_18438" data-name="Path 18438" d="M89.76,129.079l.682,1.868c-.035.135.05.256.044.389,0,.054.021.119-.051.135s-.07-.051-.086-.092q-.4-1.093-.8-2.187c-.022-.06-.044-.127.021-.171s.122.049.188.058" transform="translate(-59.352 -91.116)" fill="#ccf4fe"/>
        <path id="Path_18439" data-name="Path 18439" d="M86.885,124.275c-.077.208-.225.173-.375.124-.034-.011-.077-.034-.056-.084a.07.07,0,0,1,.1-.032.306.306,0,0,0,.331-.009" transform="translate(-57.312 -87.98)" fill="#ccf4fe"/>
        <path id="Path_18440" data-name="Path 18440" d="M71.913,143.385c-1.323.482-2.643.969-3.969,1.443-.189.068-.408.162-.569-.083a.47.47,0,0,1,.177-.73c.155-.088.4-.108.365-.389-.007-.069.107-.08.172-.1.384-.138.76-.293,1.145-.43,2.184-.774,4.357-1.578,6.534-2.372.312-.114.525.006.556.337.014.153.13.282.062.457a.778.778,0,0,1-.527.431q-1.971.723-3.944,1.44" transform="translate(-44.596 -98.854)" fill="#ccf4ff"/>
        <path id="Path_18441" data-name="Path 18441" d="M97.121,136.636l-.439-.435c-.011-.087.043-.132.107-.172a.209.209,0,0,1,.24,0,1.045,1.045,0,0,0,.451-.019c.4-.019.8-.041,1.2-.055.081,0,.185-.069.241.027.066.112-.077.153-.11.234a.4.4,0,0,1-.071.094c-.251.295-.25.293.13.424.142.049.28.1.418.163a.191.191,0,0,1,.115.268c-.046.146-.143.152-.26.112-.2-.069-.4-.134-.6-.218-.146-.063-.208-.027-.216.125-.007.133-.017.266-.019.4,0,.051.048.114-.02.146s-.116-.02-.164-.063a8.4,8.4,0,0,1-.72-.746c-.088-.1-.188-.188-.283-.281" transform="translate(-64.095 -95.704)" fill="#4faac7"/>
        <path id="Path_18442" data-name="Path 18442" d="M97.193,135.948l-.232.024c-.034.008-.041,0-.023-.032a.093.093,0,0,1,.057-.126c.112-.022.157.055.2.134" transform="translate(-64.259 -95.626)" fill="#ecfcff"/>
        <path id="Path_18443" data-name="Path 18443" d="M96.582,136.2l.023.032-.114.151c-.054-.021-.115-.056-.1-.115.028-.083.128-.032.186-.068" transform="translate(-63.904 -95.882)" fill="#55a9c7"/>
        <path id="Path_18444" data-name="Path 18444" d="M78.1,135.14l-.663.254L73.6,136.788c-.163.059-.329.114-.493.171a.424.424,0,0,1,.345-.317c1.235-.362,2.425-.851,3.638-1.273.188-.065.348-.181.533-.25a.541.541,0,0,1,.476.022" transform="translate(-48.467 -95.139)" fill="#4eabc9"/>
        <path id="Path_18445" data-name="Path 18445" d="M74.458,129.726a.63.63,0,0,1,.433-.36c.6-.208,1.2-.442,1.805-.651.425-.147.79-.418,1.221-.556a.58.58,0,0,1,.557.11l-4.016,1.457" transform="translate(-49.362 -90.534)" fill="#ccf4fe"/>
        <path id="Path_18446" data-name="Path 18446" d="M74.8,144.983a3.937,3.937,0,0,1,1.094-.611c.83-.287,1.647-.609,2.477-.894.4-.137.789-.309,1.192-.437.15-.048.281-.141.473-.078.092.03.251-.118.37-.2a.927.927,0,0,1,.254-.124c.069-.022.163-.086.185.045.014.083.01.176-.1.215l-5.6,2.051a.5.5,0,0,1-.351.033" transform="translate(-49.588 -100.131)" fill="#ccf4ff"/>
        <path id="Path_18447" data-name="Path 18447" d="M91.4,141.59a.253.253,0,0,1,.307-.118.041.041,0,0,1,.019.073c-.087.1-.192.069-.326.045" transform="translate(-60.597 -99.371)" fill="#ccf4ff"/>
        <path id="Path_18462" data-name="Path 18462" d="M.131,0,1.224,1.451,0,3.087H.567L1.493,1.8l.92,1.284H2.98L1.755,1.451,2.848,0H2.287L1.493,1.1.693,0ZM3.171,0,4.263,1.451,3.039,3.087h.567L4.532,1.8l.92,1.284h.567L4.795,1.451,5.887,0H5.326L4.532,1.1,3.732,0ZM6.21,0,7.3,1.451,6.079,3.087h.567L7.571,1.8l.92,1.284h.567L7.834,1.451,8.927,0H8.365L7.571,1.1,6.771,0ZM9.249,0l1.093,1.451L9.118,3.087h.567L10.611,1.8l.92,1.284H12.1L10.873,1.451,11.966,0H11.4l-.794,1.1L9.81,0Z" transform="translate(20.133 59.751) rotate(-20.04)" fill="#333"/>
        <path id="Path_18463" data-name="Path 18463" d="M.105,0,.979,1.161,0,2.47H.454l.74-1.027L1.93,2.47h.454L1.4,1.161,2.279,0H1.83L1.194.879.554,0ZM2.537,0l.874,1.161L2.431,2.47h.454l.74-1.027L4.361,2.47h.454L3.836,1.161,4.71,0H4.261L3.626.879,2.986,0ZM4.968,0l.874,1.161L4.863,2.47h.454l.74-1.027L6.793,2.47h.454L6.267,1.161,7.141,0H6.692L6.057.879,5.417,0ZM7.4,0l.874,1.161L7.294,2.47h.454l.74-1.027L9.224,2.47h.454L8.7,1.161,9.573,0H9.124L8.488.879,7.848,0Z" transform="translate(24.019 66.249) rotate(-20.04)" fill="#0089d1"/>
        <path id="Path_18464" data-name="Path 18464" d="M.105,0,.979,1.161,0,2.47H.454l.74-1.027L1.93,2.47h.454L1.4,1.161,2.279,0H1.83L1.194.879.554,0ZM2.537,0l.874,1.161L2.431,2.47h.454l.74-1.027L4.361,2.47h.454L3.836,1.161,4.71,0H4.261L3.626.879,2.986,0ZM4.968,0l.874,1.161L4.863,2.47h.454l.74-1.027L6.793,2.47h.454L6.267,1.161,7.141,0H6.692L6.057.879,5.417,0ZM7.4,0l.874,1.161L7.294,2.47h.454l.74-1.027L9.224,2.47h.454L8.7,1.161,9.573,0H9.124L8.488.879,7.848,0ZM9.831,0,10.7,1.161,9.726,2.47h.454l.74-1.027.736,1.027h.454L11.13,1.161,12,0h-.449L10.92.879,10.28,0Z" transform="translate(25.81 73.868) rotate(-20.04)" fill="#0089d1"/>
        <path id="Path_18465" data-name="Path 18465" d="M.105,0,.979,1.161,0,2.47H.454l.74-1.027L1.93,2.47h.454L1.4,1.161,2.279,0H1.83L1.194.879.554,0ZM2.537,0l.874,1.161L2.431,2.47h.454l.74-1.027L4.361,2.47h.454L3.836,1.161,4.71,0H4.261L3.626.879,2.986,0ZM4.968,0l.874,1.161L4.863,2.47h.454l.74-1.027L6.793,2.47h.454L6.267,1.161,7.141,0H6.692L6.057.879,5.417,0ZM7.4,0l.874,1.161L7.294,2.47h.454l.74-1.027L9.224,2.47h.454L8.7,1.161,9.573,0H9.124L8.488.879,7.848,0ZM9.831,0,10.7,1.161,9.726,2.47h.454l.74-1.027.736,1.027h.454L11.13,1.161,12,0h-.449L10.92.879,10.28,0Zm2.431,0,.874,1.161L12.157,2.47h.454l.74-1.027.736,1.027h.454l-.979-1.309L14.436,0h-.449l-.635.879L12.711,0Z" transform="translate(27.8 81.706) rotate(-20.04)" fill="#0089d1"/>
      </g>
      <g id="Group_60364" data-name="Group 60364" transform="translate(8.084 25.909)">
        <path id="Path_18448" data-name="Path 18448" d="M111.142,216.855c.111-.357-.178-.691.085-.854s.483.14.721.244c.631.276.908.651.544,1.365a7.977,7.977,0,0,0-.419,1.457,14.308,14.308,0,0,1-3.421-1.92c-.2-.163-.461-.352-.341-.669.129-.341.448-.33.753-.329a5.122,5.122,0,0,1,2.078.706" transform="translate(-79.487 -169.065)" fill="#f7e6d6"/>
        <path id="Path_18449" data-name="Path 18449" d="M156.655,232.973c-.945-3.076-1.855-6.164-2.76-9.252a.773.773,0,0,0-.845-.66,45.36,45.36,0,0,1-8.215-.918,15.967,15.967,0,0,1-3.732-.962c0-.072.008-.145.013-.217a2.17,2.17,0,0,0-.885-.347,20.734,20.734,0,0,1-2.646-.619,8.955,8.955,0,0,0-1.112-.184,2.887,2.887,0,0,1-.447.1l-2.147-.835c-.205-.147-.931-.369-1.136-.516-.5-.18-.912-.711-1.54-.445-.022-.051-.044-.1-.064-.154a.58.58,0,0,0-.119-.056c-.027-.2-.207-.293-.381-.36a8.637,8.637,0,0,1-.918-.51c-.555-.28-1.092-.594-1.63-.907a.911.911,0,0,0-1.474.406,6.9,6.9,0,0,0-.879,3.5,1.855,1.855,0,0,0,.992,1.012A45.7,45.7,0,0,0,131,222.973a5.962,5.962,0,0,0,2.188.777c1.25.376,2.5.737,3.77,1.019l-.922,3.908q-.634,2.3-1.282,4.6c-.126.446.049.619.422.788a14.6,14.6,0,0,0,2.846.934,34.957,34.957,0,0,0,13.311.3,16.437,16.437,0,0,0,4.872-1.471c.357-.182.608-.342.448-.862" transform="translate(-93.152 -169.032)" fill="#a1bab6"/>
        <path id="Path_18450" data-name="Path 18450" d="M87.687,133.283a20.949,20.949,0,0,0,3.1,11.777c3.61,5.674,9.312,7.838,15.451,10.168a47.114,47.114,0,0,0,12.286,2.907c5.826.531,11.713,1.088,17.448-2.237a22.531,22.531,0,0,0,9.233-10.88L87.687,133.283" transform="translate(-63.363 -104.343)" fill="#f7e6d6"/>
        <path id="Path_18451" data-name="Path 18451" d="M204.768,407.086a3.724,3.724,0,0,1,2.213-1.144,1.661,1.661,0,0,1,1.037,1.632c-.187.751-1.459,1.1-2.311.686a1.925,1.925,0,0,1-.94-1.174" transform="translate(-155.023 -317.799)" fill="#55483d"/>
        <path id="Path_18452" data-name="Path 18452" d="M232.128,402.666a3.2,3.2,0,0,1,.916-.9,2.349,2.349,0,0,1,.815-.324,1.939,1.939,0,0,1,.812,1.752,1.194,1.194,0,0,1-1.808.737,2.125,2.125,0,0,1-.735-1.26" transform="translate(-176.442 -314.273)" fill="#55483d"/>
        <path id="Path_18453" data-name="Path 18453" d="M188.817,299.6c.089,3.01-1.639,4.865-4.024,6.289a5.667,5.667,0,0,1-1.7.771.681.681,0,0,0-.6.719c-.321,3.4-.92,6.758-1.366,10.138-.2,1.53-.421,3.06-.564,4.6-.052.56-.261.749-.787.776a1.9,1.9,0,0,1-2.189-1.92,64.046,64.046,0,0,0-1.809-10.062,21.542,21.542,0,0,1-.533-2.951c-.058-.72-.456-.826-.992-.885A10.017,10.017,0,0,1,169.3,305a6.623,6.623,0,0,1-2.721-6.1c.025-.386.126-.473.483-.321a25.287,25.287,0,0,0,10.024,1.718c3.83.005,7.643-.3,11.192-1.968.5-.233.554-.03.542.38-.009.3,0,.6,0,.895" transform="translate(-125.111 -233.476)" fill="#d59687"/>
        <path id="Path_18454" data-name="Path 18454" d="M235.956,337.623c.155.733.335,1.463.46,2.2.612,3.6,1.3,7.188,2.087,10.755.242,1.094.043,1.381-1.074,1.523a1.95,1.95,0,0,1-1.964-1.1,7.676,7.676,0,0,1-.722-5.762c.448-2.194.619-4.445.916-6.67.042-.315.112-.627.169-.941l.127-.009" transform="translate(-178.3 -264.315)" fill="#b5817b"/>
        <path id="Path_18455" data-name="Path 18455" d="M205.147,405.942c.2.03.356.007.4.066a2.7,2.7,0,0,0,2.651,1.047c.255-.033.368.077.441.341.292,1.068,0,1.486-1.077,1.482-1.488-.006-2.976-.047-4.462-.011-.637.015-.72-.264-.661-.781a1.852,1.852,0,0,1,.493-1c.337-.395.671-.657,1.036,0,.186.338.461.6.727.031.021-.046.04-.114.077-.128.667-.255.667-.253.374-1.051" transform="translate(-153.19 -317.799)" fill="#a2bab4"/>
        <path id="Path_18456" data-name="Path 18456" d="M232.237,405.043a13.414,13.414,0,0,0-.094-1.9.378.378,0,0,1,.144-.434c.137-.084.243.049.354.115.584.345.593.347.841-.215.086-.193.156-.032.23-.016.187.039.39.109.474-.143.072-.215-.105-.34-.215-.491-.1-.131-.406-.186-.215-.429.159-.2.337-.043.5.051a2.555,2.555,0,0,0,2.483.06c.761-.348.693.36.857.693.178.362.43.828-.227,1.042-1.688.549-3.377,1.094-5.131,1.662" transform="translate(-176.442 -314.273)" fill="#a2b9b4"/>
        <path id="Path_18457" data-name="Path 18457" d="M209.244,198.189a3.18,3.18,0,0,1,3.078-1.1,1.275,1.275,0,0,1,1.052.905,3.5,3.5,0,0,1-1.455,3.318,3.222,3.222,0,0,1-3.618.28c.115-.223.264-.08.4-.036a3.434,3.434,0,0,0,4.4-2.691,1.175,1.175,0,0,0-1.182-1.553,2.526,2.526,0,0,0-1.76.492c-.269.2-.539.39-.809.584l-.112-.2" transform="translate(-157.789 -154.244)" fill="#3c3a39"/>
        <path id="Path_18460" data-name="Path 18460" d="M115.637,198.229c1.007,2.142,2.529,2.238,4.7,2.07l.026.059c-1.295,1.205-3.434.243-4.227-.865a2.941,2.941,0,0,1-.626-1.149Z" transform="translate(-85.144 -155.069)" fill="#3c3a39"/>
        <path id="Path_18461" data-name="Path 18461" d="M1.125.017a.828.828,0,0,1,.587.858A.889.889,0,0,1,1.18,1.7.814.814,0,0,1,.174,1.451.92.92,0,0,1,1.125.017" transform="matrix(-0.998, -0.07, 0.07, -0.998, 35.894, 39.907)" fill="#3c3a39"/>
        <path id="Path_18474" data-name="Path 18474" d="M0,25.555a28.892,28.892,0,0,1,2.27-9.486c1-2.314,4.354-9.819,12.52-13.741C19.739-.049,24.18-.019,27.738.005A36.117,36.117,0,0,1,42.3,3.143c3.355,1.53,8.263,3.768,11.965,9.081C58.838,18.79,58.6,25.8,58.508,28.632a30.987,30.987,0,0,1-3,12.231c-.576.055-1.461.123-2.541.13a29.562,29.562,0,0,1-6.661-.723C33.4,37.5,34.188,37.74,31.761,37.1c-1.533-.406-7.855-2.094-16.034-4.8a82.184,82.184,0,0,1-13.2-5.358C1.464,26.382.6,25.9,0,25.555" transform="translate(24.32 3.349)" fill="#e5d2c2"/>
        <path id="Path_18473" data-name="Path 18473" d="M0,27.387A30.964,30.964,0,0,1,2.433,17.221C3.5,14.74,7.1,6.7,15.851,2.495,21.154-.052,25.914-.02,29.727.005A38.707,38.707,0,0,1,45.333,3.368c3.6,1.639,8.856,4.038,12.823,9.733,4.9,7.037,4.65,14.544,4.548,17.584a33.209,33.209,0,0,1-3.211,13.109c-.618.059-1.566.131-2.723.14a31.682,31.682,0,0,1-7.139-.774c-13.831-2.974-12.991-2.713-15.591-3.4-1.643-.435-8.418-2.245-17.184-5.146A88.079,88.079,0,0,1,2.709,28.869C1.569,28.274.638,27.753,0,27.387" transform="translate(22.938 0.379)" fill="#f0de7b"/>
        <path id="Path_18475" data-name="Path 18475" d="M52.666,10.255c-.564-.626-1.2-1.2-1.906-2-.574-.663-1.2-.99-1.873-1.7a21.158,21.158,0,0,0-1.818-1.572c-.631-.525-3.667-2.291-1.818-1.448,3.6,1.639,8.938,3.881,12.905,9.575,4.9,7.037,4.65,14.544,4.548,17.584a33.209,33.209,0,0,1-3.211,13.109c-.618.059-2.361.228-3.518.236a23.9,23.9,0,0,0,1.75-4.258,45.368,45.368,0,0,0,2-9.087,30.2,30.2,0,0,0-.689-7.524c-1.365-4.227-2.7-6.848-3.057-7.815a25.107,25.107,0,0,0-1.721-3.162" transform="translate(22.938 0.191)" fill="#edda70"/>
        <path id="Path_17458" data-name="Path 17458" d="M.67.077s.912-.425.994.715A2.271,2.271,0,0,1,0,3.1,11.945,11.945,0,0,1,.353,1.89l.608-.183L.494,1.24Z" transform="matrix(0.921, 0.391, -0.391, 0.921, 52.824, 43.797)" fill="#e5d2c2"/>
      </g>
      <g id="Group_60363" data-name="Group 60363">
        <path id="Path_18467" data-name="Path 18467" d="M7.843,3.841a5.7,5.7,0,0,0,2.09.945c.259.3.259.3-.306.409a3.623,3.623,0,0,0-1.147.441c-.453.44-1.083.612-1.53,1.089A5.889,5.889,0,0,0,5.467,9.268a1.606,1.606,0,0,1-.052.2c-.092.223-.047.62-.4.559-.287-.048-.314-.378-.287-.654a.214.214,0,0,0-.02-.1c-.03-.1-.059-.194-.089-.291-.015-.009-.038-.015-.044-.028a6.915,6.915,0,0,0-1.8-2.394.715.715,0,0,1-.188-.311.642.642,0,0,0-.414-.317,6.685,6.685,0,0,1-1.361-.64,1.533,1.533,0,0,0-.74-.205c-.137-.152-.037-.235.09-.311A.579.579,0,0,0,.6,4.685c.077-.2.284-.14.425-.212a7.3,7.3,0,0,0,2.859-2.54A6.085,6.085,0,0,0,4.767.277c.155-.473.285-.243.445-.024a.073.073,0,0,1,.032.065c0,.025-.008.038-.014.038a5.742,5.742,0,0,0,.744,1.675.2.2,0,0,1,.076.114c.215.252.324.588.622.772a4.452,4.452,0,0,1,1.17.923" transform="matrix(-0.998, -0.07, 0.07, -0.998, 17.233, 13.027)" fill="#f7ba40"/>
        <path id="Path_18468" data-name="Path 18468" d="M0,3.473c.021-.14.144-.161.231-.191A5.247,5.247,0,0,0,3.211.215C3.253.123,3.245,0,3.389,0A.221.221,0,0,1,3.6.2,4.124,4.124,0,0,0,6.557,3.3c.094.034.206.059.253.183-.026.132-.16.115-.242.134a3.854,3.854,0,0,0-2.94,3.019c-.034.12-.048.259-.2.266s-.181-.128-.215-.25A4.877,4.877,0,0,0,1.885,4.49a2.578,2.578,0,0,0-1.53-.846A.407.407,0,0,1,0,3.473" transform="matrix(-0.998, -0.07, 0.07, -0.998, 109.537, 85.37)" fill="#6ebaff"/>
        <path id="Path_18469" data-name="Path 18469" d="M2.9,1.064A2.66,2.66,0,0,0,4.589,2.277a.88.88,0,0,1-.457.259A2.62,2.62,0,0,0,2.5,4.325c-.036.134-.048.31-.2.336-.185.032-.185-.159-.24-.282A3.18,3.18,0,0,0,.32,2.584c-.127-.05-.308-.1-.32-.244-.017-.2.205-.2.336-.272A2.9,2.9,0,0,0,1.684.729.919.919,0,0,1,1.957.19c.224-.282.421-.251.547.1v0a1.768,1.768,0,0,1,.4.772" transform="matrix(-0.998, -0.07, 0.07, -0.998, 102.418, 95.344)" fill="#5e9ed8"/>
        <path id="Path_18470" data-name="Path 18470" d="M.4,4.207c.6.034.815.422.5.9a.513.513,0,0,0,.061.747c.239.226.425.473.846.214.52-.32.942-.063,1.037.544.019.12-.007.291.136.31a3.451,3.451,0,0,0,.935.036c.226-.032.177-.306.221-.488.136-.551.527-.767.9-.446.4.337.592.048.842-.156.289-.235.271-.475.07-.777a.533.533,0,0,1,.459-.888c.267-.007.536-.005.459-.372-.066-.315.295-.8-.356-.906-.608-.1-.736-.407-.461-.98a1.172,1.172,0,0,0,.11-.238C6.277,1.23,5.855,1.1,5.6.865,5.441.727,5.256.658,5.1.885a.432.432,0,0,1-.538.212.551.551,0,0,1-.41-.554C4.187-.035,3.811.018,3.426,0s-.567.077-.584.515a.661.661,0,0,1-1.017.493C1.646.889,1.508.553,1.24.9c-.22.285-.711.422-.355.972.392.606.11,1.052-.6,1.064-.088,0-.175.008-.263.011Q.013,3.417,0,3.885c-.024.307.171.309.4.322M3.431,1.879A1.683,1.683,0,0,1,5.078,3.521,1.693,1.693,0,0,1,3.459,5.134,1.727,1.727,0,0,1,1.8,3.486a1.7,1.7,0,0,1,1.63-1.606" transform="matrix(-0.998, -0.07, 0.07, -0.998, -1.924, 56.841)" fill="#6aa8c5"/>
        <path id="Path_18471" data-name="Path 18471" d="M.006,5.221A9.3,9.3,0,0,1,.013,6.379c-.011.3.116.418.406.4.175-.012.351-.009.526-.016.29-.012.519.04.566.4a1.26,1.26,0,0,0,.186.368l.125.305a.5.5,0,0,1-.2.5c-.169.12-.307.285-.466.42-.251.213-.278.415-.021.652.283.259.533.556.822.807.471.409.507.417.868-.1.261-.372.54-.561.99-.395h0l.2.139a.073.073,0,0,0,.111,0l.212.08c.529.278.282.772.3,1.175.015.314.083.443.415.421a5.83,5.83,0,0,1,1.151.007c.49.066.6-.124.565-.576-.03-.357-.173-.787.314-1a1.181,1.181,0,0,0,.625-.245.637.637,0,0,1,.586.1c.262.228.454.7.811.611.312-.082.544-.464.812-.714l.038-.037c.679-.65.679-.65.02-1.289-.122-.118-.274-.206-.255-.424A1.125,1.125,0,0,1,11.01,6.8c.442.016.568-.152.485-.551l-.008-.632c.054-.978.054-.978-.617-.934-.709.124-.9-.386-1.119-.889-.121-.273-.159-.49.1-.689.934-.718.57-.972-.03-1.539-.138-.13-.284-.25-.426-.376-.179-.273-.363-.368-.561-.017-.211.148-.239.456-.493.567-.309.188-.568-.018-.843-.1l-.711-.347C6.78,1,6.756.709,6.769.419,6.783.1,6.656-.03,6.34.04L5.181.033c-.418-.11-.605.056-.526.474a.848.848,0,0,1-.768,1.138c-.029.005-.053.041-.079.063-.476.137-.751-.135-.984-.486-.2-.3-.42-.335-.673-.068a7.347,7.347,0,0,0-.865.894c-.413.276-.447.577-.016.85.492.312.524.644.3,1.184A.825.825,0,0,1,.557,4.66c-.452-.062-.59.129-.551.561m1.165-.157c0,.007.01.009.015.015l-.032.013c.005-.011.012-.018.017-.028M6.408,2.918a1.05,1.05,0,0,0,.534.158.1.1,0,0,0,.007.032.288.288,0,0,0,.217.138c.024.218.221.306.358.433A2.6,2.6,0,0,1,8,7.265c-.077.122-.224.227-.182.4a2.527,2.527,0,0,0-.685.567.417.417,0,0,1-.02.048.7.7,0,0,0-.324.161.55.55,0,0,1-.09-.043A3.432,3.432,0,0,1,4.98,8.341,2.9,2.9,0,0,1,3.3,6.92c-.022-.044-.044-.089-.069-.131A2.694,2.694,0,0,1,4.539,3.274a.464.464,0,0,0,.269-.249c0-.01,0-.016,0-.025a.6.6,0,0,0,.2-.058c.054.06.105.109.142.036A4.168,4.168,0,0,1,6.3,2.961a.375.375,0,0,0,.112-.043" transform="matrix(-0.998, -0.07, 0.07, -0.998, 12.5, 84.166)" fill="#62ad9b"/>
      </g>
    </g>
  </g>
</svg>
