<svg xmlns="http://www.w3.org/2000/svg" width="23.379" height="23.379" viewBox="0 0 23.379 23.379">
  <g id="Group_6304" data-name="Group 6304" transform="translate(19820.916 6811.421)">
    <path id="window-restore" d="M21.188,0H6.575A2.192,2.192,0,0,0,4.384,2.192V4.384H2.192A2.192,2.192,0,0,0,0,6.575V21.188a2.192,2.192,0,0,0,2.192,2.192H16.8A2.192,2.192,0,0,0,19,21.188V19h2.192A2.192,2.192,0,0,0,23.379,16.8V2.192A2.192,2.192,0,0,0,21.188,0ZM16.8,21.188H2.192v-9.5H16.8ZM21.188,16.8H19V6.575A2.192,2.192,0,0,0,16.8,4.384H6.575V2.192H21.188Z" transform="translate(-19820.916 -6811.421)" fill="#00829b"/>
    <path id="check" d="M4.555,74.9.2,70.544a.671.671,0,0,1,0-.948l.948-.948a.67.67,0,0,1,.948,0l2.936,2.936,6.288-6.288a.67.67,0,0,1,.948,0l.948.948a.671.671,0,0,1,0,.948L5.5,74.9a.67.67,0,0,1-.948,0Z" transform="translate(-19818.457 -6864.829)" fill="#00829b"/>
  </g>
</svg>
