<svg xmlns="http://www.w3.org/2000/svg" viewBox="0 0 38.62 35.01"><defs><style>.cls-1{fill:#fff;stroke:#fff;}</style></defs><g id="圖層_2" data-name="圖層 2"><g id="Group_5636" data-name="Group 5636"><path id="Path_41476" data-name="Path 41476" class="cls-1" d="M36.7,10.57,26,1.65a.9.9,0,0,0-1.26.11.93.93,0,0,0-.21.57V7C14.88,9.11,8.46,15.08,8.46,22a.9.9,0,0,0,.75.88h.14a.9.9,0,0,0,.85-.61c1.51-4.53,9.07-6.33,14.33-6.52v4.45a.9.9,0,0,0,1.46.69L36.7,11.94a.89.89,0,0,0,.11-1.26l-.11-.11Zm-10.39,7.7V14.83a.89.89,0,0,0-.89-.9c-3.79,0-10.48,1-14.33,4.13,2-4.46,7.32-8.06,14.5-9.5a.88.88,0,0,0,.72-.87V4.24l8.42,7Z"/><path id="Path_41477" data-name="Path 41477" class="cls-1" d="M32.56,22.86a.89.89,0,0,0-.9.89v8H3.11V5h9.81a.9.9,0,1,0,0-1.79H2.21a.89.89,0,0,0-.89.9V32.67a.89.89,0,0,0,.89.9H32.56a.89.89,0,0,0,.89-.9V23.75A.89.89,0,0,0,32.56,22.86Z"/></g></g></svg>