<svg xmlns="http://www.w3.org/2000/svg" width="24" height="24" viewBox="0 0 24 24">
  <g id="Group_6260" data-name="Group 6260" transform="translate(22497 11402.476)">
    <g id="ic_invoice" transform="translate(-22497 -11402.476)">
      <path id="Path_378" data-name="Path 378" d="M0,0H24V24H0Z" fill="none"/>
      <path id="Path_379" data-name="Path 379" d="M14,3V7a1,1,0,0,0,1,1h4" fill="none" stroke="#fff" stroke-linecap="round" stroke-linejoin="round" stroke-width="2"/>
      <path id="Path_380" data-name="Path 380" d="M17,21H7a2,2,0,0,1-2-2V5A2,2,0,0,1,7,3h7l5,5V19A2,2,0,0,1,17,21Z" fill="none" stroke="#fff" stroke-linecap="round" stroke-linejoin="round" stroke-width="2"/>
    </g>
    <path id="check" d="M5.685,77.335l-5.44-5.44a.837.837,0,0,1,0-1.184l1.184-1.184a.837.837,0,0,1,1.184,0l3.665,3.664,7.849-7.849a.837.837,0,0,1,1.184,0l1.184,1.184a.837.837,0,0,1,0,1.184L6.869,77.335a.837.837,0,0,1-1.184,0Z" transform="translate(-22491 -11462.718)" fill="#fff"/>
  </g>
</svg>
