<svg xmlns="http://www.w3.org/2000/svg" viewBox="0 0 24.65 24.28"><defs><style>.cls-1{fill:#0c7d94;}.cls-2{fill:none;stroke:#0c7d94;}.cls-3{fill:#fff;}</style></defs><g id="圖層_3" data-name="圖層 3"><g id="Group_5635" data-name="Group 5635"><g id="Ellipse_67" data-name="Ellipse 67"><circle class="cls-1" cx="12.36" cy="11.98" r="11.5"/><circle class="cls-2" cx="12.36" cy="11.98" r="11"/></g><path id="window-close" class="cls-3" d="M18.68,15.36a.63.63,0,0,1,0,.88h0L16.62,18.3a.63.63,0,0,1-.88,0h0l-3.38-3.41L9,18.3a.63.63,0,0,1-.88,0h0L6,16.24a.63.63,0,0,1,0-.88H6L9.45,12,6,8.61a.64.64,0,0,1,0-.89H6l2.06-2a.62.62,0,0,1,.88,0H9l3.38,3.4,3.38-3.4a.62.62,0,0,1,.88,0h0l2.06,2.05a.63.63,0,0,1,0,.88h0L15.27,12Z"/></g></g></svg>