<svg xmlns="http://www.w3.org/2000/svg" viewBox="0 0 24.65 22.19"><defs><style>.cls-1{fill:#fff;}</style></defs><g id="圖層_3" data-name="圖層 3"><path id="edit" class="cls-1" d="M17.11,4.15l3.6,3.6a.39.39,0,0,1,0,.55L12,17l-3.71.41a.77.77,0,0,1-.85-.68.54.54,0,0,1,0-.18l.4-3.7,8.72-8.72a.4.4,0,0,1,.56,0Zm6.47-.92L21.63,1.29a1.55,1.55,0,0,0-2.2,0L18,2.7a.39.39,0,0,0,0,.55l3.6,3.6a.39.39,0,0,0,.55,0l1.42-1.41a1.57,1.57,0,0,0,0-2.2ZM16.37,14.65v4.07H3.59V5.94h9.18a.47.47,0,0,0,.33-.14l1.6-1.6a.49.49,0,0,0,0-.68.49.49,0,0,0-.34-.14H3A1.92,1.92,0,0,0,1,5.3H1V19.36A1.92,1.92,0,0,0,3,21.27H17a1.92,1.92,0,0,0,1.91-1.92v-6.3a.47.47,0,0,0-.48-.47.48.48,0,0,0-.34.14l-1.6,1.6A.51.51,0,0,0,16.37,14.65Z"/></g></svg>