<svg id="圖層_1" data-name="圖層 1" xmlns="http://www.w3.org/2000/svg" viewBox="0 0 172 251"><defs><style>.cls-1{fill:#eee;}.cls-10,.cls-11,.cls-2,.cls-3{isolation:isolate;}.cls-3{font-size:18px;fill:#00829b;font-family:PingFangTC-Medium-B5pc-H, PingFang TC;}.cls-4{fill:#ffc94f;}.cls-5{fill:#ffdbc2;}.cls-6{fill:#ffede0;}.cls-7{fill:#ff9190;}.cls-8{fill:#d1d6ff;}.cls-10,.cls-11,.cls-9{fill:#fff;}.cls-10{font-size:16px;}.cls-10,.cls-11{font-family:Arial-BoldMT, Arial;font-weight:700;}.cls-11{font-size:24px;}</style></defs><g id="Group_5543" data-name="Group 5543"><path id="Path_40674" data-name="Path 40674" class="cls-1" d="M13.33,18h148a6,6,0,0,1,6,6V241a6,6,0,0,1-6,6h-148a6,6,0,0,1-6-6V24A6,6,0,0,1,13.33,18Z"/><g id="工作底稿" class="cls-2"><text class="cls-3" transform="translate(51.33 220.97)">工作底稿</text></g><path id="Path_40737" data-name="Path 40737" class="cls-4" d="M36.33,2.81,40.2,7.1,45,4,47.67,9.1l5.49-1.78L54.36,13l5.77-.3-.3,5.77,5.65,1.2-1.78,5.5,5.15,2.62L65.7,32.61,70,36.47,65.7,40.34l3.15,4.85L63.7,47.81l1.78,5.49-5.65,1.2.3,5.77L54.36,60l-1.2,5.66-5.49-1.79L45,69,40.2,65.84l-3.87,4.3-3.87-4.3L27.62,69,25,63.84,19.5,65.63,18.3,60l-5.77.3.3-5.77-5.65-1.2L9,47.81,3.82,45.19,7,40.34,2.67,36.47,7,32.61,3.82,27.76,9,25.14l-1.78-5.5,5.65-1.2-.3-5.77,5.77.3,1.2-5.65L25,9.11,27.62,4,32.46,7.1Z"/><g id="Group_4123" data-name="Group 4123"><g id="Group_4112" data-name="Group 4112"><g id="Group_4110" data-name="Group 4110"><path id="Path_40742" data-name="Path 40742" class="cls-5" d="M70.69,95.68C63.87,146,57.06,167.49,42.12,170.11h67.64c14.94-2.62,21.76-24.11,28.57-74.43Z"/></g><g id="Group_4111" data-name="Group 4111"><path id="Path_40743" data-name="Path 40743" class="cls-6" d="M87.05,152.81H19.4s.35,17.3,22.72,17.3h67.64C87.4,170.11,87.05,152.81,87.05,152.81Z"/></g></g><g id="Group_4122" data-name="Group 4122"><g id="Group_4117" data-name="Group 4117"><g id="Group_4113" data-name="Group 4113"><circle id="Ellipse_17" data-name="Ellipse 17" class="cls-7" cx="65.73" cy="120.92" r="16.95"/></g><g id="Group_4115" data-name="Group 4115"><g id="Group_4114" data-name="Group 4114"><path id="Path_40744" data-name="Path 40744" class="cls-8" d="M65.22,131.51a1.91,1.91,0,0,1-1.48-.7l-10.25-12.5a1.92,1.92,0,0,1,3-2.43h0l8.73,10.65,13.52-17.36a1.92,1.92,0,1,1,3,2.36l-15,19.24a1.9,1.9,0,0,1-1.48.74Z"/></g></g><g id="Group_4116" data-name="Group 4116"><path id="Path_40745" data-name="Path 40745" class="cls-9" d="M65.31,129.5a1.89,1.89,0,0,1-1.48-.7L53.58,116.3a1.92,1.92,0,1,1,3-2.43l8.72,10.65L78.8,107.16a1.92,1.92,0,0,1,3,2.36l-15,19.24a1.92,1.92,0,0,1-1.49.74Z"/></g></g><g id="Group_4119" data-name="Group 4119"><g id="Group_4118" data-name="Group 4118"><rect id="Rectangle_2673" data-name="Rectangle 2673" class="cls-8" x="92.12" y="114.55" width="26.34" height="4.85" rx="2.42"/></g></g><g id="Group_4121" data-name="Group 4121"><g id="Group_4120" data-name="Group 4120"><path id="Path_40746" data-name="Path 40746" class="cls-8" d="M115.25,133.94H87.6a2.42,2.42,0,0,1-2.43-2.42h0a2.43,2.43,0,0,1,2.43-2.43h27.65a2.43,2.43,0,0,1,2.42,2.43h0a2.42,2.42,0,0,1-2.42,2.42Z"/></g></g></g></g><g id="Step" class="cls-2"><text class="cls-10" transform="translate(19.33 32.97)">Step</text></g><g id="_4" data-name=" 4" class="cls-2"><text class="cls-11" transform="translate(28.24 55.97)">3</text></g></g></svg>