<svg id="圖層_1" data-name="圖層 1" xmlns="http://www.w3.org/2000/svg" viewBox="0 0 172 251"><defs><style>.cls-1{fill:#eee;}.cls-12,.cls-13,.cls-15,.cls-19,.cls-2,.cls-20,.cls-3{isolation:isolate;}.cls-3{font-size:18px;fill:#00829b;font-family:PingFangTC-Medium-B5pc-H, PingFang TC;}.cls-4{fill:#e3e5e8;}.cls-5{fill:#e8eaed;}.cls-6{fill:#f2f4f7;}.cls-7{fill:#626f82;stroke:#616d7f;stroke-miterlimit:10;}.cls-8{fill:#ffed00;}.cls-9{fill:#f9b233;}.cls-10{fill:#95c11f;}.cls-11,.cls-13{fill:#1d1d1b;}.cls-12{fill:#94def7;}.cls-12,.cls-16{opacity:0.5;}.cls-13{opacity:0.1;}.cls-14{fill:#575756;}.cls-15,.cls-17,.cls-19,.cls-20{fill:#fff;}.cls-15{opacity:0.3;}.cls-18{fill:#ffc94f;}.cls-19{font-size:24px;}.cls-19,.cls-20{font-family:Arial-BoldMT, Arial;font-weight:700;}.cls-20{font-size:16px;}</style></defs><g id="Group_5546" data-name="Group 5546"><path id="Path_40670" data-name="Path 40670" class="cls-1" d="M13.06,18h148a6,6,0,0,1,6,6V241a6,6,0,0,1-6,6h-148a6,6,0,0,1-6-6V24A6,6,0,0,1,13.06,18Z"/><g id="稽核報告" class="cls-2"><text class="cls-3" transform="translate(51.06 220.97)">稽核報告</text></g><g id="栝鍣_1" data-name="栝鍣 1"><g id="Group_4460" data-name="Group 4460"><g id="Group_4456" data-name="Group 4456"><rect id="Rectangle_2692" data-name="Rectangle 2692" class="cls-4" x="37.74" y="95.24" width="98.8" height="72.89" transform="translate(-52 206.35) rotate(-84.72)"/><rect id="Rectangle_2693" data-name="Rectangle 2693" class="cls-5" x="37.61" y="96.21" width="98.78" height="72.87" transform="translate(-57.06 199.06) rotate(-81.49)"/><rect id="Rectangle_2694" data-name="Rectangle 2694" class="cls-6" x="47.01" y="81.06" width="74.26" height="100.66"/><rect id="Rectangle_2695" data-name="Rectangle 2695" class="cls-7" x="57.59" y="103.16" width="41.22" height="0.98"/><rect id="Rectangle_2696" data-name="Rectangle 2696" class="cls-7" x="57.59" y="109.67" width="41.22" height="0.98"/><rect id="Rectangle_2697" data-name="Rectangle 2697" class="cls-7" x="57.59" y="116.18" width="41.22" height="0.98"/><g id="Group_4455" data-name="Group 4455"><rect id="Rectangle_2698" data-name="Rectangle 2698" class="cls-8" x="58.59" y="151.07" width="15.02" height="24.26"/><rect id="Rectangle_2699" data-name="Rectangle 2699" class="cls-9" x="77.08" y="138.72" width="15.02" height="36.61"/><rect id="Rectangle_2700" data-name="Rectangle 2700" class="cls-10" x="95.57" y="123.24" width="15.02" height="52.54"/></g></g><g id="Group_4459" data-name="Group 4459"><path id="Path_40941" data-name="Path 40941" class="cls-10" d="M110.55,132.67v42.94H95.48l.16-48.52C95.8,126.26,104.67,127,110.55,132.67Z"/><rect id="Rectangle_2701" data-name="Rectangle 2701" class="cls-11" x="119.11" y="152.57" width="4.53" height="21.44" transform="translate(-81.06 183.67) rotate(-59.12)"/><path id="Path_40942" data-name="Path 40942" class="cls-12" d="M106,128.53c8.36,4.8,11.23,15.2,7,24a20.32,20.32,0,0,1-1,1.88c-5.7,9.15-17.59,12.39-26.56,7.24s-11.6-16.74-5.9-25.88A20.68,20.68,0,0,1,91,126.92,19.05,19.05,0,0,1,106,128.53Z"/><path id="Path_40943" data-name="Path 40943" class="cls-13" d="M105.46,129.41c7.91,4.54,10.62,14.39,6.57,22.72.26-17.91-14.72-22.94-20.76-24.24A18,18,0,0,1,105.46,129.41Z"/><g id="Group_4457" data-name="Group 4457"><path id="Path_40944" data-name="Path 40944" class="cls-14" d="M143.52,173.14l-24-14.82a.81.81,0,0,0-1.12.26l0,0-.29.49-.18.32-1.5,2.58-.47.81a.89.89,0,0,0,.29,1.19l24,14.82a2.81,2.81,0,0,0,3.29-.23,3,3,0,0,0,.67-.8l.33-.56A3,3,0,0,0,143.52,173.14Zm-3,4.22a1.9,1.9,0,0,1-.7-2.59h0l.06-.1a2,2,0,0,1,.65-.6,1.76,1.76,0,0,1,1.76.05,1.89,1.89,0,0,1,.6,2.6,1.81,1.81,0,0,1-.5.53,1.76,1.76,0,0,1-1.87.12Z"/><path id="Path_40945" data-name="Path 40945" class="cls-15" d="M119.56,158.31l24,14.83a3,3,0,0,1,1,4.1l-.32.56a3.21,3.21,0,0,1-.67.8c-.33-.44-.69-.9-1.09-1.35a2.05,2.05,0,0,0,.49-.53,1.62,1.62,0,0,0,.17-.35,1.9,1.9,0,0,0-.76-2.25,1.77,1.77,0,0,0-2.41.54c-6.79-6.38-18.07-13.33-21.79-15.55l.28-.5a.83.83,0,0,1,1.12-.31Z"/></g><path id="Path_40946" data-name="Path 40946" class="cls-11" d="M107.77,126.31a21.26,21.26,0,0,0-17.61-1.49,22.93,22.93,0,0,0-12,9.56,23.85,23.85,0,0,0-1.46,2.73c-.14.32-.27.64-.4,1h0c-.2.51-.37,1-.53,1.53-.11.34-.2.69-.29,1v0l0,.1v0c-.1.44-.2.88-.28,1.32a21.18,21.18,0,0,0-.11,6.88h0v0h0a19.08,19.08,0,0,0,.51,2.36v0a20.64,20.64,0,0,0,.79,2.29h0c0,.08.07.15.1.23h0l.08.18a19.6,19.6,0,0,0,8.09,9l.12.07A21.79,21.79,0,0,0,108,161.83a24.26,24.26,0,0,0,2.5-2,22.73,22.73,0,0,0,2.31-2.5h0a23.38,23.38,0,0,0,1.53-2.16c.27-.44.53-.88.76-1.33h0C120.44,143.86,117.33,131.8,107.77,126.31Zm-3.57,33.86a18.19,18.19,0,0,1-15.78.88,17,17,0,0,1-1.76-.88,16.66,16.66,0,0,1-3.9-3.09,17.41,17.41,0,0,1-1.67-2.15,13.84,13.84,0,0,1-.79-1.34L80,153a13.61,13.61,0,0,1-.67-1.63,17.5,17.5,0,0,1,.6-12.94c.08-.2.18-.4.27-.59.22-.44.46-.89.71-1.32.09-.14.17-.28.25-.42l.39-.59v0q.33-.49.69-1l0,0,.09-.12a19.12,19.12,0,0,1,7.78-5.87c.48-.2,1-.37,1.45-.53a18.65,18.65,0,0,1,5-.87h0a17.29,17.29,0,0,1,9.27,2.26c7.79,4.48,10.45,14.18,6.44,22.37-.07.15-.14.3-.22.44-.22.43-.47.86-.73,1.27a19.23,19.23,0,0,1-7.16,6.74Z"/><g id="Group_4458" data-name="Group 4458" class="cls-16"><path id="Path_40947" data-name="Path 40947" class="cls-17" d="M86.25,153.18a5.9,5.9,0,0,1,.94-1.56l.39-.46-1.29-1.37A12.85,12.85,0,0,1,84.81,148c-1.08,1.08-2.14,2.27-2,2.53A14.37,14.37,0,0,0,86,154.24,3,3,0,0,1,86.25,153.18Z"/><path id="Path_40948" data-name="Path 40948" class="cls-17" d="M90.86,154.35a21.42,21.42,0,0,1-1.68-1.48c-.45-.44-.89-.89-1.32-1.34a7.22,7.22,0,0,0-.5.6,5.15,5.15,0,0,0-.89,1.58,2.53,2.53,0,0,0-.14.9,25,25,0,0,0,5.25,3.65c.29.05,1.41-.88,2.41-1.91-.45-.23-.9-.49-1.35-.76A16.67,16.67,0,0,1,90.86,154.35Z"/><path id="Path_40949" data-name="Path 40949" class="cls-17" d="M88.85,149.93a5.35,5.35,0,0,1,1-.65l.06,0a19.66,19.66,0,0,1-2.72-3.38,10.47,10.47,0,0,0-2.08,1.79l.15.22a16.55,16.55,0,0,0,1.54,1.81l1.09,1.15A8.31,8.31,0,0,1,88.85,149.93Z"/><path id="Path_40950" data-name="Path 40950" class="cls-17" d="M90.18,149.46l-.33.17a5.91,5.91,0,0,0-.95.69,10.46,10.46,0,0,0-.75.74c.57.59,1.13,1.17,1.74,1.73a17.56,17.56,0,0,0,3.49,2.6c.3.17.6.34.91.5,1-1,1.83-2.08,1.67-2.41C95.71,153,93.05,152.25,90.18,149.46Z"/></g></g></g></g><path id="Path_40740" data-name="Path 40740" class="cls-18" d="M36.6,2.81,40.47,7.1,45.32,4,47.94,9.1l5.49-1.78L54.63,13l5.77-.3-.3,5.77,5.66,1.2L64,25.14l5.15,2.62L66,32.61l4.29,3.86L66,40.34l3.15,4.85L64,47.81l1.78,5.49L60.1,54.5l.3,5.77L54.63,60l-1.2,5.66-5.49-1.79L45.31,69l-4.84-3.15-3.87,4.3-3.86-4.3L27.89,69l-2.62-5.15-5.5,1.79L18.57,60l-5.77.3.3-5.77-5.65-1.2,1.78-5.5L4.09,45.19l3.14-4.85L2.94,36.47l4.29-3.86L4.09,27.76l5.14-2.62-1.78-5.5,5.65-1.2-.3-5.77,5.77.3,1.2-5.65,5.5,1.79L27.89,4,32.74,7.1Z"/><g id="_6" data-name=" 6" class="cls-2"><text class="cls-19" transform="translate(28.06 55.97)">6</text></g><g id="Step" class="cls-2"><text class="cls-20" transform="translate(19.06 32.97)">Step</text></g></g></svg>