<svg id="圖層_1" data-name="圖層 1" xmlns="http://www.w3.org/2000/svg" viewBox="0 0 172 251"><defs><style>.cls-1{fill:#eee;}.cls-16,.cls-17,.cls-2,.cls-3{isolation:isolate;}.cls-3{font-size:18px;fill:#00829b;font-family:PingFangTC-Medium-B5pc-H, PingFang TC;}.cls-4{fill:#ffc94f;}.cls-5{fill:#a297c9;}.cls-6{fill:#9fabf5;}.cls-7{fill:#e5a1bb;}.cls-8{fill:#e6e6e6;}.cls-9{fill:#d9d9d9;}.cls-10{fill:#3b2f5b;}.cls-11{fill:#bd5e44;}.cls-12{fill:#504586;}.cls-13{fill:#f7bc96;}.cls-14{fill:#f2f2f2;}.cls-15{fill:#ffe152;}.cls-16{font-size:24px;}.cls-16,.cls-17{fill:#fff;font-family:Arial-BoldMT, Arial;font-weight:700;}.cls-17{font-size:16px;}</style></defs><g id="Group_5545" data-name="Group 5545"><path id="Path_40672" data-name="Path 40672" class="cls-1" d="M13.15,18h148a6,6,0,0,1,6,6V241a6,6,0,0,1-6,6h-148a6,6,0,0,1-6-6V24A6,6,0,0,1,13.15,18Z"/><g id="查核結束會議" class="cls-2"><text class="cls-3" transform="translate(33.15 220.97)">查核結束會議</text></g><path id="Path_40739" data-name="Path 40739" class="cls-4" d="M36.51,2.81,40.38,7.1,45.23,4,47.85,9.1l5.49-1.78L54.54,13l5.77-.3L60,18.44l5.66,1.2-1.79,5.5L69,27.76l-3.15,4.85,4.29,3.86-4.29,3.87L69,45.19l-5.15,2.62,1.78,5.49L60,54.5l.3,5.77L54.54,60l-1.2,5.66-5.49-1.79L45.22,69l-4.84-3.15-3.87,4.3-3.86-4.3L27.8,69l-2.62-5.15-5.5,1.79L18.48,60l-5.77.3.3-5.77-5.65-1.2,1.78-5.5L4,45.19l3.14-4.85L2.85,36.47l4.29-3.86L4,27.76l5.14-2.62-1.78-5.5L13,18.44l-.3-5.77,5.77.3,1.2-5.65,5.5,1.79L27.8,4,32.65,7.1Z"/><g id="Group_4477" data-name="Group 4477"><path id="Path_40951" data-name="Path 40951" class="cls-5" d="M97.82,117.92l-21.56,3.79-.17-22.08,21.56-3.79Z"/><path id="Path_40952" data-name="Path 40952" class="cls-5" d="M124,113.33l-21.57,3.79L102.23,95l21.56-3.78Z"/><path id="Path_40953" data-name="Path 40953" class="cls-6" d="M98.25,143.89l-47.73,8.39-.37-48.88L97.88,95Z"/><path id="Path_40954" data-name="Path 40954" class="cls-7" d="M124.16,139.3l-21.57,3.79L102.42,121,124,117.22Z"/><path id="Path_40955" data-name="Path 40955" class="cls-8" d="M72.08,174.46l-21.56,3.79-.17-22.09,21.56-3.79Z"/><path id="Path_40956" data-name="Path 40956" class="cls-5" d="M98.22,169.87l-21.57,3.79-.17-22.09,21.57-3.79Z"/><path id="Path_40957" data-name="Path 40957" class="cls-9" d="M124.36,165.27l-21.57,3.79L102.62,147l21.57-3.79Z"/><g id="Group_4462" data-name="Group 4462"><path id="Path_40958" data-name="Path 40958" class="cls-10" d="M116.31,125.44c-1.13-1.13-3.84-.85-5.32.5-2.31,2.09-1.9,7,.13,9.72,1.87,2.47,5,2.85,8.8,3.32.49.06,1.74.2,1.86-.06s-1.23-.59-2.25-1.49c-2-1.77-2.27-5.36-2.59-9.79A3.21,3.21,0,0,0,116.31,125.44Z"/><g id="Group_4461" data-name="Group 4461"><path id="Path_40959" data-name="Path 40959" class="cls-11" d="M116.25,129.49c0-2.11-1.34-3.59-3-3.31s-2.91,2.23-2.9,4.34a3.41,3.41,0,0,0,2.53,3.31,23.25,23.25,0,0,1-.77,3.78l1.09-.2.26,0,1.09-.19a18.37,18.37,0,0,1-.83-3.5A5.26,5.26,0,0,0,116.25,129.49Z"/><path id="Path_40960" data-name="Path 40960" class="cls-12" d="M120.26,137.14a15.76,15.76,0,0,1-6.14-1.54,3.35,3.35,0,0,1-1.5.26,22.34,22.34,0,0,1-6.1,3.69c-1.38.61-2.43,2.34-2.17,3.09l9-1.58.18,0,9-1.58C122.72,138.62,121.64,137.26,120.26,137.14Z"/></g><path id="Path_40961" data-name="Path 40961" class="cls-10" d="M111.43,125.66c.73-1,3.87-.83,5.71.32.38.24,2.1,1.32,1.58,2.54a3.77,3.77,0,0,1-2.64,1.64C113,130.7,110.51,126.94,111.43,125.66Z"/></g><g id="Group_4468" data-name="Group 4468"><g id="Group_4464" data-name="Group 4464"><g id="Group_4463" data-name="Group 4463"><ellipse id="Ellipse_34" data-name="Ellipse 34" class="cls-13" cx="87.35" cy="160.7" rx="3.9" ry="2.87" transform="translate(-87.87 213.17) rotate(-78.15)"/></g></g><g id="Group_4466" data-name="Group 4466"><g id="Group_4465" data-name="Group 4465"><path id="Path_40962" data-name="Path 40962" class="cls-13" d="M90.9,167.25a14.17,14.17,0,0,1-2.75-1,18.35,18.35,0,0,1-.43-2.55l-.22,0-.26.05-.22,0a22.51,22.51,0,0,1-.39,2.7,20.35,20.35,0,0,1-2.73,2l2.35-.41-.07.22,1.09-.19.26-.05,1.09-.19-.06-.2,2.34-.41Z"/></g></g><path id="Path_40963" data-name="Path 40963" class="cls-14" d="M94.28,167.77a16,16,0,0,1-5.73-1.34,1.65,1.65,0,0,1-1.15,1.48c-.58.1-1.06-.37-1.16-1.08a22.7,22.7,0,0,1-5.7,3.36c-1.38.61-2.43,2.34-2.17,3.09l9-1.58.18,0,9-1.58C96.74,169.26,95.66,167.9,94.28,167.77Z"/><path id="Path_40964" data-name="Path 40964" class="cls-10" d="M84.72,160.58c.79.54,2.17.27,3.11-.15,3-1.32,4.42-5.37,4.29-5.39s-.57,1.06-1.51,1.42c-.6.23-.9,0-1.49-.05-1.44-.13-4,.89-4.74,2.18A1.43,1.43,0,0,0,84.72,160.58Z"/><g id="Group_4467" data-name="Group 4467"><path id="Path_40965" data-name="Path 40965" class="cls-10" d="M85.08,161.24c0,.88-.15,1.62-.36,1.66s-.38-.65-.39-1.53.16-1.63.37-1.66S85.08,160.35,85.08,161.24Z"/><path id="Path_40966" data-name="Path 40966" class="cls-10" d="M90.36,160.31c0,.88-.15,1.62-.36,1.66s-.38-.65-.39-1.53.16-1.63.37-1.66S90.36,159.43,90.36,160.31Z"/></g></g><g id="Group_4469" data-name="Group 4469"><ellipse id="Ellipse_35" data-name="Ellipse 35" class="cls-11" cx="113.62" cy="104.14" rx="3.9" ry="2.87" transform="translate(-11.63 193.94) rotate(-78.15)"/><path id="Path_40967" data-name="Path 40967" class="cls-11" d="M117.17,110.69a13.58,13.58,0,0,1-2.75-1,19.52,19.52,0,0,1-.43-2.54l-.22,0-.26,0-.22,0a20.42,20.42,0,0,1-.39,2.7,21.24,21.24,0,0,1-2.72,2l2.34-.41-.06.22,1.08-.19.27,0,1.08-.19-.06-.2,2.34-.41Z"/><path id="Path_40968" data-name="Path 40968" class="cls-15" d="M120.55,111.21a16,16,0,0,1-5.73-1.35,1.62,1.62,0,0,1-1.15,1.48c-.57.1-1.06-.36-1.16-1.07a22.37,22.37,0,0,1-5.7,3.35c-1.37.62-2.43,2.35-2.17,3.09l9-1.57.18,0,9-1.57C123,112.7,121.93,111.34,120.55,111.21Z"/><path id="Path_40969" data-name="Path 40969" class="cls-10" d="M111.1,106.68a5.51,5.51,0,0,1,.14-2.14,12,12,0,0,0,4.52-1.17,6.76,6.76,0,0,1,.59,2,5.24,5.24,0,0,0,.17-2.12L118,102l-1.52,0a6.18,6.18,0,0,0,.72-3,4.77,4.77,0,0,1-2.45,1.4A3.39,3.39,0,0,0,113.7,98a3.34,3.34,0,0,0-.81,2.13,5.89,5.89,0,0,1-2.92.13,1.53,1.53,0,0,0,1.44,1.16,4.16,4.16,0,0,0-1.79,1.66A9,9,0,0,0,111.1,106.68Z"/></g><g id="Group_4470" data-name="Group 4470"><path id="Path_40970" data-name="Path 40970" class="cls-10" d="M59.86,160.58a3,3,0,0,1,3.66.74,6.2,6.2,0,0,1,1.25,3.56c0,.18.46,4.18-.7,5.21-.94.83-2.07-1-3.5.09-.49.39-.47.69-.94,1a2.25,2.25,0,0,1-3-1l-.09-.21C55.41,167.59,57.14,162,59.86,160.58Z"/><path id="Path_40971" data-name="Path 40971" class="cls-11" d="M63.49,164.89c0-2.1-1.33-3.58-2.94-3.29s-2.9,2.21-2.88,4.31a3.41,3.41,0,0,0,2.52,3.3,23,23,0,0,1-.77,3.76l1.09-.19.26-.05,1.08-.19a18.07,18.07,0,0,1-.82-3.49A5.22,5.22,0,0,0,63.49,164.89Z"/><path id="Path_40972" data-name="Path 40972" class="cls-15" d="M67.48,172.5a15.71,15.71,0,0,1-6-1.47q-.09-.63-.15-1.26l-.45.08-.55.1-.45.08c0,.44-.08.87-.13,1.31a22.49,22.49,0,0,1-5.95,3.56c-1.37.61-2.42,2.34-2.16,3.08l8.92-1.57.18,0,8.92-1.57C69.92,174,68.85,172.62,67.48,172.5Z"/><path id="Path_40973" data-name="Path 40973" class="cls-5" d="M69.68,174.8a.08.08,0,0,1,0,0l-9-.27-9,3.44s0,0,0,0l8.92-1.57.18,0Z"/><path id="Path_40974" data-name="Path 40974" class="cls-10" d="M63.5,160.63c.48.8-1.11,3.42-2.88,4.77-.36.27-2,1.52-2.75.85-.52-.47-.39-1.71-.09-2.53C58.78,161,62.91,159.61,63.5,160.63Z"/></g><g id="Group_4473" data-name="Group 4473"><path id="Path_40975" data-name="Path 40975" class="cls-10" d="M67.66,131.77c2,.63,8.21,2.62,13-1.61a17,17,0,0,0,3-3.75c.61-1,2.13-3.41,1.65-4.19s-2.62.6-2.83,0c-.14-.4.93-1.1,1.52-2.55.77-1.9.5-4.53-.48-5-1.2-.54-3,2.47-3.78,1.92s.89-3.34,0-5.18A2.68,2.68,0,0,0,76,110.39a2.39,2.39,0,0,0-.34.21c-.94.91-.58,2.64-1.27,3s-1.43-2.09-3.2-2.13a2.78,2.78,0,0,0-2.38,1.44c-.68,1.18.23,2.46-.27,3-.67.79-2.43-1.26-3.43-.4s-.94,3.33-.06,4.73c.49.79,1.13.94,1,1.31-.17.8-3.22.63-3.42,1.45s2.66,1.58,2.51,2.9c-.13,1.08-2.15,1.4-2.32,2.43C62.69,129.6,65.31,131,67.66,131.77Z"/><g id="Group_4472" data-name="Group 4472"><g id="Group_4471" data-name="Group 4471"><path id="Path_40976" data-name="Path 40976" class="cls-13" d="M81.41,138.75l-.22-.05h0a28.86,28.86,0,0,1-5.47-2.06,38.81,38.81,0,0,1-.73-3.87,10.91,10.91,0,0,0,5.13-8.67c0-4.38-2.78-7.45-6.13-6.86s-6,4.61-6,9c0,3.83,3,6.51,5.25,6.86-.16,1.39-.39,2.77-.67,4.13a44,44,0,0,1-5.39,3.94h0v0l-.22.13.22,0,0,4,7,.29,7-2.76,0-4,.23,0Z"/></g></g><path id="Path_40977" data-name="Path 40977" class="cls-12" d="M88.4,139.79c-4.9-.5-7.55-1-10.64-2.26l-3.58,7.08-3.68-5.8a48.42,48.42,0,0,1-10.58,6c-2.85,1.27-5,4.86-4.49,6.4L74,147.93l.37-.07L93,144.6C93.49,142.87,91.26,140.05,88.4,139.79Z"/><path id="Path_40978" data-name="Path 40978" class="cls-7" d="M74.19,146.94l4.57-9c-.33-.12-.67-.25-1-.39l-3.58,7.08-3.68-5.8-1,.74Z"/><path id="Path_40979" data-name="Path 40979" class="cls-10" d="M78.79,117.68c.34,1.75-3.71,5.62-7.36,7-.75.3-4.14,1.62-5,0-.6-1.17.29-3.37,1.23-4.7C70.8,115.57,78.36,115.46,78.79,117.68Z"/></g><g id="Group_4475" data-name="Group 4475"><g id="Group_4474" data-name="Group 4474"><path id="Path_40980" data-name="Path 40980" class="cls-11" d="M116.41,155.33c0-2.1-1.33-3.57-2.94-3.29s-2.9,2.21-2.88,4.32a3.39,3.39,0,0,0,2.52,3.29,23,23,0,0,1-.77,3.76l1.09-.19.26-.05,1.08-.19a18.15,18.15,0,0,1-.82-3.48A5.25,5.25,0,0,0,116.41,155.33Z"/><path id="Path_40981" data-name="Path 40981" class="cls-14" d="M120.4,162.94a15.71,15.71,0,0,1-6-1.47c-.06-.42-.1-.84-.15-1.26l-.45.08-.55.1-.45.08c0,.44-.08.87-.13,1.31a22.63,22.63,0,0,1-6,3.57c-1.37.6-2.42,2.33-2.16,3.07l8.93-1.57.17,0,8.93-1.57C122.85,164.42,121.77,163.07,120.4,162.94Z"/><path id="Path_40982" data-name="Path 40982" class="cls-5" d="M116.66,164.87a2.78,2.78,0,0,0,.91,0,3.38,3.38,0,0,0,2.42-2l-1-.11a2.15,2.15,0,0,1-1.46,1.08,1.54,1.54,0,0,1-1-.15l-.15-.14a5,5,0,0,1-2.83,1.62,3.64,3.64,0,0,1-2.84-.63l-.15.2a2,2,0,0,1-1,.5,1.46,1.46,0,0,1-1.48-.56c-.3.14-.62.3-1,.45a2.25,2.25,0,0,0,2.45,1.12,2.9,2.9,0,0,0,.91-.32,4.79,4.79,0,0,0,3.09.45A6.41,6.41,0,0,0,116.66,164.87Z"/></g><path id="Path_40983" data-name="Path 40983" class="cls-10" d="M114.92,150a1.79,1.79,0,0,1-1.43,1.74,1.2,1.2,0,0,1-1.43-.93,1,1,0,0,1,0-.3,1.79,1.79,0,0,1,1.44-1.73,1.2,1.2,0,0,1,1.43.92A1,1,0,0,1,114.92,150Z"/><ellipse id="Ellipse_36" data-name="Ellipse 36" class="cls-10" cx="113.19" cy="151.77" rx="1.59" ry="1.35" transform="translate(-76.06 146.45) rotate(-51.67)"/><path id="Path_40984" data-name="Path 40984" class="cls-10" d="M117.36,152a1.5,1.5,0,0,1-1.2,1.45,1,1,0,0,1-1.2-.77,2.11,2.11,0,0,1,0-.25,1.5,1.5,0,0,1,1.2-1.45,1,1,0,0,1,1.2.77A1.1,1.1,0,0,1,117.36,152Z"/><ellipse id="Ellipse_37" data-name="Ellipse 37" class="cls-10" cx="111.62" cy="152.96" rx="1.33" ry="1.13" transform="translate(-77.6 145.63) rotate(-51.66)"/><ellipse id="Ellipse_38" data-name="Ellipse 38" class="cls-10" cx="110.33" cy="154.92" rx="1.05" ry="0.89" transform="translate(-79.62 145.4) rotate(-51.67)"/><ellipse id="Ellipse_39" data-name="Ellipse 39" class="cls-10" cx="110.57" cy="152.75" rx="1.33" ry="1.13" transform="translate(-77.83 144.73) rotate(-51.66)"/><path id="Path_40985" data-name="Path 40985" class="cls-10" d="M112.48,150.76a1.5,1.5,0,0,1-1.2,1.45,1,1,0,0,1-1.2-.77,2.29,2.29,0,0,1,0-.25,1.5,1.5,0,0,1,1.2-1.45,1,1,0,0,1,1.2.77A1.06,1.06,0,0,1,112.48,150.76Z"/><path id="Path_40986" data-name="Path 40986" class="cls-10" d="M116.37,151a1.52,1.52,0,0,1-1.2,1.45,1,1,0,0,1-1.2-.78.71.71,0,0,1,0-.25,1.51,1.51,0,0,1,1.2-1.45,1,1,0,0,1,1.19.77A1.15,1.15,0,0,1,116.37,151Z"/><ellipse id="Ellipse_40" data-name="Ellipse 40" class="cls-10" cx="116.27" cy="151.72" rx="1.33" ry="1.13" transform="translate(-74.85 148.8) rotate(-51.66)"/><ellipse id="Ellipse_41" data-name="Ellipse 41" class="cls-10" cx="116.31" cy="153.54" rx="0.9" ry="0.76" transform="translate(-76.27 149.53) rotate(-51.66)"/><ellipse id="Ellipse_42" data-name="Ellipse 42" class="cls-10" cx="110.58" cy="153.73" rx="1.33" ry="1.13" transform="translate(-78.59 145.1) rotate(-51.66)"/><ellipse id="Ellipse_43" data-name="Ellipse 43" class="cls-10" cx="115.36" cy="150.62" rx="1.33" ry="1.13" transform="translate(-74.34 147.68) rotate(-51.66)"/></g><path id="Path_40987" data-name="Path 40987" class="cls-12" d="M124.42,173.89l-73.84,13,0-3.31,73.84-13Z"/><g id="Group_4476" data-name="Group 4476"><ellipse id="Ellipse_44" data-name="Ellipse 44" class="cls-14" cx="83.61" cy="179.4" rx="0.97" ry="0.82" transform="translate(-108.97 133.7) rotate(-51.66)"/><ellipse id="Ellipse_45" data-name="Ellipse 45" class="cls-14" cx="87.49" cy="178.71" rx="0.97" ry="0.82" transform="translate(-106.97 136.53) rotate(-51.67)"/><ellipse id="Ellipse_46" data-name="Ellipse 46" class="cls-14" cx="91.37" cy="178.03" rx="0.97" ry="0.82" transform="translate(-104.97 139.39) rotate(-51.7)"/></g></g><g id="_5" data-name=" 5" class="cls-2"><text class="cls-16" transform="translate(28.15 55.97)">5</text></g><g id="Step" class="cls-2"><text class="cls-17" transform="translate(19.15 32.97)">Step</text></g></g></svg>