<svg xmlns="http://www.w3.org/2000/svg" xmlns:xlink="http://www.w3.org/1999/xlink" width="51" height="39" viewBox="0 0 51 39">
  <defs>
    <clipPath id="clip-button_risk_blue">
      <rect width="51" height="39"/>
    </clipPath>
  </defs>
  <g id="button_risk_blue" clip-path="url(#clip-button_risk_blue)">
    <g id="Component_248_2" data-name="Component 248 – 2">
      <rect id="Rectangle_7837" data-name="Rectangle 7837" width="51" height="39" fill="none"/>
      <g id="Group_18397" data-name="Group 18397" transform="translate(10.521 10.436)">
        <path id="Path_13198" data-name="Path 13198" d="M8.73,30.879c.485-.028.968-.059,1.452-.1.574-.044,1.146-.1,1.715-.187.284-.043.567-.092.848-.153a3.008,3.008,0,0,0,1.077-.479,21.915,21.915,0,0,1,2.2-1.289,6.149,6.149,0,0,1,.947-.431.847.847,0,0,1,.578-.019.732.732,0,0,1,.474.585.722.722,0,0,1-.277.725,3.861,3.861,0,0,1-.577.359q-2.288,1.344-4.579,2.683a3.713,3.713,0,0,1-2.1.5c-.7-.036-1.41-.067-2.116-.1L5.7,32.862l-1.853-.08c-.106,0-.212-.01-.318-.017a.072.072,0,0,0-.079.042.855.855,0,0,1-.742.447c-.484.033-.967.067-1.45.107a.939.939,0,0,1-1.021-.91c-.045-.813-.11-1.626-.167-2.439q-.031-.435-.065-.87a.909.909,0,0,1,.817-.957c.513-.043,1.027-.077,1.541-.113a.8.8,0,0,1,.769.352c.034.05.063.019.092.008a7.308,7.308,0,0,1,.972-.345,5.252,5.252,0,0,1,1.775-.146,7.537,7.537,0,0,1,1.511.294,4.167,4.167,0,0,0,1.153.116c1.052.007,2.1.022,3.155.032a1.116,1.116,0,0,1,.429.052.843.843,0,0,1-.185,1.619c-.366.047-.735.074-1.1.109l-1.673.157-1.231.114a.23.23,0,0,0-.231.231.227.227,0,0,0,.248.211c.23,0,.461,0,.691,0" transform="translate(5.479 -15.401)" fill="#0093c1"/>
        <path id="Path_13200" data-name="Path 13200" d="M45.517,27.016a25.347,25.347,0,0,0-3.085,1.72c0-.038,0-.071,0-.1a1.346,1.346,0,0,0-.068-.512c-.017-.049-.025-.087.035-.118a22.8,22.8,0,0,1,2.258-1.062.916.916,0,0,1,.859.076" transform="translate(-23.676 -14.701)" fill="#0093c1"/>
        <path id="Path_13201" data-name="Path 13201" d="M40.183,26.239a8.3,8.3,0,0,1,.835-.336c.268-.1.537-.191.8-.3a.847.847,0,0,1,.815.085c-.131.055-.251.106-.371.156-.426.174-.862.327-1.272.538-.122.063-.241.134-.358.206-.031.019-.045.02-.071,0-.122-.114-.246-.225-.378-.346" transform="translate(-22.239 -13.818)" fill="#0093c1"/>
        <path id="Path_13203" data-name="Path 13203" d="M19122.215,22483.107a6.044,6.044,0,1,1,6.045-6.043A6.055,6.055,0,0,1,19122.215,22483.107Zm-.543-2.687h0v.617a.694.694,0,0,0,.7.689.709.709,0,0,0,.691-.689v-.617a2.02,2.02,0,0,0,0-4.039h-1.441a.665.665,0,0,1-.656-.654.648.648,0,0,1,.189-.471.707.707,0,0,1,.467-.191h1.441a1.019,1.019,0,0,1,.693.287.669.669,0,0,0,.482.191.678.678,0,0,0,.486-.191.7.7,0,0,0,0-.975,2.363,2.363,0,0,0-1.74-.758h-.031v-.541a.693.693,0,0,0-.693-.689.656.656,0,0,0-.492.2.674.674,0,0,0-.2.488v.6h-.182a2.02,2.02,0,0,0-1.74.961,2.063,2.063,0,0,0,0,2.148,2.02,2.02,0,0,0,1.74.961c.061,0,.115,0,.174,0l.008,0h1.494a.661.661,0,0,1,.658.658.67.67,0,0,1-.658.658h-1.527a.914.914,0,0,1-.535-.2.73.73,0,0,0-.387-.113.707.707,0,0,0-.57.291.639.639,0,0,0-.121.512.673.673,0,0,0,.283.447,2.371,2.371,0,0,0,1.352.424h.061C19121.635,22480.424,19121.652,22480.42,19121.672,22480.42Z" transform="translate(-19107.418 -22471.455)" fill="#00a59b"/>
      </g>
    </g>
  </g>
</svg>
