<svg xmlns="http://www.w3.org/2000/svg" xmlns:xlink="http://www.w3.org/1999/xlink" width="51" height="39" viewBox="0 0 51 39">
  <defs>
    <clipPath id="clip-path">
      <rect id="Rectangle_7006" data-name="Rectangle 7006" width="17.907" height="17.911" transform="translate(0 0)" fill="#999"/>
    </clipPath>
    <clipPath id="clip-button_report_blue">
      <rect width="51" height="39"/>
    </clipPath>
  </defs>
  <g id="button_report_blue" clip-path="url(#clip-button_report_blue)">
    <g id="Component_532_1" data-name="Component 532 – 1">
      <rect id="Rectangle_7834" data-name="Rectangle 7834" width="51" height="39" fill="none"/>
      <g id="Group_18393" data-name="Group 18393" transform="translate(16.547 10.543)">
        <g id="Group_18262" data-name="Group 18262" clip-path="url(#clip-path)">
          <path id="Subtraction_3" data-name="Subtraction 3" d="M18756.895,23628.369h-3.988l-2.742,0h-5.568l-1.477,0a.638.638,0,0,1-.664-.391v-17.139a.714.714,0,0,1,.385-.385h8.883v1.566c0,.969-.006,2.068,0,3.119a.453.453,0,0,0,.053.219.545.545,0,0,0,.547.291c1.453-.006,2.93-.006,4.357-.006h.215v4.43a4,4,0,1,0,0,7.678v.617Zm-11.783-7a.544.544,0,0,0-.559.527.535.535,0,0,0,.547.521c.484,0,.975,0,1.459,0s.975,0,1.459,0a.5.5,0,0,0,.443-.23.49.49,0,0,0,.035-.529.525.525,0,0,0-.484-.289h-2.9Zm.023-2.447-.07,0a.551.551,0,0,0-.455.293.494.494,0,0,0,.021.49.554.554,0,0,0,.516.268h5.313a.541.541,0,0,0,.564-.521.532.532,0,0,0-.559-.527.563.563,0,0,0-.094,0h-5.094c-.023,0-.047,0-.07,0l-.037,0Zm.012-2.445a.529.529,0,1,0,.006,1.049h5.26a.568.568,0,0,0,.545-.279.5.5,0,0,0,0-.506.569.569,0,0,0-.5-.264c-.3,0-.594,0-.891,0s-.594,0-.893,0h-3.529Z" transform="translate(-18742.453 -23610.457)" fill="#0093c1"/>
          <path id="Path_13155" data-name="Path 13155" d="M.385,0A.729.729,0,0,0,0,.385V0Z" fill="#999"/>
          <path id="Path_13160" data-name="Path 13160" d="M10.314.381l3.767,3.766H10.314Z" fill="#00a59b"/>
          <path id="Exclusion_13" data-name="Exclusion 13" d="M18746.9,23616.457a3,3,0,1,1,3-3A3,3,0,0,1,18746.9,23616.457Zm0-4.5a1.5,1.5,0,1,0,1.5,1.5A1.5,1.5,0,0,0,18746.9,23611.957Z" transform="translate(-18733.59 -23600)" fill="#00a59b"/>
          <rect id="Rectangle_11836" data-name="Rectangle 11836" width="1.5" height="4" rx="0.75" transform="translate(14.017 15.083) rotate(-45)" fill="#00a59b"/>
        </g>
      </g>
    </g>
  </g>
</svg>
