<svg xmlns="http://www.w3.org/2000/svg" xmlns:xlink="http://www.w3.org/1999/xlink" width="51" height="39" viewBox="0 0 51 39">
  <defs>
    <clipPath id="clip-path">
      <rect id="Rectangle_7006" data-name="Rectangle 7006" width="17.907" height="17.911" transform="translate(0 0)" fill="#999"/>
    </clipPath>
    <clipPath id="clip-button_InvestConfirm_blue">
      <rect width="51" height="39"/>
    </clipPath>
  </defs>
  <g id="button_InvestConfirm_blue" clip-path="url(#clip-button_InvestConfirm_blue)">
    <g id="Component_245_2" data-name="Component 245 – 2">
      <rect id="Rectangle_7834" data-name="Rectangle 7834" width="51" height="39" fill="none"/>
      <g id="Group_18393" data-name="Group 18393" transform="translate(16.547 10.543)">
        <g id="Group_18262" data-name="Group 18262" clip-path="url(#clip-path)">
          <path id="Path_13154" data-name="Path 13154" d="M.385,0H9.269q0,2.343,0,4.686A.51.51,0,0,0,9.32,4.9a.549.549,0,0,0,.552.289q2.178,0,4.354,0h.214V8.973a5.245,5.245,0,0,0-2.859.587,4.655,4.655,0,0,0-2.04,2.072,4.987,4.987,0,0,0,1.3,6.275h-.21q-4.983,0-9.967.005A.64.64,0,0,1,0,17.523V.385A.729.729,0,0,1,.385,0M5.333,6.015H2.694A.529.529,0,1,0,2.7,7.065h.471q2.4,0,4.789,0a.56.56,0,0,0,.542-.28.52.52,0,0,0-.495-.77c-.892,0-1.783,0-2.674,0m0,3.5c.891,0,1.782,0,2.674,0a.526.526,0,1,0,.007-1.049H2.823c-.07,0-.14,0-.21,0a.522.522,0,0,0-.437.785.556.556,0,0,0,.517.265q1.318,0,2.639,0m-1.24,1.4c-.477,0-.955,0-1.432,0a.524.524,0,1,0-.015,1.047c.972.005,1.944,0,2.917,0a.516.516,0,0,0,.447-.23.5.5,0,0,0,.034-.53.512.512,0,0,0-.484-.288c-.489,0-.978,0-1.467,0" fill="#0093c1"/>
          <path id="Path_13155" data-name="Path 13155" d="M.385,0A.729.729,0,0,0,0,.385V0Z" fill="#999"/>
          <path id="Path_13159" data-name="Path 13159" d="M17.907,13.956A3.952,3.952,0,1,1,13.975,10a3.946,3.946,0,0,1,3.932,3.953m-4.426.337c-.281-.282-.543-.547-.805-.811a.506.506,0,0,0-.56-.133.515.515,0,0,0-.175.869c.361.372.731.735,1.1,1.1a.542.542,0,0,0,.89-.006q1-.993,1.989-1.989a.964.964,0,0,0,.128-.144.509.509,0,0,0,.026-.546.431.431,0,0,0-.459-.254.809.809,0,0,0-.408.194c-.577.558-1.139,1.132-1.724,1.719" fill="#00a59b"/>
          <path id="Path_13160" data-name="Path 13160" d="M10.314.381l3.767,3.766H10.314Z" fill="#00a59b"/>
        </g>
      </g>
    </g>
  </g>
</svg>
