<svg xmlns="http://www.w3.org/2000/svg" xmlns:xlink="http://www.w3.org/1999/xlink" width="51" height="39" viewBox="0 0 51 39">
  <defs>
    <clipPath id="clip-button_IPO_blue">
      <rect width="51" height="39"/>
    </clipPath>
  </defs>
  <g id="button_IPO_blue" clip-path="url(#clip-button_IPO_blue)">
    <g id="Component_476_8" data-name="Component 476 – 8">
      <rect id="Rectangle_7834" data-name="Rectangle 7834" width="51" height="39" fill="none"/>
      <g id="Group_25345" data-name="Group 25345" transform="translate(17 9.641)">
        <path id="Path_20217" data-name="Path 20217" d="M295.344,0a.67.67,0,0,1,.389.7q-.014,3.236,0,6.472c0,.145-.033.18-.178.179q-1.405-.011-2.811,0c-.13,0-.161-.03-.161-.161,0-2.163.008-4.326,0-6.49a.67.67,0,0,1,.389-.7Z" transform="translate(-278.914 1.359)" fill="#00a59b"/>
        <path id="Path_20218" data-name="Path 20218" d="M202.9,47.756q0-1.1,0-2.2a.541.541,0,0,1,.622-.616h1.936a.531.531,0,0,1,.584.584c0,1.5,0,3.006,0,4.51,0,.136-.039.159-.164.158q-1.413-.008-2.826,0c-.131,0-.161-.032-.16-.162.007-.757,0-1.515,0-2.272" transform="translate(-193.422 -41.479)" fill="#00a59b"/>
        <path id="Path_20219" data-name="Path 20219" d="M114.752,93.026c-.471,0-.942,0-1.413,0-.116,0-.157-.019-.156-.148.007-.81,0-1.619,0-2.429a.528.528,0,0,1,.574-.575q.994,0,1.988,0a.531.531,0,0,1,.58.588c0,.8,0,1.608,0,2.411,0,.121-.027.155-.151.153-.477-.008-.953,0-1.43,0" transform="translate(-107.896 -84.318)" fill="#00a59b"/>
        <path id="Path_20220" data-name="Path 20220" d="M25.013,135.843c-.471,0-.941-.005-1.412,0-.126,0-.158-.035-.148-.155s0-.256,0-.384a.516.516,0,0,1,.512-.512q1.054-.009,2.109,0a.516.516,0,0,1,.519.523c0,.168.06.387-.023.491s-.315.03-.48.033c-.36.006-.72,0-1.081,0" transform="translate(-22.355 -127.137)" fill="#00a59b"/>
        <path id="Path_20221" data-name="Path 20221" d="M17.3,179.317H.729c-.052,0-.1,0-.157,0a.534.534,0,0,0-.572.6q0,4.19,0,8.379c0,.349.074.451.4.557H17.513a.455.455,0,0,0,.384-.385v-8.712a.537.537,0,0,0-.6-.441m-11.462,7.4q-1.074.011-2.147,0a.515.515,0,0,1-.494-.531.525.525,0,0,1,.5-.513c.151-.008.3-.006.454,0,.075,0,.1-.018.1-.1q0-1.478,0-2.956c0-.074-.017-.1-.1-.1-.139.006-.279,0-.419,0a.527.527,0,0,1-.534-.529.521.521,0,0,1,.526-.518q1.047-.006,2.095,0a.52.52,0,0,1,.521.523.527.527,0,0,1-.522.524c-.017,0-.035,0-.052,0-.155.011-.361-.067-.449.033s-.023.288-.023.439c0,.373,0,.746,0,1.119,0,.472,0,.945,0,1.417,0,.111.024.154.141.144a3.2,3.2,0,0,1,.4,0,.525.525,0,0,1,.507.52.517.517,0,0,1-.5.525m4.688-3.554a1.579,1.579,0,0,1-1.5,1.455c-.157.006-.314.008-.471,0-.1,0-.126.027-.125.125.005.46,0,.921,0,1.381a.528.528,0,1,1-1.047.006q0-1.023,0-2.045t0-2.028a.527.527,0,0,1,.582-.584,8.391,8.391,0,0,1,1.271.029,1.567,1.567,0,0,1,1.286,1.66m4.189,2.054a1.568,1.568,0,0,1-3.135-.013c-.009-.373,0-.746,0-1.224a9.457,9.457,0,0,1,.03-1.22,1.566,1.566,0,0,1,3.107.22q.021,1.118,0,2.237" transform="translate(0 -169.582)" fill="#0093c1"/>
        <path id="Path_20222" data-name="Path 20222" d="M271.292,248.528a.526.526,0,1,0-1.047-.007q0,1,0,2.009a.525.525,0,1,0,1.047.007c0-.338,0-.676,0-1.013s0-.664,0-1" transform="translate(-257.621 -235.01)" fill="#0093c1"/>
        <path id="Path_20223" data-name="Path 20223" d="M181.054,247.9c-.15-.007-.3,0-.452,0-.079,0-.1.026-.1.1.005.139,0,.279,0,.418s0,.291,0,.436c0,.074.016.1.1.1.15-.006.3,0,.452,0a.523.523,0,0,0,0-1.046" transform="translate(-172.074 -234.961)" fill="#0093c1"/>
      </g>
    </g>
  </g>
</svg>
