<svg xmlns="http://www.w3.org/2000/svg" xmlns:xlink="http://www.w3.org/1999/xlink" width="20" height="16" viewBox="0 0 20 16">
  <defs>
    <clipPath id="clip-button_mail">
      <rect width="20" height="16"/>
    </clipPath>
  </defs>
  <g id="button_mail" clip-path="url(#clip-button_mail)">
    <path id="_8673621_ic_fluent_mail_filled_icon" data-name="8673621_ic_fluent_mail_filled_icon" d="M22,8.608V16.75a3.25,3.25,0,0,1-3.066,3.245L18.75,20H5.25a3.25,3.25,0,0,1-3.245-3.066L2,16.75V8.608l9.652,5.056a.75.75,0,0,0,.7,0ZM5.25,4h13.5a3.25,3.25,0,0,1,3.234,2.924L12,12.153,2.016,6.924A3.251,3.251,0,0,1,5.064,4.005L5.25,4h0Z" transform="translate(-2 -4)" fill="#0093c1"/>
  </g>
</svg>
