<svg xmlns="http://www.w3.org/2000/svg" xmlns:xlink="http://www.w3.org/1999/xlink" width="51" height="39" viewBox="0 0 51 39">
  <defs>
    <clipPath id="clip-button_AccountingSetting_blue">
      <rect width="51" height="39"/>
    </clipPath>
  </defs>
  <g id="button_AccountingSetting_blue" clip-path="url(#clip-button_AccountingSetting_blue)">
    <g id="Component_246_2" data-name="Component 246 – 2">
      <rect id="Rectangle_7835" data-name="Rectangle 7835" width="51" height="39" fill="none"/>
      <g id="Group_18416" data-name="Group 18416" transform="translate(-5.003 1)">
        <path id="Exclusion_12" data-name="Exclusion 12" d="M14.172,18.014a4,4,0,1,1,4-4A4.005,4.005,0,0,1,14.172,18.014Zm-.357-1.777h0v.406a.46.46,0,0,0,.463.457.471.471,0,0,0,.457-.457v-.406a1.337,1.337,0,0,0,0-2.674h-.953a.441.441,0,0,1-.436-.434.429.429,0,0,1,.125-.311.463.463,0,0,1,.311-.125h.953a.661.661,0,0,1,.457.188.465.465,0,0,0,.643,0,.46.46,0,0,0,0-.645,1.566,1.566,0,0,0-1.152-.5h-.021v-.355a.458.458,0,0,0-.457-.457.449.449,0,0,0-.326.131.464.464,0,0,0-.131.326v.4c-.041,0-.08,0-.121,0a1.344,1.344,0,0,0-1.152.637,1.377,1.377,0,0,0,0,1.422,1.342,1.342,0,0,0,1.152.635c.039,0,.076,0,.115,0l.006,0h.988a.436.436,0,0,1,.434.436.44.44,0,0,1-.434.434h-1.01a.6.6,0,0,1-.355-.129.462.462,0,0,0-.256-.076.467.467,0,0,0-.377.193.425.425,0,0,0-.078.34.439.439,0,0,0,.186.293,1.573,1.573,0,0,0,.895.283h.039Z" transform="translate(21 9.002)" fill="#00a59b"/>
        <path id="Path_13209" data-name="Path 13209" d="M19126.465,22488.922h-2.58l-.311-2.574a6.989,6.989,0,0,1-1.852-.768l-2.016,1.625-1.789-1.816,1.6-2.066a6.977,6.977,0,0,1-.762-1.8l-2.58-.277v-2.566l2.58-.271a7.137,7.137,0,0,1,.762-1.852l-1.6-2.016,1.789-1.816,2.066,1.625a6.94,6.94,0,0,1,1.852-.768l.26-2.568h2.533l.271,2.568a6.788,6.788,0,0,1,1.84.768l2.021-1.625,1.822,1.816-1.631,2.016a6.436,6.436,0,0,1,.762,1.852l2.58.271v2.566l-.426.039a5,5,0,0,0-5.623-.693,3.024,3.024,0,0,0-1.791-3.42,3.045,3.045,0,0,0-1.162-.23,3.02,3.02,0,1,0,0,6.039,3.093,3.093,0,0,0,.744-.092,5,5,0,0,0,.709,5.377l-.068.656Z" transform="translate(-19095.172 -22462.012)" fill="#0093c1"/>
      </g>
    </g>
  </g>
</svg>
