<svg xmlns="http://www.w3.org/2000/svg" xmlns:xlink="http://www.w3.org/1999/xlink" width="51" height="39" viewBox="0 0 51 39">
  <defs>
    <clipPath id="clip-button_Setting_blue">
      <rect width="51" height="39"/>
    </clipPath>
  </defs>
  <g id="button_Setting_blue" clip-path="url(#clip-button_Setting_blue)">
    <g id="Component_249_2" data-name="Component 249 – 2">
      <rect id="Rectangle_7838" data-name="Rectangle 7838" width="51" height="39" fill="none"/>
      <g id="_7851309_financial_investment_setting_money_fund_icon" data-name="7851309_financial_investment_setting_money_fund_icon" transform="translate(16 10)">
        <path id="Path_13205" data-name="Path 13205" d="M113.731,105.635v-1.6l-1.883-.358a6.22,6.22,0,0,0-.983-2.378l1.078-1.582-1.132-1.131-1.58,1.08a6.229,6.229,0,0,0-2.378-.983L106.5,96.8h-1.6l-.357,1.883a6.225,6.225,0,0,0-2.378.983l-1.582-1.077L99.447,99.72l1.078,1.582a6.219,6.219,0,0,0-.982,2.375l-1.883.357v1.6l1.883.357a6.228,6.228,0,0,0,.983,2.378l-1.078,1.582,1.131,1.132,1.582-1.077a6.226,6.226,0,0,0,2.378.983l.357,1.883h1.6l.358-1.883a6.229,6.229,0,0,0,2.378-.982l1.582,1.077,1.131-1.131-1.078-1.582a6.223,6.223,0,0,0,.983-2.378ZM105.7,108.87a4.035,4.035,0,1,1,4.035-4.035,4.035,4.035,0,0,1-4.035,4.035Z" transform="translate(-94.386 -93.595)" fill="#0093c1"/>
        <path id="Path_13206" data-name="Path 13206" d="M21.1,26.863a7,7,0,0,1,.629-1.54,2.395,2.395,0,1,1,2.726-2.764,7,7,0,0,1,1.614-.665l.055-.292a4.219,4.219,0,0,0-.514-1.044l.732-1.075-.768-.768-1.076.732a4.224,4.224,0,0,0-1.616-.668L22.643,17.5H21.557l-.242,1.279a4.227,4.227,0,0,0-1.616.668l-1.075-.732-.768.768.732,1.076a4.227,4.227,0,0,0-.668,1.616l-1.279.242V23.5l1.279.242a4.225,4.225,0,0,0,.668,1.616l-.732,1.075.768.768,1.075-.732a4.219,4.219,0,0,0,.94.478Z" transform="translate(-16.64 -17.5)" fill="#00a59b"/>
      </g>
    </g>
  </g>
</svg>
