<svg xmlns="http://www.w3.org/2000/svg" xmlns:xlink="http://www.w3.org/1999/xlink" width="20" height="25" viewBox="0 0 20 25">
  <defs>
    <clipPath id="clip-icon_bell">
      <rect width="20" height="25"/>
    </clipPath>
  </defs>
  <g id="icon_bell" clip-path="url(#clip-icon_bell)">
    <path id="_6351963_alarm_alert_attention_bell_notification_icon" data-name="6351963_alarm_alert_attention_bell_notification_icon" d="M10.273,4.219A7.009,7.009,0,0,0,5.8,10.706v5.73L3.289,18.871A.893.893,0,0,0,3,19.529v.118a1.809,1.809,0,0,0,1.818,1.8H9.387a3.641,3.641,0,0,0,7.226,0h4.569A1.809,1.809,0,0,0,23,19.647v-.118a.893.893,0,0,0-.289-.658L20.2,16.437v-5.73a7.009,7.009,0,0,0-4.476-6.487v-.97a2.181,2.181,0,0,0-1.271-1.927,3.456,3.456,0,0,0-2.913,0,2.181,2.181,0,0,0-1.271,1.927Zm3.57-.52-.015.046a7.488,7.488,0,0,0-1.656,0L12.157,3.7h-.066v-.45c0-.248.407-.45.909-.45s.909.2.909.45V3.7Zm.928,17.747H11.229a1.823,1.823,0,0,0,3.542,0ZM7.616,10.706A5.3,5.3,0,0,1,13,5.5a5.3,5.3,0,0,1,5.385,5.208Zm0,0H18.385v5.731a1.79,1.79,0,0,0,.545,1.285l1.984,1.925H5.086l2.25-2.184a.891.891,0,0,0,.279-.648Z" transform="translate(-3 0.363)" fill="#595959" fill-rule="evenodd"/>
  </g>
</svg>
