<svg xmlns="http://www.w3.org/2000/svg" xmlns:xlink="http://www.w3.org/1999/xlink" width="14" height="14" viewBox="0 0 14 14">
  <defs>
    <clipPath id="clip-icon_clear">
      <rect width="14" height="14"/>
    </clipPath>
  </defs>
  <g id="icon_clear" clip-path="url(#clip-icon_clear)">
    <rect id="Rectangle_11318" data-name="Rectangle 11318" width="14" height="14" fill="none"/>
    <g id="Group_18342" data-name="Group 18342" transform="translate(17915.957 21824.486)">
      <g id="_9025522_eraser_icon" data-name="9025522_eraser_icon" transform="translate(-17915.07 -21824.002)">
        <path id="Line_134" data-name="Line 134" d="M3.4,3.8a.4.4,0,0,1-.283-.117l-3.4-3.4a.4.4,0,0,1,0-.566.4.4,0,0,1,.566,0l3.4,3.4A.4.4,0,0,1,3.4,3.8Z" transform="translate(4.575 4.975)" fill="#40a9ff"/>
        <path id="Path_13189" data-name="Path 13189" d="M34.321,47.561H32.376a.4.4,0,0,1-.283-.117l-1.855-1.855a1.2,1.2,0,0,1,0-1.7l5.654-5.654a1.195,1.195,0,0,1,1.7,0L39.854,40.5a1.217,1.217,0,0,1,0,1.7l-4.569,4.565h4.284a.4.4,0,1,1,0,.8h-5.25Zm-1.779-.8h1.614l5.133-5.128a.411.411,0,0,0,0-.572L37.024,38.8a.4.4,0,0,0-.563,0L30.8,44.459a.4.4,0,0,0,0,.563Z" transform="translate(-28.771 -36.37)" fill="#40a9ff"/>
      </g>
    </g>
  </g>
</svg>
