<svg id="icon_can" xmlns="http://www.w3.org/2000/svg" xmlns:xlink="http://www.w3.org/1999/xlink" width="28" height="28" viewBox="0 0 28 28">
  <defs>
    <clipPath id="clip-path">
      <rect id="Rectangle_22090" data-name="Rectangle 22090" width="22.024" height="21.999" fill="none"/>
    </clipPath>
  </defs>
  <g id="frame">
    <rect id="Rectangle_10683" data-name="Rectangle 10683" width="28" height="28" fill="none"/>
  </g>
  <g id="Group_60404" data-name="Group 60404" transform="translate(2.978 3)">
    <g id="Group_60404-2" data-name="Group 60404" clip-path="url(#clip-path)">
      <path id="Path_18485" data-name="Path 18485" d="M1.72,16.514c.028.454-.117.908.185,1.289a3.615,3.615,0,0,0,.952.8,9.444,9.444,0,0,0,1.877.824c.469.165.968.246,1.451.373.356.094.72.136,1.081.2l.084,0a13.285,13.285,0,0,0,1.42.175h.084a16.578,16.578,0,0,0,2.581.084l.556,0a.619.619,0,0,1,.265-.024,6.071,6.071,0,0,0,.9-.058c.036.009.071.014.088-.031a11.081,11.081,0,0,0,1.736-.2,20.257,20.257,0,0,0,2.072-.459,7.686,7.686,0,0,0,1.222-.454A5.085,5.085,0,0,0,19.923,18a1.179,1.179,0,0,0,.367-.867c0-.551.01-1.1,0-1.652A.859.859,0,1,1,22,15.465c.027.643.027,1.288,0,1.931a2.511,2.511,0,0,1-.785,1.72c-.085.083-.128.2-.24.262-.03-.008-.041,0-.035.034A7.164,7.164,0,0,1,19.1,20.561a15.054,15.054,0,0,1-1.451.538c-.283.093-.57.165-.855.244a12.133,12.133,0,0,1-1.414.3c-.139.021-.278.038-.417.057-.034-.008-.068-.013-.086.028a4.479,4.479,0,0,0-.705.091,4.356,4.356,0,0,1-.732.071,28.017,28.017,0,0,1-3.629.089c-.5-.008-1-.067-1.5-.116s-.977-.111-1.462-.182c-.464-.068-.925-.158-1.384-.26a6,6,0,0,1-.875-.229c-.4-.157-.816-.252-1.209-.428s-.817-.327-1.2-.546a4.909,4.909,0,0,1-1.772-1.55A2.384,2.384,0,0,1,0,17.377c0-2.5,0-5,.006-7.5A1.635,1.635,0,0,1,.339,9,3.82,3.82,0,0,1,2.088,7.7C3.182,7.207,4.33,6.857,5.444,6.42a15.7,15.7,0,0,0,1.674-.736c.333-.178.693-.3,1.01-.509s.67-.412.993-.635c.686-.474,1.337-.995,2-1.5s1.29-1,1.96-1.47A15.591,15.591,0,0,1,14.414.694,4.1,4.1,0,0,1,16.546,0a3.174,3.174,0,0,1,2.09.823,2.486,2.486,0,0,1,.845,1.72,1.638,1.638,0,0,1-.06.737c-.052.138,0,.347-.047.521a7,7,0,0,1-1.1,2.226c-.109.155-.232.3-.345.454-.058.078-.1.125.047.187.281.122.577.2.859.32a7.222,7.222,0,0,1,2.049,1.2A3.085,3.085,0,0,1,21.9,9.7a2.451,2.451,0,0,1-.564,2.334,5.069,5.069,0,0,1-1.5,1.2,12.254,12.254,0,0,1-1.79.777,15.833,15.833,0,0,1-1.953.53c-.486.1-.976.188-1.472.244-.813.093-1.626.169-2.443.217-.843.049-1.685.034-2.526.023a15.188,15.188,0,0,1-1.956-.171c-.474-.068-.949-.14-1.42-.233-.366-.072-.736-.144-1.1-.213-.4-.076-.786-.267-1.186-.381A8.507,8.507,0,0,1,1.946,13.1c-.063-.038-.135-.063-.235-.109.057.472,0,.855.01,1.42m5.587-1.368h.084a14.073,14.073,0,0,0,1.979.215l.083,0c.162-.018.314.079.477.038l.683,0a6.052,6.052,0,0,0,.82,0l.555,0c.26-.048.526,0,.783-.032.757-.105,1.521-.145,2.276-.286a21.287,21.287,0,0,0,2.175-.506,8.94,8.94,0,0,0,1.723-.72,3.991,3.991,0,0,0,1.035-.77.869.869,0,0,0,.012-1.248,4.417,4.417,0,0,0-1.281-.894,11.473,11.473,0,0,0-1.748-.677c-.316-.1-.593-.154-.8.174-.03-.008-.041,0-.036.034a15.319,15.319,0,0,1-1.292,1.058,21.737,21.737,0,0,1-2.326,1.511,22.876,22.876,0,0,1-2.226,1.1,14.773,14.773,0,0,1-3.139.935c.064.043.1.1.165.067M17.784,2.7a.079.079,0,0,0-.027-.092c-.052-.539-.82-.933-1.251-.882-.047,0-.1-.024-.133.029a1.067,1.067,0,0,0-.306.054,11.73,11.73,0,0,0-1.351.728c-1.158.79-2.243,1.677-3.367,2.511-.619.46-1.237.923-1.893,1.333-.486.3-.99.574-1.5.828a11.746,11.746,0,0,1-1.518.7c-.378.124-.732.3-1.124.4a13.245,13.245,0,0,0-1.48.542,8.176,8.176,0,0,0-1.778.836.6.6,0,0,0-.332.573.909.909,0,0,0,.451.695,4.283,4.283,0,0,0,2.093.546,9.939,9.939,0,0,0,1.215-.023,11.669,11.669,0,0,0,2.362-.418A12.965,12.965,0,0,0,10.9,9.848c.545-.318,1.1-.616,1.643-.944a16.842,16.842,0,0,0,2.953-2.3,10.349,10.349,0,0,0,1.563-1.877A4.046,4.046,0,0,0,17.755,3c.02-.008.043-.014.03-.044a.654.654,0,0,0,0-.26" transform="translate(0 0)" fill="#999"/>
      <path id="Path_18486" data-name="Path 18486" d="M133.438,234.993l-.556,0a1.075,1.075,0,0,1,.556,0" transform="translate(-121.446 -214.737)" fill="#eff2f3"/>
      <path id="Path_18487" data-name="Path 18487" d="M156.849,214.2l.084,0c-.029.036-.057.035-.084,0" transform="translate(-143.35 -195.764)" fill="#eff2f3"/>
      <path id="Path_18488" data-name="Path 18488" d="M84.512,232.13l-.084,0c.027-.036.055-.037.084,0" transform="translate(-77.162 -212.129)" fill="#eff2f3"/>
      <path id="Path_18489" data-name="Path 18489" d="M101.991,234.135h-.084c.028-.037.056-.037.084,0" transform="translate(-93.137 -213.96)" fill="#eff2f3"/>
      <path id="Path_18490" data-name="Path 18490" d="M152.944,234.06c-.017.044-.052.039-.088.031l.088-.031" transform="translate(-139.701 -213.916)" fill="#eff2f3"/>
      <path id="Path_18491" data-name="Path 18491" d="M172.807,252.153c.018-.041.051-.036.086-.028l-.086.028" transform="translate(-157.935 -230.421)" fill="#eff2f3"/>
      <path id="Path_18492" data-name="Path 18492" d="M243.321,225.174c-.006-.029.005-.042.035-.034l-.035.034" transform="translate(-222.379 -205.762)" fill="#eff2f3"/>
      <path id="Path_18495" data-name="Path 18495" d="M115.414,154.128a1.672,1.672,0,0,1,.683,0l-.683,0" transform="translate(-105.481 -140.833)" fill="#eff2f3"/>
      <path id="Path_18496" data-name="Path 18496" d="M132.882,154.13a1.078,1.078,0,0,1,.555,0l-.555,0" transform="translate(-121.446 -140.831)" fill="#eff2f3"/>
      <path id="Path_18497" data-name="Path 18497" d="M190.383,19.97c-.038.04-.086.031-.133.029.035-.053.086-.033.133-.029" transform="translate(-173.877 -18.245)" fill="#eff2f3"/>
      <path id="Path_18498" data-name="Path 18498" d="M206.352,30.39l-.027-.092a.079.079,0,0,1,.027.092" transform="translate(-188.568 -27.69)" fill="#eff2f3"/>
      <path id="Path_18499" data-name="Path 18499" d="M84.925,151.278c.028-.037.056-.038.084,0h-.084" transform="translate(-77.616 -138.234)" fill="#eff2f3"/>
      <path id="Path_18500" data-name="Path 18500" d="M108.9,153.767c.027-.036.055-.038.083,0l-.083,0" transform="translate(-99.528 -140.507)" fill="#eff2f3"/>
      <path id="Path_18501" data-name="Path 18501" d="M206.3,34.439l.03-.044c.013.03-.01.036-.03.044" transform="translate(-188.545 -31.435)" fill="#eff2f3"/>
      <path id="Path_18502" data-name="Path 18502" d="M187.412,96.85l-.036.034c-.005-.029.006-.042.036-.034" transform="translate(-171.249 -88.512)" fill="#eff2f3"/>
      <path id="Path_18503" data-name="Path 18503" d="M134.835,45.605a.786.786,0,0,1,.5-.772,7.683,7.683,0,0,0,.739-.466c.3-.213.6-.445.882-.683.205-.17.512-.456.721-.635a.891.891,0,0,1,.667-.153.845.845,0,0,1,.656.6.914.914,0,0,1-.347.977c-.4.362-.8.716-1.229,1.04a9.641,9.641,0,0,1-1.374.9.863.863,0,0,1-1.214-.808" transform="translate(-123.227 -39.192)" fill="#999"/>
    </g>
  </g>
</svg>
