<svg xmlns="http://www.w3.org/2000/svg" width="17" height="17" viewBox="0 0 17 17">
  <g id="icon_ip" transform="translate(152 -3645)">
    <rect id="Rectangle_21516" data-name="Rectangle 21516" width="17" height="17" transform="translate(-152 3645)" fill="none"/>
    <path id="Path_18208" data-name="Path 18208" d="M2.516-.551q0,.717-.754.717a.625.625,0,0,1-.717-.7v-11.9a.625.625,0,0,1,.717-.7.856.856,0,0,1,.566.16.672.672,0,0,1,.189.537ZM5.59-12.016a.983.983,0,0,1,.2-.726,1.425,1.425,0,0,1,.877-.179h2.98a4.483,4.483,0,0,1,3.149.952,3.945,3.945,0,0,1,1.018,3.008q0,4.036-4.168,4.036H7.079V-.589a.829.829,0,0,1-.17.556.71.71,0,0,1-.566.2.7.7,0,0,1-.585-.217.845.845,0,0,1-.17-.537Zm1.49,5.808H9.644a2.755,2.755,0,0,0,2.074-.66,2.944,2.944,0,0,0,.622-2.074,2.608,2.608,0,0,0-.7-2.037,2.907,2.907,0,0,0-2-.622H7.079Z" transform="translate(-150.559 3660)" fill="#333"/>
  </g>
</svg>
