<svg id="客服大頭" xmlns="http://www.w3.org/2000/svg" xmlns:xlink="http://www.w3.org/1999/xlink" width="45" height="45" viewBox="0 0 45 45">
  <defs>
    <clipPath id="clip-path">
      <rect id="Rectangle_139" data-name="Rectangle 139" width="45" height="45" transform="translate(4305 2402)" fill="#fff"/>
    </clipPath>
    <clipPath id="clip-path-2">
      <circle id="Ellipse_29" data-name="Ellipse 29" cx="19" cy="19" r="19" transform="translate(4.919 2.925)" fill="#dcf4ff"/>
    </clipPath>
    <clipPath id="clip-path-3">
      <circle id="Ellipse_46" data-name="Ellipse 46" cx="19" cy="19" r="19" transform="translate(4182 2463)" fill="#dcf4ff"/>
    </clipPath>
    <clipPath id="clip-path-4">
      <rect id="Rectangle_137" data-name="Rectangle 137" width="20.623" height="24.17" transform="translate(0 0)" fill="none"/>
    </clipPath>
  </defs>
  <g id="Mask_Group_7" data-name="Mask Group 7" transform="translate(-4305 -2402)" clip-path="url(#clip-path)">
    <g id="Group_29541" data-name="Group 29541" transform="translate(-3.505 -56)">
      <circle id="Ellipse_41" data-name="Ellipse 41" cx="19" cy="19" r="19" transform="translate(4314 2462.914)" fill="#dcf4ff"/>
      <g id="interview" transform="translate(4307.261 2452.667)" style="mix-blend-mode: normal;isolation: isolate">
        <g id="Group_29485" data-name="Group 29485" transform="translate(1.818 7.406)">
          <g id="Group_3" data-name="Group 3" clip-path="url(#clip-path-2)">
            <g id="Group_29493" data-name="Group 29493" transform="translate(1 -1)">
              <g id="Group_29531" data-name="Group 29531" transform="translate(22.129 28.547) rotate(40)">
                <path id="Path_18530" data-name="Path 18530" d="M.854,2.777A5.47,5.47,0,0,0,1.01,5.166c.5,1.9,3.226,1.956,6.444,2.355,3.907.486,7.063.873,7.859-1.023a2.25,2.25,0,0,0-.32-2.623C12.6,2.951,2.917-.644.854,2.777" transform="translate(-5.103 11.961) rotate(-40)" fill="#d59687"/>
                <path id="Path_18528" data-name="Path 18528" d="M-.115,9.793a12.883,12.883,0,0,0,2.893.6c3.057.3,4.585.448,5.224.444,1.59-.011,3.628-.066,6.014-.236a10.366,10.366,0,0,0-.568-4.281A9.69,9.69,0,0,0,9.942,1.6,8.113,8.113,0,0,0,6.035.044a7.946,7.946,0,0,0-4,.623,1.242,1.242,0,0,0-.485.652C.988,3.174.785,4.42.291,5.957A14.245,14.245,0,0,0-.115,8.994" transform="translate(-8.743 6.232) rotate(-40)" fill="#a1bab6"/>
                <path id="Path_18525" data-name="Path 18525" d="M9.671.479A62.218,62.218,0,0,0,15.3,3.888L14.659,7.85a14.405,14.405,0,0,1-4.3-3.935A14.239,14.239,0,0,1,8.535.451.4.4,0,0,1,8.673.146c.187-.137.493.013.638.084a1.414,1.414,0,0,1,.36.249" transform="translate(-7.187 6.53) rotate(-40)" fill="#b9cecb"/>
                <path id="Path_18526" data-name="Path 18526" d="M0,2.889A2.749,2.749,0,0,1,1,1.143,2.867,2.867,0,0,1,2.882.617c.535,0,1.832,0,2.3.886a1.874,1.874,0,0,1,0,1.5L0,2.889" transform="translate(2.719 5.89) rotate(-40)" fill="#f5e7d6"/>
                <path id="Path_18527" data-name="Path 18527" d="M2,.726a9.649,9.649,0,0,0-.942.639A3.119,3.119,0,0,0,.347,2.92" transform="translate(2.65 5.808) rotate(-40)" fill="#e5d2c2"/>
                <path id="Path_18524" data-name="Path 18524" d="M0,2.274A8.144,8.144,0,0,0,.8,5.305,8.445,8.445,0,0,0,4.41,9.012l4.777.03a5.586,5.586,0,0,1,2.051-2.48L5.114,4.724q-.95-1.976-1.9-3.951A1.673,1.673,0,0,0,2.052.008a1.651,1.651,0,0,0-1.195.4A2.456,2.456,0,0,0,0,2.274" transform="translate(-8.174 7.015) rotate(-40)" fill="#b9cecb"/>
                <path id="Path_18529" data-name="Path 18529" d="M-3.179,3.754-.4,1.259l.8,2.989Z" transform="translate(0 -0.114)" fill="#fff"/>
              </g>
              <g id="Group_29540" data-name="Group 29540" transform="translate(27.68 32.392)">
                <path id="Path_1164" data-name="Path 1164" d="M218.2,264.022c-.14.534-.989.817-1.525.676-.106-.028-.821.49-.913.437-.211-.118-.4-.987-.49-1.2-.068-.163.423-.381.5-.56.283-.654.7-1.312,1.78-1.025.173.046.251.3.371.457a1.569,1.569,0,0,1,.241.493,1.39,1.39,0,0,1,.034.714Z" transform="translate(-215.268 -262.285)" fill="#f7e7d6"/>
                <g id="Group_29525" data-name="Group 29525" transform="translate(1.88 0.366)">
                  <path id="Path_1172" data-name="Path 1172" d="M225.09,264.34s.307-.237.469-.231a.724.724,0,0,1,.554.851c-.154.506-.4.941-.69.933s-.827-.375-.335-1.553Z" transform="translate(-224.839 -264.109)" fill="#f7e7d6"/>
                  <path id="Path_1173" data-name="Path 1173" d="M225.014,264.928c0-.036-.211-.034-.311.287a1.439,1.439,0,0,0,.1,1.1c.183.2.427.255.427.219s-.223-.074-.373-.267c-.209-.267-.082-.845.01-1.073.128-.321.158-.207.15-.267Z" transform="translate(-224.641 -264.751)" fill="#e5d2c2"/>
                </g>
                <g id="Group_29526" data-name="Group 29526" transform="translate(0.762 0)">
                  <path id="Path_1174" data-name="Path 1174" d="M219.07,263.226s.273-.867.666-.9,1-.12,1.14.112-.706.361-.706.361.173.895-.52,1.214-.578-.79-.578-.79Z" transform="translate(-219.065 -262.284)" fill="#f7e7d6"/>
                  <path id="Path_1175" data-name="Path 1175" d="M221.185,263.186a.229.229,0,0,0-.02-.026c-.092.323-.72.295-.72.295s.173.895-.52,1.214a.375.375,0,0,1-.506-.148c.064.221.2.369.54.241.55-.211.718-1.164.718-1.164s.646-.179.51-.411Z" transform="translate(-219.349 -262.984)" fill="#e5d2c2"/>
                </g>
              </g>
            </g>
          </g>
          <g id="friendly_mainImg_1_" data-name="friendly_mainImg (1)" transform="translate(-34.183 -53.304)" style="mix-blend-mode: normal;isolation: isolate">
            <g id="圖層_1" data-name="圖層 1" transform="translate(36.709 55.511)">
              <g id="Group_60456" data-name="Group 60456" transform="translate(1.632)">
                <path id="Path_18517" data-name="Path 18517" d="M6.266,146.012a8.995,8.995,0,0,0,.553,2.351,9.817,9.817,0,0,0,3.365,4.287c2.118,1.631,4.182,2.056,6.73,2.582a25.589,25.589,0,0,0,7.007.415,14.811,14.811,0,0,0,4.886-.968,9.765,9.765,0,0,0,5.67-5.255c.669-1.392,1.055-2.2.83-2.858-.437-1.289-2.993-1.476-5.9-1.66-4.263-.269-13.808-.817-18.117-.184a34.87,34.87,0,0,1-4.01.692,1.01,1.01,0,0,0-.691.138.91.91,0,0,0-.323.461" transform="translate(-5.615 -129.412)" fill="#e5d2c2"/>
                <path id="Path_18518" data-name="Path 18518" d="M6.266,145.012a8.995,8.995,0,0,0,.553,2.351,9.817,9.817,0,0,0,3.365,4.287c2.118,1.631,4.182,2.056,6.73,2.582a25.589,25.589,0,0,0,7.007.415,14.811,14.811,0,0,0,4.886-.968,9.765,9.765,0,0,0,5.67-5.255c.669-1.392,1.055-2.2.83-2.858-.437-1.289-2.993-1.476-5.9-1.66-4.263-.269-13.808-.817-18.117-.184a34.87,34.87,0,0,1-4.01.692,1.01,1.01,0,0,0-.691.138.91.91,0,0,0-.323.461" transform="translate(-5.615 -128.516)" fill="#f5e7d6"/>
                <path id="Path_18519" data-name="Path 18519" d="M4.115,19.289a13.719,13.719,0,0,1,.039-5.256A15.271,15.271,0,0,1,10.516,5.39,15.7,15.7,0,0,1,20.784,3.108a15.586,15.586,0,0,1,8.229,3.215,11.432,11.432,0,0,1,3.269,4.368c2.431,4.355,1.13,8.784.83,10.28l-.225.173c-.58.1-.4.116-1.419.253a69.156,69.156,0,0,1-10.649.553c-1.376-.015-3.189-.065-5.324-.207.011-.5,0-1.042-.041-1.622a17.452,17.452,0,0,0-.236-1.87q-.027.728-.086,1.5c-.054.687-.124,1.344-.207,1.971-.348,0-.836-.013-1.418-.052a28.287,28.287,0,0,1-3.63-.536c-3.432-.643-4.133-.848-5-1.3a3.686,3.686,0,0,1-.765-.553" transform="translate(-3.465 -2.887)" fill="#e5d2c2"/>
                <path id="Path_18520" data-name="Path 18520" d="M.067,16.15a14.527,14.527,0,0,1,.415-5.117A15.272,15.272,0,0,1,6.844,2.39,15.7,15.7,0,0,1,17.112.108a15.586,15.586,0,0,1,8.229,3.215,14.638,14.638,0,0,1,3.665,4.253,15.2,15.2,0,0,1,1.452,10.268l-.225.173c-.58.1-1.421.243-2.437.38a69.157,69.157,0,0,1-10.649.553c-1.376-.015-3.189-.065-5.324-.207.011-.5,0-1.042-.041-1.622a17.45,17.45,0,0,0-.236-1.87q-.027.728-.087,1.5c-.054.687-.124,1.344-.207,1.971-.348,0-.836-.013-1.418-.052a28.286,28.286,0,0,1-3.63-.536c-3.432-.643-4.133-.848-5-1.3A10.166,10.166,0,0,1,.067,16.15" transform="translate(0 -0.199)" fill="#f0de7b"/>
                <path id="Path_18521" data-name="Path 18521" d="M124.549,205.458a.6.6,0,1,1-.6-.6.6.6,0,0,1,.6.6" transform="translate(-110.525 -183.559)" fill="#3c3a39"/>
                <path id="Path_18522" data-name="Path 18522" d="M239.608,203.3a.6.6,0,1,1-.6-.6.6.6,0,0,1,.6.6" transform="translate(-213.621 -181.995)" fill="#3c3a39"/>
                <path id="Path_18523" data-name="Path 18523" d="M167.442,229.607c-.131-.474.972-.263,1.792-.319.941-.068,2.151-.467,2.041.131-.293,1.561-3.377,1.9-3.833.188" transform="translate(-150.023 -205.275)" fill="#fa87b8"/>
                <path id="Path_18531" data-name="Path 18531" d="M49.267,6.2c.274-.3.442-.5.786-.891.27-.356,3.12-2.368,3.084-2.372A14.838,14.838,0,0,0,46.6,8.612a14.622,14.622,0,0,0-2.332,8.2,14.23,14.23,0,0,0,1.45,5.976,8.61,8.61,0,0,0,1.289.2,19.981,19.981,0,0,1-.984-2.7,18.983,18.983,0,0,1-.606-4.519,14.814,14.814,0,0,1,.476-3.6A17.81,17.81,0,0,1,47.4,8.7a14.2,14.2,0,0,1,1.1-1.65" transform="translate(-35.082 -20.859) rotate(20)" fill="#d9c763"/>
                <path id="Path_18533" data-name="Path 18533" d="M17.816,24.984c-.086-.107.377-.266.893-.273a1.1,1.1,0,0,1,.91.273,2.436,2.436,0,0,1,.238.4,3.412,3.412,0,0,1-.727.1,3.36,3.36,0,0,1-.834-.176A1.489,1.489,0,0,1,17.816,24.984Z" fill="#fdbcda"/>
              </g>
            </g>
          </g>
        </g>
      </g>
      <g id="Group_29538" data-name="Group 29538" transform="translate(12.536 1)">
        <rect id="Rectangle_138" data-name="Rectangle 138" width="2.5" height="1.2" rx="0.6" transform="translate(4322.47 2485.932) rotate(-2)" fill="#333"/>
        <path id="Path_1183" data-name="Path 1183" d="M4276.672,2487.806l-.006-.341a6,6,0,0,0,1.742-.287,4.7,4.7,0,0,0,1.265-1.318l.139.1c-.03.048-.661,1.253-1.294,1.54A6.12,6.12,0,0,1,4276.672,2487.806Z" transform="translate(48 -1.168)" fill="#333"/>
      </g>
      <g id="Mask_Group_6" data-name="Mask Group 6" transform="translate(132)" clip-path="url(#clip-path-3)">
        <g id="Group_29530" data-name="Group 29530" transform="translate(4176.081 2460.075)">
          <g id="Group_60457" data-name="Group 60457">
            <rect id="Rectangle_136" data-name="Rectangle 136" width="28.2" height="3" transform="translate(10.919 38.825)" fill="#164263"/>
            <g id="Group_29561" data-name="Group 29561" transform="translate(17.325 20.045)">
              <path id="Path_1085" data-name="Path 1085" d="M81.834,97.946h20.5a2.2,2.2,0,0,0,1.862-1.6l3.983-13.091c.269-.882-.132-1.6-.892-1.6h-20.5a2.2,2.2,0,0,0-1.862,1.6L80.943,96.348c-.269.882.132,1.6.892,1.6Z" transform="translate(-69.435 -81.19)" fill="#1a5d99"/>
              <path id="Path_1086" data-name="Path 1086" d="M107.3,81.66H86.8a2.2,2.2,0,0,0-1.862,1.6L80.953,96.348c-.269.882.132,1.6.892,1.6h.784c-.735,0-1.122-.691-.862-1.543l3.846-12.635a2.13,2.13,0,0,1,1.8-1.543H107.2a.973.973,0,0,1,.926,1.24l.064-.206c.269-.882-.132-1.6-.892-1.6Z" transform="translate(-69.447 -81.19)" fill="#989898" opacity="0.2" style="mix-blend-mode: multiply;isolation: isolate"/>
              <path id="Path_1087" data-name="Path 1087" d="M124.69,99.828h.073a2.13,2.13,0,0,0,1.8-1.543l3.846-12.635a1.716,1.716,0,0,0,.064-.3l-3.919,12.88a2.208,2.208,0,0,1-1.862,1.6Z" transform="translate(-91.801 -83.542)" fill="#1a5d99"/>
              <path id="Path_1088" data-name="Path 1088" d="M1.64,0H28.606a1.541,1.541,0,0,1,1.635,1.425v.052a.747.747,0,0,1-.79.688H.79A.747.747,0,0,1,0,1.477V1.425A1.541,1.541,0,0,1,1.635,0Z" transform="translate(32.081 18.808) rotate(180)" fill="#1a5d99"/>
              <path id="Path_1089" data-name="Path 1089" d="M108.878,115.586V115.5c0-.461-.6-.833-1.336-.833H79.07c5.107.431,29.51-.309,28.94,2.166a1.521,1.521,0,0,0,.868-1.249Z" transform="translate(-76.798 -98.027)" fill="#989898" opacity="0.2" style="mix-blend-mode: multiply;isolation: isolate"/>
              <path id="Path_1090" data-name="Path 1090" d="M58.6,118.88a1.97,1.97,0,0,0,1.409.573H86.453a1.97,1.97,0,0,0,1.409-.573Z" transform="translate(-56.329 -100.645)" fill="#989898" opacity="0.2" style="mix-blend-mode: multiply;isolation: isolate"/>
            </g>
          </g>
        </g>
      </g>
      <g id="Group_29537" data-name="Group 29537" transform="translate(4315.696 2462.211)">
        <g id="Group_29536" data-name="Group 29536" clip-path="url(#clip-path-4)">
          <path id="Path_1179" data-name="Path 1179" d="M1.64,18.079a1.721,1.721,0,0,1,.831,0,25.545,25.545,0,0,1,0-4.184A14.585,14.585,0,0,1,4.882,7.244,13.988,13.988,0,0,1,10.7,2.45a15.052,15.052,0,0,1,4.35-1.109,19.159,19.159,0,0,1,3.714-.028c.813.087,1.61.252,1.611.252l.246.053c-.01-.061-.019-.122-.028-.183a10.745,10.745,0,0,0-1.84-.6,12.033,12.033,0,0,0-5.7.177A14.4,14.4,0,0,0,5.828,4.6a14.3,14.3,0,0,0-3.907,7.441,16.993,16.993,0,0,0-.281,6.034" fill="#333"/>
          <path id="Path_1180" data-name="Path 1180" d="M.754,18.5a16.34,16.34,0,0,1-.36-3.907,15.2,15.2,0,0,1,2.8-8.73A14.464,14.464,0,0,1,12.31.178,14.1,14.1,0,0,1,19.459.9c-.083.1.47.25.387.352a21.56,21.56,0,0,0-2.853-.3,13.446,13.446,0,0,0-3.769.472A14.415,14.415,0,0,0,8.541,3.337,13.961,13.961,0,0,0,5.326,6.274a15.708,15.708,0,0,0-2.992,6.568A18.811,18.811,0,0,0,2.158,18.2c-.453.2-.951.089-1.4.292" fill="#565656"/>
          <path id="Path_1181" data-name="Path 1181" d="M4.071,23.8l-.9.286a1.7,1.7,0,0,1-2.133-1.1L.186,20.3A1.7,1.7,0,0,1,1.291,18.17l.9-.286a1.7,1.7,0,0,1,2.133,1.1l.852,2.682A1.7,1.7,0,0,1,4.071,23.8" fill="#333"/>
          <path id="Path_1182" data-name="Path 1182" d="M3.275,23.915l-.245.078A1.867,1.867,0,0,1,.686,22.779L.088,20.9A1.866,1.866,0,0,1,1.3,18.553l.245-.078a1.866,1.866,0,0,1,2.344,1.214l.6,1.882a1.866,1.866,0,0,1-1.214,2.344" fill="#565656"/>
        </g>
      </g>
    </g>
  </g>
</svg>
