<svg id="客服大頭" xmlns="http://www.w3.org/2000/svg" xmlns:xlink="http://www.w3.org/1999/xlink" width="45" height="45" viewBox="0 0 45 45">
  <defs>
    <clipPath id="clip-path">
      <rect id="Rectangle_139" data-name="Rectangle 139" width="45" height="45" transform="translate(4305 2402)" fill="#fff"/>
    </clipPath>
    <clipPath id="clip-path-2">
      <circle id="Ellipse_29" data-name="Ellipse 29" cx="19" cy="19" r="19" transform="translate(4.919 2.925)" fill="#dcf4ff"/>
    </clipPath>
    <clipPath id="clip-path-3">
      <circle id="Ellipse_46" data-name="Ellipse 46" cx="19" cy="19" r="19" transform="translate(4182 2463)" fill="#dcf4ff"/>
    </clipPath>
    <clipPath id="clip-path-4">
      <rect id="Rectangle_137" data-name="Rectangle 137" width="20.623" height="24.17" transform="translate(0 0)" fill="none"/>
    </clipPath>
  </defs>
  <g id="Mask_Group_7" data-name="Mask Group 7" transform="translate(-4305 -2402)" clip-path="url(#clip-path)">
    <g id="Group_29541" data-name="Group 29541" transform="translate(-3.505 -56)">
      <circle id="Ellipse_41" data-name="Ellipse 41" cx="19" cy="19" r="19" transform="translate(4314 2463)" fill="#fffcdc"/>
      <g id="interview" transform="translate(4307.261 2452.667)" style="mix-blend-mode: normal;isolation: isolate">
        <g id="圖層_1" data-name="圖層 1" transform="translate(1.819 7.408)">
          <g id="Group_29490" data-name="Group 29490">
            <g id="Group_29485" data-name="Group 29485">
              <g id="Group_3" data-name="Group 3" clip-path="url(#clip-path-2)">
                <g id="Group_29493" data-name="Group 29493" transform="translate(1 -1)">
                  <g id="Group_29531" data-name="Group 29531" transform="translate(22.129 28.544) rotate(40)">
                    <path id="Path_1115" data-name="Path 1115" d="M183.337,268.569c.355-.5.917-.06,1.6.137s3.551.988,5.818-.725c.357.39.6.672,1,1.065a6.94,6.94,0,0,1-8.135,1.091c-.8-.472-.633-1.065-.276-1.567Z" transform="translate(-183.042 -267.98)" fill="#f5e5d4"/>
                    <path id="Path_1116" data-name="Path 1116" d="M183.337,269.831c.355-.5.917-.06,1.6.137s.862,1.625,2.449,2.273a6.369,6.369,0,0,1-3.77-.842c-.8-.472-.633-1.065-.276-1.567Z" transform="translate(-183.042 -269.242)" fill="#989898" opacity="0.2" style="mix-blend-mode: multiply;isolation: isolate"/>
                  </g>
                  <g id="Group_29532" data-name="Group 29532" transform="matrix(0.883, 0.469, -0.469, 0.883, 21.797, 27.89)">
                    <path id="Path_1117" data-name="Path 1117" d="M182.453,265.382a.108.108,0,0,0-.068-.035l-.046-.007h-.009a1.033,1.033,0,0,0-.545.324,2.763,2.763,0,0,0-.309.7c-.068.238-.168.549-.276.853-.024.064-.049.128-.071.19a3.735,3.735,0,0,1,.855.778c.009-.051,0-.088.007-.139s.02-.117.033-.176h0c.007-.033.013-.066.018-.1a.161.161,0,0,0,.018-.02.053.053,0,0,0,0-.064c-.026-.033-.011-.141.018-.258.037-.152.095-.324.106-.381.042-.214.086-.425.13-.637.037-.183.3-.862.139-1.027Z" transform="translate(-181.13 -264.949)" fill="#fff"/>
                    <path id="Path_1118" data-name="Path 1118" d="M184.847,265.263a.788.788,0,0,0,.179-.328.554.554,0,0,0-.035-.26c-.011-.04-.024-.079-.033-.119a.394.394,0,0,1,0-.2.687.687,0,0,1,.04-.108c.018-.037.037-.075.053-.112a.505.505,0,0,0,.051-.2.724.724,0,0,0-.088-.342.069.069,0,0,0-.086-.029c-.223.1-.443.2-.657.315l-.134.073s-.007,0-.009.007c-.026.013-.053.029-.082.044s-.029.06,0,.082a3.277,3.277,0,0,0-.56,1.883c0,.015,0,.031,0,.046a1.359,1.359,0,0,1-.022.137.545.545,0,0,0,0,.3.581.581,0,0,0,.126.137h0a.185.185,0,0,1,.029.015l.049.022c.035.013.075.026.123.04a.241.241,0,0,0,.037.011c.22.053.516.077.626-.035.071-.077.011-.112.011-.19a.26.26,0,0,1,.075-.212,1.17,1.17,0,0,0,.157-.15.267.267,0,0,0,.06-.181c0-.086-.075-.141-.1-.231a.211.211,0,0,1-.007-.055.259.259,0,0,1,.009-.06,1,1,0,0,1,.187-.3Z" transform="translate(-182.926 -263.567)" fill="#fff"/>
                    <path id="Path_1119" data-name="Path 1119" d="M182.334,265.694c-.143.734.249.465.529.981a.555.555,0,0,0-.009.06.151.151,0,0,0,.007.055c.112.141.209.359-.119.562a.26.26,0,0,0-.075.212c0,.077.06.115-.011.19-.11.112-.406.09-.626.035,0,.068.007.126,0,.187a5.756,5.756,0,0,0-.869-.813h0a.388.388,0,0,0-.035-.022c.022-.062.046-.126.071-.19.079-.227.306-.957.456-1.325.06.013.231-.119.511.258.075-.335.1-.465.161-.8v-.007h.009l.134-.073c-.007.038-.013.077-.02.117s-.02.1-.031.15a6.932,6.932,0,0,1,.829-.013l-.053.112a6.422,6.422,0,0,0-.8.018c-.013.066-.029.132-.042.2.269.018.538.046.8.088.009.042.022.079.033.119-.282-.044-.569-.077-.855-.095h-.007Z" transform="translate(-181.13 -264.684)" fill="#b7b7b7"/>
                  </g>
                  <g id="Group_29533" data-name="Group 29533" transform="translate(5.405 28.268)">
                    <path id="Path_1120" data-name="Path 1120" d="M129.465,305.583c.031.675,1.336,4.629.54,4.837-.5.262-.847.231-2.6.41-.637.064-.141.97.463,1.188a8.587,8.587,0,0,0,3.346.58c1.5.011,2.659-3.984,2.515-5.646s-1.506-3.221-2.756-2.974c-.569.112-1.552.679-1.51,1.6Z" transform="translate(-123.528 -295.109)" fill="#f5e5d4"/>
                    <g id="Group_29505" data-name="Group 29505" transform="translate(2.706 15.659)">
                      <path id="Path_1121" data-name="Path 1121" d="M124.854,334.934a1.034,1.034,0,0,0,.536,1.184s-.02,1.376-.919,1.462l-.287.026-.254-2.637a1.216,1.216,0,0,1,.52-.1c.379,0,.4.062.4.062Z" transform="translate(-123.754 -334.87)" fill="#9e968d"/>
                      <path id="Path_1122" data-name="Path 1122" d="M123.558,337.967l-.174.018-.254-2.641.176-.013.254,2.637Z" transform="translate(-123.13 -335.229)" fill="#717071"/>
                      <path id="Path_1123" data-name="Path 1123" d="M128.671,341.573s-.207-.121-.359-.2c-.128-.068-.057-.183.075-.132a1.452,1.452,0,0,1,.395.245c.057.075-.018.15-.11.095Z" transform="translate(-127.117 -339.822)" fill="#fff"/>
                      <path id="Path_1124" data-name="Path 1124" d="M128.241,343.093s-.207-.121-.359-.205c-.128-.068-.057-.183.075-.132a1.452,1.452,0,0,1,.395.245c.057.075-.018.15-.11.095Z" transform="translate(-126.782 -341.007)" fill="#fff"/>
                    </g>
                    <path id="Path_1127" data-name="Path 1127" d="M173.051,321.631c-.328,2.11-.716,5.467-.765,7.149-.013.463-.99,1.025-1.069.741a53.812,53.812,0,0,1-1.686-9.371c.886.108,4.493,1.413,3.518,1.481Z" transform="translate(-156.595 -307.736)" fill="#f5e5d4"/>
                    <g id="Group_29507" data-name="Group 29507" transform="translate(14.56 20.721)">
                      <path id="Path_1128" data-name="Path 1128" d="M176.929,359.125a1.08,1.08,0,0,0,1.118-.774s1.42-.238,1.678.672c.033.112.06.209.082.291l-2.667.756a1.287,1.287,0,0,1-.2-.516c-.071-.39-.011-.428-.011-.428Z" transform="translate(-176.904 -358.215)" fill="#9e968d"/>
                      <path id="Path_1129" data-name="Path 1129" d="M180.655,362.8l.051.176-2.67.756-.046-.179,2.667-.756Z" transform="translate(-177.75 -361.705)" fill="#717071"/>
                      <path id="Path_1130" data-name="Path 1130" d="M183.453,357.958s-.086.236-.143.41c-.046.145-.179.095-.152-.053a1.579,1.579,0,0,1,.176-.452c.064-.071.157-.009.117.095Z" transform="translate(-181.776 -357.833)" fill="#fff"/>
                      <path id="Path_1131" data-name="Path 1131" d="M185.093,358.108s-.086.236-.143.41c-.046.146-.179.095-.152-.053a1.579,1.579,0,0,1,.176-.452c.064-.071.157-.009.117.095Z" transform="translate(-183.055 -357.95)" fill="#fff"/>
                    </g>
                    <g id="Group_29508" data-name="Group 29508" transform="translate(0 6.549)">
                      <path id="Path_1132" data-name="Path 1132" d="M110.906,300.059a4.51,4.51,0,0,0,1.5.908c.107.034.2.075.3.114a2.159,2.159,0,0,0,.872.248,5.011,5.011,0,0,1,1.356.334,2.979,2.979,0,0,0,.482.24,11,11,0,0,0,1.165.351c1.095.291,2.219.51,3.32.79.394.1.8.15,1.2.214a2.758,2.758,0,0,0,.94.107.063.063,0,0,0,.021-.006l.124.019.18.03c1.514.238,2.459.381,3.98.518q.1.01.193.013c.062,0,.12,0,.18.006a4.419,4.419,0,0,0,1.05-.156l.1-.017a5.066,5.066,0,0,0,1.17.182,2.352,2.352,0,0,0,.493-.047c.767-.139,1.007-.735,1.382-1,.223-.156.036-.574-.182-1.06q-.251-.556-.514-1.107c-.345-.722-.306-.874-.692-1.591-.377-.7-.548-1.549-1-2.238-.225-.345-.193-.786-.67-1.084l-.081-.049c-.011-.015-.021-.032-.034-.047s0-.009-.006-.013a1.029,1.029,0,0,0-.289-.272c-.233-.133-.585-.216-.838-.345-.2-.1-.39-.21-.6-.3a4,4,0,0,0-2.2-.3,3.975,3.975,0,0,1-2.647-.467,4,4,0,0,0-2.176-.467c-.227.019-.443.056-.664.081-.281.032-.64-.009-.906.036a1.006,1.006,0,0,0-.424.2.031.031,0,0,0-.015,0c-.032.006-.064.011-.1.019-.073.015-.146.034-.214.056-.45.139-.651.574-.932.786-.658.495-.97.861-1.564,1.39s-1.292,1.45-1.863,2.009c-.291.287-.58.574-.863.865-.373.381-.724.874-.523,1.056Z" transform="translate(-110.267 -293.245)" fill="#565656"/>
                      <path id="Path_1133" data-name="Path 1133" d="M138.154,295.17c.06.018.117.033.176.049.4.11.809.212,1.215.313a31.96,31.96,0,0,0,3.507.705c1.138.152,2.31.119,3.437.386a15.963,15.963,0,0,0,1.554.375,7.041,7.041,0,0,0,1.287.049h.024a.1.1,0,0,1-.015.013.53.53,0,0,1,.035.048l.084.051c-.152.007-.3.011-.456.009h0c-.212,0-.421-.011-.633-.029a2.263,2.263,0,0,1,.529,1.08,9.373,9.373,0,0,1,.313,1.521c.009.075-.176.075-.185,0a9.05,9.05,0,0,0-.251-1.3,2.324,2.324,0,0,0-.617-1.305.034.034,0,0,1-.011-.015,7.017,7.017,0,0,1-1.087-.216,10.872,10.872,0,0,0-2.125-.375c-.271-.022-.542-.04-.811-.062a.073.073,0,0,1,.037.04,3.407,3.407,0,0,1,0,1.089c-.024.412-.692,2.984-.716,3.4,0,.075-.192.042-.187-.033.022-.375.688-2.909.71-3.283a3.658,3.658,0,0,0,0-1.171c-.007-.024.009-.04.033-.048q-.278-.023-.556-.053c-.117.5-1.9,3.278-2.071,3.768-.024.071-.212.037-.187-.033.168-.485,1.956-3.261,2.069-3.754a.3.3,0,0,1-.042,0,27.8,27.8,0,0,1-2.974-.556.032.032,0,0,1-.009.022c-.112.139-2.226,2.3-2.339,2.438-.051.062-.227,0-.174-.062.112-.139,2.226-2.3,2.339-2.438a.007.007,0,0,0,0,0c-.209-.051-.419-.1-.626-.154l-.571-.143c-.311-.079-.624-.161-.93-.251.071-.022.146-.042.22-.057Z" transform="translate(-131.969 -293.813)" fill="#b7b7b7"/>
                      <path id="Path_1134" data-name="Path 1134" d="M189.28,319.711v.015a4.617,4.617,0,0,0,.139,1.058c.09.351.057.7.132,1.049s-.035.708.04,1.069c.071.335-.15.608-.062.944.055.207-.137.4-.143.6l.106-.018a5.214,5.214,0,0,0,1.2.187,2.419,2.419,0,0,0,.507-.049c-.079-.084-.165-.168-.254-.251a3.453,3.453,0,0,1-.705-.783,2,2,0,0,1-.148-.789,13.076,13.076,0,0,0-.628-3.018c-.022-.064-.187-.088-.185-.018Z" transform="translate(-171.991 -313.908)" fill="#b7b7b7"/>
                      <path id="Path_1136" data-name="Path 1136" d="M163.236,323.178c.062.723-.212,1.4-.154,2.125.035.47.134.95.132,1.415l.185.031a10.669,10.669,0,0,0-.11-1.228c-.088-.8.2-1.548.137-2.343-.009-.075-.192-.077-.187,0Z" transform="translate(-151.562 -316.602)" fill="#b7b7b7"/>
                      <path id="Path_1137" data-name="Path 1137" d="M184.24,327.478c.037,1.058-.419,2.119-.3,3.183.064,0,.123,0,.185.007-.119-1.054.337-2.105.3-3.155,0-.075-.192-.108-.187-.033Z" transform="translate(-167.813 -319.967)" fill="#b7b7b7"/>
                    </g>
                    <g id="Group_29506" data-name="Group 29506" transform="translate(5.402)">
                      <path id="Path_1126" data-name="Path 1126" d="M140.943,264.124c1.409-.591,6.078-.364,6.838,1.664s.483,8.393.483,8.393c-1.023.293-2.877.452-6.1-.269a12.984,12.984,0,0,1-5.527-2.273s2.892-6.922,4.3-7.513Z" transform="translate(-136.358 -263.84)" fill="#fff"/>
                      <g id="Group_29539" data-name="Group 29539" transform="translate(4.607 -1.943)">
                        <path id="Path_1061" data-name="Path 1061" d="M55.74,89.82,54.623,92.4,52.97,91.144l1.584,1.827Z" transform="translate(-49.1 -87.515)" fill="#b7b7b7"/>
                        <path id="Path_1062" data-name="Path 1062" d="M38.97,81.48l2.239,4.793,1.631-1.164-1.733,1.728Z" transform="translate(-38.97 -81.48)" fill="#b7b7b7"/>
                        <path id="Path_1063" data-name="Path 1063" d="M41.61,87.58l1.471,3.359L44.734,89.6,46.34,91l1.12-2.507-1.952.152-.746.829-1-.984Z" transform="translate(-40.88 -85.894)" fill="#fff"/>
                        <circle id="Ellipse_47" data-name="Ellipse 47" cx="0.25" cy="0.25" r="0.25" transform="translate(3.506 5.6)" fill="#b6b6b6"/>
                        <circle id="Ellipse_48" data-name="Ellipse 48" cx="0.25" cy="0.25" r="0.25" transform="translate(3.256 7.3)" fill="#b6b6b6"/>
                        <circle id="Ellipse_49" data-name="Ellipse 49" cx="0.25" cy="0.25" r="0.25" transform="translate(3.006 8.8)" fill="#b6b6b6"/>
                        <path id="Path_1183" data-name="Path 1183" d="M3.935,3.633a9.9,9.9,0,0,1,.222,2.425,12.113,12.113,0,0,1-.338,2.289c-.5,2.069-.878,4.1-.878,4.1" fill="none" stroke="#b6b6b6" stroke-width="0.1"/>
                      </g>
                    </g>
                  </g>
                  <g id="Group_29534" data-name="Group 29534" transform="translate(11.777 29.598)">
                    <g id="Group_29511" data-name="Group 29511">
                      <path id="Path_1143" data-name="Path 1143" d="M147,301.254c-.635.624-.522.934.084,1.984.3.518,1.2.9,2.546.631.967-.2.58-2.268-.04-2.9a2.047,2.047,0,0,0-2.589.284Z" transform="translate(-138.807 -295.159)" fill="#f5e5d4"/>
                      <path id="Path_1144" data-name="Path 1144" d="M139.83,273.3a7.546,7.546,0,0,1,1.764-3.346c.41-.456,1.658.663,1.361,1.232a4.686,4.686,0,0,0-1.142,2.913c.185.646,3.452,2.583,5.583,3.012.22.119-.537,2.488-.751,2.166a26.693,26.693,0,0,1-6.376-3.445,4.438,4.438,0,0,1-.439-2.529Z" transform="translate(-208.729 -219.812) rotate(-16)" fill="#f5e5d4"/>
                    </g>
                  </g>
                  <g id="Group_29535" data-name="Group 29535" transform="matrix(0.545, -0.839, 0.839, 0.545, 12.321, 30.038)">
                    <path id="Path_1161" data-name="Path 1161" d="M150.1,267.191c.044.212.088.425.13.637.011.057.071.229.106.381.029.117.044.225.018.258a.05.05,0,0,0,0,.064l.018.02c.007.033.013.066.018.1h0c.011.062.022.119.033.179s0,.088.007.139a3.736,3.736,0,0,1,.855-.778c-.022-.062-.046-.126-.071-.19-.11-.3-.207-.615-.276-.853a2.841,2.841,0,0,0-.309-.7,1.033,1.033,0,0,0-.545-.324h-.009a.339.339,0,0,1-.046.009.108.108,0,0,0-.068.035C149.807,266.33,150.065,267.008,150.1,267.191Z" transform="translate(-149.108 -265.723)" fill="#fff"/>
                    <path id="Path_1162" data-name="Path 1162" d="M146.7,266.317a.551.551,0,0,1,.009.06.152.152,0,0,1-.007.055c-.022.09-.093.145-.1.231a.257.257,0,0,0,.06.181,1.045,1.045,0,0,0,.157.15.26.26,0,0,1,.075.212c0,.077-.06.115.011.19.11.112.406.09.626.035a.241.241,0,0,0,.037-.011.741.741,0,0,0,.123-.04.519.519,0,0,0,.048-.022.185.185,0,0,0,.029-.015h0a.581.581,0,0,0,.126-.137.545.545,0,0,0,0-.3c-.009-.044-.015-.09-.022-.137,0-.015,0-.029,0-.046a3.245,3.245,0,0,0-.56-1.883c.029-.022.04-.06,0-.082s-.055-.031-.082-.044l-.009-.007c-.044-.026-.09-.051-.134-.073-.214-.115-.432-.218-.657-.315a.07.07,0,0,0-.086.029.7.7,0,0,0-.088.342.47.47,0,0,0,.051.2l.053.112a.783.783,0,0,1,.04.108.421.421,0,0,1,0,.2c-.009.042-.022.079-.033.119a.583.583,0,0,0-.035.26.788.788,0,0,0,.179.328.947.947,0,0,1,.187.3Z" transform="translate(-146.258 -264.317)" fill="#fff"/>
                    <path id="Path_1163" data-name="Path 1163" d="M147.429,266.482c.064.306.132.611.2.917l-.734.066a.552.552,0,0,1,.009.06.152.152,0,0,1-.007.055l.761-.068c.033.141.066.282.1.423a.785.785,0,0,0-.077.018c-.108.029-.207.075-.313.11a1.981,1.981,0,0,1-.353.079.26.26,0,0,1,.075.212c0,.077-.06.115.011.19.11.112.406.09.626.035,0,.068-.007.126,0,.187a5.756,5.756,0,0,1,.869-.813h0a.387.387,0,0,1,.035-.022c-.022-.062-.046-.126-.071-.19a2.77,2.77,0,0,1-.489.137q-.089.02-.185.033c-.037-.148-.075-.3-.11-.443a.055.055,0,0,0-.015-.06q-.185-.764-.331-1.539v-.007h-.009l-.134-.073c.007.037.013.077.02.117s.02.1.031.15a6.932,6.932,0,0,0-.829-.013l.053.112a6.428,6.428,0,0,1,.8.018c.013.066.029.132.042.2-.269.018-.538.046-.8.088-.009.042-.022.079-.033.119.282-.044.569-.077.855-.095h.007Z" transform="translate(-146.455 -265.465)" fill="#b7b7b7"/>
                  </g>
                  <g id="Group_29540" data-name="Group 29540" transform="translate(27.68 32.392)">
                    <path id="Path_1164" data-name="Path 1164" d="M218.2,264.022c-.14.534-.989.817-1.525.676-.106-.028-.821.49-.913.437-.211-.118-.4-.987-.49-1.2-.068-.163.423-.381.5-.56.283-.654.7-1.312,1.78-1.025.173.046.251.3.371.457a1.569,1.569,0,0,1,.241.493,1.39,1.39,0,0,1,.034.714Z" transform="translate(-215.268 -262.285)" fill="#f7e7d6"/>
                    <g id="Group_29525" data-name="Group 29525" transform="translate(1.88 0.366)">
                      <path id="Path_1172" data-name="Path 1172" d="M225.09,264.34s.307-.237.469-.231a.724.724,0,0,1,.554.851c-.154.506-.4.941-.69.933s-.827-.375-.335-1.553Z" transform="translate(-224.839 -264.109)" fill="#f7e7d6"/>
                      <path id="Path_1173" data-name="Path 1173" d="M225.014,264.928c0-.036-.211-.034-.311.287a1.439,1.439,0,0,0,.1,1.1c.183.2.427.255.427.219s-.223-.074-.373-.267c-.209-.267-.082-.845.01-1.073.128-.321.158-.207.15-.267Z" transform="translate(-224.641 -264.751)" fill="#e5d2c2"/>
                    </g>
                    <g id="Group_29526" data-name="Group 29526" transform="translate(0.762 0)">
                      <path id="Path_1174" data-name="Path 1174" d="M219.07,263.226s.273-.867.666-.9,1-.12,1.14.112-.706.361-.706.361.173.895-.52,1.214-.578-.79-.578-.79Z" transform="translate(-219.065 -262.284)" fill="#f7e7d6"/>
                      <path id="Path_1175" data-name="Path 1175" d="M221.185,263.186a.229.229,0,0,0-.02-.026c-.092.323-.72.295-.72.295s.173.895-.52,1.214a.375.375,0,0,1-.506-.148c.064.221.2.369.54.241.55-.211.718-1.164.718-1.164s.646-.179.51-.411Z" transform="translate(-219.349 -262.984)" fill="#e5d2c2"/>
                    </g>
                  </g>
                </g>
              </g>
              <g id="friendly_mainImg_1_" data-name="friendly_mainImg (1)" transform="translate(-35.778 -52.808)" style="mix-blend-mode: normal;isolation: isolate">
                <g id="圖層_1-2" data-name="圖層 1" transform="translate(36.709 55.511)">
                  <g id="Group_29528" data-name="Group 29528" transform="translate(0)">
                    <ellipse id="Ellipse_39" data-name="Ellipse 39" cx="0.973" cy="2.534" rx="0.973" ry="2.534" transform="matrix(0.139, -0.99, 0.99, 0.139, 16.283, 25.987)" fill="#f5e5d4"/>
                    <g id="Group_29515" data-name="Group 29515">
                      <path id="Path_1178" data-name="Path 1178" d="M92.11,164.266c.016,6.649,5.852,11.315,17.059,10.292,8.328-.76,12.589-4.65,11.981-12.531-.52-6.735-7.441-11.692-15.46-11.074S92.094,157.513,92.11,164.266Z" transform="translate(-89.068 -148.916)" fill="#e0d2c2"/>
                      <path id="Path_1145" data-name="Path 1145" d="M209.232,197.484a3.752,3.752,0,1,0,3.453-4.028,3.752,3.752,0,0,0-3.453,4.028Z" transform="translate(-182.686 -183.019)" fill="#6aa8c5"/>
                      <path id="Path_1146" data-name="Path 1146" d="M209.232,197.482a3.751,3.751,0,0,0,6.695,2.024c-1.1-.455.15-3.29-.993-5.511a3.751,3.751,0,0,0-5.7,3.487Z" transform="translate(-182.686 -183.018)" fill="#5896af"/>
                      <path id="Path_1147" data-name="Path 1147" d="M92.11,164.266c.016,6.649,5.852,11.315,17.059,10.292,8.328-.76,12.589-4.65,11.981-12.531-.52-6.735-7.441-11.692-15.46-11.074S92.094,157.513,92.11,164.266Z" transform="translate(-89.068 -149.011)" fill="#f5e5d4"/>
                      <path id="Path_1148" data-name="Path 1148" d="M92.11,164.276a17.577,17.577,0,0,0,1.364,5.024l9.2-.676.425-1.3.211,1.24.445-.032.191-1.773.441,1.727,16.3-1.212s1.035-3.423.465-5.24c-2.024-6.444-7.441-11.692-15.46-11.074s-13.6,6.56-13.58,13.313Z" transform="translate(-89.069 -149.021)" fill="#e5d2c2"/>
                      <path id="Path_1149" data-name="Path 1149" d="M89.7,145.872a15.5,15.5,0,0,1,9.178-4.073c.827-.072,7.232-1.639,12.836,2.9,6.689,5.421,4.361,14.523,4.361,14.523L99.472,160.5l-.461-3.29-.022,3.328-.5.038-.339-1.442-.221,1.485-6.237.482c.012,1.569,1.1,4.235,2.881,5.074-1.9-.213-5.521-1.946-6.775-4.773C87.3,160.5,82.843,152.932,89.7,145.872Z" transform="translate(-84.117 -141.481)" fill="#6aa8c5"/>
                      <path id="Path_1150" data-name="Path 1150" d="M91.829,178.873s1.1,4.3,2.881,5.142c-1.9-.213-5.521-1.946-6.775-4.773-.5-.907-4.883-8.908,1.9-15.532-6.155,12.9,1.992,15.163,1.992,15.163Z" transform="translate(-84.249 -159.25)" fill="#5896af"/>
                      <path id="Path_1151" data-name="Path 1151" d="M214.906,241.667a.384.384,0,1,0,.351-.421.388.388,0,0,0-.351.421Z" transform="translate(-188.227 -221.23)" fill="#3c3a39"/>
                      <g id="Group_29513" data-name="Group 29513" transform="translate(10.186 10.592)">
                        <path id="Path_1152" data-name="Path 1152" d="M133.871,196.383c-1.248-.363-2.438-.546-3.651-1.021-.656-.257-1.348-.778-2-1.051-.494-.209-.114.654.16.77.325.136.654.273.981.405-.447.148-.891.323-1.328.5-.566.223-.3.967.263.744s1.123-.441,1.7-.612c-.04.012.154-.038.215-.048l.022,0a.571.571,0,0,0,.287-.116c1.212.469,2.438.9,3.679,1.262.387.112-.046-.744-.327-.827Z" transform="translate(-127.722 -194.278)" fill="#f4d1d5"/>
                        <path id="Path_1153" data-name="Path 1153" d="M131.27,202.36a.571.571,0,0,1-.287.116l-.022,0c-.06.01-.255.06-.215.048-.574.171-1.137.391-1.7.612a.448.448,0,0,1-.389-.006,14.381,14.381,0,0,1,2.6-.835c.04,0,.032.038.008.06" transform="translate(-128.472 -200.691)" fill="#e8b3bb"/>
                        <path id="Path_1154" data-name="Path 1154" d="M129.14,195.62a.954.954,0,0,0,.377.534c.325.136.73.3.981.405A7.236,7.236,0,0,1,129.14,195.62Z" transform="translate(-128.856 -195.351)" fill="#e8b3bb"/>
                        <path id="Path_1155" data-name="Path 1155" d="M144.869,202.789c-.229-.066-.231-.07-.457-.128a8.076,8.076,0,0,1-2.881-.367c-.046-.012-.078.05-.014.058,1.212.469,2.438.9,3.679,1.262.387.112-.046-.744-.327-.827Z" transform="translate(-138.72 -200.685)" fill="#e8b3bb"/>
                      </g>
                      <path id="Path_1156" data-name="Path 1156" d="M187.73,248.274c-.1-.361.74-.2,1.364-.243.716-.052,1.637-.355,1.553.1C190.424,249.319,188.077,249.578,187.73,248.274Z" transform="translate(-166.499 -225.537)" fill="#e38eaa"/>
                      <g id="Group_29514" data-name="Group 29514" transform="translate(7.302 20.277)">
                        <path id="Path_1157" data-name="Path 1157" d="M115.781,245.5a1.9,1.9,0,0,1-2.434-1.946c-.036-1.382,1.34-1.039,1.749-.662a3.966,3.966,0,0,1,.532.624" transform="translate(-113.347 -242.553)" fill="#f5e5d4"/>
                        <path id="Path_1158" data-name="Path 1158" d="M117.477,245.491s-.56-.261-.61.439a1.4,1.4,0,0,0,1.021,1.414,7.341,7.341,0,0,0-.217-.74l-.373-.112.287-.287Z" transform="translate(-116.158 -244.863)" fill="#e5d2c2"/>
                      </g>
                      <path id="Path_1159" data-name="Path 1159" d="M76.962,204.1a4.011,4.011,0,1,0,3.691-4.307A4.011,4.011,0,0,0,76.962,204.1Z" transform="translate(-76.95 -188.084)" fill="#6aa8c5"/>
                      <path id="Path_1160" data-name="Path 1160" d="M165.677,245.1a.112.112,0,0,1-.07-.058.109.109,0,0,1,.05-.148l.508-.253-.588-.295a.111.111,0,1,1,.1-.2l.784.393a.107.107,0,0,1,.06.1.108.108,0,0,1-.062.1l-.706.351a.119.119,0,0,1-.078.008Z" transform="translate(-148.747 -223.541)" fill="#3c3a39"/>
                    </g>
                  </g>
                </g>
              </g>
            </g>
          </g>
        </g>
      </g>
      <g id="Group_29538" data-name="Group 29538" transform="translate(12)">
        <rect id="Rectangle_138" data-name="Rectangle 138" width="2.5" height="1.2" rx="0.6" transform="translate(4322.47 2485.932) rotate(-2)" fill="#333"/>
        <path id="Path_1183-2" data-name="Path 1183" d="M4276.672,2487.806l-.006-.341a6,6,0,0,0,1.742-.287,4.59,4.59,0,0,0,1.251-1.356l.242.2a4.761,4.761,0,0,1-1.383,1.474A6.12,6.12,0,0,1,4276.672,2487.806Z" transform="translate(48 -1.168)" fill="#333"/>
      </g>
      <g id="Mask_Group_6" data-name="Mask Group 6" transform="translate(132)" clip-path="url(#clip-path-3)">
        <g id="Group_29530" data-name="Group 29530" transform="translate(4178.081 2460.075)">
          <rect id="Rectangle_136" data-name="Rectangle 136" width="28.2" height="3" transform="translate(10.919 38.825)" fill="#967745"/>
          <g id="Group_29561" data-name="Group 29561" transform="translate(16.325 20.045)">
            <path id="Path_1085" data-name="Path 1085" d="M81.834,97.946h20.5a2.2,2.2,0,0,0,1.862-1.6l3.983-13.091c.269-.882-.132-1.6-.892-1.6h-20.5a2.2,2.2,0,0,0-1.862,1.6L80.943,96.348c-.269.882.132,1.6.892,1.6Z" transform="translate(-69.435 -81.19)" fill="#aaa"/>
            <path id="Path_1086" data-name="Path 1086" d="M107.3,81.66H86.8a2.2,2.2,0,0,0-1.862,1.6L80.953,96.348c-.269.882.132,1.6.892,1.6h.784c-.735,0-1.122-.691-.862-1.543l3.846-12.635a2.13,2.13,0,0,1,1.8-1.543H107.2a.973.973,0,0,1,.926,1.24l.064-.206c.269-.882-.132-1.6-.892-1.6Z" transform="translate(-69.447 -81.19)" fill="#989898" opacity="0.2" style="mix-blend-mode: multiply;isolation: isolate"/>
            <path id="Path_1087" data-name="Path 1087" d="M124.69,99.828h.073a2.13,2.13,0,0,0,1.8-1.543l3.846-12.635a1.716,1.716,0,0,0,.064-.3l-3.919,12.88a2.208,2.208,0,0,1-1.862,1.6Z" transform="translate(-91.801 -83.542)" fill="#1a5d99"/>
            <path id="Path_1088" data-name="Path 1088" d="M1.64,0H28.606a1.541,1.541,0,0,1,1.635,1.425v.052a.747.747,0,0,1-.79.688H.79A.747.747,0,0,1,0,1.477V1.425A1.541,1.541,0,0,1,1.635,0Z" transform="translate(32.081 18.808) rotate(180)" fill="#aaa"/>
            <path id="Path_1089" data-name="Path 1089" d="M108.878,115.586V115.5c0-.461-.6-.833-1.336-.833H79.07c5.107.431,29.51-.309,28.94,2.166a1.521,1.521,0,0,0,.868-1.249Z" transform="translate(-76.798 -98.027)" fill="#989898" opacity="0.2" style="mix-blend-mode: multiply;isolation: isolate"/>
            <path id="Path_1090" data-name="Path 1090" d="M58.6,118.88a2.156,2.156,0,0,0,1.494.573H88.148a2.156,2.156,0,0,0,1.494-.573Z" transform="translate(-58.09 -100.645)" fill="#989898" opacity="0.2" style="mix-blend-mode: multiply;isolation: isolate"/>
          </g>
        </g>
      </g>
      <g id="Group_29537" data-name="Group 29537" transform="translate(4315 2462.915)">
        <g id="Group_29536" data-name="Group 29536" clip-path="url(#clip-path-4)">
          <path id="Path_1179" data-name="Path 1179" d="M1.64,18.079a1.721,1.721,0,0,1,.831,0,25.545,25.545,0,0,1,0-4.184A14.585,14.585,0,0,1,4.882,7.244,13.988,13.988,0,0,1,10.7,2.45a15.052,15.052,0,0,1,4.35-1.109,19.159,19.159,0,0,1,3.714-.028c.813.087,1.61.252,1.611.252l.246.053c-.01-.061-.019-.122-.028-.183a10.745,10.745,0,0,0-1.84-.6,12.033,12.033,0,0,0-5.7.177A14.4,14.4,0,0,0,5.828,4.6a14.3,14.3,0,0,0-3.907,7.441,16.993,16.993,0,0,0-.281,6.034" fill="#333"/>
          <path id="Path_1180" data-name="Path 1180" d="M.754,18.5a16.34,16.34,0,0,1-.36-3.907,15.2,15.2,0,0,1,2.8-8.73A14.464,14.464,0,0,1,12.31.178,14.1,14.1,0,0,1,19.459.9c-.083.1.47.25.387.352a21.56,21.56,0,0,0-2.853-.3,13.446,13.446,0,0,0-3.769.472A14.415,14.415,0,0,0,8.541,3.337,13.961,13.961,0,0,0,5.326,6.274a15.708,15.708,0,0,0-2.992,6.568A18.811,18.811,0,0,0,2.158,18.2c-.453.2-.951.089-1.4.292" fill="#565656"/>
          <path id="Path_1181" data-name="Path 1181" d="M4.071,23.8l-.9.286a1.7,1.7,0,0,1-2.133-1.1L.186,20.3A1.7,1.7,0,0,1,1.291,18.17l.9-.286a1.7,1.7,0,0,1,2.133,1.1l.852,2.682A1.7,1.7,0,0,1,4.071,23.8" fill="#333"/>
          <path id="Path_1182" data-name="Path 1182" d="M3.275,23.915l-.245.078A1.867,1.867,0,0,1,.686,22.779L.088,20.9A1.866,1.866,0,0,1,1.3,18.553l.245-.078a1.866,1.866,0,0,1,2.344,1.214l.6,1.882a1.866,1.866,0,0,1-1.214,2.344" fill="#565656"/>
        </g>
      </g>
    </g>
  </g>
</svg>
