<svg xmlns="http://www.w3.org/2000/svg" xmlns:xlink="http://www.w3.org/1999/xlink" width="17" height="17" viewBox="0 0 17 17">
  <defs>
    <clipPath id="clip-path">
      <rect id="Rectangle_21514" data-name="Rectangle 21514" width="14.914" height="14.503" fill="#333"/>
    </clipPath>
  </defs>
  <g id="icon_user" transform="translate(152 -3621)">
    <g id="Group_29841" data-name="Group 29841" transform="translate(-150.957 3622.366)">
      <g id="Group_29840" data-name="Group 29840" clip-path="url(#clip-path)">
        <path id="Path_18205" data-name="Path 18205" d="M78.5,8.929A4.464,4.464,0,1,1,78.51,0a4.372,4.372,0,0,1,3.152,1.314,4.222,4.222,0,0,1,1.206,2.2,4.357,4.357,0,0,1-1.212,4.1A4.4,4.4,0,0,1,78.5,8.929M81.48,4.457a2.98,2.98,0,0,0-2.975-2.965,2.882,2.882,0,0,0-2.2.98,2.869,2.869,0,0,0-.763,2.213,2.972,2.972,0,0,0,5.935-.227" transform="translate(-71.088 0)" fill="#333"/>
        <path id="Path_18206" data-name="Path 18206" d="M7.452,251.481H9.932a3.781,3.781,0,0,1,.513.028,5.431,5.431,0,0,1,.73.119,5.607,5.607,0,0,1,.544.156c.144.057.292.1.433.172a4.945,4.945,0,0,1,1.125.719,5.669,5.669,0,0,1,1.246,1.551,6.036,6.036,0,0,1,.345.708.756.756,0,0,1-.3.895.877.877,0,0,1-.936-.034.529.529,0,0,1-.177-.236,4.6,4.6,0,0,0-1.025-1.584,3.285,3.285,0,0,0-1.071-.707,3.355,3.355,0,0,0-.478-.153c-.154-.038-.309-.071-.466-.095a4.411,4.411,0,0,0-.616-.046c-.4,0-.8,0-1.192,0H5.785c-.3,0-.592,0-.888,0a4.016,4.016,0,0,0-1.172.193,3.318,3.318,0,0,0-1.344.827,4.7,4.7,0,0,0-.92,1.367c-.024.053-.05.105-.073.158a.642.642,0,0,1-.36.347.728.728,0,0,1-.762-.093.709.709,0,0,1-.26-.671,1.385,1.385,0,0,1,.179-.462,6.629,6.629,0,0,1,.761-1.207,5.009,5.009,0,0,1,1.787-1.454,4.4,4.4,0,0,1,.512-.207,4.863,4.863,0,0,1,.613-.168,6.212,6.212,0,0,1,.689-.1c.507-.04,1.014-.019,1.521-.022.461,0,.922,0,1.383,0Z" transform="translate(-0.001 -241.443)" fill="#333"/>
      </g>
    </g>
    <rect id="Rectangle_21515" data-name="Rectangle 21515" width="17" height="17" transform="translate(-152 3621)" fill="none"/>
  </g>
</svg>
