<svg xmlns="http://www.w3.org/2000/svg" width="20" height="20" viewBox="0 0 20 20">
  <g id="icon_save" transform="translate(-1263 -719)">
    <rect id="Rectangle_21323" data-name="Rectangle 21323" width="20" height="20" transform="translate(1263 719)" fill="none"/>
    <g id="Group_60332" data-name="Group 60332" transform="translate(-0.994 21.006)">
      <g id="Path_18212" data-name="Path 18212" transform="translate(1265 699)" fill="none">
        <path d="M2.118,0H13.006C14.044,1.211,16.9,4.128,18,5.379v10.5a2.117,2.117,0,0,1-2.118,2.117H2.118A2.117,2.117,0,0,1,0,15.877V2.117A2.117,2.117,0,0,1,2.118,0Z" stroke="none"/>
        <path d="M 2.117650032043457 1.5 C 1.777080535888672 1.5 1.5 1.776769638061523 1.5 2.116960525512695 L 1.5 15.8771800994873 C 1.5 16.21737098693848 1.777080535888672 16.494140625 2.117650032043457 16.494140625 L 15.88234996795654 16.494140625 C 16.22291946411133 16.494140625 16.5 16.21737098693848 16.5 15.8771800994873 L 16.5 5.953344345092773 C 15.97933578491211 5.382678031921387 15.25369548797607 4.61631965637207 14.54703998565674 3.870010375976562 C 13.74699783325195 3.025067329406738 12.92597007751465 2.157963752746582 12.33045101165771 1.5 L 2.117650032043457 1.5 M 2.117650032043457 0 L 13.00574016571045 0 C 14.04388999938965 1.211460113525391 16.90394973754883 4.128479957580566 18 5.379220008850098 L 18 15.8771800994873 C 18 17.04635047912598 17.05190086364746 17.994140625 15.88234996795654 17.994140625 L 2.117650032043457 17.994140625 C 0.9480991363525391 17.994140625 0 17.04635047912598 0 15.8771800994873 L 0 2.116960525512695 C 0 0.9477901458740234 0.9480991363525391 0 2.117650032043457 0 Z" stroke="none" fill="#0089d1"/>
      </g>
      <g id="Ellipse_325" data-name="Ellipse 325" transform="translate(1269.997 705.994)" fill="none" stroke="#0089d1" stroke-width="1.5">
        <circle cx="4" cy="4" r="4" stroke="none"/>
        <circle cx="4" cy="4" r="3.25" fill="none"/>
      </g>
      <g id="Rectangle_22060" data-name="Rectangle 22060" transform="translate(1268.997 698.994)" fill="none" stroke="#0089d1" stroke-width="1.5">
        <rect width="9" height="6" rx="1" stroke="none"/>
        <rect x="0.75" y="0.75" width="7.5" height="4.5" rx="0.25" fill="none"/>
      </g>
    </g>
  </g>
</svg>
