<svg id="圖層_1" data-name="圖層 1" xmlns="http://www.w3.org/2000/svg" viewBox="0 0 24.52 24.01"><defs><style>.cls-1,.cls-2{fill:#0c7d94;}.cls-1{fill-opacity:0;}.cls-2{stroke:#0c7d94;stroke-miterlimit:10;stroke-width:0.2px;}</style></defs><g id="Icon_User" data-name="Icon User"><rect id="矩形" class="cls-1" x="0.16" y="-0.52" width="25" height="25"/><path id="形状" class="cls-2" d="M21.13,21.74H19.71a.18.18,0,0,1-.19-.19,7.14,7.14,0,0,0-14.28,0,.19.19,0,0,1-.19.19H3.62a.2.2,0,0,1-.19-.19h0a8.81,8.81,0,0,1,.7-3.28,9,9,0,0,1,4.76-4.77h0a5.9,5.9,0,1,1,8.24-1.32,6,6,0,0,1-1.33,1.32h0a9,9,0,0,1,5.47,8.05.2.2,0,0,1-.06.14A.24.24,0,0,1,21.13,21.74ZM12.38,4.6A4.09,4.09,0,0,0,8.29,8.71a4.15,4.15,0,0,0,1.2,2.88,4.09,4.09,0,0,0,5.78-5.8A4,4,0,0,0,12.38,4.6Z"/></g></svg>