<svg id="圖層_1" data-name="圖層 1" xmlns="http://www.w3.org/2000/svg" viewBox="0 0 172 251"><defs><style>.cls-1{fill:#eee;}.cls-13,.cls-15,.cls-16,.cls-18,.cls-2,.cls-24,.cls-28,.cls-29,.cls-3,.cls-7,.cls-8{isolation:isolate;}.cls-3{font-size:18px;fill:#00829b;font-family:PingFangTC-Medium-B5pc-H, PingFang TC;}.cls-4{opacity:0.55;}.cls-5{fill:#406a6a;}.cls-18,.cls-28,.cls-29,.cls-6{fill:#fff;}.cls-15,.cls-16,.cls-7,.cls-8{fill:#998999;}.cls-7{opacity:0.21;}.cls-14,.cls-8{opacity:0.67;}.cls-9{fill:#665e67;}.cls-10{fill:#766b77;}.cls-11{fill:#857784;}.cls-12,.cls-13{fill:#1f142a;}.cls-13{opacity:0.5;}.cls-15{opacity:0.31;}.cls-16{opacity:0.48;}.cls-17{opacity:0.68;}.cls-18{opacity:0.72;}.cls-19,.cls-24{fill:#f7c2bc;}.cls-20{fill:#d68624;}.cls-21{fill:#e2b2ae;}.cls-22{fill:#160f1e;}.cls-23{fill:#f49628;}.cls-24{opacity:0.6;}.cls-25{fill:#190f22;}.cls-26{fill:#3f4c8a;}.cls-27{fill:#ffc94f;}.cls-28{font-size:24px;}.cls-28,.cls-29{font-family:Arial-BoldMT, Arial;font-weight:700;}.cls-29{font-size:16px;}</style></defs><g id="Group_5547" data-name="Group 5547"><path id="Path_40669" data-name="Path 40669" class="cls-1" d="M13,18H161a6,6,0,0,1,6,6V241a6,6,0,0,1-6,6H13a6,6,0,0,1-6-6V24A6,6,0,0,1,13,18Z"/><g id="稽核議題追蹤" class="cls-2"><text class="cls-3" transform="translate(32.97 220.97)">稽核議題追蹤</text></g><g id="Group_4108" data-name="Group 4108"><g id="Group_4087" data-name="Group 4087" class="cls-4"><path id="Path_40683" data-name="Path 40683" class="cls-5" d="M146.22,127.56s-18.54,12.82-7.2,29.91C139,157.47,157.22,152.29,146.22,127.56Z"/><g id="Group_4083" data-name="Group 4083"><path id="Path_40684" data-name="Path 40684" class="cls-6" d="M144.27,133.51a.1.1,0,0,0-.1.06c0,.15-4.3,13.54-5.33,24.66H139c1-11.1,5.28-24.45,5.33-24.6a.08.08,0,0,0-.05-.1Z"/></g><g id="Group_4084" data-name="Group 4084"><path id="Path_40685" data-name="Path 40685" class="cls-6" d="M143.19,137.45a.08.08,0,0,1-.1-.06s0-.07,0-.08l2.31-1.57a.08.08,0,0,1,.09.13h0l-2.31,1.57Z"/></g><g id="Group_4085" data-name="Group 4085"><path id="Path_40686" data-name="Path 40686" class="cls-6" d="M141.69,143.16a.08.08,0,0,1-.1-.06.09.09,0,0,1,0-.09l3.89-2a.1.1,0,0,1,.11,0,.08.08,0,0,1,0,.11l-3.89,2Z"/></g><g id="Group_4086" data-name="Group 4086"><path id="Path_40687" data-name="Path 40687" class="cls-6" d="M140.28,149.43a.07.07,0,0,1-.08-.05.08.08,0,0,1,0-.11c.85-.45,1.68-.84,2.49-1.22s1.61-.75,2.45-1.2a.08.08,0,0,1,.11,0,.07.07,0,0,1,0,.11h0c-.84.44-1.67.83-2.46,1.2s-1.64.76-2.48,1.21Z"/></g></g><path id="Path_40688" data-name="Path 40688" class="cls-7" d="M27.42,158.9c20.94-3.55,127-9.75,128.72,7.9,1.76,18.24-95.14,10.5-129,8.47C12.41,174.38,17,160.66,27.42,158.9Z"/><g id="Group_4088" data-name="Group 4088"><rect id="Rectangle_2660" data-name="Rectangle 2660" class="cls-6" x="33.31" y="101.86" width="105.99" height="58.47"/><rect id="Rectangle_2661" data-name="Rectangle 2661" class="cls-8" x="34.74" y="102.28" width="103.12" height="56.44"/></g><g id="Group_4092" data-name="Group 4092"><rect id="Rectangle_2662" data-name="Rectangle 2662" class="cls-9" x="21" y="169.12" width="131.18" height="2.32"/><path id="Path_40697" data-name="Path 40697" class="cls-10" d="M140.73,159.39H33a1.24,1.24,0,0,0-.8.3L21.06,169a.16.16,0,0,0,0,.23.16.16,0,0,0,.12.06H152a.17.17,0,0,0,.17-.17.16.16,0,0,0-.06-.12l-10.79-9.37A.86.86,0,0,0,140.73,159.39Z"/><g id="Group_4091" data-name="Group 4091"><path id="Path_40698" data-name="Path 40698" class="cls-11" d="M139,100.35H34.18a.93.93,0,0,0-.93.93h0v58.13a.93.93,0,0,0,.93.92H139a.93.93,0,0,0,.93-.92h0V101.28a.93.93,0,0,0-.93-.93Zm-1.13,56.53a.93.93,0,0,1-.93.93H36.24a.93.93,0,0,1-.92-.93h0V104.12a.93.93,0,0,1,.92-.93H136.93a.93.93,0,0,1,.93.93h0Z"/><g id="Group_4090" data-name="Group 4090"><circle id="Ellipse_16" data-name="Ellipse 16" class="cls-12" cx="79.54" cy="101.81" r="0.53"/><rect id="Rectangle_2663" data-name="Rectangle 2663" class="cls-12" x="81.86" y="101.73" width="12.3" height="0.16"/></g></g><path id="Path_40699" data-name="Path 40699" class="cls-13" d="M138.34,162.12H34.83l-5.47,5.64H143.81Z"/></g><g id="Group_4095" data-name="Group 4095" class="cls-14"><path id="Path_40700" data-name="Path 40700" class="cls-6" d="M135.19,104.37H37.86a.35.35,0,0,0-.33.37v1.9a.35.35,0,0,0,.33.37h97.33a.35.35,0,0,0,.33-.37v-1.9A.35.35,0,0,0,135.19,104.37Z"/><g id="Group_4094" data-name="Group 4094"><path id="Path_40701" data-name="Path 40701" class="cls-12" d="M135.49,104.38h-3.3V107h3.3a.15.15,0,0,0,.15-.15h0v-2.3a.16.16,0,0,0-.15-.16Z"/><g id="Group_4093" data-name="Group 4093"><rect id="Rectangle_2664" data-name="Rectangle 2664" class="cls-6" x="134.67" y="105.72" width="0.16" height="0.98" transform="translate(-22.74 174.3) rotate(-61.62)"/><path id="Path_40702" data-name="Path 40702" class="cls-15" d="M133.45,106.33a.75.75,0,0,0,.35-1.46.76.76,0,0,0-.91.55h0A.76.76,0,0,0,133.45,106.33Z"/><path id="Path_40703" data-name="Path 40703" class="cls-6" d="M132.92,105.23a.79.79,0,1,0,1.08-.32h0A.79.79,0,0,0,132.92,105.23Zm1.32.71a.7.7,0,0,1-1.24-.67A.7.7,0,0,1,134,105h0a.7.7,0,0,1,.29.94Z"/><path id="Path_40704" data-name="Path 40704" class="cls-6" d="M134.4,105.9l-.1.19s0,0,0,0h0s0,0,0,0l.11-.19s0,0,0,0h0A0,0,0,0,1,134.4,105.9Z"/></g></g></g><g id="Group_4097" data-name="Group 4097"><path id="Path_40705" data-name="Path 40705" class="cls-6" d="M132.58,127.56H82.68a.54.54,0,0,0-.55.52v22.37a.55.55,0,0,0,.55.52h49.9a.54.54,0,0,0,.55-.52V128.08A.53.53,0,0,0,132.58,127.56Z"/><g id="Group_4096" data-name="Group 4096"><rect id="Rectangle_2665" data-name="Rectangle 2665" class="cls-16" x="89.21" y="129.58" width="32.49" height="0.63"/><rect id="Rectangle_2666" data-name="Rectangle 2666" class="cls-16" x="84.31" y="131.94" width="43.52" height="0.42"/><rect id="Rectangle_2667" data-name="Rectangle 2667" class="cls-16" x="84.31" y="134.51" width="43.52" height="0.42"/><rect id="Rectangle_2668" data-name="Rectangle 2668" class="cls-16" x="84.31" y="137.08" width="43.52" height="0.42"/><rect id="Rectangle_2669" data-name="Rectangle 2669" class="cls-16" x="84.31" y="139.64" width="43.52" height="0.42"/><rect id="Rectangle_2670" data-name="Rectangle 2670" class="cls-16" x="84.31" y="142.21" width="27.13" height="0.42"/><rect id="Rectangle_2671" data-name="Rectangle 2671" class="cls-16" x="84.31" y="144.78" width="27.13" height="0.42"/><rect id="Rectangle_2672" data-name="Rectangle 2672" class="cls-16" x="84.31" y="147.34" width="43.52" height="0.42"/></g></g><g id="Group_4098" data-name="Group 4098" class="cls-17"><path id="Path_40706" data-name="Path 40706" class="cls-18" d="M61.38,125.37c.06.47.11.94.17,1.4h0a.15.15,0,0,1-.08.16,8,8,0,0,0-2,1.41l0,0-1.32-.66a9.19,9.19,0,0,0-1.67,2.66c.17.14.35.27.54.4a1.17,1.17,0,0,1,.59.68v.08a7.56,7.56,0,0,0-.35,2v.33l0,0-1.4.48a8.65,8.65,0,0,0,.7,3l1.42-.13h0a.16.16,0,0,1,.15.09,7.83,7.83,0,0,0,1.38,1.9s0,0,0,0c-.23.44-.45.88-.67,1.33a9.28,9.28,0,0,0,2.63,1.66l.2-.25c.23-.28.46-.56.68-.85h0a.16.16,0,0,1,.17-.05,7.16,7.16,0,0,0,2.15.39h.22l0,0c.16.47.33.93.5,1.39a8.8,8.8,0,0,0,3.07-.7c0-.21,0-.43-.07-.64s-.11-.53-.11-.77a.14.14,0,0,1,.09-.13,7.93,7.93,0,0,0,1.82-1.27.15.15,0,0,1,.18,0l1.25.62a9,9,0,0,0,1.71-2.64l-1.14-.92,0,0a7.57,7.57,0,0,0,.45-2.3V134a.15.15,0,0,1,.11-.14l1.32-.47a8.72,8.72,0,0,0-.68-3.06l-1,.14-.36,0a.14.14,0,0,1-.14-.09,8.07,8.07,0,0,0-1.39-2l0,0c.22-.43.43-.86.64-1.3a9.23,9.23,0,0,0-2.53-1.66l-.05,0c-.32.36-.63.73-1,1.07l0,0a7.81,7.81,0,0,0-2.29-.44h-.16a.17.17,0,0,1-.14-.09l0-.08c-.14-.42-.29-.85-.44-1.27a9,9,0,0,0-3.06.69Zm3.72,4a4.44,4.44,0,1,1-4.62,4.28A4.45,4.45,0,0,1,65.1,129.33Z"/><path id="Path_40707" data-name="Path 40707" class="cls-18" d="M48.62,118.92c-.06.4-.11.8-.16,1.2h0a.14.14,0,0,1-.11.11,6.22,6.22,0,0,0-1.92.74l0,0-.94-.83a7.8,7.8,0,0,0-2,1.83c.11.15.24.3.37.45a1,1,0,0,1,.33.69.19.19,0,0,1,0,.07,6.48,6.48,0,0,0-.73,1.58c0,.09,0,.18-.07.27h0l-1.26.09a7.28,7.28,0,0,0-.08,2.63l1.19.21h0a.13.13,0,0,1,.1.1A6.56,6.56,0,0,0,44,129.9l0,0-.84.95a7.82,7.82,0,0,0,1.81,2l.22-.16.75-.55h0a.11.11,0,0,1,.15,0,6.89,6.89,0,0,0,1.69.8L48,133v0c0,.42.07.84.1,1.26a7.6,7.6,0,0,0,2.69.1l.09-.55c0-.21,0-.46.07-.66a.13.13,0,0,1,.1-.09,6.74,6.74,0,0,0,1.79-.65.14.14,0,0,1,.15,0l.9.79a7.8,7.8,0,0,0,2-1.81c-.24-.34-.49-.68-.74-1l0,0a6.38,6.38,0,0,0,.87-1.8l0-.1a.15.15,0,0,1,.12-.1l1.19-.1a7.26,7.26,0,0,0,.11-2.67l-.88-.12a1.55,1.55,0,0,1-.3,0,.13.13,0,0,1-.1-.1,6.49,6.49,0,0,0-.72-1.91l0,0c.28-.31.55-.62.82-.94a7.91,7.91,0,0,0-1.73-1.92l-.05,0c-.35.22-.69.46-1,.67l0,0a6.8,6.8,0,0,0-1.8-.87l-.13,0a.13.13,0,0,1-.1-.1.17.17,0,0,1,0-.07c0-.38-.05-.76-.09-1.15a7.49,7.49,0,0,0-2.67-.1Zm2.2,4.09a3.8,3.8,0,1,1-4.76,2.53A3.8,3.8,0,0,1,50.82,123Z"/><path id="Path_40708" data-name="Path 40708" class="cls-18" d="M52.77,135.27l-.49.86h0a.09.09,0,0,1-.11.05,5.26,5.26,0,0,0-1.68,0s0,0,0,0l-.46-.91a6.45,6.45,0,0,0-2,.78,3.5,3.5,0,0,0,.14.46.79.79,0,0,1,0,.62l0,.05a5,5,0,0,0-1,1l-.14.18h0l-1-.32a6.29,6.29,0,0,0-.86,2c.28.18.56.36.85.53h0a.13.13,0,0,1,0,.11,5.31,5.31,0,0,0,0,1.64l0,0-.92.46a6.11,6.11,0,0,0,.78,2l.22-.05.73-.2h0a.12.12,0,0,1,.12,0,5.22,5.22,0,0,0,1,1.11l.12.1a.06.06,0,0,1,0,0l-.3,1a6,6,0,0,0,2,.89l.23-.38a5.42,5.42,0,0,1,.26-.48.12.12,0,0,1,.11,0,5.36,5.36,0,0,0,1.55.05.11.11,0,0,1,.11.06c.14.29.29.58.44.87a6.57,6.57,0,0,0,2.06-.77c-.08-.33-.17-.66-.26-1v0a5.48,5.48,0,0,0,1.21-1.1l0-.06a.1.1,0,0,1,.12,0l.93.29a6,6,0,0,0,.9-2l-.64-.36-.22-.12a.12.12,0,0,1,0-.11,5.5,5.5,0,0,0,0-1.67l0,0,.9-.46a6.42,6.42,0,0,0-.72-2h-.05l-1,.2h0a5.71,5.71,0,0,0-1.1-1.2l-.09-.07a.1.1,0,0,1,0-.11.43.43,0,0,0,0-.05c.1-.3.2-.6.29-.9a6,6,0,0,0-2-.89ZM53.2,139a3.11,3.11,0,1,1-4.37.47A3.1,3.1,0,0,1,53.2,139Z"/></g><g id="Group_4107" data-name="Group 4107"><path id="Path_40709" data-name="Path 40709" class="cls-19" d="M95.77,106.86l-4.4,8-8.58,3.36-2-.28-2,.47a.31.31,0,0,0-.21.37.37.37,0,0,0,0,.11l.76.92,1.16.72a.28.28,0,0,0,.18,0l1.62-.12,10-2.91a3.16,3.16,0,0,0,1.75-1.29l5.64-8.54Z"/><path id="Path_40710" data-name="Path 40710" class="cls-12" d="M102.81,100.51s4-3.63.26-7.65C99.31,91.68,96,93.92,97,96.58S101.73,101.83,102.81,100.51Z"/><path id="Path_40711" data-name="Path 40711" class="cls-20" d="M97,103.61l-4.37,7L98,112.89l2.8-7.46a1.94,1.94,0,0,0-1.26-2.31h0A2,2,0,0,0,97,103.61Z"/><path id="Path_40712" data-name="Path 40712" class="cls-21" d="M102.26,97.79l.64,4.47,2.11,1.32s-6.49,2.15-8.08,1.56c0,0,1.76-2.69,1.75-2.8s.23-3.81.23-3.81Z"/><path id="Path_40713" data-name="Path 40713" class="cls-19" d="M111.33,162.44l5.77,9,4.23-2.4-6-9.87Z"/><path id="Path_40714" data-name="Path 40714" class="cls-20" d="M116.73,171.11a3.3,3.3,0,0,0-.5,3.46l6.3-3.57-1.35-2.42Z"/><g id="Group_4099" data-name="Group 4099"><path id="Path_40715" data-name="Path 40715" class="cls-12" d="M116.41,173.5a.1.1,0,0,1-.1-.1.2.2,0,0,1,0-.08l5.17-2.92a.11.11,0,0,1,.15,0,.11.11,0,0,1,0,.14l0,0-5.17,2.93Z"/></g><path id="Path_40716" data-name="Path 40716" class="cls-19" d="M89.52,161.5l-1.45,10.63,4.77.91,1.83-11.4Z"/><path id="Path_40717" data-name="Path 40717" class="cls-20" d="M88,171.6a3.31,3.31,0,0,0-2.63,2.32l7.12,1.35.54-2.71Z"/><g id="Group_4100" data-name="Group 4100"><path id="Path_40718" data-name="Path 40718" class="cls-12" d="M92.14,174.35h0l-5.84-1.11a.1.1,0,0,1,0-.14.08.08,0,0,1,.08,0l5.83,1.11a.1.1,0,0,1,.06.13.11.11,0,0,1-.07.06Z"/></g><path id="Path_40719" data-name="Path 40719" class="cls-22" d="M97.18,167.05l6.91-45.7L93.82,120.2l-8,45.45Z"/><path id="Path_40720" data-name="Path 40720" class="cls-12" d="M94.16,120.06l4.69,29.68L109.71,167l10.39-6.2-11-14.62-3.8-18.32c.35-4.63-1.08-7.68-2.81-8.06Z"/><path id="Path_40721" data-name="Path 40721" class="cls-23" d="M98.35,102.89a21.23,21.23,0,0,0-2.93,5.16c-1.08,3-1.34,7.8-1.6,12.15,1.26,1,7.87.63,8.93-.31-.21.1,5.67-10.39,3.6-15.16-.6-1.64-3.53-3.18-3.53-3.18S100.44,104.42,98.35,102.89Z"/><g id="Group_4101" data-name="Group 4101"><path id="Path_40722" data-name="Path 40722" class="cls-19" d="M98.4,122.24a11.89,11.89,0,0,1-3.81-.19.11.11,0,0,1,0-.14.11.11,0,0,1,.09,0s3.18.88,8.23-.75a.1.1,0,0,1,.11.1.12.12,0,0,1,0,.09A20.59,20.59,0,0,1,98.4,122.24Z"/></g><g id="Group_4102" data-name="Group 4102"><path id="Path_40723" data-name="Path 40723" class="cls-24" d="M110.71,164.91a.08.08,0,0,1-.09,0l-10-15,0,0L95.46,123.6a.09.09,0,0,1,.1-.09.11.11,0,0,1,.09,0l5.13,26.25,10,14.95a.11.11,0,0,1,0,.14Z"/></g><g id="Group_4103" data-name="Group 4103"><path id="Path_40724" data-name="Path 40724" class="cls-12" d="M99.82,104.52h0a2.68,2.68,0,0,1-1.89-.56.11.11,0,0,1,0-.14.12.12,0,0,1,.1,0,2.54,2.54,0,0,0,1.33.52,4,4,0,0,0,3.23-1.7.09.09,0,0,1,.13,0,.1.1,0,0,1,.05.13l0,0A4.44,4.44,0,0,1,99.82,104.52Z"/></g><path id="Path_40725" data-name="Path 40725" class="cls-19" d="M102.11,93.32S98.55,91.78,97.5,96c-.65,2.58-.75,4.64.9,5.17,2,.65,3.66.12,4.34-1.49S105.52,94.81,102.11,93.32Z"/><path id="Path_40726" data-name="Path 40726" class="cls-19" d="M103.56,97.42s.79,0,.62.5c-.24.72-.68.68-1,.74S103.56,97.42,103.56,97.42Z"/><path id="Path_40727" data-name="Path 40727" class="cls-12" d="M98.77,94.18s.13,1.86,3.76,1.62c1.45-.1.63,3.45,1.68,2.42s.55-5.45-2.22-6.07-6.82,1.16-5.18,4.23C97.37,97.42,97.68,94.65,98.77,94.18Z"/><path id="Path_40728" data-name="Path 40728" class="cls-12" d="M103.52,90.81a4.64,4.64,0,0,0,.22-1c.1-.84.9-2.2,5.21-1.9,6.15.42,10.46-2.31,11.78-4.78s13,9.23,4.33,14.93c-7.55,5-12.38-2.09-15.31-3.58C104.57,91.86,104,95,104,95S103.12,91.93,103.52,90.81Z"/><g id="Group_4105" data-name="Group 4105"><g id="Group_4104" data-name="Group 4104"><path id="Path_40729" data-name="Path 40729" class="cls-25" d="M83.58,99.12s-8.17-.68-13.84.75c0,0-1,13.54-.85,14s.55,10.5,12.11,16.22c12.35-3.73,14.44-13.53,14.63-14s1.48-14,1.48-14C91.76,99.8,83.58,99.12,83.58,99.12Z"/><path id="Path_40730" data-name="Path 40730" class="cls-26" d="M83.4,101.35s-7-.58-11.85.64c0,0-.83,11.59-.73,12s.47,9,10.37,13.88c10.57-3.19,12.35-11.58,12.52-12s1.27-12,1.27-12C90.4,101.93,83.4,101.35,83.4,101.35Z"/></g><path id="Path_40731" data-name="Path 40731" class="cls-6" d="M87.62,109.55l-.65-.06c-.15-3.46-1.76-5.29-3.85-5.46s-4,1.36-4.7,4.75l-.54,0a1.24,1.24,0,0,0-1.34,1.13l-.81,9.75A1.24,1.24,0,0,0,76.86,121l9.75.81A1.25,1.25,0,0,0,88,120.63l.81-9.74A1.25,1.25,0,0,0,87.62,109.55ZM83.79,115a.45.45,0,0,0-.14.3l-.32,3.82a.44.44,0,0,1-.49.41l-1.64-.13a.45.45,0,0,1-.42-.5h0l.32-3.84a.44.44,0,0,0-.09-.31,2.11,2.11,0,0,1-.59-1.3,2.09,2.09,0,0,1,4.17.35h0a2.15,2.15,0,0,1-.8,1.2Zm-4.14-6.11c.73-2.72,2-3.68,3.36-3.57s2.45,1.27,2.72,4.07Z"/></g><path id="Path_40732" data-name="Path 40732" class="cls-19" d="M100.74,109.81l-3.68,8.35-8.24,4.11-2-.11-1.92.65a.32.32,0,0,0-.18.39.36.36,0,0,0,.07.1l.83.85,1.22.62a.37.37,0,0,0,.18,0l1.61-.26,9.71-3.79A3.17,3.17,0,0,0,100,119.3l4.85-9Z"/><path id="Path_40733" data-name="Path 40733" class="cls-23" d="M102.33,105.79l-4.14,7.1,5.92,2.25,2.06-7.64a2,2,0,0,0-1.34-2.27h0A2,2,0,0,0,102.33,105.79Z"/><g id="Group_4106" data-name="Group 4106"><path id="Path_40734" data-name="Path 40734" class="cls-12" d="M104.12,115.24h0L98.15,113a.1.1,0,0,1-.05-.13h0l3.84-6.6a.09.09,0,0,1,.12-.07.11.11,0,0,1,.07.13l0,0-3.77,6.51,5.72,2.17,1.94-7.47a.1.1,0,0,1,.19,0l-2,7.57a.11.11,0,0,1-.09.07Z"/></g></g></g><path id="Path_40741" data-name="Path 40741" class="cls-27" d="M36.69,2.81,40.56,7.1,45.41,4,48,9.1l5.5-1.78L54.73,13l5.77-.3-.3,5.77,5.65,1.2-1.79,5.5,5.15,2.62-3.15,4.85,4.3,3.86-4.3,3.87,3.15,4.85-5.15,2.62,1.79,5.49-5.66,1.2.3,5.77L54.72,60l-1.2,5.66L48,63.84,45.41,69l-4.85-3.15-3.87,4.3-3.86-4.3L28,69l-2.62-5.15-5.5,1.79L18.66,60l-5.77.3.3-5.77-5.65-1.2,1.78-5.5L4.18,45.19l3.14-4.85L3,36.47l4.29-3.86L4.18,27.76l5.14-2.62-1.78-5.5,5.65-1.2-.3-5.77,5.77.3,1.2-5.65,5.5,1.79L28,4,32.83,7.1Z"/><g id="_7" data-name=" 7" class="cls-2"><text class="cls-28" transform="translate(27.97 55.97)">7</text></g><g id="Step" class="cls-2"><text class="cls-29" transform="translate(18.97 32.97)">Step</text></g></g></svg>